  0
SECTION
  2
ENTITIES
  0
CIRCLE
  8
APS_GEOMETRY
 10
54.460204
 20
246.639032
 40
1.5
  0
CIRCLE
  8
APS_GEOMETRY
 10
67.895267
 20
260.07402
 40
1.5
  0
CIRCLE
  8
APS_GEOMETRY
 10
61.177766
 20
253.356546
 40
14.818066
  0
CIRCLE
  8
APS_GEOMETRY
 10
63.116282
 20
219.944953
 40
14.818066
  0
CIRCLE
  8
APS_GEOMETRY
 10
79.822452
 20
232.214142
 40
1.5
  0
CIRCLE
  8
APS_GEOMETRY
 10
93.257515
 20
245.649129
 40
1.5
  0
CIRCLE
  8
APS_GEOMETRY
 10
86.540014
 20
238.931655
 40
12.25
  0
ARC
  8
APS_GEOMETRY
 10
145.533066
 20
212.376004
 40
5.0
 50
270.040421
 51
0.0
  0
LINE
  8
APS_GEOMETRY
 10
150.533066
 11
150.533066
 20
212.376004
 21
219.642857
  0
LINE
  8
APS_GEOMETRY
 10
150.533066
 11
123.745341
 20
219.642857
 21
219.642857
  0
LINE
  8
APS_GEOMETRY
 10
123.745341
 11
123.745341
 20
219.642857
 21
224.642857
  0
LINE
  8
APS_GEOMETRY
 10
123.745341
 11
150.533066
 20
224.642857
 21
224.642857
  0
LINE
  8
APS_GEOMETRY
 10
150.533066
 11
150.533066
 20
224.642857
 21
231.918074
  0
ARC
  8
APS_GEOMETRY
 10
145.533066
 20
231.918074
 40
5.0
 50
0.0
 51
89.96618
  0
LINE
  8
APS_GEOMETRY
 10
145.536017
 11
111.957617
 20
236.918073
 21
236.937893
  0
LINE
  8
APS_GEOMETRY
 10
111.957617
 11
111.957617
 20
236.937893
 21
228.642857
  0
LINE
  8
APS_GEOMETRY
 10
111.957617
 11
96.957617
 20
228.642857
 21
228.642857
  0
LINE
  8
APS_GEOMETRY
 10
96.957617
 11
96.957617
 20
228.642857
 21
215.642857
  0
LINE
  8
APS_GEOMETRY
 10
96.957617
 11
111.957617
 20
215.642857
 21
215.642857
  0
LINE
  8
APS_GEOMETRY
 10
111.957617
 11
111.957617
 20
215.642857
 21
207.352316
  0
LINE
  8
APS_GEOMETRY
 10
111.957617
 11
145.536593
 20
207.352316
 21
207.376005
  0
ARC
  8
APS_GEOMETRY
 10
145.533066
 20
245.616246
 40
5.0
 50
270.040421
 51
0.0
  0
LINE
  8
APS_GEOMETRY
 10
150.533066
 11
150.533066
 20
245.616246
 21
265.158316
  0
ARC
  8
APS_GEOMETRY
 10
145.533066
 20
265.158316
 40
5.0
 50
360.0
 51
89.96618
  0
LINE
  8
APS_GEOMETRY
 10
145.536017
 11
111.957617
 20
270.158315
 21
270.178135
  0
LINE
  8
APS_GEOMETRY
 10
111.957617
 11
111.957617
 20
270.178135
 21
261.883099
  0
LINE
  8
APS_GEOMETRY
 10
111.957617
 11
96.957617
 20
261.883099
 21
261.883099
  0
LINE
  8
APS_GEOMETRY
 10
96.957617
 11
96.957617
 20
261.883099
 21
257.883099
  0
LINE
  8
APS_GEOMETRY
 10
96.957617
 11
123.745341
 20
257.883099
 21
257.883099
  0
LINE
  8
APS_GEOMETRY
 10
123.745341
 11
123.745341
 20
257.883099
 21
252.883099
  0
LINE
  8
APS_GEOMETRY
 10
123.745341
 11
96.957617
 20
252.883099
 21
252.883099
  0
LINE
  8
APS_GEOMETRY
 10
96.957617
 11
96.957617
 20
252.883099
 21
248.883099
  0
LINE
  8
APS_GEOMETRY
 10
96.957617
 11
111.957617
 20
248.883099
 21
248.883099
  0
LINE
  8
APS_GEOMETRY
 10
111.957617
 11
111.957617
 20
248.883099
 21
240.592558
  0
LINE
  8
APS_GEOMETRY
 10
111.957617
 11
145.536593
 20
240.592558
 21
240.616247
  0
LINE
  8
APS_GEOMETRY
 10
67.677766
 11
63.677766
 20
255.856546
 21
255.856546
  0
LINE
  8
APS_GEOMETRY
 10
63.677766
 11
63.677766
 20
255.856546
 21
259.856546
  0
LINE
  8
APS_GEOMETRY
 10
63.677766
 11
58.677766
 20
259.856546
 21
259.856546
  0
LINE
  8
APS_GEOMETRY
 10
58.677766
 11
58.677766
 20
259.856546
 21
255.856546
  0
LINE
  8
APS_GEOMETRY
 10
58.677766
 11
54.677766
 20
255.856546
 21
255.856546
  0
LINE
  8
APS_GEOMETRY
 10
54.677766
 11
54.677766
 20
255.856546
 21
250.856546
  0
LINE
  8
APS_GEOMETRY
 10
54.677766
 11
58.677766
 20
250.856546
 21
250.856546
  0
LINE
  8
APS_GEOMETRY
 10
58.677766
 11
58.677766
 20
250.856546
 21
246.856546
  0
LINE
  8
APS_GEOMETRY
 10
58.677766
 11
63.677766
 20
246.856546
 21
246.856546
  0
LINE
  8
APS_GEOMETRY
 10
63.677766
 11
63.677766
 20
246.856546
 21
250.856546
  0
LINE
  8
APS_GEOMETRY
 10
63.677766
 11
67.677766
 20
250.856546
 21
250.856546
  0
LINE
  8
APS_GEOMETRY
 10
67.677766
 11
67.677766
 20
250.856546
 21
255.856546
  0
LINE
  8
APS_GEOMETRY
 10
53.245386
 11
54.822429
 20
213.226451
 21
210.494934
  0
LINE
  8
APS_GEOMETRY
 10
54.822429
 11
57.976512
 20
210.494934
 21
210.494934
  0
LINE
  8
APS_GEOMETRY
 10
57.976512
 11
59.553556
 20
210.494934
 21
213.226451
  0
LINE
  8
APS_GEOMETRY
 10
59.553556
 11
57.976512
 20
213.226451
 21
215.957969
  0
LINE
  8
APS_GEOMETRY
 10
57.976512
 11
54.822429
 20
215.957969
 21
215.957969
  0
LINE
  8
APS_GEOMETRY
 10
54.822429
 11
53.245386
 20
215.957969
 21
213.226451
  0
LINE
  8
APS_GEOMETRY
 10
66.680449
 11
68.257492
 20
226.661439
 21
223.929922
  0
LINE
  8
APS_GEOMETRY
 10
68.257492
 11
71.411575
 20
223.929922
 21
223.929922
  0
LINE
  8
APS_GEOMETRY
 10
71.411575
 11
72.988619
 20
223.929922
 21
226.661439
  0
LINE
  8
APS_GEOMETRY
 10
72.988619
 11
71.411575
 20
226.661439
 21
229.392957
  0
LINE
  8
APS_GEOMETRY
 10
71.411575
 11
68.257492
 20
229.392957
 21
229.392957
  0
LINE
  8
APS_GEOMETRY
 10
68.257492
 11
66.680449
 20
229.392957
 21
226.661439
  0
LINE
  8
APS_GEOMETRY
 10
69.616282
 11
65.616282
 20
222.444953
 21
222.444953
  0
LINE
  8
APS_GEOMETRY
 10
65.616282
 11
65.616282
 20
222.444953
 21
226.444953
  0
LINE
  8
APS_GEOMETRY
 10
65.616282
 11
60.616282
 20
226.444953
 21
226.444953
  0
LINE
  8
APS_GEOMETRY
 10
60.616282
 11
60.616282
 20
226.444953
 21
222.444953
  0
LINE
  8
APS_GEOMETRY
 10
60.616282
 11
56.616282
 20
222.444953
 21
222.444953
  0
LINE
  8
APS_GEOMETRY
 10
56.616282
 11
56.616282
 20
222.444953
 21
217.444953
  0
LINE
  8
APS_GEOMETRY
 10
56.616282
 11
60.616282
 20
217.444953
 21
217.444953
  0
LINE
  8
APS_GEOMETRY
 10
60.616282
 11
60.616282
 20
217.444953
 21
213.444953
  0
LINE
  8
APS_GEOMETRY
 10
60.616282
 11
65.616282
 20
213.444953
 21
213.444953
  0
LINE
  8
APS_GEOMETRY
 10
65.616282
 11
65.616282
 20
213.444953
 21
217.444953
  0
LINE
  8
APS_GEOMETRY
 10
65.616282
 11
69.616282
 20
217.444953
 21
217.444953
  0
LINE
  8
APS_GEOMETRY
 10
69.616282
 11
69.616282
 20
217.444953
 21
222.444953
  0
LINE
  8
APS_GEOMETRY
 10
93.040014
 11
89.040014
 20
241.431655
 21
241.431655
  0
LINE
  8
APS_GEOMETRY
 10
89.040014
 11
89.040014
 20
241.431655
 21
245.431655
  0
LINE
  8
APS_GEOMETRY
 10
89.040014
 11
84.040014
 20
245.431655
 21
245.431655
  0
LINE
  8
APS_GEOMETRY
 10
84.040014
 11
84.040014
 20
245.431655
 21
241.431655
  0
LINE
  8
APS_GEOMETRY
 10
84.040014
 11
80.040014
 20
241.431655
 21
241.431655
  0
LINE
  8
APS_GEOMETRY
 10
80.040014
 11
80.040014
 20
241.431655
 21
236.431655
  0
LINE
  8
APS_GEOMETRY
 10
80.040014
 11
84.040014
 20
236.431655
 21
236.431655
  0
LINE
  8
APS_GEOMETRY
 10
84.040014
 11
84.040014
 20
236.431655
 21
232.431655
  0
LINE
  8
APS_GEOMETRY
 10
84.040014
 11
89.040014
 20
232.431655
 21
232.431655
  0
LINE
  8
APS_GEOMETRY
 10
89.040014
 11
89.040014
 20
232.431655
 21
236.431655
  0
LINE
  8
APS_GEOMETRY
 10
89.040014
 11
93.040014
 20
236.431655
 21
236.431655
  0
LINE
  8
APS_GEOMETRY
 10
93.040014
 11
93.040014
 20
236.431655
 21
241.431655
  0
ARC
  8
APS_GEOMETRY
 10
56.457879
 20
195.035211
 40
3.731334
 50
202.7274
 51
247.2726
  0
ARC
  8
APS_GEOMETRY
 10
56.516273
 20
195.103523
 40
3.817
 50
246.860287
 51
293.140726
  0
ARC
  8
APS_GEOMETRY
 10
56.597102
 20
194.949781
 40
3.643889
 50
292.922067
 51
357.893283
  0
ARC
  8
APS_GEOMETRY
 10
56.957986
 20
194.930769
 40
3.282556
 50
357.993348
 51
71.191207
  0
ARC
  8
APS_GEOMETRY
 10
56.516104
 20
193.626359
 40
4.659778
 50
71.219129
 51
108.775441
  0
ARC
  8
APS_GEOMETRY
 10
56.221103
 20
194.425674
 40
3.808111
 50
108.443904
 51
138.941081
  0
LINE
  8
APS_GEOMETRY
 10
53.349656
 11
54.127435
 20
196.926974
 21
201.371434
  0
LINE
  8
APS_GEOMETRY
 10
54.127435
 11
59.127435
 20
201.371434
 21
201.371434
  0
LINE
  8
APS_GEOMETRY
 10
66.506041
 11
66.506117
 20
191.367654
 21
195.967687
  0
ARC
  8
APS_GEOMETRY
 10
64.81504
 20
195.976577
 40
1.6911
 50
359.698802
 51
90.305782
  0
ARC
  8
APS_GEOMETRY
 10
64.803741
 20
194.758854
 40
2.9088
 50
89.9552
 51
153.2598
  0
LINE
  8
APS_GEOMETRY
 10
62.206041
 11
62.206041
 20
191.367654
 21
197.667654
  0
LINE
  8
APS_GEOMETRY
 10
70.806041
 11
70.806117
 20
191.367654
 21
195.967687
  0
ARC
  8
APS_GEOMETRY
 10
69.11504
 20
195.976577
 40
1.6911
 50
359.698802
 51
90.305782
  0
ARC
  8
APS_GEOMETRY
 10
69.103741
 20
194.758854
 40
2.9088
 50
89.9552
 51
153.2598
  0
LINE
  8
APS_GEOMETRY
 10
77.106161
 11
77.106238
 20
191.367654
 21
195.967687
  0
ARC
  8
APS_GEOMETRY
 10
75.415161
 20
195.976577
 40
1.6911
 50
359.698802
 51
90.305782
  0
ARC
  8
APS_GEOMETRY
 10
75.403861
 20
194.758854
 40
2.9088
 50
89.9552
 51
153.2598
  0
LINE
  8
APS_GEOMETRY
 10
72.806161
 11
72.806161
 20
191.367654
 21
197.667654
  0
LINE
  8
APS_GEOMETRY
 10
81.406161
 11
81.406238
 20
191.367654
 21
195.967687
  0
ARC
  8
APS_GEOMETRY
 10
79.715161
 20
195.976577
 40
1.6911
 50
359.698802
 51
90.305782
  0
ARC
  8
APS_GEOMETRY
 10
79.703861
 20
194.758854
 40
2.9088
 50
89.9552
 51
153.2598
  0
LINE
  8
APS_GEOMETRY
 10
93.128504
 11
99.239616
 20
194.387836
 21
194.387836
  0
LINE
  8
APS_GEOMETRY
 10
91.906282
 11
95.795171
 20
191.367654
 21
201.367654
  0
LINE
  8
APS_GEOMETRY
 10
95.795171
 11
96.68406
 20
201.367654
 21
201.367654
  0
LINE
  8
APS_GEOMETRY
 10
96.68406
 11
100.350727
 20
201.367654
 21
191.367654
  0
ARC
  8
APS_GEOMETRY
 10
103.623869
 20
194.895745
 40
2.5727
 50
34.918935
 51
89.788286
  0
ARC
  8
APS_GEOMETRY
 10
103.637795
 20
195.115131
 40
2.3533
 50
90.107586
 51
153.41119
  0
ARC
  8
APS_GEOMETRY
 10
105.130771
 20
194.368415
 40
4.0226
 50
153.418148
 51
206.580991
  0
ARC
  8
APS_GEOMETRY
 10
103.637772
 20
193.621745
 40
2.3533
 50
206.588564
 51
269.892739
  0
ARC
  8
APS_GEOMETRY
 10
103.623879
 20
193.841131
 40
2.5727
 50
270.2113
 51
325.0807
  0
ARC
  8
APS_GEOMETRY
 10
110.544851
 20
195.051854
 40
2.6159
 50
89.6195
 51
170.8532
  0
LINE
  8
APS_GEOMETRY
 10
107.962251
 11
107.962251
 20
197.667654
 21
191.367654
  0
LINE
  8
APS_GEOMETRY
 10
106.675944
 11
109.248558
 20
191.367654
 21
191.367654
  0
LINE
  8
APS_GEOMETRY
 10
111.794735
 11
114.094735
 20
197.805323
 21
191.305323
  0
LINE
  8
APS_GEOMETRY
 10
111.794735
 11
112.594735
 20
188.805323
 21
188.805323
  0
LINE
  8
APS_GEOMETRY
 10
112.594735
 11
112.994735
 20
188.805323
 21
188.905323
  0
LINE
  8
APS_GEOMETRY
 10
112.994735
 11
113.294735
 20
188.905323
 21
189.105323
  0
LINE
  8
APS_GEOMETRY
 10
113.294735
 11
113.494735
 20
189.105323
 21
189.405323
  0
LINE
  8
APS_GEOMETRY
 10
113.494735
 11
116.094735
 20
189.405323
 21
197.805323
  0
LINE
  8
APS_GEOMETRY
 10
119.439544
 11
119.439544
 20
191.367654
 21
200.367654
  0
LINE
  8
APS_GEOMETRY
 10
119.439544
 11
118.70485
 20
200.367654
 21
200.367654
  0
LINE
  8
APS_GEOMETRY
 10
117.862223
 11
119.439544
 20
191.367654
 21
191.367654
  0
LINE
  8
APS_GEOMETRY
 10
119.439544
 11
121.016866
 20
191.367654
 21
191.367654
  0
LINE
  8
APS_GEOMETRY
 10
124.303173
 11
124.303173
 20
200.467654
 21
199.667654
  0
LINE
  8
APS_GEOMETRY
 10
124.303173
 11
124.303173
 20
191.367654
 21
197.667654
  0
LINE
  8
APS_GEOMETRY
 10
123.016866
 11
125.58948
 20
191.367654
 21
191.367654
  0
ARC
  8
APS_GEOMETRY
 10
129.162623
 20
194.895745
 40
2.5727
 50
34.918935
 51
89.788286
  0
ARC
  8
APS_GEOMETRY
 10
129.176548
 20
195.115131
 40
2.3533
 50
90.107586
 51
153.41119
  0
ARC
  8
APS_GEOMETRY
 10
130.669524
 20
194.368415
 40
4.0226
 50
153.418148
 51
206.580991
  0
ARC
  8
APS_GEOMETRY
 10
129.176526
 20
193.621745
 40
2.3533
 50
206.588564
 51
269.892739
  0
ARC
  8
APS_GEOMETRY
 10
129.162632
 20
193.841131
 40
2.5727
 50
270.2113
 51
325.0807
  0
ARC
  8
APS_GEOMETRY
 10
157.444393
 20
196.149429
 40
15.5402
 50
159.4697
 51
200.5303
  0
ARC
  8
APS_GEOMETRY
 10
146.862029
 20
193.870616
 40
2.5727
 50
214.9193
 51
269.7887
  0
ARC
  8
APS_GEOMETRY
 10
146.848135
 20
193.651229
 40
2.3533
 50
270.107261
 51
333.411436
  0
ARC
  8
APS_GEOMETRY
 10
145.355136
 20
194.3979
 40
4.0226
 50
333.419009
 51
26.581852
  0
ARC
  8
APS_GEOMETRY
 10
146.848113
 20
195.144616
 40
2.3533
 50
26.58881
 51
89.892414
  0
ARC
  8
APS_GEOMETRY
 10
146.862038
 20
194.925229
 40
2.5727
 50
90.211714
 51
145.081065
  0
LINE
  8
APS_GEOMETRY
 10
144.752529
 11
144.752529
 20
197.597916
 21
188.897916
  0
LINE
  8
APS_GEOMETRY
 10
151.904242
 11
151.904242
 20
191.367654
 21
200.367654
  0
LINE
  8
APS_GEOMETRY
 10
151.904242
 11
151.169548
 20
200.367654
 21
200.367654
  0
LINE
  8
APS_GEOMETRY
 10
150.326921
 11
151.904242
 20
191.367654
 21
191.367654
  0
LINE
  8
APS_GEOMETRY
 10
151.904242
 11
153.481564
 20
191.367654
 21
191.367654
  0
LINE
  8
APS_GEOMETRY
 10
155.714077
 11
158.014077
 20
197.805323
 21
191.305323
  0
LINE
  8
APS_GEOMETRY
 10
155.714077
 11
156.514077
 20
188.805323
 21
188.805323
  0
LINE
  8
APS_GEOMETRY
 10
156.514077
 11
156.914077
 20
188.805323
 21
188.905323
  0
LINE
  8
APS_GEOMETRY
 10
156.914077
 11
157.214077
 20
188.905323
 21
189.105323
  0
LINE
  8
APS_GEOMETRY
 10
157.214077
 11
157.414077
 20
189.105323
 21
189.405323
  0
LINE
  8
APS_GEOMETRY
 10
157.414077
 11
160.014077
 20
189.405323
 21
197.805323
  0
ARC
  8
APS_GEOMETRY
 10
173.02286
 20
193.757545
 40
2.3411
 50
206.2329
 51
333.7671
  0
ARC
  8
APS_GEOMETRY
 10
171.525451
 20
194.522763
 40
4.0226
 50
333.417878
 51
26.581314
  0
ARC
  8
APS_GEOMETRY
 10
173.022869
 20
195.287963
 40
2.3411
 50
26.231996
 51
153.7676
  0
ARC
  8
APS_GEOMETRY
 10
174.520278
 20
194.522745
 40
4.0226
 50
153.418164
 51
206.581836
  0
ARC
  8
APS_GEOMETRY
 10
180.200844
 20
195.051854
 40
2.6159
 50
89.6195
 51
170.8532
  0
LINE
  8
APS_GEOMETRY
 10
177.618244
 11
177.618244
 20
197.667654
 21
191.367654
  0
LINE
  8
APS_GEOMETRY
 10
176.331937
 11
178.904551
 20
191.367654
 21
191.367654
  0
LINE
  8
APS_GEOMETRY
 10
195.018216
 11
195.018293
 20
191.367654
 21
195.967687
  0
ARC
  8
APS_GEOMETRY
 10
193.327216
 20
195.976577
 40
1.6911
 50
359.698802
 51
90.305782
  0
ARC
  8
APS_GEOMETRY
 10
193.315916
 20
194.758854
 40
2.9088
 50
89.9552
 51
153.2598
  0
LINE
  8
APS_GEOMETRY
 10
190.718216
 11
190.718216
 20
191.367654
 21
197.667654
  0
LINE
  8
APS_GEOMETRY
 10
199.318216
 11
199.318293
 20
191.367654
 21
195.967687
  0
ARC
  8
APS_GEOMETRY
 10
197.627216
 20
195.976577
 40
1.6911
 50
359.698802
 51
90.305782
  0
ARC
  8
APS_GEOMETRY
 10
197.615916
 20
194.758854
 40
2.9088
 50
89.9552
 51
153.2598
  0
LINE
  8
APS_GEOMETRY
 10
204.946305
 11
204.946305
 20
191.368431
 21
200.368431
  0
ARC
  8
APS_GEOMETRY
 10
202.836796
 20
194.895745
 40
2.5727
 50
34.918935
 51
89.788286
  0
ARC
  8
APS_GEOMETRY
 10
202.850721
 20
195.115131
 40
2.3533
 50
90.107586
 51
153.41119
  0
ARC
  8
APS_GEOMETRY
 10
204.343698
 20
194.368415
 40
4.0226
 50
153.418148
 51
206.580991
  0
ARC
  8
APS_GEOMETRY
 10
202.850699
 20
193.621745
 40
2.3533
 50
206.588564
 51
269.892739
  0
ARC
  8
APS_GEOMETRY
 10
202.836805
 20
193.841131
 40
2.5727
 50
270.2113
 51
325.0807
  0
ARC
  8
APS_GEOMETRY
 10
209.24669
 20
197.758466
 40
2.4818
 50
81.8929
 51
98.1071
  0
ARC
  8
APS_GEOMETRY
 10
208.89249
 20
199.419674
 40
0.7958
 50
89.697112
 51
180.304411
  0
LINE
  8
APS_GEOMETRY
 10
208.096701
 11
208.09669
 20
199.415446
 21
191.315466
  0
LINE
  8
APS_GEOMETRY
 10
206.89669
 11
209.39669
 20
197.315466
 21
197.315466
  0
ARC
  8
APS_GEOMETRY
 10
196.296023
 20
196.312036
 40
15.6828
 50
339.4697
 51
20.5303
  0
LINE
  8
APS_GEOMETRY
 10
59.648434
 11
52.981771
 20
176.367607
 21
176.367654
  0
ARC
  8
APS_GEOMETRY
 10
56.506545
 20
176.372363
 40
3.524778
 50
121.813563
 51
180.07656
  0
LINE
  8
APS_GEOMETRY
 10
54.648434
 11
58.426187
 20
179.367607
 21
181.700944
  0
ARC
  8
APS_GEOMETRY
 10
57.196516
 20
183.812034
 40
2.443111
 50
300.220013
 51
59.779436
  0
ARC
  8
APS_GEOMETRY
 10
56.537233
 20
182.412877
 40
3.986222
 50
61.713834
 51
118.283685
  0
ARC
  8
APS_GEOMETRY
 10
55.766879
 20
183.821496
 40
2.380778
 50
118.0207
 51
169.4717
  0
LINE
  8
APS_GEOMETRY
 10
62.148438
 11
66.148438
 20
182.667654
 21
176.367654
  0
LINE
  8
APS_GEOMETRY
 10
61.648438
 11
65.648438
 20
176.367654
 21
182.667654
  0
LINE
  8
APS_GEOMETRY
 10
77.648438
 11
77.648438
 20
176.367654
 21
186.367654
  0
LINE
  8
APS_GEOMETRY
 10
77.648438
 11
78.203993
 20
186.367654
 21
186.367654
  0
LINE
  8
APS_GEOMETRY
 10
78.203993
 11
82.092882
 20
186.367654
 21
176.367654
  0
LINE
  8
APS_GEOMETRY
 10
82.092882
 11
85.981771
 20
176.367654
 21
186.367654
  0
LINE
  8
APS_GEOMETRY
 10
85.981771
 11
86.537327
 20
186.367654
 21
186.367654
  0
LINE
  8
APS_GEOMETRY
 10
86.537327
 11
86.537327
 20
186.367654
 21
176.367654
  0
ARC
  8
APS_GEOMETRY
 10
91.53895
 20
179.565568
 40
3.118111
 50
208.751948
 51
258.48402
  0
ARC
  8
APS_GEOMETRY
 10
92.19964
 20
182.424399
 40
6.051778
 50
257.758312
 51
286.480382
  0
ARC
  8
APS_GEOMETRY
 10
93.138658
 20
179.354397
 40
2.841667
 50
285.885172
 51
325.197039
  0
ARC
  8
APS_GEOMETRY
 10
93.160914
 20
179.372552
 40
2.833889
 50
324.638795
 51
31.268726
  0
ARC
  8
APS_GEOMETRY
 10
93.066519
 20
179.339979
 40
2.931556
 50
30.855291
 51
75.402309
  0
ARC
  8
APS_GEOMETRY
 10
92.472022
 20
176.969215
 40
5.375667
 50
75.6389
 51
104.3611
  0
ARC
  8
APS_GEOMETRY
 10
89.159914
 20
187.901561
 40
6.057
 50
289.068075
 51
345.63788
  0
LINE
  8
APS_GEOMETRY
 10
95.027617
 11
88.916466
 20
186.399125
 21
186.399104
  0
LINE
  8
APS_GEOMETRY
 10
111.52686
 11
111.526937
 20
176.367654
 21
180.967687
  0
ARC
  8
APS_GEOMETRY
 10
109.83586
 20
180.976577
 40
1.6911
 50
359.698802
 51
90.305782
  0
ARC
  8
APS_GEOMETRY
 10
109.82456
 20
179.758854
 40
2.9088
 50
89.9552
 51
153.2598
  0
LINE
  8
APS_GEOMETRY
 10
107.22686
 11
107.22686
 20
176.367654
 21
182.667654
  0
LINE
  8
APS_GEOMETRY
 10
113.595409
 11
113.595333
 20
182.719898
 21
178.119865
  0
ARC
  8
APS_GEOMETRY
 10
115.28641
 20
178.110975
 40
1.6911
 50
179.698802
 51
270.305782
  0
ARC
  8
APS_GEOMETRY
 10
115.297709
 20
179.328698
 40
2.9088
 50
269.9552
 51
333.2598
  0
LINE
  8
APS_GEOMETRY
 10
117.895409
 11
117.895409
 20
182.719898
 21
176.419898
  0
LINE
  8
APS_GEOMETRY
 10
120.991619
 11
120.991619
 20
185.367654
 21
176.367654
  0
LINE
  8
APS_GEOMETRY
 10
119.791619
 11
122.291619
 20
182.567654
 21
182.567654
  0
ARC
  8
APS_GEOMETRY
 10
126.221104
 20
180.096618
 40
2.4404
 50
42.8264
 51
122.4689
  0
ARC
  8
APS_GEOMETRY
 10
125.595907
 20
181.075386
 40
1.279
 50
122.378183
 51
252.485679
  0
LINE
  8
APS_GEOMETRY
 10
125.210999
 11
127.211004
 20
179.855678
 21
179.255618
  0
ARC
  8
APS_GEOMETRY
 10
126.813047
 20
177.939885
 40
1.3746
 50
300.512868
 51
73.171518
  0
ARC
  8
APS_GEOMETRY
 10
126.210901
 20
179.009578
 40
2.602
 50
240.027532
 51
299.976472
  0
ARC
  8
APS_GEOMETRY
 10
125.578169
 20
177.922605
 40
1.3443
 50
209.746055
 51
240.244046
  0
LINE
  8
APS_GEOMETRY
 10
59.648434
 11
52.981771
 20
161.367607
 21
161.367654
  0
ARC
  8
APS_GEOMETRY
 10
56.506545
 20
161.372363
 40
3.524778
 50
121.813563
 51
180.07656
  0
LINE
  8
APS_GEOMETRY
 10
54.648434
 11
58.426187
 20
164.367607
 21
166.700944
  0
ARC
  8
APS_GEOMETRY
 10
57.196516
 20
168.812034
 40
2.443111
 50
300.220013
 51
59.779436
  0
ARC
  8
APS_GEOMETRY
 10
56.537233
 20
167.412877
 40
3.986222
 50
61.713834
 51
118.283685
  0
ARC
  8
APS_GEOMETRY
 10
55.766879
 20
168.821496
 40
2.380778
 50
118.0207
 51
169.4717
  0
LINE
  8
APS_GEOMETRY
 10
62.148438
 11
66.148438
 20
167.667654
 21
161.367654
  0
LINE
  8
APS_GEOMETRY
 10
61.648438
 11
65.648438
 20
161.367654
 21
167.667654
  0
LINE
  8
APS_GEOMETRY
 10
77.648438
 11
77.648438
 20
161.367654
 21
171.367654
  0
LINE
  8
APS_GEOMETRY
 10
77.648438
 11
78.203993
 20
171.367654
 21
171.367654
  0
LINE
  8
APS_GEOMETRY
 10
78.203993
 11
82.092882
 20
171.367654
 21
161.367654
  0
LINE
  8
APS_GEOMETRY
 10
82.092882
 11
85.981771
 20
161.367654
 21
171.367654
  0
LINE
  8
APS_GEOMETRY
 10
85.981771
 11
86.537327
 20
171.367654
 21
171.367654
  0
LINE
  8
APS_GEOMETRY
 10
86.537327
 11
86.537327
 20
171.367654
 21
161.367654
  0
ARC
  8
APS_GEOMETRY
 10
91.53895
 20
164.565568
 40
3.118111
 50
208.751948
 51
258.48402
  0
ARC
  8
APS_GEOMETRY
 10
92.19964
 20
167.424399
 40
6.051778
 50
257.758312
 51
286.480382
  0
ARC
  8
APS_GEOMETRY
 10
93.138658
 20
164.354397
 40
2.841667
 50
285.885172
 51
325.197039
  0
ARC
  8
APS_GEOMETRY
 10
93.160914
 20
164.372552
 40
2.833889
 50
324.638795
 51
31.268726
  0
ARC
  8
APS_GEOMETRY
 10
93.066519
 20
164.339979
 40
2.931556
 50
30.855291
 51
75.402309
  0
ARC
  8
APS_GEOMETRY
 10
92.472022
 20
161.969215
 40
5.375667
 50
75.6389
 51
104.3611
  0
ARC
  8
APS_GEOMETRY
 10
89.159914
 20
172.901561
 40
6.057
 50
289.068075
 51
345.63788
  0
LINE
  8
APS_GEOMETRY
 10
95.027617
 11
88.916466
 20
171.399125
 21
171.399104
  0
ARC
  8
APS_GEOMETRY
 10
109.120863
 20
165.096618
 40
2.4404
 50
42.8264
 51
122.4689
  0
ARC
  8
APS_GEOMETRY
 10
108.495666
 20
166.075386
 40
1.279
 50
122.378183
 51
252.485679
  0
LINE
  8
APS_GEOMETRY
 10
108.110758
 11
110.110763
 20
164.855678
 21
164.255618
  0
ARC
  8
APS_GEOMETRY
 10
109.712806
 20
162.939885
 40
1.3746
 50
300.512868
 51
73.171518
  0
ARC
  8
APS_GEOMETRY
 10
109.110659
 20
164.009578
 40
2.602
 50
240.027532
 51
299.976472
  0
ARC
  8
APS_GEOMETRY
 10
108.477928
 20
162.922605
 40
1.3443
 50
209.746055
 51
240.244046
  0
ARC
  8
APS_GEOMETRY
 10
114.670743
 20
164.895745
 40
2.5727
 50
34.918935
 51
89.788286
  0
ARC
  8
APS_GEOMETRY
 10
114.684668
 20
165.115131
 40
2.3533
 50
90.107586
 51
153.41119
  0
ARC
  8
APS_GEOMETRY
 10
116.177645
 20
164.368415
 40
4.0226
 50
153.418148
 51
206.580991
  0
ARC
  8
APS_GEOMETRY
 10
114.684646
 20
163.621745
 40
2.3533
 50
206.588564
 51
269.892739
  0
ARC
  8
APS_GEOMETRY
 10
114.670753
 20
163.841131
 40
2.5727
 50
270.2113
 51
325.0807
  0
ARC
  8
APS_GEOMETRY
 10
121.591724
 20
165.051854
 40
2.6159
 50
89.6195
 51
170.8532
  0
LINE
  8
APS_GEOMETRY
 10
119.009124
 11
119.009124
 20
167.667654
 21
161.367654
  0
LINE
  8
APS_GEOMETRY
 10
117.722817
 11
120.295431
 20
161.367654
 21
161.367654
  0
LINE
  8
APS_GEOMETRY
 10
122.336165
 11
127.136176
 20
165.022777
 21
165.022761
  0
ARC
  8
APS_GEOMETRY
 10
124.170664
 20
165.131348
 40
2.9675
 50
357.902951
 51
30.171303
  0
ARC
  8
APS_GEOMETRY
 10
124.832566
 20
165.525675
 40
2.1971
 50
29.956335
 51
89.906216
  0
ARC
  8
APS_GEOMETRY
 10
124.840581
 20
165.369477
 40
2.3533
 50
90.107586
 51
153.41119
  0
ARC
  8
APS_GEOMETRY
 10
126.333557
 20
164.622761
 40
4.0226
 50
153.418148
 51
206.580991
  0
ARC
  8
APS_GEOMETRY
 10
124.840558
 20
163.87609
 40
2.3533
 50
206.588564
 51
269.892739
  0
ARC
  8
APS_GEOMETRY
 10
124.826665
 20
164.095477
 40
2.5727
 50
270.2113
 51
325.0807
  0
LINE
  8
APS_GEOMETRY
 10
128.100325
 11
129.900325
 20
167.766449
 21
161.466449
  0
LINE
  8
APS_GEOMETRY
 10
129.900325
 11
130.200325
 20
161.466449
 21
161.466449
  0
LINE
  8
APS_GEOMETRY
 10
130.200325
 11
132.000325
 20
161.466449
 21
167.766449
  0
LINE
  8
APS_GEOMETRY
 10
132.000325
 11
133.800325
 20
167.766449
 21
161.466449
  0
LINE
  8
APS_GEOMETRY
 10
133.800325
 11
134.100325
 20
161.466449
 21
161.466449
  0
LINE
  8
APS_GEOMETRY
 10
134.100325
 11
135.900325
 20
161.466449
 21
167.766449
  0
LINE
  8
APS_GEOMETRY
 10
146.136303
 11
147.85193
 20
161.367654
 21
161.367654
  0
LINE
  8
APS_GEOMETRY
 10
147.85193
 11
149.567556
 20
161.367654
 21
161.367654
  0
LINE
  8
APS_GEOMETRY
 10
147.85193
 11
147.85193
 20
161.367654
 21
171.367654
  0
LINE
  8
APS_GEOMETRY
 10
147.85193
 11
146.136303
 20
171.367654
 21
169.652028
  0
ARC
  8
APS_GEOMETRY
 10
155.585286
 20
168.10887
 40
3.274
 50
38.687092
 51
141.311843
  0
ARC
  8
APS_GEOMETRY
 10
157.759956
 20
166.322092
 40
6.088445
 50
140.979262
 51
219.021887
  0
ARC
  8
APS_GEOMETRY
 10
155.58536
 20
164.535221
 40
3.274
 50
218.688216
 51
321.311676
  0
ARC
  8
APS_GEOMETRY
 10
156.084357
 20
164.155371
 40
2.647111
 50
320.977916
 51
39.022283
  0
ARC
  8
APS_GEOMETRY
 10
155.418646
 20
163.642058
 40
3.487556
 50
38.687897
 51
141.311964
  0
ARC
  8
APS_GEOMETRY
 10
155.183899
 20
163.797909
 40
3.207
 50
140.8638
 51
169.5859
  0
LINE
  8
APS_GEOMETRY
 10
164.927513
 11
164.927589
 20
161.367654
 21
165.967687
  0
ARC
  8
APS_GEOMETRY
 10
163.236512
 20
165.976577
 40
1.6911
 50
359.698802
 51
90.305782
  0
ARC
  8
APS_GEOMETRY
 10
163.225213
 20
164.758854
 40
2.9088
 50
89.9552
 51
153.2598
  0
LINE
  8
APS_GEOMETRY
 10
160.627513
 11
160.627513
 20
161.367654
 21
167.667654
  0
LINE
  8
APS_GEOMETRY
 10
169.227513
 11
169.227589
 20
161.367654
 21
165.967687
  0
ARC
  8
APS_GEOMETRY
 10
167.536512
 20
165.976577
 40
1.6911
 50
359.698802
 51
90.305782
  0
ARC
  8
APS_GEOMETRY
 10
167.525213
 20
164.758854
 40
2.9088
 50
89.9552
 51
153.2598
  0
LINE
  8
APS_GEOMETRY
 10
175.527633
 11
175.52771
 20
161.367654
 21
165.967687
  0
ARC
  8
APS_GEOMETRY
 10
173.836633
 20
165.976577
 40
1.6911
 50
359.698802
 51
90.305782
  0
ARC
  8
APS_GEOMETRY
 10
173.825333
 20
164.758854
 40
2.9088
 50
89.9552
 51
153.2598
  0
LINE
  8
APS_GEOMETRY
 10
171.227633
 11
171.227633
 20
161.367654
 21
167.667654
  0
LINE
  8
APS_GEOMETRY
 10
179.827633
 11
179.82771
 20
161.367654
 21
165.967687
  0
ARC
  8
APS_GEOMETRY
 10
178.136633
 20
165.976577
 40
1.6911
 50
359.698802
 51
90.305782
  0
ARC
  8
APS_GEOMETRY
 10
178.125333
 20
164.758854
 40
2.9088
 50
89.9552
 51
153.2598
  0
LINE
  8
APS_GEOMETRY
 10
192.905076
 11
192.905076
 20
161.367654
 21
170.367654
  0
LINE
  8
APS_GEOMETRY
 10
192.905076
 11
192.170381
 20
170.367654
 21
170.367654
  0
LINE
  8
APS_GEOMETRY
 10
191.327754
 11
192.905076
 20
161.367654
 21
161.367654
  0
LINE
  8
APS_GEOMETRY
 10
192.905076
 11
194.482398
 20
161.367654
 21
161.367654
  0
ARC
  8
APS_GEOMETRY
 10
198.223693
 20
163.757545
 40
2.3411
 50
206.2329
 51
333.7671
  0
ARC
  8
APS_GEOMETRY
 10
196.726284
 20
164.522763
 40
4.0226
 50
333.417878
 51
26.581314
  0
ARC
  8
APS_GEOMETRY
 10
198.223702
 20
165.287963
 40
2.3411
 50
26.231996
 51
153.7676
  0
ARC
  8
APS_GEOMETRY
 10
199.721111
 20
164.522745
 40
4.0226
 50
153.418164
 51
206.581836
  0
LINE
  8
APS_GEOMETRY
 10
205.832771
 11
205.832847
 20
161.367654
 21
165.967687
  0
ARC
  8
APS_GEOMETRY
 10
204.14177
 20
165.976577
 40
1.6911
 50
359.698802
 51
90.305782
  0
ARC
  8
APS_GEOMETRY
 10
204.130471
 20
164.758854
 40
2.9088
 50
89.9552
 51
153.2598
  0
LINE
  8
APS_GEOMETRY
 10
201.532771
 11
201.532771
 20
161.367654
 21
167.667654
  0
ARC
  8
APS_GEOMETRY
 10
209.809396
 20
161.13365
 40
2.247
 50
236.695
 51
298.3259
  0
ARC
  8
APS_GEOMETRY
 10
210.337397
 20
160.158631
 40
1.1382
 50
298.217876
 51
359.847629
  0
LINE
  8
APS_GEOMETRY
 10
211.475593
 11
211.475596
 20
160.155604
 21
167.65565
  0
ARC
  8
APS_GEOMETRY
 10
209.366087
 20
165.082963
 40
2.5727
 50
34.918935
 51
89.788286
  0
ARC
  8
APS_GEOMETRY
 10
209.380012
 20
165.30235
 40
2.3533
 50
90.107586
 51
153.41119
  0
ARC
  8
APS_GEOMETRY
 10
210.872988
 20
164.555634
 40
4.0226
 50
153.418148
 51
206.580991
  0
ARC
  8
APS_GEOMETRY
 10
209.37999
 20
163.808963
 40
2.3533
 50
206.588564
 51
269.892739
  0
ARC
  8
APS_GEOMETRY
 10
209.366096
 20
164.02835
 40
2.5727
 50
270.2113
 51
325.0807
  0
ENDSEC
  0
EOF
