  0
SECTION
  2
ENTITIES
  0
CIRCLE
  8
APS_GEOMETRY
 10
16.785165
 20
101.032873
 40
21.281955
  0
ARC
  8
APS_GEOMETRY
 10
-366.644395
 20
141.93897
 40
0.5
 50
6.680586
 51
137.862405
  0
LINE
  8
APS_GEOMETRY
 10
-367.015163
 11
-367.714352
 20
142.274427
 21
141.501639
  0
ARC
  8
APS_GEOMETRY
 10
-377.836213
 20
134.338684
 40
12.4
 50
35.285965
 51
215.285965
  0
ARC
  8
APS_GEOMETRY
 10
-377.836213
 20
134.338684
 40
12.4
 50
215.285965
 51
240.438846
  0
LINE
  8
APS_GEOMETRY
 10
-383.953781
 11
-384.65297
 20
123.552797
 21
122.780009
  0
ARC
  8
APS_GEOMETRY
 10
-384.282202
 20
122.444552
 40
0.5
 50
137.862354
 51
269.044271
  0
LINE
  8
APS_GEOMETRY
 10
-384.290542
 11
-378.044721
 20
121.944622
 21
121.840423
  0
ARC
  8
APS_GEOMETRY
 10
-377.836213
 20
134.338684
 40
12.5
 50
269.044227
 51
288.99668
  0
ARC
  8
APS_GEOMETRY
 10
-373.11627
 20
120.628391
 40
2.0
 50
47.862409
 51
108.996672
  0
LINE
  8
APS_GEOMETRY
 10
-371.774443
 11
-369.914315
 20
122.111463
 21
120.428489
  0
ARC
  8
APS_GEOMETRY
 10
-368.572488
 20
121.911561
 40
2.0
 50
227.862409
 51
306.702484
  0
ARC
  8
APS_GEOMETRY
 10
-377.836212
 20
134.338685
 40
17.5
 50
306.702465
 51
329.022338
  0
ARC
  8
APS_GEOMETRY
 10
-364.547008
 20
126.360775
 40
2.0
 50
329.022349
 51
47.862404
  0
LINE
  8
APS_GEOMETRY
 10
-363.205181
 11
-365.06531
 20
127.843847
 21
129.52682
  0
ARC
  8
APS_GEOMETRY
 10
-363.723483
 20
131.009891
 40
2.0
 50
166.728115
 51
227.862397
  0
ARC
  8
APS_GEOMETRY
 10
-377.836213
 20
134.338684
 40
12.5
 50
346.728135
 51
6.680588
  0
LINE
  8
APS_GEOMETRY
 10
-365.421086
 11
-366.14779
 20
135.792862
 21
141.997137
  0
ARC
  8
APS_GEOMETRY
 10
-366.644395
 20
115.213745
 40
0.5
 50
6.680586
 51
137.862405
  0
LINE
  8
APS_GEOMETRY
 10
-367.015163
 11
-367.714352
 20
115.549202
 21
114.776414
  0
ARC
  8
APS_GEOMETRY
 10
-377.836213
 20
107.613459
 40
12.4
 50
35.285965
 51
215.285965
  0
ARC
  8
APS_GEOMETRY
 10
-377.836213
 20
107.613459
 40
12.4
 50
215.285965
 51
240.438846
  0
LINE
  8
APS_GEOMETRY
 10
-383.953781
 11
-384.65297
 20
96.827572
 21
96.054784
  0
ARC
  8
APS_GEOMETRY
 10
-384.282202
 20
95.719327
 40
0.5
 50
137.862354
 51
269.044271
  0
LINE
  8
APS_GEOMETRY
 10
-384.290542
 11
-378.044721
 20
95.219397
 21
95.115198
  0
ARC
  8
APS_GEOMETRY
 10
-377.836213
 20
107.613459
 40
12.5
 50
269.044227
 51
288.99668
  0
ARC
  8
APS_GEOMETRY
 10
-373.11627
 20
93.903166
 40
2.0
 50
47.862409
 51
108.996672
  0
LINE
  8
APS_GEOMETRY
 10
-371.774443
 11
-369.914315
 20
95.386238
 21
93.703264
  0
ARC
  8
APS_GEOMETRY
 10
-368.572488
 20
95.186335
 40
2.0
 50
227.862386
 51
306.702463
  0
ARC
  8
APS_GEOMETRY
 10
-377.836214
 20
107.613458
 40
17.5
 50
306.70247
 51
329.022345
  0
ARC
  8
APS_GEOMETRY
 10
-364.547008
 20
99.63555
 40
2.0
 50
329.022349
 51
47.862404
  0
LINE
  8
APS_GEOMETRY
 10
-363.205181
 11
-365.06531
 20
101.118622
 21
102.801595
  0
ARC
  8
APS_GEOMETRY
 10
-363.723483
 20
104.284666
 40
2.0
 50
166.728115
 51
227.862397
  0
ARC
  8
APS_GEOMETRY
 10
-377.836213
 20
107.613459
 40
12.5
 50
346.728135
 51
6.680588
  0
LINE
  8
APS_GEOMETRY
 10
-365.421086
 11
-366.14779
 20
109.067637
 21
115.271912
  0
ARC
  8
APS_GEOMETRY
 10
-366.644395
 20
88.870309
 40
0.5
 50
6.680586
 51
137.862405
  0
LINE
  8
APS_GEOMETRY
 10
-367.015163
 11
-367.714352
 20
89.205766
 21
88.432978
  0
ARC
  8
APS_GEOMETRY
 10
-377.836213
 20
81.270023
 40
12.4
 50
35.285965
 51
215.285965
  0
ARC
  8
APS_GEOMETRY
 10
-377.836213
 20
81.270023
 40
12.4
 50
215.285965
 51
240.438846
  0
LINE
  8
APS_GEOMETRY
 10
-383.953781
 11
-384.65297
 20
70.484136
 21
69.711348
  0
ARC
  8
APS_GEOMETRY
 10
-384.282202
 20
69.375891
 40
0.5
 50
137.862354
 51
269.044271
  0
LINE
  8
APS_GEOMETRY
 10
-384.290542
 11
-378.044721
 20
68.875961
 21
68.771762
  0
ARC
  8
APS_GEOMETRY
 10
-377.836213
 20
81.270023
 40
12.5
 50
269.044227
 51
288.99668
  0
ARC
  8
APS_GEOMETRY
 10
-373.116271
 20
67.55973
 40
2.0
 50
47.862379
 51
108.996647
  0
LINE
  8
APS_GEOMETRY
 10
-371.774443
 11
-369.914315
 20
69.042801
 21
67.359828
  0
ARC
  8
APS_GEOMETRY
 10
-368.572488
 20
68.842899
 40
2.0
 50
227.862386
 51
306.702463
  0
ARC
  8
APS_GEOMETRY
 10
-377.836214
 20
81.270022
 40
17.5
 50
306.70247
 51
329.022345
  0
ARC
  8
APS_GEOMETRY
 10
-364.547008
 20
73.292114
 40
2.0
 50
329.022349
 51
47.862404
  0
LINE
  8
APS_GEOMETRY
 10
-363.205181
 11
-365.06531
 20
74.775186
 21
76.458159
  0
ARC
  8
APS_GEOMETRY
 10
-363.723483
 20
77.94123
 40
2.0
 50
166.728139
 51
227.86239
  0
ARC
  8
APS_GEOMETRY
 10
-377.836213
 20
81.270022
 40
12.5
 50
346.728134
 51
6.680591
  0
LINE
  8
APS_GEOMETRY
 10
-365.421086
 11
-366.14779
 20
82.724201
 21
88.928476
  0
ARC
  8
APS_GEOMETRY
 10
-366.644395
 20
61.763295
 40
0.5
 50
6.680586
 51
137.862405
  0
LINE
  8
APS_GEOMETRY
 10
-367.015163
 11
-367.714352
 20
62.098752
 21
61.325964
  0
ARC
  8
APS_GEOMETRY
 10
-377.836213
 20
54.163008
 40
12.4
 50
35.285966
 51
215.285966
  0
ARC
  8
APS_GEOMETRY
 10
-377.836213
 20
54.163008
 40
12.4
 50
215.285966
 51
240.438846
  0
LINE
  8
APS_GEOMETRY
 10
-383.953781
 11
-384.65297
 20
43.377121
 21
42.604334
  0
ARC
  8
APS_GEOMETRY
 10
-384.282202
 20
42.268877
 40
0.5
 50
137.862354
 51
269.044271
  0
LINE
  8
APS_GEOMETRY
 10
-384.290542
 11
-378.044721
 20
41.768947
 21
41.664748
  0
ARC
  8
APS_GEOMETRY
 10
-377.836211
 20
54.163009
 40
12.5
 50
269.044215
 51
288.996667
  0
ARC
  8
APS_GEOMETRY
 10
-373.11627
 20
40.452715
 40
2.0
 50
47.862409
 51
108.996672
  0
LINE
  8
APS_GEOMETRY
 10
-371.774443
 11
-369.914315
 20
41.935787
 21
40.252813
  0
ARC
  8
APS_GEOMETRY
 10
-368.572488
 20
41.735885
 40
2.0
 50
227.862409
 51
306.702484
  0
ARC
  8
APS_GEOMETRY
 10
-377.836212
 20
54.163009
 40
17.5
 50
306.702465
 51
329.022338
  0
ARC
  8
APS_GEOMETRY
 10
-364.547008
 20
46.1851
 40
2.0
 50
329.022327
 51
47.862419
  0
LINE
  8
APS_GEOMETRY
 10
-363.205181
 11
-365.06531
 20
47.668172
 21
49.351145
  0
ARC
  8
APS_GEOMETRY
 10
-363.723483
 20
50.834216
 40
2.0
 50
166.728139
 51
227.86239
  0
ARC
  8
APS_GEOMETRY
 10
-377.836213
 20
54.163008
 40
12.5
 50
346.728135
 51
6.680588
  0
LINE
  8
APS_GEOMETRY
 10
-365.421086
 11
-366.14779
 20
55.617186
 21
61.821462
  0
ARC
  8
APS_GEOMETRY
 10
-366.644395
 20
33.892703
 40
0.5
 50
6.680586
 51
137.862405
  0
LINE
  8
APS_GEOMETRY
 10
-367.015163
 11
-367.714352
 20
34.22816
 21
33.455372
  0
ARC
  8
APS_GEOMETRY
 10
-377.836213
 20
26.292416
 40
12.4
 50
35.285966
 51
215.285966
  0
ARC
  8
APS_GEOMETRY
 10
-377.836213
 20
26.292416
 40
12.4
 50
215.285966
 51
240.438846
  0
LINE
  8
APS_GEOMETRY
 10
-383.953781
 11
-384.65297
 20
15.506529
 21
14.733742
  0
ARC
  8
APS_GEOMETRY
 10
-384.282202
 20
14.398285
 40
0.5
 50
137.862354
 51
269.044271
  0
LINE
  8
APS_GEOMETRY
 10
-384.290542
 11
-378.044721
 20
13.898355
 21
13.794156
  0
ARC
  8
APS_GEOMETRY
 10
-377.836211
 20
26.292417
 40
12.5
 50
269.044215
 51
288.996667
  0
ARC
  8
APS_GEOMETRY
 10
-373.11627
 20
12.582123
 40
2.0
 50
47.862409
 51
108.996672
  0
LINE
  8
APS_GEOMETRY
 10
-371.774443
 11
-369.914315
 20
14.065195
 21
12.382221
  0
ARC
  8
APS_GEOMETRY
 10
-368.572488
 20
13.865293
 40
2.0
 50
227.862409
 51
306.702484
  0
ARC
  8
APS_GEOMETRY
 10
-377.836212
 20
26.292417
 40
17.5
 50
306.702465
 51
329.022338
  0
ARC
  8
APS_GEOMETRY
 10
-364.547008
 20
18.314508
 40
2.0
 50
329.022327
 51
47.862419
  0
LINE
  8
APS_GEOMETRY
 10
-363.205181
 11
-365.06531
 20
19.79758
 21
21.480553
  0
ARC
  8
APS_GEOMETRY
 10
-363.723483
 20
22.963624
 40
2.0
 50
166.728139
 51
227.86239
  0
ARC
  8
APS_GEOMETRY
 10
-377.836213
 20
26.292416
 40
12.5
 50
346.728135
 51
6.680588
  0
LINE
  8
APS_GEOMETRY
 10
-365.421086
 11
-366.14779
 20
27.746594
 21
33.95087
  0
ARC
  8
APS_GEOMETRY
 10
-366.644395
 20
6.4039
 40
0.5
 50
6.680586
 51
137.862405
  0
LINE
  8
APS_GEOMETRY
 10
-367.015163
 11
-367.714352
 20
6.739357
 21
5.966569
  0
ARC
  8
APS_GEOMETRY
 10
-377.836213
 20
-1.196387
 40
12.4
 50
35.285966
 51
215.285966
  0
ARC
  8
APS_GEOMETRY
 10
-377.836213
 20
-1.196387
 40
12.4
 50
215.285966
 51
240.438846
  0
LINE
  8
APS_GEOMETRY
 10
-383.953781
 11
-384.65297
 20
-11.982274
 21
-12.755061
  0
ARC
  8
APS_GEOMETRY
 10
-384.282202
 20
-13.090518
 40
0.5
 50
137.862354
 51
269.044271
  0
LINE
  8
APS_GEOMETRY
 10
-384.290542
 11
-378.044721
 20
-13.590448
 21
-13.694647
  0
ARC
  8
APS_GEOMETRY
 10
-377.836211
 20
-1.196386
 40
12.5
 50
269.044215
 51
288.996667
  0
ARC
  8
APS_GEOMETRY
 10
-373.11627
 20
-14.90668
 40
2.0
 50
47.862409
 51
108.996672
  0
LINE
  8
APS_GEOMETRY
 10
-371.774443
 11
-369.914315
 20
-13.423608
 21
-15.106582
  0
ARC
  8
APS_GEOMETRY
 10
-368.572488
 20
-13.62351
 40
2.0
 50
227.862409
 51
306.702484
  0
ARC
  8
APS_GEOMETRY
 10
-377.836212
 20
-1.196386
 40
17.5
 50
306.702465
 51
329.022338
  0
ARC
  8
APS_GEOMETRY
 10
-364.547008
 20
-9.174295
 40
2.0
 50
329.022327
 51
47.862419
  0
LINE
  8
APS_GEOMETRY
 10
-363.205181
 11
-365.06531
 20
-7.691223
 21
-6.00825
  0
ARC
  8
APS_GEOMETRY
 10
-363.723483
 20
-4.525179
 40
2.0
 50
166.728139
 51
227.86239
  0
ARC
  8
APS_GEOMETRY
 10
-377.836213
 20
-1.196387
 40
12.5
 50
346.728135
 51
6.680588
  0
LINE
  8
APS_GEOMETRY
 10
-365.421086
 11
-366.14779
 20
0.257791
 21
6.462067
  0
ARC
  8
APS_GEOMETRY
 10
-366.644395
 20
-20.321326
 40
0.5
 50
6.680586
 51
137.862405
  0
LINE
  8
APS_GEOMETRY
 10
-367.015163
 11
-367.714352
 20
-19.985869
 21
-20.758657
  0
ARC
  8
APS_GEOMETRY
 10
-377.836213
 20
-27.921612
 40
12.4
 50
35.285965
 51
215.285965
  0
ARC
  8
APS_GEOMETRY
 10
-377.836213
 20
-27.921612
 40
12.4
 50
215.285965
 51
240.438846
  0
LINE
  8
APS_GEOMETRY
 10
-383.953781
 11
-384.65297
 20
-38.707499
 21
-39.480287
  0
ARC
  8
APS_GEOMETRY
 10
-384.282202
 20
-39.815743
 40
0.5
 50
137.862506
 51
269.044169
  0
LINE
  8
APS_GEOMETRY
 10
-384.290542
 11
-378.044721
 20
-40.315673
 21
-40.419873
  0
ARC
  8
APS_GEOMETRY
 10
-377.836213
 20
-27.921612
 40
12.5
 50
269.044227
 51
288.99668
  0
ARC
  8
APS_GEOMETRY
 10
-373.11627
 20
-41.631905
 40
2.0
 50
47.862409
 51
108.996672
  0
LINE
  8
APS_GEOMETRY
 10
-371.774443
 11
-369.914315
 20
-40.148833
 21
-41.831807
  0
ARC
  8
APS_GEOMETRY
 10
-368.572488
 20
-40.348735
 40
2.0
 50
227.862409
 51
306.702484
  0
ARC
  8
APS_GEOMETRY
 10
-377.836212
 20
-27.921611
 40
17.5
 50
306.702465
 51
329.022338
  0
ARC
  8
APS_GEOMETRY
 10
-364.547008
 20
-35.899521
 40
2.0
 50
329.022349
 51
47.862404
  0
LINE
  8
APS_GEOMETRY
 10
-363.205181
 11
-365.06531
 20
-34.416449
 21
-32.733475
  0
ARC
  8
APS_GEOMETRY
 10
-363.723483
 20
-31.250404
 40
2.0
 50
166.728139
 51
227.86239
  0
ARC
  8
APS_GEOMETRY
 10
-377.836213
 20
-27.921612
 40
12.5
 50
346.728135
 51
6.680588
  0
LINE
  8
APS_GEOMETRY
 10
-365.421086
 11
-366.14779
 20
-26.467434
 21
-20.263159
  0
ARC
  8
APS_GEOMETRY
 10
16.785165
 20
101.032873
 40
5.0
 50
31.332251
 51
58.667749
  0
LINE
  8
APS_GEOMETRY
 10
19.385165
 11
19.385165
 20
105.303704
 21
113.532873
  0
LINE
  8
APS_GEOMETRY
 10
19.385165
 11
14.185165
 20
113.532873
 21
113.532873
  0
LINE
  8
APS_GEOMETRY
 10
14.185165
 11
14.185165
 20
113.532873
 21
105.303705
  0
ARC
  8
APS_GEOMETRY
 10
16.785165
 20
101.032874
 40
5.0
 50
121.332256
 51
148.667749
  0
ARC
  8
APS_GEOMETRY
 10
6.340985
 20
101.032873
 40
6.698525
 50
22.839142
 51
202.839142
  0
ARC
  8
APS_GEOMETRY
 10
6.340985
 20
101.032873
 40
6.698525
 50
202.839142
 51
337.160864
  0
ARC
  8
APS_GEOMETRY
 10
16.785165
 20
101.032874
 40
5.0
 50
211.332263
 51
238.66776
  0
LINE
  8
APS_GEOMETRY
 10
14.185166
 11
14.185165
 20
96.762042
 21
88.532873
  0
LINE
  8
APS_GEOMETRY
 10
14.185165
 11
19.385165
 20
88.532873
 21
88.532873
  0
LINE
  8
APS_GEOMETRY
 10
19.385165
 11
19.385165
 20
88.532873
 21
96.762042
  0
ARC
  8
APS_GEOMETRY
 10
16.785166
 20
101.032874
 40
5.0
 50
301.332239
 51
328.667745
  0
LINE
  8
APS_GEOMETRY
 10
21.055997
 11
29.285165
 20
98.432874
 21
98.432873
  0
LINE
  8
APS_GEOMETRY
 10
29.285165
 11
29.285165
 20
98.432873
 21
103.632873
  0
LINE
  8
APS_GEOMETRY
 10
29.285165
 11
21.055996
 20
103.632873
 21
103.632873
  0
ARC
  8
APS_GEOMETRY
 10
27.709798
 20
130.193621
 40
2.0
 50
270.0
 51
0.0
  0
LINE
  8
APS_GEOMETRY
 10
29.709798
 11
29.709798
 20
130.193621
 21
134.235236
  0
LINE
  8
APS_GEOMETRY
 10
29.709798
 11
33.109798
 20
134.235236
 21
134.235236
  0
LINE
  8
APS_GEOMETRY
 10
33.109798
 11
33.109798
 20
134.235236
 21
144.235236
  0
LINE
  8
APS_GEOMETRY
 10
33.109798
 11
38.309798
 20
144.235236
 21
144.235236
  0
LINE
  8
APS_GEOMETRY
 10
38.309798
 11
38.309798
 20
144.235236
 21
134.235236
  0
LINE
  8
APS_GEOMETRY
 10
38.309798
 11
41.709798
 20
134.235236
 21
134.235236
  0
LINE
  8
APS_GEOMETRY
 10
41.709798
 11
41.709798
 20
134.235236
 21
114.235236
  0
LINE
  8
APS_GEOMETRY
 10
41.709798
 11
48.209798
 20
114.235236
 21
114.235236
  0
LINE
  8
APS_GEOMETRY
 10
48.209798
 11
48.209798
 20
114.235236
 21
113.235236
  0
LINE
  8
APS_GEOMETRY
 10
48.209798
 11
41.709798
 20
113.235236
 21
113.235236
  0
LINE
  8
APS_GEOMETRY
 10
41.709798
 11
41.709798
 20
113.235236
 21
94.235236
  0
LINE
  8
APS_GEOMETRY
 10
41.709798
 11
48.209798
 20
94.235236
 21
94.235236
  0
LINE
  8
APS_GEOMETRY
 10
48.209798
 11
48.209798
 20
94.235236
 21
93.235236
  0
LINE
  8
APS_GEOMETRY
 10
48.209798
 11
41.709798
 20
93.235236
 21
93.235236
  0
LINE
  8
APS_GEOMETRY
 10
41.709798
 11
41.709798
 20
93.235236
 21
81.035236
  0
LINE
  8
APS_GEOMETRY
 10
41.709798
 11
48.209798
 20
81.035236
 21
81.035236
  0
LINE
  8
APS_GEOMETRY
 10
48.209798
 11
48.209798
 20
81.035236
 21
86.235236
  0
LINE
  8
APS_GEOMETRY
 10
48.209798
 11
56.991753
 20
86.235236
 21
86.235236
  0
LINE
  8
APS_GEOMETRY
 10
56.991753
 11
64.209798
 20
86.235236
 21
134.235236
  0
LINE
  8
APS_GEOMETRY
 10
64.209798
 11
64.209798
 20
134.235236
 21
154.235236
  0
LINE
  8
APS_GEOMETRY
 10
64.209798
 11
7.209798
 20
154.235236
 21
154.235236
  0
LINE
  8
APS_GEOMETRY
 10
7.209798
 11
7.209798
 20
154.235236
 21
134.235236
  0
LINE
  8
APS_GEOMETRY
 10
7.209798
 11
7.862283
 20
134.235236
 21
129.896213
  0
ARC
  8
APS_GEOMETRY
 10
9.840047
 20
130.193621
 40
2.0
 50
188.551829
 51
270.0
  0
LINE
  8
APS_GEOMETRY
 10
9.840047
 11
27.709798
 20
128.193621
 21
128.193621
  0
ARC
  8
APS_GEOMETRY
 10
30.807731
 20
194.027911
 40
3.731334
 50
202.7274
 51
247.2726
  0
ARC
  8
APS_GEOMETRY
 10
30.866123
 20
194.096223
 40
3.817
 50
246.860309
 51
293.140739
  0
ARC
  8
APS_GEOMETRY
 10
30.946953
 20
193.942481
 40
3.643889
 50
292.922063
 51
357.89327
  0
ARC
  8
APS_GEOMETRY
 10
31.307836
 20
193.923468
 40
3.282556
 50
357.993341
 51
71.191189
  0
ARC
  8
APS_GEOMETRY
 10
30.865956
 20
192.619058
 40
4.659778
 50
71.219133
 51
108.775449
  0
ARC
  8
APS_GEOMETRY
 10
30.570953
 20
193.418373
 40
3.808111
 50
108.443888
 51
138.941067
  0
LINE
  8
APS_GEOMETRY
 10
27.699507
 11
28.477286
 20
195.919674
 21
200.364133
  0
LINE
  8
APS_GEOMETRY
 10
28.477286
 11
33.477286
 20
200.364133
 21
200.364133
  0
LINE
  8
APS_GEOMETRY
 10
36.831252
 11
44.053474
 20
200.365606
 21
200.365606
  0
LINE
  8
APS_GEOMETRY
 10
44.053474
 11
44.053409
 20
200.365606
 21
199.810079
  0
ARC
  8
APS_GEOMETRY
 10
50.872252
 20
190.70005
 40
11.379334
 50
126.8148
 51
181.6842
  0
ARC
  8
APS_GEOMETRY
 10
-47.547816
 20
57.74368
 40
3.731334
 50
202.7274
 51
247.2726
  0
ARC
  8
APS_GEOMETRY
 10
-47.489423
 20
57.811991
 40
3.817
 50
246.860301
 51
293.140747
  0
ARC
  8
APS_GEOMETRY
 10
-47.408593
 20
57.65825
 40
3.643889
 50
292.922064
 51
357.893286
  0
ARC
  8
APS_GEOMETRY
 10
-47.04771
 20
57.639238
 40
3.282556
 50
357.993347
 51
71.191208
  0
ARC
  8
APS_GEOMETRY
 10
-47.489591
 20
56.334828
 40
4.659778
 50
71.219133
 51
108.775449
  0
ARC
  8
APS_GEOMETRY
 10
-47.784591
 20
57.134144
 40
3.808111
 50
108.44393
 51
138.941104
  0
LINE
  8
APS_GEOMETRY
 10
-50.656039
 11
-49.878261
 20
59.635443
 21
64.079903
  0
LINE
  8
APS_GEOMETRY
 10
-49.878261
 11
-44.87826
 20
64.079903
 21
64.079903
  0
LINE
  8
APS_GEOMETRY
 10
-37.499655
 11
-37.499578
 20
54.076123
 21
58.676156
  0
ARC
  8
APS_GEOMETRY
 10
-39.190655
 20
58.685046
 40
1.6911
 50
359.698802
 51
90.305782
  0
ARC
  8
APS_GEOMETRY
 10
-39.201955
 20
57.467323
 40
2.9088
 50
89.95519
 51
153.259796
  0
LINE
  8
APS_GEOMETRY
 10
-33.199655
 11
-33.199578
 20
54.076123
 21
58.676156
  0
ARC
  8
APS_GEOMETRY
 10
-34.890655
 20
58.685046
 40
1.6911
 50
359.698802
 51
90.305782
  0
ARC
  8
APS_GEOMETRY
 10
-34.901955
 20
57.467323
 40
2.9088
 50
89.95519
 51
153.259796
  0
LINE
  8
APS_GEOMETRY
 10
-26.899534
 11
-26.899457
 20
54.076123
 21
58.676156
  0
ARC
  8
APS_GEOMETRY
 10
-28.590534
 20
58.685046
 40
1.6911
 50
359.698802
 51
90.305782
  0
ARC
  8
APS_GEOMETRY
 10
-28.601834
 20
57.467323
 40
2.9088
 50
89.95519
 51
153.259796
  0
LINE
  8
APS_GEOMETRY
 10
-22.599534
 11
-22.599457
 20
54.076123
 21
58.676156
  0
ARC
  8
APS_GEOMETRY
 10
-24.290534
 20
58.685046
 40
1.6911
 50
359.698802
 51
90.305782
  0
ARC
  8
APS_GEOMETRY
 10
-24.301834
 20
57.467323
 40
2.9088
 50
89.95519
 51
153.259796
  0
ARC
  8
APS_GEOMETRY
 10
-1.217281
 20
59.083346
 40
6.078778
 50
31.026839
 51
40.045456
  0
ARC
  8
APS_GEOMETRY
 10
0.880641
 20
60.947934
 40
3.274
 50
38.687092
 51
141.311855
  0
ARC
  8
APS_GEOMETRY
 10
3.055312
 20
59.161155
 40
6.088445
 50
140.979265
 51
219.021882
  0
ARC
  8
APS_GEOMETRY
 10
0.880735
 20
57.37426
 40
3.274
 50
218.687686
 51
321.312681
  0
ARC
  8
APS_GEOMETRY
 10
-1.254746
 20
58.897972
 40
5.895111
 50
322.726612
 51
335.34591
  0
LINE
  8
APS_GEOMETRY
 10
6.181147
 11
10.958925
 20
58.965012
 21
58.965012
  0
ARC
  8
APS_GEOMETRY
 10
10.958925
 20
61.520568
 40
2.555556
 50
270.0
 51
90.0
  0
LINE
  8
APS_GEOMETRY
 10
10.958925
 11
6.181147
 20
64.076124
 21
64.076123
  0
LINE
  8
APS_GEOMETRY
 10
6.181147
 11
6.181147
 20
64.076123
 21
54.076123
  0
ARC
  8
APS_GEOMETRY
 10
38.4098
 20
59.083346
 40
6.078778
 50
31.026839
 51
40.045456
  0
ARC
  8
APS_GEOMETRY
 10
40.507722
 20
60.947934
 40
3.274
 50
38.687092
 51
141.311855
  0
ARC
  8
APS_GEOMETRY
 10
42.682393
 20
59.161155
 40
6.088445
 50
140.979265
 51
219.021882
  0
ARC
  8
APS_GEOMETRY
 10
40.507816
 20
57.37426
 40
3.274
 50
218.687686
 51
321.312681
  0
ARC
  8
APS_GEOMETRY
 10
38.372335
 20
58.897972
 40
5.895111
 50
322.726612
 51
335.34591
  0
ARC
  8
APS_GEOMETRY
 10
-265.274974
 20
60.817339
 40
3.274
 50
38.687092
 51
141.311843
  0
ARC
  8
APS_GEOMETRY
 10
-263.100303
 20
59.030561
 40
6.088445
 50
140.979265
 51
219.021882
  0
ARC
  8
APS_GEOMETRY
 10
-265.274899
 20
57.24369
 40
3.274
 50
218.68821
 51
321.311679
  0
ARC
  8
APS_GEOMETRY
 10
-264.775903
 20
56.863839
 40
2.647111
 50
320.977931
 51
39.022298
  0
ARC
  8
APS_GEOMETRY
 10
-265.441615
 20
56.350527
 40
3.487556
 50
38.687897
 51
141.311945
  0
ARC
  8
APS_GEOMETRY
 10
-265.676361
 20
56.50638
 40
3.207
 50
140.863828
 51
169.585941
  0
ARC
  8
APS_GEOMETRY
 10
-256.282996
 20
57.228153
 40
3.274
 50
218.6887
 51
321.3113
  0
ARC
  8
APS_GEOMETRY
 10
-258.45761
 20
59.015002
 40
6.088445
 50
320.978116
 51
39.020726
  0
ARC
  8
APS_GEOMETRY
 10
-256.282939
 20
60.801781
 40
3.274
 50
38.688138
 51
141.312919
  0
ARC
  8
APS_GEOMETRY
 10
-254.108325
 20
59.014931
 40
6.088445
 50
140.978984
 51
219.021022
  0
ARC
  8
APS_GEOMETRY
 10
-234.663846
 20
56.466014
 40
2.3411
 50
206.2329
 51
333.7671
  0
ARC
  8
APS_GEOMETRY
 10
-236.161255
 20
57.231232
 40
4.0226
 50
333.417878
 51
26.581315
  0
ARC
  8
APS_GEOMETRY
 10
-234.663837
 20
57.996432
 40
2.3411
 50
26.232
 51
153.767605
  0
ARC
  8
APS_GEOMETRY
 10
-233.166428
 20
57.231214
 40
4.0226
 50
153.418167
 51
206.581834
  0
ARC
  8
APS_GEOMETRY
 10
-219.069661
 20
61.529965
 40
2.380778
 50
118.020682
 51
169.471689
  0
ARC
  8
APS_GEOMETRY
 10
-218.299306
 20
60.121347
 40
3.986222
 50
61.713829
 51
118.28368
  0
ARC
  8
APS_GEOMETRY
 10
-217.640024
 20
61.520503
 40
2.443111
 50
300.22001
 51
59.779438
  0
LINE
  8
APS_GEOMETRY
 10
-216.410353
 11
-220.188105
 20
59.409413
 21
57.076076
  0
ARC
  8
APS_GEOMETRY
 10
-218.329994
 20
54.080833
 40
3.524778
 50
121.813563
 51
180.07656
  0
LINE
  8
APS_GEOMETRY
 10
-221.854769
 11
-215.188105
 20
54.076123
 21
54.076076
  0
ARC
  8
APS_GEOMETRY
 10
-210.186479
 20
57.274037
 40
3.118111
 50
208.751948
 51
258.48402
  0
ARC
  8
APS_GEOMETRY
 10
-209.525789
 20
60.132869
 40
6.051778
 50
257.758321
 51
286.480394
  0
ARC
  8
APS_GEOMETRY
 10
-208.586771
 20
57.062867
 40
2.841667
 50
285.885171
 51
325.197025
  0
ARC
  8
APS_GEOMETRY
 10
-208.564515
 20
57.081022
 40
2.833889
 50
324.638792
 51
31.268733
  0
ARC
  8
APS_GEOMETRY
 10
-208.65891
 20
57.048448
 40
2.931556
 50
30.855286
 51
75.402295
  0
ARC
  8
APS_GEOMETRY
 10
-209.253406
 20
54.677684
 40
5.375667
 50
75.638906
 51
104.361112
  0
ARC
  8
APS_GEOMETRY
 10
-212.565515
 20
65.61003
 40
6.057
 50
289.068075
 51
345.63788
  0
LINE
  8
APS_GEOMETRY
 10
-206.697812
 11
-212.808963
 20
64.107594
 21
64.107573
  0
ARC
  8
APS_GEOMETRY
 10
-200.048817
 20
57.228153
 40
3.274
 50
218.6887
 51
321.3113
  0
ARC
  8
APS_GEOMETRY
 10
-202.223431
 20
59.015002
 40
6.088445
 50
320.978116
 51
39.020726
  0
ARC
  8
APS_GEOMETRY
 10
-200.04876
 20
60.801781
 40
3.274
 50
38.688138
 51
141.312919
  0
ARC
  8
APS_GEOMETRY
 10
-197.874146
 20
59.014931
 40
6.088445
 50
140.978984
 51
219.021022
  0
ARC
  8
APS_GEOMETRY
 10
-192.194458
 20
53.842119
 40
2.247
 50
236.695
 51
298.3259
  0
ARC
  8
APS_GEOMETRY
 10
-191.666458
 20
52.8671
 40
1.1382
 50
298.217888
 51
359.847641
  0
LINE
  8
APS_GEOMETRY
 10
-190.528262
 11
-190.528258
 20
52.864073
 21
60.364119
  0
ARC
  8
APS_GEOMETRY
 10
-192.637767
 20
57.791432
 40
2.5727
 50
34.918935
 51
89.788286
  0
ARC
  8
APS_GEOMETRY
 10
-192.623842
 20
58.010819
 40
2.3533
 50
90.107575
 51
153.411179
  0
ARC
  8
APS_GEOMETRY
 10
-191.130866
 20
57.264103
 40
4.0226
 50
153.418143
 51
206.580988
  0
ARC
  8
APS_GEOMETRY
 10
-192.623865
 20
56.517432
 40
2.3533
 50
206.58856
 51
269.892731
  0
ARC
  8
APS_GEOMETRY
 10
-192.637758
 20
56.736819
 40
2.5727
 50
270.211299
 51
325.08071
  0
LINE
  8
APS_GEOMETRY
 10
-184.245746
 11
-184.24567
 20
54.076123
 21
58.676156
  0
ARC
  8
APS_GEOMETRY
 10
-185.936747
 20
58.685046
 40
1.6911
 50
359.698802
 51
90.305782
  0
ARC
  8
APS_GEOMETRY
 10
-185.948046
 20
57.467323
 40
2.9088
 50
89.95521
 51
153.259796
  0
LINE
  8
APS_GEOMETRY
 10
-179.945746
 11
-179.94567
 20
54.076123
 21
58.676156
  0
ARC
  8
APS_GEOMETRY
 10
-181.636747
 20
58.685046
 40
1.6911
 50
359.698802
 51
90.305782
  0
ARC
  8
APS_GEOMETRY
 10
-181.648046
 20
57.467323
 40
2.9088
 50
89.95521
 51
153.259796
  0
LINE
  8
APS_GEOMETRY
 10
-265.923957
 11
-265.92388
 20
39.076123
 21
43.676156
  0
ARC
  8
APS_GEOMETRY
 10
-267.614957
 20
43.685046
 40
1.6911
 50
359.698802
 51
90.305782
  0
ARC
  8
APS_GEOMETRY
 10
-267.626257
 20
42.467323
 40
2.9088
 50
89.95519
 51
153.259796
  0
LINE
  8
APS_GEOMETRY
 10
-255.051222
 11
-255.051145
 20
39.076123
 21
43.676156
  0
ARC
  8
APS_GEOMETRY
 10
-256.742222
 20
43.685046
 40
1.6911
 50
359.698802
 51
90.305782
  0
ARC
  8
APS_GEOMETRY
 10
-256.753522
 20
42.467323
 40
2.9088
 50
89.95519
 51
153.259796
  0
ARC
  8
APS_GEOMETRY
 10
-241.977959
 20
42.604214
 40
2.5727
 50
34.918935
 51
89.788286
  0
ARC
  8
APS_GEOMETRY
 10
-241.964033
 20
42.823601
 40
2.3533
 50
90.107612
 51
153.411206
  0
ARC
  8
APS_GEOMETRY
 10
-240.471057
 20
42.076884
 40
4.0226
 50
153.418143
 51
206.580988
  0
ARC
  8
APS_GEOMETRY
 10
-241.964056
 20
41.330214
 40
2.3533
 50
206.588587
 51
269.892744
  0
ARC
  8
APS_GEOMETRY
 10
-241.977949
 20
41.549601
 40
2.5727
 50
270.211284
 51
325.080683
  0
ARC
  8
APS_GEOMETRY
 10
-236.371992
 20
42.72699
 40
2.5727
 50
34.918935
 51
89.788286
  0
ARC
  8
APS_GEOMETRY
 10
-236.358067
 20
42.946377
 40
2.3533
 50
90.107575
 51
153.411179
  0
ARC
  8
APS_GEOMETRY
 10
-234.865091
 20
42.199661
 40
4.0226
 50
153.418143
 51
206.580988
  0
ARC
  8
APS_GEOMETRY
 10
-236.35809
 20
41.45299
 40
2.3533
 50
206.58856
 51
269.892731
  0
ARC
  8
APS_GEOMETRY
 10
-236.371983
 20
41.672377
 40
2.5727
 50
270.211299
 51
325.08071
  0
ARC
  8
APS_GEOMETRY
 10
-228.39987
 20
42.760323
 40
2.6159
 50
89.6195
 51
170.8532
  0
ARC
  8
APS_GEOMETRY
 10
-225.164039
 20
42.604214
 40
2.5727
 50
34.918935
 51
89.788286
  0
ARC
  8
APS_GEOMETRY
 10
-225.150113
 20
42.823601
 40
2.3533
 50
90.107612
 51
153.411206
  0
ARC
  8
APS_GEOMETRY
 10
-223.657137
 20
42.076884
 40
4.0226
 50
153.418143
 51
206.580988
  0
ARC
  8
APS_GEOMETRY
 10
-225.150136
 20
41.330214
 40
2.3533
 50
206.588587
 51
269.892744
  0
ARC
  8
APS_GEOMETRY
 10
-225.164029
 20
41.549601
 40
2.5727
 50
270.211284
 51
325.080683
  0
LINE
  8
APS_GEOMETRY
 10
-395.108667
 11
-98.1087
 20
-55.281183
 21
-55.281183
  0
LINE
  8
APS_GEOMETRY
 10
-98.1087
 11
-98.1087
 20
-55.281183
 21
154.7188
  0
LINE
  8
APS_GEOMETRY
 10
-98.1087
 11
-395.108667
 20
154.7188
 21
154.7188
  0
LINE
  8
APS_GEOMETRY
 10
-395.108667
 11
-395.108667
 20
154.7188
 21
-55.281183
  0
LINE
  8
APS_GEOMETRY
 10
-379.6417
 11
-380.776856
 20
135.97222
 21
136.999266
  0
LINE
  8
APS_GEOMETRY
 10
-379.719888
 11
-380.661725
 20
135.010823
 21
135.346893
  0
LINE
  8
APS_GEOMETRY
 10
-378.834966
 11
-381.796877
 20
134.288746
 21
134.140651
  0
LINE
  8
APS_GEOMETRY
 10
-379.643446
 11
-380.547063
 20
133.481999
 21
133.053657
  0
LINE
  8
APS_GEOMETRY
 10
-378.508352
 11
-378.844422
 20
132.45501
 21
131.513173
  0
LINE
  8
APS_GEOMETRY
 10
-377.786276
 11
-377.63818
 20
133.339932
 21
130.37802
  0
LINE
  8
APS_GEOMETRY
 10
-376.979529
 11
-376.551186
 20
132.531451
 21
131.627834
  0
LINE
  8
APS_GEOMETRY
 10
-376.030726
 11
-374.89557
 20
132.705148
 21
131.678102
  0
LINE
  8
APS_GEOMETRY
 10
-375.952539
 11
-375.010702
 20
133.666545
 21
133.330475
  0
LINE
  8
APS_GEOMETRY
 10
-376.837461
 11
-373.875549
 20
134.388622
 21
134.536717
  0
LINE
  8
APS_GEOMETRY
 10
-376.02898
 11
-375.125364
 20
135.195369
 21
135.623711
  0
LINE
  8
APS_GEOMETRY
 10
-376.202677
 11
-375.175631
 20
136.144171
 21
137.279327
  0
LINE
  8
APS_GEOMETRY
 10
-377.164074
 11
-376.828004
 20
136.222358
 21
137.164195
  0
LINE
  8
APS_GEOMETRY
 10
-377.886151
 11
-378.034246
 20
135.337436
 21
138.299348
  0
LINE
  8
APS_GEOMETRY
 10
-378.692898
 11
-379.12124
 20
136.145917
 21
137.049534
  0
LINE
  8
APS_GEOMETRY
 10
-379.469749
 11
-380.496795
 20
132.533197
 21
131.398041
  0
LINE
  8
APS_GEOMETRY
 10
-379.6417
 11
-380.776856
 20
109.246995
 21
110.274041
  0
LINE
  8
APS_GEOMETRY
 10
-379.719888
 11
-380.661725
 20
108.285598
 21
108.621668
  0
LINE
  8
APS_GEOMETRY
 10
-378.834966
 11
-381.796877
 20
107.563521
 21
107.415426
  0
LINE
  8
APS_GEOMETRY
 10
-379.643446
 11
-380.547063
 20
106.756774
 21
106.328432
  0
LINE
  8
APS_GEOMETRY
 10
-378.508352
 11
-378.844422
 20
105.729784
 21
104.787947
  0
LINE
  8
APS_GEOMETRY
 10
-377.786276
 11
-377.63818
 20
106.614706
 21
103.652795
  0
LINE
  8
APS_GEOMETRY
 10
-376.979529
 11
-376.551186
 20
105.806226
 21
104.902609
  0
LINE
  8
APS_GEOMETRY
 10
-376.030726
 11
-374.89557
 20
105.979923
 21
104.952877
  0
LINE
  8
APS_GEOMETRY
 10
-375.952539
 11
-375.010702
 20
106.941319
 21
106.60525
  0
LINE
  8
APS_GEOMETRY
 10
-376.837461
 11
-373.875549
 20
107.663396
 21
107.811492
  0
LINE
  8
APS_GEOMETRY
 10
-376.02898
 11
-375.125364
 20
108.470143
 21
108.898486
  0
LINE
  8
APS_GEOMETRY
 10
-376.202677
 11
-375.175631
 20
109.418946
 21
110.554102
  0
LINE
  8
APS_GEOMETRY
 10
-377.164074
 11
-376.828004
 20
109.497133
 21
110.43897
  0
LINE
  8
APS_GEOMETRY
 10
-377.886151
 11
-378.034246
 20
108.612211
 21
111.574123
  0
LINE
  8
APS_GEOMETRY
 10
-378.692898
 11
-379.12124
 20
109.420692
 21
110.324308
  0
LINE
  8
APS_GEOMETRY
 10
-379.469749
 11
-380.496795
 20
105.807972
 21
104.672816
  0
LINE
  8
APS_GEOMETRY
 10
-379.6417
 11
-380.776856
 20
82.903558
 21
83.930604
  0
LINE
  8
APS_GEOMETRY
 10
-379.719888
 11
-380.661725
 20
81.942162
 21
82.278231
  0
LINE
  8
APS_GEOMETRY
 10
-378.834966
 11
-381.796877
 20
81.220085
 21
81.071989
  0
LINE
  8
APS_GEOMETRY
 10
-379.643446
 11
-380.547063
 20
80.413338
 21
79.984996
  0
LINE
  8
APS_GEOMETRY
 10
-378.508352
 11
-378.844422
 20
79.386348
 21
78.444511
  0
LINE
  8
APS_GEOMETRY
 10
-377.786276
 11
-377.63818
 20
80.27127
 21
77.309358
  0
LINE
  8
APS_GEOMETRY
 10
-376.979529
 11
-376.551186
 20
79.462789
 21
78.559173
  0
LINE
  8
APS_GEOMETRY
 10
-376.030726
 11
-374.89557
 20
79.636487
 21
78.609441
  0
LINE
  8
APS_GEOMETRY
 10
-375.952539
 11
-375.010702
 20
80.597883
 21
80.261814
  0
LINE
  8
APS_GEOMETRY
 10
-376.837461
 11
-373.875549
 20
81.31996
 21
81.468056
  0
LINE
  8
APS_GEOMETRY
 10
-376.02898
 11
-375.125364
 20
82.126707
 21
82.555049
  0
LINE
  8
APS_GEOMETRY
 10
-376.202677
 11
-375.175631
 20
83.075509
 21
84.210666
  0
LINE
  8
APS_GEOMETRY
 10
-377.164074
 11
-376.828004
 20
83.153697
 21
84.095534
  0
LINE
  8
APS_GEOMETRY
 10
-377.886151
 11
-378.034246
 20
82.268775
 21
85.230687
  0
LINE
  8
APS_GEOMETRY
 10
-378.692898
 11
-379.12124
 20
83.077256
 21
83.980872
  0
LINE
  8
APS_GEOMETRY
 10
-379.469749
 11
-380.496795
 20
79.464536
 21
78.329379
  0
LINE
  8
APS_GEOMETRY
 10
-379.6417
 11
-380.776856
 20
55.796544
 21
56.82359
  0
LINE
  8
APS_GEOMETRY
 10
-379.719888
 11
-380.661725
 20
54.835148
 21
55.171217
  0
LINE
  8
APS_GEOMETRY
 10
-378.834966
 11
-381.796877
 20
54.113071
 21
53.964975
  0
LINE
  8
APS_GEOMETRY
 10
-379.643446
 11
-380.547063
 20
53.306324
 21
52.877981
  0
LINE
  8
APS_GEOMETRY
 10
-378.508352
 11
-378.844422
 20
52.279334
 21
51.337497
  0
LINE
  8
APS_GEOMETRY
 10
-377.786276
 11
-377.63818
 20
53.164256
 21
50.202344
  0
LINE
  8
APS_GEOMETRY
 10
-376.979529
 11
-376.551186
 20
52.355775
 21
51.452159
  0
LINE
  8
APS_GEOMETRY
 10
-376.030726
 11
-374.89557
 20
52.529473
 21
51.502427
  0
LINE
  8
APS_GEOMETRY
 10
-375.952539
 11
-375.010702
 20
53.490869
 21
53.1548
  0
LINE
  8
APS_GEOMETRY
 10
-376.837461
 11
-373.875549
 20
54.212946
 21
54.361042
  0
LINE
  8
APS_GEOMETRY
 10
-376.02898
 11
-375.125364
 20
55.019693
 21
55.448035
  0
LINE
  8
APS_GEOMETRY
 10
-376.202677
 11
-375.175631
 20
55.968495
 21
57.103651
  0
LINE
  8
APS_GEOMETRY
 10
-377.164074
 11
-376.828004
 20
56.046683
 21
56.98852
  0
LINE
  8
APS_GEOMETRY
 10
-377.886151
 11
-378.034246
 20
55.161761
 21
58.123673
  0
LINE
  8
APS_GEOMETRY
 10
-378.692898
 11
-379.12124
 20
55.970241
 21
56.873858
  0
LINE
  8
APS_GEOMETRY
 10
-379.469749
 11
-380.496795
 20
52.357522
 21
51.222365
  0
LINE
  8
APS_GEOMETRY
 10
-379.6417
 11
-380.776856
 20
27.925952
 21
28.952998
  0
LINE
  8
APS_GEOMETRY
 10
-379.719888
 11
-380.661725
 20
26.964556
 21
27.300625
  0
LINE
  8
APS_GEOMETRY
 10
-378.834966
 11
-381.796877
 20
26.242479
 21
26.094383
  0
LINE
  8
APS_GEOMETRY
 10
-379.643446
 11
-380.547063
 20
25.435732
 21
25.007389
  0
LINE
  8
APS_GEOMETRY
 10
-378.508352
 11
-378.844422
 20
24.408742
 21
23.466905
  0
LINE
  8
APS_GEOMETRY
 10
-377.786276
 11
-377.63818
 20
25.293664
 21
22.331752
  0
LINE
  8
APS_GEOMETRY
 10
-376.979529
 11
-376.551186
 20
24.485183
 21
23.581567
  0
LINE
  8
APS_GEOMETRY
 10
-376.030726
 11
-374.89557
 20
24.658881
 21
23.631835
  0
LINE
  8
APS_GEOMETRY
 10
-375.952539
 11
-375.010702
 20
25.620277
 21
25.284208
  0
LINE
  8
APS_GEOMETRY
 10
-376.837461
 11
-373.875549
 20
26.342354
 21
26.49045
  0
LINE
  8
APS_GEOMETRY
 10
-376.02898
 11
-375.125364
 20
27.149101
 21
27.577443
  0
LINE
  8
APS_GEOMETRY
 10
-376.202677
 11
-375.175631
 20
28.097903
 21
29.23306
  0
LINE
  8
APS_GEOMETRY
 10
-377.164074
 11
-376.828004
 20
28.176091
 21
29.117928
  0
LINE
  8
APS_GEOMETRY
 10
-377.886151
 11
-378.034246
 20
27.291169
 21
30.253081
  0
LINE
  8
APS_GEOMETRY
 10
-378.692898
 11
-379.12124
 20
28.09965
 21
29.003266
  0
LINE
  8
APS_GEOMETRY
 10
-379.469749
 11
-380.496795
 20
24.48693
 21
23.351773
  0
LINE
  8
APS_GEOMETRY
 10
-379.6417
 11
-380.776856
 20
0.437149
 21
1.464195
  0
LINE
  8
APS_GEOMETRY
 10
-379.719888
 11
-380.661725
 20
-0.524247
 21
-0.188178
  0
LINE
  8
APS_GEOMETRY
 10
-378.834966
 11
-381.796877
 20
-1.246324
 21
-1.39442
  0
LINE
  8
APS_GEOMETRY
 10
-379.643446
 11
-380.547063
 20
-2.053071
 21
-2.481414
  0
LINE
  8
APS_GEOMETRY
 10
-378.508352
 11
-378.844422
 20
-3.080061
 21
-4.021898
  0
LINE
  8
APS_GEOMETRY
 10
-377.786276
 11
-377.63818
 20
-2.195139
 21
-5.157051
  0
LINE
  8
APS_GEOMETRY
 10
-376.979529
 11
-376.551186
 20
-3.00362
 21
-3.907236
  0
LINE
  8
APS_GEOMETRY
 10
-376.030726
 11
-374.89557
 20
-2.829922
 21
-3.856968
  0
LINE
  8
APS_GEOMETRY
 10
-375.952539
 11
-375.010702
 20
-1.868526
 21
-2.204596
  0
LINE
  8
APS_GEOMETRY
 10
-376.837461
 11
-373.875549
 20
-1.146449
 21
-0.998353
  0
LINE
  8
APS_GEOMETRY
 10
-376.02898
 11
-375.125364
 20
-0.339702
 21
0.08864
  0
LINE
  8
APS_GEOMETRY
 10
-376.202677
 11
-375.175631
 20
0.6091
 21
1.744256
  0
LINE
  8
APS_GEOMETRY
 10
-377.164074
 11
-376.828004
 20
0.687288
 21
1.629125
  0
LINE
  8
APS_GEOMETRY
 10
-377.886151
 11
-378.034246
 20
-0.197634
 21
2.764278
  0
LINE
  8
APS_GEOMETRY
 10
-378.692898
 11
-379.12124
 20
0.610846
 21
1.514463
  0
LINE
  8
APS_GEOMETRY
 10
-379.469749
 11
-380.496795
 20
-3.001873
 21
-4.13703
  0
LINE
  8
APS_GEOMETRY
 10
-379.6417
 11
-380.776856
 20
-26.288076
 21
-25.26103
  0
LINE
  8
APS_GEOMETRY
 10
-379.719888
 11
-380.661725
 20
-27.249473
 21
-26.913403
  0
LINE
  8
APS_GEOMETRY
 10
-378.834966
 11
-381.796877
 20
-27.971549
 21
-28.119645
  0
LINE
  8
APS_GEOMETRY
 10
-379.643446
 11
-380.547063
 20
-28.778296
 21
-29.206639
  0
LINE
  8
APS_GEOMETRY
 10
-378.508352
 11
-378.844422
 20
-29.805286
 21
-30.747123
  0
LINE
  8
APS_GEOMETRY
 10
-377.786276
 11
-377.63818
 20
-28.920364
 21
-31.882276
  0
LINE
  8
APS_GEOMETRY
 10
-376.979529
 11
-376.551186
 20
-29.728845
 21
-30.632461
  0
LINE
  8
APS_GEOMETRY
 10
-376.030726
 11
-374.89557
 20
-29.555148
 21
-30.582194
  0
LINE
  8
APS_GEOMETRY
 10
-375.952539
 11
-375.010702
 20
-28.593751
 21
-28.929821
  0
LINE
  8
APS_GEOMETRY
 10
-376.837461
 11
-373.875549
 20
-27.871674
 21
-27.723579
  0
LINE
  8
APS_GEOMETRY
 10
-376.02898
 11
-375.125364
 20
-27.064927
 21
-26.636585
  0
LINE
  8
APS_GEOMETRY
 10
-376.202677
 11
-375.175631
 20
-26.116125
 21
-24.980969
  0
LINE
  8
APS_GEOMETRY
 10
-377.164074
 11
-376.828004
 20
-26.037938
 21
-25.0961
  0
LINE
  8
APS_GEOMETRY
 10
-377.886151
 11
-378.034246
 20
-26.922859
 21
-23.960948
  0
LINE
  8
APS_GEOMETRY
 10
-378.692898
 11
-379.12124
 20
-26.114379
 21
-25.210762
  0
LINE
  8
APS_GEOMETRY
 10
-379.469749
 11
-380.496795
 20
-29.727099
 21
-30.862255
  0
LINE
  8
APS_GEOMETRY
 10
-33.610423
 11
-33.610423
 20
80.176722
 21
90.176722
  0
LINE
  8
APS_GEOMETRY
 10
-33.610423
 11
-38.810423
 20
90.176722
 21
90.176722
  0
LINE
  8
APS_GEOMETRY
 10
-38.810423
 11
-38.810423
 20
90.176722
 21
80.176722
  0
LINE
  8
APS_GEOMETRY
 10
-38.810423
 11
-64.710423
 20
80.176722
 21
80.176722
  0
LINE
  8
APS_GEOMETRY
 10
-64.710423
 11
-64.710423
 20
80.176722
 21
100.176722
  0
LINE
  8
APS_GEOMETRY
 10
-64.710423
 11
-57.492378
 20
100.176722
 21
148.176722
  0
LINE
  8
APS_GEOMETRY
 10
-57.492378
 11
-48.710423
 20
148.176722
 21
148.176722
  0
LINE
  8
APS_GEOMETRY
 10
-48.710423
 11
-48.710423
 20
148.176722
 21
153.376722
  0
LINE
  8
APS_GEOMETRY
 10
-48.710423
 11
-42.210423
 20
153.376722
 21
153.376722
  0
LINE
  8
APS_GEOMETRY
 10
-42.210423
 11
-42.210423
 20
153.376722
 21
141.176722
  0
LINE
  8
APS_GEOMETRY
 10
-42.210423
 11
-48.710423
 20
141.176722
 21
141.176722
  0
LINE
  8
APS_GEOMETRY
 10
-48.710423
 11
-48.710423
 20
141.176722
 21
140.176722
  0
LINE
  8
APS_GEOMETRY
 10
-48.710423
 11
-42.210423
 20
140.176722
 21
140.176722
  0
LINE
  8
APS_GEOMETRY
 10
-42.210423
 11
-42.210423
 20
140.176722
 21
121.176722
  0
LINE
  8
APS_GEOMETRY
 10
-42.210423
 11
-48.710423
 20
121.176722
 21
121.176722
  0
LINE
  8
APS_GEOMETRY
 10
-48.710423
 11
-48.710423
 20
121.176722
 21
120.176722
  0
LINE
  8
APS_GEOMETRY
 10
-48.710423
 11
-42.210423
 20
120.176722
 21
120.176722
  0
LINE
  8
APS_GEOMETRY
 10
-42.210423
 11
-42.210423
 20
120.176722
 21
100.176722
  0
LINE
  8
APS_GEOMETRY
 10
-42.210423
 11
-30.210423
 20
100.176722
 21
100.176722
  0
LINE
  8
APS_GEOMETRY
 10
-30.210423
 11
-30.210423
 20
100.176722
 21
120.176722
  0
LINE
  8
APS_GEOMETRY
 10
-30.210423
 11
-23.710423
 20
120.176722
 21
120.176722
  0
LINE
  8
APS_GEOMETRY
 10
-23.710423
 11
-23.710423
 20
120.176722
 21
121.176722
  0
LINE
  8
APS_GEOMETRY
 10
-23.710423
 11
-30.210423
 20
121.176722
 21
121.176722
  0
LINE
  8
APS_GEOMETRY
 10
-30.210423
 11
-30.210423
 20
121.176722
 21
140.176722
  0
LINE
  8
APS_GEOMETRY
 10
-30.210423
 11
-23.710423
 20
140.176722
 21
140.176722
  0
LINE
  8
APS_GEOMETRY
 10
-23.710423
 11
-23.710423
 20
140.176722
 21
141.176722
  0
LINE
  8
APS_GEOMETRY
 10
-23.710423
 11
-30.210423
 20
141.176722
 21
141.176722
  0
LINE
  8
APS_GEOMETRY
 10
-30.210423
 11
-30.210423
 20
141.176722
 21
153.376722
  0
LINE
  8
APS_GEOMETRY
 10
-30.210423
 11
-23.710423
 20
153.376722
 21
153.376722
  0
LINE
  8
APS_GEOMETRY
 10
-23.710423
 11
-23.710423
 20
153.376722
 21
148.176722
  0
LINE
  8
APS_GEOMETRY
 10
-23.710423
 11
-14.928468
 20
148.176722
 21
148.176722
  0
LINE
  8
APS_GEOMETRY
 10
-14.928468
 11
-7.710423
 20
148.176722
 21
100.176722
  0
LINE
  8
APS_GEOMETRY
 10
-7.710423
 11
-7.710423
 20
100.176722
 21
80.176722
  0
LINE
  8
APS_GEOMETRY
 10
-7.710423
 11
-33.610423
 20
80.176722
 21
80.176722
  0
LINE
  8
APS_GEOMETRY
 10
64.209798
 11
64.209798
 20
159.235236
 21
200.360353
  0
LINE
  8
APS_GEOMETRY
 10
7.209798
 11
7.209798
 20
159.235236
 21
200.360353
  0
LINE
  8
APS_GEOMETRY
 10
64.209798
 11
54.209798
 20
195.360353
 21
193.693353
  0
LINE
  8
APS_GEOMETRY
 10
54.209798
 11
54.209798
 20
193.693353
 21
197.027353
  0
LINE
  8
APS_GEOMETRY
 10
54.209798
 11
64.209798
 20
197.027353
 21
195.360353
  0
LINE
  8
APS_GEOMETRY
 10
64.209798
 11
46.553474
 20
195.360353
 21
195.360353
  0
LINE
  8
APS_GEOMETRY
 10
24.866122
 11
7.209798
 20
195.360353
 21
195.360353
  0
LINE
  8
APS_GEOMETRY
 10
7.209798
 11
17.209798
 20
195.360353
 21
193.693353
  0
LINE
  8
APS_GEOMETRY
 10
17.209798
 11
17.209798
 20
193.693353
 21
197.027353
  0
LINE
  8
APS_GEOMETRY
 10
17.209798
 11
7.209798
 20
197.027353
 21
195.360353
  0
LINE
  8
APS_GEOMETRY
 10
-41.799655
 11
-41.799655
 20
54.076123
 21
60.376123
  0
LINE
  8
APS_GEOMETRY
 10
-31.199534
 11
-31.199534
 20
54.076123
 21
60.376123
  0
LINE
  8
APS_GEOMETRY
 10
-10.877191
 11
-4.76608
 20
57.096305
 21
57.096305
  0
LINE
  8
APS_GEOMETRY
 10
-12.099413
 11
-8.210524
 20
54.076123
 21
64.076123
  0
LINE
  8
APS_GEOMETRY
 10
-8.210524
 11
-7.321635
 20
64.076123
 21
64.076123
  0
LINE
  8
APS_GEOMETRY
 10
-7.321635
 11
-3.654969
 20
64.076123
 21
54.076123
  0
LINE
  8
APS_GEOMETRY
 10
10.625592
 11
12.847814
 20
58.965012
 21
54.076123
  0
LINE
  8
APS_GEOMETRY
 10
14.661059
 11
18.549948
 20
64.040051
 21
58.484495
  0
LINE
  8
APS_GEOMETRY
 10
18.549948
 11
18.549948
 20
58.484495
 21
54.040051
  0
LINE
  8
APS_GEOMETRY
 10
18.549948
 11
22.438837
 20
58.484495
 21
64.040051
  0
LINE
  8
APS_GEOMETRY
 10
23.292259
 11
23.292259
 20
64.076123
 21
54.076123
  0
LINE
  8
APS_GEOMETRY
 10
23.292259
 11
29.958926
 20
54.076123
 21
54.076123
  0
LINE
  8
APS_GEOMETRY
 10
30.959262
 11
33.315855
 20
64.073729
 21
64.076123
  0
LINE
  8
APS_GEOMETRY
 10
33.315855
 11
33.315855
 20
64.076123
 21
54.076123
  0
LINE
  8
APS_GEOMETRY
 10
33.315855
 11
30.959262
 20
54.076123
 21
54.073728
  0
LINE
  8
APS_GEOMETRY
 10
33.315855
 11
35.672448
 20
54.076123
 21
54.073728
  0
LINE
  8
APS_GEOMETRY
 10
33.315855
 11
35.672448
 20
64.076123
 21
64.073729
  0
LINE
  8
APS_GEOMETRY
 10
-274.723957
 11
-271.292704
 20
54.076123
 21
54.076123
  0
LINE
  8
APS_GEOMETRY
 10
-273.00833
 11
-273.00833
 20
54.076123
 21
64.076123
  0
LINE
  8
APS_GEOMETRY
 10
-273.00833
 11
-274.723957
 20
64.076123
 21
62.360497
  0
LINE
  8
APS_GEOMETRY
 10
-239.740625
 11
-239.740625
 20
63.076123
 21
54.076123
  0
LINE
  8
APS_GEOMETRY
 10
-240.940625
 11
-238.440625
 20
60.276123
 21
60.276123
  0
LINE
  8
APS_GEOMETRY
 10
-188.545746
 11
-188.545746
 20
54.076123
 21
60.376123
  0
LINE
  8
APS_GEOMETRY
 10
-273.55944
 11
-273.55944
 20
48.076123
 21
39.076123
  0
LINE
  8
APS_GEOMETRY
 10
-274.75944
 11
-272.25944
 20
45.276123
 21
45.276123
  0
LINE
  8
APS_GEOMETRY
 10
-270.223957
 11
-270.223957
 20
39.076123
 21
48.076123
  0
LINE
  8
APS_GEOMETRY
 10
-262.637529
 11
-262.637529
 20
48.176123
 21
47.376123
  0
LINE
  8
APS_GEOMETRY
 10
-262.637529
 11
-262.637529
 20
39.076123
 21
45.376123
  0
LINE
  8
APS_GEOMETRY
 10
-263.923836
 11
-261.351222
 20
39.076123
 21
39.076123
  0
LINE
  8
APS_GEOMETRY
 10
-259.351222
 11
-259.351222
 20
39.076123
 21
45.376123
  0
LINE
  8
APS_GEOMETRY
 10
-234.230583
 11
-234.230583
 20
45.551477
 21
39.251477
  0
LINE
  8
APS_GEOMETRY
 10
-230.98247
 11
-230.98247
 20
45.376123
 21
39.076123
  0
LINE
  8
APS_GEOMETRY
 10
-232.268777
 11
-229.696163
 20
39.076123
 21
39.076123
  0
LINE
  8
APS_GEOMETRY
 10
-223.054529
 11
-223.054529
 20
39.0769
 21
48.0769
  0
LINE
  8
APS_GEOMETRY
 10
-70.664761
 11
-68.331428
 20
23.352421
 21
20.019088
  0
LINE
  8
APS_GEOMETRY
 10
-68.331428
 11
-68.331428
 20
20.019088
 21
17.352421
  0
LINE
  8
APS_GEOMETRY
 10
-68.331428
 11
-65.998094
 20
20.019088
 21
23.352421
  0
ARC
  8
APS_GEOMETRY
 10
-63.303164
 20
19.359547
 40
1.9644
 50
218.6887
 51
321.3113
  0
ARC
  8
APS_GEOMETRY
 10
-64.607932
 20
20.431656
 40
3.653067
 50
320.978113
 51
39.020738
  0
ARC
  8
APS_GEOMETRY
 10
-63.30313
 20
21.503723
 40
1.9644
 50
38.688157
 51
141.312908
  0
ARC
  8
APS_GEOMETRY
 10
-61.998362
 20
20.431614
 40
3.653067
 50
140.978975
 51
219.021025
  0
LINE
  8
APS_GEOMETRY
 10
-60.378919
 11
-60.378919
 20
23.317111
 21
19.317111
  0
ARC
  8
APS_GEOMETRY
 10
-58.378919
 20
19.317111
 40
2.0
 50
180.0
 51
0.0
  0
LINE
  8
APS_GEOMETRY
 10
-56.378919
 11
-56.378919
 20
19.317111
 21
23.317111
  0
LINE
  8
APS_GEOMETRY
 10
-47.711512
 11
-47.711512
 20
23.348427
 21
17.415094
  0
LINE
  8
APS_GEOMETRY
 10
-50.044846
 11
-45.378179
 20
23.415094
 21
23.415094
  0
LINE
  8
APS_GEOMETRY
 10
-44.812252
 11
-44.812252
 20
23.317111
 21
19.317111
  0
ARC
  8
APS_GEOMETRY
 10
-42.812252
 20
19.317111
 40
2.0
 50
180.0
 51
0.0
  0
LINE
  8
APS_GEOMETRY
 10
-40.812252
 11
-40.812252
 20
19.317111
 21
23.317111
  0
LINE
  8
APS_GEOMETRY
 10
-39.602811
 11
-37.202811
 20
20.507398
 21
20.507398
  0
ARC
  8
APS_GEOMETRY
 10
-37.202811
 20
21.940731
 40
1.433333
 50
270.0
 51
90.0
  0
LINE
  8
APS_GEOMETRY
 10
-37.202811
 11
-39.602811
 20
23.374064
 21
23.374064
  0
LINE
  8
APS_GEOMETRY
 10
-39.602811
 11
-39.602811
 20
23.374064
 21
17.374064
  0
LINE
  8
APS_GEOMETRY
 10
-39.602811
 11
-37.136144
 20
17.374064
 21
17.374064
  0
ARC
  8
APS_GEOMETRY
 10
-37.136144
 20
18.940731
 40
1.566667
 50
270.0
 51
90.0
  0
LINE
  8
APS_GEOMETRY
 10
-30.369477
 11
-34.369477
 20
23.374064
 21
23.374064
  0
LINE
  8
APS_GEOMETRY
 10
-34.369477
 11
-34.369477
 20
23.374064
 21
17.374064
  0
LINE
  8
APS_GEOMETRY
 10
-34.369477
 11
-30.369477
 20
17.374064
 21
17.374064
  0
LINE
  8
APS_GEOMETRY
 10
-34.30281
 11
-31.70281
 20
20.574064
 21
20.574064
  0
LINE
  8
APS_GEOMETRY
 10
-23.469477
 11
-23.469477
 20
23.374064
 21
17.374064
  0
LINE
  8
APS_GEOMETRY
 10
-23.469477
 11
-19.469477
 20
17.374064
 21
17.374064
  0
LINE
  8
APS_GEOMETRY
 10
-17.455319
 11
-17.455319
 20
23.374064
 21
17.374064
  0
LINE
  8
APS_GEOMETRY
 10
-18.869275
 11
-17.455319
 20
17.372627
 21
17.374064
  0
LINE
  8
APS_GEOMETRY
 10
-17.455319
 11
-16.041363
 20
17.374064
 21
17.372627
  0
LINE
  8
APS_GEOMETRY
 10
-18.869275
 11
-17.455319
 20
23.372628
 21
23.374064
  0
LINE
  8
APS_GEOMETRY
 10
-17.455319
 11
-16.041363
 20
23.374064
 21
23.372628
  0
LINE
  8
APS_GEOMETRY
 10
-14.841565
 11
-14.841565
 20
17.374064
 21
23.374064
  0
LINE
  8
APS_GEOMETRY
 10
-14.841565
 11
-14.508232
 20
23.374064
 21
23.374064
  0
LINE
  8
APS_GEOMETRY
 10
-14.508232
 11
-11.174898
 20
23.374064
 21
17.374064
  0
LINE
  8
APS_GEOMETRY
 10
-11.174898
 11
-10.841565
 20
17.374064
 21
17.374064
  0
LINE
  8
APS_GEOMETRY
 10
-10.841565
 11
-10.841565
 20
17.374064
 21
23.374064
  0
LINE
  8
APS_GEOMETRY
 10
-5.308231
 11
-7.974898
 20
17.374064
 21
21.040731
  0
LINE
  8
APS_GEOMETRY
 10
-9.574898
 11
-5.308231
 20
19.774064
 21
23.374064
  0
LINE
  8
APS_GEOMETRY
 10
-9.641565
 11
-9.641565
 20
23.374064
 21
17.374064
  0
LINE
  8
APS_GEOMETRY
 10
-70.053998
 11
-70.053998
 20
4.774064
 21
-0.625936
  0
LINE
  8
APS_GEOMETRY
 10
-70.773998
 11
-69.273998
 20
3.094064
 21
3.094064
  0
LINE
  8
APS_GEOMETRY
 10
-67.353998
 11
-67.353998
 20
4.774064
 21
-0.625936
  0
LINE
  8
APS_GEOMETRY
 10
-68.073998
 11
-66.573998
 20
3.094064
 21
3.094064
  0
ARC
  8
APS_GEOMETRY
 10
-64.056513
 20
0.875842
 40
1.54362
 50
214.9193
 51
269.7887
  0
ARC
  8
APS_GEOMETRY
 10
-64.064849
 20
0.74421
 40
1.41198
 50
270.107261
 51
333.411436
  0
ARC
  8
APS_GEOMETRY
 10
-64.960648
 20
1.192212
 40
2.41356
 50
333.419009
 51
26.581852
  0
ARC
  8
APS_GEOMETRY
 10
-64.064863
 20
1.640242
 40
1.41198
 50
26.58881
 51
89.892414
  0
ARC
  8
APS_GEOMETRY
 10
-64.056508
 20
1.50861
 40
1.54362
 50
90.211714
 51
145.081065
  0
LINE
  8
APS_GEOMETRY
 10
-65.322213
 11
-65.322213
 20
3.112222
 21
-2.107778
  0
ARC
  8
APS_GEOMETRY
 10
-60.841176
 20
1.611443
 40
1.46424
 50
42.8264
 51
122.4689
  0
ARC
  8
APS_GEOMETRY
 10
-61.216295
 20
2.198703
 40
0.7674
 50
122.378183
 51
252.485679
  0
LINE
  8
APS_GEOMETRY
 10
-61.447239
 11
-60.247236
 20
1.466879
 21
1.106843
  0
ARC
  8
APS_GEOMETRY
 10
-60.486011
 20
0.317403
 40
0.82476
 50
300.512868
 51
73.171518
  0
ARC
  8
APS_GEOMETRY
 10
-60.847299
 20
0.959219
 40
1.5612
 50
240.027532
 51
299.976472
  0
ARC
  8
APS_GEOMETRY
 10
-61.226938
 20
0.307035
 40
0.80658
 50
209.746055
 51
240.244046
  0
LINE
  8
APS_GEOMETRY
 10
-58.155134
 11
-58.455134
 20
2.250243
 21
2.250243
  0
LINE
  8
APS_GEOMETRY
 10
-58.455134
 11
-58.455134
 20
2.250243
 21
2.550243
  0
LINE
  8
APS_GEOMETRY
 10
-58.455134
 11
-58.155134
 20
2.550243
 21
2.550243
  0
LINE
  8
APS_GEOMETRY
 10
-58.155134
 11
-58.155134
 20
2.550243
 21
2.250243
  0
LINE
  8
APS_GEOMETRY
 10
-58.155134
 11
-58.455134
 20
0.761658
 21
0.761658
  0
LINE
  8
APS_GEOMETRY
 10
-58.455134
 11
-58.455134
 20
0.761658
 21
1.061658
  0
LINE
  8
APS_GEOMETRY
 10
-58.455134
 11
-58.155134
 20
1.061658
 21
1.061658
  0
LINE
  8
APS_GEOMETRY
 10
-58.155134
 11
-58.155134
 20
1.061658
 21
0.761658
  0
LINE
  8
APS_GEOMETRY
 10
-56.857194
 11
-53.257194
 20
-0.676413
 21
4.723587
  0
LINE
  8
APS_GEOMETRY
 10
-52.057194
 11
-48.457194
 20
-0.676413
 21
4.723587
  0
LINE
  8
APS_GEOMETRY
 10
-47.215626
 11
-45.835626
 20
3.236666
 21
-0.663334
  0
LINE
  8
APS_GEOMETRY
 10
-47.215626
 11
-46.735626
 20
-2.163334
 21
-2.163334
  0
LINE
  8
APS_GEOMETRY
 10
-46.735626
 11
-46.495626
 20
-2.163334
 21
-2.103334
  0
LINE
  8
APS_GEOMETRY
 10
-46.495626
 11
-46.315626
 20
-2.103334
 21
-1.983334
  0
LINE
  8
APS_GEOMETRY
 10
-46.315626
 11
-46.195626
 20
-1.983334
 21
-1.803334
  0
LINE
  8
APS_GEOMETRY
 10
-46.195626
 11
-44.635626
 20
-1.803334
 21
3.236666
  0
ARC
  8
APS_GEOMETRY
 10
-42.530356
 20
0.807999
 40
1.40466
 50
206.2329
 51
333.7671
  0
ARC
  8
APS_GEOMETRY
 10
-43.428802
 20
1.26713
 40
2.41356
 50
333.417878
 51
26.581314
  0
ARC
  8
APS_GEOMETRY
 10
-42.530351
 20
1.72625
 40
1.40466
 50
26.231996
 51
153.7676
  0
ARC
  8
APS_GEOMETRY
 10
-41.631906
 20
1.267119
 40
2.41356
 50
153.418164
 51
206.581836
  0
LINE
  8
APS_GEOMETRY
 10
-40.503853
 11
-40.503899
 20
3.185411
 21
0.425391
  0
ARC
  8
APS_GEOMETRY
 10
-39.489253
 20
0.420057
 40
1.01466
 50
179.698802
 51
270.305782
  0
ARC
  8
APS_GEOMETRY
 10
-39.482473
 20
1.150691
 40
1.74528
 50
269.9552
 51
333.2598
  0
LINE
  8
APS_GEOMETRY
 10
-37.923853
 11
-37.923853
 20
3.185411
 21
-0.594589
  0
LINE
  8
APS_GEOMETRY
 10
-36.066127
 11
-36.066127
 20
4.774064
 21
-0.625936
  0
LINE
  8
APS_GEOMETRY
 10
-36.786127
 11
-35.286127
 20
3.094064
 21
3.094064
  0
LINE
  8
APS_GEOMETRY
 10
-34.023781
 11
-34.023826
 20
3.185411
 21
0.425391
  0
ARC
  8
APS_GEOMETRY
 10
-33.00918
 20
0.420057
 40
1.01466
 50
179.698802
 51
270.305782
  0
ARC
  8
APS_GEOMETRY
 10
-33.002401
 20
1.150691
 40
1.74528
 50
269.9552
 51
333.2598
  0
LINE
  8
APS_GEOMETRY
 10
-31.443781
 11
-31.443781
 20
3.185411
 21
-0.594589
  0
CIRCLE
  8
APS_GEOMETRY
 10
-29.695005
 20
-0.023662
 40
0.6
  0
LINE
  8
APS_GEOMETRY
 10
-27.884765
 11
-27.884765
 20
-0.625936
 21
4.774064
  0
ARC
  8
APS_GEOMETRY
 10
-26.619065
 20
0.857684
 40
1.54362
 50
214.9193
 51
269.7887
  0
ARC
  8
APS_GEOMETRY
 10
-26.627401
 20
0.726052
 40
1.41198
 50
270.107261
 51
333.411436
  0
ARC
  8
APS_GEOMETRY
 10
-27.5232
 20
1.174055
 40
2.41356
 50
333.419009
 51
26.581852
  0
ARC
  8
APS_GEOMETRY
 10
-26.627415
 20
1.622084
 40
1.41198
 50
26.58881
 51
89.892414
  0
ARC
  8
APS_GEOMETRY
 10
-26.61906
 20
1.490452
 40
1.54362
 50
90.211714
 51
145.081065
  0
LINE
  8
APS_GEOMETRY
 10
-24.493394
 11
-21.613387
 20
1.567138
 21
1.567128
  0
ARC
  8
APS_GEOMETRY
 10
-23.392695
 20
1.632281
 40
1.7805
 50
357.902951
 51
30.171303
  0
ARC
  8
APS_GEOMETRY
 10
-22.995554
 20
1.868877
 40
1.31826
 50
29.956335
 51
89.906216
  0
ARC
  8
APS_GEOMETRY
 10
-22.990745
 20
1.775158
 40
1.41198
 50
90.107586
 51
153.41119
  0
ARC
  8
APS_GEOMETRY
 10
-22.094959
 20
1.327128
 40
2.41356
 50
153.418148
 51
206.580991
  0
ARC
  8
APS_GEOMETRY
 10
-22.990758
 20
0.879126
 40
1.41198
 50
206.588564
 51
269.892739
  0
ARC
  8
APS_GEOMETRY
 10
-22.999094
 20
1.010758
 40
1.54362
 50
270.2113
 51
325.0807
  0
LINE
  8
APS_GEOMETRY
 10
-20.915371
 11
-17.315371
 20
-0.676413
 21
4.723587
  0
LINE
  8
APS_GEOMETRY
 10
-14.455346
 11
-14.455346
 20
5.348427
 21
-0.584906
  0
LINE
  8
APS_GEOMETRY
 10
-16.788679
 11
-12.122012
 20
5.415094
 21
5.415094
  0
LINE
  8
APS_GEOMETRY
 10
-11.556086
 11
-11.556086
 20
5.317111
 21
1.317111
  0
ARC
  8
APS_GEOMETRY
 10
-9.556085
 20
1.317111
 40
2.0
 50
180.0
 51
0.0
  0
LINE
  8
APS_GEOMETRY
 10
-7.556085
 11
-7.556085
 20
1.317111
 21
5.317111
  0
LINE
  8
APS_GEOMETRY
 10
-6.94002
 11
-6.94002
 20
1.373201
 21
0.906535
  0
ARC
  8
APS_GEOMETRY
 10
-5.406687
 20
0.906535
 40
1.533333
 50
180.0
 51
0.0
  0
LINE
  8
APS_GEOMETRY
 10
-3.873353
 11
-3.873353
 20
0.906535
 21
5.373202
  0
ARC
  8
APS_GEOMETRY
 10
-1.494074
 20
-0.766338
 40
1.3482
 50
236.695
 51
298.3259
  0
ARC
  8
APS_GEOMETRY
 10
-1.177274
 20
-1.35135
 40
0.68292
 50
298.217876
 51
359.847629
  0
LINE
  8
APS_GEOMETRY
 10
-0.494357
 11
-0.494354
 20
-1.353166
 21
3.146862
  0
ARC
  8
APS_GEOMETRY
 10
-1.76006
 20
1.60325
 40
1.54362
 50
34.918935
 51
89.788286
  0
ARC
  8
APS_GEOMETRY
 10
-1.751705
 20
1.734882
 40
1.41198
 50
90.107586
 51
153.41119
  0
ARC
  8
APS_GEOMETRY
 10
-0.855919
 20
1.286852
 40
2.41356
 50
153.418148
 51
206.580991
  0
ARC
  8
APS_GEOMETRY
 10
-1.751718
 20
0.83885
 40
1.41198
 50
206.588564
 51
269.892739
  0
ARC
  8
APS_GEOMETRY
 10
-1.760054
 20
0.970482
 40
1.54362
 50
270.2113
 51
325.0807
  0
LINE
  8
APS_GEOMETRY
 10
0.695153
 11
3.095153
 20
2.507398
 21
2.507398
  0
ARC
  8
APS_GEOMETRY
 10
3.095153
 20
3.940731
 40
1.433333
 50
270.0
 51
90.0
  0
LINE
  8
APS_GEOMETRY
 10
3.095153
 11
0.695153
 20
5.374064
 21
5.374064
  0
LINE
  8
APS_GEOMETRY
 10
0.695153
 11
0.695153
 20
5.374064
 21
-0.625936
  0
LINE
  8
APS_GEOMETRY
 10
0.695153
 11
3.16182
 20
-0.625936
 21
-0.625936
  0
ARC
  8
APS_GEOMETRY
 10
3.16182
 20
0.940731
 40
1.566667
 50
270.0
 51
90.0
  0
ARC
  8
APS_GEOMETRY
 10
6.872372
 20
1.490919
 40
1.54362
 50
34.918935
 51
89.788286
  0
ARC
  8
APS_GEOMETRY
 10
6.880727
 20
1.622551
 40
1.41198
 50
90.107586
 51
153.41119
  0
ARC
  8
APS_GEOMETRY
 10
7.776513
 20
1.174521
 40
2.41356
 50
153.418148
 51
206.580991
  0
ARC
  8
APS_GEOMETRY
 10
6.880713
 20
0.726519
 40
1.41198
 50
206.588564
 51
269.892739
  0
ARC
  8
APS_GEOMETRY
 10
6.872378
 20
0.858151
 40
1.54362
 50
270.2113
 51
325.0807
  0
LINE
  8
APS_GEOMETRY
 10
8.703616
 11
8.703616
 20
-0.625936
 21
4.774064
  0
ARC
  8
APS_GEOMETRY
 10
9.969316
 20
0.857684
 40
1.54362
 50
214.9193
 51
269.7887
  0
ARC
  8
APS_GEOMETRY
 10
9.96098
 20
0.726052
 40
1.41198
 50
270.107261
 51
333.411436
  0
ARC
  8
APS_GEOMETRY
 10
9.065181
 20
1.174055
 40
2.41356
 50
333.419009
 51
26.581852
  0
ARC
  8
APS_GEOMETRY
 10
9.960967
 20
1.622084
 40
1.41198
 50
26.58881
 51
89.892414
  0
ARC
  8
APS_GEOMETRY
 10
9.969322
 20
1.490452
 40
1.54362
 50
90.211714
 51
145.081065
  0
LINE
  8
APS_GEOMETRY
 10
16.678745
 11
12.678746
 20
-0.625964
 21
-0.625936
  0
ARC
  8
APS_GEOMETRY
 10
14.793611
 20
-0.62311
 40
2.114867
 50
121.813563
 51
180.07656
  0
LINE
  8
APS_GEOMETRY
 10
13.678745
 11
15.945396
 20
1.174036
 21
2.574038
  0
ARC
  8
APS_GEOMETRY
 10
15.207593
 20
3.840692
 40
1.465867
 50
300.220013
 51
59.779436
  0
ARC
  8
APS_GEOMETRY
 10
14.812024
 20
3.001198
 40
2.391733
 50
61.713834
 51
118.283685
  0
ARC
  8
APS_GEOMETRY
 10
14.349811
 20
3.846369
 40
1.428467
 50
118.0207
 51
169.4717
  0
LINE
  8
APS_GEOMETRY
 10
18.178747
 11
20.578747
 20
3.154064
 21
-0.625936
  0
LINE
  8
APS_GEOMETRY
 10
17.878747
 11
20.278747
 20
-0.625936
 21
3.154064
  0
LINE
  8
APS_GEOMETRY
 10
24.358747
 11
24.358792
 20
-0.625936
 21
2.134084
  0
ARC
  8
APS_GEOMETRY
 10
23.344146
 20
2.139418
 40
1.01466
 50
359.698802
 51
90.305782
  0
ARC
  8
APS_GEOMETRY
 10
23.337367
 20
1.408784
 40
1.74528
 50
89.9552
 51
153.2598
  0
LINE
  8
APS_GEOMETRY
 10
21.778747
 11
21.778747
 20
-0.625936
 21
3.154064
  0
ARC
  8
APS_GEOMETRY
 10
27.462983
 20
-0.505819
 40
0.8756
 50
12.148823
 51
63.601209
  0
LINE
  8
APS_GEOMETRY
 10
28.318973
 11
28.385624
 20
-0.321548
 21
-0.721538
  0
ARC
  8
APS_GEOMETRY
 10
28.973573
 20
-0.584681
 40
0.603667
 50
193.1034
 51
271.1466
  0
ARC
  8
APS_GEOMETRY
 10
26.01424
 20
2.378452
 40
3.653067
 50
320.9784
 51
39.0216
  0
ARC
  8
APS_GEOMETRY
 10
27.319007
 20
3.450562
 40
1.9644
 50
38.688157
 51
141.312908
  0
ARC
  8
APS_GEOMETRY
 10
28.623741
 20
2.37841
 40
3.653067
 50
140.978113
 51
219.020738
  0
ARC
  8
APS_GEOMETRY
 10
27.318973
 20
1.3063
 40
1.9644
 50
218.686549
 51
321.313451
  0
ENDSEC
  0
EOF
