  0
SECTION
  2
ENTITIES
  0
LINE
  8
APS_GEOMETRY
 10
50.788581
 11
50.788581
 20
419.036783
 21
417.036783
  0
LINE
  8
APS_GEOMETRY
 10
50.788581
 11
40.788581
 20
417.036783
 21
417.036783
  0
LINE
  8
APS_GEOMETRY
 10
40.788581
 11
40.788581
 20
417.036783
 21
419.036783
  0
LINE
  8
APS_GEOMETRY
 10
40.788581
 11
36.081323
 20
419.036783
 21
419.036783
  0
ARC
  8
APS_GEOMETRY
 10
34.954236
 20
416.036783
 40
3.0
 50
90.0
 51
180.0
  0
LINE
  8
APS_GEOMETRY
 10
31.954236
 11
31.954236
 20
416.036783
 21
410.202437
  0
LINE
  8
APS_GEOMETRY
 10
31.954236
 11
33.954236
 20
410.202437
 21
410.202437
  0
LINE
  8
APS_GEOMETRY
 10
33.954236
 11
33.954236
 20
410.202437
 21
400.202437
  0
LINE
  8
APS_GEOMETRY
 10
33.954236
 11
31.954236
 20
400.202437
 21
400.202437
  0
LINE
  8
APS_GEOMETRY
 10
31.954236
 11
31.954236
 20
400.202437
 21
394.368092
  0
ARC
  8
APS_GEOMETRY
 10
34.954236
 20
394.368092
 40
3.0
 50
180.0
 51
270.0
  0
LINE
  8
APS_GEOMETRY
 10
34.954236
 11
40.788581
 20
391.368092
 21
391.368092
  0
LINE
  8
APS_GEOMETRY
 10
40.788581
 11
40.788581
 20
391.368092
 21
393.368092
  0
LINE
  8
APS_GEOMETRY
 10
40.788581
 11
50.788582
 20
393.368092
 21
393.368092
  0
LINE
  8
APS_GEOMETRY
 10
50.788582
 11
50.788582
 20
393.368092
 21
391.368092
  0
LINE
  8
APS_GEOMETRY
 10
50.788582
 11
56.622926
 20
391.368092
 21
391.368092
  0
ARC
  8
APS_GEOMETRY
 10
56.622926
 20
394.368092
 40
3.0
 50
270.0
 51
0.0
  0
LINE
  8
APS_GEOMETRY
 10
59.622926
 11
59.622926
 20
394.368092
 21
400.202438
  0
LINE
  8
APS_GEOMETRY
 10
59.622926
 11
57.622927
 20
400.202438
 21
400.202438
  0
LINE
  8
APS_GEOMETRY
 10
57.622927
 11
57.622927
 20
400.202438
 21
410.202438
  0
LINE
  8
APS_GEOMETRY
 10
57.622927
 11
59.622926
 20
410.202438
 21
410.202438
  0
LINE
  8
APS_GEOMETRY
 10
59.622926
 11
59.622926
 20
410.202438
 21
416.036783
  0
ARC
  8
APS_GEOMETRY
 10
56.622926
 20
416.036783
 40
3.0
 50
0.0
 51
90.0
  0
LINE
  8
APS_GEOMETRY
 10
56.622926
 11
50.788581
 20
419.036783
 21
419.036783
  0
CIRCLE
  8
APS_GEOMETRY
 10
38.667261
 20
412.323758
 40
1.0
  0
CIRCLE
  8
APS_GEOMETRY
 10
52.909901
 20
412.323758
 40
1.0
  0
CIRCLE
  8
APS_GEOMETRY
 10
52.909901
 20
398.081117
 40
1.0
  0
CIRCLE
  8
APS_GEOMETRY
 10
45.788581
 20
405.202438
 40
1.0
  0
CIRCLE
  8
APS_GEOMETRY
 10
38.667261
 20
398.081117
 40
1.0
  0
LINE
  8
APS_GEOMETRY
 10
-210.11294
 11
-210.11294
 20
453.422752
 21
443.294019
  0
LINE
  8
APS_GEOMETRY
 10
-210.11294
 11
-212.11294
 20
443.294019
 21
443.294019
  0
LINE
  8
APS_GEOMETRY
 10
-212.11294
 11
-212.11294
 20
443.294019
 21
463.551484
  0
LINE
  8
APS_GEOMETRY
 10
-212.11294
 11
-207.11294
 20
463.551484
 21
463.551484
  0
ARC
  8
APS_GEOMETRY
 10
-207.11294
 20
462.551484
 40
1.0
 50
0.0
 51
90.0
  0
LINE
  8
APS_GEOMETRY
 10
-206.11294
 11
-206.11294
 20
462.551484
 21
453.422752
  0
LINE
  8
APS_GEOMETRY
 10
-206.11294
 11
-204.11294
 20
453.422752
 21
453.422752
  0
LINE
  8
APS_GEOMETRY
 10
-204.11294
 11
-204.11294
 20
453.422752
 21
462.551484
  0
ARC
  8
APS_GEOMETRY
 10
-203.11294
 20
462.551484
 40
1.0
 50
90.0
 51
180.0
  0
LINE
  8
APS_GEOMETRY
 10
-203.11294
 11
-173.444251
 20
463.551484
 21
463.551484
  0
ARC
  8
APS_GEOMETRY
 10
-173.444251
 20
462.551484
 40
1.0
 50
0.000004
 51
90.0
  0
LINE
  8
APS_GEOMETRY
 10
-172.444251
 11
-172.44425
 20
462.551484
 21
453.422752
  0
LINE
  8
APS_GEOMETRY
 10
-172.44425
 11
-170.44425
 20
453.422752
 21
453.422752
  0
LINE
  8
APS_GEOMETRY
 10
-170.44425
 11
-170.444251
 20
453.422752
 21
462.551484
  0
ARC
  8
APS_GEOMETRY
 10
-169.444251
 20
462.551484
 40
1.0
 50
90.0
 51
180.000004
  0
LINE
  8
APS_GEOMETRY
 10
-169.444251
 11
-164.444251
 20
463.551484
 21
463.551484
  0
LINE
  8
APS_GEOMETRY
 10
-164.444251
 11
-164.444251
 20
463.551484
 21
443.294019
  0
LINE
  8
APS_GEOMETRY
 10
-164.444251
 11
-166.444249
 20
443.294019
 21
443.294019
  0
LINE
  8
APS_GEOMETRY
 10
-166.444249
 11
-166.44425
 20
443.294019
 21
453.422752
  0
LINE
  8
APS_GEOMETRY
 10
-166.44425
 11
-168.44425
 20
453.422752
 21
453.422752
  0
LINE
  8
APS_GEOMETRY
 10
-168.44425
 11
-168.444249
 20
453.422752
 21
443.294019
  0
LINE
  8
APS_GEOMETRY
 10
-168.444249
 11
-174.444251
 20
443.294019
 21
443.294019
  0
LINE
  8
APS_GEOMETRY
 10
-174.444251
 11
-174.444251
 20
443.294019
 21
441.294019
  0
LINE
  8
APS_GEOMETRY
 10
-174.444251
 11
-184.444251
 20
441.294019
 21
441.294019
  0
LINE
  8
APS_GEOMETRY
 10
-184.444251
 11
-184.444251
 20
441.294019
 21
443.294019
  0
LINE
  8
APS_GEOMETRY
 10
-184.444251
 11
-192.11294
 20
443.294019
 21
443.294019
  0
LINE
  8
APS_GEOMETRY
 10
-192.11294
 11
-192.11294
 20
443.294019
 21
441.294019
  0
LINE
  8
APS_GEOMETRY
 10
-192.11294
 11
-202.11294
 20
441.294019
 21
441.294019
  0
LINE
  8
APS_GEOMETRY
 10
-202.11294
 11
-202.11294
 20
441.294019
 21
443.294019
  0
LINE
  8
APS_GEOMETRY
 10
-202.11294
 11
-208.11294
 20
443.294019
 21
443.294019
  0
LINE
  8
APS_GEOMETRY
 10
-208.11294
 11
-208.11294
 20
443.294019
 21
453.422752
  0
LINE
  8
APS_GEOMETRY
 10
-208.11294
 11
-210.11294
 20
453.422752
 21
453.422752
  0
LINE
  8
APS_GEOMETRY
 10
-153.54358
 11
-153.54358
 20
463.551484
 21
453.422752
  0
LINE
  8
APS_GEOMETRY
 10
-153.54358
 11
-151.54358
 20
453.422752
 21
453.422752
  0
LINE
  8
APS_GEOMETRY
 10
-151.54358
 11
-151.54358
 20
453.422752
 21
463.551484
  0
LINE
  8
APS_GEOMETRY
 10
-151.54358
 11
-150.54358
 20
463.551484
 21
463.551484
  0
LINE
  8
APS_GEOMETRY
 10
-146.54358
 11
-116.87489
 20
463.551484
 21
463.551484
  0
LINE
  8
APS_GEOMETRY
 10
-112.87489
 11
-111.87489
 20
463.551484
 21
463.551484
  0
LINE
  8
APS_GEOMETRY
 10
-111.87489
 11
-111.87489
 20
463.551484
 21
453.422752
  0
LINE
  8
APS_GEOMETRY
 10
-111.87489
 11
-109.87489
 20
453.422752
 21
453.422752
  0
LINE
  8
APS_GEOMETRY
 10
-109.87489
 11
-109.87489
 20
453.422752
 21
463.551484
  0
LINE
  8
APS_GEOMETRY
 10
-109.87489
 11
-107.87489
 20
463.551484
 21
463.551484
  0
LINE
  8
APS_GEOMETRY
 10
-107.87489
 11
-107.87489
 20
463.551484
 21
443.294019
  0
LINE
  8
APS_GEOMETRY
 10
-107.87489
 11
-117.87489
 20
443.294019
 21
443.294019
  0
LINE
  8
APS_GEOMETRY
 10
-117.87489
 11
-117.87489
 20
443.294019
 21
441.294019
  0
LINE
  8
APS_GEOMETRY
 10
-117.87489
 11
-127.874891
 20
441.294019
 21
441.294019
  0
LINE
  8
APS_GEOMETRY
 10
-127.874891
 11
-127.874891
 20
441.294019
 21
443.294019
  0
LINE
  8
APS_GEOMETRY
 10
-127.874891
 11
-135.54358
 20
443.294019
 21
443.294019
  0
LINE
  8
APS_GEOMETRY
 10
-135.54358
 11
-135.54358
 20
443.294019
 21
441.294019
  0
LINE
  8
APS_GEOMETRY
 10
-135.54358
 11
-145.54358
 20
441.294019
 21
441.294019
  0
LINE
  8
APS_GEOMETRY
 10
-145.54358
 11
-145.54358
 20
441.294019
 21
443.294019
  0
LINE
  8
APS_GEOMETRY
 10
-145.54358
 11
-155.54358
 20
443.294019
 21
443.294019
  0
LINE
  8
APS_GEOMETRY
 10
-155.54358
 11
-155.54358
 20
443.294019
 21
463.551484
  0
LINE
  8
APS_GEOMETRY
 10
-155.54358
 11
-153.54358
 20
463.551484
 21
463.551484
  0
LINE
  8
APS_GEOMETRY
 10
-163.444251
 11
-211.11294
 20
550.015403
 21
550.015403
  0
ARC
  8
APS_GEOMETRY
 10
-211.11294
 20
547.015403
 40
3.0
 50
90.0
 51
180.0
  0
LINE
  8
APS_GEOMETRY
 10
-214.11294
 11
-214.11294
 20
547.015403
 21
499.34671
  0
ARC
  8
APS_GEOMETRY
 10
-211.11294
 20
499.34671
 40
3.0
 50
180.0
 51
270.000004
  0
LINE
  8
APS_GEOMETRY
 10
-211.11294
 11
-163.444247
 20
496.34671
 21
496.346713
  0
ARC
  8
APS_GEOMETRY
 10
-163.444248
 20
499.346713
 40
3.0
 50
270.000004
 51
0.000004
  0
LINE
  8
APS_GEOMETRY
 10
-160.444248
 11
-160.444251
 20
499.346714
 21
547.015403
  0
ARC
  8
APS_GEOMETRY
 10
-163.444251
 20
547.015403
 40
3.0
 50
0.000004
 51
90.0
  0
LINE
  8
APS_GEOMETRY
 10
-183.444251
 11
-183.444251
 20
543.015401
 21
545.015401
  0
LINE
  8
APS_GEOMETRY
 10
-191.11294
 11
-191.11294
 20
545.015403
 21
543.015403
  0
LINE
  8
APS_GEOMETRY
 10
-201.11294
 11
-191.11294
 20
545.015403
 21
545.015403
  0
LINE
  8
APS_GEOMETRY
 10
-191.11294
 11
-191.11294
 20
545.015403
 21
543.015403
  0
LINE
  8
APS_GEOMETRY
 10
-191.11294
 11
-201.11294
 20
543.015403
 21
543.015403
  0
LINE
  8
APS_GEOMETRY
 10
-201.11294
 11
-201.11294
 20
543.015403
 21
545.015403
  0
LINE
  8
APS_GEOMETRY
 10
-183.444251
 11
-173.444251
 20
545.015403
 21
545.015403
  0
LINE
  8
APS_GEOMETRY
 10
-173.444251
 11
-173.444251
 20
545.015403
 21
543.015403
  0
LINE
  8
APS_GEOMETRY
 10
-173.444251
 11
-183.444251
 20
543.015403
 21
543.015403
  0
LINE
  8
APS_GEOMETRY
 10
-183.444251
 11
-183.444251
 20
543.015403
 21
545.015403
  0
LINE
  8
APS_GEOMETRY
 10
-209.11294
 11
-209.11294
 20
509.346712
 21
519.346712
  0
LINE
  8
APS_GEOMETRY
 10
-209.11294
 11
-207.11294
 20
519.346712
 21
519.346712
  0
LINE
  8
APS_GEOMETRY
 10
-207.11294
 11
-207.11294
 20
519.346712
 21
509.346712
  0
LINE
  8
APS_GEOMETRY
 10
-207.11294
 11
-209.11294
 20
509.346712
 21
509.346712
  0
LINE
  8
APS_GEOMETRY
 10
-209.11294
 11
-209.11294
 20
527.015402
 21
537.015402
  0
LINE
  8
APS_GEOMETRY
 10
-209.11294
 11
-207.11294
 20
537.015402
 21
537.015402
  0
LINE
  8
APS_GEOMETRY
 10
-207.11294
 11
-207.11294
 20
537.015402
 21
527.015402
  0
LINE
  8
APS_GEOMETRY
 10
-207.11294
 11
-209.11294
 20
527.015402
 21
527.015402
  0
LINE
  8
APS_GEOMETRY
 10
-173.44425
 11
-183.44425
 20
501.346712
 21
501.346712
  0
LINE
  8
APS_GEOMETRY
 10
-183.44425
 11
-183.44425
 20
501.346712
 21
503.346712
  0
LINE
  8
APS_GEOMETRY
 10
-183.44425
 11
-173.44425
 20
503.346712
 21
503.346712
  0
LINE
  8
APS_GEOMETRY
 10
-173.44425
 11
-173.44425
 20
503.346712
 21
501.346712
  0
LINE
  8
APS_GEOMETRY
 10
-191.112939
 11
-201.112939
 20
501.346712
 21
501.346712
  0
LINE
  8
APS_GEOMETRY
 10
-201.112939
 11
-201.112939
 20
501.346712
 21
503.346712
  0
LINE
  8
APS_GEOMETRY
 10
-201.112939
 11
-191.112939
 20
503.346712
 21
503.346712
  0
LINE
  8
APS_GEOMETRY
 10
-191.112939
 11
-191.112939
 20
503.346712
 21
501.346712
  0
LINE
  8
APS_GEOMETRY
 10
-165.44425
 11
-165.44425
 20
537.015403
 21
527.015403
  0
LINE
  8
APS_GEOMETRY
 10
-165.44425
 11
-167.44425
 20
527.015403
 21
527.015403
  0
LINE
  8
APS_GEOMETRY
 10
-167.44425
 11
-167.44425
 20
527.015403
 21
537.015403
  0
LINE
  8
APS_GEOMETRY
 10
-167.44425
 11
-165.44425
 20
537.015403
 21
537.015403
  0
LINE
  8
APS_GEOMETRY
 10
-165.44425
 11
-165.44425
 20
519.346713
 21
509.346713
  0
LINE
  8
APS_GEOMETRY
 10
-165.44425
 11
-167.44425
 20
509.346713
 21
509.346713
  0
LINE
  8
APS_GEOMETRY
 10
-167.44425
 11
-167.44425
 20
509.346713
 21
519.346713
  0
LINE
  8
APS_GEOMETRY
 10
-167.44425
 11
-165.44425
 20
519.346713
 21
519.346713
  0
LINE
  8
APS_GEOMETRY
 10
-98.904269
 11
-98.904269
 20
453.422752
 21
443.294019
  0
LINE
  8
APS_GEOMETRY
 10
-98.904269
 11
-104.404269
 20
443.294019
 21
443.294019
  0
LINE
  8
APS_GEOMETRY
 10
-104.404269
 11
-104.404269
 20
443.294019
 21
463.551484
  0
LINE
  8
APS_GEOMETRY
 10
-104.404269
 11
-90.069924
 20
463.551484
 21
463.551484
  0
LINE
  8
APS_GEOMETRY
 10
-90.069924
 11
-90.069924
 20
463.551484
 21
467.551484
  0
LINE
  8
APS_GEOMETRY
 10
-90.069924
 11
-80.069924
 20
467.551484
 21
467.551484
  0
LINE
  8
APS_GEOMETRY
 10
-80.069924
 11
-80.069924
 20
467.551484
 21
463.551484
  0
LINE
  8
APS_GEOMETRY
 10
-80.069924
 11
-65.735579
 20
463.551484
 21
463.551484
  0
LINE
  8
APS_GEOMETRY
 10
-65.735579
 11
-65.735579
 20
463.551484
 21
443.294019
  0
LINE
  8
APS_GEOMETRY
 10
-65.735579
 11
-71.235577
 20
443.294019
 21
443.294019
  0
LINE
  8
APS_GEOMETRY
 10
-71.235577
 11
-71.235578
 20
443.294019
 21
453.422752
  0
LINE
  8
APS_GEOMETRY
 10
-71.235578
 11
-73.235578
 20
453.422752
 21
453.422752
  0
LINE
  8
APS_GEOMETRY
 10
-73.235578
 11
-73.235577
 20
453.422752
 21
443.294019
  0
LINE
  8
APS_GEOMETRY
 10
-73.235577
 11
-96.904269
 20
443.294019
 21
443.294019
  0
LINE
  8
APS_GEOMETRY
 10
-96.904269
 11
-96.904269
 20
443.294019
 21
453.422752
  0
LINE
  8
APS_GEOMETRY
 10
-96.904269
 11
-98.904269
 20
453.422752
 21
453.422752
  0
LINE
  8
APS_GEOMETRY
 10
-54.904269
 11
-54.904269
 20
463.551484
 21
453.422752
  0
LINE
  8
APS_GEOMETRY
 10
-54.904269
 11
-52.904269
 20
453.422752
 21
453.422752
  0
LINE
  8
APS_GEOMETRY
 10
-52.904269
 11
-52.904269
 20
453.422752
 21
463.551484
  0
LINE
  8
APS_GEOMETRY
 10
-52.904269
 11
-46.069924
 20
463.551484
 21
463.551484
  0
LINE
  8
APS_GEOMETRY
 10
-46.069924
 11
-46.069924
 20
463.551484
 21
467.551484
  0
LINE
  8
APS_GEOMETRY
 10
-46.069924
 11
-36.069924
 20
467.551484
 21
467.551484
  0
LINE
  8
APS_GEOMETRY
 10
-36.069924
 11
-36.069924
 20
467.551484
 21
463.551484
  0
LINE
  8
APS_GEOMETRY
 10
-36.069924
 11
-29.235579
 20
463.551484
 21
463.551484
  0
LINE
  8
APS_GEOMETRY
 10
-29.235579
 11
-29.235578
 20
463.551484
 21
453.422752
  0
LINE
  8
APS_GEOMETRY
 10
-29.235578
 11
-27.235578
 20
453.422752
 21
453.422752
  0
LINE
  8
APS_GEOMETRY
 10
-27.235578
 11
-27.235579
 20
453.422752
 21
463.551484
  0
LINE
  8
APS_GEOMETRY
 10
-27.235579
 11
-21.735579
 20
463.551484
 21
463.551484
  0
LINE
  8
APS_GEOMETRY
 10
-21.735579
 11
-21.735579
 20
463.551484
 21
443.294019
  0
LINE
  8
APS_GEOMETRY
 10
-21.735579
 11
-60.404269
 20
443.294019
 21
443.294019
  0
LINE
  8
APS_GEOMETRY
 10
-60.404269
 11
-60.404269
 20
443.294019
 21
463.551484
  0
LINE
  8
APS_GEOMETRY
 10
-60.404269
 11
-54.904269
 20
463.551484
 21
463.551484
  0
LINE
  8
APS_GEOMETRY
 10
-210.11294
 11
-210.11294
 20
481.422752
 21
471.294019
  0
LINE
  8
APS_GEOMETRY
 10
-210.11294
 11
-212.11294
 20
471.294019
 21
471.294019
  0
LINE
  8
APS_GEOMETRY
 10
-212.11294
 11
-212.11294
 20
471.294019
 21
491.551484
  0
LINE
  8
APS_GEOMETRY
 10
-212.11294
 11
-207.11294
 20
491.551484
 21
491.551484
  0
ARC
  8
APS_GEOMETRY
 10
-207.11294
 20
490.551484
 40
1.0
 50
0.0
 51
90.0
  0
LINE
  8
APS_GEOMETRY
 10
-206.11294
 11
-206.11294
 20
490.551484
 21
481.422752
  0
LINE
  8
APS_GEOMETRY
 10
-206.11294
 11
-204.11294
 20
481.422752
 21
481.422752
  0
LINE
  8
APS_GEOMETRY
 10
-204.11294
 11
-204.11294
 20
481.422752
 21
490.551484
  0
ARC
  8
APS_GEOMETRY
 10
-203.11294
 20
490.551484
 40
1.0
 50
90.0
 51
180.0
  0
LINE
  8
APS_GEOMETRY
 10
-203.11294
 11
-173.444251
 20
491.551484
 21
491.551484
  0
ARC
  8
APS_GEOMETRY
 10
-173.444251
 20
490.551484
 40
1.0
 50
0.000004
 51
90.0
  0
LINE
  8
APS_GEOMETRY
 10
-172.444251
 11
-172.44425
 20
490.551484
 21
481.422752
  0
LINE
  8
APS_GEOMETRY
 10
-172.44425
 11
-170.44425
 20
481.422752
 21
481.422752
  0
LINE
  8
APS_GEOMETRY
 10
-170.44425
 11
-170.444251
 20
481.422752
 21
490.551484
  0
ARC
  8
APS_GEOMETRY
 10
-169.444251
 20
490.551484
 40
1.0
 50
90.0
 51
180.000004
  0
LINE
  8
APS_GEOMETRY
 10
-169.444251
 11
-164.444251
 20
491.551484
 21
491.551484
  0
LINE
  8
APS_GEOMETRY
 10
-164.444251
 11
-164.444251
 20
491.551484
 21
471.294019
  0
LINE
  8
APS_GEOMETRY
 10
-164.444251
 11
-166.444249
 20
471.294019
 21
471.294019
  0
LINE
  8
APS_GEOMETRY
 10
-166.444249
 11
-166.44425
 20
471.294019
 21
481.422752
  0
LINE
  8
APS_GEOMETRY
 10
-166.44425
 11
-168.44425
 20
481.422752
 21
481.422752
  0
LINE
  8
APS_GEOMETRY
 10
-168.44425
 11
-168.444249
 20
481.422752
 21
471.294019
  0
LINE
  8
APS_GEOMETRY
 10
-168.444249
 11
-174.444251
 20
471.294019
 21
471.294019
  0
LINE
  8
APS_GEOMETRY
 10
-174.444251
 11
-174.444251
 20
471.294019
 21
469.294019
  0
LINE
  8
APS_GEOMETRY
 10
-174.444251
 11
-184.444251
 20
469.294019
 21
469.294019
  0
LINE
  8
APS_GEOMETRY
 10
-184.444251
 11
-184.444251
 20
469.294019
 21
471.294019
  0
LINE
  8
APS_GEOMETRY
 10
-184.444251
 11
-192.11294
 20
471.294019
 21
471.294019
  0
LINE
  8
APS_GEOMETRY
 10
-192.11294
 11
-192.11294
 20
471.294019
 21
469.294019
  0
LINE
  8
APS_GEOMETRY
 10
-192.11294
 11
-202.11294
 20
469.294019
 21
469.294019
  0
LINE
  8
APS_GEOMETRY
 10
-202.11294
 11
-202.11294
 20
469.294019
 21
471.294019
  0
LINE
  8
APS_GEOMETRY
 10
-202.11294
 11
-208.11294
 20
471.294019
 21
471.294019
  0
LINE
  8
APS_GEOMETRY
 10
-208.11294
 11
-208.11294
 20
471.294019
 21
481.422752
  0
LINE
  8
APS_GEOMETRY
 10
-208.11294
 11
-210.11294
 20
481.422752
 21
481.422752
  0
LINE
  8
APS_GEOMETRY
 10
-153.54358
 11
-153.54358
 20
491.551484
 21
481.422752
  0
LINE
  8
APS_GEOMETRY
 10
-153.54358
 11
-151.54358
 20
481.422752
 21
481.422752
  0
LINE
  8
APS_GEOMETRY
 10
-151.54358
 11
-151.54358
 20
481.422752
 21
491.551484
  0
LINE
  8
APS_GEOMETRY
 10
-151.54358
 11
-150.54358
 20
491.551484
 21
491.551484
  0
LINE
  8
APS_GEOMETRY
 10
-146.54358
 11
-116.87489
 20
491.551484
 21
491.551484
  0
LINE
  8
APS_GEOMETRY
 10
-112.87489
 11
-111.87489
 20
491.551484
 21
491.551484
  0
LINE
  8
APS_GEOMETRY
 10
-111.87489
 11
-111.87489
 20
491.551484
 21
481.422752
  0
LINE
  8
APS_GEOMETRY
 10
-111.87489
 11
-109.87489
 20
481.422752
 21
481.422752
  0
LINE
  8
APS_GEOMETRY
 10
-109.87489
 11
-109.87489
 20
481.422752
 21
491.551484
  0
LINE
  8
APS_GEOMETRY
 10
-109.87489
 11
-107.87489
 20
491.551484
 21
491.551484
  0
LINE
  8
APS_GEOMETRY
 10
-107.87489
 11
-107.87489
 20
491.551484
 21
471.294019
  0
LINE
  8
APS_GEOMETRY
 10
-107.87489
 11
-117.87489
 20
471.294019
 21
471.294019
  0
LINE
  8
APS_GEOMETRY
 10
-117.87489
 11
-117.87489
 20
471.294019
 21
469.294019
  0
LINE
  8
APS_GEOMETRY
 10
-117.87489
 11
-127.874891
 20
469.294019
 21
469.294019
  0
LINE
  8
APS_GEOMETRY
 10
-127.874891
 11
-127.874891
 20
469.294019
 21
471.294019
  0
LINE
  8
APS_GEOMETRY
 10
-127.874891
 11
-135.54358
 20
471.294019
 21
471.294019
  0
LINE
  8
APS_GEOMETRY
 10
-135.54358
 11
-135.54358
 20
471.294019
 21
469.294019
  0
LINE
  8
APS_GEOMETRY
 10
-135.54358
 11
-145.54358
 20
469.294019
 21
469.294019
  0
LINE
  8
APS_GEOMETRY
 10
-145.54358
 11
-145.54358
 20
469.294019
 21
471.294019
  0
LINE
  8
APS_GEOMETRY
 10
-145.54358
 11
-155.54358
 20
471.294019
 21
471.294019
  0
LINE
  8
APS_GEOMETRY
 10
-155.54358
 11
-155.54358
 20
471.294019
 21
491.551484
  0
LINE
  8
APS_GEOMETRY
 10
-155.54358
 11
-153.54358
 20
491.551484
 21
491.551484
  0
LINE
  8
APS_GEOMETRY
 10
-98.904269
 11
-98.904269
 20
481.422752
 21
471.294019
  0
LINE
  8
APS_GEOMETRY
 10
-98.904269
 11
-104.404269
 20
471.294019
 21
471.294019
  0
LINE
  8
APS_GEOMETRY
 10
-104.404269
 11
-104.404269
 20
471.294019
 21
491.551484
  0
LINE
  8
APS_GEOMETRY
 10
-104.404269
 11
-90.069924
 20
491.551484
 21
491.551484
  0
LINE
  8
APS_GEOMETRY
 10
-90.069924
 11
-90.069924
 20
491.551484
 21
495.551484
  0
LINE
  8
APS_GEOMETRY
 10
-90.069924
 11
-80.069924
 20
495.551484
 21
495.551484
  0
LINE
  8
APS_GEOMETRY
 10
-80.069924
 11
-80.069924
 20
495.551484
 21
491.551484
  0
LINE
  8
APS_GEOMETRY
 10
-80.069924
 11
-65.735579
 20
491.551484
 21
491.551484
  0
LINE
  8
APS_GEOMETRY
 10
-65.735579
 11
-65.735579
 20
491.551484
 21
471.294019
  0
LINE
  8
APS_GEOMETRY
 10
-65.735579
 11
-71.235577
 20
471.294019
 21
471.294019
  0
LINE
  8
APS_GEOMETRY
 10
-71.235577
 11
-71.235578
 20
471.294019
 21
481.422752
  0
LINE
  8
APS_GEOMETRY
 10
-71.235578
 11
-73.235578
 20
481.422752
 21
481.422752
  0
LINE
  8
APS_GEOMETRY
 10
-73.235578
 11
-73.235577
 20
481.422752
 21
471.294019
  0
LINE
  8
APS_GEOMETRY
 10
-73.235577
 11
-96.904269
 20
471.294019
 21
471.294019
  0
LINE
  8
APS_GEOMETRY
 10
-96.904269
 11
-96.904269
 20
471.294019
 21
481.422752
  0
LINE
  8
APS_GEOMETRY
 10
-96.904269
 11
-98.904269
 20
481.422752
 21
481.422752
  0
LINE
  8
APS_GEOMETRY
 10
-46.069924
 11
-46.069924
 20
495.551484
 21
491.551484
  0
LINE
  8
APS_GEOMETRY
 10
-46.069924
 11
-52.904269
 20
491.551484
 21
491.551484
  0
LINE
  8
APS_GEOMETRY
 10
-52.904269
 11
-52.904269
 20
491.551484
 21
481.422752
  0
LINE
  8
APS_GEOMETRY
 10
-52.904269
 11
-54.904269
 20
481.422752
 21
481.422752
  0
LINE
  8
APS_GEOMETRY
 10
-54.904269
 11
-54.904269
 20
481.422752
 21
491.551484
  0
LINE
  8
APS_GEOMETRY
 10
-54.904269
 11
-60.404269
 20
491.551484
 21
491.551484
  0
LINE
  8
APS_GEOMETRY
 10
-60.404269
 11
-60.404269
 20
491.551484
 21
471.294019
  0
LINE
  8
APS_GEOMETRY
 10
-60.404269
 11
-21.735579
 20
471.294019
 21
471.294019
  0
LINE
  8
APS_GEOMETRY
 10
-21.735579
 11
-21.735579
 20
471.294019
 21
491.551484
  0
LINE
  8
APS_GEOMETRY
 10
-21.735579
 11
-27.235579
 20
491.551484
 21
491.551484
  0
LINE
  8
APS_GEOMETRY
 10
-27.235579
 11
-27.235578
 20
491.551484
 21
481.422752
  0
LINE
  8
APS_GEOMETRY
 10
-27.235578
 11
-29.235578
 20
481.422752
 21
481.422752
  0
LINE
  8
APS_GEOMETRY
 10
-29.235578
 11
-29.235579
 20
481.422752
 21
491.551484
  0
LINE
  8
APS_GEOMETRY
 10
-29.235579
 11
-36.069924
 20
491.551484
 21
491.551484
  0
LINE
  8
APS_GEOMETRY
 10
-36.069924
 11
-36.069924
 20
491.551484
 21
495.551484
  0
LINE
  8
APS_GEOMETRY
 10
-36.069924
 11
-46.069924
 20
495.551484
 21
495.551484
  0
CIRCLE
  8
APS_GEOMETRY
 10
-92.332739
 20
528.725475
 40
3.05
  0
CIRCLE
  8
APS_GEOMETRY
 10
-78.090099
 20
528.725475
 40
3.05
  0
CIRCLE
  8
APS_GEOMETRY
 10
-78.090099
 20
514.482834
 40
3.05
  0
CIRCLE
  8
APS_GEOMETRY
 10
-85.211419
 20
521.604155
 40
3.05
  0
CIRCLE
  8
APS_GEOMETRY
 10
-92.332739
 20
514.482834
 40
3.05
  0
LINE
  8
APS_GEOMETRY
 10
-65.877072
 11
-65.877072
 20
507.769811
 21
509.769811
  0
LINE
  8
APS_GEOMETRY
 10
-65.877074
 11
-65.877074
 20
533.4385
 21
535.4385
  0
LINE
  8
APS_GEOMETRY
 10
-99.045764
 11
-97.045764
 20
540.9385
 21
540.9385
  0
LINE
  8
APS_GEOMETRY
 10
-73.377074
 11
-71.377074
 20
540.9385
 21
540.9385
  0
LINE
  8
APS_GEOMETRY
 10
-104.545764
 11
-104.545764
 20
535.4385
 21
533.4385
  0
LINE
  8
APS_GEOMETRY
 10
-104.545764
 11
-104.545764
 20
509.769808
 21
507.769808
  0
LINE
  8
APS_GEOMETRY
 10
-71.377072
 11
-73.377072
 20
502.26981
 21
502.26981
  0
LINE
  8
APS_GEOMETRY
 10
-97.045764
 11
-99.045764
 20
502.269809
 21
502.269809
  0
LINE
  8
APS_GEOMETRY
 10
-101.545764
 11
-97.045764
 20
540.9385
 21
540.9385
  0
LINE
  8
APS_GEOMETRY
 10
-73.377074
 11
-68.877072
 20
540.9385
 21
540.9385
  0
ARC
  8
APS_GEOMETRY
 10
-68.877072
 20
537.9385
 40
3.0
 50
0.0
 51
90.0
  0
LINE
  8
APS_GEOMETRY
 10
-65.877072
 11
-65.877072
 20
537.9385
 21
533.4385
  0
LINE
  8
APS_GEOMETRY
 10
-65.877072
 11
-65.877072
 20
509.769808
 21
505.269811
  0
ARC
  8
APS_GEOMETRY
 10
-68.877072
 20
505.269811
 40
3.0
 50
270.0
 51
0.0
  0
LINE
  8
APS_GEOMETRY
 10
-68.877072
 11
-73.377073
 20
502.269811
 21
502.269811
  0
LINE
  8
APS_GEOMETRY
 10
-97.045764
 11
-101.545764
 20
502.269811
 21
502.269811
  0
ARC
  8
APS_GEOMETRY
 10
-101.545764
 20
505.269811
 40
3.0
 50
180.0
 51
270.0
  0
LINE
  8
APS_GEOMETRY
 10
-104.545764
 11
-104.545764
 20
505.269811
 21
509.769808
  0
LINE
  8
APS_GEOMETRY
 10
-104.545764
 11
-104.545764
 20
533.438502
 21
537.9385
  0
ARC
  8
APS_GEOMETRY
 10
-101.545764
 20
537.9385
 40
3.0
 50
90.0
 51
180.0
  0
LINE
  8
APS_GEOMETRY
 10
-90.211419
 11
-80.211419
 20
535.4385
 21
535.4385
  0
LINE
  8
APS_GEOMETRY
 10
-80.211419
 11
-80.211419
 20
535.4385
 21
533.4385
  0
LINE
  8
APS_GEOMETRY
 10
-80.211419
 11
-90.211419
 20
533.4385
 21
533.4385
  0
LINE
  8
APS_GEOMETRY
 10
-90.211419
 11
-90.211419
 20
533.4385
 21
535.4385
  0
LINE
  8
APS_GEOMETRY
 10
-99.045764
 11
-99.045764
 20
516.604155
 21
526.604155
  0
LINE
  8
APS_GEOMETRY
 10
-99.045764
 11
-97.045764
 20
526.604155
 21
526.604155
  0
LINE
  8
APS_GEOMETRY
 10
-97.045764
 11
-97.045764
 20
526.604155
 21
516.604155
  0
LINE
  8
APS_GEOMETRY
 10
-97.045764
 11
-99.045764
 20
516.604155
 21
516.604155
  0
LINE
  8
APS_GEOMETRY
 10
-80.211418
 11
-90.211419
 20
507.76981
 21
507.76981
  0
LINE
  8
APS_GEOMETRY
 10
-90.211419
 11
-90.211419
 20
507.76981
 21
509.76981
  0
LINE
  8
APS_GEOMETRY
 10
-90.211419
 11
-80.211418
 20
509.76981
 21
509.76981
  0
LINE
  8
APS_GEOMETRY
 10
-80.211418
 11
-80.211418
 20
509.76981
 21
507.76981
  0
LINE
  8
APS_GEOMETRY
 10
-71.377074
 11
-71.377074
 20
526.604155
 21
516.604155
  0
LINE
  8
APS_GEOMETRY
 10
-71.377074
 11
-73.377073
 20
516.604155
 21
516.604155
  0
LINE
  8
APS_GEOMETRY
 10
-73.377073
 11
-73.377073
 20
516.604155
 21
526.604155
  0
LINE
  8
APS_GEOMETRY
 10
-73.377073
 11
-71.377074
 20
526.604155
 21
526.604155
  0
CIRCLE
  8
APS_GEOMETRY
 10
-47.09047
 20
528.725475
 40
3.05
  0
CIRCLE
  8
APS_GEOMETRY
 10
-32.84783
 20
528.725475
 40
3.05
  0
CIRCLE
  8
APS_GEOMETRY
 10
-32.84783
 20
514.482834
 40
3.05
  0
CIRCLE
  8
APS_GEOMETRY
 10
-39.96915
 20
521.604155
 40
3.05
  0
CIRCLE
  8
APS_GEOMETRY
 10
-47.09047
 20
514.482834
 40
3.05
  0
LINE
  8
APS_GEOMETRY
 10
-20.634803
 11
-20.634803
 20
509.769808
 21
505.269811
  0
ARC
  8
APS_GEOMETRY
 10
-23.634803
 20
505.269811
 40
3.0
 50
270.0
 51
0.0
  0
LINE
  8
APS_GEOMETRY
 10
-23.634803
 11
-28.134804
 20
502.269811
 21
502.269811
  0
ARC
  8
APS_GEOMETRY
 10
-39.96915
 20
487.620801
 40
18.149009
 50
66.541816
 51
113.458184
  0
LINE
  8
APS_GEOMETRY
 10
-51.803497
 11
-56.303495
 20
502.26981
 21
502.269811
  0
ARC
  8
APS_GEOMETRY
 10
-56.303495
 20
505.269811
 40
3.0
 50
180.0
 51
270.0
  0
LINE
  8
APS_GEOMETRY
 10
-59.303495
 11
-59.303495
 20
505.269811
 21
509.76981
  0
ARC
  8
APS_GEOMETRY
 10
-73.952504
 20
521.604155
 40
18.149009
 50
336.541816
 51
23.458184
  0
LINE
  8
APS_GEOMETRY
 10
-59.303495
 11
-59.303495
 20
533.438502
 21
537.9385
  0
ARC
  8
APS_GEOMETRY
 10
-56.303495
 20
537.9385
 40
3.0
 50
90.0
 51
180.0
  0
LINE
  8
APS_GEOMETRY
 10
-56.303495
 11
-51.803495
 20
540.9385
 21
540.9385
  0
ARC
  8
APS_GEOMETRY
 10
-39.96915
 20
555.587509
 40
18.149009
 50
246.541816
 51
293.458184
  0
LINE
  8
APS_GEOMETRY
 10
-28.134803
 11
-23.634803
 20
540.9385
 21
540.9385
  0
ARC
  8
APS_GEOMETRY
 10
-23.634803
 20
537.9385
 40
3.0
 50
0.0
 51
90.0
  0
LINE
  8
APS_GEOMETRY
 10
-20.634803
 11
-20.634803
 20
537.9385
 21
533.4385
  0
ARC
  8
APS_GEOMETRY
 10
-5.985795
 20
521.604154
 40
18.149009
 50
156.541824
 51
203.458176
  0
LINE
  8
APS_GEOMETRY
 10
-20.634805
 11
-20.634805
 20
533.4385
 21
535.4385
  0
LINE
  8
APS_GEOMETRY
 10
-53.803495
 11
-51.803495
 20
540.9385
 21
540.9385
  0
LINE
  8
APS_GEOMETRY
 10
-28.134805
 11
-26.134805
 20
540.9385
 21
540.9385
  0
LINE
  8
APS_GEOMETRY
 10
-59.303495
 11
-59.303495
 20
535.4385
 21
533.4385
  0
LINE
  8
APS_GEOMETRY
 10
-59.303495
 11
-59.303495
 20
509.769808
 21
507.769808
  0
LINE
  8
APS_GEOMETRY
 10
-26.134803
 11
-28.134803
 20
502.26981
 21
502.26981
  0
LINE
  8
APS_GEOMETRY
 10
-51.803495
 11
-53.803495
 20
502.269809
 21
502.269809
  0
LINE
  8
APS_GEOMETRY
 10
-44.96915
 11
-34.96915
 20
535.4385
 21
535.4385
  0
LINE
  8
APS_GEOMETRY
 10
-34.96915
 11
-34.96915
 20
535.4385
 21
533.4385
  0
LINE
  8
APS_GEOMETRY
 10
-34.96915
 11
-44.96915
 20
533.4385
 21
533.4385
  0
LINE
  8
APS_GEOMETRY
 10
-44.96915
 11
-44.96915
 20
533.4385
 21
535.4385
  0
LINE
  8
APS_GEOMETRY
 10
-53.803495
 11
-53.803495
 20
516.604155
 21
526.604155
  0
LINE
  8
APS_GEOMETRY
 10
-53.803495
 11
-51.803495
 20
526.604155
 21
526.604155
  0
LINE
  8
APS_GEOMETRY
 10
-51.803495
 11
-51.803495
 20
526.604155
 21
516.604155
  0
LINE
  8
APS_GEOMETRY
 10
-51.803495
 11
-53.803495
 20
516.604155
 21
516.604155
  0
LINE
  8
APS_GEOMETRY
 10
-34.969149
 11
-44.96915
 20
507.76981
 21
507.76981
  0
LINE
  8
APS_GEOMETRY
 10
-44.96915
 11
-44.96915
 20
507.76981
 21
509.76981
  0
LINE
  8
APS_GEOMETRY
 10
-44.96915
 11
-34.969149
 20
509.76981
 21
509.76981
  0
LINE
  8
APS_GEOMETRY
 10
-34.969149
 11
-34.969149
 20
509.76981
 21
507.76981
  0
LINE
  8
APS_GEOMETRY
 10
-26.134805
 11
-26.134805
 20
526.604155
 21
516.604155
  0
LINE
  8
APS_GEOMETRY
 10
-26.134805
 11
-28.134804
 20
516.604155
 21
516.604155
  0
LINE
  8
APS_GEOMETRY
 10
-28.134804
 11
-28.134804
 20
516.604155
 21
526.604155
  0
LINE
  8
APS_GEOMETRY
 10
-28.134804
 11
-26.134805
 20
526.604155
 21
526.604155
  0
LINE
  8
APS_GEOMETRY
 10
79.788581
 11
79.788581
 20
419.036783
 21
417.036783
  0
LINE
  8
APS_GEOMETRY
 10
79.788581
 11
69.788581
 20
417.036783
 21
417.036783
  0
LINE
  8
APS_GEOMETRY
 10
69.788581
 11
69.788581
 20
417.036783
 21
419.036783
  0
LINE
  8
APS_GEOMETRY
 10
69.788581
 11
65.081323
 20
419.036783
 21
419.036783
  0
ARC
  8
APS_GEOMETRY
 10
63.954236
 20
416.036783
 40
3.0
 50
90.0
 51
180.0
  0
LINE
  8
APS_GEOMETRY
 10
60.954236
 11
60.954236
 20
416.036783
 21
410.202437
  0
LINE
  8
APS_GEOMETRY
 10
60.954236
 11
62.954236
 20
410.202437
 21
410.202437
  0
LINE
  8
APS_GEOMETRY
 10
62.954236
 11
62.954236
 20
410.202437
 21
400.202437
  0
LINE
  8
APS_GEOMETRY
 10
62.954236
 11
60.954236
 20
400.202437
 21
400.202437
  0
LINE
  8
APS_GEOMETRY
 10
60.954236
 11
60.954236
 20
400.202437
 21
394.368092
  0
ARC
  8
APS_GEOMETRY
 10
63.954236
 20
394.368092
 40
3.0
 50
180.0
 51
270.0
  0
LINE
  8
APS_GEOMETRY
 10
63.954236
 11
69.788581
 20
391.368092
 21
391.368092
  0
LINE
  8
APS_GEOMETRY
 10
69.788581
 11
69.788581
 20
391.368092
 21
393.368092
  0
LINE
  8
APS_GEOMETRY
 10
69.788581
 11
79.788582
 20
393.368092
 21
393.368092
  0
LINE
  8
APS_GEOMETRY
 10
79.788582
 11
79.788582
 20
393.368092
 21
391.368092
  0
LINE
  8
APS_GEOMETRY
 10
79.788582
 11
85.622926
 20
391.368092
 21
391.368092
  0
ARC
  8
APS_GEOMETRY
 10
85.622926
 20
394.368092
 40
3.0
 50
270.0
 51
0.0
  0
LINE
  8
APS_GEOMETRY
 10
88.622926
 11
88.622926
 20
394.368092
 21
400.202438
  0
LINE
  8
APS_GEOMETRY
 10
88.622926
 11
86.622927
 20
400.202438
 21
400.202438
  0
LINE
  8
APS_GEOMETRY
 10
86.622927
 11
86.622927
 20
400.202438
 21
410.202438
  0
LINE
  8
APS_GEOMETRY
 10
86.622927
 11
88.622926
 20
410.202438
 21
410.202438
  0
LINE
  8
APS_GEOMETRY
 10
88.622926
 11
88.622926
 20
410.202438
 21
416.036783
  0
ARC
  8
APS_GEOMETRY
 10
85.622926
 20
416.036783
 40
3.0
 50
0.0
 51
90.0
  0
LINE
  8
APS_GEOMETRY
 10
85.622926
 11
79.788581
 20
419.036783
 21
419.036783
  0
CIRCLE
  8
APS_GEOMETRY
 10
67.667261
 20
412.323758
 40
1.0
  0
CIRCLE
  8
APS_GEOMETRY
 10
81.909901
 20
412.323758
 40
1.0
  0
CIRCLE
  8
APS_GEOMETRY
 10
81.909901
 20
398.081117
 40
1.0
  0
CIRCLE
  8
APS_GEOMETRY
 10
74.788581
 20
405.202438
 40
1.0
  0
CIRCLE
  8
APS_GEOMETRY
 10
67.667261
 20
398.081117
 40
1.0
  0
LINE
  8
APS_GEOMETRY
 10
17.0
 11
314.0
 20
383.0
 21
383.0
  0
LINE
  8
APS_GEOMETRY
 10
314.0
 11
314.0
 20
383.0
 21
593.0
  0
LINE
  8
APS_GEOMETRY
 10
314.0
 11
17.0
 20
593.0
 21
593.0
  0
LINE
  8
APS_GEOMETRY
 10
17.0
 11
17.0
 20
593.0
 21
383.0
  0
LINE
  8
APS_GEOMETRY
 10
108.788581
 11
108.788581
 20
419.036783
 21
417.036783
  0
LINE
  8
APS_GEOMETRY
 10
108.788581
 11
98.788581
 20
417.036783
 21
417.036783
  0
LINE
  8
APS_GEOMETRY
 10
98.788581
 11
98.788581
 20
417.036783
 21
419.036783
  0
LINE
  8
APS_GEOMETRY
 10
98.788581
 11
94.081323
 20
419.036783
 21
419.036783
  0
ARC
  8
APS_GEOMETRY
 10
92.954236
 20
416.036783
 40
3.0
 50
90.0
 51
180.0
  0
LINE
  8
APS_GEOMETRY
 10
89.954236
 11
89.954236
 20
416.036783
 21
410.202437
  0
LINE
  8
APS_GEOMETRY
 10
89.954236
 11
91.954236
 20
410.202437
 21
410.202437
  0
LINE
  8
APS_GEOMETRY
 10
91.954236
 11
91.954236
 20
410.202437
 21
400.202437
  0
LINE
  8
APS_GEOMETRY
 10
91.954236
 11
89.954236
 20
400.202437
 21
400.202437
  0
LINE
  8
APS_GEOMETRY
 10
89.954236
 11
89.954236
 20
400.202437
 21
394.368092
  0
ARC
  8
APS_GEOMETRY
 10
92.954236
 20
394.368092
 40
3.0
 50
180.0
 51
270.0
  0
LINE
  8
APS_GEOMETRY
 10
92.954236
 11
98.788581
 20
391.368092
 21
391.368092
  0
LINE
  8
APS_GEOMETRY
 10
98.788581
 11
98.788581
 20
391.368092
 21
393.368092
  0
LINE
  8
APS_GEOMETRY
 10
98.788581
 11
108.788582
 20
393.368092
 21
393.368092
  0
LINE
  8
APS_GEOMETRY
 10
108.788582
 11
108.788582
 20
393.368092
 21
391.368092
  0
LINE
  8
APS_GEOMETRY
 10
108.788582
 11
114.622926
 20
391.368092
 21
391.368092
  0
ARC
  8
APS_GEOMETRY
 10
114.622926
 20
394.368092
 40
3.0
 50
270.0
 51
0.0
  0
LINE
  8
APS_GEOMETRY
 10
117.622926
 11
117.622926
 20
394.368092
 21
400.202438
  0
LINE
  8
APS_GEOMETRY
 10
117.622926
 11
115.622927
 20
400.202438
 21
400.202438
  0
LINE
  8
APS_GEOMETRY
 10
115.622927
 11
115.622927
 20
400.202438
 21
410.202438
  0
LINE
  8
APS_GEOMETRY
 10
115.622927
 11
117.622926
 20
410.202438
 21
410.202438
  0
LINE
  8
APS_GEOMETRY
 10
117.622926
 11
117.622926
 20
410.202438
 21
416.036783
  0
ARC
  8
APS_GEOMETRY
 10
114.622926
 20
416.036783
 40
3.0
 50
0.0
 51
90.0
  0
LINE
  8
APS_GEOMETRY
 10
114.622926
 11
108.788581
 20
419.036783
 21
419.036783
  0
CIRCLE
  8
APS_GEOMETRY
 10
96.667261
 20
412.323758
 40
1.0
  0
CIRCLE
  8
APS_GEOMETRY
 10
110.909901
 20
412.323758
 40
1.0
  0
CIRCLE
  8
APS_GEOMETRY
 10
110.909901
 20
398.081117
 40
1.0
  0
CIRCLE
  8
APS_GEOMETRY
 10
103.788581
 20
405.202438
 40
1.0
  0
CIRCLE
  8
APS_GEOMETRY
 10
96.667261
 20
398.081117
 40
1.0
  0
LINE
  8
APS_GEOMETRY
 10
137.788581
 11
137.788581
 20
419.036783
 21
417.036783
  0
LINE
  8
APS_GEOMETRY
 10
137.788581
 11
127.788581
 20
417.036783
 21
417.036783
  0
LINE
  8
APS_GEOMETRY
 10
127.788581
 11
127.788581
 20
417.036783
 21
419.036783
  0
LINE
  8
APS_GEOMETRY
 10
127.788581
 11
123.081323
 20
419.036783
 21
419.036783
  0
ARC
  8
APS_GEOMETRY
 10
121.954236
 20
416.036783
 40
3.0
 50
90.0
 51
180.0
  0
LINE
  8
APS_GEOMETRY
 10
118.954236
 11
118.954236
 20
416.036783
 21
410.202437
  0
LINE
  8
APS_GEOMETRY
 10
118.954236
 11
120.954236
 20
410.202437
 21
410.202437
  0
LINE
  8
APS_GEOMETRY
 10
120.954236
 11
120.954236
 20
410.202437
 21
400.202437
  0
LINE
  8
APS_GEOMETRY
 10
120.954236
 11
118.954236
 20
400.202437
 21
400.202437
  0
LINE
  8
APS_GEOMETRY
 10
118.954236
 11
118.954236
 20
400.202437
 21
394.368092
  0
ARC
  8
APS_GEOMETRY
 10
121.954236
 20
394.368092
 40
3.0
 50
180.0
 51
270.0
  0
LINE
  8
APS_GEOMETRY
 10
121.954236
 11
127.788581
 20
391.368092
 21
391.368092
  0
LINE
  8
APS_GEOMETRY
 10
127.788581
 11
127.788581
 20
391.368092
 21
393.368092
  0
LINE
  8
APS_GEOMETRY
 10
127.788581
 11
137.788582
 20
393.368092
 21
393.368092
  0
LINE
  8
APS_GEOMETRY
 10
137.788582
 11
137.788582
 20
393.368092
 21
391.368092
  0
LINE
  8
APS_GEOMETRY
 10
137.788582
 11
143.622926
 20
391.368092
 21
391.368092
  0
ARC
  8
APS_GEOMETRY
 10
143.622926
 20
394.368092
 40
3.0
 50
270.0
 51
0.0
  0
LINE
  8
APS_GEOMETRY
 10
146.622926
 11
146.622926
 20
394.368092
 21
400.202438
  0
LINE
  8
APS_GEOMETRY
 10
146.622926
 11
144.622927
 20
400.202438
 21
400.202438
  0
LINE
  8
APS_GEOMETRY
 10
144.622927
 11
144.622927
 20
400.202438
 21
410.202438
  0
LINE
  8
APS_GEOMETRY
 10
144.622927
 11
146.622926
 20
410.202438
 21
410.202438
  0
LINE
  8
APS_GEOMETRY
 10
146.622926
 11
146.622926
 20
410.202438
 21
416.036783
  0
ARC
  8
APS_GEOMETRY
 10
143.622926
 20
416.036783
 40
3.0
 50
0.0
 51
90.0
  0
LINE
  8
APS_GEOMETRY
 10
143.622926
 11
137.788581
 20
419.036783
 21
419.036783
  0
CIRCLE
  8
APS_GEOMETRY
 10
125.667261
 20
412.323758
 40
1.0
  0
CIRCLE
  8
APS_GEOMETRY
 10
139.909901
 20
412.323758
 40
1.0
  0
CIRCLE
  8
APS_GEOMETRY
 10
139.909901
 20
398.081117
 40
1.0
  0
CIRCLE
  8
APS_GEOMETRY
 10
132.788581
 20
405.202438
 40
1.0
  0
CIRCLE
  8
APS_GEOMETRY
 10
125.667261
 20
398.081117
 40
1.0
  0
LINE
  8
APS_GEOMETRY
 10
166.788581
 11
166.788581
 20
419.036783
 21
417.036783
  0
LINE
  8
APS_GEOMETRY
 10
166.788581
 11
156.788581
 20
417.036783
 21
417.036783
  0
LINE
  8
APS_GEOMETRY
 10
156.788581
 11
156.788581
 20
417.036783
 21
419.036783
  0
LINE
  8
APS_GEOMETRY
 10
156.788581
 11
152.081323
 20
419.036783
 21
419.036783
  0
ARC
  8
APS_GEOMETRY
 10
150.954236
 20
416.036783
 40
3.0
 50
90.0
 51
180.0
  0
LINE
  8
APS_GEOMETRY
 10
147.954236
 11
147.954236
 20
416.036783
 21
410.202437
  0
LINE
  8
APS_GEOMETRY
 10
147.954236
 11
149.954236
 20
410.202437
 21
410.202437
  0
LINE
  8
APS_GEOMETRY
 10
149.954236
 11
149.954236
 20
410.202437
 21
400.202437
  0
LINE
  8
APS_GEOMETRY
 10
149.954236
 11
147.954236
 20
400.202437
 21
400.202437
  0
LINE
  8
APS_GEOMETRY
 10
147.954236
 11
147.954236
 20
400.202437
 21
394.368092
  0
ARC
  8
APS_GEOMETRY
 10
150.954236
 20
394.368092
 40
3.0
 50
180.0
 51
270.0
  0
LINE
  8
APS_GEOMETRY
 10
150.954236
 11
156.788581
 20
391.368092
 21
391.368092
  0
LINE
  8
APS_GEOMETRY
 10
156.788581
 11
156.788581
 20
391.368092
 21
393.368092
  0
LINE
  8
APS_GEOMETRY
 10
156.788581
 11
166.788582
 20
393.368092
 21
393.368092
  0
LINE
  8
APS_GEOMETRY
 10
166.788582
 11
166.788582
 20
393.368092
 21
391.368092
  0
LINE
  8
APS_GEOMETRY
 10
166.788582
 11
172.622926
 20
391.368092
 21
391.368092
  0
ARC
  8
APS_GEOMETRY
 10
172.622926
 20
394.368092
 40
3.0
 50
270.0
 51
0.0
  0
LINE
  8
APS_GEOMETRY
 10
175.622926
 11
175.622926
 20
394.368092
 21
400.202438
  0
LINE
  8
APS_GEOMETRY
 10
175.622926
 11
173.622927
 20
400.202438
 21
400.202438
  0
LINE
  8
APS_GEOMETRY
 10
173.622927
 11
173.622927
 20
400.202438
 21
410.202438
  0
LINE
  8
APS_GEOMETRY
 10
173.622927
 11
175.622926
 20
410.202438
 21
410.202438
  0
LINE
  8
APS_GEOMETRY
 10
175.622926
 11
175.622926
 20
410.202438
 21
416.036783
  0
ARC
  8
APS_GEOMETRY
 10
172.622926
 20
416.036783
 40
3.0
 50
0.0
 51
90.0
  0
LINE
  8
APS_GEOMETRY
 10
172.622926
 11
166.788581
 20
419.036783
 21
419.036783
  0
CIRCLE
  8
APS_GEOMETRY
 10
154.667261
 20
412.323758
 40
1.0
  0
CIRCLE
  8
APS_GEOMETRY
 10
168.909901
 20
412.323758
 40
1.0
  0
CIRCLE
  8
APS_GEOMETRY
 10
168.909901
 20
398.081117
 40
1.0
  0
CIRCLE
  8
APS_GEOMETRY
 10
161.788581
 20
405.202438
 40
1.0
  0
CIRCLE
  8
APS_GEOMETRY
 10
154.667261
 20
398.081117
 40
1.0
  0
LINE
  8
APS_GEOMETRY
 10
195.788581
 11
195.788581
 20
419.036783
 21
417.036783
  0
LINE
  8
APS_GEOMETRY
 10
195.788581
 11
185.788581
 20
417.036783
 21
417.036783
  0
LINE
  8
APS_GEOMETRY
 10
185.788581
 11
185.788581
 20
417.036783
 21
419.036783
  0
LINE
  8
APS_GEOMETRY
 10
185.788581
 11
181.081323
 20
419.036783
 21
419.036783
  0
ARC
  8
APS_GEOMETRY
 10
179.954236
 20
416.036783
 40
3.0
 50
90.0
 51
180.0
  0
LINE
  8
APS_GEOMETRY
 10
176.954236
 11
176.954236
 20
416.036783
 21
410.202437
  0
LINE
  8
APS_GEOMETRY
 10
176.954236
 11
178.954236
 20
410.202437
 21
410.202437
  0
LINE
  8
APS_GEOMETRY
 10
178.954236
 11
178.954236
 20
410.202437
 21
400.202437
  0
LINE
  8
APS_GEOMETRY
 10
178.954236
 11
176.954236
 20
400.202437
 21
400.202437
  0
LINE
  8
APS_GEOMETRY
 10
176.954236
 11
176.954236
 20
400.202437
 21
394.368092
  0
ARC
  8
APS_GEOMETRY
 10
179.954236
 20
394.368092
 40
3.0
 50
180.0
 51
270.0
  0
LINE
  8
APS_GEOMETRY
 10
179.954236
 11
185.788581
 20
391.368092
 21
391.368092
  0
LINE
  8
APS_GEOMETRY
 10
185.788581
 11
185.788581
 20
391.368092
 21
393.368092
  0
LINE
  8
APS_GEOMETRY
 10
185.788581
 11
195.788582
 20
393.368092
 21
393.368092
  0
LINE
  8
APS_GEOMETRY
 10
195.788582
 11
195.788582
 20
393.368092
 21
391.368092
  0
LINE
  8
APS_GEOMETRY
 10
195.788582
 11
201.622926
 20
391.368092
 21
391.368092
  0
ARC
  8
APS_GEOMETRY
 10
201.622926
 20
394.368092
 40
3.0
 50
270.0
 51
0.0
  0
LINE
  8
APS_GEOMETRY
 10
204.622926
 11
204.622926
 20
394.368092
 21
400.202438
  0
LINE
  8
APS_GEOMETRY
 10
204.622926
 11
202.622927
 20
400.202438
 21
400.202438
  0
LINE
  8
APS_GEOMETRY
 10
202.622927
 11
202.622927
 20
400.202438
 21
410.202438
  0
LINE
  8
APS_GEOMETRY
 10
202.622927
 11
204.622926
 20
410.202438
 21
410.202438
  0
LINE
  8
APS_GEOMETRY
 10
204.622926
 11
204.622926
 20
410.202438
 21
416.036783
  0
ARC
  8
APS_GEOMETRY
 10
201.622926
 20
416.036783
 40
3.0
 50
0.0
 51
90.0
  0
LINE
  8
APS_GEOMETRY
 10
201.622926
 11
195.788581
 20
419.036783
 21
419.036783
  0
CIRCLE
  8
APS_GEOMETRY
 10
183.667261
 20
412.323758
 40
1.0
  0
CIRCLE
  8
APS_GEOMETRY
 10
197.909901
 20
412.323758
 40
1.0
  0
CIRCLE
  8
APS_GEOMETRY
 10
197.909901
 20
398.081117
 40
1.0
  0
CIRCLE
  8
APS_GEOMETRY
 10
190.788581
 20
405.202438
 40
1.0
  0
CIRCLE
  8
APS_GEOMETRY
 10
183.667261
 20
398.081117
 40
1.0
  0
LINE
  8
APS_GEOMETRY
 10
224.788581
 11
224.788581
 20
419.036783
 21
417.036783
  0
LINE
  8
APS_GEOMETRY
 10
224.788581
 11
214.788581
 20
417.036783
 21
417.036783
  0
LINE
  8
APS_GEOMETRY
 10
214.788581
 11
214.788581
 20
417.036783
 21
419.036783
  0
LINE
  8
APS_GEOMETRY
 10
214.788581
 11
210.081323
 20
419.036783
 21
419.036783
  0
ARC
  8
APS_GEOMETRY
 10
208.954236
 20
416.036783
 40
3.0
 50
90.0
 51
180.0
  0
LINE
  8
APS_GEOMETRY
 10
205.954236
 11
205.954236
 20
416.036783
 21
410.202437
  0
LINE
  8
APS_GEOMETRY
 10
205.954236
 11
207.954236
 20
410.202437
 21
410.202437
  0
LINE
  8
APS_GEOMETRY
 10
207.954236
 11
207.954236
 20
410.202437
 21
400.202437
  0
LINE
  8
APS_GEOMETRY
 10
207.954236
 11
205.954236
 20
400.202437
 21
400.202437
  0
LINE
  8
APS_GEOMETRY
 10
205.954236
 11
205.954236
 20
400.202437
 21
394.368092
  0
ARC
  8
APS_GEOMETRY
 10
208.954236
 20
394.368092
 40
3.0
 50
180.0
 51
270.0
  0
LINE
  8
APS_GEOMETRY
 10
208.954236
 11
214.788581
 20
391.368092
 21
391.368092
  0
LINE
  8
APS_GEOMETRY
 10
214.788581
 11
214.788581
 20
391.368092
 21
393.368092
  0
LINE
  8
APS_GEOMETRY
 10
214.788581
 11
224.788582
 20
393.368092
 21
393.368092
  0
LINE
  8
APS_GEOMETRY
 10
224.788582
 11
224.788582
 20
393.368092
 21
391.368092
  0
LINE
  8
APS_GEOMETRY
 10
224.788582
 11
230.622926
 20
391.368092
 21
391.368092
  0
ARC
  8
APS_GEOMETRY
 10
230.622926
 20
394.368092
 40
3.0
 50
270.0
 51
0.0
  0
LINE
  8
APS_GEOMETRY
 10
233.622926
 11
233.622926
 20
394.368092
 21
400.202438
  0
LINE
  8
APS_GEOMETRY
 10
233.622926
 11
231.622927
 20
400.202438
 21
400.202438
  0
LINE
  8
APS_GEOMETRY
 10
231.622927
 11
231.622927
 20
400.202438
 21
410.202438
  0
LINE
  8
APS_GEOMETRY
 10
231.622927
 11
233.622926
 20
410.202438
 21
410.202438
  0
LINE
  8
APS_GEOMETRY
 10
233.622926
 11
233.622926
 20
410.202438
 21
416.036783
  0
ARC
  8
APS_GEOMETRY
 10
230.622926
 20
416.036783
 40
3.0
 50
0.0
 51
90.0
  0
LINE
  8
APS_GEOMETRY
 10
230.622926
 11
224.788581
 20
419.036783
 21
419.036783
  0
CIRCLE
  8
APS_GEOMETRY
 10
212.667261
 20
412.323758
 40
1.0
  0
CIRCLE
  8
APS_GEOMETRY
 10
226.909901
 20
412.323758
 40
1.0
  0
CIRCLE
  8
APS_GEOMETRY
 10
226.909901
 20
398.081117
 40
1.0
  0
CIRCLE
  8
APS_GEOMETRY
 10
219.788581
 20
405.202438
 40
1.0
  0
CIRCLE
  8
APS_GEOMETRY
 10
212.667261
 20
398.081117
 40
1.0
  0
LINE
  8
APS_GEOMETRY
 10
253.788581
 11
253.788581
 20
419.036783
 21
417.036783
  0
LINE
  8
APS_GEOMETRY
 10
253.788581
 11
243.788581
 20
417.036783
 21
417.036783
  0
LINE
  8
APS_GEOMETRY
 10
243.788581
 11
243.788581
 20
417.036783
 21
419.036783
  0
LINE
  8
APS_GEOMETRY
 10
243.788581
 11
239.081323
 20
419.036783
 21
419.036783
  0
ARC
  8
APS_GEOMETRY
 10
237.954236
 20
416.036783
 40
3.0
 50
90.0
 51
180.0
  0
LINE
  8
APS_GEOMETRY
 10
234.954236
 11
234.954236
 20
416.036783
 21
410.202437
  0
LINE
  8
APS_GEOMETRY
 10
234.954236
 11
236.954236
 20
410.202437
 21
410.202437
  0
LINE
  8
APS_GEOMETRY
 10
236.954236
 11
236.954236
 20
410.202437
 21
400.202437
  0
LINE
  8
APS_GEOMETRY
 10
236.954236
 11
234.954236
 20
400.202437
 21
400.202437
  0
LINE
  8
APS_GEOMETRY
 10
234.954236
 11
234.954236
 20
400.202437
 21
394.368092
  0
ARC
  8
APS_GEOMETRY
 10
237.954236
 20
394.368092
 40
3.0
 50
180.0
 51
270.0
  0
LINE
  8
APS_GEOMETRY
 10
237.954236
 11
243.788581
 20
391.368092
 21
391.368092
  0
LINE
  8
APS_GEOMETRY
 10
243.788581
 11
243.788581
 20
391.368092
 21
393.368092
  0
LINE
  8
APS_GEOMETRY
 10
243.788581
 11
253.788582
 20
393.368092
 21
393.368092
  0
LINE
  8
APS_GEOMETRY
 10
253.788582
 11
253.788582
 20
393.368092
 21
391.368092
  0
LINE
  8
APS_GEOMETRY
 10
253.788582
 11
259.622926
 20
391.368092
 21
391.368092
  0
ARC
  8
APS_GEOMETRY
 10
259.622926
 20
394.368092
 40
3.0
 50
270.0
 51
0.0
  0
LINE
  8
APS_GEOMETRY
 10
262.622926
 11
262.622926
 20
394.368092
 21
400.202438
  0
LINE
  8
APS_GEOMETRY
 10
262.622926
 11
260.622927
 20
400.202438
 21
400.202438
  0
LINE
  8
APS_GEOMETRY
 10
260.622927
 11
260.622927
 20
400.202438
 21
410.202438
  0
LINE
  8
APS_GEOMETRY
 10
260.622927
 11
262.622926
 20
410.202438
 21
410.202438
  0
LINE
  8
APS_GEOMETRY
 10
262.622926
 11
262.622926
 20
410.202438
 21
416.036783
  0
ARC
  8
APS_GEOMETRY
 10
259.622926
 20
416.036783
 40
3.0
 50
0.0
 51
90.0
  0
LINE
  8
APS_GEOMETRY
 10
259.622926
 11
253.788581
 20
419.036783
 21
419.036783
  0
CIRCLE
  8
APS_GEOMETRY
 10
241.667261
 20
412.323758
 40
1.0
  0
CIRCLE
  8
APS_GEOMETRY
 10
255.909901
 20
412.323758
 40
1.0
  0
CIRCLE
  8
APS_GEOMETRY
 10
255.909901
 20
398.081117
 40
1.0
  0
CIRCLE
  8
APS_GEOMETRY
 10
248.788581
 20
405.202438
 40
1.0
  0
CIRCLE
  8
APS_GEOMETRY
 10
241.667261
 20
398.081117
 40
1.0
  0
LINE
  8
APS_GEOMETRY
 10
282.788581
 11
282.788581
 20
419.036783
 21
417.036783
  0
LINE
  8
APS_GEOMETRY
 10
282.788581
 11
272.788581
 20
417.036783
 21
417.036783
  0
LINE
  8
APS_GEOMETRY
 10
272.788581
 11
272.788581
 20
417.036783
 21
419.036783
  0
LINE
  8
APS_GEOMETRY
 10
272.788581
 11
268.081323
 20
419.036783
 21
419.036783
  0
ARC
  8
APS_GEOMETRY
 10
266.954236
 20
416.036783
 40
3.0
 50
90.0
 51
180.0
  0
LINE
  8
APS_GEOMETRY
 10
263.954236
 11
263.954236
 20
416.036783
 21
410.202437
  0
LINE
  8
APS_GEOMETRY
 10
263.954236
 11
265.954236
 20
410.202437
 21
410.202437
  0
LINE
  8
APS_GEOMETRY
 10
265.954236
 11
265.954236
 20
410.202437
 21
400.202437
  0
LINE
  8
APS_GEOMETRY
 10
265.954236
 11
263.954236
 20
400.202437
 21
400.202437
  0
LINE
  8
APS_GEOMETRY
 10
263.954236
 11
263.954236
 20
400.202437
 21
394.368092
  0
ARC
  8
APS_GEOMETRY
 10
266.954236
 20
394.368092
 40
3.0
 50
180.0
 51
270.0
  0
LINE
  8
APS_GEOMETRY
 10
266.954236
 11
272.788581
 20
391.368092
 21
391.368092
  0
LINE
  8
APS_GEOMETRY
 10
272.788581
 11
272.788581
 20
391.368092
 21
393.368092
  0
LINE
  8
APS_GEOMETRY
 10
272.788581
 11
282.788582
 20
393.368092
 21
393.368092
  0
LINE
  8
APS_GEOMETRY
 10
282.788582
 11
282.788582
 20
393.368092
 21
391.368092
  0
LINE
  8
APS_GEOMETRY
 10
282.788582
 11
288.622926
 20
391.368092
 21
391.368092
  0
ARC
  8
APS_GEOMETRY
 10
288.622926
 20
394.368092
 40
3.0
 50
270.0
 51
0.0
  0
LINE
  8
APS_GEOMETRY
 10
291.622926
 11
291.622926
 20
394.368092
 21
400.202438
  0
LINE
  8
APS_GEOMETRY
 10
291.622926
 11
289.622927
 20
400.202438
 21
400.202438
  0
LINE
  8
APS_GEOMETRY
 10
289.622927
 11
289.622927
 20
400.202438
 21
410.202438
  0
LINE
  8
APS_GEOMETRY
 10
289.622927
 11
291.622926
 20
410.202438
 21
410.202438
  0
LINE
  8
APS_GEOMETRY
 10
291.622926
 11
291.622926
 20
410.202438
 21
416.036783
  0
ARC
  8
APS_GEOMETRY
 10
288.622926
 20
416.036783
 40
3.0
 50
0.0
 51
90.0
  0
LINE
  8
APS_GEOMETRY
 10
288.622926
 11
282.788581
 20
419.036783
 21
419.036783
  0
CIRCLE
  8
APS_GEOMETRY
 10
270.667261
 20
412.323758
 40
1.0
  0
CIRCLE
  8
APS_GEOMETRY
 10
284.909901
 20
412.323758
 40
1.0
  0
CIRCLE
  8
APS_GEOMETRY
 10
284.909901
 20
398.081117
 40
1.0
  0
CIRCLE
  8
APS_GEOMETRY
 10
277.788581
 20
405.202438
 40
1.0
  0
CIRCLE
  8
APS_GEOMETRY
 10
270.667261
 20
398.081117
 40
1.0
  0
LINE
  8
APS_GEOMETRY
 10
50.788581
 11
50.788581
 20
452.036783
 21
450.036783
  0
LINE
  8
APS_GEOMETRY
 10
50.788581
 11
40.788581
 20
450.036783
 21
450.036783
  0
LINE
  8
APS_GEOMETRY
 10
40.788581
 11
40.788581
 20
450.036783
 21
452.036783
  0
LINE
  8
APS_GEOMETRY
 10
40.788581
 11
36.081323
 20
452.036783
 21
452.036783
  0
ARC
  8
APS_GEOMETRY
 10
34.954236
 20
449.036783
 40
3.0
 50
90.0
 51
180.0
  0
LINE
  8
APS_GEOMETRY
 10
31.954236
 11
31.954236
 20
449.036783
 21
443.202437
  0
LINE
  8
APS_GEOMETRY
 10
31.954236
 11
33.954236
 20
443.202437
 21
443.202437
  0
LINE
  8
APS_GEOMETRY
 10
33.954236
 11
33.954236
 20
443.202437
 21
433.202437
  0
LINE
  8
APS_GEOMETRY
 10
33.954236
 11
31.954236
 20
433.202437
 21
433.202437
  0
LINE
  8
APS_GEOMETRY
 10
31.954236
 11
31.954236
 20
433.202437
 21
427.368092
  0
ARC
  8
APS_GEOMETRY
 10
34.954236
 20
427.368092
 40
3.0
 50
180.0
 51
270.0
  0
LINE
  8
APS_GEOMETRY
 10
34.954236
 11
40.788581
 20
424.368092
 21
424.368092
  0
LINE
  8
APS_GEOMETRY
 10
40.788581
 11
40.788581
 20
424.368092
 21
426.368092
  0
LINE
  8
APS_GEOMETRY
 10
40.788581
 11
50.788582
 20
426.368092
 21
426.368092
  0
LINE
  8
APS_GEOMETRY
 10
50.788582
 11
50.788582
 20
426.368092
 21
424.368092
  0
LINE
  8
APS_GEOMETRY
 10
50.788582
 11
56.622926
 20
424.368092
 21
424.368092
  0
ARC
  8
APS_GEOMETRY
 10
56.622926
 20
427.368092
 40
3.0
 50
270.0
 51
0.0
  0
LINE
  8
APS_GEOMETRY
 10
59.622926
 11
59.622926
 20
427.368092
 21
433.202438
  0
LINE
  8
APS_GEOMETRY
 10
59.622926
 11
57.622927
 20
433.202438
 21
433.202438
  0
LINE
  8
APS_GEOMETRY
 10
57.622927
 11
57.622927
 20
433.202438
 21
443.202438
  0
LINE
  8
APS_GEOMETRY
 10
57.622927
 11
59.622926
 20
443.202438
 21
443.202438
  0
LINE
  8
APS_GEOMETRY
 10
59.622926
 11
59.622926
 20
443.202438
 21
449.036783
  0
ARC
  8
APS_GEOMETRY
 10
56.622926
 20
449.036783
 40
3.0
 50
0.0
 51
90.0
  0
LINE
  8
APS_GEOMETRY
 10
56.622926
 11
50.788581
 20
452.036783
 21
452.036783
  0
CIRCLE
  8
APS_GEOMETRY
 10
38.667261
 20
445.323758
 40
1.0
  0
CIRCLE
  8
APS_GEOMETRY
 10
52.909901
 20
445.323758
 40
1.0
  0
CIRCLE
  8
APS_GEOMETRY
 10
52.909901
 20
431.081117
 40
1.0
  0
CIRCLE
  8
APS_GEOMETRY
 10
45.788581
 20
438.202438
 40
1.0
  0
CIRCLE
  8
APS_GEOMETRY
 10
38.667261
 20
431.081117
 40
1.0
  0
LINE
  8
APS_GEOMETRY
 10
79.788581
 11
79.788581
 20
452.036783
 21
450.036783
  0
LINE
  8
APS_GEOMETRY
 10
79.788581
 11
69.788581
 20
450.036783
 21
450.036783
  0
LINE
  8
APS_GEOMETRY
 10
69.788581
 11
69.788581
 20
450.036783
 21
452.036783
  0
LINE
  8
APS_GEOMETRY
 10
69.788581
 11
65.081323
 20
452.036783
 21
452.036783
  0
ARC
  8
APS_GEOMETRY
 10
63.954236
 20
449.036783
 40
3.0
 50
90.0
 51
180.0
  0
LINE
  8
APS_GEOMETRY
 10
60.954236
 11
60.954236
 20
449.036783
 21
443.202437
  0
LINE
  8
APS_GEOMETRY
 10
60.954236
 11
62.954236
 20
443.202437
 21
443.202437
  0
LINE
  8
APS_GEOMETRY
 10
62.954236
 11
62.954236
 20
443.202437
 21
433.202437
  0
LINE
  8
APS_GEOMETRY
 10
62.954236
 11
60.954236
 20
433.202437
 21
433.202437
  0
LINE
  8
APS_GEOMETRY
 10
60.954236
 11
60.954236
 20
433.202437
 21
427.368092
  0
ARC
  8
APS_GEOMETRY
 10
63.954236
 20
427.368092
 40
3.0
 50
180.0
 51
270.0
  0
LINE
  8
APS_GEOMETRY
 10
63.954236
 11
69.788581
 20
424.368092
 21
424.368092
  0
LINE
  8
APS_GEOMETRY
 10
69.788581
 11
69.788581
 20
424.368092
 21
426.368092
  0
LINE
  8
APS_GEOMETRY
 10
69.788581
 11
79.788582
 20
426.368092
 21
426.368092
  0
LINE
  8
APS_GEOMETRY
 10
79.788582
 11
79.788582
 20
426.368092
 21
424.368092
  0
LINE
  8
APS_GEOMETRY
 10
79.788582
 11
85.622926
 20
424.368092
 21
424.368092
  0
ARC
  8
APS_GEOMETRY
 10
85.622926
 20
427.368092
 40
3.0
 50
270.0
 51
0.0
  0
LINE
  8
APS_GEOMETRY
 10
88.622926
 11
88.622926
 20
427.368092
 21
433.202438
  0
LINE
  8
APS_GEOMETRY
 10
88.622926
 11
86.622927
 20
433.202438
 21
433.202438
  0
LINE
  8
APS_GEOMETRY
 10
86.622927
 11
86.622927
 20
433.202438
 21
443.202438
  0
LINE
  8
APS_GEOMETRY
 10
86.622927
 11
88.622926
 20
443.202438
 21
443.202438
  0
LINE
  8
APS_GEOMETRY
 10
88.622926
 11
88.622926
 20
443.202438
 21
449.036783
  0
ARC
  8
APS_GEOMETRY
 10
85.622926
 20
449.036783
 40
3.0
 50
0.0
 51
90.0
  0
LINE
  8
APS_GEOMETRY
 10
85.622926
 11
79.788581
 20
452.036783
 21
452.036783
  0
CIRCLE
  8
APS_GEOMETRY
 10
67.667261
 20
445.323758
 40
1.0
  0
CIRCLE
  8
APS_GEOMETRY
 10
81.909901
 20
445.323758
 40
1.0
  0
CIRCLE
  8
APS_GEOMETRY
 10
81.909901
 20
431.081117
 40
1.0
  0
CIRCLE
  8
APS_GEOMETRY
 10
74.788581
 20
438.202438
 40
1.0
  0
CIRCLE
  8
APS_GEOMETRY
 10
67.667261
 20
431.081117
 40
1.0
  0
LINE
  8
APS_GEOMETRY
 10
108.788581
 11
108.788581
 20
452.036783
 21
450.036783
  0
LINE
  8
APS_GEOMETRY
 10
108.788581
 11
98.788581
 20
450.036783
 21
450.036783
  0
LINE
  8
APS_GEOMETRY
 10
98.788581
 11
98.788581
 20
450.036783
 21
452.036783
  0
LINE
  8
APS_GEOMETRY
 10
98.788581
 11
94.081323
 20
452.036783
 21
452.036783
  0
ARC
  8
APS_GEOMETRY
 10
92.954236
 20
449.036783
 40
3.0
 50
90.0
 51
180.0
  0
LINE
  8
APS_GEOMETRY
 10
89.954236
 11
89.954236
 20
449.036783
 21
443.202437
  0
LINE
  8
APS_GEOMETRY
 10
89.954236
 11
91.954236
 20
443.202437
 21
443.202437
  0
LINE
  8
APS_GEOMETRY
 10
91.954236
 11
91.954236
 20
443.202437
 21
433.202437
  0
LINE
  8
APS_GEOMETRY
 10
91.954236
 11
89.954236
 20
433.202437
 21
433.202437
  0
LINE
  8
APS_GEOMETRY
 10
89.954236
 11
89.954236
 20
433.202437
 21
427.368092
  0
ARC
  8
APS_GEOMETRY
 10
92.954236
 20
427.368092
 40
3.0
 50
180.0
 51
270.0
  0
LINE
  8
APS_GEOMETRY
 10
92.954236
 11
98.788581
 20
424.368092
 21
424.368092
  0
LINE
  8
APS_GEOMETRY
 10
98.788581
 11
98.788581
 20
424.368092
 21
426.368092
  0
LINE
  8
APS_GEOMETRY
 10
98.788581
 11
108.788582
 20
426.368092
 21
426.368092
  0
LINE
  8
APS_GEOMETRY
 10
108.788582
 11
108.788582
 20
426.368092
 21
424.368092
  0
LINE
  8
APS_GEOMETRY
 10
108.788582
 11
114.622926
 20
424.368092
 21
424.368092
  0
ARC
  8
APS_GEOMETRY
 10
114.622926
 20
427.368092
 40
3.0
 50
270.0
 51
0.0
  0
LINE
  8
APS_GEOMETRY
 10
117.622926
 11
117.622926
 20
427.368092
 21
433.202438
  0
LINE
  8
APS_GEOMETRY
 10
117.622926
 11
115.622927
 20
433.202438
 21
433.202438
  0
LINE
  8
APS_GEOMETRY
 10
115.622927
 11
115.622927
 20
433.202438
 21
443.202438
  0
LINE
  8
APS_GEOMETRY
 10
115.622927
 11
117.622926
 20
443.202438
 21
443.202438
  0
LINE
  8
APS_GEOMETRY
 10
117.622926
 11
117.622926
 20
443.202438
 21
449.036783
  0
ARC
  8
APS_GEOMETRY
 10
114.622926
 20
449.036783
 40
3.0
 50
0.0
 51
90.0
  0
LINE
  8
APS_GEOMETRY
 10
114.622926
 11
108.788581
 20
452.036783
 21
452.036783
  0
CIRCLE
  8
APS_GEOMETRY
 10
96.667261
 20
445.323758
 40
1.0
  0
CIRCLE
  8
APS_GEOMETRY
 10
110.909901
 20
445.323758
 40
1.0
  0
CIRCLE
  8
APS_GEOMETRY
 10
110.909901
 20
431.081117
 40
1.0
  0
CIRCLE
  8
APS_GEOMETRY
 10
103.788581
 20
438.202438
 40
1.0
  0
CIRCLE
  8
APS_GEOMETRY
 10
96.667261
 20
431.081117
 40
1.0
  0
LINE
  8
APS_GEOMETRY
 10
137.788581
 11
137.788581
 20
452.036783
 21
450.036783
  0
LINE
  8
APS_GEOMETRY
 10
137.788581
 11
127.788581
 20
450.036783
 21
450.036783
  0
LINE
  8
APS_GEOMETRY
 10
127.788581
 11
127.788581
 20
450.036783
 21
452.036783
  0
LINE
  8
APS_GEOMETRY
 10
127.788581
 11
123.081323
 20
452.036783
 21
452.036783
  0
ARC
  8
APS_GEOMETRY
 10
121.954236
 20
449.036783
 40
3.0
 50
90.0
 51
180.0
  0
LINE
  8
APS_GEOMETRY
 10
118.954236
 11
118.954236
 20
449.036783
 21
443.202437
  0
LINE
  8
APS_GEOMETRY
 10
118.954236
 11
120.954236
 20
443.202437
 21
443.202437
  0
LINE
  8
APS_GEOMETRY
 10
120.954236
 11
120.954236
 20
443.202437
 21
433.202437
  0
LINE
  8
APS_GEOMETRY
 10
120.954236
 11
118.954236
 20
433.202437
 21
433.202437
  0
LINE
  8
APS_GEOMETRY
 10
118.954236
 11
118.954236
 20
433.202437
 21
427.368092
  0
ARC
  8
APS_GEOMETRY
 10
121.954236
 20
427.368092
 40
3.0
 50
180.0
 51
270.0
  0
LINE
  8
APS_GEOMETRY
 10
121.954236
 11
127.788581
 20
424.368092
 21
424.368092
  0
LINE
  8
APS_GEOMETRY
 10
127.788581
 11
127.788581
 20
424.368092
 21
426.368092
  0
LINE
  8
APS_GEOMETRY
 10
127.788581
 11
137.788582
 20
426.368092
 21
426.368092
  0
LINE
  8
APS_GEOMETRY
 10
137.788582
 11
137.788582
 20
426.368092
 21
424.368092
  0
LINE
  8
APS_GEOMETRY
 10
137.788582
 11
143.622926
 20
424.368092
 21
424.368092
  0
ARC
  8
APS_GEOMETRY
 10
143.622926
 20
427.368092
 40
3.0
 50
270.0
 51
0.0
  0
LINE
  8
APS_GEOMETRY
 10
146.622926
 11
146.622926
 20
427.368092
 21
433.202438
  0
LINE
  8
APS_GEOMETRY
 10
146.622926
 11
144.622927
 20
433.202438
 21
433.202438
  0
LINE
  8
APS_GEOMETRY
 10
144.622927
 11
144.622927
 20
433.202438
 21
443.202438
  0
LINE
  8
APS_GEOMETRY
 10
144.622927
 11
146.622926
 20
443.202438
 21
443.202438
  0
LINE
  8
APS_GEOMETRY
 10
146.622926
 11
146.622926
 20
443.202438
 21
449.036783
  0
ARC
  8
APS_GEOMETRY
 10
143.622926
 20
449.036783
 40
3.0
 50
0.0
 51
90.0
  0
LINE
  8
APS_GEOMETRY
 10
143.622926
 11
137.788581
 20
452.036783
 21
452.036783
  0
CIRCLE
  8
APS_GEOMETRY
 10
125.667261
 20
445.323758
 40
1.0
  0
CIRCLE
  8
APS_GEOMETRY
 10
139.909901
 20
445.323758
 40
1.0
  0
CIRCLE
  8
APS_GEOMETRY
 10
139.909901
 20
431.081117
 40
1.0
  0
CIRCLE
  8
APS_GEOMETRY
 10
132.788581
 20
438.202438
 40
1.0
  0
CIRCLE
  8
APS_GEOMETRY
 10
125.667261
 20
431.081117
 40
1.0
  0
LINE
  8
APS_GEOMETRY
 10
166.788581
 11
166.788581
 20
452.036783
 21
450.036783
  0
LINE
  8
APS_GEOMETRY
 10
166.788581
 11
156.788581
 20
450.036783
 21
450.036783
  0
LINE
  8
APS_GEOMETRY
 10
156.788581
 11
156.788581
 20
450.036783
 21
452.036783
  0
LINE
  8
APS_GEOMETRY
 10
156.788581
 11
152.081323
 20
452.036783
 21
452.036783
  0
ARC
  8
APS_GEOMETRY
 10
150.954236
 20
449.036783
 40
3.0
 50
90.0
 51
180.0
  0
LINE
  8
APS_GEOMETRY
 10
147.954236
 11
147.954236
 20
449.036783
 21
443.202437
  0
LINE
  8
APS_GEOMETRY
 10
147.954236
 11
149.954236
 20
443.202437
 21
443.202437
  0
LINE
  8
APS_GEOMETRY
 10
149.954236
 11
149.954236
 20
443.202437
 21
433.202437
  0
LINE
  8
APS_GEOMETRY
 10
149.954236
 11
147.954236
 20
433.202437
 21
433.202437
  0
LINE
  8
APS_GEOMETRY
 10
147.954236
 11
147.954236
 20
433.202437
 21
427.368092
  0
ARC
  8
APS_GEOMETRY
 10
150.954236
 20
427.368092
 40
3.0
 50
180.0
 51
270.0
  0
LINE
  8
APS_GEOMETRY
 10
150.954236
 11
156.788581
 20
424.368092
 21
424.368092
  0
LINE
  8
APS_GEOMETRY
 10
156.788581
 11
156.788581
 20
424.368092
 21
426.368092
  0
LINE
  8
APS_GEOMETRY
 10
156.788581
 11
166.788582
 20
426.368092
 21
426.368092
  0
LINE
  8
APS_GEOMETRY
 10
166.788582
 11
166.788582
 20
426.368092
 21
424.368092
  0
LINE
  8
APS_GEOMETRY
 10
166.788582
 11
172.622926
 20
424.368092
 21
424.368092
  0
ARC
  8
APS_GEOMETRY
 10
172.622926
 20
427.368092
 40
3.0
 50
270.0
 51
0.0
  0
LINE
  8
APS_GEOMETRY
 10
175.622926
 11
175.622926
 20
427.368092
 21
433.202438
  0
LINE
  8
APS_GEOMETRY
 10
175.622926
 11
173.622927
 20
433.202438
 21
433.202438
  0
LINE
  8
APS_GEOMETRY
 10
173.622927
 11
173.622927
 20
433.202438
 21
443.202438
  0
LINE
  8
APS_GEOMETRY
 10
173.622927
 11
175.622926
 20
443.202438
 21
443.202438
  0
LINE
  8
APS_GEOMETRY
 10
175.622926
 11
175.622926
 20
443.202438
 21
449.036783
  0
ARC
  8
APS_GEOMETRY
 10
172.622926
 20
449.036783
 40
3.0
 50
0.0
 51
90.0
  0
LINE
  8
APS_GEOMETRY
 10
172.622926
 11
166.788581
 20
452.036783
 21
452.036783
  0
CIRCLE
  8
APS_GEOMETRY
 10
154.667261
 20
445.323758
 40
1.0
  0
CIRCLE
  8
APS_GEOMETRY
 10
168.909901
 20
445.323758
 40
1.0
  0
CIRCLE
  8
APS_GEOMETRY
 10
168.909901
 20
431.081117
 40
1.0
  0
CIRCLE
  8
APS_GEOMETRY
 10
161.788581
 20
438.202438
 40
1.0
  0
CIRCLE
  8
APS_GEOMETRY
 10
154.667261
 20
431.081117
 40
1.0
  0
LINE
  8
APS_GEOMETRY
 10
195.788581
 11
195.788581
 20
452.036783
 21
450.036783
  0
LINE
  8
APS_GEOMETRY
 10
195.788581
 11
185.788581
 20
450.036783
 21
450.036783
  0
LINE
  8
APS_GEOMETRY
 10
185.788581
 11
185.788581
 20
450.036783
 21
452.036783
  0
LINE
  8
APS_GEOMETRY
 10
185.788581
 11
181.081323
 20
452.036783
 21
452.036783
  0
ARC
  8
APS_GEOMETRY
 10
179.954236
 20
449.036783
 40
3.0
 50
90.0
 51
180.0
  0
LINE
  8
APS_GEOMETRY
 10
176.954236
 11
176.954236
 20
449.036783
 21
443.202437
  0
LINE
  8
APS_GEOMETRY
 10
176.954236
 11
178.954236
 20
443.202437
 21
443.202437
  0
LINE
  8
APS_GEOMETRY
 10
178.954236
 11
178.954236
 20
443.202437
 21
433.202437
  0
LINE
  8
APS_GEOMETRY
 10
178.954236
 11
176.954236
 20
433.202437
 21
433.202437
  0
LINE
  8
APS_GEOMETRY
 10
176.954236
 11
176.954236
 20
433.202437
 21
427.368092
  0
ARC
  8
APS_GEOMETRY
 10
179.954236
 20
427.368092
 40
3.0
 50
180.0
 51
270.0
  0
LINE
  8
APS_GEOMETRY
 10
179.954236
 11
185.788581
 20
424.368092
 21
424.368092
  0
LINE
  8
APS_GEOMETRY
 10
185.788581
 11
185.788581
 20
424.368092
 21
426.368092
  0
LINE
  8
APS_GEOMETRY
 10
185.788581
 11
195.788582
 20
426.368092
 21
426.368092
  0
LINE
  8
APS_GEOMETRY
 10
195.788582
 11
195.788582
 20
426.368092
 21
424.368092
  0
LINE
  8
APS_GEOMETRY
 10
195.788582
 11
201.622926
 20
424.368092
 21
424.368092
  0
ARC
  8
APS_GEOMETRY
 10
201.622926
 20
427.368092
 40
3.0
 50
270.0
 51
0.0
  0
LINE
  8
APS_GEOMETRY
 10
204.622926
 11
204.622926
 20
427.368092
 21
433.202438
  0
LINE
  8
APS_GEOMETRY
 10
204.622926
 11
202.622927
 20
433.202438
 21
433.202438
  0
LINE
  8
APS_GEOMETRY
 10
202.622927
 11
202.622927
 20
433.202438
 21
443.202438
  0
LINE
  8
APS_GEOMETRY
 10
202.622927
 11
204.622926
 20
443.202438
 21
443.202438
  0
LINE
  8
APS_GEOMETRY
 10
204.622926
 11
204.622926
 20
443.202438
 21
449.036783
  0
ARC
  8
APS_GEOMETRY
 10
201.622926
 20
449.036783
 40
3.0
 50
0.0
 51
90.0
  0
LINE
  8
APS_GEOMETRY
 10
201.622926
 11
195.788581
 20
452.036783
 21
452.036783
  0
CIRCLE
  8
APS_GEOMETRY
 10
183.667261
 20
445.323758
 40
1.0
  0
CIRCLE
  8
APS_GEOMETRY
 10
197.909901
 20
445.323758
 40
1.0
  0
CIRCLE
  8
APS_GEOMETRY
 10
197.909901
 20
431.081117
 40
1.0
  0
CIRCLE
  8
APS_GEOMETRY
 10
190.788581
 20
438.202438
 40
1.0
  0
CIRCLE
  8
APS_GEOMETRY
 10
183.667261
 20
431.081117
 40
1.0
  0
LINE
  8
APS_GEOMETRY
 10
224.788581
 11
224.788581
 20
452.036783
 21
450.036783
  0
LINE
  8
APS_GEOMETRY
 10
224.788581
 11
214.788581
 20
450.036783
 21
450.036783
  0
LINE
  8
APS_GEOMETRY
 10
214.788581
 11
214.788581
 20
450.036783
 21
452.036783
  0
LINE
  8
APS_GEOMETRY
 10
214.788581
 11
210.081323
 20
452.036783
 21
452.036783
  0
ARC
  8
APS_GEOMETRY
 10
208.954236
 20
449.036783
 40
3.0
 50
90.0
 51
180.0
  0
LINE
  8
APS_GEOMETRY
 10
205.954236
 11
205.954236
 20
449.036783
 21
443.202437
  0
LINE
  8
APS_GEOMETRY
 10
205.954236
 11
207.954236
 20
443.202437
 21
443.202437
  0
LINE
  8
APS_GEOMETRY
 10
207.954236
 11
207.954236
 20
443.202437
 21
433.202437
  0
LINE
  8
APS_GEOMETRY
 10
207.954236
 11
205.954236
 20
433.202437
 21
433.202437
  0
LINE
  8
APS_GEOMETRY
 10
205.954236
 11
205.954236
 20
433.202437
 21
427.368092
  0
ARC
  8
APS_GEOMETRY
 10
208.954236
 20
427.368092
 40
3.0
 50
180.0
 51
270.0
  0
LINE
  8
APS_GEOMETRY
 10
208.954236
 11
214.788581
 20
424.368092
 21
424.368092
  0
LINE
  8
APS_GEOMETRY
 10
214.788581
 11
214.788581
 20
424.368092
 21
426.368092
  0
LINE
  8
APS_GEOMETRY
 10
214.788581
 11
224.788582
 20
426.368092
 21
426.368092
  0
LINE
  8
APS_GEOMETRY
 10
224.788582
 11
224.788582
 20
426.368092
 21
424.368092
  0
LINE
  8
APS_GEOMETRY
 10
224.788582
 11
230.622926
 20
424.368092
 21
424.368092
  0
ARC
  8
APS_GEOMETRY
 10
230.622926
 20
427.368092
 40
3.0
 50
270.0
 51
0.0
  0
LINE
  8
APS_GEOMETRY
 10
233.622926
 11
233.622926
 20
427.368092
 21
433.202438
  0
LINE
  8
APS_GEOMETRY
 10
233.622926
 11
231.622927
 20
433.202438
 21
433.202438
  0
LINE
  8
APS_GEOMETRY
 10
231.622927
 11
231.622927
 20
433.202438
 21
443.202438
  0
LINE
  8
APS_GEOMETRY
 10
231.622927
 11
233.622926
 20
443.202438
 21
443.202438
  0
LINE
  8
APS_GEOMETRY
 10
233.622926
 11
233.622926
 20
443.202438
 21
449.036783
  0
ARC
  8
APS_GEOMETRY
 10
230.622926
 20
449.036783
 40
3.0
 50
0.0
 51
90.0
  0
LINE
  8
APS_GEOMETRY
 10
230.622926
 11
224.788581
 20
452.036783
 21
452.036783
  0
CIRCLE
  8
APS_GEOMETRY
 10
212.667261
 20
445.323758
 40
1.0
  0
CIRCLE
  8
APS_GEOMETRY
 10
226.909901
 20
445.323758
 40
1.0
  0
CIRCLE
  8
APS_GEOMETRY
 10
226.909901
 20
431.081117
 40
1.0
  0
CIRCLE
  8
APS_GEOMETRY
 10
219.788581
 20
438.202438
 40
1.0
  0
CIRCLE
  8
APS_GEOMETRY
 10
212.667261
 20
431.081117
 40
1.0
  0
LINE
  8
APS_GEOMETRY
 10
253.788581
 11
253.788581
 20
452.036783
 21
450.036783
  0
LINE
  8
APS_GEOMETRY
 10
253.788581
 11
243.788581
 20
450.036783
 21
450.036783
  0
LINE
  8
APS_GEOMETRY
 10
243.788581
 11
243.788581
 20
450.036783
 21
452.036783
  0
LINE
  8
APS_GEOMETRY
 10
243.788581
 11
239.081323
 20
452.036783
 21
452.036783
  0
ARC
  8
APS_GEOMETRY
 10
237.954236
 20
449.036783
 40
3.0
 50
90.0
 51
180.0
  0
LINE
  8
APS_GEOMETRY
 10
234.954236
 11
234.954236
 20
449.036783
 21
443.202437
  0
LINE
  8
APS_GEOMETRY
 10
234.954236
 11
236.954236
 20
443.202437
 21
443.202437
  0
LINE
  8
APS_GEOMETRY
 10
236.954236
 11
236.954236
 20
443.202437
 21
433.202437
  0
LINE
  8
APS_GEOMETRY
 10
236.954236
 11
234.954236
 20
433.202437
 21
433.202437
  0
LINE
  8
APS_GEOMETRY
 10
234.954236
 11
234.954236
 20
433.202437
 21
427.368092
  0
ARC
  8
APS_GEOMETRY
 10
237.954236
 20
427.368092
 40
3.0
 50
180.0
 51
270.0
  0
LINE
  8
APS_GEOMETRY
 10
237.954236
 11
243.788581
 20
424.368092
 21
424.368092
  0
LINE
  8
APS_GEOMETRY
 10
243.788581
 11
243.788581
 20
424.368092
 21
426.368092
  0
LINE
  8
APS_GEOMETRY
 10
243.788581
 11
253.788582
 20
426.368092
 21
426.368092
  0
LINE
  8
APS_GEOMETRY
 10
253.788582
 11
253.788582
 20
426.368092
 21
424.368092
  0
LINE
  8
APS_GEOMETRY
 10
253.788582
 11
259.622926
 20
424.368092
 21
424.368092
  0
ARC
  8
APS_GEOMETRY
 10
259.622926
 20
427.368092
 40
3.0
 50
270.0
 51
0.0
  0
LINE
  8
APS_GEOMETRY
 10
262.622926
 11
262.622926
 20
427.368092
 21
433.202438
  0
LINE
  8
APS_GEOMETRY
 10
262.622926
 11
260.622927
 20
433.202438
 21
433.202438
  0
LINE
  8
APS_GEOMETRY
 10
260.622927
 11
260.622927
 20
433.202438
 21
443.202438
  0
LINE
  8
APS_GEOMETRY
 10
260.622927
 11
262.622926
 20
443.202438
 21
443.202438
  0
LINE
  8
APS_GEOMETRY
 10
262.622926
 11
262.622926
 20
443.202438
 21
449.036783
  0
ARC
  8
APS_GEOMETRY
 10
259.622926
 20
449.036783
 40
3.0
 50
0.0
 51
90.0
  0
LINE
  8
APS_GEOMETRY
 10
259.622926
 11
253.788581
 20
452.036783
 21
452.036783
  0
CIRCLE
  8
APS_GEOMETRY
 10
241.667261
 20
445.323758
 40
1.0
  0
CIRCLE
  8
APS_GEOMETRY
 10
255.909901
 20
445.323758
 40
1.0
  0
CIRCLE
  8
APS_GEOMETRY
 10
255.909901
 20
431.081117
 40
1.0
  0
CIRCLE
  8
APS_GEOMETRY
 10
248.788581
 20
438.202438
 40
1.0
  0
CIRCLE
  8
APS_GEOMETRY
 10
241.667261
 20
431.081117
 40
1.0
  0
LINE
  8
APS_GEOMETRY
 10
282.788581
 11
282.788581
 20
452.036783
 21
450.036783
  0
LINE
  8
APS_GEOMETRY
 10
282.788581
 11
272.788581
 20
450.036783
 21
450.036783
  0
LINE
  8
APS_GEOMETRY
 10
272.788581
 11
272.788581
 20
450.036783
 21
452.036783
  0
LINE
  8
APS_GEOMETRY
 10
272.788581
 11
268.081323
 20
452.036783
 21
452.036783
  0
ARC
  8
APS_GEOMETRY
 10
266.954236
 20
449.036783
 40
3.0
 50
90.0
 51
180.0
  0
LINE
  8
APS_GEOMETRY
 10
263.954236
 11
263.954236
 20
449.036783
 21
443.202437
  0
LINE
  8
APS_GEOMETRY
 10
263.954236
 11
265.954236
 20
443.202437
 21
443.202437
  0
LINE
  8
APS_GEOMETRY
 10
265.954236
 11
265.954236
 20
443.202437
 21
433.202437
  0
LINE
  8
APS_GEOMETRY
 10
265.954236
 11
263.954236
 20
433.202437
 21
433.202437
  0
LINE
  8
APS_GEOMETRY
 10
263.954236
 11
263.954236
 20
433.202437
 21
427.368092
  0
ARC
  8
APS_GEOMETRY
 10
266.954236
 20
427.368092
 40
3.0
 50
180.0
 51
270.0
  0
LINE
  8
APS_GEOMETRY
 10
266.954236
 11
272.788581
 20
424.368092
 21
424.368092
  0
LINE
  8
APS_GEOMETRY
 10
272.788581
 11
272.788581
 20
424.368092
 21
426.368092
  0
LINE
  8
APS_GEOMETRY
 10
272.788581
 11
282.788582
 20
426.368092
 21
426.368092
  0
LINE
  8
APS_GEOMETRY
 10
282.788582
 11
282.788582
 20
426.368092
 21
424.368092
  0
LINE
  8
APS_GEOMETRY
 10
282.788582
 11
288.622926
 20
424.368092
 21
424.368092
  0
ARC
  8
APS_GEOMETRY
 10
288.622926
 20
427.368092
 40
3.0
 50
270.0
 51
0.0
  0
LINE
  8
APS_GEOMETRY
 10
291.622926
 11
291.622926
 20
427.368092
 21
433.202438
  0
LINE
  8
APS_GEOMETRY
 10
291.622926
 11
289.622927
 20
433.202438
 21
433.202438
  0
LINE
  8
APS_GEOMETRY
 10
289.622927
 11
289.622927
 20
433.202438
 21
443.202438
  0
LINE
  8
APS_GEOMETRY
 10
289.622927
 11
291.622926
 20
443.202438
 21
443.202438
  0
LINE
  8
APS_GEOMETRY
 10
291.622926
 11
291.622926
 20
443.202438
 21
449.036783
  0
ARC
  8
APS_GEOMETRY
 10
288.622926
 20
449.036783
 40
3.0
 50
0.0
 51
90.0
  0
LINE
  8
APS_GEOMETRY
 10
288.622926
 11
282.788581
 20
452.036783
 21
452.036783
  0
CIRCLE
  8
APS_GEOMETRY
 10
270.667261
 20
445.323758
 40
1.0
  0
CIRCLE
  8
APS_GEOMETRY
 10
284.909901
 20
445.323758
 40
1.0
  0
CIRCLE
  8
APS_GEOMETRY
 10
284.909901
 20
431.081117
 40
1.0
  0
CIRCLE
  8
APS_GEOMETRY
 10
277.788581
 20
438.202438
 40
1.0
  0
CIRCLE
  8
APS_GEOMETRY
 10
270.667261
 20
431.081117
 40
1.0
  0
LINE
  8
APS_GEOMETRY
 10
50.788581
 11
50.788581
 20
485.036783
 21
483.036783
  0
LINE
  8
APS_GEOMETRY
 10
50.788581
 11
40.788581
 20
483.036783
 21
483.036783
  0
LINE
  8
APS_GEOMETRY
 10
40.788581
 11
40.788581
 20
483.036783
 21
485.036783
  0
LINE
  8
APS_GEOMETRY
 10
40.788581
 11
36.081323
 20
485.036783
 21
485.036783
  0
ARC
  8
APS_GEOMETRY
 10
34.954236
 20
482.036783
 40
3.0
 50
90.0
 51
180.0
  0
LINE
  8
APS_GEOMETRY
 10
31.954236
 11
31.954236
 20
482.036783
 21
476.202437
  0
LINE
  8
APS_GEOMETRY
 10
31.954236
 11
33.954236
 20
476.202437
 21
476.202437
  0
LINE
  8
APS_GEOMETRY
 10
33.954236
 11
33.954236
 20
476.202437
 21
466.202437
  0
LINE
  8
APS_GEOMETRY
 10
33.954236
 11
31.954236
 20
466.202437
 21
466.202437
  0
LINE
  8
APS_GEOMETRY
 10
31.954236
 11
31.954236
 20
466.202437
 21
460.368092
  0
ARC
  8
APS_GEOMETRY
 10
34.954236
 20
460.368092
 40
3.0
 50
180.0
 51
270.0
  0
LINE
  8
APS_GEOMETRY
 10
34.954236
 11
40.788581
 20
457.368092
 21
457.368092
  0
LINE
  8
APS_GEOMETRY
 10
40.788581
 11
40.788581
 20
457.368092
 21
459.368092
  0
LINE
  8
APS_GEOMETRY
 10
40.788581
 11
50.788582
 20
459.368092
 21
459.368092
  0
LINE
  8
APS_GEOMETRY
 10
50.788582
 11
50.788582
 20
459.368092
 21
457.368092
  0
LINE
  8
APS_GEOMETRY
 10
50.788582
 11
56.622926
 20
457.368092
 21
457.368092
  0
ARC
  8
APS_GEOMETRY
 10
56.622926
 20
460.368092
 40
3.0
 50
270.0
 51
0.0
  0
LINE
  8
APS_GEOMETRY
 10
59.622926
 11
59.622926
 20
460.368092
 21
466.202438
  0
LINE
  8
APS_GEOMETRY
 10
59.622926
 11
57.622927
 20
466.202438
 21
466.202438
  0
LINE
  8
APS_GEOMETRY
 10
57.622927
 11
57.622927
 20
466.202438
 21
476.202438
  0
LINE
  8
APS_GEOMETRY
 10
57.622927
 11
59.622926
 20
476.202438
 21
476.202438
  0
LINE
  8
APS_GEOMETRY
 10
59.622926
 11
59.622926
 20
476.202438
 21
482.036783
  0
ARC
  8
APS_GEOMETRY
 10
56.622926
 20
482.036783
 40
3.0
 50
0.0
 51
90.0
  0
LINE
  8
APS_GEOMETRY
 10
56.622926
 11
50.788581
 20
485.036783
 21
485.036783
  0
CIRCLE
  8
APS_GEOMETRY
 10
38.667261
 20
478.323758
 40
1.0
  0
CIRCLE
  8
APS_GEOMETRY
 10
52.909901
 20
478.323758
 40
1.0
  0
CIRCLE
  8
APS_GEOMETRY
 10
52.909901
 20
464.081117
 40
1.0
  0
CIRCLE
  8
APS_GEOMETRY
 10
45.788581
 20
471.202438
 40
1.0
  0
CIRCLE
  8
APS_GEOMETRY
 10
38.667261
 20
464.081117
 40
1.0
  0
LINE
  8
APS_GEOMETRY
 10
79.788581
 11
79.788581
 20
485.036783
 21
483.036783
  0
LINE
  8
APS_GEOMETRY
 10
79.788581
 11
69.788581
 20
483.036783
 21
483.036783
  0
LINE
  8
APS_GEOMETRY
 10
69.788581
 11
69.788581
 20
483.036783
 21
485.036783
  0
LINE
  8
APS_GEOMETRY
 10
69.788581
 11
65.081323
 20
485.036783
 21
485.036783
  0
ARC
  8
APS_GEOMETRY
 10
63.954236
 20
482.036783
 40
3.0
 50
90.0
 51
180.0
  0
LINE
  8
APS_GEOMETRY
 10
60.954236
 11
60.954236
 20
482.036783
 21
476.202437
  0
LINE
  8
APS_GEOMETRY
 10
60.954236
 11
62.954236
 20
476.202437
 21
476.202437
  0
LINE
  8
APS_GEOMETRY
 10
62.954236
 11
62.954236
 20
476.202437
 21
466.202437
  0
LINE
  8
APS_GEOMETRY
 10
62.954236
 11
60.954236
 20
466.202437
 21
466.202437
  0
LINE
  8
APS_GEOMETRY
 10
60.954236
 11
60.954236
 20
466.202437
 21
460.368092
  0
ARC
  8
APS_GEOMETRY
 10
63.954236
 20
460.368092
 40
3.0
 50
180.0
 51
270.0
  0
LINE
  8
APS_GEOMETRY
 10
63.954236
 11
69.788581
 20
457.368092
 21
457.368092
  0
LINE
  8
APS_GEOMETRY
 10
69.788581
 11
69.788581
 20
457.368092
 21
459.368092
  0
LINE
  8
APS_GEOMETRY
 10
69.788581
 11
79.788582
 20
459.368092
 21
459.368092
  0
LINE
  8
APS_GEOMETRY
 10
79.788582
 11
79.788582
 20
459.368092
 21
457.368092
  0
LINE
  8
APS_GEOMETRY
 10
79.788582
 11
85.622926
 20
457.368092
 21
457.368092
  0
ARC
  8
APS_GEOMETRY
 10
85.622926
 20
460.368092
 40
3.0
 50
270.0
 51
0.0
  0
LINE
  8
APS_GEOMETRY
 10
88.622926
 11
88.622926
 20
460.368092
 21
466.202438
  0
LINE
  8
APS_GEOMETRY
 10
88.622926
 11
86.622927
 20
466.202438
 21
466.202438
  0
LINE
  8
APS_GEOMETRY
 10
86.622927
 11
86.622927
 20
466.202438
 21
476.202438
  0
LINE
  8
APS_GEOMETRY
 10
86.622927
 11
88.622926
 20
476.202438
 21
476.202438
  0
LINE
  8
APS_GEOMETRY
 10
88.622926
 11
88.622926
 20
476.202438
 21
482.036783
  0
ARC
  8
APS_GEOMETRY
 10
85.622926
 20
482.036783
 40
3.0
 50
0.0
 51
90.0
  0
LINE
  8
APS_GEOMETRY
 10
85.622926
 11
79.788581
 20
485.036783
 21
485.036783
  0
CIRCLE
  8
APS_GEOMETRY
 10
67.667261
 20
478.323758
 40
1.0
  0
CIRCLE
  8
APS_GEOMETRY
 10
81.909901
 20
478.323758
 40
1.0
  0
CIRCLE
  8
APS_GEOMETRY
 10
81.909901
 20
464.081117
 40
1.0
  0
CIRCLE
  8
APS_GEOMETRY
 10
74.788581
 20
471.202438
 40
1.0
  0
CIRCLE
  8
APS_GEOMETRY
 10
67.667261
 20
464.081117
 40
1.0
  0
LINE
  8
APS_GEOMETRY
 10
108.788581
 11
108.788581
 20
485.036783
 21
483.036783
  0
LINE
  8
APS_GEOMETRY
 10
108.788581
 11
98.788581
 20
483.036783
 21
483.036783
  0
LINE
  8
APS_GEOMETRY
 10
98.788581
 11
98.788581
 20
483.036783
 21
485.036783
  0
LINE
  8
APS_GEOMETRY
 10
98.788581
 11
94.081323
 20
485.036783
 21
485.036783
  0
ARC
  8
APS_GEOMETRY
 10
92.954236
 20
482.036783
 40
3.0
 50
90.0
 51
180.0
  0
LINE
  8
APS_GEOMETRY
 10
89.954236
 11
89.954236
 20
482.036783
 21
476.202437
  0
LINE
  8
APS_GEOMETRY
 10
89.954236
 11
91.954236
 20
476.202437
 21
476.202437
  0
LINE
  8
APS_GEOMETRY
 10
91.954236
 11
91.954236
 20
476.202437
 21
466.202437
  0
LINE
  8
APS_GEOMETRY
 10
91.954236
 11
89.954236
 20
466.202437
 21
466.202437
  0
LINE
  8
APS_GEOMETRY
 10
89.954236
 11
89.954236
 20
466.202437
 21
460.368092
  0
ARC
  8
APS_GEOMETRY
 10
92.954236
 20
460.368092
 40
3.0
 50
180.0
 51
270.0
  0
LINE
  8
APS_GEOMETRY
 10
92.954236
 11
98.788581
 20
457.368092
 21
457.368092
  0
LINE
  8
APS_GEOMETRY
 10
98.788581
 11
98.788581
 20
457.368092
 21
459.368092
  0
LINE
  8
APS_GEOMETRY
 10
98.788581
 11
108.788582
 20
459.368092
 21
459.368092
  0
LINE
  8
APS_GEOMETRY
 10
108.788582
 11
108.788582
 20
459.368092
 21
457.368092
  0
LINE
  8
APS_GEOMETRY
 10
108.788582
 11
114.622926
 20
457.368092
 21
457.368092
  0
ARC
  8
APS_GEOMETRY
 10
114.622926
 20
460.368092
 40
3.0
 50
270.0
 51
0.0
  0
LINE
  8
APS_GEOMETRY
 10
117.622926
 11
117.622926
 20
460.368092
 21
466.202438
  0
LINE
  8
APS_GEOMETRY
 10
117.622926
 11
115.622927
 20
466.202438
 21
466.202438
  0
LINE
  8
APS_GEOMETRY
 10
115.622927
 11
115.622927
 20
466.202438
 21
476.202438
  0
LINE
  8
APS_GEOMETRY
 10
115.622927
 11
117.622926
 20
476.202438
 21
476.202438
  0
LINE
  8
APS_GEOMETRY
 10
117.622926
 11
117.622926
 20
476.202438
 21
482.036783
  0
ARC
  8
APS_GEOMETRY
 10
114.622926
 20
482.036783
 40
3.0
 50
0.0
 51
90.0
  0
LINE
  8
APS_GEOMETRY
 10
114.622926
 11
108.788581
 20
485.036783
 21
485.036783
  0
CIRCLE
  8
APS_GEOMETRY
 10
96.667261
 20
478.323758
 40
1.0
  0
CIRCLE
  8
APS_GEOMETRY
 10
110.909901
 20
478.323758
 40
1.0
  0
CIRCLE
  8
APS_GEOMETRY
 10
110.909901
 20
464.081117
 40
1.0
  0
CIRCLE
  8
APS_GEOMETRY
 10
103.788581
 20
471.202438
 40
1.0
  0
CIRCLE
  8
APS_GEOMETRY
 10
96.667261
 20
464.081117
 40
1.0
  0
LINE
  8
APS_GEOMETRY
 10
137.788581
 11
137.788581
 20
485.036783
 21
483.036783
  0
LINE
  8
APS_GEOMETRY
 10
137.788581
 11
127.788581
 20
483.036783
 21
483.036783
  0
LINE
  8
APS_GEOMETRY
 10
127.788581
 11
127.788581
 20
483.036783
 21
485.036783
  0
LINE
  8
APS_GEOMETRY
 10
127.788581
 11
123.081323
 20
485.036783
 21
485.036783
  0
ARC
  8
APS_GEOMETRY
 10
121.954236
 20
482.036783
 40
3.0
 50
90.0
 51
180.0
  0
LINE
  8
APS_GEOMETRY
 10
118.954236
 11
118.954236
 20
482.036783
 21
476.202437
  0
LINE
  8
APS_GEOMETRY
 10
118.954236
 11
120.954236
 20
476.202437
 21
476.202437
  0
LINE
  8
APS_GEOMETRY
 10
120.954236
 11
120.954236
 20
476.202437
 21
466.202437
  0
LINE
  8
APS_GEOMETRY
 10
120.954236
 11
118.954236
 20
466.202437
 21
466.202437
  0
LINE
  8
APS_GEOMETRY
 10
118.954236
 11
118.954236
 20
466.202437
 21
460.368092
  0
ARC
  8
APS_GEOMETRY
 10
121.954236
 20
460.368092
 40
3.0
 50
180.0
 51
270.0
  0
LINE
  8
APS_GEOMETRY
 10
121.954236
 11
127.788581
 20
457.368092
 21
457.368092
  0
LINE
  8
APS_GEOMETRY
 10
127.788581
 11
127.788581
 20
457.368092
 21
459.368092
  0
LINE
  8
APS_GEOMETRY
 10
127.788581
 11
137.788582
 20
459.368092
 21
459.368092
  0
LINE
  8
APS_GEOMETRY
 10
137.788582
 11
137.788582
 20
459.368092
 21
457.368092
  0
LINE
  8
APS_GEOMETRY
 10
137.788582
 11
143.622926
 20
457.368092
 21
457.368092
  0
ARC
  8
APS_GEOMETRY
 10
143.622926
 20
460.368092
 40
3.0
 50
270.0
 51
0.0
  0
LINE
  8
APS_GEOMETRY
 10
146.622926
 11
146.622926
 20
460.368092
 21
466.202438
  0
LINE
  8
APS_GEOMETRY
 10
146.622926
 11
144.622927
 20
466.202438
 21
466.202438
  0
LINE
  8
APS_GEOMETRY
 10
144.622927
 11
144.622927
 20
466.202438
 21
476.202438
  0
LINE
  8
APS_GEOMETRY
 10
144.622927
 11
146.622926
 20
476.202438
 21
476.202438
  0
LINE
  8
APS_GEOMETRY
 10
146.622926
 11
146.622926
 20
476.202438
 21
482.036783
  0
ARC
  8
APS_GEOMETRY
 10
143.622926
 20
482.036783
 40
3.0
 50
0.0
 51
90.0
  0
LINE
  8
APS_GEOMETRY
 10
143.622926
 11
137.788581
 20
485.036783
 21
485.036783
  0
CIRCLE
  8
APS_GEOMETRY
 10
125.667261
 20
478.323758
 40
1.0
  0
CIRCLE
  8
APS_GEOMETRY
 10
139.909901
 20
478.323758
 40
1.0
  0
CIRCLE
  8
APS_GEOMETRY
 10
139.909901
 20
464.081117
 40
1.0
  0
CIRCLE
  8
APS_GEOMETRY
 10
132.788581
 20
471.202438
 40
1.0
  0
CIRCLE
  8
APS_GEOMETRY
 10
125.667261
 20
464.081117
 40
1.0
  0
LINE
  8
APS_GEOMETRY
 10
166.788581
 11
166.788581
 20
485.036783
 21
483.036783
  0
LINE
  8
APS_GEOMETRY
 10
166.788581
 11
156.788581
 20
483.036783
 21
483.036783
  0
LINE
  8
APS_GEOMETRY
 10
156.788581
 11
156.788581
 20
483.036783
 21
485.036783
  0
LINE
  8
APS_GEOMETRY
 10
156.788581
 11
152.081323
 20
485.036783
 21
485.036783
  0
ARC
  8
APS_GEOMETRY
 10
150.954236
 20
482.036783
 40
3.0
 50
90.0
 51
180.0
  0
LINE
  8
APS_GEOMETRY
 10
147.954236
 11
147.954236
 20
482.036783
 21
476.202437
  0
LINE
  8
APS_GEOMETRY
 10
147.954236
 11
149.954236
 20
476.202437
 21
476.202437
  0
LINE
  8
APS_GEOMETRY
 10
149.954236
 11
149.954236
 20
476.202437
 21
466.202437
  0
LINE
  8
APS_GEOMETRY
 10
149.954236
 11
147.954236
 20
466.202437
 21
466.202437
  0
LINE
  8
APS_GEOMETRY
 10
147.954236
 11
147.954236
 20
466.202437
 21
460.368092
  0
ARC
  8
APS_GEOMETRY
 10
150.954236
 20
460.368092
 40
3.0
 50
180.0
 51
270.0
  0
LINE
  8
APS_GEOMETRY
 10
150.954236
 11
156.788581
 20
457.368092
 21
457.368092
  0
LINE
  8
APS_GEOMETRY
 10
156.788581
 11
156.788581
 20
457.368092
 21
459.368092
  0
LINE
  8
APS_GEOMETRY
 10
156.788581
 11
166.788582
 20
459.368092
 21
459.368092
  0
LINE
  8
APS_GEOMETRY
 10
166.788582
 11
166.788582
 20
459.368092
 21
457.368092
  0
LINE
  8
APS_GEOMETRY
 10
166.788582
 11
172.622926
 20
457.368092
 21
457.368092
  0
ARC
  8
APS_GEOMETRY
 10
172.622926
 20
460.368092
 40
3.0
 50
270.0
 51
0.0
  0
LINE
  8
APS_GEOMETRY
 10
175.622926
 11
175.622926
 20
460.368092
 21
466.202438
  0
LINE
  8
APS_GEOMETRY
 10
175.622926
 11
173.622927
 20
466.202438
 21
466.202438
  0
LINE
  8
APS_GEOMETRY
 10
173.622927
 11
173.622927
 20
466.202438
 21
476.202438
  0
LINE
  8
APS_GEOMETRY
 10
173.622927
 11
175.622926
 20
476.202438
 21
476.202438
  0
LINE
  8
APS_GEOMETRY
 10
175.622926
 11
175.622926
 20
476.202438
 21
482.036783
  0
ARC
  8
APS_GEOMETRY
 10
172.622926
 20
482.036783
 40
3.0
 50
0.0
 51
90.0
  0
LINE
  8
APS_GEOMETRY
 10
172.622926
 11
166.788581
 20
485.036783
 21
485.036783
  0
CIRCLE
  8
APS_GEOMETRY
 10
154.667261
 20
478.323758
 40
1.0
  0
CIRCLE
  8
APS_GEOMETRY
 10
168.909901
 20
478.323758
 40
1.0
  0
CIRCLE
  8
APS_GEOMETRY
 10
168.909901
 20
464.081117
 40
1.0
  0
CIRCLE
  8
APS_GEOMETRY
 10
161.788581
 20
471.202438
 40
1.0
  0
CIRCLE
  8
APS_GEOMETRY
 10
154.667261
 20
464.081117
 40
1.0
  0
LINE
  8
APS_GEOMETRY
 10
195.788581
 11
195.788581
 20
485.036783
 21
483.036783
  0
LINE
  8
APS_GEOMETRY
 10
195.788581
 11
185.788581
 20
483.036783
 21
483.036783
  0
LINE
  8
APS_GEOMETRY
 10
185.788581
 11
185.788581
 20
483.036783
 21
485.036783
  0
LINE
  8
APS_GEOMETRY
 10
185.788581
 11
181.081323
 20
485.036783
 21
485.036783
  0
ARC
  8
APS_GEOMETRY
 10
179.954236
 20
482.036783
 40
3.0
 50
90.0
 51
180.0
  0
LINE
  8
APS_GEOMETRY
 10
176.954236
 11
176.954236
 20
482.036783
 21
476.202437
  0
LINE
  8
APS_GEOMETRY
 10
176.954236
 11
178.954236
 20
476.202437
 21
476.202437
  0
LINE
  8
APS_GEOMETRY
 10
178.954236
 11
178.954236
 20
476.202437
 21
466.202437
  0
LINE
  8
APS_GEOMETRY
 10
178.954236
 11
176.954236
 20
466.202437
 21
466.202437
  0
LINE
  8
APS_GEOMETRY
 10
176.954236
 11
176.954236
 20
466.202437
 21
460.368092
  0
ARC
  8
APS_GEOMETRY
 10
179.954236
 20
460.368092
 40
3.0
 50
180.0
 51
270.0
  0
LINE
  8
APS_GEOMETRY
 10
179.954236
 11
185.788581
 20
457.368092
 21
457.368092
  0
LINE
  8
APS_GEOMETRY
 10
185.788581
 11
185.788581
 20
457.368092
 21
459.368092
  0
LINE
  8
APS_GEOMETRY
 10
185.788581
 11
195.788582
 20
459.368092
 21
459.368092
  0
LINE
  8
APS_GEOMETRY
 10
195.788582
 11
195.788582
 20
459.368092
 21
457.368092
  0
LINE
  8
APS_GEOMETRY
 10
195.788582
 11
201.622926
 20
457.368092
 21
457.368092
  0
ARC
  8
APS_GEOMETRY
 10
201.622926
 20
460.368092
 40
3.0
 50
270.0
 51
0.0
  0
LINE
  8
APS_GEOMETRY
 10
204.622926
 11
204.622926
 20
460.368092
 21
466.202438
  0
LINE
  8
APS_GEOMETRY
 10
204.622926
 11
202.622927
 20
466.202438
 21
466.202438
  0
LINE
  8
APS_GEOMETRY
 10
202.622927
 11
202.622927
 20
466.202438
 21
476.202438
  0
LINE
  8
APS_GEOMETRY
 10
202.622927
 11
204.622926
 20
476.202438
 21
476.202438
  0
LINE
  8
APS_GEOMETRY
 10
204.622926
 11
204.622926
 20
476.202438
 21
482.036783
  0
ARC
  8
APS_GEOMETRY
 10
201.622926
 20
482.036783
 40
3.0
 50
0.0
 51
90.0
  0
LINE
  8
APS_GEOMETRY
 10
201.622926
 11
195.788581
 20
485.036783
 21
485.036783
  0
CIRCLE
  8
APS_GEOMETRY
 10
183.667261
 20
478.323758
 40
1.0
  0
CIRCLE
  8
APS_GEOMETRY
 10
197.909901
 20
478.323758
 40
1.0
  0
CIRCLE
  8
APS_GEOMETRY
 10
197.909901
 20
464.081117
 40
1.0
  0
CIRCLE
  8
APS_GEOMETRY
 10
190.788581
 20
471.202438
 40
1.0
  0
CIRCLE
  8
APS_GEOMETRY
 10
183.667261
 20
464.081117
 40
1.0
  0
LINE
  8
APS_GEOMETRY
 10
224.788581
 11
224.788581
 20
485.036783
 21
483.036783
  0
LINE
  8
APS_GEOMETRY
 10
224.788581
 11
214.788581
 20
483.036783
 21
483.036783
  0
LINE
  8
APS_GEOMETRY
 10
214.788581
 11
214.788581
 20
483.036783
 21
485.036783
  0
LINE
  8
APS_GEOMETRY
 10
214.788581
 11
210.081323
 20
485.036783
 21
485.036783
  0
ARC
  8
APS_GEOMETRY
 10
208.954236
 20
482.036783
 40
3.0
 50
90.0
 51
180.0
  0
LINE
  8
APS_GEOMETRY
 10
205.954236
 11
205.954236
 20
482.036783
 21
476.202437
  0
LINE
  8
APS_GEOMETRY
 10
205.954236
 11
207.954236
 20
476.202437
 21
476.202437
  0
LINE
  8
APS_GEOMETRY
 10
207.954236
 11
207.954236
 20
476.202437
 21
466.202437
  0
LINE
  8
APS_GEOMETRY
 10
207.954236
 11
205.954236
 20
466.202437
 21
466.202437
  0
LINE
  8
APS_GEOMETRY
 10
205.954236
 11
205.954236
 20
466.202437
 21
460.368092
  0
ARC
  8
APS_GEOMETRY
 10
208.954236
 20
460.368092
 40
3.0
 50
180.0
 51
270.0
  0
LINE
  8
APS_GEOMETRY
 10
208.954236
 11
214.788581
 20
457.368092
 21
457.368092
  0
LINE
  8
APS_GEOMETRY
 10
214.788581
 11
214.788581
 20
457.368092
 21
459.368092
  0
LINE
  8
APS_GEOMETRY
 10
214.788581
 11
224.788582
 20
459.368092
 21
459.368092
  0
LINE
  8
APS_GEOMETRY
 10
224.788582
 11
224.788582
 20
459.368092
 21
457.368092
  0
LINE
  8
APS_GEOMETRY
 10
224.788582
 11
230.622926
 20
457.368092
 21
457.368092
  0
ARC
  8
APS_GEOMETRY
 10
230.622926
 20
460.368092
 40
3.0
 50
270.0
 51
0.0
  0
LINE
  8
APS_GEOMETRY
 10
233.622926
 11
233.622926
 20
460.368092
 21
466.202438
  0
LINE
  8
APS_GEOMETRY
 10
233.622926
 11
231.622927
 20
466.202438
 21
466.202438
  0
LINE
  8
APS_GEOMETRY
 10
231.622927
 11
231.622927
 20
466.202438
 21
476.202438
  0
LINE
  8
APS_GEOMETRY
 10
231.622927
 11
233.622926
 20
476.202438
 21
476.202438
  0
LINE
  8
APS_GEOMETRY
 10
233.622926
 11
233.622926
 20
476.202438
 21
482.036783
  0
ARC
  8
APS_GEOMETRY
 10
230.622926
 20
482.036783
 40
3.0
 50
0.0
 51
90.0
  0
LINE
  8
APS_GEOMETRY
 10
230.622926
 11
224.788581
 20
485.036783
 21
485.036783
  0
CIRCLE
  8
APS_GEOMETRY
 10
212.667261
 20
478.323758
 40
1.0
  0
CIRCLE
  8
APS_GEOMETRY
 10
226.909901
 20
478.323758
 40
1.0
  0
CIRCLE
  8
APS_GEOMETRY
 10
226.909901
 20
464.081117
 40
1.0
  0
CIRCLE
  8
APS_GEOMETRY
 10
219.788581
 20
471.202438
 40
1.0
  0
CIRCLE
  8
APS_GEOMETRY
 10
212.667261
 20
464.081117
 40
1.0
  0
LINE
  8
APS_GEOMETRY
 10
253.788581
 11
253.788581
 20
485.036783
 21
483.036783
  0
LINE
  8
APS_GEOMETRY
 10
253.788581
 11
243.788581
 20
483.036783
 21
483.036783
  0
LINE
  8
APS_GEOMETRY
 10
243.788581
 11
243.788581
 20
483.036783
 21
485.036783
  0
LINE
  8
APS_GEOMETRY
 10
243.788581
 11
239.081323
 20
485.036783
 21
485.036783
  0
ARC
  8
APS_GEOMETRY
 10
237.954236
 20
482.036783
 40
3.0
 50
90.0
 51
180.0
  0
LINE
  8
APS_GEOMETRY
 10
234.954236
 11
234.954236
 20
482.036783
 21
476.202437
  0
LINE
  8
APS_GEOMETRY
 10
234.954236
 11
236.954236
 20
476.202437
 21
476.202437
  0
LINE
  8
APS_GEOMETRY
 10
236.954236
 11
236.954236
 20
476.202437
 21
466.202437
  0
LINE
  8
APS_GEOMETRY
 10
236.954236
 11
234.954236
 20
466.202437
 21
466.202437
  0
LINE
  8
APS_GEOMETRY
 10
234.954236
 11
234.954236
 20
466.202437
 21
460.368092
  0
ARC
  8
APS_GEOMETRY
 10
237.954236
 20
460.368092
 40
3.0
 50
180.0
 51
270.0
  0
LINE
  8
APS_GEOMETRY
 10
237.954236
 11
243.788581
 20
457.368092
 21
457.368092
  0
LINE
  8
APS_GEOMETRY
 10
243.788581
 11
243.788581
 20
457.368092
 21
459.368092
  0
LINE
  8
APS_GEOMETRY
 10
243.788581
 11
253.788582
 20
459.368092
 21
459.368092
  0
LINE
  8
APS_GEOMETRY
 10
253.788582
 11
253.788582
 20
459.368092
 21
457.368092
  0
LINE
  8
APS_GEOMETRY
 10
253.788582
 11
259.622926
 20
457.368092
 21
457.368092
  0
ARC
  8
APS_GEOMETRY
 10
259.622926
 20
460.368092
 40
3.0
 50
270.0
 51
0.0
  0
LINE
  8
APS_GEOMETRY
 10
262.622926
 11
262.622926
 20
460.368092
 21
466.202438
  0
LINE
  8
APS_GEOMETRY
 10
262.622926
 11
260.622927
 20
466.202438
 21
466.202438
  0
LINE
  8
APS_GEOMETRY
 10
260.622927
 11
260.622927
 20
466.202438
 21
476.202438
  0
LINE
  8
APS_GEOMETRY
 10
260.622927
 11
262.622926
 20
476.202438
 21
476.202438
  0
LINE
  8
APS_GEOMETRY
 10
262.622926
 11
262.622926
 20
476.202438
 21
482.036783
  0
ARC
  8
APS_GEOMETRY
 10
259.622926
 20
482.036783
 40
3.0
 50
0.0
 51
90.0
  0
LINE
  8
APS_GEOMETRY
 10
259.622926
 11
253.788581
 20
485.036783
 21
485.036783
  0
CIRCLE
  8
APS_GEOMETRY
 10
241.667261
 20
478.323758
 40
1.0
  0
CIRCLE
  8
APS_GEOMETRY
 10
255.909901
 20
478.323758
 40
1.0
  0
CIRCLE
  8
APS_GEOMETRY
 10
255.909901
 20
464.081117
 40
1.0
  0
CIRCLE
  8
APS_GEOMETRY
 10
248.788581
 20
471.202438
 40
1.0
  0
CIRCLE
  8
APS_GEOMETRY
 10
241.667261
 20
464.081117
 40
1.0
  0
LINE
  8
APS_GEOMETRY
 10
282.788581
 11
282.788581
 20
485.036783
 21
483.036783
  0
LINE
  8
APS_GEOMETRY
 10
282.788581
 11
272.788581
 20
483.036783
 21
483.036783
  0
LINE
  8
APS_GEOMETRY
 10
272.788581
 11
272.788581
 20
483.036783
 21
485.036783
  0
LINE
  8
APS_GEOMETRY
 10
272.788581
 11
268.081323
 20
485.036783
 21
485.036783
  0
ARC
  8
APS_GEOMETRY
 10
266.954236
 20
482.036783
 40
3.0
 50
90.0
 51
180.0
  0
LINE
  8
APS_GEOMETRY
 10
263.954236
 11
263.954236
 20
482.036783
 21
476.202437
  0
LINE
  8
APS_GEOMETRY
 10
263.954236
 11
265.954236
 20
476.202437
 21
476.202437
  0
LINE
  8
APS_GEOMETRY
 10
265.954236
 11
265.954236
 20
476.202437
 21
466.202437
  0
LINE
  8
APS_GEOMETRY
 10
265.954236
 11
263.954236
 20
466.202437
 21
466.202437
  0
LINE
  8
APS_GEOMETRY
 10
263.954236
 11
263.954236
 20
466.202437
 21
460.368092
  0
ARC
  8
APS_GEOMETRY
 10
266.954236
 20
460.368092
 40
3.0
 50
180.0
 51
270.0
  0
LINE
  8
APS_GEOMETRY
 10
266.954236
 11
272.788581
 20
457.368092
 21
457.368092
  0
LINE
  8
APS_GEOMETRY
 10
272.788581
 11
272.788581
 20
457.368092
 21
459.368092
  0
LINE
  8
APS_GEOMETRY
 10
272.788581
 11
282.788582
 20
459.368092
 21
459.368092
  0
LINE
  8
APS_GEOMETRY
 10
282.788582
 11
282.788582
 20
459.368092
 21
457.368092
  0
LINE
  8
APS_GEOMETRY
 10
282.788582
 11
288.622926
 20
457.368092
 21
457.368092
  0
ARC
  8
APS_GEOMETRY
 10
288.622926
 20
460.368092
 40
3.0
 50
270.0
 51
0.0
  0
LINE
  8
APS_GEOMETRY
 10
291.622926
 11
291.622926
 20
460.368092
 21
466.202438
  0
LINE
  8
APS_GEOMETRY
 10
291.622926
 11
289.622927
 20
466.202438
 21
466.202438
  0
LINE
  8
APS_GEOMETRY
 10
289.622927
 11
289.622927
 20
466.202438
 21
476.202438
  0
LINE
  8
APS_GEOMETRY
 10
289.622927
 11
291.622926
 20
476.202438
 21
476.202438
  0
LINE
  8
APS_GEOMETRY
 10
291.622926
 11
291.622926
 20
476.202438
 21
482.036783
  0
ARC
  8
APS_GEOMETRY
 10
288.622926
 20
482.036783
 40
3.0
 50
0.0
 51
90.0
  0
LINE
  8
APS_GEOMETRY
 10
288.622926
 11
282.788581
 20
485.036783
 21
485.036783
  0
CIRCLE
  8
APS_GEOMETRY
 10
270.667261
 20
478.323758
 40
1.0
  0
CIRCLE
  8
APS_GEOMETRY
 10
284.909901
 20
478.323758
 40
1.0
  0
CIRCLE
  8
APS_GEOMETRY
 10
284.909901
 20
464.081117
 40
1.0
  0
CIRCLE
  8
APS_GEOMETRY
 10
277.788581
 20
471.202438
 40
1.0
  0
CIRCLE
  8
APS_GEOMETRY
 10
270.667261
 20
464.081117
 40
1.0
  0
LINE
  8
APS_GEOMETRY
 10
50.788581
 11
50.788581
 20
518.036783
 21
516.036783
  0
LINE
  8
APS_GEOMETRY
 10
50.788581
 11
40.788581
 20
516.036783
 21
516.036783
  0
LINE
  8
APS_GEOMETRY
 10
40.788581
 11
40.788581
 20
516.036783
 21
518.036783
  0
LINE
  8
APS_GEOMETRY
 10
40.788581
 11
36.081323
 20
518.036783
 21
518.036783
  0
ARC
  8
APS_GEOMETRY
 10
34.954236
 20
515.036783
 40
3.0
 50
90.0
 51
180.0
  0
LINE
  8
APS_GEOMETRY
 10
31.954236
 11
31.954236
 20
515.036783
 21
509.202437
  0
LINE
  8
APS_GEOMETRY
 10
31.954236
 11
33.954236
 20
509.202437
 21
509.202437
  0
LINE
  8
APS_GEOMETRY
 10
33.954236
 11
33.954236
 20
509.202437
 21
499.202437
  0
LINE
  8
APS_GEOMETRY
 10
33.954236
 11
31.954236
 20
499.202437
 21
499.202437
  0
LINE
  8
APS_GEOMETRY
 10
31.954236
 11
31.954236
 20
499.202437
 21
493.368092
  0
ARC
  8
APS_GEOMETRY
 10
34.954236
 20
493.368092
 40
3.0
 50
180.0
 51
270.0
  0
LINE
  8
APS_GEOMETRY
 10
34.954236
 11
40.788581
 20
490.368092
 21
490.368092
  0
LINE
  8
APS_GEOMETRY
 10
40.788581
 11
40.788581
 20
490.368092
 21
492.368092
  0
LINE
  8
APS_GEOMETRY
 10
40.788581
 11
50.788582
 20
492.368092
 21
492.368092
  0
LINE
  8
APS_GEOMETRY
 10
50.788582
 11
50.788582
 20
492.368092
 21
490.368092
  0
LINE
  8
APS_GEOMETRY
 10
50.788582
 11
56.622926
 20
490.368092
 21
490.368092
  0
ARC
  8
APS_GEOMETRY
 10
56.622926
 20
493.368092
 40
3.0
 50
270.0
 51
0.0
  0
LINE
  8
APS_GEOMETRY
 10
59.622926
 11
59.622926
 20
493.368092
 21
499.202438
  0
LINE
  8
APS_GEOMETRY
 10
59.622926
 11
57.622927
 20
499.202438
 21
499.202438
  0
LINE
  8
APS_GEOMETRY
 10
57.622927
 11
57.622927
 20
499.202438
 21
509.202438
  0
LINE
  8
APS_GEOMETRY
 10
57.622927
 11
59.622926
 20
509.202438
 21
509.202438
  0
LINE
  8
APS_GEOMETRY
 10
59.622926
 11
59.622926
 20
509.202438
 21
515.036783
  0
ARC
  8
APS_GEOMETRY
 10
56.622926
 20
515.036783
 40
3.0
 50
0.0
 51
90.0
  0
LINE
  8
APS_GEOMETRY
 10
56.622926
 11
50.788581
 20
518.036783
 21
518.036783
  0
CIRCLE
  8
APS_GEOMETRY
 10
38.667261
 20
511.323758
 40
1.0
  0
CIRCLE
  8
APS_GEOMETRY
 10
52.909901
 20
511.323758
 40
1.0
  0
CIRCLE
  8
APS_GEOMETRY
 10
52.909901
 20
497.081117
 40
1.0
  0
CIRCLE
  8
APS_GEOMETRY
 10
45.788581
 20
504.202438
 40
1.0
  0
CIRCLE
  8
APS_GEOMETRY
 10
38.667261
 20
497.081117
 40
1.0
  0
LINE
  8
APS_GEOMETRY
 10
79.788581
 11
79.788581
 20
518.036783
 21
516.036783
  0
LINE
  8
APS_GEOMETRY
 10
79.788581
 11
69.788581
 20
516.036783
 21
516.036783
  0
LINE
  8
APS_GEOMETRY
 10
69.788581
 11
69.788581
 20
516.036783
 21
518.036783
  0
LINE
  8
APS_GEOMETRY
 10
69.788581
 11
65.081323
 20
518.036783
 21
518.036783
  0
ARC
  8
APS_GEOMETRY
 10
63.954236
 20
515.036783
 40
3.0
 50
90.0
 51
180.0
  0
LINE
  8
APS_GEOMETRY
 10
60.954236
 11
60.954236
 20
515.036783
 21
509.202437
  0
LINE
  8
APS_GEOMETRY
 10
60.954236
 11
62.954236
 20
509.202437
 21
509.202437
  0
LINE
  8
APS_GEOMETRY
 10
62.954236
 11
62.954236
 20
509.202437
 21
499.202437
  0
LINE
  8
APS_GEOMETRY
 10
62.954236
 11
60.954236
 20
499.202437
 21
499.202437
  0
LINE
  8
APS_GEOMETRY
 10
60.954236
 11
60.954236
 20
499.202437
 21
493.368092
  0
ARC
  8
APS_GEOMETRY
 10
63.954236
 20
493.368092
 40
3.0
 50
180.0
 51
270.0
  0
LINE
  8
APS_GEOMETRY
 10
63.954236
 11
69.788581
 20
490.368092
 21
490.368092
  0
LINE
  8
APS_GEOMETRY
 10
69.788581
 11
69.788581
 20
490.368092
 21
492.368092
  0
LINE
  8
APS_GEOMETRY
 10
69.788581
 11
79.788582
 20
492.368092
 21
492.368092
  0
LINE
  8
APS_GEOMETRY
 10
79.788582
 11
79.788582
 20
492.368092
 21
490.368092
  0
LINE
  8
APS_GEOMETRY
 10
79.788582
 11
85.622926
 20
490.368092
 21
490.368092
  0
ARC
  8
APS_GEOMETRY
 10
85.622926
 20
493.368092
 40
3.0
 50
270.0
 51
0.0
  0
LINE
  8
APS_GEOMETRY
 10
88.622926
 11
88.622926
 20
493.368092
 21
499.202438
  0
LINE
  8
APS_GEOMETRY
 10
88.622926
 11
86.622927
 20
499.202438
 21
499.202438
  0
LINE
  8
APS_GEOMETRY
 10
86.622927
 11
86.622927
 20
499.202438
 21
509.202438
  0
LINE
  8
APS_GEOMETRY
 10
86.622927
 11
88.622926
 20
509.202438
 21
509.202438
  0
LINE
  8
APS_GEOMETRY
 10
88.622926
 11
88.622926
 20
509.202438
 21
515.036783
  0
ARC
  8
APS_GEOMETRY
 10
85.622926
 20
515.036783
 40
3.0
 50
0.0
 51
90.0
  0
LINE
  8
APS_GEOMETRY
 10
85.622926
 11
79.788581
 20
518.036783
 21
518.036783
  0
CIRCLE
  8
APS_GEOMETRY
 10
67.667261
 20
511.323758
 40
1.0
  0
CIRCLE
  8
APS_GEOMETRY
 10
81.909901
 20
511.323758
 40
1.0
  0
CIRCLE
  8
APS_GEOMETRY
 10
81.909901
 20
497.081117
 40
1.0
  0
CIRCLE
  8
APS_GEOMETRY
 10
74.788581
 20
504.202438
 40
1.0
  0
CIRCLE
  8
APS_GEOMETRY
 10
67.667261
 20
497.081117
 40
1.0
  0
LINE
  8
APS_GEOMETRY
 10
108.788581
 11
108.788581
 20
518.036783
 21
516.036783
  0
LINE
  8
APS_GEOMETRY
 10
108.788581
 11
98.788581
 20
516.036783
 21
516.036783
  0
LINE
  8
APS_GEOMETRY
 10
98.788581
 11
98.788581
 20
516.036783
 21
518.036783
  0
LINE
  8
APS_GEOMETRY
 10
98.788581
 11
94.081323
 20
518.036783
 21
518.036783
  0
ARC
  8
APS_GEOMETRY
 10
92.954236
 20
515.036783
 40
3.0
 50
90.0
 51
180.0
  0
LINE
  8
APS_GEOMETRY
 10
89.954236
 11
89.954236
 20
515.036783
 21
509.202437
  0
LINE
  8
APS_GEOMETRY
 10
89.954236
 11
91.954236
 20
509.202437
 21
509.202437
  0
LINE
  8
APS_GEOMETRY
 10
91.954236
 11
91.954236
 20
509.202437
 21
499.202437
  0
LINE
  8
APS_GEOMETRY
 10
91.954236
 11
89.954236
 20
499.202437
 21
499.202437
  0
LINE
  8
APS_GEOMETRY
 10
89.954236
 11
89.954236
 20
499.202437
 21
493.368092
  0
ARC
  8
APS_GEOMETRY
 10
92.954236
 20
493.368092
 40
3.0
 50
180.0
 51
270.0
  0
LINE
  8
APS_GEOMETRY
 10
92.954236
 11
98.788581
 20
490.368092
 21
490.368092
  0
LINE
  8
APS_GEOMETRY
 10
98.788581
 11
98.788581
 20
490.368092
 21
492.368092
  0
LINE
  8
APS_GEOMETRY
 10
98.788581
 11
108.788582
 20
492.368092
 21
492.368092
  0
LINE
  8
APS_GEOMETRY
 10
108.788582
 11
108.788582
 20
492.368092
 21
490.368092
  0
LINE
  8
APS_GEOMETRY
 10
108.788582
 11
114.622926
 20
490.368092
 21
490.368092
  0
ARC
  8
APS_GEOMETRY
 10
114.622926
 20
493.368092
 40
3.0
 50
270.0
 51
0.0
  0
LINE
  8
APS_GEOMETRY
 10
117.622926
 11
117.622926
 20
493.368092
 21
499.202438
  0
LINE
  8
APS_GEOMETRY
 10
117.622926
 11
115.622927
 20
499.202438
 21
499.202438
  0
LINE
  8
APS_GEOMETRY
 10
115.622927
 11
115.622927
 20
499.202438
 21
509.202438
  0
LINE
  8
APS_GEOMETRY
 10
115.622927
 11
117.622926
 20
509.202438
 21
509.202438
  0
LINE
  8
APS_GEOMETRY
 10
117.622926
 11
117.622926
 20
509.202438
 21
515.036783
  0
ARC
  8
APS_GEOMETRY
 10
114.622926
 20
515.036783
 40
3.0
 50
0.0
 51
90.0
  0
LINE
  8
APS_GEOMETRY
 10
114.622926
 11
108.788581
 20
518.036783
 21
518.036783
  0
CIRCLE
  8
APS_GEOMETRY
 10
96.667261
 20
511.323758
 40
1.0
  0
CIRCLE
  8
APS_GEOMETRY
 10
110.909901
 20
511.323758
 40
1.0
  0
CIRCLE
  8
APS_GEOMETRY
 10
110.909901
 20
497.081117
 40
1.0
  0
CIRCLE
  8
APS_GEOMETRY
 10
103.788581
 20
504.202438
 40
1.0
  0
CIRCLE
  8
APS_GEOMETRY
 10
96.667261
 20
497.081117
 40
1.0
  0
LINE
  8
APS_GEOMETRY
 10
137.788581
 11
137.788581
 20
518.036783
 21
516.036783
  0
LINE
  8
APS_GEOMETRY
 10
137.788581
 11
127.788581
 20
516.036783
 21
516.036783
  0
LINE
  8
APS_GEOMETRY
 10
127.788581
 11
127.788581
 20
516.036783
 21
518.036783
  0
LINE
  8
APS_GEOMETRY
 10
127.788581
 11
123.081323
 20
518.036783
 21
518.036783
  0
ARC
  8
APS_GEOMETRY
 10
121.954236
 20
515.036783
 40
3.0
 50
90.0
 51
180.0
  0
LINE
  8
APS_GEOMETRY
 10
118.954236
 11
118.954236
 20
515.036783
 21
509.202437
  0
LINE
  8
APS_GEOMETRY
 10
118.954236
 11
120.954236
 20
509.202437
 21
509.202437
  0
LINE
  8
APS_GEOMETRY
 10
120.954236
 11
120.954236
 20
509.202437
 21
499.202437
  0
LINE
  8
APS_GEOMETRY
 10
120.954236
 11
118.954236
 20
499.202437
 21
499.202437
  0
LINE
  8
APS_GEOMETRY
 10
118.954236
 11
118.954236
 20
499.202437
 21
493.368092
  0
ARC
  8
APS_GEOMETRY
 10
121.954236
 20
493.368092
 40
3.0
 50
180.0
 51
270.0
  0
LINE
  8
APS_GEOMETRY
 10
121.954236
 11
127.788581
 20
490.368092
 21
490.368092
  0
LINE
  8
APS_GEOMETRY
 10
127.788581
 11
127.788581
 20
490.368092
 21
492.368092
  0
LINE
  8
APS_GEOMETRY
 10
127.788581
 11
137.788582
 20
492.368092
 21
492.368092
  0
LINE
  8
APS_GEOMETRY
 10
137.788582
 11
137.788582
 20
492.368092
 21
490.368092
  0
LINE
  8
APS_GEOMETRY
 10
137.788582
 11
143.622926
 20
490.368092
 21
490.368092
  0
ARC
  8
APS_GEOMETRY
 10
143.622926
 20
493.368092
 40
3.0
 50
270.0
 51
0.0
  0
LINE
  8
APS_GEOMETRY
 10
146.622926
 11
146.622926
 20
493.368092
 21
499.202438
  0
LINE
  8
APS_GEOMETRY
 10
146.622926
 11
144.622927
 20
499.202438
 21
499.202438
  0
LINE
  8
APS_GEOMETRY
 10
144.622927
 11
144.622927
 20
499.202438
 21
509.202438
  0
LINE
  8
APS_GEOMETRY
 10
144.622927
 11
146.622926
 20
509.202438
 21
509.202438
  0
LINE
  8
APS_GEOMETRY
 10
146.622926
 11
146.622926
 20
509.202438
 21
515.036783
  0
ARC
  8
APS_GEOMETRY
 10
143.622926
 20
515.036783
 40
3.0
 50
0.0
 51
90.0
  0
LINE
  8
APS_GEOMETRY
 10
143.622926
 11
137.788581
 20
518.036783
 21
518.036783
  0
CIRCLE
  8
APS_GEOMETRY
 10
125.667261
 20
511.323758
 40
1.0
  0
CIRCLE
  8
APS_GEOMETRY
 10
139.909901
 20
511.323758
 40
1.0
  0
CIRCLE
  8
APS_GEOMETRY
 10
139.909901
 20
497.081117
 40
1.0
  0
CIRCLE
  8
APS_GEOMETRY
 10
132.788581
 20
504.202438
 40
1.0
  0
CIRCLE
  8
APS_GEOMETRY
 10
125.667261
 20
497.081117
 40
1.0
  0
LINE
  8
APS_GEOMETRY
 10
166.788581
 11
166.788581
 20
518.036783
 21
516.036783
  0
LINE
  8
APS_GEOMETRY
 10
166.788581
 11
156.788581
 20
516.036783
 21
516.036783
  0
LINE
  8
APS_GEOMETRY
 10
156.788581
 11
156.788581
 20
516.036783
 21
518.036783
  0
LINE
  8
APS_GEOMETRY
 10
156.788581
 11
152.081323
 20
518.036783
 21
518.036783
  0
ARC
  8
APS_GEOMETRY
 10
150.954236
 20
515.036783
 40
3.0
 50
90.0
 51
180.0
  0
LINE
  8
APS_GEOMETRY
 10
147.954236
 11
147.954236
 20
515.036783
 21
509.202437
  0
LINE
  8
APS_GEOMETRY
 10
147.954236
 11
149.954236
 20
509.202437
 21
509.202437
  0
LINE
  8
APS_GEOMETRY
 10
149.954236
 11
149.954236
 20
509.202437
 21
499.202437
  0
LINE
  8
APS_GEOMETRY
 10
149.954236
 11
147.954236
 20
499.202437
 21
499.202437
  0
LINE
  8
APS_GEOMETRY
 10
147.954236
 11
147.954236
 20
499.202437
 21
493.368092
  0
ARC
  8
APS_GEOMETRY
 10
150.954236
 20
493.368092
 40
3.0
 50
180.0
 51
270.0
  0
LINE
  8
APS_GEOMETRY
 10
150.954236
 11
156.788581
 20
490.368092
 21
490.368092
  0
LINE
  8
APS_GEOMETRY
 10
156.788581
 11
156.788581
 20
490.368092
 21
492.368092
  0
LINE
  8
APS_GEOMETRY
 10
156.788581
 11
166.788582
 20
492.368092
 21
492.368092
  0
LINE
  8
APS_GEOMETRY
 10
166.788582
 11
166.788582
 20
492.368092
 21
490.368092
  0
LINE
  8
APS_GEOMETRY
 10
166.788582
 11
172.622926
 20
490.368092
 21
490.368092
  0
ARC
  8
APS_GEOMETRY
 10
172.622926
 20
493.368092
 40
3.0
 50
270.0
 51
0.0
  0
LINE
  8
APS_GEOMETRY
 10
175.622926
 11
175.622926
 20
493.368092
 21
499.202438
  0
LINE
  8
APS_GEOMETRY
 10
175.622926
 11
173.622927
 20
499.202438
 21
499.202438
  0
LINE
  8
APS_GEOMETRY
 10
173.622927
 11
173.622927
 20
499.202438
 21
509.202438
  0
LINE
  8
APS_GEOMETRY
 10
173.622927
 11
175.622926
 20
509.202438
 21
509.202438
  0
LINE
  8
APS_GEOMETRY
 10
175.622926
 11
175.622926
 20
509.202438
 21
515.036783
  0
ARC
  8
APS_GEOMETRY
 10
172.622926
 20
515.036783
 40
3.0
 50
0.0
 51
90.0
  0
LINE
  8
APS_GEOMETRY
 10
172.622926
 11
166.788581
 20
518.036783
 21
518.036783
  0
CIRCLE
  8
APS_GEOMETRY
 10
154.667261
 20
511.323758
 40
1.0
  0
CIRCLE
  8
APS_GEOMETRY
 10
168.909901
 20
511.323758
 40
1.0
  0
CIRCLE
  8
APS_GEOMETRY
 10
168.909901
 20
497.081117
 40
1.0
  0
CIRCLE
  8
APS_GEOMETRY
 10
161.788581
 20
504.202438
 40
1.0
  0
CIRCLE
  8
APS_GEOMETRY
 10
154.667261
 20
497.081117
 40
1.0
  0
LINE
  8
APS_GEOMETRY
 10
195.788581
 11
195.788581
 20
518.036783
 21
516.036783
  0
LINE
  8
APS_GEOMETRY
 10
195.788581
 11
185.788581
 20
516.036783
 21
516.036783
  0
LINE
  8
APS_GEOMETRY
 10
185.788581
 11
185.788581
 20
516.036783
 21
518.036783
  0
LINE
  8
APS_GEOMETRY
 10
185.788581
 11
181.081323
 20
518.036783
 21
518.036783
  0
ARC
  8
APS_GEOMETRY
 10
179.954236
 20
515.036783
 40
3.0
 50
90.0
 51
180.0
  0
LINE
  8
APS_GEOMETRY
 10
176.954236
 11
176.954236
 20
515.036783
 21
509.202437
  0
LINE
  8
APS_GEOMETRY
 10
176.954236
 11
178.954236
 20
509.202437
 21
509.202437
  0
LINE
  8
APS_GEOMETRY
 10
178.954236
 11
178.954236
 20
509.202437
 21
499.202437
  0
LINE
  8
APS_GEOMETRY
 10
178.954236
 11
176.954236
 20
499.202437
 21
499.202437
  0
LINE
  8
APS_GEOMETRY
 10
176.954236
 11
176.954236
 20
499.202437
 21
493.368092
  0
ARC
  8
APS_GEOMETRY
 10
179.954236
 20
493.368092
 40
3.0
 50
180.0
 51
270.0
  0
LINE
  8
APS_GEOMETRY
 10
179.954236
 11
185.788581
 20
490.368092
 21
490.368092
  0
LINE
  8
APS_GEOMETRY
 10
185.788581
 11
185.788581
 20
490.368092
 21
492.368092
  0
LINE
  8
APS_GEOMETRY
 10
185.788581
 11
195.788582
 20
492.368092
 21
492.368092
  0
LINE
  8
APS_GEOMETRY
 10
195.788582
 11
195.788582
 20
492.368092
 21
490.368092
  0
LINE
  8
APS_GEOMETRY
 10
195.788582
 11
201.622926
 20
490.368092
 21
490.368092
  0
ARC
  8
APS_GEOMETRY
 10
201.622926
 20
493.368092
 40
3.0
 50
270.0
 51
0.0
  0
LINE
  8
APS_GEOMETRY
 10
204.622926
 11
204.622926
 20
493.368092
 21
499.202438
  0
LINE
  8
APS_GEOMETRY
 10
204.622926
 11
202.622927
 20
499.202438
 21
499.202438
  0
LINE
  8
APS_GEOMETRY
 10
202.622927
 11
202.622927
 20
499.202438
 21
509.202438
  0
LINE
  8
APS_GEOMETRY
 10
202.622927
 11
204.622926
 20
509.202438
 21
509.202438
  0
LINE
  8
APS_GEOMETRY
 10
204.622926
 11
204.622926
 20
509.202438
 21
515.036783
  0
ARC
  8
APS_GEOMETRY
 10
201.622926
 20
515.036783
 40
3.0
 50
0.0
 51
90.0
  0
LINE
  8
APS_GEOMETRY
 10
201.622926
 11
195.788581
 20
518.036783
 21
518.036783
  0
CIRCLE
  8
APS_GEOMETRY
 10
183.667261
 20
511.323758
 40
1.0
  0
CIRCLE
  8
APS_GEOMETRY
 10
197.909901
 20
511.323758
 40
1.0
  0
CIRCLE
  8
APS_GEOMETRY
 10
197.909901
 20
497.081117
 40
1.0
  0
CIRCLE
  8
APS_GEOMETRY
 10
190.788581
 20
504.202438
 40
1.0
  0
CIRCLE
  8
APS_GEOMETRY
 10
183.667261
 20
497.081117
 40
1.0
  0
LINE
  8
APS_GEOMETRY
 10
224.788581
 11
224.788581
 20
518.036783
 21
516.036783
  0
LINE
  8
APS_GEOMETRY
 10
224.788581
 11
214.788581
 20
516.036783
 21
516.036783
  0
LINE
  8
APS_GEOMETRY
 10
214.788581
 11
214.788581
 20
516.036783
 21
518.036783
  0
LINE
  8
APS_GEOMETRY
 10
214.788581
 11
210.081323
 20
518.036783
 21
518.036783
  0
ARC
  8
APS_GEOMETRY
 10
208.954236
 20
515.036783
 40
3.0
 50
90.0
 51
180.0
  0
LINE
  8
APS_GEOMETRY
 10
205.954236
 11
205.954236
 20
515.036783
 21
509.202437
  0
LINE
  8
APS_GEOMETRY
 10
205.954236
 11
207.954236
 20
509.202437
 21
509.202437
  0
LINE
  8
APS_GEOMETRY
 10
207.954236
 11
207.954236
 20
509.202437
 21
499.202437
  0
LINE
  8
APS_GEOMETRY
 10
207.954236
 11
205.954236
 20
499.202437
 21
499.202437
  0
LINE
  8
APS_GEOMETRY
 10
205.954236
 11
205.954236
 20
499.202437
 21
493.368092
  0
ARC
  8
APS_GEOMETRY
 10
208.954236
 20
493.368092
 40
3.0
 50
180.0
 51
270.0
  0
LINE
  8
APS_GEOMETRY
 10
208.954236
 11
214.788581
 20
490.368092
 21
490.368092
  0
LINE
  8
APS_GEOMETRY
 10
214.788581
 11
214.788581
 20
490.368092
 21
492.368092
  0
LINE
  8
APS_GEOMETRY
 10
214.788581
 11
224.788582
 20
492.368092
 21
492.368092
  0
LINE
  8
APS_GEOMETRY
 10
224.788582
 11
224.788582
 20
492.368092
 21
490.368092
  0
LINE
  8
APS_GEOMETRY
 10
224.788582
 11
230.622926
 20
490.368092
 21
490.368092
  0
ARC
  8
APS_GEOMETRY
 10
230.622926
 20
493.368092
 40
3.0
 50
270.0
 51
0.0
  0
LINE
  8
APS_GEOMETRY
 10
233.622926
 11
233.622926
 20
493.368092
 21
499.202438
  0
LINE
  8
APS_GEOMETRY
 10
233.622926
 11
231.622927
 20
499.202438
 21
499.202438
  0
LINE
  8
APS_GEOMETRY
 10
231.622927
 11
231.622927
 20
499.202438
 21
509.202438
  0
LINE
  8
APS_GEOMETRY
 10
231.622927
 11
233.622926
 20
509.202438
 21
509.202438
  0
LINE
  8
APS_GEOMETRY
 10
233.622926
 11
233.622926
 20
509.202438
 21
515.036783
  0
ARC
  8
APS_GEOMETRY
 10
230.622926
 20
515.036783
 40
3.0
 50
0.0
 51
90.0
  0
LINE
  8
APS_GEOMETRY
 10
230.622926
 11
224.788581
 20
518.036783
 21
518.036783
  0
CIRCLE
  8
APS_GEOMETRY
 10
212.667261
 20
511.323758
 40
1.0
  0
CIRCLE
  8
APS_GEOMETRY
 10
226.909901
 20
511.323758
 40
1.0
  0
CIRCLE
  8
APS_GEOMETRY
 10
226.909901
 20
497.081117
 40
1.0
  0
CIRCLE
  8
APS_GEOMETRY
 10
219.788581
 20
504.202438
 40
1.0
  0
CIRCLE
  8
APS_GEOMETRY
 10
212.667261
 20
497.081117
 40
1.0
  0
LINE
  8
APS_GEOMETRY
 10
253.788581
 11
253.788581
 20
518.036783
 21
516.036783
  0
LINE
  8
APS_GEOMETRY
 10
253.788581
 11
243.788581
 20
516.036783
 21
516.036783
  0
LINE
  8
APS_GEOMETRY
 10
243.788581
 11
243.788581
 20
516.036783
 21
518.036783
  0
LINE
  8
APS_GEOMETRY
 10
243.788581
 11
239.081323
 20
518.036783
 21
518.036783
  0
ARC
  8
APS_GEOMETRY
 10
237.954236
 20
515.036783
 40
3.0
 50
90.0
 51
180.0
  0
LINE
  8
APS_GEOMETRY
 10
234.954236
 11
234.954236
 20
515.036783
 21
509.202437
  0
LINE
  8
APS_GEOMETRY
 10
234.954236
 11
236.954236
 20
509.202437
 21
509.202437
  0
LINE
  8
APS_GEOMETRY
 10
236.954236
 11
236.954236
 20
509.202437
 21
499.202437
  0
LINE
  8
APS_GEOMETRY
 10
236.954236
 11
234.954236
 20
499.202437
 21
499.202437
  0
LINE
  8
APS_GEOMETRY
 10
234.954236
 11
234.954236
 20
499.202437
 21
493.368092
  0
ARC
  8
APS_GEOMETRY
 10
237.954236
 20
493.368092
 40
3.0
 50
180.0
 51
270.0
  0
LINE
  8
APS_GEOMETRY
 10
237.954236
 11
243.788581
 20
490.368092
 21
490.368092
  0
LINE
  8
APS_GEOMETRY
 10
243.788581
 11
243.788581
 20
490.368092
 21
492.368092
  0
LINE
  8
APS_GEOMETRY
 10
243.788581
 11
253.788582
 20
492.368092
 21
492.368092
  0
LINE
  8
APS_GEOMETRY
 10
253.788582
 11
253.788582
 20
492.368092
 21
490.368092
  0
LINE
  8
APS_GEOMETRY
 10
253.788582
 11
259.622926
 20
490.368092
 21
490.368092
  0
ARC
  8
APS_GEOMETRY
 10
259.622926
 20
493.368092
 40
3.0
 50
270.0
 51
0.0
  0
LINE
  8
APS_GEOMETRY
 10
262.622926
 11
262.622926
 20
493.368092
 21
499.202438
  0
LINE
  8
APS_GEOMETRY
 10
262.622926
 11
260.622927
 20
499.202438
 21
499.202438
  0
LINE
  8
APS_GEOMETRY
 10
260.622927
 11
260.622927
 20
499.202438
 21
509.202438
  0
LINE
  8
APS_GEOMETRY
 10
260.622927
 11
262.622926
 20
509.202438
 21
509.202438
  0
LINE
  8
APS_GEOMETRY
 10
262.622926
 11
262.622926
 20
509.202438
 21
515.036783
  0
ARC
  8
APS_GEOMETRY
 10
259.622926
 20
515.036783
 40
3.0
 50
0.0
 51
90.0
  0
LINE
  8
APS_GEOMETRY
 10
259.622926
 11
253.788581
 20
518.036783
 21
518.036783
  0
CIRCLE
  8
APS_GEOMETRY
 10
241.667261
 20
511.323758
 40
1.0
  0
CIRCLE
  8
APS_GEOMETRY
 10
255.909901
 20
511.323758
 40
1.0
  0
CIRCLE
  8
APS_GEOMETRY
 10
255.909901
 20
497.081117
 40
1.0
  0
CIRCLE
  8
APS_GEOMETRY
 10
248.788581
 20
504.202438
 40
1.0
  0
CIRCLE
  8
APS_GEOMETRY
 10
241.667261
 20
497.081117
 40
1.0
  0
LINE
  8
APS_GEOMETRY
 10
282.788581
 11
282.788581
 20
518.036783
 21
516.036783
  0
LINE
  8
APS_GEOMETRY
 10
282.788581
 11
272.788581
 20
516.036783
 21
516.036783
  0
LINE
  8
APS_GEOMETRY
 10
272.788581
 11
272.788581
 20
516.036783
 21
518.036783
  0
LINE
  8
APS_GEOMETRY
 10
272.788581
 11
268.081323
 20
518.036783
 21
518.036783
  0
ARC
  8
APS_GEOMETRY
 10
266.954236
 20
515.036783
 40
3.0
 50
90.0
 51
180.0
  0
LINE
  8
APS_GEOMETRY
 10
263.954236
 11
263.954236
 20
515.036783
 21
509.202437
  0
LINE
  8
APS_GEOMETRY
 10
263.954236
 11
265.954236
 20
509.202437
 21
509.202437
  0
LINE
  8
APS_GEOMETRY
 10
265.954236
 11
265.954236
 20
509.202437
 21
499.202437
  0
LINE
  8
APS_GEOMETRY
 10
265.954236
 11
263.954236
 20
499.202437
 21
499.202437
  0
LINE
  8
APS_GEOMETRY
 10
263.954236
 11
263.954236
 20
499.202437
 21
493.368092
  0
ARC
  8
APS_GEOMETRY
 10
266.954236
 20
493.368092
 40
3.0
 50
180.0
 51
270.0
  0
LINE
  8
APS_GEOMETRY
 10
266.954236
 11
272.788581
 20
490.368092
 21
490.368092
  0
LINE
  8
APS_GEOMETRY
 10
272.788581
 11
272.788581
 20
490.368092
 21
492.368092
  0
LINE
  8
APS_GEOMETRY
 10
272.788581
 11
282.788582
 20
492.368092
 21
492.368092
  0
LINE
  8
APS_GEOMETRY
 10
282.788582
 11
282.788582
 20
492.368092
 21
490.368092
  0
LINE
  8
APS_GEOMETRY
 10
282.788582
 11
288.622926
 20
490.368092
 21
490.368092
  0
ARC
  8
APS_GEOMETRY
 10
288.622926
 20
493.368092
 40
3.0
 50
270.0
 51
0.0
  0
LINE
  8
APS_GEOMETRY
 10
291.622926
 11
291.622926
 20
493.368092
 21
499.202438
  0
LINE
  8
APS_GEOMETRY
 10
291.622926
 11
289.622927
 20
499.202438
 21
499.202438
  0
LINE
  8
APS_GEOMETRY
 10
289.622927
 11
289.622927
 20
499.202438
 21
509.202438
  0
LINE
  8
APS_GEOMETRY
 10
289.622927
 11
291.622926
 20
509.202438
 21
509.202438
  0
LINE
  8
APS_GEOMETRY
 10
291.622926
 11
291.622926
 20
509.202438
 21
515.036783
  0
ARC
  8
APS_GEOMETRY
 10
288.622926
 20
515.036783
 40
3.0
 50
0.0
 51
90.0
  0
LINE
  8
APS_GEOMETRY
 10
288.622926
 11
282.788581
 20
518.036783
 21
518.036783
  0
CIRCLE
  8
APS_GEOMETRY
 10
270.667261
 20
511.323758
 40
1.0
  0
CIRCLE
  8
APS_GEOMETRY
 10
284.909901
 20
511.323758
 40
1.0
  0
CIRCLE
  8
APS_GEOMETRY
 10
284.909901
 20
497.081117
 40
1.0
  0
CIRCLE
  8
APS_GEOMETRY
 10
277.788581
 20
504.202438
 40
1.0
  0
CIRCLE
  8
APS_GEOMETRY
 10
270.667261
 20
497.081117
 40
1.0
  0
LINE
  8
APS_GEOMETRY
 10
50.788581
 11
50.788581
 20
551.036783
 21
549.036783
  0
LINE
  8
APS_GEOMETRY
 10
50.788581
 11
40.788581
 20
549.036783
 21
549.036783
  0
LINE
  8
APS_GEOMETRY
 10
40.788581
 11
40.788581
 20
549.036783
 21
551.036783
  0
LINE
  8
APS_GEOMETRY
 10
40.788581
 11
36.081323
 20
551.036783
 21
551.036783
  0
ARC
  8
APS_GEOMETRY
 10
34.954236
 20
548.036783
 40
3.0
 50
90.0
 51
180.0
  0
LINE
  8
APS_GEOMETRY
 10
31.954236
 11
31.954236
 20
548.036783
 21
542.202437
  0
LINE
  8
APS_GEOMETRY
 10
31.954236
 11
33.954236
 20
542.202437
 21
542.202437
  0
LINE
  8
APS_GEOMETRY
 10
33.954236
 11
33.954236
 20
542.202437
 21
532.202437
  0
LINE
  8
APS_GEOMETRY
 10
33.954236
 11
31.954236
 20
532.202437
 21
532.202437
  0
LINE
  8
APS_GEOMETRY
 10
31.954236
 11
31.954236
 20
532.202437
 21
526.368092
  0
ARC
  8
APS_GEOMETRY
 10
34.954236
 20
526.368092
 40
3.0
 50
180.0
 51
270.0
  0
LINE
  8
APS_GEOMETRY
 10
34.954236
 11
40.788581
 20
523.368092
 21
523.368092
  0
LINE
  8
APS_GEOMETRY
 10
40.788581
 11
40.788581
 20
523.368092
 21
525.368092
  0
LINE
  8
APS_GEOMETRY
 10
40.788581
 11
50.788582
 20
525.368092
 21
525.368092
  0
LINE
  8
APS_GEOMETRY
 10
50.788582
 11
50.788582
 20
525.368092
 21
523.368092
  0
LINE
  8
APS_GEOMETRY
 10
50.788582
 11
56.622926
 20
523.368092
 21
523.368092
  0
ARC
  8
APS_GEOMETRY
 10
56.622926
 20
526.368092
 40
3.0
 50
270.0
 51
0.0
  0
LINE
  8
APS_GEOMETRY
 10
59.622926
 11
59.622926
 20
526.368092
 21
532.202438
  0
LINE
  8
APS_GEOMETRY
 10
59.622926
 11
57.622927
 20
532.202438
 21
532.202438
  0
LINE
  8
APS_GEOMETRY
 10
57.622927
 11
57.622927
 20
532.202438
 21
542.202438
  0
LINE
  8
APS_GEOMETRY
 10
57.622927
 11
59.622926
 20
542.202438
 21
542.202438
  0
LINE
  8
APS_GEOMETRY
 10
59.622926
 11
59.622926
 20
542.202438
 21
548.036783
  0
ARC
  8
APS_GEOMETRY
 10
56.622926
 20
548.036783
 40
3.0
 50
0.0
 51
90.0
  0
LINE
  8
APS_GEOMETRY
 10
56.622926
 11
50.788581
 20
551.036783
 21
551.036783
  0
CIRCLE
  8
APS_GEOMETRY
 10
38.667261
 20
544.323758
 40
1.0
  0
CIRCLE
  8
APS_GEOMETRY
 10
52.909901
 20
544.323758
 40
1.0
  0
CIRCLE
  8
APS_GEOMETRY
 10
52.909901
 20
530.081117
 40
1.0
  0
CIRCLE
  8
APS_GEOMETRY
 10
45.788581
 20
537.202438
 40
1.0
  0
CIRCLE
  8
APS_GEOMETRY
 10
38.667261
 20
530.081117
 40
1.0
  0
LINE
  8
APS_GEOMETRY
 10
79.788581
 11
79.788581
 20
551.036783
 21
549.036783
  0
LINE
  8
APS_GEOMETRY
 10
79.788581
 11
69.788581
 20
549.036783
 21
549.036783
  0
LINE
  8
APS_GEOMETRY
 10
69.788581
 11
69.788581
 20
549.036783
 21
551.036783
  0
LINE
  8
APS_GEOMETRY
 10
69.788581
 11
65.081323
 20
551.036783
 21
551.036783
  0
ARC
  8
APS_GEOMETRY
 10
63.954236
 20
548.036783
 40
3.0
 50
90.0
 51
180.0
  0
LINE
  8
APS_GEOMETRY
 10
60.954236
 11
60.954236
 20
548.036783
 21
542.202437
  0
LINE
  8
APS_GEOMETRY
 10
60.954236
 11
62.954236
 20
542.202437
 21
542.202437
  0
LINE
  8
APS_GEOMETRY
 10
62.954236
 11
62.954236
 20
542.202437
 21
532.202437
  0
LINE
  8
APS_GEOMETRY
 10
62.954236
 11
60.954236
 20
532.202437
 21
532.202437
  0
LINE
  8
APS_GEOMETRY
 10
60.954236
 11
60.954236
 20
532.202437
 21
526.368092
  0
ARC
  8
APS_GEOMETRY
 10
63.954236
 20
526.368092
 40
3.0
 50
180.0
 51
270.0
  0
LINE
  8
APS_GEOMETRY
 10
63.954236
 11
69.788581
 20
523.368092
 21
523.368092
  0
LINE
  8
APS_GEOMETRY
 10
69.788581
 11
69.788581
 20
523.368092
 21
525.368092
  0
LINE
  8
APS_GEOMETRY
 10
69.788581
 11
79.788582
 20
525.368092
 21
525.368092
  0
LINE
  8
APS_GEOMETRY
 10
79.788582
 11
79.788582
 20
525.368092
 21
523.368092
  0
LINE
  8
APS_GEOMETRY
 10
79.788582
 11
85.622926
 20
523.368092
 21
523.368092
  0
ARC
  8
APS_GEOMETRY
 10
85.622926
 20
526.368092
 40
3.0
 50
270.0
 51
0.0
  0
LINE
  8
APS_GEOMETRY
 10
88.622926
 11
88.622926
 20
526.368092
 21
532.202438
  0
LINE
  8
APS_GEOMETRY
 10
88.622926
 11
86.622927
 20
532.202438
 21
532.202438
  0
LINE
  8
APS_GEOMETRY
 10
86.622927
 11
86.622927
 20
532.202438
 21
542.202438
  0
LINE
  8
APS_GEOMETRY
 10
86.622927
 11
88.622926
 20
542.202438
 21
542.202438
  0
LINE
  8
APS_GEOMETRY
 10
88.622926
 11
88.622926
 20
542.202438
 21
548.036783
  0
ARC
  8
APS_GEOMETRY
 10
85.622926
 20
548.036783
 40
3.0
 50
0.0
 51
90.0
  0
LINE
  8
APS_GEOMETRY
 10
85.622926
 11
79.788581
 20
551.036783
 21
551.036783
  0
CIRCLE
  8
APS_GEOMETRY
 10
67.667261
 20
544.323758
 40
1.0
  0
CIRCLE
  8
APS_GEOMETRY
 10
81.909901
 20
544.323758
 40
1.0
  0
CIRCLE
  8
APS_GEOMETRY
 10
81.909901
 20
530.081117
 40
1.0
  0
CIRCLE
  8
APS_GEOMETRY
 10
74.788581
 20
537.202438
 40
1.0
  0
CIRCLE
  8
APS_GEOMETRY
 10
67.667261
 20
530.081117
 40
1.0
  0
LINE
  8
APS_GEOMETRY
 10
108.788581
 11
108.788581
 20
551.036783
 21
549.036783
  0
LINE
  8
APS_GEOMETRY
 10
108.788581
 11
98.788581
 20
549.036783
 21
549.036783
  0
LINE
  8
APS_GEOMETRY
 10
98.788581
 11
98.788581
 20
549.036783
 21
551.036783
  0
LINE
  8
APS_GEOMETRY
 10
98.788581
 11
94.081323
 20
551.036783
 21
551.036783
  0
ARC
  8
APS_GEOMETRY
 10
92.954236
 20
548.036783
 40
3.0
 50
90.0
 51
180.0
  0
LINE
  8
APS_GEOMETRY
 10
89.954236
 11
89.954236
 20
548.036783
 21
542.202437
  0
LINE
  8
APS_GEOMETRY
 10
89.954236
 11
91.954236
 20
542.202437
 21
542.202437
  0
LINE
  8
APS_GEOMETRY
 10
91.954236
 11
91.954236
 20
542.202437
 21
532.202437
  0
LINE
  8
APS_GEOMETRY
 10
91.954236
 11
89.954236
 20
532.202437
 21
532.202437
  0
LINE
  8
APS_GEOMETRY
 10
89.954236
 11
89.954236
 20
532.202437
 21
526.368092
  0
ARC
  8
APS_GEOMETRY
 10
92.954236
 20
526.368092
 40
3.0
 50
180.0
 51
270.0
  0
LINE
  8
APS_GEOMETRY
 10
92.954236
 11
98.788581
 20
523.368092
 21
523.368092
  0
LINE
  8
APS_GEOMETRY
 10
98.788581
 11
98.788581
 20
523.368092
 21
525.368092
  0
LINE
  8
APS_GEOMETRY
 10
98.788581
 11
108.788582
 20
525.368092
 21
525.368092
  0
LINE
  8
APS_GEOMETRY
 10
108.788582
 11
108.788582
 20
525.368092
 21
523.368092
  0
LINE
  8
APS_GEOMETRY
 10
108.788582
 11
114.622926
 20
523.368092
 21
523.368092
  0
ARC
  8
APS_GEOMETRY
 10
114.622926
 20
526.368092
 40
3.0
 50
270.0
 51
0.0
  0
LINE
  8
APS_GEOMETRY
 10
117.622926
 11
117.622926
 20
526.368092
 21
532.202438
  0
LINE
  8
APS_GEOMETRY
 10
117.622926
 11
115.622927
 20
532.202438
 21
532.202438
  0
LINE
  8
APS_GEOMETRY
 10
115.622927
 11
115.622927
 20
532.202438
 21
542.202438
  0
LINE
  8
APS_GEOMETRY
 10
115.622927
 11
117.622926
 20
542.202438
 21
542.202438
  0
LINE
  8
APS_GEOMETRY
 10
117.622926
 11
117.622926
 20
542.202438
 21
548.036783
  0
ARC
  8
APS_GEOMETRY
 10
114.622926
 20
548.036783
 40
3.0
 50
0.0
 51
90.0
  0
LINE
  8
APS_GEOMETRY
 10
114.622926
 11
108.788581
 20
551.036783
 21
551.036783
  0
CIRCLE
  8
APS_GEOMETRY
 10
96.667261
 20
544.323758
 40
1.0
  0
CIRCLE
  8
APS_GEOMETRY
 10
110.909901
 20
544.323758
 40
1.0
  0
CIRCLE
  8
APS_GEOMETRY
 10
110.909901
 20
530.081117
 40
1.0
  0
CIRCLE
  8
APS_GEOMETRY
 10
103.788581
 20
537.202438
 40
1.0
  0
CIRCLE
  8
APS_GEOMETRY
 10
96.667261
 20
530.081117
 40
1.0
  0
LINE
  8
APS_GEOMETRY
 10
137.788581
 11
137.788581
 20
551.036783
 21
549.036783
  0
LINE
  8
APS_GEOMETRY
 10
137.788581
 11
127.788581
 20
549.036783
 21
549.036783
  0
LINE
  8
APS_GEOMETRY
 10
127.788581
 11
127.788581
 20
549.036783
 21
551.036783
  0
LINE
  8
APS_GEOMETRY
 10
127.788581
 11
123.081323
 20
551.036783
 21
551.036783
  0
ARC
  8
APS_GEOMETRY
 10
121.954236
 20
548.036783
 40
3.0
 50
90.0
 51
180.0
  0
LINE
  8
APS_GEOMETRY
 10
118.954236
 11
118.954236
 20
548.036783
 21
542.202437
  0
LINE
  8
APS_GEOMETRY
 10
118.954236
 11
120.954236
 20
542.202437
 21
542.202437
  0
LINE
  8
APS_GEOMETRY
 10
120.954236
 11
120.954236
 20
542.202437
 21
532.202437
  0
LINE
  8
APS_GEOMETRY
 10
120.954236
 11
118.954236
 20
532.202437
 21
532.202437
  0
LINE
  8
APS_GEOMETRY
 10
118.954236
 11
118.954236
 20
532.202437
 21
526.368092
  0
ARC
  8
APS_GEOMETRY
 10
121.954236
 20
526.368092
 40
3.0
 50
180.0
 51
270.0
  0
LINE
  8
APS_GEOMETRY
 10
121.954236
 11
127.788581
 20
523.368092
 21
523.368092
  0
LINE
  8
APS_GEOMETRY
 10
127.788581
 11
127.788581
 20
523.368092
 21
525.368092
  0
LINE
  8
APS_GEOMETRY
 10
127.788581
 11
137.788582
 20
525.368092
 21
525.368092
  0
LINE
  8
APS_GEOMETRY
 10
137.788582
 11
137.788582
 20
525.368092
 21
523.368092
  0
LINE
  8
APS_GEOMETRY
 10
137.788582
 11
143.622926
 20
523.368092
 21
523.368092
  0
ARC
  8
APS_GEOMETRY
 10
143.622926
 20
526.368092
 40
3.0
 50
270.0
 51
0.0
  0
LINE
  8
APS_GEOMETRY
 10
146.622926
 11
146.622926
 20
526.368092
 21
532.202438
  0
LINE
  8
APS_GEOMETRY
 10
146.622926
 11
144.622927
 20
532.202438
 21
532.202438
  0
LINE
  8
APS_GEOMETRY
 10
144.622927
 11
144.622927
 20
532.202438
 21
542.202438
  0
LINE
  8
APS_GEOMETRY
 10
144.622927
 11
146.622926
 20
542.202438
 21
542.202438
  0
LINE
  8
APS_GEOMETRY
 10
146.622926
 11
146.622926
 20
542.202438
 21
548.036783
  0
ARC
  8
APS_GEOMETRY
 10
143.622926
 20
548.036783
 40
3.0
 50
0.0
 51
90.0
  0
LINE
  8
APS_GEOMETRY
 10
143.622926
 11
137.788581
 20
551.036783
 21
551.036783
  0
CIRCLE
  8
APS_GEOMETRY
 10
125.667261
 20
544.323758
 40
1.0
  0
CIRCLE
  8
APS_GEOMETRY
 10
139.909901
 20
544.323758
 40
1.0
  0
CIRCLE
  8
APS_GEOMETRY
 10
139.909901
 20
530.081117
 40
1.0
  0
CIRCLE
  8
APS_GEOMETRY
 10
132.788581
 20
537.202438
 40
1.0
  0
CIRCLE
  8
APS_GEOMETRY
 10
125.667261
 20
530.081117
 40
1.0
  0
LINE
  8
APS_GEOMETRY
 10
166.788581
 11
166.788581
 20
551.036783
 21
549.036783
  0
LINE
  8
APS_GEOMETRY
 10
166.788581
 11
156.788581
 20
549.036783
 21
549.036783
  0
LINE
  8
APS_GEOMETRY
 10
156.788581
 11
156.788581
 20
549.036783
 21
551.036783
  0
LINE
  8
APS_GEOMETRY
 10
156.788581
 11
152.081323
 20
551.036783
 21
551.036783
  0
ARC
  8
APS_GEOMETRY
 10
150.954236
 20
548.036783
 40
3.0
 50
90.0
 51
180.0
  0
LINE
  8
APS_GEOMETRY
 10
147.954236
 11
147.954236
 20
548.036783
 21
542.202437
  0
LINE
  8
APS_GEOMETRY
 10
147.954236
 11
149.954236
 20
542.202437
 21
542.202437
  0
LINE
  8
APS_GEOMETRY
 10
149.954236
 11
149.954236
 20
542.202437
 21
532.202437
  0
LINE
  8
APS_GEOMETRY
 10
149.954236
 11
147.954236
 20
532.202437
 21
532.202437
  0
LINE
  8
APS_GEOMETRY
 10
147.954236
 11
147.954236
 20
532.202437
 21
526.368092
  0
ARC
  8
APS_GEOMETRY
 10
150.954236
 20
526.368092
 40
3.0
 50
180.0
 51
270.0
  0
LINE
  8
APS_GEOMETRY
 10
150.954236
 11
156.788581
 20
523.368092
 21
523.368092
  0
LINE
  8
APS_GEOMETRY
 10
156.788581
 11
156.788581
 20
523.368092
 21
525.368092
  0
LINE
  8
APS_GEOMETRY
 10
156.788581
 11
166.788582
 20
525.368092
 21
525.368092
  0
LINE
  8
APS_GEOMETRY
 10
166.788582
 11
166.788582
 20
525.368092
 21
523.368092
  0
LINE
  8
APS_GEOMETRY
 10
166.788582
 11
172.622926
 20
523.368092
 21
523.368092
  0
ARC
  8
APS_GEOMETRY
 10
172.622926
 20
526.368092
 40
3.0
 50
270.0
 51
0.0
  0
LINE
  8
APS_GEOMETRY
 10
175.622926
 11
175.622926
 20
526.368092
 21
532.202438
  0
LINE
  8
APS_GEOMETRY
 10
175.622926
 11
173.622927
 20
532.202438
 21
532.202438
  0
LINE
  8
APS_GEOMETRY
 10
173.622927
 11
173.622927
 20
532.202438
 21
542.202438
  0
LINE
  8
APS_GEOMETRY
 10
173.622927
 11
175.622926
 20
542.202438
 21
542.202438
  0
LINE
  8
APS_GEOMETRY
 10
175.622926
 11
175.622926
 20
542.202438
 21
548.036783
  0
ARC
  8
APS_GEOMETRY
 10
172.622926
 20
548.036783
 40
3.0
 50
0.0
 51
90.0
  0
LINE
  8
APS_GEOMETRY
 10
172.622926
 11
166.788581
 20
551.036783
 21
551.036783
  0
CIRCLE
  8
APS_GEOMETRY
 10
154.667261
 20
544.323758
 40
1.0
  0
CIRCLE
  8
APS_GEOMETRY
 10
168.909901
 20
544.323758
 40
1.0
  0
CIRCLE
  8
APS_GEOMETRY
 10
168.909901
 20
530.081117
 40
1.0
  0
CIRCLE
  8
APS_GEOMETRY
 10
161.788581
 20
537.202438
 40
1.0
  0
CIRCLE
  8
APS_GEOMETRY
 10
154.667261
 20
530.081117
 40
1.0
  0
LINE
  8
APS_GEOMETRY
 10
195.788581
 11
195.788581
 20
551.036783
 21
549.036783
  0
LINE
  8
APS_GEOMETRY
 10
195.788581
 11
185.788581
 20
549.036783
 21
549.036783
  0
LINE
  8
APS_GEOMETRY
 10
185.788581
 11
185.788581
 20
549.036783
 21
551.036783
  0
LINE
  8
APS_GEOMETRY
 10
185.788581
 11
181.081323
 20
551.036783
 21
551.036783
  0
ARC
  8
APS_GEOMETRY
 10
179.954236
 20
548.036783
 40
3.0
 50
90.0
 51
180.0
  0
LINE
  8
APS_GEOMETRY
 10
176.954236
 11
176.954236
 20
548.036783
 21
542.202437
  0
LINE
  8
APS_GEOMETRY
 10
176.954236
 11
178.954236
 20
542.202437
 21
542.202437
  0
LINE
  8
APS_GEOMETRY
 10
178.954236
 11
178.954236
 20
542.202437
 21
532.202437
  0
LINE
  8
APS_GEOMETRY
 10
178.954236
 11
176.954236
 20
532.202437
 21
532.202437
  0
LINE
  8
APS_GEOMETRY
 10
176.954236
 11
176.954236
 20
532.202437
 21
526.368092
  0
ARC
  8
APS_GEOMETRY
 10
179.954236
 20
526.368092
 40
3.0
 50
180.0
 51
270.0
  0
LINE
  8
APS_GEOMETRY
 10
179.954236
 11
185.788581
 20
523.368092
 21
523.368092
  0
LINE
  8
APS_GEOMETRY
 10
185.788581
 11
185.788581
 20
523.368092
 21
525.368092
  0
LINE
  8
APS_GEOMETRY
 10
185.788581
 11
195.788582
 20
525.368092
 21
525.368092
  0
LINE
  8
APS_GEOMETRY
 10
195.788582
 11
195.788582
 20
525.368092
 21
523.368092
  0
LINE
  8
APS_GEOMETRY
 10
195.788582
 11
201.622926
 20
523.368092
 21
523.368092
  0
ARC
  8
APS_GEOMETRY
 10
201.622926
 20
526.368092
 40
3.0
 50
270.0
 51
0.0
  0
LINE
  8
APS_GEOMETRY
 10
204.622926
 11
204.622926
 20
526.368092
 21
532.202438
  0
LINE
  8
APS_GEOMETRY
 10
204.622926
 11
202.622927
 20
532.202438
 21
532.202438
  0
LINE
  8
APS_GEOMETRY
 10
202.622927
 11
202.622927
 20
532.202438
 21
542.202438
  0
LINE
  8
APS_GEOMETRY
 10
202.622927
 11
204.622926
 20
542.202438
 21
542.202438
  0
LINE
  8
APS_GEOMETRY
 10
204.622926
 11
204.622926
 20
542.202438
 21
548.036783
  0
ARC
  8
APS_GEOMETRY
 10
201.622926
 20
548.036783
 40
3.0
 50
0.0
 51
90.0
  0
LINE
  8
APS_GEOMETRY
 10
201.622926
 11
195.788581
 20
551.036783
 21
551.036783
  0
CIRCLE
  8
APS_GEOMETRY
 10
183.667261
 20
544.323758
 40
1.0
  0
CIRCLE
  8
APS_GEOMETRY
 10
197.909901
 20
544.323758
 40
1.0
  0
CIRCLE
  8
APS_GEOMETRY
 10
197.909901
 20
530.081117
 40
1.0
  0
CIRCLE
  8
APS_GEOMETRY
 10
190.788581
 20
537.202438
 40
1.0
  0
CIRCLE
  8
APS_GEOMETRY
 10
183.667261
 20
530.081117
 40
1.0
  0
LINE
  8
APS_GEOMETRY
 10
224.788581
 11
224.788581
 20
551.036783
 21
549.036783
  0
LINE
  8
APS_GEOMETRY
 10
224.788581
 11
214.788581
 20
549.036783
 21
549.036783
  0
LINE
  8
APS_GEOMETRY
 10
214.788581
 11
214.788581
 20
549.036783
 21
551.036783
  0
LINE
  8
APS_GEOMETRY
 10
214.788581
 11
210.081323
 20
551.036783
 21
551.036783
  0
ARC
  8
APS_GEOMETRY
 10
208.954236
 20
548.036783
 40
3.0
 50
90.0
 51
180.0
  0
LINE
  8
APS_GEOMETRY
 10
205.954236
 11
205.954236
 20
548.036783
 21
542.202437
  0
LINE
  8
APS_GEOMETRY
 10
205.954236
 11
207.954236
 20
542.202437
 21
542.202437
  0
LINE
  8
APS_GEOMETRY
 10
207.954236
 11
207.954236
 20
542.202437
 21
532.202437
  0
LINE
  8
APS_GEOMETRY
 10
207.954236
 11
205.954236
 20
532.202437
 21
532.202437
  0
LINE
  8
APS_GEOMETRY
 10
205.954236
 11
205.954236
 20
532.202437
 21
526.368092
  0
ARC
  8
APS_GEOMETRY
 10
208.954236
 20
526.368092
 40
3.0
 50
180.0
 51
270.0
  0
LINE
  8
APS_GEOMETRY
 10
208.954236
 11
214.788581
 20
523.368092
 21
523.368092
  0
LINE
  8
APS_GEOMETRY
 10
214.788581
 11
214.788581
 20
523.368092
 21
525.368092
  0
LINE
  8
APS_GEOMETRY
 10
214.788581
 11
224.788582
 20
525.368092
 21
525.368092
  0
LINE
  8
APS_GEOMETRY
 10
224.788582
 11
224.788582
 20
525.368092
 21
523.368092
  0
LINE
  8
APS_GEOMETRY
 10
224.788582
 11
230.622926
 20
523.368092
 21
523.368092
  0
ARC
  8
APS_GEOMETRY
 10
230.622926
 20
526.368092
 40
3.0
 50
270.0
 51
0.0
  0
LINE
  8
APS_GEOMETRY
 10
233.622926
 11
233.622926
 20
526.368092
 21
532.202438
  0
LINE
  8
APS_GEOMETRY
 10
233.622926
 11
231.622927
 20
532.202438
 21
532.202438
  0
LINE
  8
APS_GEOMETRY
 10
231.622927
 11
231.622927
 20
532.202438
 21
542.202438
  0
LINE
  8
APS_GEOMETRY
 10
231.622927
 11
233.622926
 20
542.202438
 21
542.202438
  0
LINE
  8
APS_GEOMETRY
 10
233.622926
 11
233.622926
 20
542.202438
 21
548.036783
  0
ARC
  8
APS_GEOMETRY
 10
230.622926
 20
548.036783
 40
3.0
 50
0.0
 51
90.0
  0
LINE
  8
APS_GEOMETRY
 10
230.622926
 11
224.788581
 20
551.036783
 21
551.036783
  0
CIRCLE
  8
APS_GEOMETRY
 10
212.667261
 20
544.323758
 40
1.0
  0
CIRCLE
  8
APS_GEOMETRY
 10
226.909901
 20
544.323758
 40
1.0
  0
CIRCLE
  8
APS_GEOMETRY
 10
226.909901
 20
530.081117
 40
1.0
  0
CIRCLE
  8
APS_GEOMETRY
 10
219.788581
 20
537.202438
 40
1.0
  0
CIRCLE
  8
APS_GEOMETRY
 10
212.667261
 20
530.081117
 40
1.0
  0
LINE
  8
APS_GEOMETRY
 10
253.788581
 11
253.788581
 20
551.036783
 21
549.036783
  0
LINE
  8
APS_GEOMETRY
 10
253.788581
 11
243.788581
 20
549.036783
 21
549.036783
  0
LINE
  8
APS_GEOMETRY
 10
243.788581
 11
243.788581
 20
549.036783
 21
551.036783
  0
LINE
  8
APS_GEOMETRY
 10
243.788581
 11
239.081323
 20
551.036783
 21
551.036783
  0
ARC
  8
APS_GEOMETRY
 10
237.954236
 20
548.036783
 40
3.0
 50
90.0
 51
180.0
  0
LINE
  8
APS_GEOMETRY
 10
234.954236
 11
234.954236
 20
548.036783
 21
542.202437
  0
LINE
  8
APS_GEOMETRY
 10
234.954236
 11
236.954236
 20
542.202437
 21
542.202437
  0
LINE
  8
APS_GEOMETRY
 10
236.954236
 11
236.954236
 20
542.202437
 21
532.202437
  0
LINE
  8
APS_GEOMETRY
 10
236.954236
 11
234.954236
 20
532.202437
 21
532.202437
  0
LINE
  8
APS_GEOMETRY
 10
234.954236
 11
234.954236
 20
532.202437
 21
526.368092
  0
ARC
  8
APS_GEOMETRY
 10
237.954236
 20
526.368092
 40
3.0
 50
180.0
 51
270.0
  0
LINE
  8
APS_GEOMETRY
 10
237.954236
 11
243.788581
 20
523.368092
 21
523.368092
  0
LINE
  8
APS_GEOMETRY
 10
243.788581
 11
243.788581
 20
523.368092
 21
525.368092
  0
LINE
  8
APS_GEOMETRY
 10
243.788581
 11
253.788582
 20
525.368092
 21
525.368092
  0
LINE
  8
APS_GEOMETRY
 10
253.788582
 11
253.788582
 20
525.368092
 21
523.368092
  0
LINE
  8
APS_GEOMETRY
 10
253.788582
 11
259.622926
 20
523.368092
 21
523.368092
  0
ARC
  8
APS_GEOMETRY
 10
259.622926
 20
526.368092
 40
3.0
 50
270.0
 51
0.0
  0
LINE
  8
APS_GEOMETRY
 10
262.622926
 11
262.622926
 20
526.368092
 21
532.202438
  0
LINE
  8
APS_GEOMETRY
 10
262.622926
 11
260.622927
 20
532.202438
 21
532.202438
  0
LINE
  8
APS_GEOMETRY
 10
260.622927
 11
260.622927
 20
532.202438
 21
542.202438
  0
LINE
  8
APS_GEOMETRY
 10
260.622927
 11
262.622926
 20
542.202438
 21
542.202438
  0
LINE
  8
APS_GEOMETRY
 10
262.622926
 11
262.622926
 20
542.202438
 21
548.036783
  0
ARC
  8
APS_GEOMETRY
 10
259.622926
 20
548.036783
 40
3.0
 50
0.0
 51
90.0
  0
LINE
  8
APS_GEOMETRY
 10
259.622926
 11
253.788581
 20
551.036783
 21
551.036783
  0
CIRCLE
  8
APS_GEOMETRY
 10
241.667261
 20
544.323758
 40
1.0
  0
CIRCLE
  8
APS_GEOMETRY
 10
255.909901
 20
544.323758
 40
1.0
  0
CIRCLE
  8
APS_GEOMETRY
 10
255.909901
 20
530.081117
 40
1.0
  0
CIRCLE
  8
APS_GEOMETRY
 10
248.788581
 20
537.202438
 40
1.0
  0
CIRCLE
  8
APS_GEOMETRY
 10
241.667261
 20
530.081117
 40
1.0
  0
LINE
  8
APS_GEOMETRY
 10
282.788581
 11
282.788581
 20
551.036783
 21
549.036783
  0
LINE
  8
APS_GEOMETRY
 10
282.788581
 11
272.788581
 20
549.036783
 21
549.036783
  0
LINE
  8
APS_GEOMETRY
 10
272.788581
 11
272.788581
 20
549.036783
 21
551.036783
  0
LINE
  8
APS_GEOMETRY
 10
272.788581
 11
268.081323
 20
551.036783
 21
551.036783
  0
ARC
  8
APS_GEOMETRY
 10
266.954236
 20
548.036783
 40
3.0
 50
90.0
 51
180.0
  0
LINE
  8
APS_GEOMETRY
 10
263.954236
 11
263.954236
 20
548.036783
 21
542.202437
  0
LINE
  8
APS_GEOMETRY
 10
263.954236
 11
265.954236
 20
542.202437
 21
542.202437
  0
LINE
  8
APS_GEOMETRY
 10
265.954236
 11
265.954236
 20
542.202437
 21
532.202437
  0
LINE
  8
APS_GEOMETRY
 10
265.954236
 11
263.954236
 20
532.202437
 21
532.202437
  0
LINE
  8
APS_GEOMETRY
 10
263.954236
 11
263.954236
 20
532.202437
 21
526.368092
  0
ARC
  8
APS_GEOMETRY
 10
266.954236
 20
526.368092
 40
3.0
 50
180.0
 51
270.0
  0
LINE
  8
APS_GEOMETRY
 10
266.954236
 11
272.788581
 20
523.368092
 21
523.368092
  0
LINE
  8
APS_GEOMETRY
 10
272.788581
 11
272.788581
 20
523.368092
 21
525.368092
  0
LINE
  8
APS_GEOMETRY
 10
272.788581
 11
282.788582
 20
525.368092
 21
525.368092
  0
LINE
  8
APS_GEOMETRY
 10
282.788582
 11
282.788582
 20
525.368092
 21
523.368092
  0
LINE
  8
APS_GEOMETRY
 10
282.788582
 11
288.622926
 20
523.368092
 21
523.368092
  0
ARC
  8
APS_GEOMETRY
 10
288.622926
 20
526.368092
 40
3.0
 50
270.0
 51
0.0
  0
LINE
  8
APS_GEOMETRY
 10
291.622926
 11
291.622926
 20
526.368092
 21
532.202438
  0
LINE
  8
APS_GEOMETRY
 10
291.622926
 11
289.622927
 20
532.202438
 21
532.202438
  0
LINE
  8
APS_GEOMETRY
 10
289.622927
 11
289.622927
 20
532.202438
 21
542.202438
  0
LINE
  8
APS_GEOMETRY
 10
289.622927
 11
291.622926
 20
542.202438
 21
542.202438
  0
LINE
  8
APS_GEOMETRY
 10
291.622926
 11
291.622926
 20
542.202438
 21
548.036783
  0
ARC
  8
APS_GEOMETRY
 10
288.622926
 20
548.036783
 40
3.0
 50
0.0
 51
90.0
  0
LINE
  8
APS_GEOMETRY
 10
288.622926
 11
282.788581
 20
551.036783
 21
551.036783
  0
CIRCLE
  8
APS_GEOMETRY
 10
270.667261
 20
544.323758
 40
1.0
  0
CIRCLE
  8
APS_GEOMETRY
 10
284.909901
 20
544.323758
 40
1.0
  0
CIRCLE
  8
APS_GEOMETRY
 10
284.909901
 20
530.081117
 40
1.0
  0
CIRCLE
  8
APS_GEOMETRY
 10
277.788581
 20
537.202438
 40
1.0
  0
CIRCLE
  8
APS_GEOMETRY
 10
270.667261
 20
530.081117
 40
1.0
  0
LINE
  8
APS_GEOMETRY
 10
50.788581
 11
50.788581
 20
584.036783
 21
582.036783
  0
LINE
  8
APS_GEOMETRY
 10
50.788581
 11
40.788581
 20
582.036783
 21
582.036783
  0
LINE
  8
APS_GEOMETRY
 10
40.788581
 11
40.788581
 20
582.036783
 21
584.036783
  0
LINE
  8
APS_GEOMETRY
 10
40.788581
 11
36.081323
 20
584.036783
 21
584.036783
  0
ARC
  8
APS_GEOMETRY
 10
34.954236
 20
581.036783
 40
3.0
 50
90.0
 51
180.0
  0
LINE
  8
APS_GEOMETRY
 10
31.954236
 11
31.954236
 20
581.036783
 21
575.202437
  0
LINE
  8
APS_GEOMETRY
 10
31.954236
 11
33.954236
 20
575.202437
 21
575.202437
  0
LINE
  8
APS_GEOMETRY
 10
33.954236
 11
33.954236
 20
575.202437
 21
565.202437
  0
LINE
  8
APS_GEOMETRY
 10
33.954236
 11
31.954236
 20
565.202437
 21
565.202437
  0
LINE
  8
APS_GEOMETRY
 10
31.954236
 11
31.954236
 20
565.202437
 21
559.368092
  0
ARC
  8
APS_GEOMETRY
 10
34.954236
 20
559.368092
 40
3.0
 50
180.0
 51
270.0
  0
LINE
  8
APS_GEOMETRY
 10
34.954236
 11
40.788581
 20
556.368092
 21
556.368092
  0
LINE
  8
APS_GEOMETRY
 10
40.788581
 11
40.788581
 20
556.368092
 21
558.368092
  0
LINE
  8
APS_GEOMETRY
 10
40.788581
 11
50.788582
 20
558.368092
 21
558.368092
  0
LINE
  8
APS_GEOMETRY
 10
50.788582
 11
50.788582
 20
558.368092
 21
556.368092
  0
LINE
  8
APS_GEOMETRY
 10
50.788582
 11
56.622926
 20
556.368092
 21
556.368092
  0
ARC
  8
APS_GEOMETRY
 10
56.622926
 20
559.368092
 40
3.0
 50
270.0
 51
0.0
  0
LINE
  8
APS_GEOMETRY
 10
59.622926
 11
59.622926
 20
559.368092
 21
565.202438
  0
LINE
  8
APS_GEOMETRY
 10
59.622926
 11
57.622927
 20
565.202438
 21
565.202438
  0
LINE
  8
APS_GEOMETRY
 10
57.622927
 11
57.622927
 20
565.202438
 21
575.202438
  0
LINE
  8
APS_GEOMETRY
 10
57.622927
 11
59.622926
 20
575.202438
 21
575.202438
  0
LINE
  8
APS_GEOMETRY
 10
59.622926
 11
59.622926
 20
575.202438
 21
581.036783
  0
ARC
  8
APS_GEOMETRY
 10
56.622926
 20
581.036783
 40
3.0
 50
0.0
 51
90.0
  0
LINE
  8
APS_GEOMETRY
 10
56.622926
 11
50.788581
 20
584.036783
 21
584.036783
  0
CIRCLE
  8
APS_GEOMETRY
 10
38.667261
 20
577.323758
 40
1.0
  0
CIRCLE
  8
APS_GEOMETRY
 10
52.909901
 20
577.323758
 40
1.0
  0
CIRCLE
  8
APS_GEOMETRY
 10
52.909901
 20
563.081117
 40
1.0
  0
CIRCLE
  8
APS_GEOMETRY
 10
45.788581
 20
570.202438
 40
1.0
  0
CIRCLE
  8
APS_GEOMETRY
 10
38.667261
 20
563.081117
 40
1.0
  0
LINE
  8
APS_GEOMETRY
 10
79.788581
 11
79.788581
 20
584.036783
 21
582.036783
  0
LINE
  8
APS_GEOMETRY
 10
79.788581
 11
69.788581
 20
582.036783
 21
582.036783
  0
LINE
  8
APS_GEOMETRY
 10
69.788581
 11
69.788581
 20
582.036783
 21
584.036783
  0
LINE
  8
APS_GEOMETRY
 10
69.788581
 11
65.081323
 20
584.036783
 21
584.036783
  0
ARC
  8
APS_GEOMETRY
 10
63.954236
 20
581.036783
 40
3.0
 50
90.0
 51
180.0
  0
LINE
  8
APS_GEOMETRY
 10
60.954236
 11
60.954236
 20
581.036783
 21
575.202437
  0
LINE
  8
APS_GEOMETRY
 10
60.954236
 11
62.954236
 20
575.202437
 21
575.202437
  0
LINE
  8
APS_GEOMETRY
 10
62.954236
 11
62.954236
 20
575.202437
 21
565.202437
  0
LINE
  8
APS_GEOMETRY
 10
62.954236
 11
60.954236
 20
565.202437
 21
565.202437
  0
LINE
  8
APS_GEOMETRY
 10
60.954236
 11
60.954236
 20
565.202437
 21
559.368092
  0
ARC
  8
APS_GEOMETRY
 10
63.954236
 20
559.368092
 40
3.0
 50
180.0
 51
270.0
  0
LINE
  8
APS_GEOMETRY
 10
63.954236
 11
69.788581
 20
556.368092
 21
556.368092
  0
LINE
  8
APS_GEOMETRY
 10
69.788581
 11
69.788581
 20
556.368092
 21
558.368092
  0
LINE
  8
APS_GEOMETRY
 10
69.788581
 11
79.788582
 20
558.368092
 21
558.368092
  0
LINE
  8
APS_GEOMETRY
 10
79.788582
 11
79.788582
 20
558.368092
 21
556.368092
  0
LINE
  8
APS_GEOMETRY
 10
79.788582
 11
85.622926
 20
556.368092
 21
556.368092
  0
ARC
  8
APS_GEOMETRY
 10
85.622926
 20
559.368092
 40
3.0
 50
270.0
 51
0.0
  0
LINE
  8
APS_GEOMETRY
 10
88.622926
 11
88.622926
 20
559.368092
 21
565.202438
  0
LINE
  8
APS_GEOMETRY
 10
88.622926
 11
86.622927
 20
565.202438
 21
565.202438
  0
LINE
  8
APS_GEOMETRY
 10
86.622927
 11
86.622927
 20
565.202438
 21
575.202438
  0
LINE
  8
APS_GEOMETRY
 10
86.622927
 11
88.622926
 20
575.202438
 21
575.202438
  0
LINE
  8
APS_GEOMETRY
 10
88.622926
 11
88.622926
 20
575.202438
 21
581.036783
  0
ARC
  8
APS_GEOMETRY
 10
85.622926
 20
581.036783
 40
3.0
 50
0.0
 51
90.0
  0
LINE
  8
APS_GEOMETRY
 10
85.622926
 11
79.788581
 20
584.036783
 21
584.036783
  0
CIRCLE
  8
APS_GEOMETRY
 10
67.667261
 20
577.323758
 40
1.0
  0
CIRCLE
  8
APS_GEOMETRY
 10
81.909901
 20
577.323758
 40
1.0
  0
CIRCLE
  8
APS_GEOMETRY
 10
81.909901
 20
563.081117
 40
1.0
  0
CIRCLE
  8
APS_GEOMETRY
 10
74.788581
 20
570.202438
 40
1.0
  0
CIRCLE
  8
APS_GEOMETRY
 10
67.667261
 20
563.081117
 40
1.0
  0
LINE
  8
APS_GEOMETRY
 10
108.788581
 11
108.788581
 20
584.036783
 21
582.036783
  0
LINE
  8
APS_GEOMETRY
 10
108.788581
 11
98.788581
 20
582.036783
 21
582.036783
  0
LINE
  8
APS_GEOMETRY
 10
98.788581
 11
98.788581
 20
582.036783
 21
584.036783
  0
LINE
  8
APS_GEOMETRY
 10
98.788581
 11
94.081323
 20
584.036783
 21
584.036783
  0
ARC
  8
APS_GEOMETRY
 10
92.954236
 20
581.036783
 40
3.0
 50
90.0
 51
180.0
  0
LINE
  8
APS_GEOMETRY
 10
89.954236
 11
89.954236
 20
581.036783
 21
575.202437
  0
LINE
  8
APS_GEOMETRY
 10
89.954236
 11
91.954236
 20
575.202437
 21
575.202437
  0
LINE
  8
APS_GEOMETRY
 10
91.954236
 11
91.954236
 20
575.202437
 21
565.202437
  0
LINE
  8
APS_GEOMETRY
 10
91.954236
 11
89.954236
 20
565.202437
 21
565.202437
  0
LINE
  8
APS_GEOMETRY
 10
89.954236
 11
89.954236
 20
565.202437
 21
559.368092
  0
ARC
  8
APS_GEOMETRY
 10
92.954236
 20
559.368092
 40
3.0
 50
180.0
 51
270.0
  0
LINE
  8
APS_GEOMETRY
 10
92.954236
 11
98.788581
 20
556.368092
 21
556.368092
  0
LINE
  8
APS_GEOMETRY
 10
98.788581
 11
98.788581
 20
556.368092
 21
558.368092
  0
LINE
  8
APS_GEOMETRY
 10
98.788581
 11
108.788582
 20
558.368092
 21
558.368092
  0
LINE
  8
APS_GEOMETRY
 10
108.788582
 11
108.788582
 20
558.368092
 21
556.368092
  0
LINE
  8
APS_GEOMETRY
 10
108.788582
 11
114.622926
 20
556.368092
 21
556.368092
  0
ARC
  8
APS_GEOMETRY
 10
114.622926
 20
559.368092
 40
3.0
 50
270.0
 51
0.0
  0
LINE
  8
APS_GEOMETRY
 10
117.622926
 11
117.622926
 20
559.368092
 21
565.202438
  0
LINE
  8
APS_GEOMETRY
 10
117.622926
 11
115.622927
 20
565.202438
 21
565.202438
  0
LINE
  8
APS_GEOMETRY
 10
115.622927
 11
115.622927
 20
565.202438
 21
575.202438
  0
LINE
  8
APS_GEOMETRY
 10
115.622927
 11
117.622926
 20
575.202438
 21
575.202438
  0
LINE
  8
APS_GEOMETRY
 10
117.622926
 11
117.622926
 20
575.202438
 21
581.036783
  0
ARC
  8
APS_GEOMETRY
 10
114.622926
 20
581.036783
 40
3.0
 50
0.0
 51
90.0
  0
LINE
  8
APS_GEOMETRY
 10
114.622926
 11
108.788581
 20
584.036783
 21
584.036783
  0
CIRCLE
  8
APS_GEOMETRY
 10
96.667261
 20
577.323758
 40
1.0
  0
CIRCLE
  8
APS_GEOMETRY
 10
110.909901
 20
577.323758
 40
1.0
  0
CIRCLE
  8
APS_GEOMETRY
 10
110.909901
 20
563.081117
 40
1.0
  0
CIRCLE
  8
APS_GEOMETRY
 10
103.788581
 20
570.202438
 40
1.0
  0
CIRCLE
  8
APS_GEOMETRY
 10
96.667261
 20
563.081117
 40
1.0
  0
LINE
  8
APS_GEOMETRY
 10
137.788581
 11
137.788581
 20
584.036783
 21
582.036783
  0
LINE
  8
APS_GEOMETRY
 10
137.788581
 11
127.788581
 20
582.036783
 21
582.036783
  0
LINE
  8
APS_GEOMETRY
 10
127.788581
 11
127.788581
 20
582.036783
 21
584.036783
  0
LINE
  8
APS_GEOMETRY
 10
127.788581
 11
123.081323
 20
584.036783
 21
584.036783
  0
ARC
  8
APS_GEOMETRY
 10
121.954236
 20
581.036783
 40
3.0
 50
90.0
 51
180.0
  0
LINE
  8
APS_GEOMETRY
 10
118.954236
 11
118.954236
 20
581.036783
 21
575.202437
  0
LINE
  8
APS_GEOMETRY
 10
118.954236
 11
120.954236
 20
575.202437
 21
575.202437
  0
LINE
  8
APS_GEOMETRY
 10
120.954236
 11
120.954236
 20
575.202437
 21
565.202437
  0
LINE
  8
APS_GEOMETRY
 10
120.954236
 11
118.954236
 20
565.202437
 21
565.202437
  0
LINE
  8
APS_GEOMETRY
 10
118.954236
 11
118.954236
 20
565.202437
 21
559.368092
  0
ARC
  8
APS_GEOMETRY
 10
121.954236
 20
559.368092
 40
3.0
 50
180.0
 51
270.0
  0
LINE
  8
APS_GEOMETRY
 10
121.954236
 11
127.788581
 20
556.368092
 21
556.368092
  0
LINE
  8
APS_GEOMETRY
 10
127.788581
 11
127.788581
 20
556.368092
 21
558.368092
  0
LINE
  8
APS_GEOMETRY
 10
127.788581
 11
137.788582
 20
558.368092
 21
558.368092
  0
LINE
  8
APS_GEOMETRY
 10
137.788582
 11
137.788582
 20
558.368092
 21
556.368092
  0
LINE
  8
APS_GEOMETRY
 10
137.788582
 11
143.622926
 20
556.368092
 21
556.368092
  0
ARC
  8
APS_GEOMETRY
 10
143.622926
 20
559.368092
 40
3.0
 50
270.0
 51
0.0
  0
LINE
  8
APS_GEOMETRY
 10
146.622926
 11
146.622926
 20
559.368092
 21
565.202438
  0
LINE
  8
APS_GEOMETRY
 10
146.622926
 11
144.622927
 20
565.202438
 21
565.202438
  0
LINE
  8
APS_GEOMETRY
 10
144.622927
 11
144.622927
 20
565.202438
 21
575.202438
  0
LINE
  8
APS_GEOMETRY
 10
144.622927
 11
146.622926
 20
575.202438
 21
575.202438
  0
LINE
  8
APS_GEOMETRY
 10
146.622926
 11
146.622926
 20
575.202438
 21
581.036783
  0
ARC
  8
APS_GEOMETRY
 10
143.622926
 20
581.036783
 40
3.0
 50
0.0
 51
90.0
  0
LINE
  8
APS_GEOMETRY
 10
143.622926
 11
137.788581
 20
584.036783
 21
584.036783
  0
CIRCLE
  8
APS_GEOMETRY
 10
125.667261
 20
577.323758
 40
1.0
  0
CIRCLE
  8
APS_GEOMETRY
 10
139.909901
 20
577.323758
 40
1.0
  0
CIRCLE
  8
APS_GEOMETRY
 10
139.909901
 20
563.081117
 40
1.0
  0
CIRCLE
  8
APS_GEOMETRY
 10
132.788581
 20
570.202438
 40
1.0
  0
CIRCLE
  8
APS_GEOMETRY
 10
125.667261
 20
563.081117
 40
1.0
  0
LINE
  8
APS_GEOMETRY
 10
166.788581
 11
166.788581
 20
584.036783
 21
582.036783
  0
LINE
  8
APS_GEOMETRY
 10
166.788581
 11
156.788581
 20
582.036783
 21
582.036783
  0
LINE
  8
APS_GEOMETRY
 10
156.788581
 11
156.788581
 20
582.036783
 21
584.036783
  0
LINE
  8
APS_GEOMETRY
 10
156.788581
 11
152.081323
 20
584.036783
 21
584.036783
  0
ARC
  8
APS_GEOMETRY
 10
150.954236
 20
581.036783
 40
3.0
 50
90.0
 51
180.0
  0
LINE
  8
APS_GEOMETRY
 10
147.954236
 11
147.954236
 20
581.036783
 21
575.202437
  0
LINE
  8
APS_GEOMETRY
 10
147.954236
 11
149.954236
 20
575.202437
 21
575.202437
  0
LINE
  8
APS_GEOMETRY
 10
149.954236
 11
149.954236
 20
575.202437
 21
565.202437
  0
LINE
  8
APS_GEOMETRY
 10
149.954236
 11
147.954236
 20
565.202437
 21
565.202437
  0
LINE
  8
APS_GEOMETRY
 10
147.954236
 11
147.954236
 20
565.202437
 21
559.368092
  0
ARC
  8
APS_GEOMETRY
 10
150.954236
 20
559.368092
 40
3.0
 50
180.0
 51
270.0
  0
LINE
  8
APS_GEOMETRY
 10
150.954236
 11
156.788581
 20
556.368092
 21
556.368092
  0
LINE
  8
APS_GEOMETRY
 10
156.788581
 11
156.788581
 20
556.368092
 21
558.368092
  0
LINE
  8
APS_GEOMETRY
 10
156.788581
 11
166.788582
 20
558.368092
 21
558.368092
  0
LINE
  8
APS_GEOMETRY
 10
166.788582
 11
166.788582
 20
558.368092
 21
556.368092
  0
LINE
  8
APS_GEOMETRY
 10
166.788582
 11
172.622926
 20
556.368092
 21
556.368092
  0
ARC
  8
APS_GEOMETRY
 10
172.622926
 20
559.368092
 40
3.0
 50
270.0
 51
0.0
  0
LINE
  8
APS_GEOMETRY
 10
175.622926
 11
175.622926
 20
559.368092
 21
565.202438
  0
LINE
  8
APS_GEOMETRY
 10
175.622926
 11
173.622927
 20
565.202438
 21
565.202438
  0
LINE
  8
APS_GEOMETRY
 10
173.622927
 11
173.622927
 20
565.202438
 21
575.202438
  0
LINE
  8
APS_GEOMETRY
 10
173.622927
 11
175.622926
 20
575.202438
 21
575.202438
  0
LINE
  8
APS_GEOMETRY
 10
175.622926
 11
175.622926
 20
575.202438
 21
581.036783
  0
ARC
  8
APS_GEOMETRY
 10
172.622926
 20
581.036783
 40
3.0
 50
0.0
 51
90.0
  0
LINE
  8
APS_GEOMETRY
 10
172.622926
 11
166.788581
 20
584.036783
 21
584.036783
  0
CIRCLE
  8
APS_GEOMETRY
 10
154.667261
 20
577.323758
 40
1.0
  0
CIRCLE
  8
APS_GEOMETRY
 10
168.909901
 20
577.323758
 40
1.0
  0
CIRCLE
  8
APS_GEOMETRY
 10
168.909901
 20
563.081117
 40
1.0
  0
CIRCLE
  8
APS_GEOMETRY
 10
161.788581
 20
570.202438
 40
1.0
  0
CIRCLE
  8
APS_GEOMETRY
 10
154.667261
 20
563.081117
 40
1.0
  0
LINE
  8
APS_GEOMETRY
 10
195.788581
 11
195.788581
 20
584.036783
 21
582.036783
  0
LINE
  8
APS_GEOMETRY
 10
195.788581
 11
185.788581
 20
582.036783
 21
582.036783
  0
LINE
  8
APS_GEOMETRY
 10
185.788581
 11
185.788581
 20
582.036783
 21
584.036783
  0
LINE
  8
APS_GEOMETRY
 10
185.788581
 11
181.081323
 20
584.036783
 21
584.036783
  0
ARC
  8
APS_GEOMETRY
 10
179.954236
 20
581.036783
 40
3.0
 50
90.0
 51
180.0
  0
LINE
  8
APS_GEOMETRY
 10
176.954236
 11
176.954236
 20
581.036783
 21
575.202437
  0
LINE
  8
APS_GEOMETRY
 10
176.954236
 11
178.954236
 20
575.202437
 21
575.202437
  0
LINE
  8
APS_GEOMETRY
 10
178.954236
 11
178.954236
 20
575.202437
 21
565.202437
  0
LINE
  8
APS_GEOMETRY
 10
178.954236
 11
176.954236
 20
565.202437
 21
565.202437
  0
LINE
  8
APS_GEOMETRY
 10
176.954236
 11
176.954236
 20
565.202437
 21
559.368092
  0
ARC
  8
APS_GEOMETRY
 10
179.954236
 20
559.368092
 40
3.0
 50
180.0
 51
270.0
  0
LINE
  8
APS_GEOMETRY
 10
179.954236
 11
185.788581
 20
556.368092
 21
556.368092
  0
LINE
  8
APS_GEOMETRY
 10
185.788581
 11
185.788581
 20
556.368092
 21
558.368092
  0
LINE
  8
APS_GEOMETRY
 10
185.788581
 11
195.788582
 20
558.368092
 21
558.368092
  0
LINE
  8
APS_GEOMETRY
 10
195.788582
 11
195.788582
 20
558.368092
 21
556.368092
  0
LINE
  8
APS_GEOMETRY
 10
195.788582
 11
201.622926
 20
556.368092
 21
556.368092
  0
ARC
  8
APS_GEOMETRY
 10
201.622926
 20
559.368092
 40
3.0
 50
270.0
 51
0.0
  0
LINE
  8
APS_GEOMETRY
 10
204.622926
 11
204.622926
 20
559.368092
 21
565.202438
  0
LINE
  8
APS_GEOMETRY
 10
204.622926
 11
202.622927
 20
565.202438
 21
565.202438
  0
LINE
  8
APS_GEOMETRY
 10
202.622927
 11
202.622927
 20
565.202438
 21
575.202438
  0
LINE
  8
APS_GEOMETRY
 10
202.622927
 11
204.622926
 20
575.202438
 21
575.202438
  0
LINE
  8
APS_GEOMETRY
 10
204.622926
 11
204.622926
 20
575.202438
 21
581.036783
  0
ARC
  8
APS_GEOMETRY
 10
201.622926
 20
581.036783
 40
3.0
 50
0.0
 51
90.0
  0
LINE
  8
APS_GEOMETRY
 10
201.622926
 11
195.788581
 20
584.036783
 21
584.036783
  0
CIRCLE
  8
APS_GEOMETRY
 10
183.667261
 20
577.323758
 40
1.0
  0
CIRCLE
  8
APS_GEOMETRY
 10
197.909901
 20
577.323758
 40
1.0
  0
CIRCLE
  8
APS_GEOMETRY
 10
197.909901
 20
563.081117
 40
1.0
  0
CIRCLE
  8
APS_GEOMETRY
 10
190.788581
 20
570.202438
 40
1.0
  0
CIRCLE
  8
APS_GEOMETRY
 10
183.667261
 20
563.081117
 40
1.0
  0
LINE
  8
APS_GEOMETRY
 10
224.788581
 11
224.788581
 20
584.036783
 21
582.036783
  0
LINE
  8
APS_GEOMETRY
 10
224.788581
 11
214.788581
 20
582.036783
 21
582.036783
  0
LINE
  8
APS_GEOMETRY
 10
214.788581
 11
214.788581
 20
582.036783
 21
584.036783
  0
LINE
  8
APS_GEOMETRY
 10
214.788581
 11
210.081323
 20
584.036783
 21
584.036783
  0
ARC
  8
APS_GEOMETRY
 10
208.954236
 20
581.036783
 40
3.0
 50
90.0
 51
180.0
  0
LINE
  8
APS_GEOMETRY
 10
205.954236
 11
205.954236
 20
581.036783
 21
575.202437
  0
LINE
  8
APS_GEOMETRY
 10
205.954236
 11
207.954236
 20
575.202437
 21
575.202437
  0
LINE
  8
APS_GEOMETRY
 10
207.954236
 11
207.954236
 20
575.202437
 21
565.202437
  0
LINE
  8
APS_GEOMETRY
 10
207.954236
 11
205.954236
 20
565.202437
 21
565.202437
  0
LINE
  8
APS_GEOMETRY
 10
205.954236
 11
205.954236
 20
565.202437
 21
559.368092
  0
ARC
  8
APS_GEOMETRY
 10
208.954236
 20
559.368092
 40
3.0
 50
180.0
 51
270.0
  0
LINE
  8
APS_GEOMETRY
 10
208.954236
 11
214.788581
 20
556.368092
 21
556.368092
  0
LINE
  8
APS_GEOMETRY
 10
214.788581
 11
214.788581
 20
556.368092
 21
558.368092
  0
LINE
  8
APS_GEOMETRY
 10
214.788581
 11
224.788582
 20
558.368092
 21
558.368092
  0
LINE
  8
APS_GEOMETRY
 10
224.788582
 11
224.788582
 20
558.368092
 21
556.368092
  0
LINE
  8
APS_GEOMETRY
 10
224.788582
 11
230.622926
 20
556.368092
 21
556.368092
  0
ARC
  8
APS_GEOMETRY
 10
230.622926
 20
559.368092
 40
3.0
 50
270.0
 51
0.0
  0
LINE
  8
APS_GEOMETRY
 10
233.622926
 11
233.622926
 20
559.368092
 21
565.202438
  0
LINE
  8
APS_GEOMETRY
 10
233.622926
 11
231.622927
 20
565.202438
 21
565.202438
  0
LINE
  8
APS_GEOMETRY
 10
231.622927
 11
231.622927
 20
565.202438
 21
575.202438
  0
LINE
  8
APS_GEOMETRY
 10
231.622927
 11
233.622926
 20
575.202438
 21
575.202438
  0
LINE
  8
APS_GEOMETRY
 10
233.622926
 11
233.622926
 20
575.202438
 21
581.036783
  0
ARC
  8
APS_GEOMETRY
 10
230.622926
 20
581.036783
 40
3.0
 50
0.0
 51
90.0
  0
LINE
  8
APS_GEOMETRY
 10
230.622926
 11
224.788581
 20
584.036783
 21
584.036783
  0
CIRCLE
  8
APS_GEOMETRY
 10
212.667261
 20
577.323758
 40
1.0
  0
CIRCLE
  8
APS_GEOMETRY
 10
226.909901
 20
577.323758
 40
1.0
  0
CIRCLE
  8
APS_GEOMETRY
 10
226.909901
 20
563.081117
 40
1.0
  0
CIRCLE
  8
APS_GEOMETRY
 10
219.788581
 20
570.202438
 40
1.0
  0
CIRCLE
  8
APS_GEOMETRY
 10
212.667261
 20
563.081117
 40
1.0
  0
LINE
  8
APS_GEOMETRY
 10
253.788581
 11
253.788581
 20
584.036783
 21
582.036783
  0
LINE
  8
APS_GEOMETRY
 10
253.788581
 11
243.788581
 20
582.036783
 21
582.036783
  0
LINE
  8
APS_GEOMETRY
 10
243.788581
 11
243.788581
 20
582.036783
 21
584.036783
  0
LINE
  8
APS_GEOMETRY
 10
243.788581
 11
239.081323
 20
584.036783
 21
584.036783
  0
ARC
  8
APS_GEOMETRY
 10
237.954236
 20
581.036783
 40
3.0
 50
90.0
 51
180.0
  0
LINE
  8
APS_GEOMETRY
 10
234.954236
 11
234.954236
 20
581.036783
 21
575.202437
  0
LINE
  8
APS_GEOMETRY
 10
234.954236
 11
236.954236
 20
575.202437
 21
575.202437
  0
LINE
  8
APS_GEOMETRY
 10
236.954236
 11
236.954236
 20
575.202437
 21
565.202437
  0
LINE
  8
APS_GEOMETRY
 10
236.954236
 11
234.954236
 20
565.202437
 21
565.202437
  0
LINE
  8
APS_GEOMETRY
 10
234.954236
 11
234.954236
 20
565.202437
 21
559.368092
  0
ARC
  8
APS_GEOMETRY
 10
237.954236
 20
559.368092
 40
3.0
 50
180.0
 51
270.0
  0
LINE
  8
APS_GEOMETRY
 10
237.954236
 11
243.788581
 20
556.368092
 21
556.368092
  0
LINE
  8
APS_GEOMETRY
 10
243.788581
 11
243.788581
 20
556.368092
 21
558.368092
  0
LINE
  8
APS_GEOMETRY
 10
243.788581
 11
253.788582
 20
558.368092
 21
558.368092
  0
LINE
  8
APS_GEOMETRY
 10
253.788582
 11
253.788582
 20
558.368092
 21
556.368092
  0
LINE
  8
APS_GEOMETRY
 10
253.788582
 11
259.622926
 20
556.368092
 21
556.368092
  0
ARC
  8
APS_GEOMETRY
 10
259.622926
 20
559.368092
 40
3.0
 50
270.0
 51
0.0
  0
LINE
  8
APS_GEOMETRY
 10
262.622926
 11
262.622926
 20
559.368092
 21
565.202438
  0
LINE
  8
APS_GEOMETRY
 10
262.622926
 11
260.622927
 20
565.202438
 21
565.202438
  0
LINE
  8
APS_GEOMETRY
 10
260.622927
 11
260.622927
 20
565.202438
 21
575.202438
  0
LINE
  8
APS_GEOMETRY
 10
260.622927
 11
262.622926
 20
575.202438
 21
575.202438
  0
LINE
  8
APS_GEOMETRY
 10
262.622926
 11
262.622926
 20
575.202438
 21
581.036783
  0
ARC
  8
APS_GEOMETRY
 10
259.622926
 20
581.036783
 40
3.0
 50
0.0
 51
90.0
  0
LINE
  8
APS_GEOMETRY
 10
259.622926
 11
253.788581
 20
584.036783
 21
584.036783
  0
CIRCLE
  8
APS_GEOMETRY
 10
241.667261
 20
577.323758
 40
1.0
  0
CIRCLE
  8
APS_GEOMETRY
 10
255.909901
 20
577.323758
 40
1.0
  0
CIRCLE
  8
APS_GEOMETRY
 10
255.909901
 20
563.081117
 40
1.0
  0
CIRCLE
  8
APS_GEOMETRY
 10
248.788581
 20
570.202438
 40
1.0
  0
CIRCLE
  8
APS_GEOMETRY
 10
241.667261
 20
563.081117
 40
1.0
  0
LINE
  8
APS_GEOMETRY
 10
282.788581
 11
282.788581
 20
584.036783
 21
582.036783
  0
LINE
  8
APS_GEOMETRY
 10
282.788581
 11
272.788581
 20
582.036783
 21
582.036783
  0
LINE
  8
APS_GEOMETRY
 10
272.788581
 11
272.788581
 20
582.036783
 21
584.036783
  0
LINE
  8
APS_GEOMETRY
 10
272.788581
 11
268.081323
 20
584.036783
 21
584.036783
  0
ARC
  8
APS_GEOMETRY
 10
266.954236
 20
581.036783
 40
3.0
 50
90.0
 51
180.0
  0
LINE
  8
APS_GEOMETRY
 10
263.954236
 11
263.954236
 20
581.036783
 21
575.202437
  0
LINE
  8
APS_GEOMETRY
 10
263.954236
 11
265.954236
 20
575.202437
 21
575.202437
  0
LINE
  8
APS_GEOMETRY
 10
265.954236
 11
265.954236
 20
575.202437
 21
565.202437
  0
LINE
  8
APS_GEOMETRY
 10
265.954236
 11
263.954236
 20
565.202437
 21
565.202437
  0
LINE
  8
APS_GEOMETRY
 10
263.954236
 11
263.954236
 20
565.202437
 21
559.368092
  0
ARC
  8
APS_GEOMETRY
 10
266.954236
 20
559.368092
 40
3.0
 50
180.0
 51
270.0
  0
LINE
  8
APS_GEOMETRY
 10
266.954236
 11
272.788581
 20
556.368092
 21
556.368092
  0
LINE
  8
APS_GEOMETRY
 10
272.788581
 11
272.788581
 20
556.368092
 21
558.368092
  0
LINE
  8
APS_GEOMETRY
 10
272.788581
 11
282.788582
 20
558.368092
 21
558.368092
  0
LINE
  8
APS_GEOMETRY
 10
282.788582
 11
282.788582
 20
558.368092
 21
556.368092
  0
LINE
  8
APS_GEOMETRY
 10
282.788582
 11
288.622926
 20
556.368092
 21
556.368092
  0
ARC
  8
APS_GEOMETRY
 10
288.622926
 20
559.368092
 40
3.0
 50
270.0
 51
0.0
  0
LINE
  8
APS_GEOMETRY
 10
291.622926
 11
291.622926
 20
559.368092
 21
565.202438
  0
LINE
  8
APS_GEOMETRY
 10
291.622926
 11
289.622927
 20
565.202438
 21
565.202438
  0
LINE
  8
APS_GEOMETRY
 10
289.622927
 11
289.622927
 20
565.202438
 21
575.202438
  0
LINE
  8
APS_GEOMETRY
 10
289.622927
 11
291.622926
 20
575.202438
 21
575.202438
  0
LINE
  8
APS_GEOMETRY
 10
291.622926
 11
291.622926
 20
575.202438
 21
581.036783
  0
ARC
  8
APS_GEOMETRY
 10
288.622926
 20
581.036783
 40
3.0
 50
0.0
 51
90.0
  0
LINE
  8
APS_GEOMETRY
 10
288.622926
 11
282.788581
 20
584.036783
 21
584.036783
  0
CIRCLE
  8
APS_GEOMETRY
 10
270.667261
 20
577.323758
 40
1.0
  0
CIRCLE
  8
APS_GEOMETRY
 10
284.909901
 20
577.323758
 40
1.0
  0
CIRCLE
  8
APS_GEOMETRY
 10
284.909901
 20
563.081117
 40
1.0
  0
CIRCLE
  8
APS_GEOMETRY
 10
277.788581
 20
570.202438
 40
1.0
  0
CIRCLE
  8
APS_GEOMETRY
 10
270.667261
 20
563.081117
 40
1.0
  0
ARC
  8
APS_GEOMETRY
 10
-75.377072
 20
540.9385
 40
2.0
 50
270.0
 51
0.0
  0
LINE
  8
APS_GEOMETRY
 10
-75.377072
 11
-95.045764
 20
538.9385
 21
538.9385
  0
ARC
  8
APS_GEOMETRY
 10
-95.045764
 20
540.9385
 40
2.0
 50
180.0
 51
270.0
  0
ARC
  8
APS_GEOMETRY
 10
-104.545764
 20
531.438502
 40
2.0
 50
0.0
 51
90.0
  0
LINE
  8
APS_GEOMETRY
 10
-102.545764
 11
-102.545764
 20
531.438502
 21
511.76981
  0
ARC
  8
APS_GEOMETRY
 10
-104.545764
 20
511.76981
 40
2.0
 50
270.0
 51
0.0
  0
ARC
  8
APS_GEOMETRY
 10
-95.045766
 20
502.26981
 40
2.0
 50
90.0
 51
180.0
  0
LINE
  8
APS_GEOMETRY
 10
-95.045766
 11
-75.377073
 20
504.26981
 21
504.26981
  0
ARC
  8
APS_GEOMETRY
 10
-75.377073
 20
502.26981
 40
2.0
 50
0.0
 51
90.0
  0
ARC
  8
APS_GEOMETRY
 10
-65.877073
 20
511.769808
 40
2.0
 50
180.0
 51
270.0
  0
LINE
  8
APS_GEOMETRY
 10
-67.877073
 11
-67.877073
 20
511.769808
 21
531.4385
  0
ARC
  8
APS_GEOMETRY
 10
-65.877073
 20
531.4385
 40
2.0
 50
90.0
 51
180.0
  0
ARC
  8
APS_GEOMETRY
 10
-30.134803
 20
540.9385
 40
2.0
 50
270.0
 51
0.0
  0
LINE
  8
APS_GEOMETRY
 10
-30.134803
 11
-32.744398
 20
538.9385
 21
538.9385
  0
LINE
  8
APS_GEOMETRY
 10
-47.193901
 11
-49.803495
 20
538.9385
 21
538.9385
  0
ARC
  8
APS_GEOMETRY
 10
-49.803495
 20
540.9385
 40
2.0
 50
180.0
 51
270.0
  0
ARC
  8
APS_GEOMETRY
 10
-59.303495
 20
531.438502
 40
2.0
 50
0.0
 51
90.0
  0
LINE
  8
APS_GEOMETRY
 10
-57.303495
 11
-57.303495
 20
531.438502
 21
528.828907
  0
LINE
  8
APS_GEOMETRY
 10
-57.303495
 11
-57.303495
 20
514.379404
 21
511.76981
  0
ARC
  8
APS_GEOMETRY
 10
-59.303495
 20
511.76981
 40
2.0
 50
270.0
 51
0.0
  0
ARC
  8
APS_GEOMETRY
 10
-49.803497
 20
502.26981
 40
2.0
 50
90.0
 51
180.0
  0
LINE
  8
APS_GEOMETRY
 10
-49.803497
 11
-47.193901
 20
504.26981
 21
504.26981
  0
LINE
  8
APS_GEOMETRY
 10
-32.744398
 11
-30.134804
 20
504.26981
 21
504.26981
  0
ARC
  8
APS_GEOMETRY
 10
-30.134804
 20
502.26981
 40
2.0
 50
0.0
 51
90.0
  0
ARC
  8
APS_GEOMETRY
 10
-20.634804
 20
511.769808
 40
2.0
 50
180.0
 51
270.0
  0
LINE
  8
APS_GEOMETRY
 10
-22.634804
 11
-22.634804
 20
511.769808
 21
514.379405
  0
LINE
  8
APS_GEOMETRY
 10
-22.634804
 11
-22.634804
 20
528.828903
 21
531.4385
  0
ARC
  8
APS_GEOMETRY
 10
-20.634804
 20
531.4385
 40
2.0
 50
90.0
 51
180.0
  0
ARC
  8
APS_GEOMETRY
 10
-150.54358
 20
490.551484
 40
1.0
 50
0.0
 51
90.0
  0
LINE
  8
APS_GEOMETRY
 10
-149.54358
 11
-149.54358
 20
490.551484
 21
481.422752
  0
LINE
  8
APS_GEOMETRY
 10
-149.54358
 11
-147.54358
 20
481.422752
 21
481.422752
  0
LINE
  8
APS_GEOMETRY
 10
-147.54358
 11
-147.54358
 20
481.422752
 21
490.551484
  0
ARC
  8
APS_GEOMETRY
 10
-146.54358
 20
490.551484
 40
1.0
 50
90.0
 51
180.0
  0
ARC
  8
APS_GEOMETRY
 10
-116.87489
 20
490.551484
 40
1.0
 50
0.000004
 51
90.0
  0
LINE
  8
APS_GEOMETRY
 10
-115.87489
 11
-115.87489
 20
490.551484
 21
481.422752
  0
LINE
  8
APS_GEOMETRY
 10
-115.87489
 11
-113.87489
 20
481.422752
 21
481.422752
  0
LINE
  8
APS_GEOMETRY
 10
-113.87489
 11
-113.87489
 20
481.422752
 21
490.551484
  0
ARC
  8
APS_GEOMETRY
 10
-112.87489
 20
490.551484
 40
1.0
 50
90.0
 51
180.000004
  0
ARC
  8
APS_GEOMETRY
 10
-150.54358
 20
462.551484
 40
1.0
 50
0.0
 51
90.0
  0
LINE
  8
APS_GEOMETRY
 10
-149.54358
 11
-149.54358
 20
462.551484
 21
453.422752
  0
LINE
  8
APS_GEOMETRY
 10
-149.54358
 11
-147.54358
 20
453.422752
 21
453.422752
  0
LINE
  8
APS_GEOMETRY
 10
-147.54358
 11
-147.54358
 20
453.422752
 21
462.551484
  0
ARC
  8
APS_GEOMETRY
 10
-146.54358
 20
462.551484
 40
1.0
 50
90.0
 51
180.0
  0
ARC
  8
APS_GEOMETRY
 10
-116.87489
 20
462.551484
 40
1.0
 50
0.000004
 51
90.0
  0
LINE
  8
APS_GEOMETRY
 10
-115.87489
 11
-115.87489
 20
462.551484
 21
453.422752
  0
LINE
  8
APS_GEOMETRY
 10
-115.87489
 11
-113.87489
 20
453.422752
 21
453.422752
  0
LINE
  8
APS_GEOMETRY
 10
-113.87489
 11
-113.87489
 20
453.422752
 21
462.551484
  0
ARC
  8
APS_GEOMETRY
 10
-112.87489
 20
462.551484
 40
1.0
 50
90.0
 51
180.000004
  0
TEXT
  8
TEXT
 10
-175.0
 20
418.0
 30
0.0
 40
10.0
 50
0.0
  1
2mm Acrylic
  0
TEXT
  8
TEXT
 10
118.0
 20
358.0
 30
0.0
 40
10.0
 50
0.0
  1
200 gram card
  0
TEXT
  8
TEXT
 10
118.0
 20
343.0
 30
0.0
 40
10.0
 50
0.0
  1

  0
ENDSEC
  0
EOF
