  0
SECTION
  2
ENTITIES
  0
CIRCLE
  8
APS_GEOMETRY
 10
-226.00275
 20
340.756999
 40
1.0
  0
CIRCLE
  8
APS_GEOMETRY
 10
-250.00275
 20
340.756829
 40
1.0
  0
CIRCLE
  8
APS_GEOMETRY
 10
-180.466132
 20
340.756999
 40
1.0
  0
CIRCLE
  8
APS_GEOMETRY
 10
-204.466132
 20
340.756829
 40
1.0
  0
CIRCLE
  8
APS_GEOMETRY
 10
-134.929513
 20
340.756999
 40
1.0
  0
CIRCLE
  8
APS_GEOMETRY
 10
-158.929513
 20
340.756829
 40
1.0
  0
CIRCLE
  8
APS_GEOMETRY
 10
-89.392895
 20
340.756999
 40
1.0
  0
CIRCLE
  8
APS_GEOMETRY
 10
-113.392895
 20
340.756829
 40
1.0
  0
CIRCLE
  8
APS_GEOMETRY
 10
-43.856276
 20
340.756999
 40
1.0
  0
CIRCLE
  8
APS_GEOMETRY
 10
-67.856276
 20
340.756829
 40
1.0
  0
CIRCLE
  8
APS_GEOMETRY
 10
1.680343
 20
340.756999
 40
1.0
  0
CIRCLE
  8
APS_GEOMETRY
 10
-22.319657
 20
340.756829
 40
1.0
  0
ARC
  8
APS_GEOMETRY
 10
48.090043
 20
205.345449
 40
1.0
 50
180.0
 51
270.0
  0
LINE
  8
APS_GEOMETRY
 10
48.090043
 11
52.090043
 20
204.345449
 21
204.345449
  0
LINE
  8
APS_GEOMETRY
 10
52.090043
 11
52.090043
 20
204.345449
 21
199.345449
  0
LINE
  8
APS_GEOMETRY
 10
52.090043
 11
62.090043
 20
199.345449
 21
199.345449
  0
LINE
  8
APS_GEOMETRY
 10
62.090043
 11
62.090043
 20
199.345449
 21
195.345449
  0
ARC
  8
APS_GEOMETRY
 10
63.090043
 20
195.345449
 40
1.0
 50
180.0
 51
270.0
  0
LINE
  8
APS_GEOMETRY
 10
63.090043
 11
71.090043
 20
194.345449
 21
194.345449
  0
ARC
  8
APS_GEOMETRY
 10
71.090043
 20
195.345449
 40
1.0
 50
270.0
 51
0.0
  0
LINE
  8
APS_GEOMETRY
 10
72.090043
 11
72.090043
 20
195.345449
 21
199.345449
  0
LINE
  8
APS_GEOMETRY
 10
72.090043
 11
82.090043
 20
199.345449
 21
199.345449
  0
LINE
  8
APS_GEOMETRY
 10
82.090043
 11
82.090043
 20
199.345449
 21
204.345449
  0
LINE
  8
APS_GEOMETRY
 10
82.090043
 11
86.090043
 20
204.345449
 21
204.345449
  0
ARC
  8
APS_GEOMETRY
 10
86.090043
 20
205.345449
 40
1.0
 50
270.0
 51
0.0
  0
LINE
  8
APS_GEOMETRY
 10
87.090043
 11
87.090043
 20
205.345449
 21
213.345449
  0
ARC
  8
APS_GEOMETRY
 10
86.090043
 20
213.345449
 40
1.0
 50
0.0
 51
90.0
  0
LINE
  8
APS_GEOMETRY
 10
86.090043
 11
82.090043
 20
214.345449
 21
214.345449
  0
LINE
  8
APS_GEOMETRY
 10
82.090043
 11
82.090043
 20
214.345449
 21
232.345449
  0
LINE
  8
APS_GEOMETRY
 10
82.090043
 11
52.090043
 20
232.345449
 21
232.345449
  0
LINE
  8
APS_GEOMETRY
 10
52.090043
 11
52.090043
 20
232.345449
 21
214.345449
  0
LINE
  8
APS_GEOMETRY
 10
52.090043
 11
48.090043
 20
214.345449
 21
214.345449
  0
ARC
  8
APS_GEOMETRY
 10
48.090043
 20
213.345449
 40
1.0
 50
90.0
 51
180.0
  0
LINE
  8
APS_GEOMETRY
 10
47.090043
 11
47.090043
 20
213.345449
 21
205.345449
  0
ARC
  8
APS_GEOMETRY
 10
286.560597
 20
225.109563
 40
3.0
 50
0.0
 51
90.0
  0
LINE
  8
APS_GEOMETRY
 10
286.560597
 11
262.560597
 20
228.109563
 21
228.109563
  0
ARC
  8
APS_GEOMETRY
 10
262.560597
 20
225.109563
 40
3.0
 50
90.0
 51
180.0
  0
LINE
  8
APS_GEOMETRY
 10
259.560597
 11
259.560597
 20
225.109563
 21
161.109563
  0
ARC
  8
APS_GEOMETRY
 10
262.560597
 20
161.109563
 40
3.0
 50
180.0
 51
270.0
  0
LINE
  8
APS_GEOMETRY
 10
262.560597
 11
286.560597
 20
158.109563
 21
158.109563
  0
ARC
  8
APS_GEOMETRY
 10
286.560597
 20
161.109563
 40
3.0
 50
270.0
 51
0.0
  0
LINE
  8
APS_GEOMETRY
 10
289.560597
 11
289.560597
 20
161.109563
 21
173.109563
  0
LINE
  8
APS_GEOMETRY
 10
289.560597
 11
279.560597
 20
173.109563
 21
173.109563
  0
LINE
  8
APS_GEOMETRY
 10
279.560597
 11
279.560597
 20
173.109563
 21
178.109563
  0
LINE
  8
APS_GEOMETRY
 10
279.560597
 11
289.560597
 20
178.109563
 21
178.109563
  0
LINE
  8
APS_GEOMETRY
 10
289.560597
 11
289.560597
 20
178.109563
 21
208.109563
  0
LINE
  8
APS_GEOMETRY
 10
289.560597
 11
279.560597
 20
208.109563
 21
208.109563
  0
LINE
  8
APS_GEOMETRY
 10
279.560597
 11
279.560597
 20
208.109563
 21
213.109563
  0
LINE
  8
APS_GEOMETRY
 10
279.560597
 11
289.560597
 20
213.109563
 21
213.109563
  0
LINE
  8
APS_GEOMETRY
 10
289.560597
 11
289.560597
 20
213.109563
 21
225.109563
  0
ARC
  8
APS_GEOMETRY
 10
86.005005
 20
169.842642
 40
1.0
 50
270.0
 51
0.0
  0
LINE
  8
APS_GEOMETRY
 10
87.005005
 11
87.005005
 20
169.842642
 21
177.842642
  0
ARC
  8
APS_GEOMETRY
 10
86.005005
 20
177.842642
 40
1.0
 50
0.0
 51
90.0
  0
LINE
  8
APS_GEOMETRY
 10
86.005005
 11
82.005005
 20
178.842642
 21
178.842642
  0
LINE
  8
APS_GEOMETRY
 10
82.005005
 11
82.005005
 20
178.842642
 21
188.842642
  0
LINE
  8
APS_GEOMETRY
 10
82.005005
 11
52.005005
 20
188.842642
 21
188.842642
  0
LINE
  8
APS_GEOMETRY
 10
52.005005
 11
52.005005
 20
188.842642
 21
178.842642
  0
LINE
  8
APS_GEOMETRY
 10
52.005005
 11
48.005005
 20
178.842642
 21
178.842642
  0
ARC
  8
APS_GEOMETRY
 10
48.005005
 20
177.842642
 40
1.0
 50
90.0
 51
180.0
  0
LINE
  8
APS_GEOMETRY
 10
47.005005
 11
47.005005
 20
177.842642
 21
169.842642
  0
ARC
  8
APS_GEOMETRY
 10
48.005005
 20
169.842642
 40
1.0
 50
180.0
 51
270.0
  0
LINE
  8
APS_GEOMETRY
 10
48.005005
 11
52.005005
 20
168.842642
 21
168.842642
  0
LINE
  8
APS_GEOMETRY
 10
52.005005
 11
52.005005
 20
168.842642
 21
163.842642
  0
LINE
  8
APS_GEOMETRY
 10
52.005005
 11
62.005005
 20
163.842642
 21
163.842642
  0
LINE
  8
APS_GEOMETRY
 10
62.005005
 11
62.005005
 20
163.842642
 21
159.842642
  0
ARC
  8
APS_GEOMETRY
 10
63.005005
 20
159.842642
 40
1.0
 50
180.0
 51
270.0
  0
LINE
  8
APS_GEOMETRY
 10
63.005005
 11
71.005005
 20
158.842642
 21
158.842642
  0
ARC
  8
APS_GEOMETRY
 10
71.005005
 20
159.842642
 40
1.0
 50
270.0
 51
0.0
  0
LINE
  8
APS_GEOMETRY
 10
72.005005
 11
72.005005
 20
159.842642
 21
163.842642
  0
LINE
  8
APS_GEOMETRY
 10
72.005005
 11
82.005005
 20
163.842642
 21
163.842642
  0
LINE
  8
APS_GEOMETRY
 10
82.005005
 11
82.005005
 20
163.842642
 21
168.842642
  0
LINE
  8
APS_GEOMETRY
 10
82.005005
 11
86.005005
 20
168.842642
 21
168.842642
  0
ARC
  8
APS_GEOMETRY
 10
248.577396
 20
205.653866
 40
3.0
 50
0.0
 51
90.0
  0
LINE
  8
APS_GEOMETRY
 10
248.577396
 11
94.577396
 20
208.653866
 21
208.653866
  0
ARC
  8
APS_GEOMETRY
 10
94.577396
 20
205.653866
 40
3.0
 50
90.0
 51
180.0
  0
LINE
  8
APS_GEOMETRY
 10
91.577396
 11
91.577396
 20
205.653866
 21
161.653866
  0
ARC
  8
APS_GEOMETRY
 10
94.577396
 20
161.653866
 40
3.0
 50
180.0
 51
270.0
  0
LINE
  8
APS_GEOMETRY
 10
94.577396
 11
248.577396
 20
158.653866
 21
158.653866
  0
ARC
  8
APS_GEOMETRY
 10
248.577396
 20
161.653866
 40
3.0
 50
270.0
 51
0.0
  0
LINE
  8
APS_GEOMETRY
 10
251.577396
 11
251.577396
 20
161.653866
 21
205.653866
  0
ARC
  8
APS_GEOMETRY
 10
-102.61839
 20
157.264812
 40
1.865667
 50
202.7274
 51
247.2726
  0
ARC
  8
APS_GEOMETRY
 10
-102.589194
 20
157.298968
 40
1.9085
 50
246.860301
 51
293.140747
  0
ARC
  8
APS_GEOMETRY
 10
-102.548778
 20
157.222098
 40
1.821945
 50
292.922039
 51
357.893262
  0
ARC
  8
APS_GEOMETRY
 10
-102.368336
 20
157.21259
 40
1.641278
 50
357.993392
 51
71.191243
  0
ARC
  8
APS_GEOMETRY
 10
-102.589278
 20
156.560385
 40
2.329889
 50
71.219133
 51
108.775449
  0
ARC
  8
APS_GEOMETRY
 10
-102.736779
 20
156.960042
 40
1.904056
 50
108.443885
 51
138.941046
  0
LINE
  8
APS_GEOMETRY
 10
-104.172502
 11
-103.783612
 20
158.210693
 21
160.432923
  0
LINE
  8
APS_GEOMETRY
 10
-103.783612
 11
-101.283612
 20
160.432923
 21
160.432923
  0
ARC
  8
APS_GEOMETRY
 10
-97.769434
 20
157.007048
 40
1.637
 50
218.6887
 51
321.3113
  0
ARC
  8
APS_GEOMETRY
 10
-98.85674
 20
157.900472
 40
3.044222
 50
320.978111
 51
39.020728
  0
ARC
  8
APS_GEOMETRY
 10
-97.769405
 20
158.793862
 40
1.637
 50
38.688131
 51
141.31289
  0
ARC
  8
APS_GEOMETRY
 10
-96.682099
 20
157.900437
 40
3.044222
 50
140.978963
 51
219.021028
  0
ARC
  8
APS_GEOMETRY
 10
-86.959859
 20
156.625979
 40
1.17055
 50
206.2329
 51
333.7671
  0
ARC
  8
APS_GEOMETRY
 10
-87.708563
 20
157.008588
 40
2.0113
 50
333.417862
 51
26.581299
  0
ARC
  8
APS_GEOMETRY
 10
-86.959854
 20
157.391188
 40
1.17055
 50
26.232
 51
153.767605
  0
ARC
  8
APS_GEOMETRY
 10
-86.21115
 20
157.008578
 40
2.0113
 50
153.418151
 51
206.581818
  0
ARC
  8
APS_GEOMETRY
 10
-79.162766
 20
159.157954
 40
1.190389
 50
118.020712
 51
169.471704
  0
ARC
  8
APS_GEOMETRY
 10
-78.777589
 20
158.453645
 40
1.993111
 50
61.713838
 51
118.283697
  0
ARC
  8
APS_GEOMETRY
 10
-78.447948
 20
159.153223
 40
1.221556
 50
300.220037
 51
59.779425
  0
LINE
  8
APS_GEOMETRY
 10
-77.833112
 11
-79.721989
 20
158.097678
 21
156.93101
  0
ARC
  8
APS_GEOMETRY
 10
-78.792933
 20
155.433388
 40
1.762389
 50
121.813563
 51
180.07656
  0
LINE
  8
APS_GEOMETRY
 10
-80.55532
 11
-77.221988
 20
155.431033
 21
155.43101
  0
ARC
  8
APS_GEOMETRY
 10
-74.247111
 20
157.007048
 40
1.637
 50
218.6887
 51
321.3113
  0
ARC
  8
APS_GEOMETRY
 10
-75.334418
 20
157.900472
 40
3.044222
 50
320.978126
 51
39.020743
  0
ARC
  8
APS_GEOMETRY
 10
-74.247083
 20
158.793861
 40
1.637
 50
38.688159
 51
141.312862
  0
ARC
  8
APS_GEOMETRY
 10
-73.159776
 20
157.900437
 40
3.044222
 50
140.978963
 51
219.021028
  0
ARC
  8
APS_GEOMETRY
 10
-69.333308
 20
157.007048
 40
1.637
 50
218.6887
 51
321.3113
  0
ARC
  8
APS_GEOMETRY
 10
-70.420615
 20
157.900472
 40
3.044222
 50
320.978126
 51
39.020743
  0
ARC
  8
APS_GEOMETRY
 10
-69.33328
 20
158.793862
 40
1.637
 50
38.688131
 51
141.31289
  0
ARC
  8
APS_GEOMETRY
 10
-68.245973
 20
157.900438
 40
3.044222
 50
140.978978
 51
219.021043
  0
ARC
  8
APS_GEOMETRY
 10
-60.656129
 20
155.314031
 40
1.1235
 50
236.695
 51
298.3259
  0
ARC
  8
APS_GEOMETRY
 10
-60.392129
 20
154.826521
 40
0.5691
 50
298.217888
 51
359.847692
  0
LINE
  8
APS_GEOMETRY
 10
-59.823031
 11
-59.823029
 20
154.825009
 21
158.575031
  0
ARC
  8
APS_GEOMETRY
 10
-60.877783
 20
157.288688
 40
1.28635
 50
34.918935
 51
89.788286
  0
ARC
  8
APS_GEOMETRY
 10
-60.870821
 20
157.398381
 40
1.17665
 50
90.107563
 51
153.411206
  0
ARC
  8
APS_GEOMETRY
 10
-60.124333
 20
157.025023
 40
2.0113
 50
153.418143
 51
206.580988
  0
ARC
  8
APS_GEOMETRY
 10
-60.870833
 20
156.651688
 40
1.17665
 50
206.588587
 51
269.892768
  0
ARC
  8
APS_GEOMETRY
 10
-60.877779
 20
156.761381
 40
1.28635
 50
270.211306
 51
325.080683
  0
LINE
  8
APS_GEOMETRY
 10
-56.681773
 11
-56.681735
 20
155.431033
 21
157.73105
  0
ARC
  8
APS_GEOMETRY
 10
-57.527273
 20
157.735495
 40
0.84555
 50
359.698802
 51
90.305782
  0
ARC
  8
APS_GEOMETRY
 10
-57.532923
 20
157.126633
 40
1.4544
 50
89.9552
 51
153.259818
  0
LINE
  8
APS_GEOMETRY
 10
-54.531773
 11
-54.531735
 20
155.431033
 21
157.73105
  0
ARC
  8
APS_GEOMETRY
 10
-55.377273
 20
157.735495
 40
0.84555
 50
359.698802
 51
90.305782
  0
ARC
  8
APS_GEOMETRY
 10
-55.382923
 20
157.126633
 40
1.4544
 50
89.9552
 51
153.259818
  0
ARC
  8
APS_GEOMETRY
 10
-47.995141
 20
157.195079
 40
1.28635
 50
34.918935
 51
89.788286
  0
ARC
  8
APS_GEOMETRY
 10
-47.988179
 20
157.304772
 40
1.17665
 50
90.107563
 51
153.411206
  0
ARC
  8
APS_GEOMETRY
 10
-47.241691
 20
156.931414
 40
2.0113
 50
153.418143
 51
206.580988
  0
ARC
  8
APS_GEOMETRY
 10
-47.98819
 20
156.558078
 40
1.17665
 50
206.588532
 51
269.892743
  0
ARC
  8
APS_GEOMETRY
 10
-47.995137
 20
156.667771
 40
1.28635
 50
270.211337
 51
325.080737
  0
ARC
  8
APS_GEOMETRY
 10
-45.192158
 20
157.256467
 40
1.28635
 50
34.918935
 51
89.788286
  0
ARC
  8
APS_GEOMETRY
 10
-45.185195
 20
157.36616
 40
1.17665
 50
90.107612
 51
153.411206
  0
ARC
  8
APS_GEOMETRY
 10
-44.438707
 20
156.992802
 40
2.0113
 50
153.418143
 51
206.580988
  0
ARC
  8
APS_GEOMETRY
 10
-45.185207
 20
156.619467
 40
1.17665
 50
206.588587
 51
269.892719
  0
ARC
  8
APS_GEOMETRY
 10
-45.192153
 20
156.72916
 40
1.28635
 50
270.211261
 51
325.080683
  0
ARC
  8
APS_GEOMETRY
 10
-41.206097
 20
157.273133
 40
1.30795
 50
89.6195
 51
170.8532
  0
ARC
  8
APS_GEOMETRY
 10
-39.588181
 20
157.195079
 40
1.28635
 50
34.918935
 51
89.788286
  0
ARC
  8
APS_GEOMETRY
 10
-39.581219
 20
157.304772
 40
1.17665
 50
90.107563
 51
153.411206
  0
ARC
  8
APS_GEOMETRY
 10
-38.83473
 20
156.931415
 40
2.0113
 50
153.418175
 51
206.58102
  0
ARC
  8
APS_GEOMETRY
 10
-39.581229
 20
156.558078
 40
1.17665
 50
206.588532
 51
269.892695
  0
ARC
  8
APS_GEOMETRY
 10
-39.588177
 20
156.667771
 40
1.28635
 50
270.211337
 51
325.080737
  0
ARC
  8
APS_GEOMETRY
 10
157.315559
 20
139.997193
 40
1.865667
 50
202.7274
 51
247.2726
  0
ARC
  8
APS_GEOMETRY
 10
157.344755
 20
140.031349
 40
1.9085
 50
246.860301
 51
293.140747
  0
ARC
  8
APS_GEOMETRY
 10
157.385171
 20
139.954479
 40
1.821945
 50
292.922038
 51
357.89323
  0
ARC
  8
APS_GEOMETRY
 10
157.565613
 20
139.944971
 40
1.641278
 50
357.993358
 51
71.191244
  0
ARC
  8
APS_GEOMETRY
 10
157.344671
 20
139.292766
 40
2.329889
 50
71.219133
 51
108.775449
  0
ARC
  8
APS_GEOMETRY
 10
157.19717
 20
139.692423
 40
1.904056
 50
108.443885
 51
138.941046
  0
LINE
  8
APS_GEOMETRY
 10
155.761447
 11
156.150337
 20
140.943074
 21
143.165304
  0
LINE
  8
APS_GEOMETRY
 10
156.150337
 11
158.650337
 20
143.165304
 21
143.165304
  0
LINE
  8
APS_GEOMETRY
 10
162.33964
 11
162.339678
 20
138.163414
 21
140.46343
  0
ARC
  8
APS_GEOMETRY
 10
161.49414
 20
140.467875
 40
0.84555
 50
359.698802
 51
90.305782
  0
ARC
  8
APS_GEOMETRY
 10
161.48849
 20
139.859013
 40
1.4544
 50
89.95518
 51
153.259774
  0
LINE
  8
APS_GEOMETRY
 10
164.48964
 11
164.489678
 20
138.163414
 21
140.46343
  0
ARC
  8
APS_GEOMETRY
 10
163.64414
 20
140.467875
 40
0.84555
 50
359.698802
 51
90.305782
  0
ARC
  8
APS_GEOMETRY
 10
163.63849
 20
139.859013
 40
1.4544
 50
89.95518
 51
153.259774
  0
LINE
  8
APS_GEOMETRY
 10
167.6397
 11
167.639738
 20
138.163414
 21
140.46343
  0
ARC
  8
APS_GEOMETRY
 10
166.7942
 20
140.467875
 40
0.84555
 50
359.698802
 51
90.305782
  0
ARC
  8
APS_GEOMETRY
 10
166.78855
 20
139.859013
 40
1.4544
 50
89.95518
 51
153.259774
  0
LINE
  8
APS_GEOMETRY
 10
169.7897
 11
169.789738
 20
138.163414
 21
140.46343
  0
ARC
  8
APS_GEOMETRY
 10
168.9442
 20
140.467875
 40
0.84555
 50
359.698802
 51
90.305782
  0
ARC
  8
APS_GEOMETRY
 10
168.93855
 20
139.859013
 40
1.4544
 50
89.95518
 51
153.259774
  0
ARC
  8
APS_GEOMETRY
 10
176.816707
 20
139.988848
 40
1.28635
 50
34.918935
 51
89.788286
  0
ARC
  8
APS_GEOMETRY
 10
176.823669
 20
140.098541
 40
1.17665
 50
90.107563
 51
153.411206
  0
ARC
  8
APS_GEOMETRY
 10
177.570158
 20
139.725184
 40
2.0113
 50
153.418175
 51
206.58102
  0
ARC
  8
APS_GEOMETRY
 10
176.823658
 20
139.351848
 40
1.17665
 50
206.588587
 51
269.892719
  0
ARC
  8
APS_GEOMETRY
 10
176.816711
 20
139.461541
 40
1.28635
 50
270.211306
 51
325.080683
  0
ARC
  8
APS_GEOMETRY
 10
179.654886
 20
139.927459
 40
1.28635
 50
34.918935
 51
89.788286
  0
ARC
  8
APS_GEOMETRY
 10
179.661848
 20
140.037152
 40
1.17665
 50
90.107539
 51
153.411151
  0
ARC
  8
APS_GEOMETRY
 10
180.408337
 20
139.663796
 40
2.0113
 50
153.418175
 51
206.58102
  0
ARC
  8
APS_GEOMETRY
 10
179.661838
 20
139.290459
 40
1.17665
 50
206.588532
 51
269.892695
  0
ARC
  8
APS_GEOMETRY
 10
179.654891
 20
139.400152
 40
1.28635
 50
270.211292
 51
325.080737
  0
ARC
  8
APS_GEOMETRY
 10
183.115376
 20
140.005514
 40
1.30795
 50
89.6195
 51
170.8532
  0
ARC
  8
APS_GEOMETRY
 10
192.424263
 20
139.927459
 40
1.28635
 50
34.918935
 51
89.788286
  0
ARC
  8
APS_GEOMETRY
 10
192.431225
 20
140.037152
 40
1.17665
 50
90.107539
 51
153.411151
  0
ARC
  8
APS_GEOMETRY
 10
193.177713
 20
139.663795
 40
2.0113
 50
153.418143
 51
206.580988
  0
ARC
  8
APS_GEOMETRY
 10
192.431214
 20
139.290459
 40
1.17665
 50
206.588532
 51
269.892743
  0
ARC
  8
APS_GEOMETRY
 10
192.424267
 20
139.400152
 40
1.28635
 50
270.211337
 51
325.080737
  0
ARC
  8
APS_GEOMETRY
 10
199.570947
 20
139.35836
 40
1.17055
 50
206.2329
 51
333.7671
  0
ARC
  8
APS_GEOMETRY
 10
198.822243
 20
139.740969
 40
2.0113
 50
333.417862
 51
26.581299
  0
ARC
  8
APS_GEOMETRY
 10
199.570952
 20
140.123569
 40
1.17055
 50
26.232
 51
153.767605
  0
ARC
  8
APS_GEOMETRY
 10
200.319656
 20
139.740959
 40
2.0113
 50
153.418151
 51
206.581818
  0
ARC
  8
APS_GEOMETRY
 10
203.15994
 20
140.005514
 40
1.30795
 50
89.6195
 51
170.8532
  0
LINE
  8
APS_GEOMETRY
 10
210.568626
 11
210.568663
 20
138.163414
 21
140.46343
  0
ARC
  8
APS_GEOMETRY
 10
209.723125
 20
140.467875
 40
0.84555
 50
359.698802
 51
90.305782
  0
ARC
  8
APS_GEOMETRY
 10
209.717476
 20
139.859013
 40
1.4544
 50
89.95522
 51
153.259774
  0
LINE
  8
APS_GEOMETRY
 10
212.718626
 11
212.718663
 20
138.163414
 21
140.46343
  0
ARC
  8
APS_GEOMETRY
 10
211.873125
 20
140.467875
 40
0.84555
 50
359.698802
 51
90.305782
  0
ARC
  8
APS_GEOMETRY
 10
211.867476
 20
139.859013
 40
1.4544
 50
89.95522
 51
153.259774
  0
ARC
  8
APS_GEOMETRY
 10
214.477916
 20
139.927459
 40
1.28635
 50
34.918935
 51
89.788286
  0
ARC
  8
APS_GEOMETRY
 10
214.484878
 20
140.037152
 40
1.17665
 50
90.107539
 51
153.411151
  0
ARC
  8
APS_GEOMETRY
 10
215.231366
 20
139.663795
 40
2.0113
 50
153.418143
 51
206.580988
  0
ARC
  8
APS_GEOMETRY
 10
214.484867
 20
139.290459
 40
1.17665
 50
206.588532
 51
269.892743
  0
ARC
  8
APS_GEOMETRY
 10
214.47792
 20
139.400152
 40
1.28635
 50
270.211337
 51
325.080737
  0
ARC
  8
APS_GEOMETRY
 10
217.682863
 20
141.35882
 40
1.2409
 50
81.8929
 51
98.1071
  0
ARC
  8
APS_GEOMETRY
 10
217.505763
 20
142.189424
 40
0.3979
 50
89.697115
 51
180.304446
  0
LINE
  8
APS_GEOMETRY
 10
217.107869
 11
217.107863
 20
142.18731
 21
138.13732
  0
ARC
  8
APS_GEOMETRY
 10
91.73343
 20
240.729848
 40
1.0
 50
92.689405
 51
179.827
  0
LINE
  8
APS_GEOMETRY
 10
90.733435
 11
90.660822
 20
240.732867
 21
216.684227
  0
LINE
  8
APS_GEOMETRY
 10
90.660822
 11
110.660731
 20
216.684227
 21
216.623838
  0
LINE
  8
APS_GEOMETRY
 10
110.660731
 11
110.648653
 20
216.623838
 21
212.623857
  0
ARC
  8
APS_GEOMETRY
 10
111.648648
 20
212.620837
 40
1.0
 50
179.826967
 51
269.827032
  0
LINE
  8
APS_GEOMETRY
 10
111.64563
 11
119.645593
 20
211.620842
 21
211.596686
  0
ARC
  8
APS_GEOMETRY
 10
119.648612
 20
212.596681
 40
1.0
 50
269.827024
 51
359.827032
  0
LINE
  8
APS_GEOMETRY
 10
120.648607
 11
120.660685
 20
212.593663
 21
216.593644
  0
LINE
  8
APS_GEOMETRY
 10
120.660685
 11
220.660229
 20
216.593644
 21
216.291703
  0
LINE
  8
APS_GEOMETRY
 10
220.660229
 11
220.648152
 20
216.291703
 21
212.291721
  0
ARC
  8
APS_GEOMETRY
 10
221.648147
 20
212.288701
 40
1.0
 50
179.826966
 51
269.826975
  0
LINE
  8
APS_GEOMETRY
 10
221.645128
 11
229.645091
 20
211.288706
 21
211.264551
  0
ARC
  8
APS_GEOMETRY
 10
229.648111
 20
212.264546
 40
1.0
 50
269.826966
 51
359.826975
  0
LINE
  8
APS_GEOMETRY
 10
230.648106
 11
230.660184
 20
212.261527
 21
216.261508
  0
LINE
  8
APS_GEOMETRY
 10
230.660184
 11
250.660093
 20
216.261508
 21
216.20112
  0
LINE
  8
APS_GEOMETRY
 10
250.660093
 11
250.747214
 20
216.20112
 21
245.054854
  0
ARC
  8
APS_GEOMETRY
 10
252.747205
 20
245.048815
 40
2.0
 50
114.620326
 51
179.826994
  0
ARC
  8
APS_GEOMETRY
 10
250.750064
 20
249.40687
 40
2.793873
 50
294.620278
 51
92.689458
  0
LINE
  8
APS_GEOMETRY
 10
250.618968
 11
248.621171
 20
252.197666
 21
252.103822
  0
LINE
  8
APS_GEOMETRY
 10
248.621171
 11
248.761936
 20
252.103822
 21
249.107126
  0
LINE
  8
APS_GEOMETRY
 10
248.761936
 11
218.757544
 20
249.107126
 21
247.697716
  0
LINE
  8
APS_GEOMETRY
 10
218.757544
 11
218.720006
 20
247.697716
 21
248.496834
  0
LINE
  8
APS_GEOMETRY
 10
218.720006
 11
219.718905
 20
248.496834
 21
248.543756
  0
ARC
  8
APS_GEOMETRY
 10
219.671983
 20
249.542655
 40
1.0
 50
272.689419
 51
2.68943
  0
LINE
  8
APS_GEOMETRY
 10
220.670882
 11
220.661497
 20
249.589577
 21
249.789356
  0
ARC
  8
APS_GEOMETRY
 10
219.662598
 20
249.742434
 40
1.0
 50
2.689422
 51
92.689373
  0
LINE
  8
APS_GEOMETRY
 10
219.615677
 11
211.61201
 20
250.741333
 21
250.365373
  0
ARC
  8
APS_GEOMETRY
 10
211.658932
 20
249.366474
 40
1.0
 50
92.689419
 51
182.68943
  0
LINE
  8
APS_GEOMETRY
 10
210.660033
 11
210.753877
 20
249.319552
 21
247.321755
  0
LINE
  8
APS_GEOMETRY
 10
210.753877
 11
190.750948
 20
247.321755
 21
246.382148
  0
LINE
  8
APS_GEOMETRY
 10
190.750948
 11
190.732832
 20
246.382148
 21
240.382176
  0
LINE
  8
APS_GEOMETRY
 10
190.732832
 11
170.732923
 20
240.382176
 21
240.442564
  0
LINE
  8
APS_GEOMETRY
 10
170.732923
 11
170.744846
 20
240.442564
 21
244.391297
  0
ARC
  8
APS_GEOMETRY
 10
169.74485
 20
244.394316
 40
1.0
 50
359.827001
 51
92.689392
  0
LINE
  8
APS_GEOMETRY
 10
169.697929
 11
168.750223
 20
245.393215
 21
245.348698
  0
LINE
  8
APS_GEOMETRY
 10
168.750223
 11
168.712686
 20
245.348698
 21
246.147817
  0
LINE
  8
APS_GEOMETRY
 10
168.712686
 11
169.711584
 20
246.147817
 21
246.194738
  0
ARC
  8
APS_GEOMETRY
 10
169.664663
 20
247.193637
 40
1.0
 50
272.689362
 51
2.689428
  0
LINE
  8
APS_GEOMETRY
 10
170.663562
 11
170.654177
 20
247.240559
 21
247.440338
  0
ARC
  8
APS_GEOMETRY
 10
169.655278
 20
247.393417
 40
1.0
 50
2.689362
 51
92.689428
  0
LINE
  8
APS_GEOMETRY
 10
169.608356
 11
161.604689
 20
248.392316
 21
248.016355
  0
ARC
  8
APS_GEOMETRY
 10
161.651611
 20
247.017456
 40
1.0
 50
92.689419
 51
182.68943
  0
LINE
  8
APS_GEOMETRY
 10
160.652712
 11
160.746556
 20
246.970534
 21
244.972738
  0
LINE
  8
APS_GEOMETRY
 10
160.746556
 11
118.742902
 20
244.972738
 21
242.99968
  0
LINE
  8
APS_GEOMETRY
 10
118.742902
 11
118.705365
 20
242.99968
 21
243.798799
  0
LINE
  8
APS_GEOMETRY
 10
118.705365
 11
119.704264
 20
243.798799
 21
243.84572
  0
ARC
  8
APS_GEOMETRY
 10
119.657342
 20
244.844619
 40
1.0
 50
272.689419
 51
2.68943
  0
LINE
  8
APS_GEOMETRY
 10
120.656241
 11
120.646856
 20
244.891541
 21
245.09132
  0
ARC
  8
APS_GEOMETRY
 10
119.647957
 20
245.044399
 40
1.0
 50
2.689364
 51
92.68937
  0
LINE
  8
APS_GEOMETRY
 10
119.601036
 11
111.597369
 20
246.043298
 21
245.667337
  0
ARC
  8
APS_GEOMETRY
 10
111.644291
 20
244.668438
 40
1.0
 50
92.689422
 51
182.689373
  0
LINE
  8
APS_GEOMETRY
 10
110.645392
 11
110.739236
 20
244.621517
 21
242.62372
  0
LINE
  8
APS_GEOMETRY
 10
110.739236
 11
91.686508
 20
242.62372
 21
241.728747
  0
LINE
  8
APS_GEOMETRY
 10
-223.492981
 11
-221.192964
 20
293.152165
 21
293.152127
  0
ARC
  8
APS_GEOMETRY
 10
-221.188519
 20
293.997665
 40
0.84555
 50
269.698802
 51
0.305782
  0
ARC
  8
APS_GEOMETRY
 10
-221.797381
 20
294.003315
 40
1.4544
 50
359.9552
 51
63.259818
  0
LINE
  8
APS_GEOMETRY
 10
-223.492981
 11
-221.192964
 20
291.002165
 21
291.002127
  0
ARC
  8
APS_GEOMETRY
 10
-221.188519
 20
291.847665
 40
0.84555
 50
269.698802
 51
0.305782
  0
ARC
  8
APS_GEOMETRY
 10
-221.797381
 20
291.853315
 40
1.4544
 50
359.9552
 51
63.259818
  0
LINE
  8
APS_GEOMETRY
 10
-223.492981
 11
-221.192964
 20
287.852104
 21
287.852066
  0
ARC
  8
APS_GEOMETRY
 10
-221.188519
 20
288.697604
 40
0.84555
 50
269.698802
 51
0.305782
  0
ARC
  8
APS_GEOMETRY
 10
-221.797381
 20
288.703254
 40
1.4544
 50
359.9552
 51
63.259818
  0
LINE
  8
APS_GEOMETRY
 10
-223.492981
 11
-221.192964
 20
285.702104
 21
285.702066
  0
ARC
  8
APS_GEOMETRY
 10
-221.188519
 20
286.547604
 40
0.84555
 50
269.698802
 51
0.305782
  0
ARC
  8
APS_GEOMETRY
 10
-221.797381
 20
286.553254
 40
1.4544
 50
359.9552
 51
63.259818
  0
ARC
  8
APS_GEOMETRY
 10
-254.365964
 20
294.945877
 40
1.637
 50
128.6887
 51
231.3113
  0
ARC
  8
APS_GEOMETRY
 10
-253.472539
 20
296.033183
 40
3.044222
 50
230.978099
 51
309.02074
  0
ARC
  8
APS_GEOMETRY
 10
-252.57915
 20
294.945848
 40
1.637
 50
308.688153
 51
51.312913
  0
ARC
  8
APS_GEOMETRY
 10
-253.472575
 20
293.858542
 40
3.044222
 50
50.978963
 51
129.021028
  0
ARC
  8
APS_GEOMETRY
 10
-253.516921
 20
291.632294
 40
3.039389
 50
301.026839
 51
310.045456
  0
ARC
  8
APS_GEOMETRY
 10
-252.584627
 20
290.583333
 40
1.637
 50
308.687081
 51
51.311844
  0
ARC
  8
APS_GEOMETRY
 10
-253.478016
 20
289.495998
 40
3.044222
 50
50.97926
 51
129.021885
  0
ARC
  8
APS_GEOMETRY
 10
-254.371464
 20
290.583286
 40
1.637
 50
128.687654
 51
231.312655
  0
ARC
  8
APS_GEOMETRY
 10
-253.609608
 20
291.651027
 40
2.947556
 50
232.726609
 51
245.345901
  0
LINE
  8
APS_GEOMETRY
 10
-251.067993
 11
-254.401327
 20
287.940948
 21
287.940949
  0
ARC
  8
APS_GEOMETRY
 10
-254.401327
 20
286.274282
 40
1.666667
 50
90.0
 51
270.0
  0
LINE
  8
APS_GEOMETRY
 10
-254.401327
 11
-251.067993
 20
284.607615
 21
284.607615
  0
ARC
  8
APS_GEOMETRY
 10
-252.987273
 20
281.961157
 40
2.055222
 50
312.9037
 51
32.5462
  0
ARC
  8
APS_GEOMETRY
 10
-252.134659
 20
282.488722
 40
1.052778
 50
33.306708
 51
163.425514
  0
LINE
  8
APS_GEOMETRY
 10
-253.143694
 11
-253.699273
 20
282.789039
 21
281.122379
  0
ARC
  8
APS_GEOMETRY
 10
-254.775777
 20
281.46172
 40
1.128722
 50
209.837948
 51
342.503841
  0
ARC
  8
APS_GEOMETRY
 10
-253.876596
 20
281.983413
 40
2.168278
 50
150.022531
 51
209.973996
  0
ARC
  8
APS_GEOMETRY
 10
-254.7173
 20
282.47396
 40
1.194945
 50
119.759337
 51
150.255408
  0
LINE
  8
APS_GEOMETRY
 10
-253.576088
 11
-253.576088
 20
248.541293
 21
246.152404
  0
ARC
  8
APS_GEOMETRY
 10
-252.29831
 20
246.152404
 40
1.277778
 50
180.0
 51
0.0
  0
LINE
  8
APS_GEOMETRY
 10
-251.020532
 11
-251.020532
 20
246.152404
 21
248.541293
  0
LINE
  8
APS_GEOMETRY
 10
-251.020532
 11
-256.020533
 20
248.541293
 21
248.541293
  0
LINE
  8
APS_GEOMETRY
 10
-253.576088
 11
-253.576088
 20
234.207959
 21
231.81907
  0
ARC
  8
APS_GEOMETRY
 10
-252.29831
 20
231.81907
 40
1.277778
 50
180.0
 51
0.0
  0
LINE
  8
APS_GEOMETRY
 10
-251.020532
 11
-251.020532
 20
231.81907
 21
234.207959
  0
LINE
  8
APS_GEOMETRY
 10
-251.020532
 11
-256.020533
 20
234.207959
 21
234.207959
  0
LINE
  8
APS_GEOMETRY
 10
-237.501688
 11
-220.001688
 20
190.569535
 21
190.569658
  0
ARC
  8
APS_GEOMETRY
 10
-220.001702
 20
192.569658
 40
2.0
 50
270.000405
 51
0.000405
  0
LINE
  8
APS_GEOMETRY
 10
-218.001702
 11
-218.001816
 20
192.569672
 21
208.594657
  0
ARC
  8
APS_GEOMETRY
 10
-220.001816
 20
208.594643
 40
2.0
 50
0.000401
 51
90.000405
  0
LINE
  8
APS_GEOMETRY
 10
-220.00183
 11
-223.00183
 20
210.594643
 21
210.594621
  0
LINE
  8
APS_GEOMETRY
 10
-223.00183
 11
-223.001901
 20
210.594621
 21
220.607165
  0
LINE
  8
APS_GEOMETRY
 10
-223.001901
 11
-221.001922
 20
220.607165
 21
220.607165
  0
ARC
  8
APS_GEOMETRY
 10
-221.001922
 20
223.607165
 40
3.0
 50
270.0
 51
0.000405
  0
LINE
  8
APS_GEOMETRY
 10
-218.001922
 11
-218.002163
 20
223.607186
 21
257.657118
  0
ARC
  8
APS_GEOMETRY
 10
-221.002163
 20
257.657097
 40
3.0
 50
0.000401
 51
90.000405
  0
LINE
  8
APS_GEOMETRY
 10
-221.002184
 11
-223.002184
 20
260.657097
 21
260.657082
  0
LINE
  8
APS_GEOMETRY
 10
-223.002184
 11
-223.002255
 20
260.657082
 21
270.669626
  0
LINE
  8
APS_GEOMETRY
 10
-223.002255
 11
-221.002276
 20
270.669626
 21
270.669626
  0
ARC
  8
APS_GEOMETRY
 10
-221.002276
 20
273.669626
 40
3.0
 50
270.0
 51
0.000405
  0
LINE
  8
APS_GEOMETRY
 10
-218.002276
 11
-218.002524
 20
273.669647
 21
308.719579
  0
ARC
  8
APS_GEOMETRY
 10
-220.002524
 20
308.719565
 40
2.0
 50
0.000401
 51
90.000405
  0
LINE
  8
APS_GEOMETRY
 10
-220.002538
 11
-223.002538
 20
310.719565
 21
310.719543
  0
LINE
  8
APS_GEOMETRY
 10
-223.002538
 11
-223.002609
 20
310.719543
 21
320.732087
  0
LINE
  8
APS_GEOMETRY
 10
-223.002609
 11
-221.00263
 20
320.732087
 21
320.732087
  0
ARC
  8
APS_GEOMETRY
 10
-221.00263
 20
323.732087
 40
3.0
 50
270.0
 51
0.000405
  0
LINE
  8
APS_GEOMETRY
 10
-218.00263
 11
-218.002807
 20
323.732108
 21
348.769548
  0
ARC
  8
APS_GEOMETRY
 10
-220.002807
 20
348.769533
 40
2.0
 50
0.00043
 51
90.000405
  0
LINE
  8
APS_GEOMETRY
 10
-220.002821
 11
-237.502821
 20
350.769533
 21
350.76941
  0
ARC
  8
APS_GEOMETRY
 10
-238.920227
 20
270.601403
 40
1.637
 50
128.6887
 51
231.3113
  0
ARC
  8
APS_GEOMETRY
 10
-238.026803
 20
271.68871
 40
3.044222
 50
230.978126
 51
309.020743
  0
ARC
  8
APS_GEOMETRY
 10
-237.133415
 20
270.601374
 40
1.637
 50
308.688181
 51
51.312885
  0
ARC
  8
APS_GEOMETRY
 10
-238.026839
 20
269.514067
 40
3.044222
 50
50.978975
 51
129.021016
  0
ARC
  8
APS_GEOMETRY
 10
-237.334166
 20
231.782918
 40
1.190389
 50
73.020644
 51
124.471649
  0
ARC
  8
APS_GEOMETRY
 10
-237.559825
 20
231.012535
 40
1.993111
 50
16.713832
 51
73.283673
  0
ARC
  8
APS_GEOMETRY
 10
-236.832058
 20
231.274121
 40
1.221556
 50
255.220064
 51
14.779382
  0
LINE
  8
APS_GEOMETRY
 10
-237.143686
 11
-239.304282
 20
230.092983
 21
230.603661
  0
ARC
  8
APS_GEOMETRY
 10
-239.706319
 20
228.887741
 40
1.762389
 50
76.813563
 51
135.07656
  0
LINE
  8
APS_GEOMETRY
 10
-240.95418
 11
-238.597176
 20
230.132272
 21
227.775234
  0
ARC
  8
APS_GEOMETRY
 10
-238.83987
 20
210.254243
 40
1.559056
 50
163.751948
 51
213.48402
  0
ARC
  8
APS_GEOMETRY
 10
-237.595532
 20
211.031403
 40
3.025889
 50
212.758326
 51
241.4804
  0
ARC
  8
APS_GEOMETRY
 10
-238.34895
 20
209.614001
 40
1.420833
 50
240.88523
 51
280.197101
  0
ARC
  8
APS_GEOMETRY
 10
-238.33466
 20
209.612552
 40
1.416945
 50
279.638761
 51
346.268669
  0
ARC
  8
APS_GEOMETRY
 10
-238.37955
 20
209.634408
 40
1.465778
 50
345.855298
 51
30.402329
  0
ARC
  8
APS_GEOMETRY
 10
-239.427927
 20
209.006403
 40
2.687833
 50
30.638921
 51
59.36112
  0
ARC
  8
APS_GEOMETRY
 10
-236.733768
 20
214.042578
 40
3.0285
 50
244.06808
 51
300.637891
  0
LINE
  8
APS_GEOMETRY
 10
-235.190412
 11
-237.351038
 20
211.436841
 21
213.597451
  0
ARC
  8
APS_GEOMETRY
 10
-238.961428
 20
330.525708
 40
1.559056
 50
163.751948
 51
213.48402
  0
ARC
  8
APS_GEOMETRY
 10
-237.71709
 20
331.302868
 40
3.025889
 50
212.758326
 51
241.4804
  0
ARC
  8
APS_GEOMETRY
 10
-238.470508
 20
329.885466
 40
1.420833
 50
240.88523
 51
280.197101
  0
ARC
  8
APS_GEOMETRY
 10
-238.456219
 20
329.884017
 40
1.416945
 50
279.638804
 51
346.268676
  0
ARC
  8
APS_GEOMETRY
 10
-238.501109
 20
329.905873
 40
1.465778
 50
345.855298
 51
30.402329
  0
ARC
  8
APS_GEOMETRY
 10
-239.549486
 20
329.277868
 40
2.687833
 50
30.638921
 51
59.36112
  0
ARC
  8
APS_GEOMETRY
 10
-236.855327
 20
334.314043
 40
3.0285
 50
244.06808
 51
300.637891
  0
LINE
  8
APS_GEOMETRY
 10
-235.311971
 11
-237.472596
 20
331.708306
 21
333.868916
  0
ARC
  8
APS_GEOMETRY
 10
-237.507986
 20
312.056677
 40
1.190389
 50
73.020695
 51
124.471707
  0
ARC
  8
APS_GEOMETRY
 10
-237.733645
 20
311.286294
 40
1.993111
 50
16.713842
 51
73.283706
  0
ARC
  8
APS_GEOMETRY
 10
-237.005878
 20
311.547879
 40
1.221556
 50
255.219998
 51
14.779448
  0
LINE
  8
APS_GEOMETRY
 10
-237.317507
 11
-239.478103
 20
310.366741
 21
310.877419
  0
ARC
  8
APS_GEOMETRY
 10
-239.88014
 20
309.161499
 40
1.762389
 50
76.813563
 51
135.07656
  0
LINE
  8
APS_GEOMETRY
 10
-241.128001
 11
-238.770997
 20
310.40603
 21
308.048992
  0
LINE
  8
APS_GEOMETRY
 10
-238.500697
 11
-256.000697
 20
350.76941
 21
350.769533
  0
ARC
  8
APS_GEOMETRY
 10
-256.000711
 20
348.769533
 40
2.0
 50
89.999595
 51
179.99957
  0
LINE
  8
APS_GEOMETRY
 10
-258.000711
 11
-258.000888
 20
348.769548
 21
323.732108
  0
ARC
  8
APS_GEOMETRY
 10
-255.000888
 20
323.732087
 40
3.0
 50
179.999595
 51
270.0
  0
LINE
  8
APS_GEOMETRY
 10
-255.000888
 11
-253.000909
 20
320.732087
 21
320.732087
  0
LINE
  8
APS_GEOMETRY
 10
-253.000909
 11
-253.00098
 20
320.732087
 21
310.719543
  0
LINE
  8
APS_GEOMETRY
 10
-253.00098
 11
-256.00098
 20
310.719543
 21
310.719565
  0
ARC
  8
APS_GEOMETRY
 10
-256.000994
 20
308.719565
 40
2.0
 50
89.999595
 51
179.999599
  0
LINE
  8
APS_GEOMETRY
 10
-258.000994
 11
-258.001242
 20
308.719579
 21
273.669647
  0
ARC
  8
APS_GEOMETRY
 10
-255.001242
 20
273.669626
 40
3.0
 50
179.999595
 51
270.0
  0
LINE
  8
APS_GEOMETRY
 10
-255.001242
 11
-253.001263
 20
270.669626
 21
270.669626
  0
LINE
  8
APS_GEOMETRY
 10
-253.001263
 11
-253.001334
 20
270.669626
 21
260.657082
  0
LINE
  8
APS_GEOMETRY
 10
-253.001334
 11
-255.001334
 20
260.657082
 21
260.657097
  0
ARC
  8
APS_GEOMETRY
 10
-255.001355
 20
257.657097
 40
3.0
 50
89.999595
 51
179.999599
  0
LINE
  8
APS_GEOMETRY
 10
-258.001355
 11
-258.001596
 20
257.657118
 21
223.607186
  0
ARC
  8
APS_GEOMETRY
 10
-255.001596
 20
223.607165
 40
3.0
 50
179.999595
 51
270.0
  0
LINE
  8
APS_GEOMETRY
 10
-255.001596
 11
-253.001617
 20
220.607165
 21
220.607165
  0
LINE
  8
APS_GEOMETRY
 10
-253.001617
 11
-253.001688
 20
220.607165
 21
210.594621
  0
LINE
  8
APS_GEOMETRY
 10
-253.001688
 11
-256.001688
 20
210.594621
 21
210.594643
  0
ARC
  8
APS_GEOMETRY
 10
-256.001702
 20
208.594643
 40
2.0
 50
89.999595
 51
179.999599
  0
LINE
  8
APS_GEOMETRY
 10
-258.001702
 11
-258.001816
 20
208.594657
 21
192.569672
  0
ARC
  8
APS_GEOMETRY
 10
-256.001816
 20
192.569658
 40
2.0
 50
179.999595
 51
269.999595
  0
LINE
  8
APS_GEOMETRY
 10
-256.00183
 11
-238.50183
 20
190.569658
 21
190.569535
  0
LINE
  8
APS_GEOMETRY
 10
-223.492981
 11
-221.192964
 20
243.484346
 21
243.484308
  0
ARC
  8
APS_GEOMETRY
 10
-221.188519
 20
244.329846
 40
0.84555
 50
269.698802
 51
0.305782
  0
ARC
  8
APS_GEOMETRY
 10
-221.797381
 20
244.335496
 40
1.4544
 50
359.9552
 51
63.259818
  0
LINE
  8
APS_GEOMETRY
 10
-223.492981
 11
-221.192964
 20
241.334346
 21
241.334308
  0
ARC
  8
APS_GEOMETRY
 10
-221.188519
 20
242.179846
 40
0.84555
 50
269.698802
 51
0.305782
  0
ARC
  8
APS_GEOMETRY
 10
-221.797381
 20
242.185496
 40
1.4544
 50
359.9552
 51
63.259818
  0
LINE
  8
APS_GEOMETRY
 10
-223.492981
 11
-221.192964
 20
238.184286
 21
238.184248
  0
ARC
  8
APS_GEOMETRY
 10
-221.188519
 20
239.029786
 40
0.84555
 50
269.698802
 51
0.305782
  0
ARC
  8
APS_GEOMETRY
 10
-221.797381
 20
239.035436
 40
1.4544
 50
359.9552
 51
63.259818
  0
LINE
  8
APS_GEOMETRY
 10
-223.492981
 11
-221.192964
 20
236.034286
 21
236.034248
  0
ARC
  8
APS_GEOMETRY
 10
-221.188519
 20
236.879786
 40
0.84555
 50
269.698802
 51
0.305782
  0
ARC
  8
APS_GEOMETRY
 10
-221.797381
 20
236.885436
 40
1.4544
 50
359.9552
 51
63.259818
  0
LINE
  8
APS_GEOMETRY
 10
-177.956362
 11
-175.656346
 20
293.152165
 21
293.152127
  0
ARC
  8
APS_GEOMETRY
 10
-175.651901
 20
293.997665
 40
0.84555
 50
269.698802
 51
0.305782
  0
ARC
  8
APS_GEOMETRY
 10
-176.260763
 20
294.003315
 40
1.4544
 50
359.95518
 51
63.259774
  0
LINE
  8
APS_GEOMETRY
 10
-177.956362
 11
-175.656346
 20
291.002165
 21
291.002127
  0
ARC
  8
APS_GEOMETRY
 10
-175.651901
 20
291.847665
 40
0.84555
 50
269.698802
 51
0.305782
  0
ARC
  8
APS_GEOMETRY
 10
-176.260763
 20
291.853315
 40
1.4544
 50
359.95518
 51
63.259774
  0
LINE
  8
APS_GEOMETRY
 10
-177.956362
 11
-175.656346
 20
287.852104
 21
287.852066
  0
ARC
  8
APS_GEOMETRY
 10
-175.651901
 20
288.697604
 40
0.84555
 50
269.698802
 51
0.305782
  0
ARC
  8
APS_GEOMETRY
 10
-176.260763
 20
288.703254
 40
1.4544
 50
359.95518
 51
63.259774
  0
LINE
  8
APS_GEOMETRY
 10
-177.956362
 11
-175.656346
 20
285.702104
 21
285.702066
  0
ARC
  8
APS_GEOMETRY
 10
-175.651901
 20
286.547604
 40
0.84555
 50
269.698802
 51
0.305782
  0
ARC
  8
APS_GEOMETRY
 10
-176.260763
 20
286.553254
 40
1.4544
 50
359.95518
 51
63.259774
  0
ARC
  8
APS_GEOMETRY
 10
-208.829345
 20
294.945877
 40
1.637
 50
128.6887
 51
231.3113
  0
ARC
  8
APS_GEOMETRY
 10
-207.93592
 20
296.033183
 40
3.044222
 50
230.978099
 51
309.02074
  0
ARC
  8
APS_GEOMETRY
 10
-207.042531
 20
294.945848
 40
1.637
 50
308.688153
 51
51.312913
  0
ARC
  8
APS_GEOMETRY
 10
-207.935956
 20
293.858542
 40
3.044222
 50
50.978963
 51
129.021028
  0
ARC
  8
APS_GEOMETRY
 10
-207.980302
 20
291.632294
 40
3.039389
 50
301.026839
 51
310.045456
  0
ARC
  8
APS_GEOMETRY
 10
-207.048008
 20
290.583333
 40
1.637
 50
308.687103
 51
51.311867
  0
ARC
  8
APS_GEOMETRY
 10
-207.941398
 20
289.495998
 40
3.044222
 50
50.97926
 51
129.021885
  0
ARC
  8
APS_GEOMETRY
 10
-208.834845
 20
290.583286
 40
1.637
 50
128.687676
 51
231.312677
  0
ARC
  8
APS_GEOMETRY
 10
-208.072989
 20
291.651027
 40
2.947556
 50
232.726609
 51
245.345901
  0
LINE
  8
APS_GEOMETRY
 10
-205.531375
 11
-208.864708
 20
287.940948
 21
287.940949
  0
ARC
  8
APS_GEOMETRY
 10
-208.864708
 20
286.274282
 40
1.666667
 50
90.0
 51
270.0
  0
LINE
  8
APS_GEOMETRY
 10
-208.864708
 11
-205.531375
 20
284.607615
 21
284.607615
  0
ARC
  8
APS_GEOMETRY
 10
-207.450654
 20
281.961157
 40
2.055222
 50
312.9037
 51
32.5462
  0
ARC
  8
APS_GEOMETRY
 10
-206.59804
 20
282.488722
 40
1.052778
 50
33.306708
 51
163.425514
  0
LINE
  8
APS_GEOMETRY
 10
-207.607075
 11
-208.162654
 20
282.789039
 21
281.122379
  0
ARC
  8
APS_GEOMETRY
 10
-209.239158
 20
281.461719
 40
1.128722
 50
209.837883
 51
342.503901
  0
ARC
  8
APS_GEOMETRY
 10
-208.339977
 20
281.983412
 40
2.168278
 50
150.022505
 51
209.97397
  0
ARC
  8
APS_GEOMETRY
 10
-209.180681
 20
282.47396
 40
1.194945
 50
119.759337
 51
150.255408
  0
LINE
  8
APS_GEOMETRY
 10
-208.039469
 11
-208.03947
 20
248.541293
 21
246.152404
  0
ARC
  8
APS_GEOMETRY
 10
-206.761692
 20
246.152404
 40
1.277778
 50
180.0
 51
0.0
  0
LINE
  8
APS_GEOMETRY
 10
-205.483914
 11
-205.483914
 20
246.152404
 21
248.541293
  0
LINE
  8
APS_GEOMETRY
 10
-205.483914
 11
-210.483914
 20
248.541293
 21
248.541293
  0
LINE
  8
APS_GEOMETRY
 10
-208.039469
 11
-208.03947
 20
234.207959
 21
231.81907
  0
ARC
  8
APS_GEOMETRY
 10
-206.761692
 20
231.81907
 40
1.277778
 50
180.0
 51
0.0
  0
LINE
  8
APS_GEOMETRY
 10
-205.483914
 11
-205.483914
 20
231.81907
 21
234.207959
  0
LINE
  8
APS_GEOMETRY
 10
-205.483914
 11
-210.483914
 20
234.207959
 21
234.207959
  0
LINE
  8
APS_GEOMETRY
 10
-191.96507
 11
-174.46507
 20
190.569535
 21
190.569658
  0
ARC
  8
APS_GEOMETRY
 10
-174.465084
 20
192.569658
 40
2.0
 50
270.000405
 51
0.000405
  0
LINE
  8
APS_GEOMETRY
 10
-172.465084
 11
-172.465197
 20
192.569672
 21
208.594657
  0
ARC
  8
APS_GEOMETRY
 10
-174.465197
 20
208.594643
 40
2.0
 50
0.000401
 51
90.000405
  0
LINE
  8
APS_GEOMETRY
 10
-174.465211
 11
-177.465211
 20
210.594643
 21
210.594621
  0
LINE
  8
APS_GEOMETRY
 10
-177.465211
 11
-177.465282
 20
210.594621
 21
220.607165
  0
LINE
  8
APS_GEOMETRY
 10
-177.465282
 11
-175.465303
 20
220.607165
 21
220.607165
  0
ARC
  8
APS_GEOMETRY
 10
-175.465303
 20
223.607165
 40
3.0
 50
270.0
 51
0.000405
  0
LINE
  8
APS_GEOMETRY
 10
-172.465303
 11
-172.465544
 20
223.607186
 21
257.657118
  0
ARC
  8
APS_GEOMETRY
 10
-175.465544
 20
257.657097
 40
3.0
 50
0.000401
 51
90.000405
  0
LINE
  8
APS_GEOMETRY
 10
-175.465565
 11
-177.465565
 20
260.657097
 21
260.657082
  0
LINE
  8
APS_GEOMETRY
 10
-177.465565
 11
-177.465636
 20
260.657082
 21
270.669626
  0
LINE
  8
APS_GEOMETRY
 10
-177.465636
 11
-175.465657
 20
270.669626
 21
270.669626
  0
ARC
  8
APS_GEOMETRY
 10
-175.465657
 20
273.669626
 40
3.0
 50
270.0
 51
0.000405
  0
LINE
  8
APS_GEOMETRY
 10
-172.465657
 11
-172.465905
 20
273.669647
 21
308.719579
  0
ARC
  8
APS_GEOMETRY
 10
-174.465905
 20
308.719565
 40
2.0
 50
0.000401
 51
90.000405
  0
LINE
  8
APS_GEOMETRY
 10
-174.465919
 11
-177.465919
 20
310.719565
 21
310.719543
  0
LINE
  8
APS_GEOMETRY
 10
-177.465919
 11
-177.46599
 20
310.719543
 21
320.732087
  0
LINE
  8
APS_GEOMETRY
 10
-177.46599
 11
-175.466011
 20
320.732087
 21
320.732087
  0
ARC
  8
APS_GEOMETRY
 10
-175.466011
 20
323.732087
 40
3.0
 50
270.0
 51
0.000405
  0
LINE
  8
APS_GEOMETRY
 10
-172.466011
 11
-172.466188
 20
323.732108
 21
348.769548
  0
ARC
  8
APS_GEOMETRY
 10
-174.466188
 20
348.769533
 40
2.0
 50
0.00043
 51
90.000405
  0
LINE
  8
APS_GEOMETRY
 10
-174.466202
 11
-191.966203
 20
350.769533
 21
350.76941
  0
ARC
  8
APS_GEOMETRY
 10
-193.383609
 20
270.601403
 40
1.637
 50
128.6887
 51
231.3113
  0
ARC
  8
APS_GEOMETRY
 10
-192.490185
 20
271.688709
 40
3.044222
 50
230.978114
 51
309.020755
  0
ARC
  8
APS_GEOMETRY
 10
-191.596796
 20
270.601374
 40
1.637
 50
308.688181
 51
51.312885
  0
ARC
  8
APS_GEOMETRY
 10
-192.49022
 20
269.514068
 40
3.044222
 50
50.978963
 51
129.021028
  0
ARC
  8
APS_GEOMETRY
 10
-191.797548
 20
231.782918
 40
1.190389
 50
73.020644
 51
124.471649
  0
ARC
  8
APS_GEOMETRY
 10
-192.023206
 20
231.012535
 40
1.993111
 50
16.713842
 51
73.283706
  0
ARC
  8
APS_GEOMETRY
 10
-191.295439
 20
231.274121
 40
1.221556
 50
255.220012
 51
14.779396
  0
LINE
  8
APS_GEOMETRY
 10
-191.607068
 11
-193.767664
 20
230.092983
 21
230.603661
  0
ARC
  8
APS_GEOMETRY
 10
-194.169701
 20
228.887741
 40
1.762389
 50
76.813563
 51
135.07656
  0
LINE
  8
APS_GEOMETRY
 10
-195.417562
 11
-193.060557
 20
230.132272
 21
227.775234
  0
ARC
  8
APS_GEOMETRY
 10
-193.303251
 20
210.254243
 40
1.559056
 50
163.751948
 51
213.48402
  0
ARC
  8
APS_GEOMETRY
 10
-192.058913
 20
211.031403
 40
3.025889
 50
212.758326
 51
241.4804
  0
ARC
  8
APS_GEOMETRY
 10
-192.812331
 20
209.614001
 40
1.420833
 50
240.88523
 51
280.197101
  0
ARC
  8
APS_GEOMETRY
 10
-192.798042
 20
209.612552
 40
1.416945
 50
279.638804
 51
346.268676
  0
ARC
  8
APS_GEOMETRY
 10
-192.842932
 20
209.634408
 40
1.465778
 50
345.855298
 51
30.402329
  0
ARC
  8
APS_GEOMETRY
 10
-193.891309
 20
209.006403
 40
2.687833
 50
30.638921
 51
59.36112
  0
ARC
  8
APS_GEOMETRY
 10
-191.19715
 20
214.042578
 40
3.0285
 50
244.06808
 51
300.637891
  0
LINE
  8
APS_GEOMETRY
 10
-189.653794
 11
-191.814419
 20
211.436841
 21
213.597451
  0
ARC
  8
APS_GEOMETRY
 10
-193.42481
 20
330.525708
 40
1.559056
 50
163.751948
 51
213.48402
  0
ARC
  8
APS_GEOMETRY
 10
-192.180472
 20
331.302868
 40
3.025889
 50
212.758326
 51
241.4804
  0
ARC
  8
APS_GEOMETRY
 10
-192.93389
 20
329.885466
 40
1.420833
 50
240.88523
 51
280.197101
  0
ARC
  8
APS_GEOMETRY
 10
-192.9196
 20
329.884017
 40
1.416945
 50
279.638761
 51
346.268669
  0
ARC
  8
APS_GEOMETRY
 10
-192.96449
 20
329.905873
 40
1.465778
 50
345.855298
 51
30.402329
  0
ARC
  8
APS_GEOMETRY
 10
-194.012867
 20
329.277868
 40
2.687833
 50
30.638921
 51
59.36112
  0
ARC
  8
APS_GEOMETRY
 10
-191.318708
 20
334.314043
 40
3.0285
 50
244.06808
 51
300.637891
  0
LINE
  8
APS_GEOMETRY
 10
-189.775352
 11
-191.935978
 20
331.708306
 21
333.868916
  0
ARC
  8
APS_GEOMETRY
 10
-191.971368
 20
312.056677
 40
1.190389
 50
73.020695
 51
124.471707
  0
ARC
  8
APS_GEOMETRY
 10
-192.197027
 20
311.286294
 40
1.993111
 50
16.713842
 51
73.283706
  0
ARC
  8
APS_GEOMETRY
 10
-191.46926
 20
311.547879
 40
1.221556
 50
255.219998
 51
14.779448
  0
LINE
  8
APS_GEOMETRY
 10
-191.780889
 11
-193.941485
 20
310.366741
 21
310.877419
  0
ARC
  8
APS_GEOMETRY
 10
-194.343522
 20
309.161499
 40
1.762389
 50
76.813563
 51
135.07656
  0
LINE
  8
APS_GEOMETRY
 10
-195.591383
 11
-193.234378
 20
310.40603
 21
308.048992
  0
LINE
  8
APS_GEOMETRY
 10
-192.964078
 11
-210.464078
 20
350.76941
 21
350.769533
  0
ARC
  8
APS_GEOMETRY
 10
-210.464092
 20
348.769533
 40
2.0
 50
89.999595
 51
179.99957
  0
LINE
  8
APS_GEOMETRY
 10
-212.464092
 11
-212.464269
 20
348.769548
 21
323.732108
  0
ARC
  8
APS_GEOMETRY
 10
-209.464269
 20
323.732087
 40
3.0
 50
179.999595
 51
270.0
  0
LINE
  8
APS_GEOMETRY
 10
-209.464269
 11
-207.464291
 20
320.732087
 21
320.732087
  0
LINE
  8
APS_GEOMETRY
 10
-207.464291
 11
-207.464361
 20
320.732087
 21
310.719543
  0
LINE
  8
APS_GEOMETRY
 10
-207.464361
 11
-210.464362
 20
310.719543
 21
310.719565
  0
ARC
  8
APS_GEOMETRY
 10
-210.464376
 20
308.719565
 40
2.0
 50
89.999595
 51
179.999599
  0
LINE
  8
APS_GEOMETRY
 10
-212.464376
 11
-212.464623
 20
308.719579
 21
273.669647
  0
ARC
  8
APS_GEOMETRY
 10
-209.464623
 20
273.669626
 40
3.0
 50
179.999595
 51
270.0
  0
LINE
  8
APS_GEOMETRY
 10
-209.464623
 11
-207.464645
 20
270.669626
 21
270.669626
  0
LINE
  8
APS_GEOMETRY
 10
-207.464645
 11
-207.464715
 20
270.669626
 21
260.657082
  0
LINE
  8
APS_GEOMETRY
 10
-207.464715
 11
-209.464716
 20
260.657082
 21
260.657097
  0
ARC
  8
APS_GEOMETRY
 10
-209.464737
 20
257.657097
 40
3.0
 50
89.999595
 51
179.999599
  0
LINE
  8
APS_GEOMETRY
 10
-212.464737
 11
-212.464977
 20
257.657118
 21
223.607186
  0
ARC
  8
APS_GEOMETRY
 10
-209.464977
 20
223.607165
 40
3.0
 50
179.999595
 51
270.0
  0
LINE
  8
APS_GEOMETRY
 10
-209.464977
 11
-207.464999
 20
220.607165
 21
220.607165
  0
LINE
  8
APS_GEOMETRY
 10
-207.464999
 11
-207.46507
 20
220.607165
 21
210.594621
  0
LINE
  8
APS_GEOMETRY
 10
-207.46507
 11
-210.46507
 20
210.594621
 21
210.594643
  0
ARC
  8
APS_GEOMETRY
 10
-210.465084
 20
208.594643
 40
2.0
 50
89.999595
 51
179.999599
  0
LINE
  8
APS_GEOMETRY
 10
-212.465084
 11
-212.465197
 20
208.594657
 21
192.569672
  0
ARC
  8
APS_GEOMETRY
 10
-210.465197
 20
192.569658
 40
2.0
 50
179.999595
 51
269.999595
  0
LINE
  8
APS_GEOMETRY
 10
-210.465211
 11
-192.965211
 20
190.569658
 21
190.569535
  0
LINE
  8
APS_GEOMETRY
 10
-177.956362
 11
-175.656346
 20
243.484346
 21
243.484308
  0
ARC
  8
APS_GEOMETRY
 10
-175.651901
 20
244.329846
 40
0.84555
 50
269.698802
 51
0.305782
  0
ARC
  8
APS_GEOMETRY
 10
-176.260763
 20
244.335496
 40
1.4544
 50
359.95518
 51
63.259774
  0
LINE
  8
APS_GEOMETRY
 10
-177.956362
 11
-175.656346
 20
241.334346
 21
241.334308
  0
ARC
  8
APS_GEOMETRY
 10
-175.651901
 20
242.179846
 40
0.84555
 50
269.698802
 51
0.305782
  0
ARC
  8
APS_GEOMETRY
 10
-176.260763
 20
242.185496
 40
1.4544
 50
359.95518
 51
63.259774
  0
LINE
  8
APS_GEOMETRY
 10
-177.956362
 11
-175.656346
 20
238.184286
 21
238.184248
  0
ARC
  8
APS_GEOMETRY
 10
-175.651901
 20
239.029786
 40
0.84555
 50
269.698802
 51
0.305782
  0
ARC
  8
APS_GEOMETRY
 10
-176.260763
 20
239.035436
 40
1.4544
 50
359.95518
 51
63.259774
  0
LINE
  8
APS_GEOMETRY
 10
-177.956362
 11
-175.656346
 20
236.034286
 21
236.034248
  0
ARC
  8
APS_GEOMETRY
 10
-175.651901
 20
236.879786
 40
0.84555
 50
269.698802
 51
0.305782
  0
ARC
  8
APS_GEOMETRY
 10
-176.260763
 20
236.885436
 40
1.4544
 50
359.95518
 51
63.259774
  0
LINE
  8
APS_GEOMETRY
 10
-132.419744
 11
-130.119727
 20
293.152165
 21
293.152127
  0
ARC
  8
APS_GEOMETRY
 10
-130.115282
 20
293.997665
 40
0.84555
 50
269.698802
 51
0.305782
  0
ARC
  8
APS_GEOMETRY
 10
-130.724144
 20
294.003315
 40
1.4544
 50
359.9552
 51
63.259818
  0
LINE
  8
APS_GEOMETRY
 10
-132.419744
 11
-130.119727
 20
291.002165
 21
291.002127
  0
ARC
  8
APS_GEOMETRY
 10
-130.115282
 20
291.847665
 40
0.84555
 50
269.698802
 51
0.305782
  0
ARC
  8
APS_GEOMETRY
 10
-130.724144
 20
291.853315
 40
1.4544
 50
359.9552
 51
63.259818
  0
LINE
  8
APS_GEOMETRY
 10
-132.419744
 11
-130.119727
 20
287.852104
 21
287.852066
  0
ARC
  8
APS_GEOMETRY
 10
-130.115282
 20
288.697604
 40
0.84555
 50
269.698802
 51
0.305782
  0
ARC
  8
APS_GEOMETRY
 10
-130.724144
 20
288.703254
 40
1.4544
 50
359.9552
 51
63.259818
  0
LINE
  8
APS_GEOMETRY
 10
-132.419744
 11
-130.119727
 20
285.702104
 21
285.702066
  0
ARC
  8
APS_GEOMETRY
 10
-130.115282
 20
286.547604
 40
0.84555
 50
269.698802
 51
0.305782
  0
ARC
  8
APS_GEOMETRY
 10
-130.724144
 20
286.553254
 40
1.4544
 50
359.9552
 51
63.259818
  0
ARC
  8
APS_GEOMETRY
 10
-163.292726
 20
294.945877
 40
1.637
 50
128.6887
 51
231.3113
  0
ARC
  8
APS_GEOMETRY
 10
-162.399302
 20
296.033183
 40
3.044222
 50
230.978111
 51
309.020728
  0
ARC
  8
APS_GEOMETRY
 10
-161.505913
 20
294.945848
 40
1.637
 50
308.688153
 51
51.312913
  0
ARC
  8
APS_GEOMETRY
 10
-162.399338
 20
293.858541
 40
3.044222
 50
50.978975
 51
129.021016
  0
ARC
  8
APS_GEOMETRY
 10
-162.443684
 20
291.632294
 40
3.039389
 50
301.026839
 51
310.045456
  0
ARC
  8
APS_GEOMETRY
 10
-161.51139
 20
290.583333
 40
1.637
 50
308.687081
 51
51.311844
  0
ARC
  8
APS_GEOMETRY
 10
-162.404779
 20
289.495998
 40
3.044222
 50
50.97926
 51
129.021885
  0
ARC
  8
APS_GEOMETRY
 10
-163.298226
 20
290.583286
 40
1.637
 50
128.687676
 51
231.312677
  0
ARC
  8
APS_GEOMETRY
 10
-162.53637
 20
291.651027
 40
2.947556
 50
232.726609
 51
245.345901
  0
LINE
  8
APS_GEOMETRY
 10
-159.994756
 11
-163.32809
 20
287.940948
 21
287.940949
  0
ARC
  8
APS_GEOMETRY
 10
-163.32809
 20
286.274282
 40
1.666667
 50
90.0
 51
270.0
  0
LINE
  8
APS_GEOMETRY
 10
-163.32809
 11
-159.994756
 20
284.607615
 21
284.607615
  0
ARC
  8
APS_GEOMETRY
 10
-161.914036
 20
281.961157
 40
2.055222
 50
312.9037
 51
32.5462
  0
ARC
  8
APS_GEOMETRY
 10
-161.061422
 20
282.488722
 40
1.052778
 50
33.306708
 51
163.425514
  0
LINE
  8
APS_GEOMETRY
 10
-162.070457
 11
-162.626036
 20
282.789039
 21
281.122379
  0
ARC
  8
APS_GEOMETRY
 10
-163.70254
 20
281.46172
 40
1.128722
 50
209.837948
 51
342.503841
  0
ARC
  8
APS_GEOMETRY
 10
-162.803359
 20
281.983413
 40
2.168278
 50
150.022531
 51
209.973996
  0
ARC
  8
APS_GEOMETRY
 10
-163.644063
 20
282.47396
 40
1.194945
 50
119.759337
 51
150.255408
  0
LINE
  8
APS_GEOMETRY
 10
-162.502851
 11
-162.502851
 20
248.541293
 21
246.152404
  0
ARC
  8
APS_GEOMETRY
 10
-161.225073
 20
246.152404
 40
1.277778
 50
180.0
 51
0.0
  0
LINE
  8
APS_GEOMETRY
 10
-159.947295
 11
-159.947295
 20
246.152404
 21
248.541293
  0
LINE
  8
APS_GEOMETRY
 10
-159.947295
 11
-164.947295
 20
248.541293
 21
248.541293
  0
LINE
  8
APS_GEOMETRY
 10
-162.502851
 11
-162.502851
 20
234.207959
 21
231.81907
  0
ARC
  8
APS_GEOMETRY
 10
-161.225073
 20
231.81907
 40
1.277778
 50
180.0
 51
0.0
  0
LINE
  8
APS_GEOMETRY
 10
-159.947295
 11
-159.947295
 20
231.81907
 21
234.207959
  0
LINE
  8
APS_GEOMETRY
 10
-159.947295
 11
-164.947295
 20
234.207959
 21
234.207959
  0
LINE
  8
APS_GEOMETRY
 10
-146.428451
 11
-128.928451
 20
190.569535
 21
190.569658
  0
ARC
  8
APS_GEOMETRY
 10
-128.928465
 20
192.569658
 40
2.0
 50
270.000405
 51
0.000405
  0
LINE
  8
APS_GEOMETRY
 10
-126.928465
 11
-126.928578
 20
192.569672
 21
208.594657
  0
ARC
  8
APS_GEOMETRY
 10
-128.928578
 20
208.594643
 40
2.0
 50
0.000401
 51
90.000405
  0
LINE
  8
APS_GEOMETRY
 10
-128.928592
 11
-131.928593
 20
210.594643
 21
210.594621
  0
LINE
  8
APS_GEOMETRY
 10
-131.928593
 11
-131.928663
 20
210.594621
 21
220.607165
  0
LINE
  8
APS_GEOMETRY
 10
-131.928663
 11
-129.928685
 20
220.607165
 21
220.607165
  0
ARC
  8
APS_GEOMETRY
 10
-129.928685
 20
223.607165
 40
3.0
 50
270.0
 51
0.000405
  0
LINE
  8
APS_GEOMETRY
 10
-126.928685
 11
-126.928925
 20
223.607186
 21
257.657118
  0
ARC
  8
APS_GEOMETRY
 10
-129.928925
 20
257.657097
 40
3.0
 50
0.000401
 51
90.000405
  0
LINE
  8
APS_GEOMETRY
 10
-129.928946
 11
-131.928947
 20
260.657097
 21
260.657082
  0
LINE
  8
APS_GEOMETRY
 10
-131.928947
 11
-131.929017
 20
260.657082
 21
270.669626
  0
LINE
  8
APS_GEOMETRY
 10
-131.929017
 11
-129.929039
 20
270.669626
 21
270.669626
  0
ARC
  8
APS_GEOMETRY
 10
-129.929039
 20
273.669626
 40
3.0
 50
270.0
 51
0.000405
  0
LINE
  8
APS_GEOMETRY
 10
-126.929039
 11
-126.929287
 20
273.669647
 21
308.719579
  0
ARC
  8
APS_GEOMETRY
 10
-128.929287
 20
308.719565
 40
2.0
 50
0.000401
 51
90.000405
  0
LINE
  8
APS_GEOMETRY
 10
-128.929301
 11
-131.929301
 20
310.719565
 21
310.719543
  0
LINE
  8
APS_GEOMETRY
 10
-131.929301
 11
-131.929372
 20
310.719543
 21
320.732087
  0
LINE
  8
APS_GEOMETRY
 10
-131.929372
 11
-129.929393
 20
320.732087
 21
320.732087
  0
ARC
  8
APS_GEOMETRY
 10
-129.929393
 20
323.732087
 40
3.0
 50
270.0
 51
0.000405
  0
LINE
  8
APS_GEOMETRY
 10
-126.929393
 11
-126.92957
 20
323.732108
 21
348.769548
  0
ARC
  8
APS_GEOMETRY
 10
-128.92957
 20
348.769533
 40
2.0
 50
0.00043
 51
90.000405
  0
LINE
  8
APS_GEOMETRY
 10
-128.929584
 11
-146.429584
 20
350.769533
 21
350.76941
  0
ARC
  8
APS_GEOMETRY
 10
-147.84699
 20
270.601403
 40
1.637
 50
128.6887
 51
231.3113
  0
ARC
  8
APS_GEOMETRY
 10
-146.953566
 20
271.68871
 40
3.044222
 50
230.978126
 51
309.020743
  0
ARC
  8
APS_GEOMETRY
 10
-146.060177
 20
270.601375
 40
1.637
 50
308.688159
 51
51.312862
  0
ARC
  8
APS_GEOMETRY
 10
-146.953601
 20
269.514068
 40
3.044222
 50
50.978963
 51
129.021028
  0
ARC
  8
APS_GEOMETRY
 10
-146.260929
 20
231.782918
 40
1.190389
 50
73.020644
 51
124.471649
  0
ARC
  8
APS_GEOMETRY
 10
-146.486587
 20
231.012535
 40
1.993111
 50
16.713842
 51
73.283706
  0
ARC
  8
APS_GEOMETRY
 10
-145.75882
 20
231.274121
 40
1.221556
 50
255.220012
 51
14.779396
  0
LINE
  8
APS_GEOMETRY
 10
-146.070449
 11
-148.231045
 20
230.092983
 21
230.603661
  0
ARC
  8
APS_GEOMETRY
 10
-148.633082
 20
228.887741
 40
1.762389
 50
76.813563
 51
135.07656
  0
LINE
  8
APS_GEOMETRY
 10
-149.880943
 11
-147.523939
 20
230.132272
 21
227.775234
  0
ARC
  8
APS_GEOMETRY
 10
-147.766632
 20
210.254243
 40
1.559056
 50
163.751948
 51
213.48402
  0
ARC
  8
APS_GEOMETRY
 10
-146.522293
 20
211.031403
 40
3.025889
 50
212.758307
 51
241.480367
  0
ARC
  8
APS_GEOMETRY
 10
-147.275713
 20
209.614001
 40
1.420833
 50
240.88523
 51
280.197101
  0
ARC
  8
APS_GEOMETRY
 10
-147.261423
 20
209.612552
 40
1.416945
 50
279.638761
 51
346.268669
  0
ARC
  8
APS_GEOMETRY
 10
-147.306313
 20
209.634408
 40
1.465778
 50
345.855298
 51
30.402329
  0
ARC
  8
APS_GEOMETRY
 10
-148.35469
 20
209.006403
 40
2.687833
 50
30.638921
 51
59.36112
  0
ARC
  8
APS_GEOMETRY
 10
-145.660531
 20
214.042578
 40
3.0285
 50
244.06808
 51
300.637891
  0
LINE
  8
APS_GEOMETRY
 10
-144.117175
 11
-146.277801
 20
211.436841
 21
213.597451
  0
ARC
  8
APS_GEOMETRY
 10
-147.888191
 20
330.525708
 40
1.559056
 50
163.751948
 51
213.48402
  0
ARC
  8
APS_GEOMETRY
 10
-146.643853
 20
331.302868
 40
3.025889
 50
212.758326
 51
241.4804
  0
ARC
  8
APS_GEOMETRY
 10
-147.397271
 20
329.885466
 40
1.420833
 50
240.88523
 51
280.197101
  0
ARC
  8
APS_GEOMETRY
 10
-147.382982
 20
329.884017
 40
1.416945
 50
279.638804
 51
346.268676
  0
ARC
  8
APS_GEOMETRY
 10
-147.427872
 20
329.905873
 40
1.465778
 50
345.855298
 51
30.402329
  0
ARC
  8
APS_GEOMETRY
 10
-148.476249
 20
329.277868
 40
2.687833
 50
30.638921
 51
59.36112
  0
ARC
  8
APS_GEOMETRY
 10
-145.78209
 20
334.314043
 40
3.0285
 50
244.06808
 51
300.637891
  0
LINE
  8
APS_GEOMETRY
 10
-144.238734
 11
-146.399359
 20
331.708306
 21
333.868916
  0
ARC
  8
APS_GEOMETRY
 10
-146.434749
 20
312.056677
 40
1.190389
 50
73.020695
 51
124.471707
  0
ARC
  8
APS_GEOMETRY
 10
-146.660408
 20
311.286294
 40
1.993111
 50
16.713842
 51
73.283706
  0
ARC
  8
APS_GEOMETRY
 10
-145.932641
 20
311.547879
 40
1.221556
 50
255.219998
 51
14.779448
  0
LINE
  8
APS_GEOMETRY
 10
-146.24427
 11
-148.404866
 20
310.366741
 21
310.877419
  0
ARC
  8
APS_GEOMETRY
 10
-148.806903
 20
309.161499
 40
1.762389
 50
76.813563
 51
135.07656
  0
LINE
  8
APS_GEOMETRY
 10
-150.054764
 11
-147.69776
 20
310.40603
 21
308.048992
  0
LINE
  8
APS_GEOMETRY
 10
-147.42746
 11
-164.92746
 20
350.76941
 21
350.769533
  0
ARC
  8
APS_GEOMETRY
 10
-164.927474
 20
348.769533
 40
2.0
 50
89.999595
 51
179.99957
  0
LINE
  8
APS_GEOMETRY
 10
-166.927474
 11
-166.927651
 20
348.769548
 21
323.732108
  0
ARC
  8
APS_GEOMETRY
 10
-163.927651
 20
323.732087
 40
3.0
 50
179.999595
 51
270.0
  0
LINE
  8
APS_GEOMETRY
 10
-163.927651
 11
-161.927672
 20
320.732087
 21
320.732087
  0
LINE
  8
APS_GEOMETRY
 10
-161.927672
 11
-161.927743
 20
320.732087
 21
310.719543
  0
LINE
  8
APS_GEOMETRY
 10
-161.927743
 11
-164.927743
 20
310.719543
 21
310.719565
  0
ARC
  8
APS_GEOMETRY
 10
-164.927757
 20
308.719565
 40
2.0
 50
89.999595
 51
179.999599
  0
LINE
  8
APS_GEOMETRY
 10
-166.927757
 11
-166.928005
 20
308.719579
 21
273.669647
  0
ARC
  8
APS_GEOMETRY
 10
-163.928005
 20
273.669626
 40
3.0
 50
179.999595
 51
270.0
  0
LINE
  8
APS_GEOMETRY
 10
-163.928005
 11
-161.928026
 20
270.669626
 21
270.669626
  0
LINE
  8
APS_GEOMETRY
 10
-161.928026
 11
-161.928097
 20
270.669626
 21
260.657082
  0
LINE
  8
APS_GEOMETRY
 10
-161.928097
 11
-163.928097
 20
260.657082
 21
260.657097
  0
ARC
  8
APS_GEOMETRY
 10
-163.928118
 20
257.657097
 40
3.0
 50
89.999595
 51
179.999599
  0
LINE
  8
APS_GEOMETRY
 10
-166.928118
 11
-166.928359
 20
257.657118
 21
223.607186
  0
ARC
  8
APS_GEOMETRY
 10
-163.928359
 20
223.607165
 40
3.0
 50
179.999595
 51
270.0
  0
LINE
  8
APS_GEOMETRY
 10
-163.928359
 11
-161.92838
 20
220.607165
 21
220.607165
  0
LINE
  8
APS_GEOMETRY
 10
-161.92838
 11
-161.928451
 20
220.607165
 21
210.594621
  0
LINE
  8
APS_GEOMETRY
 10
-161.928451
 11
-164.928451
 20
210.594621
 21
210.594643
  0
ARC
  8
APS_GEOMETRY
 10
-164.928465
 20
208.594643
 40
2.0
 50
89.999595
 51
179.999599
  0
LINE
  8
APS_GEOMETRY
 10
-166.928465
 11
-166.928578
 20
208.594657
 21
192.569672
  0
ARC
  8
APS_GEOMETRY
 10
-164.928578
 20
192.569658
 40
2.0
 50
179.999595
 51
269.999595
  0
LINE
  8
APS_GEOMETRY
 10
-164.928592
 11
-147.428593
 20
190.569658
 21
190.569535
  0
LINE
  8
APS_GEOMETRY
 10
-132.419744
 11
-130.119727
 20
243.484346
 21
243.484308
  0
ARC
  8
APS_GEOMETRY
 10
-130.115282
 20
244.329846
 40
0.84555
 50
269.698802
 51
0.305782
  0
ARC
  8
APS_GEOMETRY
 10
-130.724144
 20
244.335496
 40
1.4544
 50
359.9552
 51
63.259818
  0
LINE
  8
APS_GEOMETRY
 10
-132.419744
 11
-130.119727
 20
241.334346
 21
241.334308
  0
ARC
  8
APS_GEOMETRY
 10
-130.115282
 20
242.179846
 40
0.84555
 50
269.698802
 51
0.305782
  0
ARC
  8
APS_GEOMETRY
 10
-130.724144
 20
242.185496
 40
1.4544
 50
359.9552
 51
63.259818
  0
LINE
  8
APS_GEOMETRY
 10
-132.419744
 11
-130.119727
 20
238.184286
 21
238.184248
  0
ARC
  8
APS_GEOMETRY
 10
-130.115282
 20
239.029786
 40
0.84555
 50
269.698802
 51
0.305782
  0
ARC
  8
APS_GEOMETRY
 10
-130.724144
 20
239.035436
 40
1.4544
 50
359.9552
 51
63.259818
  0
LINE
  8
APS_GEOMETRY
 10
-132.419744
 11
-130.119727
 20
236.034286
 21
236.034248
  0
ARC
  8
APS_GEOMETRY
 10
-130.115282
 20
236.879786
 40
0.84555
 50
269.698802
 51
0.305782
  0
ARC
  8
APS_GEOMETRY
 10
-130.724144
 20
236.885436
 40
1.4544
 50
359.9552
 51
63.259818
  0
LINE
  8
APS_GEOMETRY
 10
-86.883125
 11
-84.583109
 20
293.152165
 21
293.152127
  0
ARC
  8
APS_GEOMETRY
 10
-84.578664
 20
293.997665
 40
0.84555
 50
269.698802
 51
0.305782
  0
ARC
  8
APS_GEOMETRY
 10
-85.187526
 20
294.003315
 40
1.4544
 50
359.95518
 51
63.259774
  0
LINE
  8
APS_GEOMETRY
 10
-86.883125
 11
-84.583109
 20
291.002165
 21
291.002127
  0
ARC
  8
APS_GEOMETRY
 10
-84.578664
 20
291.847665
 40
0.84555
 50
269.698802
 51
0.305782
  0
ARC
  8
APS_GEOMETRY
 10
-85.187526
 20
291.853315
 40
1.4544
 50
359.95518
 51
63.259774
  0
LINE
  8
APS_GEOMETRY
 10
-86.883125
 11
-84.583109
 20
287.852104
 21
287.852066
  0
ARC
  8
APS_GEOMETRY
 10
-84.578664
 20
288.697604
 40
0.84555
 50
269.698802
 51
0.305782
  0
ARC
  8
APS_GEOMETRY
 10
-85.187526
 20
288.703254
 40
1.4544
 50
359.95518
 51
63.259774
  0
LINE
  8
APS_GEOMETRY
 10
-86.883125
 11
-84.583109
 20
285.702104
 21
285.702066
  0
ARC
  8
APS_GEOMETRY
 10
-84.578664
 20
286.547604
 40
0.84555
 50
269.698802
 51
0.305782
  0
ARC
  8
APS_GEOMETRY
 10
-85.187526
 20
286.553254
 40
1.4544
 50
359.95518
 51
63.259774
  0
ARC
  8
APS_GEOMETRY
 10
-117.756108
 20
294.945877
 40
1.637
 50
128.6887
 51
231.3113
  0
ARC
  8
APS_GEOMETRY
 10
-116.862683
 20
296.033183
 40
3.044222
 50
230.978099
 51
309.02074
  0
ARC
  8
APS_GEOMETRY
 10
-115.969294
 20
294.945848
 40
1.637
 50
308.688153
 51
51.312913
  0
ARC
  8
APS_GEOMETRY
 10
-116.862719
 20
293.858542
 40
3.044222
 50
50.978963
 51
129.021028
  0
ARC
  8
APS_GEOMETRY
 10
-116.907065
 20
291.632294
 40
3.039389
 50
301.026839
 51
310.045456
  0
ARC
  8
APS_GEOMETRY
 10
-115.974771
 20
290.583333
 40
1.637
 50
308.687081
 51
51.311844
  0
ARC
  8
APS_GEOMETRY
 10
-116.868161
 20
289.495998
 40
3.044222
 50
50.979248
 51
129.021897
  0
ARC
  8
APS_GEOMETRY
 10
-117.761608
 20
290.583286
 40
1.637
 50
128.687676
 51
231.312677
  0
ARC
  8
APS_GEOMETRY
 10
-116.999752
 20
291.651027
 40
2.947556
 50
232.726609
 51
245.345901
  0
LINE
  8
APS_GEOMETRY
 10
-114.458138
 11
-117.791471
 20
287.940948
 21
287.940949
  0
ARC
  8
APS_GEOMETRY
 10
-117.791471
 20
286.274282
 40
1.666667
 50
90.0
 51
270.0
  0
LINE
  8
APS_GEOMETRY
 10
-117.791471
 11
-114.458138
 20
284.607615
 21
284.607615
  0
ARC
  8
APS_GEOMETRY
 10
-116.377417
 20
281.961157
 40
2.055222
 50
312.9037
 51
32.5462
  0
ARC
  8
APS_GEOMETRY
 10
-115.524803
 20
282.488722
 40
1.052778
 50
33.306708
 51
163.425514
  0
LINE
  8
APS_GEOMETRY
 10
-116.533838
 11
-117.089417
 20
282.789039
 21
281.122379
  0
ARC
  8
APS_GEOMETRY
 10
-118.165921
 20
281.461719
 40
1.128722
 50
209.837883
 51
342.503901
  0
ARC
  8
APS_GEOMETRY
 10
-117.26674
 20
281.983412
 40
2.168278
 50
150.022505
 51
209.97397
  0
ARC
  8
APS_GEOMETRY
 10
-118.107444
 20
282.47396
 40
1.194945
 50
119.759337
 51
150.255408
  0
LINE
  8
APS_GEOMETRY
 10
-116.966232
 11
-116.966232
 20
248.541293
 21
246.152404
  0
ARC
  8
APS_GEOMETRY
 10
-115.688454
 20
246.152404
 40
1.277778
 50
180.0
 51
0.0
  0
LINE
  8
APS_GEOMETRY
 10
-114.410676
 11
-114.410677
 20
246.152404
 21
248.541293
  0
LINE
  8
APS_GEOMETRY
 10
-114.410677
 11
-119.410677
 20
248.541293
 21
248.541293
  0
LINE
  8
APS_GEOMETRY
 10
-116.966232
 11
-116.966232
 20
234.207959
 21
231.81907
  0
ARC
  8
APS_GEOMETRY
 10
-115.688454
 20
231.81907
 40
1.277778
 50
180.0
 51
0.0
  0
LINE
  8
APS_GEOMETRY
 10
-114.410676
 11
-114.410677
 20
231.81907
 21
234.207959
  0
LINE
  8
APS_GEOMETRY
 10
-114.410677
 11
-119.410677
 20
234.207959
 21
234.207959
  0
LINE
  8
APS_GEOMETRY
 10
-100.891832
 11
-83.391832
 20
190.569535
 21
190.569658
  0
ARC
  8
APS_GEOMETRY
 10
-83.391846
 20
192.569658
 40
2.0
 50
270.000405
 51
0.000405
  0
LINE
  8
APS_GEOMETRY
 10
-81.391846
 11
-81.39196
 20
192.569672
 21
208.594657
  0
ARC
  8
APS_GEOMETRY
 10
-83.39196
 20
208.594643
 40
2.0
 50
0.000401
 51
90.000405
  0
LINE
  8
APS_GEOMETRY
 10
-83.391974
 11
-86.391974
 20
210.594643
 21
210.594621
  0
LINE
  8
APS_GEOMETRY
 10
-86.391974
 11
-86.392045
 20
210.594621
 21
220.607165
  0
LINE
  8
APS_GEOMETRY
 10
-86.392045
 11
-84.392066
 20
220.607165
 21
220.607165
  0
ARC
  8
APS_GEOMETRY
 10
-84.392066
 20
223.607165
 40
3.0
 50
270.0
 51
0.000405
  0
LINE
  8
APS_GEOMETRY
 10
-81.392066
 11
-81.392307
 20
223.607186
 21
257.657118
  0
ARC
  8
APS_GEOMETRY
 10
-84.392307
 20
257.657097
 40
3.0
 50
0.000401
 51
90.000405
  0
LINE
  8
APS_GEOMETRY
 10
-84.392328
 11
-86.392328
 20
260.657097
 21
260.657082
  0
LINE
  8
APS_GEOMETRY
 10
-86.392328
 11
-86.392399
 20
260.657082
 21
270.669626
  0
LINE
  8
APS_GEOMETRY
 10
-86.392399
 11
-84.39242
 20
270.669626
 21
270.669626
  0
ARC
  8
APS_GEOMETRY
 10
-84.39242
 20
273.669626
 40
3.0
 50
270.0
 51
0.000405
  0
LINE
  8
APS_GEOMETRY
 10
-81.39242
 11
-81.392668
 20
273.669647
 21
308.719579
  0
ARC
  8
APS_GEOMETRY
 10
-83.392668
 20
308.719565
 40
2.0
 50
0.000401
 51
90.000405
  0
LINE
  8
APS_GEOMETRY
 10
-83.392682
 11
-86.392682
 20
310.719565
 21
310.719543
  0
LINE
  8
APS_GEOMETRY
 10
-86.392682
 11
-86.392753
 20
310.719543
 21
320.732087
  0
LINE
  8
APS_GEOMETRY
 10
-86.392753
 11
-84.392774
 20
320.732087
 21
320.732087
  0
ARC
  8
APS_GEOMETRY
 10
-84.392774
 20
323.732087
 40
3.0
 50
270.0
 51
0.000405
  0
LINE
  8
APS_GEOMETRY
 10
-81.392774
 11
-81.392951
 20
323.732108
 21
348.769548
  0
ARC
  8
APS_GEOMETRY
 10
-83.392951
 20
348.769533
 40
2.0
 50
0.00043
 51
90.000405
  0
LINE
  8
APS_GEOMETRY
 10
-83.392965
 11
-100.892965
 20
350.769533
 21
350.76941
  0
ARC
  8
APS_GEOMETRY
 10
-102.310372
 20
270.601403
 40
1.637
 50
128.6887
 51
231.3113
  0
ARC
  8
APS_GEOMETRY
 10
-101.416948
 20
271.688709
 40
3.044222
 50
230.978114
 51
309.020755
  0
ARC
  8
APS_GEOMETRY
 10
-100.523559
 20
270.601374
 40
1.637
 50
308.688181
 51
51.312885
  0
ARC
  8
APS_GEOMETRY
 10
-101.416983
 20
269.514068
 40
3.044222
 50
50.978963
 51
129.021028
  0
ARC
  8
APS_GEOMETRY
 10
-100.72431
 20
231.782918
 40
1.190389
 50
73.020679
 51
124.471631
  0
ARC
  8
APS_GEOMETRY
 10
-100.949969
 20
231.012535
 40
1.993111
 50
16.713842
 51
73.283706
  0
ARC
  8
APS_GEOMETRY
 10
-100.222202
 20
231.274121
 40
1.221556
 50
255.220064
 51
14.779382
  0
LINE
  8
APS_GEOMETRY
 10
-100.53383
 11
-102.694427
 20
230.092983
 21
230.603661
  0
ARC
  8
APS_GEOMETRY
 10
-103.096464
 20
228.887741
 40
1.762389
 50
76.813563
 51
135.07656
  0
LINE
  8
APS_GEOMETRY
 10
-104.344325
 11
-101.98732
 20
230.132272
 21
227.775234
  0
ARC
  8
APS_GEOMETRY
 10
-102.230014
 20
210.254243
 40
1.559056
 50
163.751948
 51
213.48402
  0
ARC
  8
APS_GEOMETRY
 10
-100.985676
 20
211.031403
 40
3.025889
 50
212.758326
 51
241.4804
  0
ARC
  8
APS_GEOMETRY
 10
-101.739094
 20
209.614001
 40
1.420833
 50
240.88523
 51
280.197101
  0
ARC
  8
APS_GEOMETRY
 10
-101.724804
 20
209.612552
 40
1.416945
 50
279.638761
 51
346.268669
  0
ARC
  8
APS_GEOMETRY
 10
-101.769694
 20
209.634408
 40
1.465778
 50
345.855298
 51
30.402329
  0
ARC
  8
APS_GEOMETRY
 10
-102.818071
 20
209.006402
 40
2.687833
 50
30.638944
 51
59.361158
  0
ARC
  8
APS_GEOMETRY
 10
-100.123913
 20
214.042578
 40
3.0285
 50
244.06808
 51
300.637891
  0
LINE
  8
APS_GEOMETRY
 10
-98.580557
 11
-100.741182
 20
211.436841
 21
213.597451
  0
ARC
  8
APS_GEOMETRY
 10
-102.351572
 20
330.525708
 40
1.559056
 50
163.751948
 51
213.48402
  0
ARC
  8
APS_GEOMETRY
 10
-101.107233
 20
331.302868
 40
3.025889
 50
212.758307
 51
241.480367
  0
ARC
  8
APS_GEOMETRY
 10
-101.860653
 20
329.885466
 40
1.420833
 50
240.88523
 51
280.197101
  0
ARC
  8
APS_GEOMETRY
 10
-101.846363
 20
329.884017
 40
1.416945
 50
279.638761
 51
346.268669
  0
ARC
  8
APS_GEOMETRY
 10
-101.891253
 20
329.905873
 40
1.465778
 50
345.855298
 51
30.402329
  0
ARC
  8
APS_GEOMETRY
 10
-102.93963
 20
329.277868
 40
2.687833
 50
30.638921
 51
59.36112
  0
ARC
  8
APS_GEOMETRY
 10
-100.245471
 20
334.314043
 40
3.0285
 50
244.06808
 51
300.637891
  0
LINE
  8
APS_GEOMETRY
 10
-98.702115
 11
-100.862741
 20
331.708306
 21
333.868916
  0
ARC
  8
APS_GEOMETRY
 10
-100.89813
 20
312.056677
 40
1.190389
 50
73.02073
 51
124.47169
  0
ARC
  8
APS_GEOMETRY
 10
-101.12379
 20
311.286294
 40
1.993111
 50
16.713842
 51
73.283706
  0
ARC
  8
APS_GEOMETRY
 10
-100.396023
 20
311.547879
 40
1.221556
 50
255.22005
 51
14.779434
  0
LINE
  8
APS_GEOMETRY
 10
-100.707651
 11
-102.868248
 20
310.366741
 21
310.877419
  0
ARC
  8
APS_GEOMETRY
 10
-103.270285
 20
309.161499
 40
1.762389
 50
76.813563
 51
135.07656
  0
LINE
  8
APS_GEOMETRY
 10
-104.518146
 11
-102.161141
 20
310.40603
 21
308.048992
  0
LINE
  8
APS_GEOMETRY
 10
-101.890841
 11
-119.390841
 20
350.76941
 21
350.769533
  0
ARC
  8
APS_GEOMETRY
 10
-119.390855
 20
348.769533
 40
2.0
 50
89.999595
 51
179.99957
  0
LINE
  8
APS_GEOMETRY
 10
-121.390855
 11
-121.391032
 20
348.769548
 21
323.732108
  0
ARC
  8
APS_GEOMETRY
 10
-118.391032
 20
323.732087
 40
3.0
 50
179.999595
 51
270.0
  0
LINE
  8
APS_GEOMETRY
 10
-118.391032
 11
-116.391053
 20
320.732087
 21
320.732087
  0
LINE
  8
APS_GEOMETRY
 10
-116.391053
 11
-116.391124
 20
320.732087
 21
310.719543
  0
LINE
  8
APS_GEOMETRY
 10
-116.391124
 11
-119.391124
 20
310.719543
 21
310.719565
  0
ARC
  8
APS_GEOMETRY
 10
-119.391138
 20
308.719565
 40
2.0
 50
89.999595
 51
179.999599
  0
LINE
  8
APS_GEOMETRY
 10
-121.391138
 11
-121.391386
 20
308.719579
 21
273.669647
  0
ARC
  8
APS_GEOMETRY
 10
-118.391386
 20
273.669626
 40
3.0
 50
179.999595
 51
270.0
  0
LINE
  8
APS_GEOMETRY
 10
-118.391386
 11
-116.391407
 20
270.669626
 21
270.669626
  0
LINE
  8
APS_GEOMETRY
 10
-116.391407
 11
-116.391478
 20
270.669626
 21
260.657082
  0
LINE
  8
APS_GEOMETRY
 10
-116.391478
 11
-118.391479
 20
260.657082
 21
260.657097
  0
ARC
  8
APS_GEOMETRY
 10
-118.3915
 20
257.657097
 40
3.0
 50
89.999595
 51
179.999599
  0
LINE
  8
APS_GEOMETRY
 10
-121.3915
 11
-121.39174
 20
257.657118
 21
223.607186
  0
ARC
  8
APS_GEOMETRY
 10
-118.39174
 20
223.607165
 40
3.0
 50
179.999595
 51
270.0
  0
LINE
  8
APS_GEOMETRY
 10
-118.39174
 11
-116.391762
 20
220.607165
 21
220.607165
  0
LINE
  8
APS_GEOMETRY
 10
-116.391762
 11
-116.391832
 20
220.607165
 21
210.594621
  0
LINE
  8
APS_GEOMETRY
 10
-116.391832
 11
-119.391832
 20
210.594621
 21
210.594643
  0
ARC
  8
APS_GEOMETRY
 10
-119.391846
 20
208.594643
 40
2.0
 50
89.999595
 51
179.999599
  0
LINE
  8
APS_GEOMETRY
 10
-121.391846
 11
-121.39196
 20
208.594657
 21
192.569672
  0
ARC
  8
APS_GEOMETRY
 10
-119.39196
 20
192.569658
 40
2.0
 50
179.999595
 51
269.999595
  0
LINE
  8
APS_GEOMETRY
 10
-119.391974
 11
-101.891974
 20
190.569658
 21
190.569535
  0
LINE
  8
APS_GEOMETRY
 10
-86.883125
 11
-84.583109
 20
243.484346
 21
243.484308
  0
ARC
  8
APS_GEOMETRY
 10
-84.578664
 20
244.329846
 40
0.84555
 50
269.698802
 51
0.305782
  0
ARC
  8
APS_GEOMETRY
 10
-85.187526
 20
244.335496
 40
1.4544
 50
359.95518
 51
63.259774
  0
LINE
  8
APS_GEOMETRY
 10
-86.883125
 11
-84.583109
 20
241.334346
 21
241.334308
  0
ARC
  8
APS_GEOMETRY
 10
-84.578664
 20
242.179846
 40
0.84555
 50
269.698802
 51
0.305782
  0
ARC
  8
APS_GEOMETRY
 10
-85.187526
 20
242.185496
 40
1.4544
 50
359.95518
 51
63.259774
  0
LINE
  8
APS_GEOMETRY
 10
-86.883125
 11
-84.583109
 20
238.184286
 21
238.184248
  0
ARC
  8
APS_GEOMETRY
 10
-84.578664
 20
239.029786
 40
0.84555
 50
269.698802
 51
0.305782
  0
ARC
  8
APS_GEOMETRY
 10
-85.187526
 20
239.035436
 40
1.4544
 50
359.95518
 51
63.259774
  0
LINE
  8
APS_GEOMETRY
 10
-86.883125
 11
-84.583109
 20
236.034286
 21
236.034248
  0
ARC
  8
APS_GEOMETRY
 10
-84.578664
 20
236.879786
 40
0.84555
 50
269.698802
 51
0.305782
  0
ARC
  8
APS_GEOMETRY
 10
-85.187526
 20
236.885436
 40
1.4544
 50
359.95518
 51
63.259774
  0
LINE
  8
APS_GEOMETRY
 10
-41.346507
 11
-39.04649
 20
293.152165
 21
293.152127
  0
ARC
  8
APS_GEOMETRY
 10
-39.042045
 20
293.997665
 40
0.84555
 50
269.698802
 51
0.305782
  0
ARC
  8
APS_GEOMETRY
 10
-39.650907
 20
294.003315
 40
1.4544
 50
359.9552
 51
63.259818
  0
LINE
  8
APS_GEOMETRY
 10
-41.346507
 11
-39.04649
 20
291.002165
 21
291.002127
  0
ARC
  8
APS_GEOMETRY
 10
-39.042045
 20
291.847665
 40
0.84555
 50
269.698802
 51
0.305782
  0
ARC
  8
APS_GEOMETRY
 10
-39.650907
 20
291.853315
 40
1.4544
 50
359.9552
 51
63.259818
  0
LINE
  8
APS_GEOMETRY
 10
-41.346507
 11
-39.04649
 20
287.852104
 21
287.852066
  0
ARC
  8
APS_GEOMETRY
 10
-39.042045
 20
288.697604
 40
0.84555
 50
269.698802
 51
0.305782
  0
ARC
  8
APS_GEOMETRY
 10
-39.650907
 20
288.703254
 40
1.4544
 50
359.9552
 51
63.259818
  0
LINE
  8
APS_GEOMETRY
 10
-41.346507
 11
-39.04649
 20
285.702104
 21
285.702066
  0
ARC
  8
APS_GEOMETRY
 10
-39.042045
 20
286.547604
 40
0.84555
 50
269.698802
 51
0.305782
  0
ARC
  8
APS_GEOMETRY
 10
-39.650907
 20
286.553254
 40
1.4544
 50
359.9552
 51
63.259818
  0
ARC
  8
APS_GEOMETRY
 10
-72.219489
 20
294.945877
 40
1.637
 50
128.6887
 51
231.3113
  0
ARC
  8
APS_GEOMETRY
 10
-71.326065
 20
296.033183
 40
3.044222
 50
230.978111
 51
309.020728
  0
ARC
  8
APS_GEOMETRY
 10
-70.432676
 20
294.945848
 40
1.637
 50
308.688153
 51
51.312913
  0
ARC
  8
APS_GEOMETRY
 10
-71.326101
 20
293.858541
 40
3.044222
 50
50.978975
 51
129.021016
  0
ARC
  8
APS_GEOMETRY
 10
-71.370447
 20
291.632294
 40
3.039389
 50
301.026839
 51
310.045456
  0
ARC
  8
APS_GEOMETRY
 10
-70.438153
 20
290.583333
 40
1.637
 50
308.687081
 51
51.311844
  0
ARC
  8
APS_GEOMETRY
 10
-71.331542
 20
289.495998
 40
3.044222
 50
50.97926
 51
129.021885
  0
ARC
  8
APS_GEOMETRY
 10
-72.224989
 20
290.583286
 40
1.637
 50
128.687676
 51
231.312677
  0
ARC
  8
APS_GEOMETRY
 10
-71.463133
 20
291.651027
 40
2.947556
 50
232.726609
 51
245.345901
  0
LINE
  8
APS_GEOMETRY
 10
-68.921519
 11
-72.254853
 20
287.940948
 21
287.940949
  0
ARC
  8
APS_GEOMETRY
 10
-72.254853
 20
286.274282
 40
1.666667
 50
90.0
 51
270.0
  0
LINE
  8
APS_GEOMETRY
 10
-72.254853
 11
-68.921519
 20
284.607615
 21
284.607615
  0
ARC
  8
APS_GEOMETRY
 10
-70.840799
 20
281.961157
 40
2.055222
 50
312.9037
 51
32.5462
  0
ARC
  8
APS_GEOMETRY
 10
-69.988185
 20
282.488722
 40
1.052778
 50
33.306708
 51
163.425514
  0
LINE
  8
APS_GEOMETRY
 10
-70.99722
 11
-71.552799
 20
282.789039
 21
281.122379
  0
ARC
  8
APS_GEOMETRY
 10
-72.629303
 20
281.46172
 40
1.128722
 50
209.837948
 51
342.503841
  0
ARC
  8
APS_GEOMETRY
 10
-71.730122
 20
281.983413
 40
2.168278
 50
150.022531
 51
209.973996
  0
ARC
  8
APS_GEOMETRY
 10
-72.570826
 20
282.47396
 40
1.194945
 50
119.759337
 51
150.255408
  0
LINE
  8
APS_GEOMETRY
 10
-71.429614
 11
-71.429614
 20
248.541293
 21
246.152404
  0
ARC
  8
APS_GEOMETRY
 10
-70.151836
 20
246.152404
 40
1.277778
 50
180.0
 51
0.0
  0
LINE
  8
APS_GEOMETRY
 10
-68.874058
 11
-68.874058
 20
246.152404
 21
248.541293
  0
LINE
  8
APS_GEOMETRY
 10
-68.874058
 11
-73.874058
 20
248.541293
 21
248.541293
  0
LINE
  8
APS_GEOMETRY
 10
-71.429614
 11
-71.429614
 20
234.207959
 21
231.81907
  0
ARC
  8
APS_GEOMETRY
 10
-70.151836
 20
231.81907
 40
1.277778
 50
180.0
 51
0.0
  0
LINE
  8
APS_GEOMETRY
 10
-68.874058
 11
-68.874058
 20
231.81907
 21
234.207959
  0
LINE
  8
APS_GEOMETRY
 10
-68.874058
 11
-73.874058
 20
234.207959
 21
234.207959
  0
LINE
  8
APS_GEOMETRY
 10
-55.355214
 11
-37.855214
 20
190.569535
 21
190.569658
  0
ARC
  8
APS_GEOMETRY
 10
-37.855228
 20
192.569658
 40
2.0
 50
270.000405
 51
0.000405
  0
LINE
  8
APS_GEOMETRY
 10
-35.855228
 11
-35.855341
 20
192.569672
 21
208.594657
  0
ARC
  8
APS_GEOMETRY
 10
-37.855341
 20
208.594643
 40
2.0
 50
0.000401
 51
90.000405
  0
LINE
  8
APS_GEOMETRY
 10
-37.855355
 11
-40.855355
 20
210.594643
 21
210.594621
  0
LINE
  8
APS_GEOMETRY
 10
-40.855355
 11
-40.855426
 20
210.594621
 21
220.607165
  0
LINE
  8
APS_GEOMETRY
 10
-40.855426
 11
-38.855447
 20
220.607165
 21
220.607165
  0
ARC
  8
APS_GEOMETRY
 10
-38.855447
 20
223.607165
 40
3.0
 50
270.0
 51
0.000405
  0
LINE
  8
APS_GEOMETRY
 10
-35.855447
 11
-35.855688
 20
223.607186
 21
257.657118
  0
ARC
  8
APS_GEOMETRY
 10
-38.855688
 20
257.657097
 40
3.0
 50
0.000401
 51
90.000405
  0
LINE
  8
APS_GEOMETRY
 10
-38.855709
 11
-40.855709
 20
260.657097
 21
260.657082
  0
LINE
  8
APS_GEOMETRY
 10
-40.855709
 11
-40.85578
 20
260.657082
 21
270.669626
  0
LINE
  8
APS_GEOMETRY
 10
-40.85578
 11
-38.855801
 20
270.669626
 21
270.669626
  0
ARC
  8
APS_GEOMETRY
 10
-38.855801
 20
273.669626
 40
3.0
 50
270.0
 51
0.000405
  0
LINE
  8
APS_GEOMETRY
 10
-35.855801
 11
-35.856049
 20
273.669647
 21
308.719579
  0
ARC
  8
APS_GEOMETRY
 10
-37.856049
 20
308.719565
 40
2.0
 50
0.000401
 51
90.000405
  0
LINE
  8
APS_GEOMETRY
 10
-37.856063
 11
-40.856064
 20
310.719565
 21
310.719543
  0
LINE
  8
APS_GEOMETRY
 10
-40.856064
 11
-40.856134
 20
310.719543
 21
320.732087
  0
LINE
  8
APS_GEOMETRY
 10
-40.856134
 11
-38.856156
 20
320.732087
 21
320.732087
  0
ARC
  8
APS_GEOMETRY
 10
-38.856156
 20
323.732087
 40
3.0
 50
270.0
 51
0.000405
  0
LINE
  8
APS_GEOMETRY
 10
-35.856156
 11
-35.856333
 20
323.732108
 21
348.769548
  0
ARC
  8
APS_GEOMETRY
 10
-37.856333
 20
348.769533
 40
2.0
 50
0.00043
 51
90.000405
  0
LINE
  8
APS_GEOMETRY
 10
-37.856347
 11
-55.356347
 20
350.769533
 21
350.76941
  0
ARC
  8
APS_GEOMETRY
 10
-56.773753
 20
270.601403
 40
1.637
 50
128.6887
 51
231.3113
  0
ARC
  8
APS_GEOMETRY
 10
-55.880329
 20
271.68871
 40
3.044222
 50
230.978126
 51
309.020743
  0
ARC
  8
APS_GEOMETRY
 10
-54.98694
 20
270.601375
 40
1.637
 50
308.688159
 51
51.312862
  0
ARC
  8
APS_GEOMETRY
 10
-55.880364
 20
269.514068
 40
3.044222
 50
50.978963
 51
129.021028
  0
ARC
  8
APS_GEOMETRY
 10
-55.187692
 20
231.782918
 40
1.190389
 50
73.020644
 51
124.471649
  0
ARC
  8
APS_GEOMETRY
 10
-55.41335
 20
231.012535
 40
1.993111
 50
16.713842
 51
73.283706
  0
ARC
  8
APS_GEOMETRY
 10
-54.685583
 20
231.274121
 40
1.221556
 50
255.220012
 51
14.779396
  0
LINE
  8
APS_GEOMETRY
 10
-54.997212
 11
-57.157808
 20
230.092983
 21
230.603661
  0
ARC
  8
APS_GEOMETRY
 10
-57.559845
 20
228.887741
 40
1.762389
 50
76.813563
 51
135.07656
  0
LINE
  8
APS_GEOMETRY
 10
-58.807706
 11
-56.450701
 20
230.132272
 21
227.775234
  0
ARC
  8
APS_GEOMETRY
 10
-56.693395
 20
210.254243
 40
1.559056
 50
163.751948
 51
213.48402
  0
ARC
  8
APS_GEOMETRY
 10
-55.449057
 20
211.031403
 40
3.025889
 50
212.758326
 51
241.4804
  0
ARC
  8
APS_GEOMETRY
 10
-56.202475
 20
209.614001
 40
1.420833
 50
240.88523
 51
280.197101
  0
ARC
  8
APS_GEOMETRY
 10
-56.188186
 20
209.612552
 40
1.416945
 50
279.638804
 51
346.268676
  0
ARC
  8
APS_GEOMETRY
 10
-56.233076
 20
209.634408
 40
1.465778
 50
345.855298
 51
30.402329
  0
ARC
  8
APS_GEOMETRY
 10
-57.281453
 20
209.006403
 40
2.687833
 50
30.638921
 51
59.36112
  0
ARC
  8
APS_GEOMETRY
 10
-54.587294
 20
214.042578
 40
3.0285
 50
244.06808
 51
300.637891
  0
LINE
  8
APS_GEOMETRY
 10
-53.043938
 11
-55.204563
 20
211.436841
 21
213.597451
  0
ARC
  8
APS_GEOMETRY
 10
-56.814954
 20
330.525708
 40
1.559056
 50
163.751948
 51
213.48402
  0
ARC
  8
APS_GEOMETRY
 10
-55.570616
 20
331.302868
 40
3.025889
 50
212.758326
 51
241.4804
  0
ARC
  8
APS_GEOMETRY
 10
-56.324034
 20
329.885466
 40
1.420833
 50
240.88523
 51
280.197101
  0
ARC
  8
APS_GEOMETRY
 10
-56.309744
 20
329.884017
 40
1.416945
 50
279.638761
 51
346.268669
  0
ARC
  8
APS_GEOMETRY
 10
-56.354634
 20
329.905873
 40
1.465778
 50
345.855298
 51
30.402329
  0
ARC
  8
APS_GEOMETRY
 10
-57.403011
 20
329.277867
 40
2.687833
 50
30.638944
 51
59.361158
  0
ARC
  8
APS_GEOMETRY
 10
-54.708853
 20
334.314043
 40
3.0285
 50
244.06808
 51
300.637891
  0
LINE
  8
APS_GEOMETRY
 10
-53.165497
 11
-55.326122
 20
331.708306
 21
333.868916
  0
ARC
  8
APS_GEOMETRY
 10
-55.361512
 20
312.056677
 40
1.190389
 50
73.020695
 51
124.471707
  0
ARC
  8
APS_GEOMETRY
 10
-55.587171
 20
311.286294
 40
1.993111
 50
16.713842
 51
73.283706
  0
ARC
  8
APS_GEOMETRY
 10
-54.859404
 20
311.547879
 40
1.221556
 50
255.219998
 51
14.779448
  0
LINE
  8
APS_GEOMETRY
 10
-55.171033
 11
-57.331629
 20
310.366741
 21
310.877419
  0
ARC
  8
APS_GEOMETRY
 10
-57.733666
 20
309.161499
 40
1.762389
 50
76.813563
 51
135.07656
  0
LINE
  8
APS_GEOMETRY
 10
-58.981527
 11
-56.624522
 20
310.40603
 21
308.048992
  0
LINE
  8
APS_GEOMETRY
 10
-56.354222
 11
-73.854223
 20
350.76941
 21
350.769533
  0
ARC
  8
APS_GEOMETRY
 10
-73.854237
 20
348.769533
 40
2.0
 50
89.999595
 51
179.99957
  0
LINE
  8
APS_GEOMETRY
 10
-75.854237
 11
-75.854414
 20
348.769548
 21
323.732108
  0
ARC
  8
APS_GEOMETRY
 10
-72.854414
 20
323.732087
 40
3.0
 50
179.999595
 51
270.0
  0
LINE
  8
APS_GEOMETRY
 10
-72.854414
 11
-70.854435
 20
320.732087
 21
320.732087
  0
LINE
  8
APS_GEOMETRY
 10
-70.854435
 11
-70.854506
 20
320.732087
 21
310.719543
  0
LINE
  8
APS_GEOMETRY
 10
-70.854506
 11
-73.854506
 20
310.719543
 21
310.719565
  0
ARC
  8
APS_GEOMETRY
 10
-73.85452
 20
308.719565
 40
2.0
 50
89.999595
 51
179.999599
  0
LINE
  8
APS_GEOMETRY
 10
-75.85452
 11
-75.854768
 20
308.719579
 21
273.669647
  0
ARC
  8
APS_GEOMETRY
 10
-72.854768
 20
273.669626
 40
3.0
 50
179.999595
 51
270.0
  0
LINE
  8
APS_GEOMETRY
 10
-72.854768
 11
-70.854789
 20
270.669626
 21
270.669626
  0
LINE
  8
APS_GEOMETRY
 10
-70.854789
 11
-70.85486
 20
270.669626
 21
260.657082
  0
LINE
  8
APS_GEOMETRY
 10
-70.85486
 11
-72.85486
 20
260.657082
 21
260.657097
  0
ARC
  8
APS_GEOMETRY
 10
-72.854881
 20
257.657097
 40
3.0
 50
89.999595
 51
179.999599
  0
LINE
  8
APS_GEOMETRY
 10
-75.854881
 11
-75.855122
 20
257.657118
 21
223.607186
  0
ARC
  8
APS_GEOMETRY
 10
-72.855122
 20
223.607165
 40
3.0
 50
179.999595
 51
270.0
  0
LINE
  8
APS_GEOMETRY
 10
-72.855122
 11
-70.855143
 20
220.607165
 21
220.607165
  0
LINE
  8
APS_GEOMETRY
 10
-70.855143
 11
-70.855214
 20
220.607165
 21
210.594621
  0
LINE
  8
APS_GEOMETRY
 10
-70.855214
 11
-73.855214
 20
210.594621
 21
210.594643
  0
ARC
  8
APS_GEOMETRY
 10
-73.855228
 20
208.594643
 40
2.0
 50
89.999595
 51
179.999599
  0
LINE
  8
APS_GEOMETRY
 10
-75.855228
 11
-75.855341
 20
208.594657
 21
192.569672
  0
ARC
  8
APS_GEOMETRY
 10
-73.855341
 20
192.569658
 40
2.0
 50
179.999595
 51
269.999595
  0
LINE
  8
APS_GEOMETRY
 10
-73.855355
 11
-56.355355
 20
190.569658
 21
190.569535
  0
LINE
  8
APS_GEOMETRY
 10
-41.346507
 11
-39.04649
 20
243.484346
 21
243.484308
  0
ARC
  8
APS_GEOMETRY
 10
-39.042045
 20
244.329846
 40
0.84555
 50
269.698802
 51
0.305782
  0
ARC
  8
APS_GEOMETRY
 10
-39.650907
 20
244.335496
 40
1.4544
 50
359.9552
 51
63.259818
  0
LINE
  8
APS_GEOMETRY
 10
-41.346507
 11
-39.04649
 20
241.334346
 21
241.334308
  0
ARC
  8
APS_GEOMETRY
 10
-39.042045
 20
242.179846
 40
0.84555
 50
269.698802
 51
0.305782
  0
ARC
  8
APS_GEOMETRY
 10
-39.650907
 20
242.185496
 40
1.4544
 50
359.9552
 51
63.259818
  0
LINE
  8
APS_GEOMETRY
 10
-41.346507
 11
-39.04649
 20
238.184286
 21
238.184248
  0
ARC
  8
APS_GEOMETRY
 10
-39.042045
 20
239.029786
 40
0.84555
 50
269.698802
 51
0.305782
  0
ARC
  8
APS_GEOMETRY
 10
-39.650907
 20
239.035436
 40
1.4544
 50
359.9552
 51
63.259818
  0
LINE
  8
APS_GEOMETRY
 10
-41.346507
 11
-39.04649
 20
236.034286
 21
236.034248
  0
ARC
  8
APS_GEOMETRY
 10
-39.042045
 20
236.879786
 40
0.84555
 50
269.698802
 51
0.305782
  0
ARC
  8
APS_GEOMETRY
 10
-39.650907
 20
236.885436
 40
1.4544
 50
359.9552
 51
63.259818
  0
LINE
  8
APS_GEOMETRY
 10
4.190112
 11
6.490129
 20
293.152165
 21
293.152127
  0
ARC
  8
APS_GEOMETRY
 10
6.494574
 20
293.997665
 40
0.84555
 50
269.698802
 51
0.305782
  0
ARC
  8
APS_GEOMETRY
 10
5.885712
 20
294.003315
 40
1.4544
 50
359.9552
 51
63.259818
  0
LINE
  8
APS_GEOMETRY
 10
4.190112
 11
6.490129
 20
291.002165
 21
291.002127
  0
ARC
  8
APS_GEOMETRY
 10
6.494574
 20
291.847665
 40
0.84555
 50
269.698802
 51
0.305782
  0
ARC
  8
APS_GEOMETRY
 10
5.885712
 20
291.853315
 40
1.4544
 50
359.9552
 51
63.259818
  0
LINE
  8
APS_GEOMETRY
 10
4.190112
 11
6.490129
 20
287.852104
 21
287.852066
  0
ARC
  8
APS_GEOMETRY
 10
6.494574
 20
288.697604
 40
0.84555
 50
269.698802
 51
0.305782
  0
ARC
  8
APS_GEOMETRY
 10
5.885712
 20
288.703254
 40
1.4544
 50
359.9552
 51
63.259818
  0
LINE
  8
APS_GEOMETRY
 10
4.190112
 11
6.490129
 20
285.702104
 21
285.702066
  0
ARC
  8
APS_GEOMETRY
 10
6.494574
 20
286.547604
 40
0.84555
 50
269.698802
 51
0.305782
  0
ARC
  8
APS_GEOMETRY
 10
5.885712
 20
286.553254
 40
1.4544
 50
359.9552
 51
63.259818
  0
ARC
  8
APS_GEOMETRY
 10
-26.682871
 20
294.945877
 40
1.637
 50
128.6887
 51
231.3113
  0
ARC
  8
APS_GEOMETRY
 10
-25.789446
 20
296.033183
 40
3.044222
 50
230.978099
 51
309.02074
  0
ARC
  8
APS_GEOMETRY
 10
-24.896057
 20
294.945848
 40
1.637
 50
308.688153
 51
51.312913
  0
ARC
  8
APS_GEOMETRY
 10
-25.789482
 20
293.858542
 40
3.044222
 50
50.978963
 51
129.021028
  0
ARC
  8
APS_GEOMETRY
 10
-25.833828
 20
291.632294
 40
3.039389
 50
301.026839
 51
310.045456
  0
ARC
  8
APS_GEOMETRY
 10
-24.901534
 20
290.583333
 40
1.637
 50
308.687081
 51
51.311844
  0
ARC
  8
APS_GEOMETRY
 10
-25.794923
 20
289.495998
 40
3.044222
 50
50.97926
 51
129.021885
  0
ARC
  8
APS_GEOMETRY
 10
-26.688371
 20
290.583286
 40
1.637
 50
128.687654
 51
231.312655
  0
ARC
  8
APS_GEOMETRY
 10
-25.926515
 20
291.651027
 40
2.947556
 50
232.726609
 51
245.345901
  0
LINE
  8
APS_GEOMETRY
 10
-23.384901
 11
-26.718234
 20
287.940948
 21
287.940949
  0
ARC
  8
APS_GEOMETRY
 10
-26.718234
 20
286.274282
 40
1.666667
 50
90.0
 51
270.0
  0
LINE
  8
APS_GEOMETRY
 10
-26.718234
 11
-23.384901
 20
284.607615
 21
284.607615
  0
ARC
  8
APS_GEOMETRY
 10
-25.30418
 20
281.961157
 40
2.055222
 50
312.9037
 51
32.5462
  0
ARC
  8
APS_GEOMETRY
 10
-24.451566
 20
282.488722
 40
1.052778
 50
33.306708
 51
163.425514
  0
LINE
  8
APS_GEOMETRY
 10
-25.460601
 11
-26.01618
 20
282.789039
 21
281.122379
  0
ARC
  8
APS_GEOMETRY
 10
-27.092684
 20
281.461719
 40
1.128722
 50
209.837883
 51
342.503901
  0
ARC
  8
APS_GEOMETRY
 10
-26.193503
 20
281.983412
 40
2.168278
 50
150.022505
 51
209.97397
  0
ARC
  8
APS_GEOMETRY
 10
-27.034207
 20
282.47396
 40
1.194945
 50
119.759337
 51
150.255408
  0
LINE
  8
APS_GEOMETRY
 10
-25.892995
 11
-25.892995
 20
248.541293
 21
246.152404
  0
ARC
  8
APS_GEOMETRY
 10
-24.615217
 20
246.152404
 40
1.277778
 50
180.0
 51
0.0
  0
LINE
  8
APS_GEOMETRY
 10
-23.337439
 11
-23.337439
 20
246.152404
 21
248.541293
  0
LINE
  8
APS_GEOMETRY
 10
-23.337439
 11
-28.33744
 20
248.541293
 21
248.541293
  0
LINE
  8
APS_GEOMETRY
 10
-25.892995
 11
-25.892995
 20
234.207959
 21
231.81907
  0
ARC
  8
APS_GEOMETRY
 10
-24.615217
 20
231.81907
 40
1.277778
 50
180.0
 51
0.0
  0
LINE
  8
APS_GEOMETRY
 10
-23.337439
 11
-23.337439
 20
231.81907
 21
234.207959
  0
LINE
  8
APS_GEOMETRY
 10
-23.337439
 11
-28.33744
 20
234.207959
 21
234.207959
  0
LINE
  8
APS_GEOMETRY
 10
-9.818595
 11
7.681405
 20
190.569535
 21
190.569658
  0
ARC
  8
APS_GEOMETRY
 10
7.681391
 20
192.569658
 40
2.0
 50
270.000405
 51
0.000405
  0
LINE
  8
APS_GEOMETRY
 10
9.681391
 11
9.681277
 20
192.569672
 21
208.594657
  0
ARC
  8
APS_GEOMETRY
 10
7.681277
 20
208.594643
 40
2.0
 50
0.000401
 51
90.000405
  0
LINE
  8
APS_GEOMETRY
 10
7.681263
 11
4.681263
 20
210.594643
 21
210.594621
  0
LINE
  8
APS_GEOMETRY
 10
4.681263
 11
4.681192
 20
210.594621
 21
220.607165
  0
LINE
  8
APS_GEOMETRY
 10
4.681192
 11
6.681171
 20
220.607165
 21
220.607165
  0
ARC
  8
APS_GEOMETRY
 10
6.681171
 20
223.607165
 40
3.0
 50
270.0
 51
0.000405
  0
LINE
  8
APS_GEOMETRY
 10
9.681171
 11
9.68093
 20
223.607186
 21
257.657118
  0
ARC
  8
APS_GEOMETRY
 10
6.68093
 20
257.657097
 40
3.0
 50
0.000401
 51
90.000405
  0
LINE
  8
APS_GEOMETRY
 10
6.680909
 11
4.680909
 20
260.657097
 21
260.657082
  0
LINE
  8
APS_GEOMETRY
 10
4.680909
 11
4.680838
 20
260.657082
 21
270.669626
  0
LINE
  8
APS_GEOMETRY
 10
4.680838
 11
6.680817
 20
270.669626
 21
270.669626
  0
ARC
  8
APS_GEOMETRY
 10
6.680817
 20
273.669626
 40
3.0
 50
270.0
 51
0.000405
  0
LINE
  8
APS_GEOMETRY
 10
9.680817
 11
9.680569
 20
273.669647
 21
308.719579
  0
ARC
  8
APS_GEOMETRY
 10
7.680569
 20
308.719565
 40
2.0
 50
0.000401
 51
90.000405
  0
LINE
  8
APS_GEOMETRY
 10
7.680555
 11
4.680555
 20
310.719565
 21
310.719543
  0
LINE
  8
APS_GEOMETRY
 10
4.680555
 11
4.680484
 20
310.719543
 21
320.732087
  0
LINE
  8
APS_GEOMETRY
 10
4.680484
 11
6.680463
 20
320.732087
 21
320.732087
  0
ARC
  8
APS_GEOMETRY
 10
6.680463
 20
323.732087
 40
3.0
 50
270.0
 51
0.000405
  0
LINE
  8
APS_GEOMETRY
 10
9.680463
 11
9.680286
 20
323.732108
 21
348.769548
  0
ARC
  8
APS_GEOMETRY
 10
7.680286
 20
348.769533
 40
2.0
 50
0.00043
 51
90.000405
  0
LINE
  8
APS_GEOMETRY
 10
7.680272
 11
-9.819728
 20
350.769533
 21
350.76941
  0
ARC
  8
APS_GEOMETRY
 10
-11.237134
 20
270.601403
 40
1.637
 50
128.6887
 51
231.3113
  0
ARC
  8
APS_GEOMETRY
 10
-10.34371
 20
271.68871
 40
3.044222
 50
230.978126
 51
309.020743
  0
ARC
  8
APS_GEOMETRY
 10
-9.450322
 20
270.601374
 40
1.637
 50
308.688181
 51
51.312885
  0
ARC
  8
APS_GEOMETRY
 10
-10.343746
 20
269.514067
 40
3.044222
 50
50.978975
 51
129.021016
  0
ARC
  8
APS_GEOMETRY
 10
-9.651073
 20
231.782918
 40
1.190389
 50
73.020679
 51
124.471631
  0
ARC
  8
APS_GEOMETRY
 10
-9.876732
 20
231.012535
 40
1.993111
 50
16.713842
 51
73.283706
  0
ARC
  8
APS_GEOMETRY
 10
-9.148965
 20
231.274121
 40
1.221556
 50
255.220064
 51
14.779382
  0
LINE
  8
APS_GEOMETRY
 10
-9.460593
 11
-11.62119
 20
230.092983
 21
230.603661
  0
ARC
  8
APS_GEOMETRY
 10
-12.023227
 20
228.887741
 40
1.762389
 50
76.813563
 51
135.07656
  0
LINE
  8
APS_GEOMETRY
 10
-13.271088
 11
-10.914083
 20
230.132272
 21
227.775234
  0
ARC
  8
APS_GEOMETRY
 10
-11.156777
 20
210.254243
 40
1.559056
 50
163.751948
 51
213.48402
  0
ARC
  8
APS_GEOMETRY
 10
-9.912439
 20
211.031403
 40
3.025889
 50
212.758326
 51
241.4804
  0
ARC
  8
APS_GEOMETRY
 10
-10.665857
 20
209.614001
 40
1.420833
 50
240.88523
 51
280.197101
  0
ARC
  8
APS_GEOMETRY
 10
-10.651567
 20
209.612552
 40
1.416945
 50
279.638761
 51
346.268669
  0
ARC
  8
APS_GEOMETRY
 10
-10.696457
 20
209.634408
 40
1.465778
 50
345.855298
 51
30.402329
  0
ARC
  8
APS_GEOMETRY
 10
-11.744834
 20
209.006403
 40
2.687833
 50
30.638921
 51
59.36112
  0
ARC
  8
APS_GEOMETRY
 10
-9.050675
 20
214.042578
 40
3.0285
 50
244.06808
 51
300.637891
  0
LINE
  8
APS_GEOMETRY
 10
-7.507319
 11
-9.667945
 20
211.436841
 21
213.597451
  0
ARC
  8
APS_GEOMETRY
 10
-11.278335
 20
330.525708
 40
1.559056
 50
163.751948
 51
213.48402
  0
ARC
  8
APS_GEOMETRY
 10
-10.033997
 20
331.302868
 40
3.025889
 50
212.758326
 51
241.4804
  0
ARC
  8
APS_GEOMETRY
 10
-10.787415
 20
329.885466
 40
1.420833
 50
240.88523
 51
280.197101
  0
ARC
  8
APS_GEOMETRY
 10
-10.773126
 20
329.884017
 40
1.416945
 50
279.638804
 51
346.268676
  0
ARC
  8
APS_GEOMETRY
 10
-10.818016
 20
329.905873
 40
1.465778
 50
345.855298
 51
30.402329
  0
ARC
  8
APS_GEOMETRY
 10
-11.866393
 20
329.277868
 40
2.687833
 50
30.638921
 51
59.36112
  0
ARC
  8
APS_GEOMETRY
 10
-9.172234
 20
334.314043
 40
3.0285
 50
244.06808
 51
300.637891
  0
LINE
  8
APS_GEOMETRY
 10
-7.628878
 11
-9.789503
 20
331.708306
 21
333.868916
  0
ARC
  8
APS_GEOMETRY
 10
-9.824893
 20
312.056677
 40
1.190389
 50
73.02073
 51
124.47169
  0
ARC
  8
APS_GEOMETRY
 10
-10.050553
 20
311.286294
 40
1.993111
 50
16.713842
 51
73.283706
  0
ARC
  8
APS_GEOMETRY
 10
-9.322786
 20
311.547879
 40
1.221556
 50
255.22005
 51
14.779434
  0
LINE
  8
APS_GEOMETRY
 10
-9.634414
 11
-11.795011
 20
310.366741
 21
310.877419
  0
ARC
  8
APS_GEOMETRY
 10
-12.197048
 20
309.161499
 40
1.762389
 50
76.813563
 51
135.07656
  0
LINE
  8
APS_GEOMETRY
 10
-13.444909
 11
-11.087904
 20
310.40603
 21
308.048992
  0
LINE
  8
APS_GEOMETRY
 10
-10.817604
 11
-28.317604
 20
350.76941
 21
350.769533
  0
ARC
  8
APS_GEOMETRY
 10
-28.317618
 20
348.769533
 40
2.0
 50
89.999595
 51
179.99957
  0
LINE
  8
APS_GEOMETRY
 10
-30.317618
 11
-30.317795
 20
348.769548
 21
323.732108
  0
ARC
  8
APS_GEOMETRY
 10
-27.317795
 20
323.732087
 40
3.0
 50
179.999595
 51
270.0
  0
LINE
  8
APS_GEOMETRY
 10
-27.317795
 11
-25.317816
 20
320.732087
 21
320.732087
  0
LINE
  8
APS_GEOMETRY
 10
-25.317816
 11
-25.317887
 20
320.732087
 21
310.719543
  0
LINE
  8
APS_GEOMETRY
 10
-25.317887
 11
-28.317887
 20
310.719543
 21
310.719565
  0
ARC
  8
APS_GEOMETRY
 10
-28.317901
 20
308.719565
 40
2.0
 50
89.999595
 51
179.999599
  0
LINE
  8
APS_GEOMETRY
 10
-30.317901
 11
-30.318149
 20
308.719579
 21
273.669647
  0
ARC
  8
APS_GEOMETRY
 10
-27.318149
 20
273.669626
 40
3.0
 50
179.999595
 51
270.0
  0
LINE
  8
APS_GEOMETRY
 10
-27.318149
 11
-25.31817
 20
270.669626
 21
270.669626
  0
LINE
  8
APS_GEOMETRY
 10
-25.31817
 11
-25.318241
 20
270.669626
 21
260.657082
  0
LINE
  8
APS_GEOMETRY
 10
-25.318241
 11
-27.318241
 20
260.657082
 21
260.657097
  0
ARC
  8
APS_GEOMETRY
 10
-27.318262
 20
257.657097
 40
3.0
 50
89.999595
 51
179.999599
  0
LINE
  8
APS_GEOMETRY
 10
-30.318262
 11
-30.318503
 20
257.657118
 21
223.607186
  0
ARC
  8
APS_GEOMETRY
 10
-27.318503
 20
223.607165
 40
3.0
 50
179.999595
 51
270.0
  0
LINE
  8
APS_GEOMETRY
 10
-27.318503
 11
-25.318524
 20
220.607165
 21
220.607165
  0
LINE
  8
APS_GEOMETRY
 10
-25.318524
 11
-25.318595
 20
220.607165
 21
210.594621
  0
LINE
  8
APS_GEOMETRY
 10
-25.318595
 11
-28.318595
 20
210.594621
 21
210.594643
  0
ARC
  8
APS_GEOMETRY
 10
-28.318609
 20
208.594643
 40
2.0
 50
89.999595
 51
179.999599
  0
LINE
  8
APS_GEOMETRY
 10
-30.318609
 11
-30.318723
 20
208.594657
 21
192.569672
  0
ARC
  8
APS_GEOMETRY
 10
-28.318723
 20
192.569658
 40
2.0
 50
179.999595
 51
269.999595
  0
LINE
  8
APS_GEOMETRY
 10
-28.318737
 11
-10.818737
 20
190.569658
 21
190.569535
  0
LINE
  8
APS_GEOMETRY
 10
4.190112
 11
6.490129
 20
243.484346
 21
243.484308
  0
ARC
  8
APS_GEOMETRY
 10
6.494574
 20
244.329846
 40
0.84555
 50
269.698802
 51
0.305782
  0
ARC
  8
APS_GEOMETRY
 10
5.885712
 20
244.335496
 40
1.4544
 50
359.9552
 51
63.259818
  0
LINE
  8
APS_GEOMETRY
 10
4.190112
 11
6.490129
 20
241.334346
 21
241.334308
  0
ARC
  8
APS_GEOMETRY
 10
6.494574
 20
242.179846
 40
0.84555
 50
269.698802
 51
0.305782
  0
ARC
  8
APS_GEOMETRY
 10
5.885712
 20
242.185496
 40
1.4544
 50
359.9552
 51
63.259818
  0
LINE
  8
APS_GEOMETRY
 10
4.190112
 11
6.490129
 20
238.184286
 21
238.184248
  0
ARC
  8
APS_GEOMETRY
 10
6.494574
 20
239.029786
 40
0.84555
 50
269.698802
 51
0.305782
  0
ARC
  8
APS_GEOMETRY
 10
5.885712
 20
239.035436
 40
1.4544
 50
359.9552
 51
63.259818
  0
LINE
  8
APS_GEOMETRY
 10
4.190112
 11
6.490129
 20
236.034286
 21
236.034248
  0
ARC
  8
APS_GEOMETRY
 10
6.494574
 20
236.879786
 40
0.84555
 50
269.698802
 51
0.305782
  0
ARC
  8
APS_GEOMETRY
 10
5.885712
 20
236.885436
 40
1.4544
 50
359.9552
 51
63.259818
  0
ARC
  8
APS_GEOMETRY
 10
250.398315
 20
256.166526
 40
1.0
 50
272.689405
 51
359.827
  0
LINE
  8
APS_GEOMETRY
 10
251.39831
 11
251.470924
 20
256.163507
 21
280.212148
  0
LINE
  8
APS_GEOMETRY
 10
251.470924
 11
231.471015
 20
280.212148
 21
280.272536
  0
LINE
  8
APS_GEOMETRY
 10
231.471015
 11
231.483093
 20
280.272536
 21
284.272518
  0
ARC
  8
APS_GEOMETRY
 10
230.483098
 20
284.275537
 40
1.0
 50
359.827024
 51
89.827032
  0
LINE
  8
APS_GEOMETRY
 10
230.486116
 11
222.486153
 20
285.275532
 21
285.299688
  0
ARC
  8
APS_GEOMETRY
 10
222.483134
 20
284.299693
 40
1.0
 50
89.827024
 51
179.827032
  0
LINE
  8
APS_GEOMETRY
 10
221.483139
 11
221.471061
 20
284.302711
 21
280.30273
  0
LINE
  8
APS_GEOMETRY
 10
221.471061
 11
121.471516
 20
280.30273
 21
280.604672
  0
LINE
  8
APS_GEOMETRY
 10
121.471516
 11
121.483594
 20
280.604672
 21
284.604653
  0
ARC
  8
APS_GEOMETRY
 10
120.483599
 20
284.607673
 40
1.0
 50
359.826966
 51
89.826975
  0
LINE
  8
APS_GEOMETRY
 10
120.486618
 11
112.486654
 20
285.607668
 21
285.631824
  0
ARC
  8
APS_GEOMETRY
 10
112.483635
 20
284.631829
 40
1.0
 50
89.827024
 51
179.827032
  0
LINE
  8
APS_GEOMETRY
 10
111.48364
 11
111.471562
 20
284.634847
 21
280.634866
  0
LINE
  8
APS_GEOMETRY
 10
111.471562
 11
91.471653
 20
280.634866
 21
280.695254
  0
LINE
  8
APS_GEOMETRY
 10
91.471653
 11
91.384531
 20
280.695254
 21
251.84152
  0
ARC
  8
APS_GEOMETRY
 10
89.38454
 20
251.847559
 40
2.0
 50
294.620326
 51
359.826994
  0
ARC
  8
APS_GEOMETRY
 10
91.381684
 20
247.489505
 40
2.793873
 50
114.620333
 51
272.689408
  0
LINE
  8
APS_GEOMETRY
 10
91.512777
 11
93.510575
 20
244.698709
 21
244.792552
  0
LINE
  8
APS_GEOMETRY
 10
93.510575
 11
93.36981
 20
244.792552
 21
247.789248
  0
LINE
  8
APS_GEOMETRY
 10
93.36981
 11
123.374202
 20
247.789248
 21
249.198659
  0
LINE
  8
APS_GEOMETRY
 10
123.374202
 11
123.411739
 20
249.198659
 21
248.39954
  0
LINE
  8
APS_GEOMETRY
 10
123.411739
 11
122.412841
 20
248.39954
 21
248.352618
  0
ARC
  8
APS_GEOMETRY
 10
122.459762
 20
247.353719
 40
1.0
 50
92.689364
 51
182.68937
  0
LINE
  8
APS_GEOMETRY
 10
121.460863
 11
121.470248
 20
247.306798
 21
247.107018
  0
ARC
  8
APS_GEOMETRY
 10
122.469147
 20
247.15394
 40
1.0
 50
182.689419
 51
272.68943
  0
LINE
  8
APS_GEOMETRY
 10
122.516069
 11
130.519736
 20
246.155041
 21
246.531001
  0
ARC
  8
APS_GEOMETRY
 10
130.472814
 20
247.5299
 40
1.0
 50
272.689419
 51
2.68943
  0
LINE
  8
APS_GEOMETRY
 10
131.471713
 11
131.377869
 20
247.576822
 21
249.574619
  0
LINE
  8
APS_GEOMETRY
 10
131.377869
 11
151.380797
 20
249.574619
 21
250.514226
  0
LINE
  8
APS_GEOMETRY
 10
151.380797
 11
151.398914
 20
250.514226
 21
256.514199
  0
LINE
  8
APS_GEOMETRY
 10
151.398914
 11
171.398822
 20
256.514199
 21
256.45381
  0
LINE
  8
APS_GEOMETRY
 10
171.398822
 11
171.386899
 20
256.45381
 21
252.505078
  0
ARC
  8
APS_GEOMETRY
 10
172.386895
 20
252.502058
 40
1.0
 50
179.827001
 51
272.689419
  0
LINE
  8
APS_GEOMETRY
 10
172.433817
 11
173.381523
 20
251.50316
 21
251.547677
  0
LINE
  8
APS_GEOMETRY
 10
173.381523
 11
173.41906
 20
251.547677
 21
250.748558
  0
LINE
  8
APS_GEOMETRY
 10
173.41906
 11
172.420161
 20
250.748558
 21
250.701636
  0
ARC
  8
APS_GEOMETRY
 10
172.467083
 20
249.702737
 40
1.0
 50
92.689419
 51
182.68943
  0
LINE
  8
APS_GEOMETRY
 10
171.468184
 11
171.477569
 20
249.655815
 21
249.456036
  0
ARC
  8
APS_GEOMETRY
 10
172.476468
 20
249.502958
 40
1.0
 50
182.689422
 51
272.689373
  0
LINE
  8
APS_GEOMETRY
 10
172.523389
 11
180.527056
 20
248.504059
 21
248.880019
  0
ARC
  8
APS_GEOMETRY
 10
180.480134
 20
249.878918
 40
1.0
 50
272.689419
 51
2.68943
  0
LINE
  8
APS_GEOMETRY
 10
181.479033
 11
181.38519
 20
249.92584
 21
251.923637
  0
LINE
  8
APS_GEOMETRY
 10
181.38519
 11
223.388843
 20
251.923637
 21
253.896694
  0
LINE
  8
APS_GEOMETRY
 10
223.388843
 11
223.426381
 20
253.896694
 21
253.097576
  0
LINE
  8
APS_GEOMETRY
 10
223.426381
 11
222.427482
 20
253.097576
 21
253.050654
  0
ARC
  8
APS_GEOMETRY
 10
222.474404
 20
252.051755
 40
1.0
 50
92.689419
 51
182.68943
  0
LINE
  8
APS_GEOMETRY
 10
221.475505
 11
221.484889
 20
252.004833
 21
251.805054
  0
ARC
  8
APS_GEOMETRY
 10
222.483788
 20
251.851976
 40
1.0
 50
182.689419
 51
272.68943
  0
LINE
  8
APS_GEOMETRY
 10
222.53071
 11
230.534377
 20
250.853077
 21
251.229037
  0
ARC
  8
APS_GEOMETRY
 10
230.487455
 20
252.227936
 40
1.0
 50
272.689419
 51
2.68943
  0
LINE
  8
APS_GEOMETRY
 10
231.486354
 11
231.39251
 20
252.274858
 21
254.272654
  0
LINE
  8
APS_GEOMETRY
 10
231.39251
 11
250.445237
 20
254.272654
 21
255.167627
  0
ARC
  8
APS_GEOMETRY
 10
220.151099
 20
169.204803
 40
18.99422
 50
90.0
 51
90.751964
  0
ARC
  8
APS_GEOMETRY
 10
219.980767
 20
182.180585
 40
6.01732
 50
90.751724
 51
92.087743
  0
ARC
  8
APS_GEOMETRY
 10
219.858066
 20
185.547013
 40
2.648657
 50
92.088158
 51
95.113868
  0
ARC
  8
APS_GEOMETRY
 10
219.634713
 20
188.042776
 40
0.142919
 50
95.112822
 51
108.165211
  0
ARC
  8
APS_GEOMETRY
 10
219.638478
 20
187.990901
 40
0.193793
 50
104.438751
 51
145.552909
  0
ARC
  8
APS_GEOMETRY
 10
219.70341
 20
187.946362
 40
0.272532
 50
145.552757
 51
180.000135
  0
ARC
  8
APS_GEOMETRY
 10
219.635245
 20
187.946361
 40
0.204367
 50
180.0
 51
231.88773
  0
ARC
  8
APS_GEOMETRY
 10
219.735588
 20
188.074275
 40
0.366942
 50
231.88761
 51
269.999905
  0
LINE
  8
APS_GEOMETRY
 10
219.735587
 11
219.784063
 20
187.707333
 21
187.707333
  0
LINE
  8
APS_GEOMETRY
 10
219.784063
 11
223.253593
 20
187.707333
 21
187.748884
  0
LINE
  8
APS_GEOMETRY
 10
223.253593
 11
223.281293
 20
187.748884
 21
185.60207
  0
LINE
  8
APS_GEOMETRY
 10
223.281293
 11
222.526446
 20
185.60207
 21
185.595145
  0
LINE
  8
APS_GEOMETRY
 10
222.526446
 11
220.102623
 20
185.595145
 21
185.636696
  0
LINE
  8
APS_GEOMETRY
 10
220.102623
 11
219.569382
 20
185.636696
 21
185.643621
  0
ARC
  8
APS_GEOMETRY
 10
219.569382
 20
183.354322
 40
2.289299
 50
90.0
 51
97.188537
  0
ARC
  8
APS_GEOMETRY
 10
219.319449
 20
185.335906
 40
0.292015
 50
97.187863
 51
117.406907
  0
ARC
  8
APS_GEOMETRY
 10
219.252249
 20
185.465517
 40
0.146019
 50
117.408022
 51
154.259787
  0
ARC
  8
APS_GEOMETRY
 10
219.385563
 20
185.40124
 40
0.29402
 50
154.259442
 51
180.000191
  0
ARC
  8
APS_GEOMETRY
 10
219.291279
 20
185.401239
 40
0.199736
 50
180.0
 51
239.420773
  0
ARC
  8
APS_GEOMETRY
 10
219.548607
 20
185.836716
 40
0.70556
 50
239.420725
 51
269.999918
  0
LINE
  8
APS_GEOMETRY
 10
219.548606
 11
220.095698
 20
185.131156
 21
185.145006
  0
LINE
  8
APS_GEOMETRY
 10
220.095698
 11
223.281293
 20
185.145006
 21
185.165782
  0
LINE
  8
APS_GEOMETRY
 10
223.281293
 11
223.295144
 20
185.165782
 21
183.489882
  0
LINE
  8
APS_GEOMETRY
 10
223.295144
 11
223.253593
 20
183.489882
 21
179.064674
  0
LINE
  8
APS_GEOMETRY
 10
223.253593
 11
223.253593
 20
179.064674
 21
178.746114
  0
LINE
  8
APS_GEOMETRY
 10
223.253593
 11
227.49182
 20
178.746114
 21
178.746114
  0
LINE
  8
APS_GEOMETRY
 10
227.49182
 11
227.436418
 20
178.746114
 21
183.891544
  0
LINE
  8
APS_GEOMETRY
 10
227.436418
 11
227.49182
 20
183.891544
 21
188.199023
  0
LINE
  8
APS_GEOMETRY
 10
227.49182
 11
220.151099
 20
188.199023
 21
188.199023
  0
ARC
  8
APS_GEOMETRY
 10
213.370767
 20
183.50064
 40
4.982316
 50
90.0
 51
102.389499
  0
ARC
  8
APS_GEOMETRY
 10
213.419903
 20
183.276952
 40
5.211337
 50
102.389479
 51
114.502636
  0
ARC
  8
APS_GEOMETRY
 10
213.352923
 20
183.449485
 40
5.026574
 50
114.623553
 51
132.745416
  0
ARC
  8
APS_GEOMETRY
 10
213.289366
 20
183.518256
 40
4.932931
 50
132.745444
 51
151.039961
  0
ARC
  8
APS_GEOMETRY
 10
213.345426
 20
183.495462
 40
4.993023
 50
151.122587
 51
165.776129
  0
ARC
  8
APS_GEOMETRY
 10
213.64065
 20
183.42063
 40
5.297584
 50
165.776143
 51
179.999995
  0
ARC
  8
APS_GEOMETRY
 10
213.073597
 20
183.42063
 40
4.730531
 50
180.0
 51
192.86985
  0
ARC
  8
APS_GEOMETRY
 10
213.407765
 20
183.496979
 40
5.07331
 50
192.869841
 51
205.295544
  0
ARC
  8
APS_GEOMETRY
 10
213.249979
 20
183.421853
 40
4.898553
 50
205.289661
 51
224.121292
  0
ARC
  8
APS_GEOMETRY
 10
213.38433
 20
183.552145
 40
5.085706
 50
224.121294
 51
242.600092
  0
ARC
  8
APS_GEOMETRY
 10
213.429451
 20
183.635634
 40
5.180594
 50
242.581985
 51
256.124371
  0
ARC
  8
APS_GEOMETRY
 10
213.370767
 20
183.398064
 40
4.935883
 50
256.12436
 51
270.000004
  0
ARC
  8
APS_GEOMETRY
 10
213.370767
 20
183.287845
 40
4.825664
 50
270.0
 51
284.951677
  0
ARC
  8
APS_GEOMETRY
 10
213.305004
 20
183.534119
 40
5.080567
 50
284.951639
 51
299.52132
  0
ARC
  8
APS_GEOMETRY
 10
213.253095
 20
183.667429
 40
5.222188
 50
299.296206
 51
317.849511
  0
ARC
  8
APS_GEOMETRY
 10
213.57553
 20
183.375573
 40
4.787281
 50
317.849479
 51
337.23499
  0
ARC
  8
APS_GEOMETRY
 10
213.269997
 20
183.521326
 40
5.125438
 50
337.054211
 51
348.417745
  0
ARC
  8
APS_GEOMETRY
 10
213.457193
 20
183.482952
 40
4.934349
 50
348.417844
 51
0.000063
  0
ARC
  8
APS_GEOMETRY
 10
213.528395
 20
183.482961
 40
4.863147
 50
359.999955
 51
14.614144
  0
ARC
  8
APS_GEOMETRY
 10
213.192949
 20
183.395492
 40
5.209809
 50
14.614178
 51
28.731221
  0
ARC
  8
APS_GEOMETRY
 10
213.468622
 20
183.54306
 40
4.897141
 50
28.767673
 51
46.993694
  0
ARC
  8
APS_GEOMETRY
 10
213.325181
 20
183.389276
 40
5.107438
 50
46.993677
 51
64.837395
  0
ARC
  8
APS_GEOMETRY
 10
213.422662
 20
183.585142
 40
4.888713
 50
64.89541
 51
77.510698
  0
ARC
  8
APS_GEOMETRY
 10
213.338592
 20
183.205563
 40
5.277491
 50
77.510759
 51
89.650681
  0
ARC
  8
APS_GEOMETRY
 10
213.416214
 20
181.761896
 40
2.886575
 50
275.273896
 51
280.00798
  0
LINE
  8
APS_GEOMETRY
 10
213.917858
 11
213.924784
 20
178.919244
 21
179.76412
  0
LINE
  8
APS_GEOMETRY
 10
213.924784
 11
213.95941
 20
179.76412
 21
183.510657
  0
LINE
  8
APS_GEOMETRY
 10
213.95941
 11
213.917858
 20
183.510657
 21
188.018968
  0
ARC
  8
APS_GEOMETRY
 10
213.432886
 20
185.189982
 40
2.870254
 50
80.272369
 51
85.169527
  0
ARC
  8
APS_GEOMETRY
 10
213.426174
 20
185.110453
 40
2.950066
 50
85.169688
 51
90.000094
  0
ARC
  8
APS_GEOMETRY
 10
213.426173
 20
183.262802
 40
4.797717
 50
90.000053
 51
102.611096
  0
ARC
  8
APS_GEOMETRY
 10
213.42312
 20
183.276413
 40
4.783768
 50
102.611003
 51
115.240495
  0
ARC
  8
APS_GEOMETRY
 10
213.226527
 20
183.641434
 40
4.369822
 50
114.949783
 51
133.060263
  0
ARC
  8
APS_GEOMETRY
 10
213.365201
 20
183.493033
 40
4.572931
 50
133.060223
 51
150.76063
  0
ARC
  8
APS_GEOMETRY
 10
213.331307
 20
183.511149
 40
4.534507
 50
150.751179
 51
165.465559
  0
ARC
  8
APS_GEOMETRY
 10
213.440047
 20
183.482956
 40
4.646842
 50
165.465548
 51
179.999993
  0
ARC
  8
APS_GEOMETRY
 10
213.455519
 20
183.482952
 40
4.662314
 50
179.999937
 51
191.093659
  0
ARC
  8
APS_GEOMETRY
 10
213.509859
 20
183.493616
 40
4.71769
 50
191.093765
 51
202.121988
  0
ARC
  8
APS_GEOMETRY
 10
213.219388
 20
183.362905
 40
4.399395
 50
201.969581
 51
218.611241
  0
ARC
  8
APS_GEOMETRY
 10
213.395719
 20
183.503731
 40
4.62506
 50
218.611295
 51
234.839082
  0
ARC
  8
APS_GEOMETRY
 10
213.35505
 20
183.463259
 40
4.568563
 50
234.963769
 51
252.8361
  0
ARC
  8
APS_GEOMETRY
 10
213.467721
 20
183.828063
 40
4.95037
 50
252.83613
 51
269.999992
  0
ARC
  8
APS_GEOMETRY
 10
213.467718
 20
181.203915
 40
2.326222
 50
270.000043
 51
275.273937
  0
ARC
  8
APS_GEOMETRY
 10
201.943636
 20
185.748369
 40
6.876932
 50
274.659251
 51
277.678203
  0
LINE
  8
APS_GEOMETRY
 10
202.862457
 11
202.904008
 20
178.933095
 21
183.10207
  0
LINE
  8
APS_GEOMETRY
 10
202.904008
 11
202.862457
 20
183.10207
 21
188.012042
  0
ARC
  8
APS_GEOMETRY
 10
202.421357
 20
185.935513
 40
2.122862
 50
78.007394
 51
84.280615
  0
ARC
  8
APS_GEOMETRY
 10
202.378442
 20
185.507137
 40
2.553382
 50
84.280356
 51
89.999812
  0
ARC
  8
APS_GEOMETRY
 10
202.37845
 20
183.4123
 40
4.648219
 50
90.0
 51
103.146576
  0
ARC
  8
APS_GEOMETRY
 10
202.381876
 20
183.397638
 40
4.663276
 50
103.146592
 51
116.271843
  0
ARC
  8
APS_GEOMETRY
 10
202.324337
 20
183.5142
 40
4.533286
 50
116.271818
 51
129.746853
  0
ARC
  8
APS_GEOMETRY
 10
201.952497
 20
183.961341
 40
3.951736
 50
129.746885
 51
144.184352
  0
ARC
  8
APS_GEOMETRY
 10
197.785922
 20
186.963398
 40
1.183704
 50
309.139387
 51
324.368931
  0
ARC
  8
APS_GEOMETRY
 10
198.416149
 20
186.188991
 40
0.185259
 50
270.000132
 51
309.139607
  0
ARC
  8
APS_GEOMETRY
 10
198.416149
 20
186.207264
 40
0.203532
 50
247.72242
 51
270.0
  0
ARC
  8
APS_GEOMETRY
 10
198.436856
 20
186.257809
 40
0.258154
 50
227.96815
 51
247.722323
  0
ARC
  8
APS_GEOMETRY
 10
198.421285
 20
186.240535
 40
0.234898
 50
206.52931
 51
227.968321
  0
ARC
  8
APS_GEOMETRY
 10
198.349228
 20
186.204565
 40
0.154362
 50
180.000767
 51
206.529985
  0
ARC
  8
APS_GEOMETRY
 10
198.509756
 20
186.204561
 40
0.31489
 50
155.157178
 51
179.999607
  0
ARC
  8
APS_GEOMETRY
 10
199.456333
 20
185.766335
 40
1.357986
 50
143.26721
 51
155.157654
  0
ARC
  8
APS_GEOMETRY
 10
200.432451
 20
185.03789
 40
2.575951
 50
136.847673
 51
143.267227
  0
ARC
  8
APS_GEOMETRY
 10
203.577544
 20
182.089362
 40
6.887033
 50
132.922823
 51
136.847612
  0
ARC
  8
APS_GEOMETRY
 10
202.317126
 20
183.438972
 40
5.040393
 50
111.383603
 51
132.878871
  0
ARC
  8
APS_GEOMETRY
 10
202.336142
 20
183.390419
 40
5.092537
 50
90.000015
 51
111.383648
  0
ARC
  8
APS_GEOMETRY
 10
202.336145
 20
183.283602
 40
5.199354
 50
77.393737
 51
90.000049
  0
ARC
  8
APS_GEOMETRY
 10
202.429714
 20
183.702021
 40
4.770601
 50
64.230628
 51
77.39365
  0
ARC
  8
APS_GEOMETRY
 10
202.193422
 20
183.306851
 40
5.22936
 50
47.422238
 51
63.781485
  0
ARC
  8
APS_GEOMETRY
 10
202.420967
 20
183.554496
 40
4.893049
 50
30.506143
 51
47.422246
  0
ARC
  8
APS_GEOMETRY
 10
202.131591
 20
183.397436
 40
5.22211
 50
15.412221
 51
30.379113
  0
ARC
  8
APS_GEOMETRY
 10
202.416695
 20
183.476031
 40
4.926371
 50
0.000005
 51
15.412244
  0
ARC
  8
APS_GEOMETRY
 10
202.415616
 20
183.476031
 40
4.92745
 50
344.891896
 51
0.0
  0
ARC
  8
APS_GEOMETRY
 10
202.155403
 20
183.546278
 40
5.196978
 50
330.183045
 51
344.891934
  0
ARC
  8
APS_GEOMETRY
 10
202.519477
 20
183.336458
 40
4.776772
 50
311.185893
 51
330.195219
  0
ARC
  8
APS_GEOMETRY
 10
202.304675
 20
183.581942
 40
5.102966
 50
292.79965
 51
311.185929
  0
ARC
  8
APS_GEOMETRY
 10
202.146094
 20
183.897359
 40
5.455243
 50
282.053001
 51
293.051329
  0
ARC
  8
APS_GEOMETRY
 10
202.336144
 20
183.007316
 40
4.545135
 50
269.999962
 51
282.052939
  0
ARC
  8
APS_GEOMETRY
 10
202.336141
 20
183.049827
 40
4.587646
 50
261.749613
 51
270.0
  0
ARC
  8
APS_GEOMETRY
 10
202.511423
 20
184.25864
 40
5.809101
 50
254.419033
 51
261.749571
  0
ARC
  8
APS_GEOMETRY
 10
202.274807
 20
183.433888
 40
4.951106
 50
240.398858
 51
254.493009
  0
ARC
  8
APS_GEOMETRY
 10
202.219335
 20
183.336231
 40
4.838794
 50
226.141161
 51
240.39878
  0
ARC
  8
APS_GEOMETRY
 10
202.745602
 20
183.862325
 40
5.582796
 50
220.176401
 51
225.987815
  0
ARC
  8
APS_GEOMETRY
 10
203.274624
 20
184.308999
 40
6.27517
 50
214.695137
 51
220.176327
  0
ARC
  8
APS_GEOMETRY
 10
201.313731
 20
182.95146
 40
3.890214
 50
205.997783
 51
214.695147
  0
ARC
  8
APS_GEOMETRY
 10
198.214515
 20
181.440021
 40
0.442086
 50
180.000171
 51
205.997977
  0
ARC
  8
APS_GEOMETRY
 10
197.946407
 20
181.44002
 40
0.173978
 50
130.354283
 51
180.0
  0
ARC
  8
APS_GEOMETRY
 10
198.000636
 20
181.376198
 40
0.257728
 50
90.000062
 51
130.354325
  0
ARC
  8
APS_GEOMETRY
 10
198.000636
 20
181.446189
 40
0.187737
 50
48.68279
 51
90.0
  0
ARC
  8
APS_GEOMETRY
 10
197.654659
 20
181.052611
 40
0.711764
 50
27.804596
 51
48.682753
  0
ARC
  8
APS_GEOMETRY
 10
202.033355
 20
183.37728
 40
4.245766
 50
207.990761
 51
214.527684
  0
ARC
  8
APS_GEOMETRY
 10
203.639865
 20
184.482545
 40
6.195762
 50
214.527673
 51
219.938096
  0
ARC
  8
APS_GEOMETRY
 10
203.617929
 20
184.464172
 40
6.167148
 50
219.938043
 51
225.371979
  0
ARC
  8
APS_GEOMETRY
 10
201.762363
 20
182.58436
 40
3.525781
 50
225.372044
 51
232.560763
  0
ARC
  8
APS_GEOMETRY
 10
202.061949
 20
182.997031
 40
4.035587
 50
232.745328
 51
242.404121
  0
ARC
  8
APS_GEOMETRY
 10
202.441697
 20
183.723541
 40
4.855358
 50
242.40408
 51
251.208046
  0
ARC
  8
APS_GEOMETRY
 10
202.424302
 20
183.672429
 40
4.801367
 50
251.208084
 51
260.108601
  0
ARC
  8
APS_GEOMETRY
 10
202.267641
 20
182.774037
 40
3.889418
 50
260.10868
 51
270.000079
  0
ARC
  8
APS_GEOMETRY
 10
202.267654
 20
181.772728
 40
2.888109
 50
269.999844
 51
274.659111
  0
ARC
  8
APS_GEOMETRY
 10
190.731869
 20
189.509099
 40
10.61543
 50
272.573359
 51
274.484606
  0
LINE
  8
APS_GEOMETRY
 10
191.561903
 11
191.582678
 20
178.926169
 21
180.844452
  0
LINE
  8
APS_GEOMETRY
 10
191.582678
 11
191.570776
 20
180.844452
 21
184.611765
  0
LINE
  8
APS_GEOMETRY
 10
191.570776
 11
191.541127
 20
184.611765
 21
188.199023
  0
LINE
  8
APS_GEOMETRY
 10
191.541127
 11
195.772429
 20
188.199023
 21
188.199023
  0
LINE
  8
APS_GEOMETRY
 10
195.772429
 11
195.744728
 20
188.199023
 21
184.570214
  0
LINE
  8
APS_GEOMETRY
 10
195.744728
 11
195.739967
 20
184.570214
 21
183.41154
  0
LINE
  8
APS_GEOMETRY
 10
195.739967
 11
195.732609
 20
183.41154
 21
182.511696
  0
ARC
  8
APS_GEOMETRY
 10
124.122305
 20
183.316319
 40
71.614824
 50
358.73988
 51
359.356244
  0
ARC
  8
APS_GEOMETRY
 10
187.992526
 20
181.911379
 40
7.729153
 50
356.863632
 51
358.739875
  0
ARC
  8
APS_GEOMETRY
 10
191.936114
 20
181.695284
 40
3.779649
 50
349.234336
 51
356.863748
  0
ARC
  8
APS_GEOMETRY
 10
191.974495
 20
181.687996
 40
3.740582
 50
341.564997
 51
349.234184
  0
ARC
  8
APS_GEOMETRY
 10
192.731305
 20
181.454333
 40
2.948771
 50
320.916297
 51
341.222001
  0
ARC
  8
APS_GEOMETRY
 10
193.320147
 20
180.976077
 40
2.190178
 50
297.31148
 51
320.916201
  0
ARC
  8
APS_GEOMETRY
 10
192.734494
 20
182.036602
 40
3.401363
 50
287.739301
 51
297.880328
  0
ARC
  8
APS_GEOMETRY
 10
191.932729
 20
184.542941
 40
6.032819
 50
280.128995
 51
287.739264
  0
ARC
  8
APS_GEOMETRY
 10
191.579129
 20
186.522278
 40
8.043492
 50
274.394546
 51
280.12894
  0
ARC
  8
APS_GEOMETRY
 10
191.146383
 20
192.153063
 40
13.690882
 50
270.000028
 51
274.39463
  0
ARC
  8
APS_GEOMETRY
 10
191.14639
 20
189.831129
 40
11.368948
 50
263.973361
 51
270.0
  0
ARC
  8
APS_GEOMETRY
 10
190.584955
 20
184.513233
 40
6.021497
 50
255.688979
 51
263.973377
  0
ARC
  8
APS_GEOMETRY
 10
190.158324
 20
182.840818
 40
4.295524
 50
244.207913
 51
255.688913
  0
ARC
  8
APS_GEOMETRY
 10
189.335543
 20
181.138217
 40
2.40454
 50
228.842456
 51
244.207956
  0
ARC
  8
APS_GEOMETRY
 10
189.576345
 20
181.433094
 40
2.785062
 50
208.810814
 51
229.105118
  0
ARC
  8
APS_GEOMETRY
 10
190.216664
 20
181.78527
 40
3.51584
 50
190.768175
 51
208.810816
  0
ARC
  8
APS_GEOMETRY
 10
194.545591
 20
182.606144
 40
7.921909
 50
186.729451
 51
190.750974
  0
ARC
  8
APS_GEOMETRY
 10
196.676571
 20
182.85757
 40
10.06767
 50
183.162206
 51
186.729352
  0
LINE
  8
APS_GEOMETRY
 10
186.62423
 11
186.591335
 20
182.302208
 21
183.208545
  0
LINE
  8
APS_GEOMETRY
 10
186.591335
 11
186.561903
 20
183.208545
 21
184.674092
  0
LINE
  8
APS_GEOMETRY
 10
186.561903
 11
186.506501
 20
184.674092
 21
187.43725
  0
ARC
  8
APS_GEOMETRY
 10
202.261956
 20
188.382562
 40
15.783788
 50
182.17469
 51
183.433576
  0
ARC
  8
APS_GEOMETRY
 10
191.775079
 20
187.984334
 40
5.289353
 50
179.99991
 51
182.174663
  0
ARC
  8
APS_GEOMETRY
 10
186.918249
 20
187.984343
 40
0.432523
 50
143.107412
 51
180.000176
  0
ARC
  8
APS_GEOMETRY
 10
186.745636
 20
188.113908
 40
0.216694
 50
89.999807
 51
143.107048
  0
ARC
  8
APS_GEOMETRY
 10
186.745637
 20
188.073059
 40
0.257543
 50
39.238744
 51
90.0
  0
ARC
  8
APS_GEOMETRY
 10
186.62005
 20
187.970491
 40
0.419692
 50
0.000006
 51
39.238775
  0
LINE
  8
APS_GEOMETRY
 10
187.039742
 11
187.016045
 20
187.970491
 21
187.402624
  0
LINE
  8
APS_GEOMETRY
 10
187.016045
 11
186.998191
 20
187.402624
 21
185.567444
  0
ARC
  8
APS_GEOMETRY
 10
286.404376
 20
185.567444
 40
99.406185
 50
180.0
 51
180.812209
  0
ARC
  8
APS_GEOMETRY
 10
234.358177
 20
184.829613
 40
47.354756
 50
180.812222
 51
181.989004
  0
ARC
  8
APS_GEOMETRY
 10
217.030674
 20
184.227849
 40
30.016807
 50
181.988998
 51
183.844661
  0
ARC
  8
APS_GEOMETRY
 10
196.279276
 20
182.833294
 40
9.218603
 50
183.844651
 51
187.193465
  0
ARC
  8
APS_GEOMETRY
 10
192.38437
 20
182.341705
 40
5.292797
 50
187.193466
 51
198.650882
  0
ARC
  8
APS_GEOMETRY
 10
189.569439
 20
181.391591
 40
2.321846
 50
198.650868
 51
215.986776
  0
ARC
  8
APS_GEOMETRY
 10
189.317568
 20
181.21498
 40
2.014273
 50
216.131674
 51
235.367964
  0
ARC
  8
APS_GEOMETRY
 10
189.929014
 20
182.100269
 40
3.090193
 50
235.368043
 51
250.873047
  0
ARC
  8
APS_GEOMETRY
 10
190.344585
 20
183.298539
 40
4.358479
 50
250.873023
 51
262.08218
  0
ARC
  8
APS_GEOMETRY
 10
190.945558
 20
187.619654
 40
8.721185
 50
262.082186
 51
270.000005
  0
ARC
  8
APS_GEOMETRY
 10
190.945568
 20
184.754493
 40
5.856024
 50
269.999912
 51
272.573272
  0
ARC
  8
APS_GEOMETRY
 10
184.243343
 20
180.149106
 40
0.203656
 50
90.0
 51
122.735226
  0
ARC
  8
APS_GEOMETRY
 10
184.60614
 20
179.584753
 40
0.874563
 50
122.735131
 51
138.366346
  0
ARC
  8
APS_GEOMETRY
 10
181.261909
 20
182.626669
 40
3.646253
 50
305.626253
 51
317.552967
  0
ARC
  8
APS_GEOMETRY
 10
180.936141
 20
183.081273
 40
4.205529
 50
294.523422
 51
305.626123
  0
ARC
  8
APS_GEOMETRY
 10
181.003356
 20
182.933933
 40
4.043582
 50
282.994598
 51
294.523468
  0
ARC
  8
APS_GEOMETRY
 10
181.196249
 20
182.098047
 40
3.185728
 50
270.000055
 51
282.994666
  0
ARC
  8
APS_GEOMETRY
 10
181.196254
 20
180.13254
 40
1.220221
 50
238.743367
 51
269.999923
  0
ARC
  8
APS_GEOMETRY
 10
180.75412
 20
179.404118
 40
0.368117
 50
180.000107
 51
238.743465
  0
ARC
  8
APS_GEOMETRY
 10
181.169756
 20
179.404119
 40
0.783753
 50
158.025687
 51
180.000181
  0
ARC
  8
APS_GEOMETRY
 10
182.229627
 20
178.976449
 40
1.926656
 50
144.061239
 51
158.025486
  0
ARC
  8
APS_GEOMETRY
 10
183.770891
 20
177.859168
 40
3.830288
 50
140.448608
 51
144.061212
  0
ARC
  8
APS_GEOMETRY
 10
194.21775
 20
169.231739
 40
17.379066
 50
138.752955
 51
140.448728
  0
ARC
  8
APS_GEOMETRY
 10
203.703586
 20
160.913623
 40
29.99541
 50
137.769798
 51
138.752772
  0
ARC
  8
APS_GEOMETRY
 10
233.690429
 20
133.6946
 40
70.493385
 50
137.128722
 51
137.76992
  0
ARC
  8
APS_GEOMETRY
 10
148.682013
 20
212.480919
 40
45.410578
 50
317.24801
 51
318.50295
  0
ARC
  8
APS_GEOMETRY
 10
165.641268
 20
197.478235
 40
22.767768
 50
318.502872
 51
320.275222
  0
ARC
  8
APS_GEOMETRY
 10
171.607199
 20
192.520847
 40
15.010963
 50
320.275271
 51
322.961163
  0
ARC
  8
APS_GEOMETRY
 10
179.359053
 20
186.671163
 40
5.299627
 50
322.961169
 51
327.482253
  0
ARC
  8
APS_GEOMETRY
 10
180.096013
 20
186.199597
 40
4.424709
 50
327.501365
 51
341.498211
  0
ARC
  8
APS_GEOMETRY
 10
181.881649
 20
185.602071
 40
2.54175
 50
341.498176
 51
359.99998
  0
ARC
  8
APS_GEOMETRY
 10
182.068975
 20
185.60207
 40
2.354424
 50
0.0
 51
28.583779
  0
ARC
  8
APS_GEOMETRY
 10
181.629886
 20
185.362829
 40
2.854459
 50
28.58383
 51
54.495439
  0
ARC
  8
APS_GEOMETRY
 10
181.012507
 20
184.501342
 40
3.914324
 50
54.462288
 51
73.84511
  0
ARC
  8
APS_GEOMETRY
 10
180.538355
 20
182.864483
 40
5.618474
 50
73.845126
 51
89.999978
  0
ARC
  8
APS_GEOMETRY
 10
180.538362
 20
183.320254
 40
5.162703
 50
90.00005
 51
102.468779
  0
ARC
  8
APS_GEOMETRY
 10
180.385365
 20
184.012129
 40
4.454114
 50
102.468692
 51
115.896868
  0
ARC
  8
APS_GEOMETRY
 10
179.850091
 20
185.198835
 40
3.153007
 50
116.565146
 51
123.837644
  0
ARC
  8
APS_GEOMETRY
 10
179.423586
 20
185.835027
 40
2.387078
 50
123.83751
 51
132.197508
  0
ARC
  8
APS_GEOMETRY
 10
178.712854
 20
186.618922
 40
1.328952
 50
132.197474
 51
146.659235
  0
ARC
  8
APS_GEOMETRY
 10
177.816367
 20
187.208719
 40
0.255849
 50
146.65953
 51
180.000223
  0
ARC
  8
APS_GEOMETRY
 10
177.711462
 20
187.208716
 40
0.150944
 50
179.999259
 51
207.12047
  0
ARC
  8
APS_GEOMETRY
 10
177.805046
 20
187.256655
 40
0.256092
 50
207.121873
 51
227.862972
  0
ARC
  8
APS_GEOMETRY
 10
177.830531
 20
187.284815
 40
0.294072
 50
227.862033
 51
246.160897
  0
ARC
  8
APS_GEOMETRY
 10
177.782123
 20
187.175269
 40
0.174307
 50
246.161619
 51
270.000224
  0
ARC
  8
APS_GEOMETRY
 10
177.782124
 20
187.201733
 40
0.200771
 50
270.0
 51
301.798913
  0
ARC
  8
APS_GEOMETRY
 10
177.084607
 20
188.326765
 40
1.524488
 50
301.798824
 51
313.209986
  0
ARC
  8
APS_GEOMETRY
 10
179.711628
 20
185.539269
 40
2.305838
 50
120.755617
 51
133.363442
  0
ARC
  8
APS_GEOMETRY
 10
180.436268
 20
184.321529
 40
3.722875
 50
110.84092
 51
120.755612
  0
ARC
  8
APS_GEOMETRY
 10
180.477599
 20
184.212959
 40
3.839046
 50
101.212105
 51
110.840926
  0
ARC
  8
APS_GEOMETRY
 10
180.282126
 20
185.199085
 40
2.833733
 50
90.000038
 51
101.212134
  0
ARC
  8
APS_GEOMETRY
 10
180.282124
 20
186.72808
 40
1.304738
 50
75.216703
 51
90.0
  0
ARC
  8
APS_GEOMETRY
 10
180.423722
 20
187.264633
 40
0.749815
 50
55.675295
 51
75.216822
  0
ARC
  8
APS_GEOMETRY
 10
180.544982
 20
187.442234
 40
0.534766
 50
29.567345
 51
55.675083
  0
ARC
  8
APS_GEOMETRY
 10
180.645679
 20
187.49936
 40
0.418994
 50
0.000164
 51
29.567557
  0
ARC
  8
APS_GEOMETRY
 10
180.323294
 20
187.499361
 40
0.741379
 50
338.734382
 51
0.0
  0
ARC
  8
APS_GEOMETRY
 10
178.911803
 20
188.048701
 40
2.256002
 50
326.590844
 51
338.734419
  0
ARC
  8
APS_GEOMETRY
 10
177.819111
 20
188.769455
 40
3.564994
 50
322.660117
 51
326.590765
  0
ARC
  8
APS_GEOMETRY
 10
174.689432
 20
191.157067
 40
7.501437
 50
319.950756
 51
322.660174
  0
ARC
  8
APS_GEOMETRY
 10
172.53962
 20
192.964115
 40
10.309838
 50
317.978085
 51
319.950795
  0
ARC
  8
APS_GEOMETRY
 10
166.90338
 20
198.042944
 40
17.896781
 50
316.480775
 51
317.978013
  0
ARC
  8
APS_GEOMETRY
 10
237.530637
 20
131.538423
 40
79.114036
 50
136.776598
 51
137.853296
  0
ARC
  8
APS_GEOMETRY
 10
203.33731
 20
162.485162
 40
32.99588
 50
137.853337
 51
139.52058
  0
ARC
  8
APS_GEOMETRY
 10
192.551545
 20
171.690337
 40
18.816036
 50
139.520485
 51
142.440002
  0
ARC
  8
APS_GEOMETRY
 10
180.776626
 20
180.745167
 40
3.962125
 50
142.44013
 51
148.804977
  0
ARC
  8
APS_GEOMETRY
 10
180.642229
 20
180.844459
 40
3.795763
 50
149.036289
 51
162.734229
  0
ARC
  8
APS_GEOMETRY
 10
179.305376
 20
181.259962
 40
2.395828
 50
162.734131
 51
179.999938
  0
ARC
  8
APS_GEOMETRY
 10
179.123426
 20
181.259965
 40
2.213878
 50
180.0
 51
195.90139
  0
ARC
  8
APS_GEOMETRY
 10
179.301999
 20
181.310837
 40
2.399556
 50
195.901367
 51
211.171339
  0
ARC
  8
APS_GEOMETRY
 10
179.425373
 20
181.385469
 40
2.543747
 50
211.171329
 51
225.63894
  0
ARC
  8
APS_GEOMETRY
 10
179.689792
 20
181.655858
 40
2.921937
 50
225.639017
 51
239.133241
  0
ARC
  8
APS_GEOMETRY
 10
180.432915
 20
182.90743
 40
4.377496
 50
239.188751
 51
256.263728
  0
ARC
  8
APS_GEOMETRY
 10
180.99542
 20
185.208591
 40
6.74641
 50
256.263742
 51
270.000011
  0
ARC
  8
APS_GEOMETRY
 10
180.995421
 20
183.624076
 40
5.161895
 50
270.0
 51
286.413584
  0
ARC
  8
APS_GEOMETRY
 10
181.226724
 20
182.838861
 40
4.343321
 50
286.413585
 51
304.318796
  0
ARC
  8
APS_GEOMETRY
 10
180.318994
 20
184.160505
 40
5.946662
 50
304.362806
 51
309.075443
  0
ARC
  8
APS_GEOMETRY
 10
182.704047
 20
181.223129
 40
2.162926
 50
309.075416
 51
316.893394
  0
ARC
  8
APS_GEOMETRY
 10
183.463211
 20
180.512552
 40
1.123094
 50
316.893359
 51
331.445537
  0
ARC
  8
APS_GEOMETRY
 10
184.189516
 20
180.117304
 40
0.296209
 50
331.445841
 51
0.000303
  0
ARC
  8
APS_GEOMETRY
 10
184.282948
 20
180.117306
 40
0.202777
 50
0.0
 51
24.075498
  0
ARC
  8
APS_GEOMETRY
 10
184.223873
 20
180.09091
 40
0.267481
 50
24.075638
 51
44.999985
  0
ARC
  8
APS_GEOMETRY
 10
184.231685
 20
180.098722
 40
0.256433
 50
45.000091
 51
66.801507
  0
ARC
  8
APS_GEOMETRY
 10
184.243343
 20
180.125924
 40
0.226838
 50
66.801471
 51
90.000068
  0
ARC
  8
APS_GEOMETRY
 10
155.268181
 20
186.702399
 40
7.745091
 50
298.450927
 51
304.39204
  0
ARC
  8
APS_GEOMETRY
 10
159.857006
 20
184.614254
 40
4.30836
 50
241.377404
 51
267.152998
  0
ARC
  8
APS_GEOMETRY
 10
159.532976
 20
184.020496
 40
3.631939
 50
213.258783
 51
241.377393
  0
ARC
  8
APS_GEOMETRY
 10
159.964201
 20
184.29798
 40
4.144712
 50
197.068497
 51
213.197126
  0
ARC
  8
APS_GEOMETRY
 10
159.54266
 20
184.168551
 40
3.703748
 50
179.999981
 51
197.068494
  0
ARC
  8
APS_GEOMETRY
 10
159.535061
 20
184.168555
 40
3.696149
 50
163.885888
 51
180.000054
  0
ARC
  8
APS_GEOMETRY
 10
160.008435
 20
184.031793
 40
4.188883
 50
148.754955
 51
163.885832
  0
ARC
  8
APS_GEOMETRY
 10
159.703825
 20
184.209517
 40
3.836274
 50
130.979258
 51
148.664529
  0
ARC
  8
APS_GEOMETRY
 10
159.541062
 20
184.396891
 40
3.588079
 50
112.687481
 51
130.979263
  0
ARC
  8
APS_GEOMETRY
 10
159.854253
 20
183.694754
 40
4.356723
 50
103.412471
 51
112.926037
  0
ARC
  8
APS_GEOMETRY
 10
160.604122
 20
180.550214
 40
7.589437
 50
96.208017
 51
103.412545
  0
ARC
  8
APS_GEOMETRY
 10
161.001865
 20
176.893705
 40
11.267515
 50
93.76678
 51
96.208026
  0
ARC
  8
APS_GEOMETRY
 10
161.862913
 20
163.814838
 40
24.374694
 50
92.10697
 51
93.766701
  0
ARC
  8
APS_GEOMETRY
 10
162.206717
 20
154.470503
 40
33.725352
 50
90.907145
 51
92.107012
  0
ARC
  8
APS_GEOMETRY
 10
162.606894
 20
129.196736
 40
59.002287
 50
89.999999
 51
90.907137
  0
LINE
  8
APS_GEOMETRY
 10
162.606895
 11
165.388773
 20
188.199023
 21
188.199023
  0
LINE
  8
APS_GEOMETRY
 10
165.388773
 11
165.374922
 20
188.199023
 21
184.016198
  0
LINE
  8
APS_GEOMETRY
 10
165.374922
 11
165.395698
 20
184.016198
 21
181.315366
  0
LINE
  8
APS_GEOMETRY
 10
165.395698
 11
165.409548
 20
181.315366
 21
179.057749
  0
LINE
  8
APS_GEOMETRY
 10
165.409548
 11
165.409548
 20
179.057749
 21
178.746114
  0
LINE
  8
APS_GEOMETRY
 10
165.409548
 11
161.192097
 20
178.746114
 21
178.746114
  0
LINE
  8
APS_GEOMETRY
 10
161.192097
 11
161.192097
 20
178.746114
 21
179.41786
  0
LINE
  8
APS_GEOMETRY
 10
161.192097
 11
161.199022
 20
179.41786
 21
180.595145
  0
LINE
  8
APS_GEOMETRY
 10
161.199022
 11
161.199022
 20
180.595145
 21
180.879078
  0
ARC
  8
APS_GEOMETRY
 10
147.042596
 20
198.790313
 40
22.830172
 50
306.066672
 51
308.321636
  0
ARC
  8
APS_GEOMETRY
 10
151.148668
 20
193.15261
 40
15.855681
 50
303.360726
 51
306.066642
  0
ARC
  8
APS_GEOMETRY
 10
152.702444
 20
190.792671
 40
13.030166
 50
300.070157
 51
303.360718
  0
ARC
  8
APS_GEOMETRY
 10
154.935674
 20
186.935482
 40
8.573124
 50
296.013262
 51
300.070278
  0
ARC
  8
APS_GEOMETRY
 10
153.635171
 20
189.667291
 40
11.598592
 50
292.267492
 51
295.868218
  0
ARC
  8
APS_GEOMETRY
 10
155.678693
 20
184.676601
 40
6.205729
 50
287.344177
 51
292.267502
  0
ARC
  8
APS_GEOMETRY
 10
156.234658
 20
182.896446
 40
4.340776
 50
280.33951
 51
287.34415
  0
ARC
  8
APS_GEOMETRY
 10
156.655649
 20
180.588907
 40
1.995148
 50
270.000108
 51
280.33962
  0
ARC
  8
APS_GEOMETRY
 10
156.655654
 20
179.006231
 40
0.412472
 50
234.307529
 51
269.999807
  0
ARC
  8
APS_GEOMETRY
 10
156.523516
 20
178.822292
 40
0.18599
 50
180.000012
 51
234.307901
  0
ARC
  8
APS_GEOMETRY
 10
156.509139
 20
178.822292
 40
0.171613
 50
134.118596
 51
180.0
  0
ARC
  8
APS_GEOMETRY
 10
156.612798
 20
178.715393
 40
0.320518
 50
100.975553
 51
134.118557
  0
ARC
  8
APS_GEOMETRY
 10
154.634895
 20
188.427142
 40
9.59061
 50
281.529386
 51
286.907374
  0
ARC
  8
APS_GEOMETRY
 10
155.037067
 20
187.104014
 40
8.207711
 50
286.907449
 51
292.721231
  0
ARC
  8
APS_GEOMETRY
 10
154.991182
 20
187.213609
 40
8.326524
 50
292.721184
 51
298.450934
  0
ARC
  8
APS_GEOMETRY
 10
159.968066
 20
185.022942
 40
4.289293
 50
251.689568
 51
270.0
  0
LINE
  8
APS_GEOMETRY
 10
159.968066
 11
160.300043
 20
180.733649
 21
180.740574
  0
ARC
  8
APS_GEOMETRY
 10
155.001035
 20
187.966474
 40
8.960643
 50
306.253912
 51
310.019334
  0
ARC
  8
APS_GEOMETRY
 10
155.060703
 20
187.895446
 40
8.867878
 50
310.019201
 51
313.804279
  0
LINE
  8
APS_GEOMETRY
 10
161.199022
 11
161.205947
 20
181.495422
 21
181.820907
  0
LINE
  8
APS_GEOMETRY
 10
161.205947
 11
161.205947
 20
181.820907
 21
183.074369
  0
LINE
  8
APS_GEOMETRY
 10
161.205947
 11
161.14362
 20
183.074369
 21
187.714258
  0
ARC
  8
APS_GEOMETRY
 10
161.350703
 20
171.308005
 40
16.40756
 50
90.72316
 51
93.594106
  0
ARC
  8
APS_GEOMETRY
 10
160.949976
 20
177.68795
 40
10.015042
 50
93.59414
 51
97.269073
  0
ARC
  8
APS_GEOMETRY
 10
160.646399
 20
180.068085
 40
7.615625
 50
97.269222
 51
102.093134
  0
ARC
  8
APS_GEOMETRY
 10
159.930657
 20
183.408611
 40
4.199282
 50
102.092941
 51
108.590766
  0
ARC
  8
APS_GEOMETRY
 10
159.643666
 20
184.261855
 40
3.299066
 50
108.59085
 51
124.747308
  0
ARC
  8
APS_GEOMETRY
 10
159.638463
 20
184.269356
 40
3.289937
 50
124.747309
 51
140.926314
  0
ARC
  8
APS_GEOMETRY
 10
159.776114
 20
184.122499
 40
3.489474
 50
140.478927
 51
160.012772
  0
ARC
  8
APS_GEOMETRY
 10
159.630453
 20
184.175476
 40
3.334478
 50
160.01273
 51
179.999977
  0
ARC
  8
APS_GEOMETRY
 10
159.504445
 20
184.175477
 40
3.20847
 50
180.0
 51
192.541946
  0
ARC
  8
APS_GEOMETRY
 10
159.866425
 20
184.256004
 40
3.579299
 50
192.541941
 51
204.413967
  0
ARC
  8
APS_GEOMETRY
 10
159.72115
 20
184.158774
 40
3.406945
 50
203.93484
 51
217.435476
  0
ARC
  8
APS_GEOMETRY
 10
159.582947
 20
184.052967
 40
3.23289
 50
217.435369
 51
231.296415
  0
ARC
  8
APS_GEOMETRY
 10
159.674466
 20
184.135721
 40
3.354755
 50
230.960382
 51
251.689574
  0
ARC
  8
APS_GEOMETRY
 10
161.600949
 20
183.106819
 40
8.446183
 50
207.697562
 51
210.613366
  0
ARC
  8
APS_GEOMETRY
 10
154.913955
 20
179.150032
 40
0.676238
 50
210.613089
 51
220.930673
  0
ARC
  8
APS_GEOMETRY
 10
154.609188
 20
178.88575
 40
0.272842
 50
220.930887
 51
245.05405
  0
ARC
  8
APS_GEOMETRY
 10
154.60183
 20
178.869935
 40
0.255399
 50
245.054364
 51
270.000283
  0
ARC
  8
APS_GEOMETRY
 10
154.601831
 20
178.875932
 40
0.261396
 50
270.0
 51
311.228479
  0
ARC
  8
APS_GEOMETRY
 10
154.648836
 20
178.822292
 40
0.190075
 50
311.228502
 51
359.999903
  0
ARC
  8
APS_GEOMETRY
 10
154.609077
 20
178.822292
 40
0.229834
 50
360.0
 51
21.911123
  0
ARC
  8
APS_GEOMETRY
 10
152.682218
 20
178.047269
 40
2.306718
 50
21.911025
 51
28.789372
  0
ARC
  8
APS_GEOMETRY
 10
148.746005
 20
175.884194
 40
6.798117
 50
28.789928
 51
29.971984
  0
ARC
  8
APS_GEOMETRY
 10
88.967646
 20
141.410888
 40
75.804356
 50
29.971471
 51
30.325449
  0
LINE
  8
APS_GEOMETRY
 10
154.399796
 11
154.121094
 20
179.685345
 21
180.159939
  0
LINE
  8
APS_GEOMETRY
 10
154.121094
 11
153.757929
 20
180.159939
 21
180.7752
  0
LINE
  8
APS_GEOMETRY
 10
153.757929
 11
149.56569
 20
180.7752
 21
187.831987
  0
LINE
  8
APS_GEOMETRY
 10
149.56569
 11
149.025199
 20
187.831987
 21
188.76689
  0
LINE
  8
APS_GEOMETRY
 10
149.025199
 11
143.488496
 20
188.76689
 21
178.746114
  0
LINE
  8
APS_GEOMETRY
 10
143.488496
 11
148.290911
 20
178.746114
 21
178.746114
  0
LINE
  8
APS_GEOMETRY
 10
148.290911
 11
148.959951
 20
178.746114
 21
180.013427
  0
LINE
  8
APS_GEOMETRY
 10
148.959951
 11
151.278813
 20
180.013427
 21
180.013427
  0
LINE
  8
APS_GEOMETRY
 10
151.278813
 11
153.321641
 20
180.013427
 21
180.020353
  0
LINE
  8
APS_GEOMETRY
 10
153.321641
 11
153.666711
 20
180.020353
 21
180.027278
  0
LINE
  8
APS_GEOMETRY
 10
153.666711
 11
154.122585
 20
180.027278
 21
179.180996
  0
ARC
  8
APS_GEOMETRY
 10
94.484452
 20
170.310511
 40
48.017727
 50
14.92719
 51
15.855053
  0
LINE
  8
APS_GEOMETRY
 10
140.675389
 11
137.741266
 20
183.429178
 21
179.341682
  0
LINE
  8
APS_GEOMETRY
 10
137.741266
 11
134.879532
 20
179.341682
 21
183.641912
  0
LINE
  8
APS_GEOMETRY
 10
134.879532
 11
133.554545
 20
183.641912
 21
178.746114
  0
LINE
  8
APS_GEOMETRY
 10
133.554545
 11
129.344451
 20
178.746114
 21
178.746114
  0
LINE
  8
APS_GEOMETRY
 10
129.344451
 11
129.427446
 20
178.746114
 21
179.009272
  0
LINE
  8
APS_GEOMETRY
 10
129.427446
 11
130.043032
 20
179.009272
 21
181.079909
  0
LINE
  8
APS_GEOMETRY
 10
130.043032
 11
130.72787
 20
181.079909
 21
183.365228
  0
LINE
  8
APS_GEOMETRY
 10
130.72787
 11
132.235726
 20
183.365228
 21
188.524508
  0
LINE
  8
APS_GEOMETRY
 10
132.235726
 11
135.861072
 20
188.524508
 21
183.028706
  0
LINE
  8
APS_GEOMETRY
 10
135.861072
 11
139.652623
 20
183.028706
 21
188.524508
  0
LINE
  8
APS_GEOMETRY
 10
139.652623
 11
141.864469
 20
188.524508
 21
180.996807
  0
LINE
  8
APS_GEOMETRY
 10
141.864469
 11
142.294373
 20
180.996807
 21
179.521738
  0
ARC
  8
APS_GEOMETRY
 10
106.210012
 20
168.527269
 40
37.722135
 50
16.439547
 51
16.945345
  0
ARC
  8
APS_GEOMETRY
 10
131.646963
 20
176.032862
 40
11.200966
 50
15.511289
 51
16.439504
  0
ARC
  8
APS_GEOMETRY
 10
138.01078
 20
177.799049
 40
4.596605
 50
13.254822
 51
15.511356
  0
ARC
  8
APS_GEOMETRY
 10
142.354695
 20
178.822294
 40
0.1338
 50
359.999121
 51
13.253763
  0
ARC
  8
APS_GEOMETRY
 10
142.323867
 20
178.822292
 40
0.164628
 50
304.324794
 51
0.0
  0
ARC
  8
APS_GEOMETRY
 10
142.184219
 20
179.026818
 40
0.412282
 50
270.000027
 51
304.324827
  0
ARC
  8
APS_GEOMETRY
 10
142.184217
 20
179.100446
 40
0.48591
 50
244.110031
 51
270.000243
  0
ARC
  8
APS_GEOMETRY
 10
142.077202
 20
178.879953
 40
0.240819
 50
206.999927
 51
244.109407
  0
ARC
  8
APS_GEOMETRY
 10
142.35191
 20
179.019933
 40
0.549136
 50
197.900715
 51
207.000843
  0
ARC
  8
APS_GEOMETRY
 10
146.293135
 20
180.292914
 40
4.690843
 50
194.789381
 51
197.900087
  0
ARC
  8
APS_GEOMETRY
 10
150.821689
 20
181.488553
 40
9.374575
 50
193.229603
 51
194.789622
  0
ARC
  8
APS_GEOMETRY
 10
167.035353
 20
185.300137
 40
26.030237
 50
192.293137
 51
193.229313
  0
LINE
  8
APS_GEOMETRY
 10
141.601961
 11
141.355933
 20
179.757952
 21
180.80305
  0
LINE
  8
APS_GEOMETRY
 10
141.355933
 11
141.119496
 20
180.80305
 21
181.763287
  0
ARC
  8
APS_GEOMETRY
 10
72.138227
 20
164.353222
 40
71.144401
 50
14.164961
 51
14.927238
  0
ARC
  8
APS_GEOMETRY
 10
124.179631
 20
148.430006
 40
39.769017
 50
90.0
 51
91.396472
  0
ARC
  8
APS_GEOMETRY
 10
123.769087
 20
165.271479
 40
22.922541
 50
91.396509
 51
93.23593
  0
ARC
  8
APS_GEOMETRY
 10
123.41668
 20
171.504256
 40
16.679809
 50
93.235863
 51
95.762237
  0
ARC
  8
APS_GEOMETRY
 10
122.536652
 20
180.225164
 40
7.914612
 50
95.762258
 51
99.430157
  0
ARC
  8
APS_GEOMETRY
 10
122.171317
 20
182.424771
 40
5.684872
 50
99.430129
 51
109.52646
  0
ARC
  8
APS_GEOMETRY
 10
121.456522
 20
184.440344
 40
3.546305
 50
109.526523
 51
122.319649
  0
ARC
  8
APS_GEOMETRY
 10
121.516945
 20
184.325821
 40
3.675405
 50
122.161165
 51
138.55171
  0
ARC
  8
APS_GEOMETRY
 10
121.83803
 20
184.042273
 40
4.103768
 50
138.551797
 51
154.057772
  0
ARC
  8
APS_GEOMETRY
 10
121.567198
 20
184.173205
 40
3.802948
 50
154.046607
 51
166.934763
  0
ARC
  8
APS_GEOMETRY
 10
121.467888
 20
184.196252
 40
3.700999
 50
166.93477
 51
179.999986
  0
ARC
  8
APS_GEOMETRY
 10
121.599725
 20
184.196253
 40
3.832836
 50
180.0
 51
193.614183
  0
ARC
  8
APS_GEOMETRY
 10
121.762198
 20
184.235602
 40
4.000006
 50
193.614186
 51
206.93953
  0
ARC
  8
APS_GEOMETRY
 10
121.686137
 20
184.192243
 40
3.912557
 50
206.878109
 51
223.020483
  0
ARC
  8
APS_GEOMETRY
 10
121.438842
 20
183.961479
 40
3.574316
 50
223.02057
 51
239.914814
  0
ARC
  8
APS_GEOMETRY
 10
121.544268
 20
184.143446
 40
3.784618
 50
239.914729
 51
255.942223
  0
ARC
  8
APS_GEOMETRY
 10
121.818135
 20
185.237179
 40
4.912117
 50
255.942257
 51
269.999998
  0
ARC
  8
APS_GEOMETRY
 10
121.818135
 20
184.641202
 40
4.31614
 50
270.0
 51
273.031524
  0
ARC
  8
APS_GEOMETRY
 10
121.574473
 20
189.241961
 40
8.923347
 50
273.031575
 51
275.139814
  0
ARC
  8
APS_GEOMETRY
 10
121.284158
 20
192.469886
 40
12.164301
 50
275.139671
 51
276.686819
  0
ARC
  8
APS_GEOMETRY
 10
120.274509
 20
201.08119
 40
20.834592
 50
276.686987
 51
277.869154
  0
LINE
  8
APS_GEOMETRY
 10
123.126999
 11
123.127
 20
180.442791
 21
180.248884
  0
LINE
  8
APS_GEOMETRY
 10
123.127
 11
123.120075
 20
180.248884
 21
178.919245
  0
LINE
  8
APS_GEOMETRY
 10
123.120075
 11
123.120075
 20
178.919245
 21
178.746114
  0
LINE
  8
APS_GEOMETRY
 10
123.120075
 11
127.344451
 20
178.746114
 21
178.746114
  0
LINE
  8
APS_GEOMETRY
 10
127.344451
 11
127.337526
 20
178.746114
 21
179.168552
  0
LINE
  8
APS_GEOMETRY
 10
127.337526
 11
127.3029
 20
179.168552
 21
184.036973
  0
LINE
  8
APS_GEOMETRY
 10
127.3029
 11
127.330601
 20
184.036973
 21
186.349993
  0
LINE
  8
APS_GEOMETRY
 10
127.330601
 11
127.337526
 20
186.349993
 21
187.922015
  0
LINE
  8
APS_GEOMETRY
 10
127.337526
 11
127.344451
 20
187.922015
 21
188.199023
  0
LINE
  8
APS_GEOMETRY
 10
127.344451
 11
124.179631
 20
188.199023
 21
188.199023
  0
ARC
  8
APS_GEOMETRY
 10
122.217546
 20
184.361036
 40
3.56705
 50
275.848922
 51
284.886267
  0
LINE
  8
APS_GEOMETRY
 10
123.133925
 11
123.147775
 20
180.913704
 21
182.638081
  0
LINE
  8
APS_GEOMETRY
 10
123.147775
 11
123.120075
 20
182.638081
 21
187.26412
  0
LINE
  8
APS_GEOMETRY
 10
123.120075
 11
123.120075
 20
187.26412
 21
187.728109
  0
LINE
  8
APS_GEOMETRY
 10
123.120075
 11
122.912318
 20
187.728109
 21
187.728109
  0
ARC
  8
APS_GEOMETRY
 10
122.912318
 20
175.773905
 40
11.954204
 50
90.0
 51
93.463677
  0
ARC
  8
APS_GEOMETRY
 10
122.682108
 20
179.577461
 40
8.143688
 50
93.463711
 51
97.660508
  0
ARC
  8
APS_GEOMETRY
 10
122.483652
 20
181.052838
 40
6.655023
 50
97.660401
 51
102.787899
  0
ARC
  8
APS_GEOMETRY
 10
121.989589
 20
183.229608
 40
4.422888
 50
102.787956
 51
109.078674
  0
ARC
  8
APS_GEOMETRY
 10
121.728257
 20
183.985204
 40
3.623376
 50
109.078696
 51
124.11448
  0
ARC
  8
APS_GEOMETRY
 10
121.462165
 20
184.378009
 40
3.148928
 50
124.114503
 51
140.250303
  0
ARC
  8
APS_GEOMETRY
 10
121.842928
 20
184.063286
 40
3.642921
 50
140.273895
 51
159.582739
  0
ARC
  8
APS_GEOMETRY
 10
121.485722
 20
184.196255
 40
3.261769
 50
159.582776
 51
180.000033
  0
ARC
  8
APS_GEOMETRY
 10
121.681925
 20
184.19625
 40
3.457972
 50
179.999955
 51
200.224811
  0
ARC
  8
APS_GEOMETRY
 10
121.644902
 20
184.182614
 40
3.418517
 50
200.224865
 51
220.567344
  0
ARC
  8
APS_GEOMETRY
 10
121.525712
 20
184.074486
 40
3.257659
 50
220.486017
 51
233.399101
  0
ARC
  8
APS_GEOMETRY
 10
121.627604
 20
184.211688
 40
3.428558
 50
233.399177
 51
245.984981
  0
ARC
  8
APS_GEOMETRY
 10
121.681343
 20
184.332291
 40
3.560592
 50
245.984908
 51
258.124847
  0
ARC
  8
APS_GEOMETRY
 10
121.714262
 20
184.488814
 40
3.720539
 50
258.124772
 51
269.999923
  0
ARC
  8
APS_GEOMETRY
 10
121.714257
 20
189.274089
 40
8.505814
 50
270.000002
 51
275.848928
  0
LINE
  8
APS_GEOMETRY
 10
111.577396
 11
121.577396
 20
203.653866
 21
203.653866
  0
LINE
  8
APS_GEOMETRY
 10
121.577396
 11
121.577396
 20
203.653866
 21
198.653866
  0
LINE
  8
APS_GEOMETRY
 10
121.577396
 11
111.577396
 20
198.653866
 21
198.653866
  0
LINE
  8
APS_GEOMETRY
 10
111.577396
 11
111.577396
 20
198.653866
 21
203.653866
  0
LINE
  8
APS_GEOMETRY
 10
111.577396
 11
121.577396
 20
168.653866
 21
168.653866
  0
LINE
  8
APS_GEOMETRY
 10
121.577396
 11
121.577396
 20
168.653866
 21
163.653866
  0
LINE
  8
APS_GEOMETRY
 10
121.577396
 11
111.577396
 20
163.653866
 21
163.653866
  0
LINE
  8
APS_GEOMETRY
 10
111.577396
 11
111.577396
 20
163.653866
 21
168.653866
  0
LINE
  8
APS_GEOMETRY
 10
96.577396
 11
101.577396
 20
188.653866
 21
188.653866
  0
LINE
  8
APS_GEOMETRY
 10
101.577396
 11
101.577396
 20
188.653866
 21
178.653866
  0
LINE
  8
APS_GEOMETRY
 10
101.577396
 11
96.577396
 20
178.653866
 21
178.653866
  0
LINE
  8
APS_GEOMETRY
 10
96.577396
 11
96.577396
 20
178.653866
 21
188.653866
  0
LINE
  8
APS_GEOMETRY
 10
221.577396
 11
231.577396
 20
203.653866
 21
203.653866
  0
LINE
  8
APS_GEOMETRY
 10
231.577396
 11
231.577396
 20
203.653866
 21
198.653866
  0
LINE
  8
APS_GEOMETRY
 10
231.577396
 11
221.577396
 20
198.653866
 21
198.653866
  0
LINE
  8
APS_GEOMETRY
 10
221.577396
 11
221.577396
 20
198.653866
 21
203.653866
  0
LINE
  8
APS_GEOMETRY
 10
221.577396
 11
231.577396
 20
168.653866
 21
168.653866
  0
LINE
  8
APS_GEOMETRY
 10
231.577396
 11
231.577396
 20
168.653866
 21
163.653866
  0
LINE
  8
APS_GEOMETRY
 10
231.577396
 11
221.577396
 20
163.653866
 21
163.653866
  0
LINE
  8
APS_GEOMETRY
 10
221.577396
 11
221.577396
 20
163.653866
 21
168.653866
  0
LINE
  8
APS_GEOMETRY
 10
241.577396
 11
246.577396
 20
188.653866
 21
188.653866
  0
LINE
  8
APS_GEOMETRY
 10
246.577396
 11
246.577396
 20
188.653866
 21
178.653866
  0
LINE
  8
APS_GEOMETRY
 10
246.577396
 11
241.577396
 20
178.653866
 21
178.653866
  0
LINE
  8
APS_GEOMETRY
 10
241.577396
 11
241.577396
 20
178.653866
 21
188.653866
  0
LINE
  8
APS_GEOMETRY
 10
-107.072071
 11
-105.356444
 20
155.431033
 21
155.431033
  0
LINE
  8
APS_GEOMETRY
 10
-106.214257
 11
-106.214257
 20
155.431033
 21
160.431033
  0
LINE
  8
APS_GEOMETRY
 10
-106.214257
 11
-107.072071
 20
160.431033
 21
159.57322
  0
LINE
  8
APS_GEOMETRY
 10
-89.498248
 11
-89.498248
 20
159.931033
 21
155.431033
  0
LINE
  8
APS_GEOMETRY
 10
-90.098248
 11
-88.848248
 20
158.531033
 21
158.531033
  0
LINE
  8
APS_GEOMETRY
 10
-58.831773
 11
-58.831773
 20
155.431033
 21
158.581033
  0
LINE
  8
APS_GEOMETRY
 10
-44.121453
 11
-44.121453
 20
158.66871
 21
155.51871
  0
LINE
  8
APS_GEOMETRY
 10
-42.497397
 11
-42.497397
 20
158.581033
 21
155.431033
  0
LINE
  8
APS_GEOMETRY
 10
-43.14055
 11
-41.854243
 20
155.431033
 21
155.431033
  0
LINE
  8
APS_GEOMETRY
 10
-38.533427
 11
-38.533427
 20
155.431422
 21
159.931422
  0
LINE
  8
APS_GEOMETRY
 10
160.18964
 11
160.18964
 20
138.163414
 21
141.313414
  0
LINE
  8
APS_GEOMETRY
 10
165.4897
 11
165.4897
 20
138.163414
 21
141.313414
  0
LINE
  8
APS_GEOMETRY
 10
177.887411
 11
177.887411
 20
141.401091
 21
138.251091
  0
LINE
  8
APS_GEOMETRY
 10
181.824076
 11
181.824076
 20
141.313414
 21
138.163414
  0
LINE
  8
APS_GEOMETRY
 10
181.180923
 11
182.46723
 20
138.163414
 21
138.163414
  0
LINE
  8
APS_GEOMETRY
 10
183.740319
 11
184.890319
 20
141.382249
 21
138.132249
  0
LINE
  8
APS_GEOMETRY
 10
183.740319
 11
184.140319
 20
136.882249
 21
136.882249
  0
LINE
  8
APS_GEOMETRY
 10
184.140319
 11
184.340319
 20
136.882249
 21
136.932249
  0
LINE
  8
APS_GEOMETRY
 10
184.340319
 11
184.490319
 20
136.932249
 21
137.032249
  0
LINE
  8
APS_GEOMETRY
 10
184.490319
 11
184.590319
 20
137.032249
 21
137.182249
  0
LINE
  8
APS_GEOMETRY
 10
184.590319
 11
185.890319
 20
137.182249
 21
141.382249
  0
LINE
  8
APS_GEOMETRY
 10
186.774062
 11
187.562723
 20
138.163414
 21
138.163414
  0
LINE
  8
APS_GEOMETRY
 10
187.562723
 11
187.562723
 20
138.163414
 21
142.663414
  0
LINE
  8
APS_GEOMETRY
 10
187.562723
 11
187.195376
 20
142.663414
 21
142.663414
  0
LINE
  8
APS_GEOMETRY
 10
187.562723
 11
188.351384
 20
138.163414
 21
138.163414
  0
LINE
  8
APS_GEOMETRY
 10
189.994538
 11
189.994538
 20
142.713414
 21
142.313414
  0
LINE
  8
APS_GEOMETRY
 10
189.994538
 11
189.994538
 20
138.163414
 21
141.313414
  0
LINE
  8
APS_GEOMETRY
 10
189.351384
 11
190.637691
 20
138.163414
 21
138.163414
  0
LINE
  8
APS_GEOMETRY
 10
201.86864
 11
201.86864
 20
141.313414
 21
138.163414
  0
LINE
  8
APS_GEOMETRY
 10
201.225486
 11
202.511793
 20
138.163414
 21
138.163414
  0
LINE
  8
APS_GEOMETRY
 10
208.418626
 11
208.418626
 20
138.163414
 21
141.313414
  0
LINE
  8
APS_GEOMETRY
 10
215.53267
 11
215.53267
 20
138.163803
 21
142.663803
  0
LINE
  8
APS_GEOMETRY
 10
216.507863
 11
217.757863
 20
141.13732
 21
141.13732
  0
LINE
  8
APS_GEOMETRY
 10
-274.559176
 11
22.440825
 20
168.97033
 21
168.97033
  0
LINE
  8
APS_GEOMETRY
 10
22.440825
 11
22.440825
 20
168.97033
 21
378.970325
  0
LINE
  8
APS_GEOMETRY
 10
22.440825
 11
-274.559176
 20
378.970325
 21
378.970325
  0
LINE
  8
APS_GEOMETRY
 10
-274.559176
 11
-274.559176
 20
378.970325
 21
168.97033
  0
LINE
  8
APS_GEOMETRY
 10
95.70609
 11
100.706068
 20
231.669061
 21
231.653964
  0
LINE
  8
APS_GEOMETRY
 10
100.706068
 11
100.675873
 20
231.653964
 21
221.65401
  0
LINE
  8
APS_GEOMETRY
 10
100.675873
 11
95.675896
 20
221.65401
 21
221.669107
  0
LINE
  8
APS_GEOMETRY
 10
95.675896
 11
95.70609
 20
221.669107
 21
231.669061
  0
LINE
  8
APS_GEOMETRY
 10
240.705429
 11
245.705407
 20
231.231246
 21
231.216149
  0
LINE
  8
APS_GEOMETRY
 10
245.705407
 11
245.675212
 20
231.216149
 21
221.216194
  0
LINE
  8
APS_GEOMETRY
 10
245.675212
 11
240.675235
 20
221.216194
 21
221.231292
  0
LINE
  8
APS_GEOMETRY
 10
240.675235
 11
240.705429
 20
221.231292
 21
231.231246
  0
LINE
  8
APS_GEOMETRY
 10
-250.002255
 11
-241.002255
 20
270.669384
 21
270.669447
  0
LINE
  8
APS_GEOMETRY
 10
-250.002184
 11
-226.002184
 20
260.656892
 21
260.657061
  0
LINE
  8
APS_GEOMETRY
 10
-250.002113
 11
-241.002113
 20
250.644399
 21
250.644463
  0
LINE
  8
APS_GEOMETRY
 10
-250.002042
 11
-226.002042
 20
240.631907
 21
240.632077
  0
LINE
  8
APS_GEOMETRY
 10
-250.001971
 11
-241.001971
 20
230.619415
 21
230.619479
  0
LINE
  8
APS_GEOMETRY
 10
-250.001901
 11
-226.001901
 20
220.606923
 21
220.607092
  0
LINE
  8
APS_GEOMETRY
 10
-250.00183
 11
-241.00183
 20
210.594431
 21
210.594494
  0
LINE
  8
APS_GEOMETRY
 10
-250.001759
 11
-226.001759
 20
200.581938
 21
200.582108
  0
LINE
  8
APS_GEOMETRY
 10
-250.002325
 11
-226.002325
 20
280.681876
 21
280.682046
  0
LINE
  8
APS_GEOMETRY
 10
-250.002396
 11
-241.002396
 20
290.694368
 21
290.694432
  0
LINE
  8
APS_GEOMETRY
 10
-250.002467
 11
-226.002467
 20
300.70686
 21
300.70703
  0
LINE
  8
APS_GEOMETRY
 10
-250.002538
 11
-241.002538
 20
310.719353
 21
310.719416
  0
LINE
  8
APS_GEOMETRY
 10
-250.002609
 11
-226.002609
 20
320.731845
 21
320.732014
  0
LINE
  8
APS_GEOMETRY
 10
-250.002679
 11
-241.002679
 20
330.744337
 21
330.744401
  0
LINE
  8
APS_GEOMETRY
 10
-250.00275
 11
-226.00275
 20
340.756829
 21
340.756999
  0
LINE
  8
APS_GEOMETRY
 10
-223.492981
 11
-220.342981
 20
295.302165
 21
295.302165
  0
LINE
  8
APS_GEOMETRY
 10
-223.492981
 11
-220.342981
 20
290.002104
 21
290.002104
  0
LINE
  8
APS_GEOMETRY
 10
-253.520532
 11
-253.520532
 20
300.542719
 21
298.376052
  0
LINE
  8
APS_GEOMETRY
 10
-251.020532
 11
-251.020532
 20
297.264941
 21
300.598274
  0
LINE
  8
APS_GEOMETRY
 10
-251.020532
 11
-256.020533
 20
300.598274
 21
300.598274
  0
LINE
  8
APS_GEOMETRY
 10
-253.576088
 11
-256.020533
 20
246.319071
 21
245.207959
  0
LINE
  8
APS_GEOMETRY
 10
-254.510441
 11
-254.510441
 20
243.763515
 21
240.707959
  0
LINE
  8
APS_GEOMETRY
 10
-256.020533
 11
-251.020532
 20
244.374626
 21
242.430181
  0
LINE
  8
APS_GEOMETRY
 10
-251.020532
 11
-251.020532
 20
242.430181
 21
241.985737
  0
LINE
  8
APS_GEOMETRY
 10
-251.020532
 11
-256.020533
 20
241.985737
 21
240.152404
  0
LINE
  8
APS_GEOMETRY
 10
-256.020533
 11
-251.020532
 20
239.652404
 21
239.652404
  0
LINE
  8
APS_GEOMETRY
 10
-251.020532
 11
-251.020532
 20
239.652404
 21
239.374626
  0
LINE
  8
APS_GEOMETRY
 10
-251.020532
 11
-256.020533
 20
239.374626
 21
237.430181
  0
LINE
  8
APS_GEOMETRY
 10
-256.020533
 11
-251.020532
 20
237.430181
 21
235.485737
  0
LINE
  8
APS_GEOMETRY
 10
-251.020532
 11
-251.020532
 20
235.485737
 21
235.207959
  0
LINE
  8
APS_GEOMETRY
 10
-251.020532
 11
-256.020533
 20
235.207959
 21
235.207959
  0
LINE
  8
APS_GEOMETRY
 10
-235.002255
 11
-226.002255
 20
270.66949
 21
270.669553
  0
LINE
  8
APS_GEOMETRY
 10
-235.002113
 11
-226.002113
 20
250.644505
 21
250.644569
  0
LINE
  8
APS_GEOMETRY
 10
-235.001971
 11
-226.001971
 20
230.619521
 21
230.619585
  0
LINE
  8
APS_GEOMETRY
 10
-235.00183
 11
-226.00183
 20
210.594537
 21
210.5946
  0
LINE
  8
APS_GEOMETRY
 10
-235.002396
 11
-226.002396
 20
290.694474
 21
290.694538
  0
LINE
  8
APS_GEOMETRY
 10
-235.002538
 11
-226.002538
 20
310.719459
 21
310.719522
  0
LINE
  8
APS_GEOMETRY
 10
-235.002679
 11
-226.002679
 20
330.744443
 21
330.744507
  0
LINE
  8
APS_GEOMETRY
 10
-240.322861
 11
-239.10973
 20
249.350652
 21
248.137521
  0
LINE
  8
APS_GEOMETRY
 10
-239.716296
 11
-236.180761
 20
248.744086
 21
252.27962
  0
LINE
  8
APS_GEOMETRY
 10
-236.180761
 11
-237.393893
 20
252.27962
 21
252.27962
  0
LINE
  8
APS_GEOMETRY
 10
-240.293186
 11
-239.080055
 20
289.54623
 21
288.333099
  0
LINE
  8
APS_GEOMETRY
 10
-239.68662
 11
-236.151086
 20
288.939665
 21
292.475199
  0
LINE
  8
APS_GEOMETRY
 10
-236.151086
 11
-237.364217
 20
292.475199
 21
292.475199
  0
LINE
  8
APS_GEOMETRY
 10
-223.492981
 11
-220.342981
 20
245.634346
 21
245.634346
  0
LINE
  8
APS_GEOMETRY
 10
-223.492981
 11
-220.342981
 20
240.334286
 21
240.334286
  0
LINE
  8
APS_GEOMETRY
 10
-204.465636
 11
-195.465636
 20
270.669384
 21
270.669447
  0
LINE
  8
APS_GEOMETRY
 10
-204.465565
 11
-180.465565
 20
260.656892
 21
260.657061
  0
LINE
  8
APS_GEOMETRY
 10
-204.465494
 11
-195.465494
 20
250.644399
 21
250.644463
  0
LINE
  8
APS_GEOMETRY
 10
-204.465424
 11
-180.465424
 20
240.631907
 21
240.632077
  0
LINE
  8
APS_GEOMETRY
 10
-204.465353
 11
-195.465353
 20
230.619415
 21
230.619479
  0
LINE
  8
APS_GEOMETRY
 10
-204.465282
 11
-180.465282
 20
220.606923
 21
220.607092
  0
LINE
  8
APS_GEOMETRY
 10
-204.465211
 11
-195.465211
 20
210.594431
 21
210.594494
  0
LINE
  8
APS_GEOMETRY
 10
-204.46514
 11
-180.46514
 20
200.581938
 21
200.582108
  0
LINE
  8
APS_GEOMETRY
 10
-204.465707
 11
-180.465707
 20
280.681876
 21
280.682046
  0
LINE
  8
APS_GEOMETRY
 10
-204.465778
 11
-195.465778
 20
290.694368
 21
290.694432
  0
LINE
  8
APS_GEOMETRY
 10
-204.465848
 11
-180.465848
 20
300.70686
 21
300.70703
  0
LINE
  8
APS_GEOMETRY
 10
-204.465919
 11
-195.465919
 20
310.719353
 21
310.719416
  0
LINE
  8
APS_GEOMETRY
 10
-204.46599
 11
-180.46599
 20
320.731845
 21
320.732014
  0
LINE
  8
APS_GEOMETRY
 10
-204.466061
 11
-195.466061
 20
330.744337
 21
330.744401
  0
LINE
  8
APS_GEOMETRY
 10
-204.466132
 11
-180.466132
 20
340.756829
 21
340.756999
  0
LINE
  8
APS_GEOMETRY
 10
-177.956362
 11
-174.806362
 20
295.302165
 21
295.302165
  0
LINE
  8
APS_GEOMETRY
 10
-177.956362
 11
-174.806362
 20
290.002104
 21
290.002104
  0
LINE
  8
APS_GEOMETRY
 10
-207.983914
 11
-207.983914
 20
300.542719
 21
298.376052
  0
LINE
  8
APS_GEOMETRY
 10
-205.483914
 11
-205.483914
 20
297.264941
 21
300.598274
  0
LINE
  8
APS_GEOMETRY
 10
-205.483914
 11
-210.483914
 20
300.598274
 21
300.598274
  0
LINE
  8
APS_GEOMETRY
 10
-208.039469
 11
-210.483914
 20
246.319071
 21
245.207959
  0
LINE
  8
APS_GEOMETRY
 10
-208.973823
 11
-208.973823
 20
243.763515
 21
240.707959
  0
LINE
  8
APS_GEOMETRY
 10
-210.483914
 11
-205.483914
 20
244.374626
 21
242.430181
  0
LINE
  8
APS_GEOMETRY
 10
-205.483914
 11
-205.483914
 20
242.430181
 21
241.985737
  0
LINE
  8
APS_GEOMETRY
 10
-205.483914
 11
-210.483914
 20
241.985737
 21
240.152404
  0
LINE
  8
APS_GEOMETRY
 10
-210.483914
 11
-205.483914
 20
239.652404
 21
239.652404
  0
LINE
  8
APS_GEOMETRY
 10
-205.483914
 11
-205.483914
 20
239.652404
 21
239.374626
  0
LINE
  8
APS_GEOMETRY
 10
-205.483914
 11
-210.483914
 20
239.374626
 21
237.430181
  0
LINE
  8
APS_GEOMETRY
 10
-210.483914
 11
-205.483914
 20
237.430181
 21
235.485737
  0
LINE
  8
APS_GEOMETRY
 10
-205.483914
 11
-205.483914
 20
235.485737
 21
235.207959
  0
LINE
  8
APS_GEOMETRY
 10
-205.483914
 11
-210.483914
 20
235.207959
 21
235.207959
  0
LINE
  8
APS_GEOMETRY
 10
-189.465636
 11
-180.465636
 20
270.66949
 21
270.669553
  0
LINE
  8
APS_GEOMETRY
 10
-189.465494
 11
-180.465494
 20
250.644505
 21
250.644569
  0
LINE
  8
APS_GEOMETRY
 10
-189.465353
 11
-180.465353
 20
230.619521
 21
230.619585
  0
LINE
  8
APS_GEOMETRY
 10
-189.465211
 11
-180.465211
 20
210.594537
 21
210.5946
  0
LINE
  8
APS_GEOMETRY
 10
-189.465778
 11
-180.465778
 20
290.694474
 21
290.694538
  0
LINE
  8
APS_GEOMETRY
 10
-189.465919
 11
-180.465919
 20
310.719459
 21
310.719522
  0
LINE
  8
APS_GEOMETRY
 10
-189.466061
 11
-180.466061
 20
330.744443
 21
330.744507
  0
LINE
  8
APS_GEOMETRY
 10
-194.786242
 11
-193.573111
 20
249.350652
 21
248.137521
  0
LINE
  8
APS_GEOMETRY
 10
-194.179677
 11
-190.644143
 20
248.744086
 21
252.27962
  0
LINE
  8
APS_GEOMETRY
 10
-190.644143
 11
-191.857274
 20
252.27962
 21
252.27962
  0
LINE
  8
APS_GEOMETRY
 10
-194.756567
 11
-193.543436
 20
289.54623
 21
288.333099
  0
LINE
  8
APS_GEOMETRY
 10
-194.150002
 11
-190.614468
 20
288.939665
 21
292.475199
  0
LINE
  8
APS_GEOMETRY
 10
-190.614468
 11
-191.827599
 20
292.475199
 21
292.475199
  0
LINE
  8
APS_GEOMETRY
 10
-177.956362
 11
-174.806362
 20
245.634346
 21
245.634346
  0
LINE
  8
APS_GEOMETRY
 10
-177.956362
 11
-174.806362
 20
240.334286
 21
240.334286
  0
LINE
  8
APS_GEOMETRY
 10
-158.929017
 11
-149.929017
 20
270.669384
 21
270.669447
  0
LINE
  8
APS_GEOMETRY
 10
-158.928947
 11
-134.928947
 20
260.656892
 21
260.657061
  0
LINE
  8
APS_GEOMETRY
 10
-158.928876
 11
-149.928876
 20
250.644399
 21
250.644463
  0
LINE
  8
APS_GEOMETRY
 10
-158.928805
 11
-134.928805
 20
240.631907
 21
240.632077
  0
LINE
  8
APS_GEOMETRY
 10
-158.928734
 11
-149.928734
 20
230.619415
 21
230.619479
  0
LINE
  8
APS_GEOMETRY
 10
-158.928663
 11
-134.928663
 20
220.606923
 21
220.607092
  0
LINE
  8
APS_GEOMETRY
 10
-158.928593
 11
-149.928593
 20
210.594431
 21
210.594494
  0
LINE
  8
APS_GEOMETRY
 10
-158.928522
 11
-134.928522
 20
200.581938
 21
200.582108
  0
LINE
  8
APS_GEOMETRY
 10
-158.929088
 11
-134.929088
 20
280.681876
 21
280.682046
  0
LINE
  8
APS_GEOMETRY
 10
-158.929159
 11
-149.929159
 20
290.694368
 21
290.694432
  0
LINE
  8
APS_GEOMETRY
 10
-158.92923
 11
-134.92923
 20
300.70686
 21
300.70703
  0
LINE
  8
APS_GEOMETRY
 10
-158.929301
 11
-149.929301
 20
310.719353
 21
310.719416
  0
LINE
  8
APS_GEOMETRY
 10
-158.929372
 11
-134.929372
 20
320.731845
 21
320.732014
  0
LINE
  8
APS_GEOMETRY
 10
-158.929442
 11
-149.929442
 20
330.744337
 21
330.744401
  0
LINE
  8
APS_GEOMETRY
 10
-158.929513
 11
-134.929513
 20
340.756829
 21
340.756999
  0
LINE
  8
APS_GEOMETRY
 10
-132.419744
 11
-129.269744
 20
295.302165
 21
295.302165
  0
LINE
  8
APS_GEOMETRY
 10
-132.419744
 11
-129.269744
 20
290.002104
 21
290.002104
  0
LINE
  8
APS_GEOMETRY
 10
-162.447295
 11
-162.447295
 20
300.542719
 21
298.376052
  0
LINE
  8
APS_GEOMETRY
 10
-159.947295
 11
-159.947295
 20
297.264941
 21
300.598274
  0
LINE
  8
APS_GEOMETRY
 10
-159.947295
 11
-164.947295
 20
300.598274
 21
300.598274
  0
LINE
  8
APS_GEOMETRY
 10
-162.502851
 11
-164.947295
 20
246.319071
 21
245.207959
  0
LINE
  8
APS_GEOMETRY
 10
-163.437204
 11
-163.437204
 20
243.763515
 21
240.707959
  0
LINE
  8
APS_GEOMETRY
 10
-164.947295
 11
-159.947295
 20
244.374626
 21
242.430181
  0
LINE
  8
APS_GEOMETRY
 10
-159.947295
 11
-159.947295
 20
242.430181
 21
241.985737
  0
LINE
  8
APS_GEOMETRY
 10
-159.947295
 11
-164.947295
 20
241.985737
 21
240.152404
  0
LINE
  8
APS_GEOMETRY
 10
-164.947295
 11
-159.947295
 20
239.652404
 21
239.652404
  0
LINE
  8
APS_GEOMETRY
 10
-159.947295
 11
-159.947295
 20
239.652404
 21
239.374626
  0
LINE
  8
APS_GEOMETRY
 10
-159.947295
 11
-164.947295
 20
239.374626
 21
237.430181
  0
LINE
  8
APS_GEOMETRY
 10
-164.947295
 11
-159.947295
 20
237.430181
 21
235.485737
  0
LINE
  8
APS_GEOMETRY
 10
-159.947295
 11
-159.947295
 20
235.485737
 21
235.207959
  0
LINE
  8
APS_GEOMETRY
 10
-159.947295
 11
-164.947295
 20
235.207959
 21
235.207959
  0
LINE
  8
APS_GEOMETRY
 10
-143.929017
 11
-134.929017
 20
270.66949
 21
270.669553
  0
LINE
  8
APS_GEOMETRY
 10
-143.928876
 11
-134.928876
 20
250.644505
 21
250.644569
  0
LINE
  8
APS_GEOMETRY
 10
-143.928734
 11
-134.928734
 20
230.619521
 21
230.619585
  0
LINE
  8
APS_GEOMETRY
 10
-143.928593
 11
-134.928593
 20
210.594537
 21
210.5946
  0
LINE
  8
APS_GEOMETRY
 10
-143.929159
 11
-134.929159
 20
290.694474
 21
290.694538
  0
LINE
  8
APS_GEOMETRY
 10
-143.929301
 11
-134.929301
 20
310.719459
 21
310.719522
  0
LINE
  8
APS_GEOMETRY
 10
-143.929442
 11
-134.929442
 20
330.744443
 21
330.744507
  0
LINE
  8
APS_GEOMETRY
 10
-149.249624
 11
-148.036493
 20
249.350652
 21
248.137521
  0
LINE
  8
APS_GEOMETRY
 10
-148.643058
 11
-145.107524
 20
248.744086
 21
252.27962
  0
LINE
  8
APS_GEOMETRY
 10
-145.107524
 11
-146.320655
 20
252.27962
 21
252.27962
  0
LINE
  8
APS_GEOMETRY
 10
-149.219949
 11
-148.006818
 20
289.54623
 21
288.333099
  0
LINE
  8
APS_GEOMETRY
 10
-148.613383
 11
-145.077849
 20
288.939665
 21
292.475199
  0
LINE
  8
APS_GEOMETRY
 10
-145.077849
 11
-146.29098
 20
292.475199
 21
292.475199
  0
LINE
  8
APS_GEOMETRY
 10
-132.419744
 11
-129.269744
 20
245.634346
 21
245.634346
  0
LINE
  8
APS_GEOMETRY
 10
-132.419744
 11
-129.269744
 20
240.334286
 21
240.334286
  0
LINE
  8
APS_GEOMETRY
 10
-113.392399
 11
-104.392399
 20
270.669384
 21
270.669447
  0
LINE
  8
APS_GEOMETRY
 10
-113.392328
 11
-89.392328
 20
260.656892
 21
260.657061
  0
LINE
  8
APS_GEOMETRY
 10
-113.392257
 11
-104.392257
 20
250.644399
 21
250.644463
  0
LINE
  8
APS_GEOMETRY
 10
-113.392186
 11
-89.392186
 20
240.631907
 21
240.632077
  0
LINE
  8
APS_GEOMETRY
 10
-113.392116
 11
-104.392116
 20
230.619415
 21
230.619479
  0
LINE
  8
APS_GEOMETRY
 10
-113.392045
 11
-89.392045
 20
220.606923
 21
220.607092
  0
LINE
  8
APS_GEOMETRY
 10
-113.391974
 11
-104.391974
 20
210.594431
 21
210.594494
  0
LINE
  8
APS_GEOMETRY
 10
-113.391903
 11
-89.391903
 20
200.581938
 21
200.582108
  0
LINE
  8
APS_GEOMETRY
 10
-113.39247
 11
-89.39247
 20
280.681876
 21
280.682046
  0
LINE
  8
APS_GEOMETRY
 10
-113.39254
 11
-104.39254
 20
290.694368
 21
290.694432
  0
LINE
  8
APS_GEOMETRY
 10
-113.392611
 11
-89.392611
 20
300.70686
 21
300.70703
  0
LINE
  8
APS_GEOMETRY
 10
-113.392682
 11
-104.392682
 20
310.719353
 21
310.719416
  0
LINE
  8
APS_GEOMETRY
 10
-113.392753
 11
-89.392753
 20
320.731845
 21
320.732014
  0
LINE
  8
APS_GEOMETRY
 10
-113.392824
 11
-104.392824
 20
330.744337
 21
330.744401
  0
LINE
  8
APS_GEOMETRY
 10
-113.392895
 11
-89.392895
 20
340.756829
 21
340.756999
  0
LINE
  8
APS_GEOMETRY
 10
-86.883125
 11
-83.733125
 20
295.302165
 21
295.302165
  0
LINE
  8
APS_GEOMETRY
 10
-86.883125
 11
-83.733125
 20
290.002104
 21
290.002104
  0
LINE
  8
APS_GEOMETRY
 10
-116.910677
 11
-116.910677
 20
300.542719
 21
298.376052
  0
LINE
  8
APS_GEOMETRY
 10
-114.410677
 11
-114.410677
 20
297.264941
 21
300.598274
  0
LINE
  8
APS_GEOMETRY
 10
-114.410677
 11
-119.410677
 20
300.598274
 21
300.598274
  0
LINE
  8
APS_GEOMETRY
 10
-116.966232
 11
-119.410677
 20
246.319071
 21
245.207959
  0
LINE
  8
APS_GEOMETRY
 10
-117.900585
 11
-117.900585
 20
243.763515
 21
240.707959
  0
LINE
  8
APS_GEOMETRY
 10
-119.410677
 11
-114.410677
 20
244.374626
 21
242.430181
  0
LINE
  8
APS_GEOMETRY
 10
-114.410677
 11
-114.410677
 20
242.430181
 21
241.985737
  0
LINE
  8
APS_GEOMETRY
 10
-114.410677
 11
-119.410677
 20
241.985737
 21
240.152404
  0
LINE
  8
APS_GEOMETRY
 10
-119.410677
 11
-114.410677
 20
239.652404
 21
239.652404
  0
LINE
  8
APS_GEOMETRY
 10
-114.410677
 11
-114.410677
 20
239.652404
 21
239.374626
  0
LINE
  8
APS_GEOMETRY
 10
-114.410677
 11
-119.410677
 20
239.374626
 21
237.430181
  0
LINE
  8
APS_GEOMETRY
 10
-119.410677
 11
-114.410677
 20
237.430181
 21
235.485737
  0
LINE
  8
APS_GEOMETRY
 10
-114.410677
 11
-114.410677
 20
235.485737
 21
235.207959
  0
LINE
  8
APS_GEOMETRY
 10
-114.410677
 11
-119.410677
 20
235.207959
 21
235.207959
  0
LINE
  8
APS_GEOMETRY
 10
-98.392399
 11
-89.392399
 20
270.66949
 21
270.669553
  0
LINE
  8
APS_GEOMETRY
 10
-98.392257
 11
-89.392257
 20
250.644505
 21
250.644569
  0
LINE
  8
APS_GEOMETRY
 10
-98.392116
 11
-89.392116
 20
230.619521
 21
230.619585
  0
LINE
  8
APS_GEOMETRY
 10
-98.391974
 11
-89.391974
 20
210.594537
 21
210.5946
  0
LINE
  8
APS_GEOMETRY
 10
-98.39254
 11
-89.39254
 20
290.694474
 21
290.694538
  0
LINE
  8
APS_GEOMETRY
 10
-98.392682
 11
-89.392682
 20
310.719459
 21
310.719522
  0
LINE
  8
APS_GEOMETRY
 10
-98.392824
 11
-89.392824
 20
330.744443
 21
330.744507
  0
LINE
  8
APS_GEOMETRY
 10
-103.713005
 11
-102.499874
 20
249.350652
 21
248.137521
  0
LINE
  8
APS_GEOMETRY
 10
-103.10644
 11
-99.570906
 20
248.744086
 21
252.27962
  0
LINE
  8
APS_GEOMETRY
 10
-99.570906
 11
-100.784037
 20
252.27962
 21
252.27962
  0
LINE
  8
APS_GEOMETRY
 10
-103.68333
 11
-102.470199
 20
289.54623
 21
288.333099
  0
LINE
  8
APS_GEOMETRY
 10
-103.076765
 11
-99.541231
 20
288.939665
 21
292.475199
  0
LINE
  8
APS_GEOMETRY
 10
-99.541231
 11
-100.754362
 20
292.475199
 21
292.475199
  0
LINE
  8
APS_GEOMETRY
 10
-86.883125
 11
-83.733125
 20
245.634346
 21
245.634346
  0
LINE
  8
APS_GEOMETRY
 10
-86.883125
 11
-83.733125
 20
240.334286
 21
240.334286
  0
LINE
  8
APS_GEOMETRY
 10
-67.85578
 11
-58.85578
 20
270.669384
 21
270.669447
  0
LINE
  8
APS_GEOMETRY
 10
-67.855709
 11
-43.855709
 20
260.656892
 21
260.657061
  0
LINE
  8
APS_GEOMETRY
 10
-67.855639
 11
-58.855639
 20
250.644399
 21
250.644463
  0
LINE
  8
APS_GEOMETRY
 10
-67.855568
 11
-43.855568
 20
240.631907
 21
240.632077
  0
LINE
  8
APS_GEOMETRY
 10
-67.855497
 11
-58.855497
 20
230.619415
 21
230.619479
  0
LINE
  8
APS_GEOMETRY
 10
-67.855426
 11
-43.855426
 20
220.606923
 21
220.607092
  0
LINE
  8
APS_GEOMETRY
 10
-67.855355
 11
-58.855355
 20
210.594431
 21
210.594494
  0
LINE
  8
APS_GEOMETRY
 10
-67.855285
 11
-43.855285
 20
200.581938
 21
200.582108
  0
LINE
  8
APS_GEOMETRY
 10
-67.855851
 11
-43.855851
 20
280.681876
 21
280.682046
  0
LINE
  8
APS_GEOMETRY
 10
-67.855922
 11
-58.855922
 20
290.694368
 21
290.694432
  0
LINE
  8
APS_GEOMETRY
 10
-67.855993
 11
-43.855993
 20
300.70686
 21
300.70703
  0
LINE
  8
APS_GEOMETRY
 10
-67.856064
 11
-58.856064
 20
310.719353
 21
310.719416
  0
LINE
  8
APS_GEOMETRY
 10
-67.856134
 11
-43.856134
 20
320.731845
 21
320.732014
  0
LINE
  8
APS_GEOMETRY
 10
-67.856205
 11
-58.856205
 20
330.744337
 21
330.744401
  0
LINE
  8
APS_GEOMETRY
 10
-67.856276
 11
-43.856276
 20
340.756829
 21
340.756999
  0
LINE
  8
APS_GEOMETRY
 10
-41.346507
 11
-38.196507
 20
295.302165
 21
295.302165
  0
LINE
  8
APS_GEOMETRY
 10
-41.346507
 11
-38.196507
 20
290.002104
 21
290.002104
  0
LINE
  8
APS_GEOMETRY
 10
-71.374058
 11
-71.374058
 20
300.542719
 21
298.376052
  0
LINE
  8
APS_GEOMETRY
 10
-68.874058
 11
-68.874058
 20
297.264941
 21
300.598274
  0
LINE
  8
APS_GEOMETRY
 10
-68.874058
 11
-73.874058
 20
300.598274
 21
300.598274
  0
LINE
  8
APS_GEOMETRY
 10
-71.429614
 11
-73.874058
 20
246.319071
 21
245.207959
  0
LINE
  8
APS_GEOMETRY
 10
-72.363967
 11
-72.363967
 20
243.763515
 21
240.707959
  0
LINE
  8
APS_GEOMETRY
 10
-73.874058
 11
-68.874058
 20
244.374626
 21
242.430181
  0
LINE
  8
APS_GEOMETRY
 10
-68.874058
 11
-68.874058
 20
242.430181
 21
241.985737
  0
LINE
  8
APS_GEOMETRY
 10
-68.874058
 11
-73.874058
 20
241.985737
 21
240.152404
  0
LINE
  8
APS_GEOMETRY
 10
-73.874058
 11
-68.874058
 20
239.652404
 21
239.652404
  0
LINE
  8
APS_GEOMETRY
 10
-68.874058
 11
-68.874058
 20
239.652404
 21
239.374626
  0
LINE
  8
APS_GEOMETRY
 10
-68.874058
 11
-73.874058
 20
239.374626
 21
237.430181
  0
LINE
  8
APS_GEOMETRY
 10
-73.874058
 11
-68.874058
 20
237.430181
 21
235.485737
  0
LINE
  8
APS_GEOMETRY
 10
-68.874058
 11
-68.874058
 20
235.485737
 21
235.207959
  0
LINE
  8
APS_GEOMETRY
 10
-68.874058
 11
-73.874058
 20
235.207959
 21
235.207959
  0
LINE
  8
APS_GEOMETRY
 10
-52.85578
 11
-43.85578
 20
270.66949
 21
270.669553
  0
LINE
  8
APS_GEOMETRY
 10
-52.855639
 11
-43.855639
 20
250.644505
 21
250.644569
  0
LINE
  8
APS_GEOMETRY
 10
-52.855497
 11
-43.855497
 20
230.619521
 21
230.619585
  0
LINE
  8
APS_GEOMETRY
 10
-52.855355
 11
-43.855355
 20
210.594537
 21
210.5946
  0
LINE
  8
APS_GEOMETRY
 10
-52.855922
 11
-43.855922
 20
290.694474
 21
290.694538
  0
LINE
  8
APS_GEOMETRY
 10
-52.856064
 11
-43.856064
 20
310.719459
 21
310.719522
  0
LINE
  8
APS_GEOMETRY
 10
-52.856205
 11
-43.856205
 20
330.744443
 21
330.744507
  0
LINE
  8
APS_GEOMETRY
 10
-58.176387
 11
-56.963256
 20
249.350652
 21
248.137521
  0
LINE
  8
APS_GEOMETRY
 10
-57.569821
 11
-54.034287
 20
248.744086
 21
252.27962
  0
LINE
  8
APS_GEOMETRY
 10
-54.034287
 11
-55.247418
 20
252.27962
 21
252.27962
  0
LINE
  8
APS_GEOMETRY
 10
-58.146712
 11
-56.933581
 20
289.54623
 21
288.333099
  0
LINE
  8
APS_GEOMETRY
 10
-57.540146
 11
-54.004612
 20
288.939665
 21
292.475199
  0
LINE
  8
APS_GEOMETRY
 10
-54.004612
 11
-55.217743
 20
292.475199
 21
292.475199
  0
LINE
  8
APS_GEOMETRY
 10
-41.346507
 11
-38.196507
 20
245.634346
 21
245.634346
  0
LINE
  8
APS_GEOMETRY
 10
-41.346507
 11
-38.196507
 20
240.334286
 21
240.334286
  0
LINE
  8
APS_GEOMETRY
 10
-22.319162
 11
-13.319162
 20
270.669384
 21
270.669447
  0
LINE
  8
APS_GEOMETRY
 10
-22.319091
 11
1.680909
 20
260.656892
 21
260.657061
  0
LINE
  8
APS_GEOMETRY
 10
-22.31902
 11
-13.31902
 20
250.644399
 21
250.644463
  0
LINE
  8
APS_GEOMETRY
 10
-22.318949
 11
1.681051
 20
240.631907
 21
240.632077
  0
LINE
  8
APS_GEOMETRY
 10
-22.318878
 11
-13.318878
 20
230.619415
 21
230.619479
  0
LINE
  8
APS_GEOMETRY
 10
-22.318808
 11
1.681192
 20
220.606923
 21
220.607092
  0
LINE
  8
APS_GEOMETRY
 10
-22.318737
 11
-13.318737
 20
210.594431
 21
210.594494
  0
LINE
  8
APS_GEOMETRY
 10
-22.318666
 11
1.681334
 20
200.581938
 21
200.582108
  0
LINE
  8
APS_GEOMETRY
 10
-22.319233
 11
1.680767
 20
280.681876
 21
280.682046
  0
LINE
  8
APS_GEOMETRY
 10
-22.319303
 11
-13.319303
 20
290.694368
 21
290.694432
  0
LINE
  8
APS_GEOMETRY
 10
-22.319374
 11
1.680626
 20
300.70686
 21
300.70703
  0
LINE
  8
APS_GEOMETRY
 10
-22.319445
 11
-13.319445
 20
310.719353
 21
310.719416
  0
LINE
  8
APS_GEOMETRY
 10
-22.319516
 11
1.680484
 20
320.731845
 21
320.732014
  0
LINE
  8
APS_GEOMETRY
 10
-22.319587
 11
-13.319587
 20
330.744337
 21
330.744401
  0
LINE
  8
APS_GEOMETRY
 10
-22.319657
 11
1.680343
 20
340.756829
 21
340.756999
  0
LINE
  8
APS_GEOMETRY
 10
4.190112
 11
7.340112
 20
295.302165
 21
295.302165
  0
LINE
  8
APS_GEOMETRY
 10
4.190112
 11
7.340112
 20
290.002104
 21
290.002104
  0
LINE
  8
APS_GEOMETRY
 10
-25.837439
 11
-25.837439
 20
300.542719
 21
298.376052
  0
LINE
  8
APS_GEOMETRY
 10
-23.337439
 11
-23.337439
 20
297.264941
 21
300.598274
  0
LINE
  8
APS_GEOMETRY
 10
-23.337439
 11
-28.33744
 20
300.598274
 21
300.598274
  0
LINE
  8
APS_GEOMETRY
 10
-25.892995
 11
-28.33744
 20
246.319071
 21
245.207959
  0
LINE
  8
APS_GEOMETRY
 10
-26.827348
 11
-26.827348
 20
243.763515
 21
240.707959
  0
LINE
  8
APS_GEOMETRY
 10
-28.33744
 11
-23.337439
 20
244.374626
 21
242.430181
  0
LINE
  8
APS_GEOMETRY
 10
-23.337439
 11
-23.337439
 20
242.430181
 21
241.985737
  0
LINE
  8
APS_GEOMETRY
 10
-23.337439
 11
-28.33744
 20
241.985737
 21
240.152404
  0
LINE
  8
APS_GEOMETRY
 10
-28.33744
 11
-23.337439
 20
239.652404
 21
239.652404
  0
LINE
  8
APS_GEOMETRY
 10
-23.337439
 11
-23.337439
 20
239.652404
 21
239.374626
  0
LINE
  8
APS_GEOMETRY
 10
-23.337439
 11
-28.33744
 20
239.374626
 21
237.430181
  0
LINE
  8
APS_GEOMETRY
 10
-28.33744
 11
-23.337439
 20
237.430181
 21
235.485737
  0
LINE
  8
APS_GEOMETRY
 10
-23.337439
 11
-23.337439
 20
235.485737
 21
235.207959
  0
LINE
  8
APS_GEOMETRY
 10
-23.337439
 11
-28.33744
 20
235.207959
 21
235.207959
  0
LINE
  8
APS_GEOMETRY
 10
-7.319162
 11
1.680838
 20
270.66949
 21
270.669553
  0
LINE
  8
APS_GEOMETRY
 10
-7.31902
 11
1.68098
 20
250.644505
 21
250.644569
  0
LINE
  8
APS_GEOMETRY
 10
-7.318878
 11
1.681122
 20
230.619521
 21
230.619585
  0
LINE
  8
APS_GEOMETRY
 10
-7.318737
 11
1.681263
 20
210.594537
 21
210.5946
  0
LINE
  8
APS_GEOMETRY
 10
-7.319303
 11
1.680697
 20
290.694474
 21
290.694538
  0
LINE
  8
APS_GEOMETRY
 10
-7.319445
 11
1.680555
 20
310.719459
 21
310.719522
  0
LINE
  8
APS_GEOMETRY
 10
-7.319587
 11
1.680413
 20
330.744443
 21
330.744507
  0
LINE
  8
APS_GEOMETRY
 10
-12.639768
 11
-11.426637
 20
249.350652
 21
248.137521
  0
LINE
  8
APS_GEOMETRY
 10
-12.033203
 11
-8.497669
 20
248.744086
 21
252.27962
  0
LINE
  8
APS_GEOMETRY
 10
-8.497669
 11
-9.7108
 20
252.27962
 21
252.27962
  0
LINE
  8
APS_GEOMETRY
 10
-12.610093
 11
-11.396962
 20
289.54623
 21
288.333099
  0
LINE
  8
APS_GEOMETRY
 10
-12.003528
 11
-8.467993
 20
288.939665
 21
292.475199
  0
LINE
  8
APS_GEOMETRY
 10
-8.467993
 11
-9.681125
 20
292.475199
 21
292.475199
  0
LINE
  8
APS_GEOMETRY
 10
4.190112
 11
7.340112
 20
245.634346
 21
245.634346
  0
LINE
  8
APS_GEOMETRY
 10
4.190112
 11
7.340112
 20
240.334286
 21
240.334286
  0
LINE
  8
APS_GEOMETRY
 10
246.425655
 11
241.425678
 20
265.227313
 21
265.24241
  0
LINE
  8
APS_GEOMETRY
 10
241.425678
 11
241.455872
 20
265.24241
 21
275.242365
  0
LINE
  8
APS_GEOMETRY
 10
241.455872
 11
246.455849
 20
275.242365
 21
275.227268
  0
LINE
  8
APS_GEOMETRY
 10
246.455849
 11
246.425655
 20
275.227268
 21
265.227313
  0
LINE
  8
APS_GEOMETRY
 10
101.426316
 11
96.426339
 20
265.665128
 21
265.680225
  0
LINE
  8
APS_GEOMETRY
 10
96.426339
 11
96.456533
 20
265.680225
 21
275.68018
  0
LINE
  8
APS_GEOMETRY
 10
96.456533
 11
101.45651
 20
275.68018
 21
275.665083
  0
LINE
  8
APS_GEOMETRY
 10
101.45651
 11
101.426316
 20
275.665083
 21
265.665128
  0
LINE
  8
APS_GEOMETRY
 10
151.179588
 11
152.389443
 20
184.217245
 21
182.181775
  0
LINE
  8
APS_GEOMETRY
 10
152.389443
 11
153.357349
 20
182.181775
 21
180.505117
  0
LINE
  8
APS_GEOMETRY
 10
153.357349
 11
151.291906
 20
180.505117
 21
180.477416
  0
LINE
  8
APS_GEOMETRY
 10
151.291906
 11
149.219646
 20
180.477416
 21
180.505117
  0
LINE
  8
APS_GEOMETRY
 10
149.219646
 11
151.179588
 20
180.505117
 21
184.217245
  0
ENDSEC
  0
EOF
