  0
SECTION
  2
ENTITIES
  0
CIRCLE
  8
APS_GEOMETRY
 10
475.172105
 20
337.562832
 40
2.0
  0
CIRCLE
  8
APS_GEOMETRY
 10
467.040376
 20
345.694505
 40
1.6
  0
CIRCLE
  8
APS_GEOMETRY
 10
475.172105
 20
337.562832
 40
15.499999
  0
CIRCLE
  8
APS_GEOMETRY
 10
467.040432
 20
329.431104
 40
1.6
  0
CIRCLE
  8
APS_GEOMETRY
 10
483.303834
 20
329.43116
 40
1.6
  0
CIRCLE
  8
APS_GEOMETRY
 10
483.303778
 20
345.694561
 40
1.6
  0
CIRCLE
  8
APS_GEOMETRY
 10
386.281791
 20
410.095432
 40
1.2
  0
CIRCLE
  8
APS_GEOMETRY
 10
399.242165
 20
410.095432
 40
1.2
  0
CIRCLE
  8
APS_GEOMETRY
 10
437.739348
 20
410.577124
 40
1.2
  0
CIRCLE
  8
APS_GEOMETRY
 10
450.699722
 20
410.577124
 40
1.2
  0
CIRCLE
  8
APS_GEOMETRY
 10
384.630223
 20
395.640168
 40
1.6
  0
CIRCLE
  8
APS_GEOMETRY
 10
384.630279
 20
379.376767
 40
1.6
  0
CIRCLE
  8
APS_GEOMETRY
 10
400.893681
 20
379.376823
 40
1.6
  0
CIRCLE
  8
APS_GEOMETRY
 10
400.893624
 20
395.640224
 40
1.6
  0
CIRCLE
  8
APS_GEOMETRY
 10
436.08778
 20
396.12186
 40
1.6
  0
CIRCLE
  8
APS_GEOMETRY
 10
436.087837
 20
379.858459
 40
1.6
  0
CIRCLE
  8
APS_GEOMETRY
 10
452.351238
 20
379.858515
 40
1.6
  0
CIRCLE
  8
APS_GEOMETRY
 10
452.351182
 20
396.121917
 40
1.6
  0
ARC
  8
APS_GEOMETRY
 10
400.340562
 20
313.342448
 40
5.5
 50
99.535513
 51
145.299577
  0
LINE
  8
APS_GEOMETRY
 10
395.818793
 11
395.818792
 20
316.473519
 21
315.842448
  0
LINE
  8
APS_GEOMETRY
 10
395.818792
 11
397.018792
 20
315.842448
 21
315.842448
  0
LINE
  8
APS_GEOMETRY
 10
397.018792
 11
397.018792
 20
315.842448
 21
316.342448
  0
LINE
  8
APS_GEOMETRY
 10
397.018792
 11
402.418792
 20
316.342448
 21
316.342448
  0
LINE
  8
APS_GEOMETRY
 10
402.418792
 11
402.429438
 20
316.342448
 21
317.892448
  0
LINE
  8
APS_GEOMETRY
 10
402.429438
 11
404.229438
 20
317.892448
 21
317.892448
  0
LINE
  8
APS_GEOMETRY
 10
404.229438
 11
404.229438
 20
317.892448
 21
320.792448
  0
LINE
  8
APS_GEOMETRY
 10
404.229438
 11
402.429438
 20
320.792448
 21
320.792448
  0
LINE
  8
APS_GEOMETRY
 10
402.429438
 11
402.429438
 20
320.792448
 21
322.342448
  0
LINE
  8
APS_GEOMETRY
 10
402.429438
 11
399.429438
 20
322.342448
 21
322.342448
  0
LINE
  8
APS_GEOMETRY
 10
399.429438
 11
399.429438
 20
322.342448
 21
318.766455
  0
ARC
  8
APS_GEOMETRY
 10
410.993249
 20
318.249866
 40
5.5
 50
99.535513
 51
145.299577
  0
LINE
  8
APS_GEOMETRY
 10
406.47148
 11
406.47148
 20
321.380937
 21
320.749866
  0
LINE
  8
APS_GEOMETRY
 10
406.47148
 11
407.67148
 20
320.749866
 21
320.749866
  0
LINE
  8
APS_GEOMETRY
 10
407.67148
 11
407.67148
 20
320.749866
 21
321.249866
  0
LINE
  8
APS_GEOMETRY
 10
407.67148
 11
413.07148
 20
321.249866
 21
321.249866
  0
LINE
  8
APS_GEOMETRY
 10
413.07148
 11
413.082125
 20
321.249866
 21
322.799866
  0
LINE
  8
APS_GEOMETRY
 10
413.082125
 11
414.882125
 20
322.799866
 21
322.799866
  0
LINE
  8
APS_GEOMETRY
 10
414.882125
 11
414.882125
 20
322.799866
 21
325.699866
  0
LINE
  8
APS_GEOMETRY
 10
414.882125
 11
413.082125
 20
325.699866
 21
325.699866
  0
LINE
  8
APS_GEOMETRY
 10
413.082125
 11
413.082125
 20
325.699866
 21
327.249866
  0
LINE
  8
APS_GEOMETRY
 10
413.082125
 11
410.082125
 20
327.249866
 21
327.249866
  0
LINE
  8
APS_GEOMETRY
 10
410.082125
 11
410.082125
 20
327.249866
 21
323.673873
  0
ARC
  8
APS_GEOMETRY
 10
417.217292
 20
313.103061
 40
5.5
 50
99.535513
 51
145.299577
  0
LINE
  8
APS_GEOMETRY
 10
412.695523
 11
412.695523
 20
316.234132
 21
315.603061
  0
LINE
  8
APS_GEOMETRY
 10
412.695523
 11
413.895523
 20
315.603061
 21
315.603061
  0
LINE
  8
APS_GEOMETRY
 10
413.895523
 11
413.895523
 20
315.603061
 21
316.103061
  0
LINE
  8
APS_GEOMETRY
 10
413.895523
 11
419.295523
 20
316.103061
 21
316.103061
  0
LINE
  8
APS_GEOMETRY
 10
419.295523
 11
419.306168
 20
316.103061
 21
317.653061
  0
LINE
  8
APS_GEOMETRY
 10
419.306168
 11
421.106168
 20
317.653061
 21
317.653061
  0
LINE
  8
APS_GEOMETRY
 10
421.106168
 11
421.106168
 20
317.653061
 21
320.553061
  0
LINE
  8
APS_GEOMETRY
 10
421.106168
 11
419.306168
 20
320.553061
 21
320.553061
  0
LINE
  8
APS_GEOMETRY
 10
419.306168
 11
419.306168
 20
320.553061
 21
322.103061
  0
LINE
  8
APS_GEOMETRY
 10
419.306168
 11
416.306168
 20
322.103061
 21
322.103061
  0
LINE
  8
APS_GEOMETRY
 10
416.306168
 11
416.306168
 20
322.103061
 21
318.527068
  0
ARC
  8
APS_GEOMETRY
 10
426.074583
 20
319.56649
 40
5.5
 50
99.535513
 51
145.299577
  0
LINE
  8
APS_GEOMETRY
 10
421.552814
 11
421.552814
 20
322.697561
 21
322.06649
  0
LINE
  8
APS_GEOMETRY
 10
421.552814
 11
422.752814
 20
322.06649
 21
322.06649
  0
LINE
  8
APS_GEOMETRY
 10
422.752814
 11
422.752814
 20
322.06649
 21
322.56649
  0
LINE
  8
APS_GEOMETRY
 10
422.752814
 11
428.152814
 20
322.56649
 21
322.56649
  0
LINE
  8
APS_GEOMETRY
 10
428.152814
 11
428.163459
 20
322.56649
 21
324.11649
  0
LINE
  8
APS_GEOMETRY
 10
428.163459
 11
429.963459
 20
324.11649
 21
324.11649
  0
LINE
  8
APS_GEOMETRY
 10
429.963459
 11
429.963459
 20
324.11649
 21
327.01649
  0
LINE
  8
APS_GEOMETRY
 10
429.963459
 11
428.163459
 20
327.01649
 21
327.01649
  0
LINE
  8
APS_GEOMETRY
 10
428.163459
 11
428.163459
 20
327.01649
 21
328.56649
  0
LINE
  8
APS_GEOMETRY
 10
428.163459
 11
425.163459
 20
328.56649
 21
328.56649
  0
LINE
  8
APS_GEOMETRY
 10
425.163459
 11
425.163459
 20
328.56649
 21
324.990497
  0
ARC
  8
APS_GEOMETRY
 10
430.442372
 20
338.730559
 40
2.0
 50
180.0
 51
270.0
  0
LINE
  8
APS_GEOMETRY
 10
430.442372
 11
439.142372
 20
336.730559
 21
336.730559
  0
LINE
  8
APS_GEOMETRY
 10
439.142372
 11
439.142372
 20
336.730559
 21
330.334301
  0
LINE
  8
APS_GEOMETRY
 10
439.142372
 11
437.292372
 20
330.334301
 21
330.334301
  0
LINE
  8
APS_GEOMETRY
 10
437.292372
 11
437.292372
 20
330.334301
 21
333.834299
  0
LINE
  8
APS_GEOMETRY
 10
437.292372
 11
424.442372
 20
333.834299
 21
333.834299
  0
LINE
  8
APS_GEOMETRY
 10
424.442372
 11
424.442372
 20
333.834299
 21
340.484299
  0
LINE
  8
APS_GEOMETRY
 10
424.442372
 11
426.442372
 20
340.484299
 21
340.484299
  0
LINE
  8
APS_GEOMETRY
 10
426.442372
 11
426.442372
 20
340.484299
 21
342.184299
  0
LINE
  8
APS_GEOMETRY
 10
426.442372
 11
424.442372
 20
342.184299
 21
342.184299
  0
LINE
  8
APS_GEOMETRY
 10
424.442372
 11
424.442372
 20
342.184299
 21
348.834299
  0
LINE
  8
APS_GEOMETRY
 10
424.442372
 11
437.292372
 20
348.834299
 21
348.834299
  0
LINE
  8
APS_GEOMETRY
 10
437.292372
 11
437.292372
 20
348.834299
 21
352.334297
  0
LINE
  8
APS_GEOMETRY
 10
437.292372
 11
439.142372
 20
352.334297
 21
352.334297
  0
LINE
  8
APS_GEOMETRY
 10
439.142372
 11
439.142372
 20
352.334297
 21
345.93804
  0
LINE
  8
APS_GEOMETRY
 10
439.142372
 11
430.442372
 20
345.93804
 21
345.93804
  0
ARC
  8
APS_GEOMETRY
 10
430.442372
 20
343.93804
 40
2.0
 50
90.0
 51
180.0
  0
LINE
  8
APS_GEOMETRY
 10
428.442372
 11
428.442372
 20
343.93804
 21
338.730559
  0
ARC
  8
APS_GEOMETRY
 10
376.054809
 20
409.680941
 40
2.5
 50
90.0
 51
270.0
  0
LINE
  8
APS_GEOMETRY
 10
376.054809
 11
379.361972
 20
407.180941
 21
407.180941
  0
ARC
  8
APS_GEOMETRY
 10
379.361972
 20
409.680941
 40
2.5
 50
270.0
 51
90.0
  0
LINE
  8
APS_GEOMETRY
 10
379.361972
 11
376.054809
 20
412.180941
 21
412.180941
  0
ARC
  8
APS_GEOMETRY
 10
382.261978
 20
371.517606
 40
2.0
 50
180.0
 51
270.0
  0
LINE
  8
APS_GEOMETRY
 10
382.261978
 11
384.261978
 20
369.517606
 21
369.517606
  0
LINE
  8
APS_GEOMETRY
 10
384.261978
 11
384.261978
 20
369.517606
 21
365.517606
  0
LINE
  8
APS_GEOMETRY
 10
384.261978
 11
382.261978
 20
365.517606
 21
365.517606
  0
ARC
  8
APS_GEOMETRY
 10
382.261978
 20
363.517606
 40
2.0
 50
90.0
 51
270.0
  0
LINE
  8
APS_GEOMETRY
 10
382.261978
 11
403.261978
 20
361.517606
 21
361.517606
  0
ARC
  8
APS_GEOMETRY
 10
403.261978
 20
363.517606
 40
2.0
 50
270.0
 51
90.0
  0
LINE
  8
APS_GEOMETRY
 10
403.261978
 11
401.261978
 20
365.517606
 21
365.517606
  0
LINE
  8
APS_GEOMETRY
 10
401.261978
 11
401.261978
 20
365.517606
 21
369.517606
  0
LINE
  8
APS_GEOMETRY
 10
401.261978
 11
403.261978
 20
369.517606
 21
369.517606
  0
ARC
  8
APS_GEOMETRY
 10
403.261978
 20
371.517606
 40
2.0
 50
270.0
 51
0.0
  0
LINE
  8
APS_GEOMETRY
 10
405.261978
 11
405.261978
 20
371.517606
 21
378.34338
  0
ARC
  8
APS_GEOMETRY
 10
392.761952
 20
387.508496
 40
15.5
 50
323.750842
 51
19.369292
  0
LINE
  8
APS_GEOMETRY
 10
407.38466
 11
413.636113
 20
392.649157
 21
407.982001
  0
ARC
  8
APS_GEOMETRY
 10
409.469147
 20
409.680941
 40
4.5
 50
337.818475
 51
90.000003
  0
LINE
  8
APS_GEOMETRY
 10
409.469147
 11
376.054809
 20
414.180941
 21
414.180941
  0
ARC
  8
APS_GEOMETRY
 10
376.054809
 20
409.680941
 40
4.5
 50
90.0
 51
202.181532
  0
LINE
  8
APS_GEOMETRY
 10
371.887844
 11
378.139269
 20
407.982
 21
392.649227
  0
ARC
  8
APS_GEOMETRY
 10
392.761953
 20
387.508495
 40
15.5
 50
160.630432
 51
216.249486
  0
LINE
  8
APS_GEOMETRY
 10
380.261979
 11
380.261978
 20
378.343308
 21
371.517606
  0
ARC
  8
APS_GEOMETRY
 10
409.469148
 20
409.680941
 40
2.5
 50
0.0
 51
90.0
  0
LINE
  8
APS_GEOMETRY
 10
409.469148
 11
406.161985
 20
412.180941
 21
412.180941
  0
ARC
  8
APS_GEOMETRY
 10
406.161985
 20
409.680941
 40
2.5
 50
90.0
 51
270.0
  0
LINE
  8
APS_GEOMETRY
 10
406.161985
 11
409.469148
 20
407.180941
 21
407.180941
  0
ARC
  8
APS_GEOMETRY
 10
409.469148
 20
409.680941
 40
2.5
 50
270.0
 51
0.0
  0
ARC
  8
APS_GEOMETRY
 10
427.512366
 20
410.162633
 40
2.5
 50
90.0
 51
270.0
  0
LINE
  8
APS_GEOMETRY
 10
427.512366
 11
430.819529
 20
407.662633
 21
407.662633
  0
ARC
  8
APS_GEOMETRY
 10
430.819529
 20
410.162633
 40
2.5
 50
270.0
 51
90.0
  0
LINE
  8
APS_GEOMETRY
 10
430.819529
 11
427.512366
 20
412.662633
 21
412.662633
  0
ARC
  8
APS_GEOMETRY
 10
433.719535
 20
371.999298
 40
2.0
 50
180.0
 51
270.0
  0
LINE
  8
APS_GEOMETRY
 10
433.719535
 11
435.719535
 20
369.999298
 21
369.999298
  0
LINE
  8
APS_GEOMETRY
 10
435.719535
 11
435.719535
 20
369.999298
 21
365.999298
  0
LINE
  8
APS_GEOMETRY
 10
435.719535
 11
433.719535
 20
365.999298
 21
365.999298
  0
ARC
  8
APS_GEOMETRY
 10
433.719535
 20
363.999298
 40
2.0
 50
90.0
 51
270.0
  0
LINE
  8
APS_GEOMETRY
 10
433.719535
 11
454.719535
 20
361.999298
 21
361.999298
  0
ARC
  8
APS_GEOMETRY
 10
454.719535
 20
363.999298
 40
2.0
 50
270.0
 51
90.0
  0
LINE
  8
APS_GEOMETRY
 10
454.719535
 11
452.719535
 20
365.999298
 21
365.999298
  0
LINE
  8
APS_GEOMETRY
 10
452.719535
 11
452.719535
 20
365.999298
 21
369.999298
  0
LINE
  8
APS_GEOMETRY
 10
452.719535
 11
454.719535
 20
369.999298
 21
369.999298
  0
ARC
  8
APS_GEOMETRY
 10
454.719535
 20
371.999298
 40
2.0
 50
270.0
 51
0.0
  0
LINE
  8
APS_GEOMETRY
 10
456.719535
 11
456.719535
 20
371.999298
 21
378.825072
  0
ARC
  8
APS_GEOMETRY
 10
444.219509
 20
387.990188
 40
15.5
 50
323.750842
 51
19.369294
  0
LINE
  8
APS_GEOMETRY
 10
458.842217
 11
465.09367
 20
393.13085
 21
408.463693
  0
ARC
  8
APS_GEOMETRY
 10
460.926704
 20
410.162633
 40
4.5
 50
337.818475
 51
89.99999
  0
LINE
  8
APS_GEOMETRY
 10
460.926705
 11
427.512366
 20
414.662633
 21
414.662633
  0
ARC
  8
APS_GEOMETRY
 10
427.512366
 20
410.162633
 40
4.5
 50
90.0
 51
202.181532
  0
LINE
  8
APS_GEOMETRY
 10
423.345401
 11
429.596826
 20
408.463692
 21
393.130919
  0
ARC
  8
APS_GEOMETRY
 10
444.21951
 20
387.990188
 40
15.5
 50
160.630435
 51
216.249483
  0
LINE
  8
APS_GEOMETRY
 10
431.719536
 11
431.719535
 20
378.825001
 21
371.999298
  0
ARC
  8
APS_GEOMETRY
 10
460.926705
 20
410.162633
 40
2.5
 50
0.0
 51
90.0
  0
LINE
  8
APS_GEOMETRY
 10
460.926705
 11
457.619542
 20
412.662633
 21
412.662633
  0
ARC
  8
APS_GEOMETRY
 10
457.619542
 20
410.162633
 40
2.5
 50
90.0
 51
270.0
  0
LINE
  8
APS_GEOMETRY
 10
457.619542
 11
460.926705
 20
407.662633
 21
407.662633
  0
ARC
  8
APS_GEOMETRY
 10
460.926705
 20
410.162633
 40
2.5
 50
270.0
 51
0.0
  0
ARC
  8
APS_GEOMETRY
 10
444.219509
 20
387.990188
 40
4.91892
 50
11.1888
 51
78.8112
  0
LINE
  8
APS_GEOMETRY
 10
445.173989
 11
445.173989
 20
392.815615
 21
395.944188
  0
LINE
  8
APS_GEOMETRY
 10
445.173989
 11
443.265029
 20
395.944188
 21
395.944188
  0
LINE
  8
APS_GEOMETRY
 10
443.265029
 11
443.265029
 20
395.944188
 21
392.815614
  0
ARC
  8
APS_GEOMETRY
 10
444.219509
 20
387.990187
 40
4.91892
 50
101.188799
 51
168.811186
  0
LINE
  8
APS_GEOMETRY
 10
439.394083
 11
436.265509
 20
388.944669
 21
388.944668
  0
LINE
  8
APS_GEOMETRY
 10
436.265509
 11
436.265509
 20
388.944668
 21
387.035708
  0
LINE
  8
APS_GEOMETRY
 10
436.265509
 11
439.394082
 20
387.035708
 21
387.035708
  0
ARC
  8
APS_GEOMETRY
 10
444.219509
 20
387.990188
 40
4.91892
 50
191.188801
 51
258.81121
  0
LINE
  8
APS_GEOMETRY
 10
443.265029
 11
443.265029
 20
383.164761
 21
380.036188
  0
LINE
  8
APS_GEOMETRY
 10
443.265029
 11
445.173989
 20
380.036188
 21
380.036188
  0
LINE
  8
APS_GEOMETRY
 10
445.173989
 11
445.173989
 20
380.036188
 21
383.164761
  0
ARC
  8
APS_GEOMETRY
 10
444.219509
 20
387.990188
 40
4.91892
 50
281.188801
 51
348.81121
  0
LINE
  8
APS_GEOMETRY
 10
449.044936
 11
452.173509
 20
387.035708
 21
387.035708
  0
LINE
  8
APS_GEOMETRY
 10
452.173509
 11
452.173509
 20
387.035708
 21
388.944668
  0
LINE
  8
APS_GEOMETRY
 10
452.173509
 11
449.044936
 20
388.944668
 21
388.944668
  0
ARC
  8
APS_GEOMETRY
 10
392.761952
 20
387.508495
 40
4.21762
 50
12.66898
 51
77.33102
  0
LINE
  8
APS_GEOMETRY
 10
393.686952
 11
393.686952
 20
391.62343
 21
398.533493
  0
LINE
  8
APS_GEOMETRY
 10
393.686952
 11
391.836952
 20
398.533493
 21
398.533493
  0
LINE
  8
APS_GEOMETRY
 10
391.836952
 11
391.836952
 20
398.533493
 21
391.623431
  0
ARC
  8
APS_GEOMETRY
 10
392.761952
 20
387.508496
 40
4.21762
 50
102.668978
 51
167.331023
  0
LINE
  8
APS_GEOMETRY
 10
388.647016
 11
381.736954
 20
388.433495
 21
388.433495
  0
LINE
  8
APS_GEOMETRY
 10
381.736954
 11
381.736954
 20
388.433495
 21
386.583495
  0
LINE
  8
APS_GEOMETRY
 10
381.736954
 11
388.647017
 20
386.583495
 21
386.583495
  0
ARC
  8
APS_GEOMETRY
 10
392.761952
 20
387.508495
 40
4.21762
 50
192.668981
 51
257.331023
  0
LINE
  8
APS_GEOMETRY
 10
391.836953
 11
391.836952
 20
383.39356
 21
376.483498
  0
LINE
  8
APS_GEOMETRY
 10
391.836952
 11
393.686952
 20
376.483498
 21
376.483498
  0
LINE
  8
APS_GEOMETRY
 10
393.686952
 11
393.686952
 20
376.483498
 21
383.39356
  0
ARC
  8
APS_GEOMETRY
 10
392.761952
 20
387.508495
 40
4.21762
 50
282.668981
 51
347.331023
  0
LINE
  8
APS_GEOMETRY
 10
396.876887
 11
403.78695
 20
386.583496
 21
386.583495
  0
LINE
  8
APS_GEOMETRY
 10
403.78695
 11
403.78695
 20
386.583495
 21
388.433495
  0
LINE
  8
APS_GEOMETRY
 10
403.78695
 11
396.876887
 20
388.433495
 21
388.433495
  0
LINE
  8
APS_GEOMETRY
 10
388.108665
 11
390.108665
 20
341.850429
 21
341.850429
  0
LINE
  8
APS_GEOMETRY
 10
390.108665
 11
390.108665
 20
341.850429
 21
340.096688
  0
ARC
  8
APS_GEOMETRY
 10
392.108665
 20
340.096688
 40
2.0
 50
180.0
 51
270.0
  0
LINE
  8
APS_GEOMETRY
 10
392.108665
 11
400.808665
 20
338.096688
 21
338.096688
  0
LINE
  8
APS_GEOMETRY
 10
400.808665
 11
400.808665
 20
338.096688
 21
331.700431
  0
LINE
  8
APS_GEOMETRY
 10
400.808665
 11
398.958665
 20
331.700431
 21
331.700431
  0
LINE
  8
APS_GEOMETRY
 10
398.958665
 11
398.958665
 20
331.700431
 21
335.200429
  0
LINE
  8
APS_GEOMETRY
 10
398.958665
 11
386.108665
 20
335.200429
 21
335.200429
  0
LINE
  8
APS_GEOMETRY
 10
386.108665
 11
386.108665
 20
335.200429
 21
350.200429
  0
LINE
  8
APS_GEOMETRY
 10
386.108665
 11
398.958665
 20
350.200429
 21
350.200429
  0
LINE
  8
APS_GEOMETRY
 10
398.958665
 11
398.958665
 20
350.200429
 21
353.700427
  0
LINE
  8
APS_GEOMETRY
 10
398.958665
 11
400.808665
 20
353.700427
 21
353.700427
  0
LINE
  8
APS_GEOMETRY
 10
400.808665
 11
400.808665
 20
353.700427
 21
347.30417
  0
LINE
  8
APS_GEOMETRY
 10
400.808665
 11
392.108665
 20
347.30417
 21
347.30417
  0
ARC
  8
APS_GEOMETRY
 10
392.108665
 20
345.30417
 40
2.0
 50
90.0
 51
180.0
  0
LINE
  8
APS_GEOMETRY
 10
390.108665
 11
390.108665
 20
345.30417
 21
343.550429
  0
LINE
  8
APS_GEOMETRY
 10
390.108665
 11
388.108665
 20
343.550429
 21
343.550429
  0
LINE
  8
APS_GEOMETRY
 10
388.108665
 11
388.108665
 20
343.550429
 21
341.800429
  0
ARC
  8
APS_GEOMETRY
 10
481.178959
 20
412.679056
 40
1.050584
 50
330.0
 51
30.0
  0
LINE
  8
APS_GEOMETRY
 10
482.088791
 11
480.815026
 20
413.204348
 21
415.410573
  0
LINE
  8
APS_GEOMETRY
 10
480.815026
 11
478.267497
 20
415.410573
 21
415.410573
  0
ARC
  8
APS_GEOMETRY
 10
478.267497
 20
414.359989
 40
1.050584
 50
90.0
 51
150.0
  0
LINE
  8
APS_GEOMETRY
 10
477.357665
 11
476.083899
 20
414.885281
 21
412.679056
  0
LINE
  8
APS_GEOMETRY
 10
476.083899
 11
477.357665
 20
412.679056
 21
410.47283
  0
ARC
  8
APS_GEOMETRY
 10
478.267497
 20
410.998122
 40
1.050584
 50
210.0
 51
269.999953
  0
LINE
  8
APS_GEOMETRY
 10
478.267497
 11
480.815026
 20
409.947538
 21
409.947538
  0
LINE
  8
APS_GEOMETRY
 10
480.815026
 11
482.088791
 20
409.947538
 21
412.153764
  0
ARC
  8
APS_GEOMETRY
 10
479.237985
 20
412.679056
 40
6.303502
 50
79.776031
 51
85.223969
  0
ARC
  8
APS_GEOMETRY
 10
479.237985
 20
418.982559
 40
0.525292
 50
182.388266
 51
357.611832
  0
ARC
  8
APS_GEOMETRY
 10
479.237976
 20
412.679054
 40
6.303502
 50
94.775949
 51
100.223884
  0
ARC
  8
APS_GEOMETRY
 10
477.606522
 20
418.767756
 40
0.525292
 50
197.386311
 51
12.613739
  0
ARC
  8
APS_GEOMETRY
 10
479.237986
 20
412.679056
 40
6.303502
 50
109.776052
 51
115.223975
  0
ARC
  8
APS_GEOMETRY
 10
476.086236
 20
418.138044
 40
0.525292
 50
212.38745
 51
27.612555
  0
ARC
  8
APS_GEOMETRY
 10
479.237985
 20
412.679056
 40
6.303502
 50
124.77604
 51
130.223973
  0
ARC
  8
APS_GEOMETRY
 10
474.78074
 20
417.1363
 40
0.525292
 50
227.387345
 51
42.612657
  0
ARC
  8
APS_GEOMETRY
 10
479.237986
 20
412.679057
 40
6.303502
 50
139.77605
 51
145.223977
  0
ARC
  8
APS_GEOMETRY
 10
473.778995
 20
415.830805
 40
0.525292
 50
242.387619
 51
57.612291
  0
ARC
  8
APS_GEOMETRY
 10
479.237988
 20
412.679063
 40
6.303502
 50
154.776108
 51
160.224045
  0
ARC
  8
APS_GEOMETRY
 10
473.149269
 20
414.310522
 40
0.525292
 50
257.38805
 51
72.611946
  0
ARC
  8
APS_GEOMETRY
 10
479.237985
 20
412.679056
 40
6.303502
 50
169.776033
 51
175.223964
  0
ARC
  8
APS_GEOMETRY
 10
472.934481
 20
412.679056
 40
0.525292
 50
272.388212
 51
87.611777
  0
ARC
  8
APS_GEOMETRY
 10
479.237985
 20
412.679057
 40
6.303502
 50
184.776043
 51
190.22398
  0
ARC
  8
APS_GEOMETRY
 10
473.149273
 20
411.04759
 40
0.525292
 50
287.387539
 51
102.612399
  0
ARC
  8
APS_GEOMETRY
 10
479.237984
 20
412.679058
 40
6.303502
 50
199.776055
 51
205.223991
  0
ARC
  8
APS_GEOMETRY
 10
473.778987
 20
409.527302
 40
0.525292
 50
302.388603
 51
117.611399
  0
ARC
  8
APS_GEOMETRY
 10
479.237985
 20
412.679056
 40
6.303502
 50
214.77603
 51
220.223964
  0
ARC
  8
APS_GEOMETRY
 10
474.780744
 20
408.221814
 40
0.525292
 50
317.386731
 51
132.613206
  0
ARC
  8
APS_GEOMETRY
 10
479.237981
 20
412.679058
 40
6.303502
 50
229.776081
 51
235.224017
  0
ARC
  8
APS_GEOMETRY
 10
476.086233
 20
407.220061
 40
0.525292
 50
332.388236
 51
147.611782
  0
ARC
  8
APS_GEOMETRY
 10
479.237981
 20
412.679057
 40
6.303502
 50
244.776076
 51
250.224004
  0
ARC
  8
APS_GEOMETRY
 10
477.606517
 20
406.590337
 40
0.525292
 50
347.388415
 51
162.611543
  0
ARC
  8
APS_GEOMETRY
 10
479.237982
 20
412.679056
 40
6.303502
 50
259.776052
 51
265.223996
  0
ARC
  8
APS_GEOMETRY
 10
479.237985
 20
406.375552
 40
0.525292
 50
2.388186
 51
177.611821
  0
ARC
  8
APS_GEOMETRY
 10
479.237984
 20
412.679056
 40
6.303502
 50
274.776043
 51
280.22398
  0
ARC
  8
APS_GEOMETRY
 10
480.869453
 20
406.590333
 40
0.525292
 50
17.388817
 51
192.611149
  0
ARC
  8
APS_GEOMETRY
 10
479.237982
 20
412.679055
 40
6.303502
 50
289.776055
 51
295.223991
  0
ARC
  8
APS_GEOMETRY
 10
482.389736
 20
407.220062
 40
0.525292
 50
32.38805
 51
207.611803
  0
ARC
  8
APS_GEOMETRY
 10
479.237979
 20
412.67905
 40
6.303502
 50
304.776103
 51
310.224042
  0
ARC
  8
APS_GEOMETRY
 10
483.695241
 20
408.221799
 40
0.525292
 50
47.389132
 51
222.610891
  0
ARC
  8
APS_GEOMETRY
 10
479.237988
 20
412.679059
 40
6.303502
 50
319.775989
 51
325.223929
  0
ARC
  8
APS_GEOMETRY
 10
484.696979
 20
409.527303
 40
0.525292
 50
62.388246
 51
237.611792
  0
ARC
  8
APS_GEOMETRY
 10
479.237985
 20
412.679055
 40
6.303502
 50
334.776036
 51
340.22397
  0
ARC
  8
APS_GEOMETRY
 10
485.326695
 20
411.047591
 40
0.525292
 50
77.387371
 51
252.612595
  0
ARC
  8
APS_GEOMETRY
 10
479.237985
 20
412.679055
 40
6.303502
 50
349.776041
 51
355.223981
  0
ARC
  8
APS_GEOMETRY
 10
485.541489
 20
412.679056
 40
0.525292
 50
92.388212
 51
267.611777
  0
ARC
  8
APS_GEOMETRY
 10
479.237985
 20
412.679053
 40
6.303502
 50
4.77606
 51
10.223988
  0
ARC
  8
APS_GEOMETRY
 10
485.326693
 20
414.31052
 40
0.525292
 50
107.387253
 51
282.612791
  0
ARC
  8
APS_GEOMETRY
 10
479.237982
 20
412.679062
 40
6.303502
 50
19.775968
 51
25.223901
  0
ARC
  8
APS_GEOMETRY
 10
484.696976
 20
415.830805
 40
0.525292
 50
122.387805
 51
297.61229
  0
ARC
  8
APS_GEOMETRY
 10
479.237985
 20
412.679055
 40
6.303502
 50
34.77604
 51
40.223973
  0
ARC
  8
APS_GEOMETRY
 10
483.695232
 20
417.136303
 40
0.525292
 50
137.387895
 51
312.612194
  0
ARC
  8
APS_GEOMETRY
 10
479.237971
 20
412.679066
 40
6.303502
 50
49.77588
 51
55.223815
  0
ARC
  8
APS_GEOMETRY
 10
482.38974
 20
418.138056
 40
0.525292
 50
152.389032
 51
327.611087
  0
ARC
  8
APS_GEOMETRY
 10
479.237976
 20
412.679059
 40
6.303502
 50
64.775946
 51
70.223884
  0
ARC
  8
APS_GEOMETRY
 10
480.869452
 20
418.767774
 40
0.525292
 50
167.38835
 51
342.611604
  0
ARC
  8
APS_GEOMETRY
 10
481.395867
 20
397.495488
 40
1.050584
 50
330.0
 51
30.0
  0
LINE
  8
APS_GEOMETRY
 10
482.305699
 11
481.031935
 20
398.02078
 21
400.227006
  0
LINE
  8
APS_GEOMETRY
 10
481.031935
 11
478.484405
 20
400.227006
 21
400.227006
  0
ARC
  8
APS_GEOMETRY
 10
478.484405
 20
399.176422
 40
1.050584
 50
90.0
 51
150.0
  0
LINE
  8
APS_GEOMETRY
 10
477.574573
 11
476.300808
 20
399.701714
 21
397.495488
  0
LINE
  8
APS_GEOMETRY
 10
476.300808
 11
477.574573
 20
397.495488
 21
395.289262
  0
ARC
  8
APS_GEOMETRY
 10
478.484405
 20
395.814554
 40
1.050584
 50
210.0
 51
269.999953
  0
LINE
  8
APS_GEOMETRY
 10
478.484405
 11
481.031935
 20
394.76397
 21
394.763971
  0
LINE
  8
APS_GEOMETRY
 10
481.031935
 11
482.305699
 20
394.763971
 21
396.970196
  0
ARC
  8
APS_GEOMETRY
 10
479.454893
 20
397.495488
 40
6.303502
 50
79.776031
 51
85.223969
  0
ARC
  8
APS_GEOMETRY
 10
479.454893
 20
403.798992
 40
0.525292
 50
182.388212
 51
357.611777
  0
ARC
  8
APS_GEOMETRY
 10
479.454894
 20
397.495488
 40
6.303502
 50
94.776043
 51
100.22398
  0
ARC
  8
APS_GEOMETRY
 10
477.823429
 20
403.584191
 40
0.525292
 50
197.386597
 51
12.613347
  0
ARC
  8
APS_GEOMETRY
 10
479.454903
 20
397.495492
 40
6.303502
 50
109.776138
 51
115.224065
  0
ARC
  8
APS_GEOMETRY
 10
476.303144
 20
402.954476
 40
0.525292
 50
212.38745
 51
27.612555
  0
ARC
  8
APS_GEOMETRY
 10
479.454887
 20
397.495483
 40
6.303502
 50
124.775966
 51
130.223894
  0
ARC
  8
APS_GEOMETRY
 10
474.997654
 20
401.952726
 40
0.525292
 50
227.386458
 51
42.613622
  0
ARC
  8
APS_GEOMETRY
 10
479.454894
 20
397.495489
 40
6.303502
 50
139.77605
 51
145.223977
  0
ARC
  8
APS_GEOMETRY
 10
473.995903
 20
400.647237
 40
0.525292
 50
242.387619
 51
57.612291
  0
ARC
  8
APS_GEOMETRY
 10
479.454894
 20
397.495492
 40
6.303502
 50
154.776076
 51
160.224004
  0
ARC
  8
APS_GEOMETRY
 10
473.366188
 20
399.126951
 40
0.525292
 50
257.386799
 51
72.613225
  0
ARC
  8
APS_GEOMETRY
 10
479.454893
 20
397.495488
 40
6.303502
 50
169.776033
 51
175.223964
  0
ARC
  8
APS_GEOMETRY
 10
473.151389
 20
397.495488
 40
0.525292
 50
272.388212
 51
87.611777
  0
ARC
  8
APS_GEOMETRY
 10
479.454893
 20
397.495489
 40
6.303502
 50
184.776043
 51
190.22398
  0
ARC
  8
APS_GEOMETRY
 10
473.36617
 20
395.86402
 40
0.525292
 50
287.388817
 51
102.611149
  0
ARC
  8
APS_GEOMETRY
 10
479.454892
 20
397.495491
 40
6.303502
 50
199.776055
 51
205.223991
  0
ARC
  8
APS_GEOMETRY
 10
473.995904
 20
394.34374
 40
0.525292
 50
302.387443
 51
117.612505
  0
ARC
  8
APS_GEOMETRY
 10
479.454888
 20
397.495494
 40
6.303502
 50
214.776103
 51
220.224042
  0
ARC
  8
APS_GEOMETRY
 10
474.99764
 20
393.038235
 40
0.525292
 50
317.388582
 51
132.611354
  0
ARC
  8
APS_GEOMETRY
 10
479.454889
 20
397.495491
 40
6.303502
 50
229.776081
 51
235.224017
  0
ARC
  8
APS_GEOMETRY
 10
476.303144
 20
392.036498
 40
0.525292
 50
332.387534
 51
147.61239
  0
ARC
  8
APS_GEOMETRY
 10
479.454889
 20
397.495489
 40
6.303502
 50
244.776076
 51
250.224004
  0
ARC
  8
APS_GEOMETRY
 10
477.823425
 20
391.406769
 40
0.525292
 50
347.388415
 51
162.611543
  0
ARC
  8
APS_GEOMETRY
 10
479.45489
 20
397.495488
 40
6.303502
 50
259.776052
 51
265.223996
  0
ARC
  8
APS_GEOMETRY
 10
479.454893
 20
391.191984
 40
0.525292
 50
2.388186
 51
177.611821
  0
ARC
  8
APS_GEOMETRY
 10
479.454892
 20
397.495488
 40
6.303502
 50
274.776043
 51
280.22398
  0
ARC
  8
APS_GEOMETRY
 10
481.086361
 20
391.406765
 40
0.525292
 50
17.388817
 51
192.611149
  0
ARC
  8
APS_GEOMETRY
 10
479.45489
 20
397.495487
 40
6.303502
 50
289.776055
 51
295.223991
  0
ARC
  8
APS_GEOMETRY
 10
482.606641
 20
392.036499
 40
0.525292
 50
32.387443
 51
207.612505
  0
ARC
  8
APS_GEOMETRY
 10
479.454887
 20
397.495483
 40
6.303502
 50
304.776103
 51
310.224042
  0
ARC
  8
APS_GEOMETRY
 10
483.912149
 20
393.038232
 40
0.525292
 50
47.389132
 51
222.610891
  0
ARC
  8
APS_GEOMETRY
 10
479.454896
 20
397.495492
 40
6.303502
 50
319.775989
 51
325.223929
  0
ARC
  8
APS_GEOMETRY
 10
484.913887
 20
394.343736
 40
0.525292
 50
62.388246
 51
237.611792
  0
ARC
  8
APS_GEOMETRY
 10
479.454893
 20
397.495488
 40
6.303502
 50
334.776036
 51
340.22397
  0
ARC
  8
APS_GEOMETRY
 10
485.543603
 20
395.864024
 40
0.525292
 50
77.387371
 51
252.612595
  0
ARC
  8
APS_GEOMETRY
 10
479.454893
 20
397.495488
 40
6.303502
 50
349.776033
 51
355.223964
  0
ARC
  8
APS_GEOMETRY
 10
485.758397
 20
397.495488
 40
0.525292
 50
92.388212
 51
267.611777
  0
ARC
  8
APS_GEOMETRY
 10
479.454893
 20
397.495487
 40
6.303502
 50
4.776043
 51
10.22398
  0
ARC
  8
APS_GEOMETRY
 10
485.543612
 20
399.126955
 40
0.525292
 50
107.388531
 51
282.611541
  0
ARC
  8
APS_GEOMETRY
 10
479.454889
 20
397.495499
 40
6.303502
 50
19.775927
 51
25.223868
  0
ARC
  8
APS_GEOMETRY
 10
484.913884
 20
400.647238
 40
0.525292
 50
122.387805
 51
297.61229
  0
ARC
  8
APS_GEOMETRY
 10
479.454893
 20
397.495488
 40
6.303502
 50
34.77604
 51
40.223973
  0
ARC
  8
APS_GEOMETRY
 10
483.91214
 20
401.952736
 40
0.525292
 50
137.387895
 51
312.612194
  0
ARC
  8
APS_GEOMETRY
 10
479.454885
 20
397.495493
 40
6.303502
 50
49.775958
 51
55.223888
  0
ARC
  8
APS_GEOMETRY
 10
482.606645
 20
402.954483
 40
0.525292
 50
152.38833
 51
327.611694
  0
ARC
  8
APS_GEOMETRY
 10
479.454893
 20
397.495488
 40
6.303502
 50
64.776036
 51
70.22397
  0
ARC
  8
APS_GEOMETRY
 10
481.08636
 20
403.584206
 40
0.525292
 50
167.38835
 51
342.611604
  0
ARC
  8
APS_GEOMETRY
 10
481.612775
 20
381.878104
 40
1.050584
 50
330.0
 51
30.0
  0
LINE
  8
APS_GEOMETRY
 10
482.522607
 11
481.248843
 20
382.403396
 21
384.609622
  0
LINE
  8
APS_GEOMETRY
 10
481.248843
 11
478.701313
 20
384.609622
 21
384.609622
  0
ARC
  8
APS_GEOMETRY
 10
478.701313
 20
383.559038
 40
1.050584
 50
90.0
 51
150.0
  0
LINE
  8
APS_GEOMETRY
 10
477.791481
 11
476.517716
 20
384.08433
 21
381.878104
  0
LINE
  8
APS_GEOMETRY
 10
476.517716
 11
477.791481
 20
381.878104
 21
379.671879
  0
ARC
  8
APS_GEOMETRY
 10
478.701314
 20
380.19717
 40
1.050584
 50
209.999937
 51
269.999922
  0
LINE
  8
APS_GEOMETRY
 10
478.701313
 11
481.248843
 20
379.146586
 21
379.146587
  0
LINE
  8
APS_GEOMETRY
 10
481.248843
 11
482.522607
 20
379.146587
 21
381.352812
  0
ARC
  8
APS_GEOMETRY
 10
479.671801
 20
381.878104
 40
6.303502
 50
79.776031
 51
85.223969
  0
ARC
  8
APS_GEOMETRY
 10
479.671801
 20
388.181608
 40
0.525292
 50
182.388212
 51
357.611777
  0
ARC
  8
APS_GEOMETRY
 10
479.671802
 20
381.878104
 40
6.303502
 50
94.776043
 51
100.22398
  0
ARC
  8
APS_GEOMETRY
 10
478.040335
 20
387.966818
 40
0.525292
 50
197.387876
 51
12.612096
  0
ARC
  8
APS_GEOMETRY
 10
479.671798
 20
381.878103
 40
6.303502
 50
109.776011
 51
115.223942
  0
ARC
  8
APS_GEOMETRY
 10
476.520055
 20
387.337087
 40
0.525292
 50
212.386843
 51
27.613257
  0
ARC
  8
APS_GEOMETRY
 10
479.671795
 20
381.878099
 40
6.303502
 50
124.775966
 51
130.223894
  0
ARC
  8
APS_GEOMETRY
 10
475.214556
 20
386.335349
 40
0.525292
 50
227.387345
 51
42.612657
  0
ARC
  8
APS_GEOMETRY
 10
479.671806
 20
381.87811
 40
6.303502
 50
139.776105
 51
145.224039
  0
ARC
  8
APS_GEOMETRY
 10
474.212811
 20
385.029853
 40
0.525292
 50
242.387619
 51
57.612291
  0
ARC
  8
APS_GEOMETRY
 10
479.671802
 20
381.878108
 40
6.303502
 50
154.776076
 51
160.224004
  0
ARC
  8
APS_GEOMETRY
 10
473.583085
 20
383.509571
 40
0.525292
 50
257.38805
 51
72.611946
  0
ARC
  8
APS_GEOMETRY
 10
479.671801
 20
381.878105
 40
6.303502
 50
169.776041
 51
175.223981
  0
ARC
  8
APS_GEOMETRY
 10
473.368297
 20
381.878104
 40
0.525292
 50
272.388212
 51
87.611777
  0
ARC
  8
APS_GEOMETRY
 10
479.671801
 20
381.878105
 40
6.303502
 50
184.776043
 51
190.22398
  0
ARC
  8
APS_GEOMETRY
 10
473.583078
 20
380.246636
 40
0.525292
 50
287.388817
 51
102.611149
  0
ARC
  8
APS_GEOMETRY
 10
479.6718
 20
381.878107
 40
6.303502
 50
199.776055
 51
205.223991
  0
ARC
  8
APS_GEOMETRY
 10
474.212803
 20
378.726351
 40
0.525292
 50
302.388603
 51
117.611399
  0
ARC
  8
APS_GEOMETRY
 10
479.6718
 20
381.878106
 40
6.303502
 50
214.776041
 51
220.223988
  0
ARC
  8
APS_GEOMETRY
 10
475.214548
 20
377.420851
 40
0.525292
 50
317.388582
 51
132.611354
  0
ARC
  8
APS_GEOMETRY
 10
479.671797
 20
381.878107
 40
6.303502
 50
229.776081
 51
235.224017
  0
ARC
  8
APS_GEOMETRY
 10
476.520052
 20
376.419114
 40
0.525292
 50
332.387534
 51
147.61239
  0
ARC
  8
APS_GEOMETRY
 10
479.671794
 20
381.878107
 40
6.303502
 50
244.776108
 51
250.224045
  0
ARC
  8
APS_GEOMETRY
 10
478.04033
 20
375.789371
 40
0.525292
 50
347.390056
 51
162.609979
  0
ARC
  8
APS_GEOMETRY
 10
479.671808
 20
381.878103
 40
6.303502
 50
259.775957
 51
265.223901
  0
ARC
  8
APS_GEOMETRY
 10
479.671801
 20
375.5746
 40
0.525292
 50
2.388186
 51
177.611821
  0
ARC
  8
APS_GEOMETRY
 10
479.6718
 20
381.878104
 40
6.303502
 50
274.776043
 51
280.22398
  0
ARC
  8
APS_GEOMETRY
 10
481.303268
 20
375.789385
 40
0.525292
 50
17.388531
 51
192.611541
  0
ARC
  8
APS_GEOMETRY
 10
479.671803
 20
381.878105
 40
6.303502
 50
289.776014
 51
295.223958
  0
ARC
  8
APS_GEOMETRY
 10
482.823558
 20
376.419102
 40
0.525292
 50
32.38921
 51
207.610697
  0
ARC
  8
APS_GEOMETRY
 10
479.671795
 20
381.878099
 40
6.303502
 50
304.776103
 51
310.224042
  0
ARC
  8
APS_GEOMETRY
 10
484.129057
 20
377.420848
 40
0.525292
 50
47.389132
 51
222.610891
  0
ARC
  8
APS_GEOMETRY
 10
479.671804
 20
381.878108
 40
6.303502
 50
319.775989
 51
325.223929
  0
ARC
  8
APS_GEOMETRY
 10
485.130795
 20
378.726352
 40
0.525292
 50
62.388246
 51
237.611792
  0
ARC
  8
APS_GEOMETRY
 10
479.671801
 20
381.878104
 40
6.303502
 50
334.776036
 51
340.22397
  0
ARC
  8
APS_GEOMETRY
 10
485.760511
 20
380.24664
 40
0.525292
 50
77.387371
 51
252.612595
  0
ARC
  8
APS_GEOMETRY
 10
479.671801
 20
381.878104
 40
6.303502
 50
349.776033
 51
355.223964
  0
ARC
  8
APS_GEOMETRY
 10
485.975305
 20
381.878104
 40
0.525292
 50
92.388212
 51
267.611777
  0
ARC
  8
APS_GEOMETRY
 10
479.671801
 20
381.878103
 40
6.303502
 50
4.776043
 51
10.22398
  0
ARC
  8
APS_GEOMETRY
 10
485.760524
 20
383.509572
 40
0.525292
 50
107.388817
 51
282.611149
  0
ARC
  8
APS_GEOMETRY
 10
479.671801
 20
381.878106
 40
6.303502
 50
19.776014
 51
25.223958
  0
ARC
  8
APS_GEOMETRY
 10
485.130792
 20
385.029854
 40
0.525292
 50
122.387805
 51
297.61229
  0
ARC
  8
APS_GEOMETRY
 10
479.671796
 20
381.87811
 40
6.303502
 50
34.775966
 51
40.223894
  0
ARC
  8
APS_GEOMETRY
 10
484.129049
 20
386.335352
 40
0.525292
 50
137.387895
 51
312.612194
  0
ARC
  8
APS_GEOMETRY
 10
479.671799
 20
381.878105
 40
6.303502
 50
49.776013
 51
55.22395
  0
ARC
  8
APS_GEOMETRY
 10
482.823553
 20
387.337099
 40
0.525292
 50
152.38833
 51
327.611694
  0
ARC
  8
APS_GEOMETRY
 10
479.671792
 20
381.878108
 40
6.303502
 50
64.775946
 51
70.223884
  0
ARC
  8
APS_GEOMETRY
 10
481.303269
 20
387.966826
 40
0.525292
 50
167.388742
 51
342.611318
  0
ARC
  8
APS_GEOMETRY
 10
481.612775
 20
366.477629
 40
1.050584
 50
330.0
 51
30.0
  0
LINE
  8
APS_GEOMETRY
 10
482.522607
 11
481.248843
 20
367.002921
 21
369.209146
  0
LINE
  8
APS_GEOMETRY
 10
481.248843
 11
478.701313
 20
369.209146
 21
369.209146
  0
ARC
  8
APS_GEOMETRY
 10
478.701312
 20
368.158562
 40
1.050584
 50
89.999969
 51
149.999937
  0
LINE
  8
APS_GEOMETRY
 10
477.791481
 11
476.517716
 20
368.683855
 21
366.477629
  0
LINE
  8
APS_GEOMETRY
 10
476.517716
 11
477.791481
 20
366.477629
 21
364.271403
  0
ARC
  8
APS_GEOMETRY
 10
478.701313
 20
364.796695
 40
1.050584
 50
210.0
 51
269.999953
  0
LINE
  8
APS_GEOMETRY
 10
478.701313
 11
481.248843
 20
363.746111
 21
363.746111
  0
LINE
  8
APS_GEOMETRY
 10
481.248843
 11
482.522607
 20
363.746111
 21
365.952337
  0
ARC
  8
APS_GEOMETRY
 10
479.671801
 20
366.477629
 40
6.303502
 50
79.776031
 51
85.223969
  0
ARC
  8
APS_GEOMETRY
 10
479.671801
 20
372.781133
 40
0.525292
 50
182.388212
 51
357.611777
  0
ARC
  8
APS_GEOMETRY
 10
479.671802
 20
366.477629
 40
6.303502
 50
94.776043
 51
100.22398
  0
ARC
  8
APS_GEOMETRY
 10
478.040335
 20
372.56634
 40
0.525292
 50
197.38759
 51
12.612488
  0
ARC
  8
APS_GEOMETRY
 10
479.671798
 20
366.477627
 40
6.303502
 50
109.776011
 51
115.223942
  0
ARC
  8
APS_GEOMETRY
 10
476.520052
 20
371.936617
 40
0.525292
 50
212.38745
 51
27.612555
  0
ARC
  8
APS_GEOMETRY
 10
479.671801
 20
366.477629
 40
6.303502
 50
124.77604
 51
130.223973
  0
ARC
  8
APS_GEOMETRY
 10
475.214556
 20
370.934873
 40
0.525292
 50
227.387345
 51
42.612657
  0
ARC
  8
APS_GEOMETRY
 10
479.671802
 20
366.47763
 40
6.303502
 50
139.77605
 51
145.223977
  0
ARC
  8
APS_GEOMETRY
 10
474.212811
 20
369.629378
 40
0.525292
 50
242.387619
 51
57.612291
  0
ARC
  8
APS_GEOMETRY
 10
479.671804
 20
366.477636
 40
6.303502
 50
154.776108
 51
160.224045
  0
ARC
  8
APS_GEOMETRY
 10
473.583085
 20
368.109095
 40
0.525292
 50
257.38805
 51
72.611946
  0
ARC
  8
APS_GEOMETRY
 10
479.671801
 20
366.477629
 40
6.303502
 50
169.776033
 51
175.223964
  0
ARC
  8
APS_GEOMETRY
 10
473.368297
 20
366.477629
 40
0.525292
 50
272.388212
 51
87.611777
  0
ARC
  8
APS_GEOMETRY
 10
479.671801
 20
366.47763
 40
6.303502
 50
184.776043
 51
190.22398
  0
ARC
  8
APS_GEOMETRY
 10
473.583078
 20
364.846161
 40
0.525292
 50
287.388817
 51
102.611149
  0
ARC
  8
APS_GEOMETRY
 10
479.671801
 20
366.477627
 40
6.303502
 50
199.776014
 51
205.223958
  0
ARC
  8
APS_GEOMETRY
 10
474.212803
 20
363.325875
 40
0.525292
 50
302.388603
 51
117.611399
  0
ARC
  8
APS_GEOMETRY
 10
479.671796
 20
366.477635
 40
6.303502
 50
214.776103
 51
220.224042
  0
ARC
  8
APS_GEOMETRY
 10
475.214548
 20
362.020376
 40
0.525292
 50
317.388582
 51
132.611354
  0
ARC
  8
APS_GEOMETRY
 10
479.671803
 20
366.477627
 40
6.303502
 50
229.776002
 51
235.223944
  0
ARC
  8
APS_GEOMETRY
 10
476.520049
 20
361.018634
 40
0.525292
 50
332.388236
 51
147.611782
  0
ARC
  8
APS_GEOMETRY
 10
479.671794
 20
366.477632
 40
6.303502
 50
244.776108
 51
250.224045
  0
ARC
  8
APS_GEOMETRY
 10
478.040331
 20
360.388899
 40
0.525292
 50
347.389665
 51
162.610265
  0
ARC
  8
APS_GEOMETRY
 10
479.671798
 20
366.477629
 40
6.303502
 50
259.776052
 51
265.223996
  0
ARC
  8
APS_GEOMETRY
 10
479.671801
 20
360.174125
 40
0.525292
 50
2.388186
 51
177.611821
  0
ARC
  8
APS_GEOMETRY
 10
479.6718
 20
366.477629
 40
6.303502
 50
274.776043
 51
280.22398
  0
ARC
  8
APS_GEOMETRY
 10
481.303269
 20
360.388906
 40
0.525292
 50
17.388817
 51
192.611149
  0
ARC
  8
APS_GEOMETRY
 10
479.671803
 20
366.477629
 40
6.303502
 50
289.776014
 51
295.223958
  0
ARC
  8
APS_GEOMETRY
 10
482.823558
 20
361.018626
 40
0.525292
 50
32.38921
 51
207.610697
  0
ARC
  8
APS_GEOMETRY
 10
479.671795
 20
366.477623
 40
6.303502
 50
304.776103
 51
310.224042
  0
ARC
  8
APS_GEOMETRY
 10
484.129057
 20
362.020372
 40
0.525292
 50
47.389132
 51
222.610891
  0
ARC
  8
APS_GEOMETRY
 10
479.6718
 20
366.477627
 40
6.303502
 50
319.776043
 51
325.223991
  0
ARC
  8
APS_GEOMETRY
 10
485.130804
 20
363.325872
 40
0.525292
 50
62.389352
 51
237.610632
  0
ARC
  8
APS_GEOMETRY
 10
479.671799
 20
366.477625
 40
6.303502
 50
334.776068
 51
340.224011
  0
ARC
  8
APS_GEOMETRY
 10
485.760522
 20
364.846161
 40
0.525292
 50
77.388622
 51
252.611317
  0
ARC
  8
APS_GEOMETRY
 10
479.671801
 20
366.477628
 40
6.303502
 50
349.776041
 51
355.223981
  0
ARC
  8
APS_GEOMETRY
 10
485.975305
 20
366.477629
 40
0.525292
 50
92.388212
 51
267.611777
  0
ARC
  8
APS_GEOMETRY
 10
479.671801
 20
366.477628
 40
6.303502
 50
4.776043
 51
10.22398
  0
ARC
  8
APS_GEOMETRY
 10
485.760524
 20
368.109097
 40
0.525292
 50
107.388817
 51
282.611149
  0
ARC
  8
APS_GEOMETRY
 10
479.671802
 20
366.477626
 40
6.303502
 50
19.776055
 51
25.223991
  0
ARC
  8
APS_GEOMETRY
 10
485.130792
 20
369.629378
 40
0.525292
 50
122.387805
 51
297.61229
  0
ARC
  8
APS_GEOMETRY
 10
479.671792
 20
366.47764
 40
6.303502
 50
34.775905
 51
40.22384
  0
ARC
  8
APS_GEOMETRY
 10
484.129055
 20
370.934882
 40
0.525292
 50
137.388859
 51
312.611307
  0
ARC
  8
APS_GEOMETRY
 10
479.671792
 20
366.477635
 40
6.303502
 50
49.775934
 51
55.223877
  0
ARC
  8
APS_GEOMETRY
 10
482.823556
 20
371.936629
 40
0.525292
 50
152.389032
 51
327.611087
  0
ARC
  8
APS_GEOMETRY
 10
479.671792
 20
366.477632
 40
6.303502
 50
64.775946
 51
70.223884
  0
ARC
  8
APS_GEOMETRY
 10
481.303268
 20
372.566347
 40
0.525292
 50
167.38835
 51
342.611604
  0
LINE
  8
APS_GEOMETRY
 10
474.242105
 11
476.102105
 20
345.062832
 21
345.062832
  0
LINE
  8
APS_GEOMETRY
 10
476.102105
 11
476.102105
 20
345.062832
 21
342.112832
  0
LINE
  8
APS_GEOMETRY
 10
476.102105
 11
474.242105
 20
342.112832
 21
342.112832
  0
LINE
  8
APS_GEOMETRY
 10
474.242105
 11
474.242105
 20
342.112832
 21
345.062832
  0
LINE
  8
APS_GEOMETRY
 10
467.672105
 11
467.672105
 20
336.632832
 21
338.492832
  0
LINE
  8
APS_GEOMETRY
 10
467.672105
 11
470.622105
 20
338.492832
 21
338.492832
  0
LINE
  8
APS_GEOMETRY
 10
470.622105
 11
470.622105
 20
338.492832
 21
336.632832
  0
LINE
  8
APS_GEOMETRY
 10
470.622105
 11
467.672105
 20
336.632832
 21
336.632832
  0
LINE
  8
APS_GEOMETRY
 10
476.102105
 11
474.242105
 20
330.062832
 21
330.062832
  0
LINE
  8
APS_GEOMETRY
 10
474.242105
 11
474.242105
 20
330.062832
 21
333.012832
  0
LINE
  8
APS_GEOMETRY
 10
474.242105
 11
476.102105
 20
333.012832
 21
333.012832
  0
LINE
  8
APS_GEOMETRY
 10
476.102105
 11
476.102105
 20
333.012832
 21
330.062832
  0
LINE
  8
APS_GEOMETRY
 10
482.672105
 11
482.672105
 20
338.492832
 21
336.632832
  0
LINE
  8
APS_GEOMETRY
 10
482.672105
 11
479.722105
 20
336.632832
 21
336.632832
  0
LINE
  8
APS_GEOMETRY
 10
479.722105
 11
479.722105
 20
336.632832
 21
338.492832
  0
LINE
  8
APS_GEOMETRY
 10
479.722105
 11
482.672105
 20
338.492832
 21
338.492832
  0
LINE
  8
APS_GEOMETRY
 10
462.542187
 11
503.174634
 20
328.577558
 21
357.484607
  0
LINE
  8
APS_GEOMETRY
 10
503.174634
 11
507.297735
 20
357.484607
 21
357.484607
  0
LINE
  8
APS_GEOMETRY
 10
483.24468
 11
487.802023
 20
344.328794
 21
346.548106
  0
LINE
  8
APS_GEOMETRY
 10
487.802023
 11
484.211032
 20
346.548106
 21
342.970466
  0
LINE
  8
APS_GEOMETRY
 10
484.211032
 11
483.24468
 20
342.970466
 21
344.328794
  0
LINE
  8
APS_GEOMETRY
 10
467.09953
 11
462.542187
 20
330.79687
 21
328.577558
  0
LINE
  8
APS_GEOMETRY
 10
462.542187
 11
466.133178
 20
328.577558
 21
332.155198
  0
LINE
  8
APS_GEOMETRY
 10
466.133178
 11
467.09953
 20
332.155198
 21
330.79687
  0
ARC
  8
APS_GEOMETRY
 10
511.047687
 20
357.484677
 40
1.99993
 50
67.499601
 51
89.999989
  0
ARC
  8
APS_GEOMETRY
 10
511.047676
 20
357.48465
 40
1.999959
 50
44.99942
 51
67.499591
  0
ARC
  8
APS_GEOMETRY
 10
511.047646
 20
357.48462
 40
2.000002
 50
22.49958
 51
44.999432
  0
ARC
  8
APS_GEOMETRY
 10
511.047618
 20
357.484607
 40
2.000032
 50
359.999987
 51
22.499603
  0
ARC
  8
APS_GEOMETRY
 10
511.047618
 20
357.484606
 40
2.000032
 50
337.500397
 51
0.000013
  0
ARC
  8
APS_GEOMETRY
 10
511.047646
 20
357.484594
 40
2.000002
 50
315.000568
 51
337.50042
  0
ARC
  8
APS_GEOMETRY
 10
511.047676
 20
357.484564
 40
1.999959
 50
292.500409
 51
315.00058
  0
ARC
  8
APS_GEOMETRY
 10
511.047687
 20
357.484537
 40
1.99993
 50
270.000011
 51
292.500399
  0
ARC
  8
APS_GEOMETRY
 10
511.047688
 20
357.484537
 40
1.99993
 50
247.499601
 51
269.999989
  0
ARC
  8
APS_GEOMETRY
 10
511.0477
 20
357.484564
 40
1.999959
 50
224.99942
 51
247.499591
  0
ARC
  8
APS_GEOMETRY
 10
511.047729
 20
357.484594
 40
2.000002
 50
202.49958
 51
224.999432
  0
ARC
  8
APS_GEOMETRY
 10
511.047757
 20
357.484606
 40
2.000032
 50
179.999987
 51
202.499603
  0
ARC
  8
APS_GEOMETRY
 10
511.047757
 20
357.484607
 40
2.000032
 50
157.500397
 51
180.000013
  0
ARC
  8
APS_GEOMETRY
 10
511.047729
 20
357.48462
 40
2.000002
 50
135.000568
 51
157.50042
  0
ARC
  8
APS_GEOMETRY
 10
511.0477
 20
357.48465
 40
1.999959
 50
112.500409
 51
135.00058
  0
ARC
  8
APS_GEOMETRY
 10
511.047688
 20
357.484677
 40
1.99993
 50
90.000011
 51
112.500399
  0
LINE
  8
APS_GEOMETRY
 10
508.547735
 11
513.547641
 20
354.984607
 21
359.984607
  0
ARC
  8
APS_GEOMETRY
 10
516.048359
 20
356.583564
 40
1.559056
 50
208.751948
 51
258.48402
  0
ARC
  8
APS_GEOMETRY
 10
516.378705
 20
358.01298
 40
3.025889
 50
257.758312
 51
286.480382
  0
ARC
  8
APS_GEOMETRY
 10
516.848213
 20
356.477978
 40
1.420833
 50
285.885172
 51
325.197039
  0
ARC
  8
APS_GEOMETRY
 10
516.859341
 20
356.487056
 40
1.416945
 50
324.638795
 51
31.268726
  0
ARC
  8
APS_GEOMETRY
 10
516.812144
 20
356.470769
 40
1.465778
 50
30.855291
 51
75.402309
  0
ARC
  8
APS_GEOMETRY
 10
516.514895
 20
355.285387
 40
2.687833
 50
75.6389
 51
104.3611
  0
ARC
  8
APS_GEOMETRY
 10
514.858841
 20
360.75156
 40
3.0285
 50
289.068075
 51
345.63788
  0
LINE
  8
APS_GEOMETRY
 10
517.792693
 11
514.737117
 20
360.000343
 21
360.000332
  0
LINE
  8
APS_GEOMETRY
 10
519.142315
 11
520.000128
 20
354.984607
 21
354.984607
  0
LINE
  8
APS_GEOMETRY
 10
520.000128
 11
520.857941
 20
354.984607
 21
354.984607
  0
LINE
  8
APS_GEOMETRY
 10
520.000128
 11
520.000128
 20
354.984607
 21
359.984607
  0
LINE
  8
APS_GEOMETRY
 10
520.000128
 11
519.142315
 20
359.984607
 21
359.126794
  0
LINE
  8
APS_GEOMETRY
 10
444.660952
 11
441.32762
 20
315.099278
 21
315.099301
  0
ARC
  8
APS_GEOMETRY
 10
443.090008
 20
315.101656
 40
1.762389
 50
121.813563
 51
180.07656
  0
LINE
  8
APS_GEOMETRY
 10
442.160952
 11
444.049828
 20
316.599278
 21
317.765946
  0
ARC
  8
APS_GEOMETRY
 10
443.434993
 20
318.821491
 40
1.221556
 50
300.220013
 51
59.779436
  0
ARC
  8
APS_GEOMETRY
 10
443.105352
 20
318.121913
 40
1.993111
 50
61.713834
 51
118.283685
  0
ARC
  8
APS_GEOMETRY
 10
442.720174
 20
318.826222
 40
1.190389
 50
118.0207
 51
169.4717
  0
LINE
  8
APS_GEOMETRY
 10
445.660954
 11
445.660954
 20
315.099301
 21
320.099301
  0
LINE
  8
APS_GEOMETRY
 10
445.660954
 11
445.938732
 20
320.099301
 21
320.099301
  0
LINE
  8
APS_GEOMETRY
 10
445.938732
 11
447.883176
 20
320.099301
 21
315.099301
  0
LINE
  8
APS_GEOMETRY
 10
447.883176
 11
449.827621
 20
315.099301
 21
320.099301
  0
LINE
  8
APS_GEOMETRY
 10
449.827621
 11
450.105398
 20
320.099301
 21
320.099301
  0
LINE
  8
APS_GEOMETRY
 10
450.105398
 11
450.105398
 20
320.099301
 21
315.099301
  0
LINE
  8
APS_GEOMETRY
 10
451.105398
 11
451.105398
 20
315.099301
 21
320.099301
  0
LINE
  8
APS_GEOMETRY
 10
451.105398
 11
451.383176
 20
320.099301
 21
320.099301
  0
LINE
  8
APS_GEOMETRY
 10
451.383176
 11
453.327621
 20
320.099301
 21
315.099301
  0
LINE
  8
APS_GEOMETRY
 10
453.327621
 11
455.272065
 20
315.099301
 21
320.099301
  0
LINE
  8
APS_GEOMETRY
 10
455.272065
 11
455.549843
 20
320.099301
 21
320.099301
  0
LINE
  8
APS_GEOMETRY
 10
455.549843
 11
455.549843
 20
320.099301
 21
315.099301
  0
LINE
  8
APS_GEOMETRY
 10
461.410954
 11
464.46651
 20
316.609392
 21
316.609392
  0
LINE
  8
APS_GEOMETRY
 10
460.799843
 11
462.744288
 20
315.099301
 21
320.099301
  0
LINE
  8
APS_GEOMETRY
 10
462.744288
 11
463.188732
 20
320.099301
 21
320.099301
  0
LINE
  8
APS_GEOMETRY
 10
463.188732
 11
465.022066
 20
320.099301
 21
315.099301
  0
ARC
  8
APS_GEOMETRY
 10
466.240909
 20
317.602913
 40
3.039389
 50
31.026839
 51
40.045456
  0
ARC
  8
APS_GEOMETRY
 10
467.289871
 20
318.535207
 40
1.637
 50
38.687092
 51
141.311843
  0
ARC
  8
APS_GEOMETRY
 10
468.377206
 20
317.641817
 40
3.044222
 50
140.979262
 51
219.021887
  0
ARC
  8
APS_GEOMETRY
 10
467.289917
 20
316.74837
 40
1.637
 50
218.687682
 51
321.31267
  0
ARC
  8
APS_GEOMETRY
 10
466.222177
 20
317.510226
 40
2.947556
 50
322.7266
 51
335.3459
  0
LINE
  8
APS_GEOMETRY
 10
469.940123
 11
472.329012
 20
317.543746
 21
317.543746
  0
ARC
  8
APS_GEOMETRY
 10
472.329012
 20
318.821524
 40
1.277778
 50
270.0
 51
90.0
  0
LINE
  8
APS_GEOMETRY
 10
472.329012
 11
469.940123
 20
320.099301
 21
320.099301
  0
LINE
  8
APS_GEOMETRY
 10
469.940123
 11
469.940123
 20
320.099301
 21
315.099301
  0
LINE
  8
APS_GEOMETRY
 10
472.162346
 11
473.273457
 20
317.543746
 21
315.099301
  0
LINE
  8
APS_GEOMETRY
 10
474.180079
 11
476.124524
 20
320.081265
 21
317.303488
  0
LINE
  8
APS_GEOMETRY
 10
476.124524
 11
476.124524
 20
317.303488
 21
315.081265
  0
LINE
  8
APS_GEOMETRY
 10
476.124524
 11
478.068968
 20
317.303488
 21
320.081265
  0
LINE
  8
APS_GEOMETRY
 10
478.495679
 11
478.495679
 20
320.099301
 21
315.099301
  0
LINE
  8
APS_GEOMETRY
 10
478.495679
 11
481.829013
 20
315.099301
 21
315.099301
  0
LINE
  8
APS_GEOMETRY
 10
483.507477
 11
483.507477
 20
320.099301
 21
315.099301
  0
LINE
  8
APS_GEOMETRY
 10
482.329181
 11
483.507477
 20
315.098104
 21
315.099301
  0
LINE
  8
APS_GEOMETRY
 10
483.507477
 11
484.685774
 20
315.099301
 21
315.098104
  0
LINE
  8
APS_GEOMETRY
 10
482.329181
 11
483.507477
 20
320.098104
 21
320.099301
  0
LINE
  8
APS_GEOMETRY
 10
483.507477
 11
484.685774
 20
320.099301
 21
320.098104
  0
ARC
  8
APS_GEOMETRY
 10
486.05445
 20
317.602913
 40
3.039389
 50
31.026839
 51
40.045456
  0
ARC
  8
APS_GEOMETRY
 10
487.103411
 20
318.535207
 40
1.637
 50
38.687092
 51
141.311843
  0
ARC
  8
APS_GEOMETRY
 10
488.190746
 20
317.641817
 40
3.044222
 50
140.979262
 51
219.021887
  0
ARC
  8
APS_GEOMETRY
 10
487.103458
 20
316.74837
 40
1.637
 50
218.687682
 51
321.31267
  0
ARC
  8
APS_GEOMETRY
 10
486.035717
 20
317.510226
 40
2.947556
 50
322.7266
 51
335.3459
  0
LINE
  8
APS_GEOMETRY
 10
387.874522
 11
389.818966
 20
309.215341
 21
306.437563
  0
LINE
  8
APS_GEOMETRY
 10
389.818966
 11
389.818966
 20
306.437563
 21
304.215341
  0
LINE
  8
APS_GEOMETRY
 10
389.818966
 11
391.763411
 20
306.437563
 21
309.215341
  0
ARC
  8
APS_GEOMETRY
 10
394.009186
 20
305.887945
 40
1.637
 50
218.6887
 51
321.3113
  0
ARC
  8
APS_GEOMETRY
 10
392.921879
 20
306.78137
 40
3.044222
 50
320.978113
 51
39.020738
  0
ARC
  8
APS_GEOMETRY
 10
394.009215
 20
307.674759
 40
1.637
 50
38.688157
 51
141.312908
  0
ARC
  8
APS_GEOMETRY
 10
395.096522
 20
306.781334
 40
3.044222
 50
140.978975
 51
219.021025
  0
LINE
  8
APS_GEOMETRY
 10
396.446057
 11
396.446057
 20
309.185916
 21
305.852582
  0
ARC
  8
APS_GEOMETRY
 10
398.112724
 20
305.852582
 40
1.666667
 50
180.0
 51
0.0
  0
LINE
  8
APS_GEOMETRY
 10
399.77939
 11
399.77939
 20
305.852582
 21
309.185916
  0
LINE
  8
APS_GEOMETRY
 10
407.002229
 11
407.002229
 20
309.212013
 21
304.267568
  0
LINE
  8
APS_GEOMETRY
 10
405.057785
 11
408.946674
 20
309.267568
 21
309.267568
  0
LINE
  8
APS_GEOMETRY
 10
409.418279
 11
409.418279
 20
309.185916
 21
305.852582
  0
ARC
  8
APS_GEOMETRY
 10
411.084946
 20
305.852582
 40
1.666667
 50
180.0
 51
0.0
  0
LINE
  8
APS_GEOMETRY
 10
412.751613
 11
412.751613
 20
305.852582
 21
309.185916
  0
LINE
  8
APS_GEOMETRY
 10
413.759481
 11
415.759481
 20
306.844488
 21
306.844488
  0
ARC
  8
APS_GEOMETRY
 10
415.759481
 20
308.038932
 40
1.194445
 50
270.0
 51
90.0
  0
LINE
  8
APS_GEOMETRY
 10
415.759481
 11
413.759481
 20
309.233377
 21
309.233377
  0
LINE
  8
APS_GEOMETRY
 10
413.759481
 11
413.759481
 20
309.233377
 21
304.233376
  0
LINE
  8
APS_GEOMETRY
 10
413.759481
 11
415.815036
 20
304.233376
 21
304.233376
  0
ARC
  8
APS_GEOMETRY
 10
415.815036
 20
305.538932
 40
1.305556
 50
270.0
 51
90.0
  0
LINE
  8
APS_GEOMETRY
 10
421.453925
 11
418.120592
 20
309.233377
 21
309.233377
  0
LINE
  8
APS_GEOMETRY
 10
418.120592
 11
418.120592
 20
309.233377
 21
304.233376
  0
LINE
  8
APS_GEOMETRY
 10
418.120592
 11
421.453925
 20
304.233376
 21
304.233376
  0
LINE
  8
APS_GEOMETRY
 10
418.176148
 11
420.342814
 20
306.900043
 21
306.900043
  0
LINE
  8
APS_GEOMETRY
 10
427.203925
 11
427.203925
 20
309.233377
 21
304.233376
  0
LINE
  8
APS_GEOMETRY
 10
427.203925
 11
430.537259
 20
304.233376
 21
304.233376
  0
LINE
  8
APS_GEOMETRY
 10
432.215724
 11
432.215724
 20
309.233377
 21
304.233376
  0
LINE
  8
APS_GEOMETRY
 10
431.037427
 11
432.215724
 20
304.232179
 21
304.233376
  0
LINE
  8
APS_GEOMETRY
 10
432.215724
 11
433.39402
 20
304.233376
 21
304.232179
  0
LINE
  8
APS_GEOMETRY
 10
431.037427
 11
432.215724
 20
309.232179
 21
309.233377
  0
LINE
  8
APS_GEOMETRY
 10
432.215724
 11
433.39402
 20
309.233377
 21
309.232179
  0
LINE
  8
APS_GEOMETRY
 10
434.393852
 11
434.393852
 20
304.233376
 21
309.233377
  0
LINE
  8
APS_GEOMETRY
 10
434.393852
 11
434.67163
 20
309.233377
 21
309.233377
  0
LINE
  8
APS_GEOMETRY
 10
434.67163
 11
437.449408
 20
309.233377
 21
304.233376
  0
LINE
  8
APS_GEOMETRY
 10
437.449408
 11
437.727186
 20
304.233376
 21
304.233376
  0
LINE
  8
APS_GEOMETRY
 10
437.727186
 11
437.727186
 20
304.233376
 21
309.233377
  0
LINE
  8
APS_GEOMETRY
 10
442.338297
 11
440.116075
 20
304.233376
 21
307.288932
  0
LINE
  8
APS_GEOMETRY
 10
438.782741
 11
442.338297
 20
306.233377
 21
309.233377
  0
LINE
  8
APS_GEOMETRY
 10
438.727186
 11
438.727186
 20
309.233377
 21
304.233376
  0
LINE
  8
APS_GEOMETRY
 10
377.254917
 11
377.254917
 20
300.092562
 21
295.592562
  0
LINE
  8
APS_GEOMETRY
 10
376.654917
 11
377.904917
 20
298.692562
 21
298.692562
  0
LINE
  8
APS_GEOMETRY
 10
379.504917
 11
379.504917
 20
300.092562
 21
295.592562
  0
LINE
  8
APS_GEOMETRY
 10
378.904917
 11
380.154917
 20
298.692562
 21
298.692562
  0
ARC
  8
APS_GEOMETRY
 10
382.252821
 20
296.844043
 40
1.28635
 50
214.9193
 51
269.7887
  0
ARC
  8
APS_GEOMETRY
 10
382.245874
 20
296.73435
 40
1.17665
 50
270.107261
 51
333.411436
  0
ARC
  8
APS_GEOMETRY
 10
381.499375
 20
297.107685
 40
2.0113
 50
333.419009
 51
26.581852
  0
ARC
  8
APS_GEOMETRY
 10
382.245863
 20
297.481043
 40
1.17665
 50
26.58881
 51
89.892414
  0
ARC
  8
APS_GEOMETRY
 10
382.252825
 20
297.37135
 40
1.28635
 50
90.211714
 51
145.081065
  0
LINE
  8
APS_GEOMETRY
 10
381.198071
 11
381.198071
 20
298.707693
 21
294.357693
  0
ARC
  8
APS_GEOMETRY
 10
384.932268
 20
297.457044
 40
1.2202
 50
42.8264
 51
122.4689
  0
ARC
  8
APS_GEOMETRY
 10
384.619669
 20
297.946428
 40
0.6395
 50
122.378183
 51
252.485679
  0
LINE
  8
APS_GEOMETRY
 10
384.427215
 11
385.427218
 20
297.336574
 21
297.036544
  0
ARC
  8
APS_GEOMETRY
 10
385.228239
 20
296.378677
 40
0.6873
 50
300.512868
 51
73.171518
  0
ARC
  8
APS_GEOMETRY
 10
384.927166
 20
296.913524
 40
1.301
 50
240.027532
 51
299.976472
  0
ARC
  8
APS_GEOMETRY
 10
384.6108
 20
296.370038
 40
0.67215
 50
209.746055
 51
240.244046
  0
LINE
  8
APS_GEOMETRY
 10
387.170637
 11
386.920637
 20
297.989378
 21
297.989378
  0
LINE
  8
APS_GEOMETRY
 10
386.920637
 11
386.920637
 20
297.989378
 21
298.239378
  0
LINE
  8
APS_GEOMETRY
 10
386.920637
 11
387.170637
 20
298.239378
 21
298.239378
  0
LINE
  8
APS_GEOMETRY
 10
387.170637
 11
387.170637
 20
298.239378
 21
297.989378
  0
LINE
  8
APS_GEOMETRY
 10
387.170637
 11
386.920637
 20
296.748891
 21
296.748891
  0
LINE
  8
APS_GEOMETRY
 10
386.920637
 11
386.920637
 20
296.748891
 21
296.998891
  0
LINE
  8
APS_GEOMETRY
 10
386.920637
 11
387.170637
 20
296.998891
 21
296.998891
  0
LINE
  8
APS_GEOMETRY
 10
387.170637
 11
387.170637
 20
296.998891
 21
296.748891
  0
LINE
  8
APS_GEOMETRY
 10
388.252253
 11
391.252253
 20
295.550498
 21
300.050498
  0
LINE
  8
APS_GEOMETRY
 10
392.252253
 11
395.252253
 20
295.550498
 21
300.050498
  0
LINE
  8
APS_GEOMETRY
 10
396.286893
 11
397.436893
 20
298.811397
 21
295.561397
  0
LINE
  8
APS_GEOMETRY
 10
396.286893
 11
396.686893
 20
294.311397
 21
294.311397
  0
LINE
  8
APS_GEOMETRY
 10
396.686893
 11
396.886893
 20
294.311397
 21
294.361397
  0
LINE
  8
APS_GEOMETRY
 10
396.886893
 11
397.036893
 20
294.361397
 21
294.461397
  0
LINE
  8
APS_GEOMETRY
 10
397.036893
 11
397.136893
 20
294.461397
 21
294.611397
  0
LINE
  8
APS_GEOMETRY
 10
397.136893
 11
398.436893
 20
294.611397
 21
298.811397
  0
ARC
  8
APS_GEOMETRY
 10
400.191285
 20
296.787508
 40
1.17055
 50
206.2329
 51
333.7671
  0
ARC
  8
APS_GEOMETRY
 10
399.44258
 20
297.170117
 40
2.0113
 50
333.417878
 51
26.581314
  0
ARC
  8
APS_GEOMETRY
 10
400.191289
 20
297.552717
 40
1.17055
 50
26.231996
 51
153.7676
  0
ARC
  8
APS_GEOMETRY
 10
400.939994
 20
297.170108
 40
2.0113
 50
153.418164
 51
206.581836
  0
LINE
  8
APS_GEOMETRY
 10
401.880037
 11
401.879999
 20
298.768684
 21
296.468668
  0
ARC
  8
APS_GEOMETRY
 10
402.725538
 20
296.464223
 40
0.84555
 50
179.698802
 51
270.305782
  0
ARC
  8
APS_GEOMETRY
 10
402.731187
 20
297.073084
 40
1.4544
 50
269.9552
 51
333.2598
  0
LINE
  8
APS_GEOMETRY
 10
404.030037
 11
404.030037
 20
298.768684
 21
295.618684
  0
LINE
  8
APS_GEOMETRY
 10
405.578142
 11
405.578142
 20
300.092562
 21
295.592562
  0
LINE
  8
APS_GEOMETRY
 10
404.978142
 11
406.228142
 20
298.692562
 21
298.692562
  0
LINE
  8
APS_GEOMETRY
 10
407.280098
 11
407.28006
 20
298.768684
 21
296.468668
  0
ARC
  8
APS_GEOMETRY
 10
408.125598
 20
296.464223
 40
0.84555
 50
179.698802
 51
270.305782
  0
ARC
  8
APS_GEOMETRY
 10
408.131248
 20
297.073084
 40
1.4544
 50
269.9552
 51
333.2598
  0
LINE
  8
APS_GEOMETRY
 10
409.430098
 11
409.430098
 20
298.768684
 21
295.618684
  0
CIRCLE
  8
APS_GEOMETRY
 10
410.887411
 20
296.094457
 40
0.5
  0
LINE
  8
APS_GEOMETRY
 10
412.395944
 11
412.395944
 20
295.592562
 21
300.092562
  0
ARC
  8
APS_GEOMETRY
 10
413.450694
 20
296.828912
 40
1.28635
 50
214.9193
 51
269.7887
  0
ARC
  8
APS_GEOMETRY
 10
413.443747
 20
296.719219
 40
1.17665
 50
270.107261
 51
333.411436
  0
ARC
  8
APS_GEOMETRY
 10
412.697248
 20
297.092554
 40
2.0113
 50
333.419009
 51
26.581852
  0
ARC
  8
APS_GEOMETRY
 10
413.443736
 20
297.465912
 40
1.17665
 50
26.58881
 51
89.892414
  0
ARC
  8
APS_GEOMETRY
 10
413.450699
 20
297.356219
 40
1.28635
 50
90.211714
 51
145.081065
  0
LINE
  8
APS_GEOMETRY
 10
415.222087
 11
417.622092
 20
297.420124
 21
297.420116
  0
ARC
  8
APS_GEOMETRY
 10
416.139336
 20
297.474409
 40
1.48375
 50
357.902951
 51
30.171303
  0
ARC
  8
APS_GEOMETRY
 10
416.470287
 20
297.671573
 40
1.09855
 50
29.956335
 51
89.906216
  0
ARC
  8
APS_GEOMETRY
 10
416.474294
 20
297.593474
 40
1.17665
 50
90.107586
 51
153.41119
  0
ARC
  8
APS_GEOMETRY
 10
417.220783
 20
297.220116
 40
2.0113
 50
153.418148
 51
206.580991
  0
ARC
  8
APS_GEOMETRY
 10
416.474283
 20
296.84678
 40
1.17665
 50
206.588564
 51
269.892739
  0
ARC
  8
APS_GEOMETRY
 10
416.467337
 20
296.956474
 40
1.28635
 50
270.2113
 51
325.0807
  0
LINE
  8
APS_GEOMETRY
 10
418.203772
 11
421.203772
 20
295.550498
 21
300.050498
  0
LINE
  8
APS_GEOMETRY
 10
421.739855
 11
423.073189
 20
300.719763
 21
295.719763
  0
LINE
  8
APS_GEOMETRY
 10
423.073189
 11
423.1843
 20
295.719763
 21
295.719763
  0
LINE
  8
APS_GEOMETRY
 10
423.1843
 11
424.462078
 20
295.719763
 21
300.719763
  0
LINE
  8
APS_GEOMETRY
 10
424.462078
 11
424.573189
 20
300.719763
 21
300.719763
  0
LINE
  8
APS_GEOMETRY
 10
424.573189
 11
425.850966
 20
300.719763
 21
295.719763
  0
LINE
  8
APS_GEOMETRY
 10
425.850966
 11
425.962078
 20
295.719763
 21
295.719763
  0
LINE
  8
APS_GEOMETRY
 10
425.962078
 11
427.295411
 20
295.719763
 21
300.719763
  0
LINE
  8
APS_GEOMETRY
 10
429.677712
 11
427.677712
 20
295.592562
 21
295.592562
  0
LINE
  8
APS_GEOMETRY
 10
427.677712
 11
427.677712
 20
295.592562
 21
295.692562
  0
LINE
  8
APS_GEOMETRY
 10
427.677712
 11
429.677712
 20
295.692562
 21
298.692562
  0
LINE
  8
APS_GEOMETRY
 10
429.677712
 11
429.677712
 20
298.692562
 21
298.792562
  0
LINE
  8
APS_GEOMETRY
 10
429.677712
 11
427.927712
 20
298.792562
 21
298.792562
  0
ARC
  8
APS_GEOMETRY
 10
431.464283
 20
297.356608
 40
1.28635
 50
34.918935
 51
89.788286
  0
ARC
  8
APS_GEOMETRY
 10
431.471245
 20
297.466301
 40
1.17665
 50
90.107586
 51
153.41119
  0
ARC
  8
APS_GEOMETRY
 10
432.217734
 20
297.092943
 40
2.0113
 50
153.418148
 51
206.580991
  0
ARC
  8
APS_GEOMETRY
 10
431.471234
 20
296.719607
 40
1.17665
 50
206.588564
 51
269.892739
  0
ARC
  8
APS_GEOMETRY
 10
431.464287
 20
296.829301
 40
1.28635
 50
270.2113
 51
325.0807
  0
LINE
  8
APS_GEOMETRY
 10
432.99032
 11
434.99032
 20
298.203673
 21
298.203673
  0
ARC
  8
APS_GEOMETRY
 10
434.99032
 20
299.398118
 40
1.194445
 50
270.0
 51
90.0
  0
LINE
  8
APS_GEOMETRY
 10
434.99032
 11
432.99032
 20
300.592562
 21
300.592562
  0
LINE
  8
APS_GEOMETRY
 10
432.99032
 11
432.99032
 20
300.592562
 21
295.592562
  0
LINE
  8
APS_GEOMETRY
 10
432.99032
 11
435.045876
 20
295.592562
 21
295.592562
  0
ARC
  8
APS_GEOMETRY
 10
435.045876
 20
296.898118
 40
1.305556
 50
270.0
 51
90.0
  0
ARC
  8
APS_GEOMETRY
 10
438.628377
 20
297.417996
 40
1.28635
 50
34.918935
 51
89.788286
  0
ARC
  8
APS_GEOMETRY
 10
438.63534
 20
297.527689
 40
1.17665
 50
90.107586
 51
153.41119
  0
ARC
  8
APS_GEOMETRY
 10
439.381828
 20
297.154331
 40
2.0113
 50
153.418148
 51
206.580991
  0
ARC
  8
APS_GEOMETRY
 10
438.635329
 20
296.780996
 40
1.17665
 50
206.588564
 51
269.892739
  0
ARC
  8
APS_GEOMETRY
 10
438.628382
 20
296.890689
 40
1.28635
 50
270.2113
 51
325.0807
  0
LINE
  8
APS_GEOMETRY
 10
439.699082
 11
439.699082
 20
298.830239
 21
295.680239
  0
ARC
  8
APS_GEOMETRY
 10
441.760147
 20
296.844043
 40
1.28635
 50
214.9193
 51
269.7887
  0
ARC
  8
APS_GEOMETRY
 10
441.753201
 20
296.73435
 40
1.17665
 50
270.107261
 51
333.411436
  0
ARC
  8
APS_GEOMETRY
 10
441.006701
 20
297.107685
 40
2.0113
 50
333.419009
 51
26.581852
  0
ARC
  8
APS_GEOMETRY
 10
441.753189
 20
297.481043
 40
1.17665
 50
26.58881
 51
89.892414
  0
ARC
  8
APS_GEOMETRY
 10
441.760152
 20
297.37135
 40
1.28635
 50
90.211714
 51
145.081065
  0
LINE
  8
APS_GEOMETRY
 10
440.705397
 11
440.705397
 20
298.707693
 21
294.357693
  0
LINE
  8
APS_GEOMETRY
 10
443.415882
 11
445.360327
 20
300.574526
 21
297.796748
  0
LINE
  8
APS_GEOMETRY
 10
445.360327
 11
445.360327
 20
297.796748
 21
295.574526
  0
LINE
  8
APS_GEOMETRY
 10
445.360327
 11
447.304771
 20
297.796748
 21
300.574526
  0
LINE
  8
APS_GEOMETRY
 10
447.731483
 11
447.731483
 20
295.592562
 21
300.092562
  0
LINE
  8
APS_GEOMETRY
 10
449.881483
 11
449.881521
 20
295.592562
 21
297.892579
  0
ARC
  8
APS_GEOMETRY
 10
449.035982
 20
297.897024
 40
0.84555
 50
359.698802
 51
90.305782
  0
ARC
  8
APS_GEOMETRY
 10
449.030333
 20
297.288162
 40
1.4544
 50
89.9552
 51
153.2598
  0
LINE
  8
APS_GEOMETRY
 10
450.454832
 11
452.399276
 20
300.574526
 21
297.796748
  0
LINE
  8
APS_GEOMETRY
 10
452.399276
 11
452.399276
 20
297.796748
 21
295.574526
  0
LINE
  8
APS_GEOMETRY
 10
452.399276
 11
454.343721
 20
297.796748
 21
300.574526
  0
LINE
  8
APS_GEOMETRY
 10
454.804646
 11
454.804608
 20
298.768684
 21
296.468668
  0
ARC
  8
APS_GEOMETRY
 10
455.650146
 20
296.464223
 40
0.84555
 50
179.698802
 51
270.305782
  0
ARC
  8
APS_GEOMETRY
 10
455.655796
 20
297.073084
 40
1.4544
 50
269.9552
 51
333.2598
  0
LINE
  8
APS_GEOMETRY
 10
456.954646
 11
456.954646
 20
298.768684
 21
295.618684
  0
ARC
  8
APS_GEOMETRY
 10
459.507295
 20
295.692659
 40
0.729667
 50
12.148823
 51
63.601209
  0
LINE
  8
APS_GEOMETRY
 10
460.220621
 11
460.276163
 20
295.846219
 21
295.512894
  0
ARC
  8
APS_GEOMETRY
 10
460.766121
 20
295.626941
 40
0.503056
 50
193.1034
 51
271.1466
  0
ARC
  8
APS_GEOMETRY
 10
458.300009
 20
298.096219
 40
3.044222
 50
320.9784
 51
39.0216
  0
ARC
  8
APS_GEOMETRY
 10
459.387316
 20
298.989644
 40
1.637
 50
38.688157
 51
141.312908
  0
ARC
  8
APS_GEOMETRY
 10
460.474594
 20
298.096183
 40
3.044222
 50
140.978113
 51
219.020738
  0
ARC
  8
APS_GEOMETRY
 10
459.387287
 20
297.202758
 40
1.637
 50
218.686549
 51
321.313451
  0
ENDSEC
  0
EOF
