  0
SECTION
  2
ENTITIES
  0
CIRCLE
  8
APS_GEOMETRY
 10
174.879029
 20
233.042389
 40
1.5
  0
CIRCLE
  8
APS_GEOMETRY
 10
146.879029
 20
233.042389
 40
1.5
  0
CIRCLE
  8
APS_GEOMETRY
 10
200.376391
 20
282.250631
 40
4.95
  0
CIRCLE
  8
APS_GEOMETRY
 10
200.376391
 20
282.250631
 40
1.5
  0
CIRCLE
  8
APS_GEOMETRY
 10
154.686843
 20
245.598536
 40
1.5
  0
CIRCLE
  8
APS_GEOMETRY
 10
167.071215
 20
245.598536
 40
1.5
  0
CIRCLE
  8
APS_GEOMETRY
 10
147.342552
 20
183.410061
 40
1.5
  0
CIRCLE
  8
APS_GEOMETRY
 10
155.150366
 20
195.966208
 40
1.5
  0
CIRCLE
  8
APS_GEOMETRY
 10
167.534738
 20
195.966208
 40
1.5
  0
CIRCLE
  8
APS_GEOMETRY
 10
175.342552
 20
183.410061
 40
1.5
  0
CIRCLE
  8
APS_GEOMETRY
 10
161.342552
 20
183.410061
 40
1.5
  0
CIRCLE
  8
APS_GEOMETRY
 10
213.975952
 20
252.549801
 40
1.5
  0
CIRCLE
  8
APS_GEOMETRY
 10
185.975952
 20
252.549801
 40
1.5
  0
CIRCLE
  8
APS_GEOMETRY
 10
215.070094
 20
212.248649
 40
1.5
  0
CIRCLE
  8
APS_GEOMETRY
 10
187.070094
 20
212.248649
 40
1.5
  0
CIRCLE
  8
APS_GEOMETRY
 10
215.587783
 20
174.207247
 40
1.5
  0
CIRCLE
  8
APS_GEOMETRY
 10
187.587783
 20
174.207247
 40
1.5
  0
CIRCLE
  8
APS_GEOMETRY
 10
193.783766
 20
265.105948
 40
1.5
  0
CIRCLE
  8
APS_GEOMETRY
 10
206.168138
 20
265.105948
 40
1.5
  0
CIRCLE
  8
APS_GEOMETRY
 10
194.877908
 20
224.804796
 40
1.5
  0
CIRCLE
  8
APS_GEOMETRY
 10
207.26228
 20
224.804796
 40
1.5
  0
CIRCLE
  8
APS_GEOMETRY
 10
195.395597
 20
186.763394
 40
1.5
  0
CIRCLE
  8
APS_GEOMETRY
 10
207.779969
 20
186.763394
 40
1.5
  0
CIRCLE
  8
APS_GEOMETRY
 10
176.548066
 20
270.965675
 40
1.5
  0
CIRCLE
  8
APS_GEOMETRY
 10
148.548066
 20
270.965675
 40
1.5
  0
CIRCLE
  8
APS_GEOMETRY
 10
156.35588
 20
283.521822
 40
1.5
  0
CIRCLE
  8
APS_GEOMETRY
 10
168.740252
 20
283.521822
 40
1.5
  0
CIRCLE
  8
APS_GEOMETRY
 10
258.774614
 20
271.400653
 40
12.5
  0
CIRCLE
  8
APS_GEOMETRY
 10
258.774614
 20
271.400653
 40
1.5
  0
CIRCLE
  8
APS_GEOMETRY
 10
388.122929
 20
285.947901
 40
0.5
  0
CIRCLE
  8
APS_GEOMETRY
 10
432.941326
 20
285.947901
 40
0.5
  0
CIRCLE
  8
APS_GEOMETRY
 10
422.2346
 20
255.947901
 40
0.5
  0
CIRCLE
  8
APS_GEOMETRY
 10
432.216461
 20
255.947901
 40
0.5
  0
ARC
  8
APS_GEOMETRY
 10
160.879029
 20
233.042389
 40
17.0
 50
318.189685
 51
138.189685
  0
ARC
  8
APS_GEOMETRY
 10
160.879029
 20
233.042389
 40
17.0
 50
138.189685
 51
264.26083
  0
ARC
  8
APS_GEOMETRY
 10
159.279029
 20
217.12259
 40
1.0
 50
264.260838
 51
360.0
  0
LINE
  8
APS_GEOMETRY
 10
160.279029
 11
160.279029
 20
217.12259
 21
227.776461
  0
ARC
  8
APS_GEOMETRY
 10
160.879028
 20
233.042389
 40
5.3
 50
243.70858
 51
263.499756
  0
LINE
  8
APS_GEOMETRY
 10
158.531463
 11
154.444357
 20
228.29066
 21
224.203554
  0
LINE
  8
APS_GEOMETRY
 10
154.444357
 11
152.040194
 20
224.203554
 21
226.607717
  0
LINE
  8
APS_GEOMETRY
 10
152.040194
 11
156.1273
 20
226.607717
 21
230.694823
  0
ARC
  8
APS_GEOMETRY
 10
160.879029
 20
233.04239
 40
5.3
 50
333.708566
 51
153.708566
  0
ARC
  8
APS_GEOMETRY
 10
160.879029
 20
233.04239
 40
5.3
 50
153.708566
 51
206.29143
  0
LINE
  8
APS_GEOMETRY
 10
165.630758
 11
169.717864
 20
230.694823
 21
226.607717
  0
LINE
  8
APS_GEOMETRY
 10
169.717864
 11
167.313701
 20
226.607717
 21
224.203554
  0
LINE
  8
APS_GEOMETRY
 10
167.313701
 11
163.226595
 20
224.203554
 21
228.29066
  0
ARC
  8
APS_GEOMETRY
 10
160.879028
 20
233.042389
 40
5.3
 50
276.500266
 51
296.291441
  0
LINE
  8
APS_GEOMETRY
 10
161.479029
 11
161.479029
 20
227.776461
 21
217.12259
  0
ARC
  8
APS_GEOMETRY
 10
162.479029
 20
217.12259
 40
1.0
 50
180.0
 51
275.73917
  0
ARC
  8
APS_GEOMETRY
 10
160.879029
 20
233.042389
 40
17.0
 50
275.73917
 51
318.189685
  0
ARC
  8
APS_GEOMETRY
 10
150.842552
 20
157.419189
 40
2.0
 50
90.0
 51
270.0
  0
LINE
  8
APS_GEOMETRY
 10
150.842552
 11
171.842552
 20
155.419189
 21
155.419189
  0
ARC
  8
APS_GEOMETRY
 10
171.842552
 20
157.419189
 40
2.0
 50
270.0
 51
90.0
  0
LINE
  8
APS_GEOMETRY
 10
171.842552
 11
169.842552
 20
159.419189
 21
159.419189
  0
LINE
  8
APS_GEOMETRY
 10
169.842552
 11
169.842552
 20
159.419189
 21
163.419189
  0
LINE
  8
APS_GEOMETRY
 10
169.842552
 11
171.842552
 20
163.419189
 21
163.419189
  0
ARC
  8
APS_GEOMETRY
 10
171.842552
 20
165.419189
 40
2.0
 50
270.0
 51
0.0
  0
LINE
  8
APS_GEOMETRY
 10
173.842552
 11
173.842552
 20
165.419189
 21
171.132032
  0
ARC
  8
APS_GEOMETRY
 10
175.842552
 20
171.132032
 40
2.0
 50
139.743387
 51
180.0
  0
ARC
  8
APS_GEOMETRY
 10
161.342552
 20
183.410061
 40
17.0
 50
319.743388
 51
40.256613
  0
ARC
  8
APS_GEOMETRY
 10
175.842552
 20
195.68809
 40
2.0
 50
180.000005
 51
220.256609
  0
LINE
  8
APS_GEOMETRY
 10
173.842552
 11
173.842552
 20
195.68809
 21
201.400933
  0
ARC
  8
APS_GEOMETRY
 10
171.842552
 20
201.400933
 40
2.0
 50
0.0
 51
90.0
  0
LINE
  8
APS_GEOMETRY
 10
171.842552
 11
169.842552
 20
203.400933
 21
203.400933
  0
LINE
  8
APS_GEOMETRY
 10
169.842552
 11
169.842552
 20
203.400933
 21
207.400933
  0
LINE
  8
APS_GEOMETRY
 10
169.842552
 11
171.842552
 20
207.400933
 21
207.400933
  0
ARC
  8
APS_GEOMETRY
 10
171.842552
 20
209.400933
 40
2.0
 50
270.0
 51
90.0
  0
LINE
  8
APS_GEOMETRY
 10
171.842552
 11
150.842552
 20
211.400933
 21
211.400933
  0
ARC
  8
APS_GEOMETRY
 10
150.842552
 20
209.400933
 40
2.0
 50
90.0
 51
270.0
  0
LINE
  8
APS_GEOMETRY
 10
150.842552
 11
152.842552
 20
207.400933
 21
207.400933
  0
LINE
  8
APS_GEOMETRY
 10
152.842552
 11
152.842552
 20
207.400933
 21
203.400933
  0
LINE
  8
APS_GEOMETRY
 10
152.842552
 11
150.842552
 20
203.400933
 21
203.400933
  0
ARC
  8
APS_GEOMETRY
 10
150.842552
 20
201.400933
 40
2.0
 50
90.0
 51
180.0
  0
LINE
  8
APS_GEOMETRY
 10
148.842552
 11
148.842552
 20
201.400933
 21
195.68809
  0
ARC
  8
APS_GEOMETRY
 10
146.842552
 20
195.68809
 40
2.0
 50
319.743387
 51
360.0
  0
ARC
  8
APS_GEOMETRY
 10
161.342552
 20
183.410061
 40
17.0
 50
139.743388
 51
220.256613
  0
ARC
  8
APS_GEOMETRY
 10
146.842552
 20
171.132032
 40
2.0
 50
0.000005
 51
40.256609
  0
LINE
  8
APS_GEOMETRY
 10
148.842552
 11
148.842552
 20
171.132032
 21
165.419189
  0
ARC
  8
APS_GEOMETRY
 10
150.842552
 20
165.419189
 40
2.0
 50
180.0
 51
270.0
  0
LINE
  8
APS_GEOMETRY
 10
150.842552
 11
152.842552
 20
163.419189
 21
163.419189
  0
LINE
  8
APS_GEOMETRY
 10
152.842552
 11
152.842552
 20
163.419189
 21
159.419189
  0
LINE
  8
APS_GEOMETRY
 10
152.842552
 11
150.842552
 20
159.419189
 21
159.419189
  0
LINE
  8
APS_GEOMETRY
 10
213.010543
 11
207.719117
 20
263.463071
 21
258.171645
  0
LINE
  8
APS_GEOMETRY
 10
207.719117
 11
208.567645
 20
258.171645
 21
257.323117
  0
LINE
  8
APS_GEOMETRY
 10
208.567645
 11
206.941299
 20
257.323117
 21
255.696772
  0
LINE
  8
APS_GEOMETRY
 10
206.941299
 11
206.092771
 20
255.696772
 21
256.5453
  0
LINE
  8
APS_GEOMETRY
 10
206.092771
 11
204.631052
 20
256.5453
 21
255.083581
  0
ARC
  8
APS_GEOMETRY
 10
199.975952
 20
252.549801
 40
5.3
 50
349.474389
 51
28.559542
  0
LINE
  8
APS_GEOMETRY
 10
205.186771
 11
209.734026
 20
251.581623
 21
247.034368
  0
LINE
  8
APS_GEOMETRY
 10
209.734026
 11
205.491385
 20
247.034368
 21
242.791728
  0
LINE
  8
APS_GEOMETRY
 10
205.491385
 11
200.94413
 20
242.791728
 21
247.338982
  0
ARC
  8
APS_GEOMETRY
 10
199.975954
 20
252.549801
 40
5.3
 50
259.474364
 51
280.525595
  0
LINE
  8
APS_GEOMETRY
 10
199.007774
 11
194.460519
 20
247.338983
 21
242.791728
  0
LINE
  8
APS_GEOMETRY
 10
194.460519
 11
190.217879
 20
242.791728
 21
247.034368
  0
LINE
  8
APS_GEOMETRY
 10
190.217879
 11
194.765133
 20
247.034368
 21
251.581623
  0
ARC
  8
APS_GEOMETRY
 10
199.975952
 20
252.549801
 40
5.3
 50
151.440458
 51
190.52561
  0
LINE
  8
APS_GEOMETRY
 10
195.320852
 11
193.859134
 20
255.083581
 21
256.5453
  0
LINE
  8
APS_GEOMETRY
 10
193.859134
 11
193.010606
 20
256.5453
 21
255.696772
  0
LINE
  8
APS_GEOMETRY
 10
193.010606
 11
191.38426
 20
255.696772
 21
257.323117
  0
LINE
  8
APS_GEOMETRY
 10
191.38426
 11
192.232788
 20
257.323117
 21
258.171645
  0
LINE
  8
APS_GEOMETRY
 10
192.232788
 11
186.941362
 20
258.171645
 21
263.463071
  0
ARC
  8
APS_GEOMETRY
 10
199.975952
 20
252.549801
 40
17.0
 50
140.062093
 51
320.062093
  0
ARC
  8
APS_GEOMETRY
 10
199.975952
 20
252.549801
 40
17.0
 50
320.062093
 51
37.421352
  0
ARC
  8
APS_GEOMETRY
 10
199.975952
 20
252.549801
 40
5.3
 50
61.440463
 51
118.559537
  0
LINE
  8
APS_GEOMETRY
 10
197.442172
 11
195.980454
 20
257.204901
 21
258.66662
  0
LINE
  8
APS_GEOMETRY
 10
195.980454
 11
196.828982
 20
258.66662
 21
259.515148
  0
LINE
  8
APS_GEOMETRY
 10
196.828982
 11
195.202637
 20
259.515148
 21
261.141494
  0
LINE
  8
APS_GEOMETRY
 10
195.202637
 11
194.354108
 20
261.141494
 21
260.292966
  0
LINE
  8
APS_GEOMETRY
 10
194.354108
 11
189.062683
 20
260.292966
 21
265.584392
  0
ARC
  8
APS_GEOMETRY
 10
199.975952
 20
252.549801
 40
17.0
 50
50.062093
 51
129.937903
  0
LINE
  8
APS_GEOMETRY
 10
210.889222
 11
205.597796
 20
265.584391
 21
260.292966
  0
LINE
  8
APS_GEOMETRY
 10
205.597796
 11
204.749268
 20
260.292966
 21
261.141494
  0
LINE
  8
APS_GEOMETRY
 10
204.749268
 11
203.122923
 20
261.141494
 21
259.515148
  0
LINE
  8
APS_GEOMETRY
 10
203.122923
 11
203.971451
 20
259.515148
 21
258.66662
  0
LINE
  8
APS_GEOMETRY
 10
203.971451
 11
202.509732
 20
258.66662
 21
257.204901
  0
CIRCLE
  8
APS_GEOMETRY
 10
201.070094
 20
212.248649
 40
17.0
  0
ARC
  8
APS_GEOMETRY
 10
201.070094
 20
212.248649
 40
5.3
 50
243.708573
 51
296.291427
  0
LINE
  8
APS_GEOMETRY
 10
203.41766
 11
207.504766
 20
207.49692
 21
203.409814
  0
LINE
  8
APS_GEOMETRY
 10
207.504766
 11
209.908929
 20
203.409814
 21
205.813977
  0
LINE
  8
APS_GEOMETRY
 10
209.908929
 11
205.821824
 20
205.813977
 21
209.901082
  0
ARC
  8
APS_GEOMETRY
 10
201.070094
 20
212.248649
 40
5.3
 50
333.708571
 51
153.708571
  0
ARC
  8
APS_GEOMETRY
 10
201.070094
 20
212.248649
 40
5.3
 50
153.708571
 51
206.291422
  0
LINE
  8
APS_GEOMETRY
 10
196.318365
 11
192.231259
 20
209.901083
 21
205.813977
  0
LINE
  8
APS_GEOMETRY
 10
192.231259
 11
194.635422
 20
205.813977
 21
203.409814
  0
LINE
  8
APS_GEOMETRY
 10
194.635422
 11
198.722528
 20
203.409814
 21
207.49692
  0
CIRCLE
  8
APS_GEOMETRY
 10
201.587783
 20
174.207247
 40
17.0
  0
ARC
  8
APS_GEOMETRY
 10
201.587783
 20
174.207247
 40
5.3
 50
243.708573
 51
296.291427
  0
LINE
  8
APS_GEOMETRY
 10
203.935349
 11
208.022455
 20
169.455518
 21
165.368412
  0
LINE
  8
APS_GEOMETRY
 10
208.022455
 11
210.426618
 20
165.368412
 21
167.772575
  0
LINE
  8
APS_GEOMETRY
 10
210.426618
 11
206.339512
 20
167.772575
 21
171.859681
  0
ARC
  8
APS_GEOMETRY
 10
201.587056
 20
174.205776
 40
5.3
 50
333.726315
 51
153.690833
  0
ARC
  8
APS_GEOMETRY
 10
201.587783
 20
174.207247
 40
5.3
 50
153.708573
 51
206.291427
  0
LINE
  8
APS_GEOMETRY
 10
196.836054
 11
192.748948
 20
171.859681
 21
167.772575
  0
LINE
  8
APS_GEOMETRY
 10
192.748948
 11
195.153111
 20
167.772575
 21
165.368412
  0
LINE
  8
APS_GEOMETRY
 10
195.153111
 11
199.240217
 20
165.368412
 21
169.455518
  0
LINE
  8
APS_GEOMETRY
 10
175.582656
 11
170.29123
 20
281.878945
 21
276.587519
  0
LINE
  8
APS_GEOMETRY
 10
170.29123
 11
171.139759
 20
276.587519
 21
275.738991
  0
LINE
  8
APS_GEOMETRY
 10
171.139759
 11
169.513413
 20
275.738991
 21
274.112645
  0
LINE
  8
APS_GEOMETRY
 10
169.513413
 11
168.664885
 20
274.112645
 21
274.961173
  0
LINE
  8
APS_GEOMETRY
 10
168.664885
 11
167.203166
 20
274.961173
 21
273.499455
  0
ARC
  8
APS_GEOMETRY
 10
162.548066
 20
270.965675
 40
5.3
 50
349.474389
 51
28.559542
  0
LINE
  8
APS_GEOMETRY
 10
167.758885
 11
172.30614
 20
269.997497
 21
265.450242
  0
LINE
  8
APS_GEOMETRY
 10
172.30614
 11
168.063499
 20
265.450242
 21
261.207601
  0
LINE
  8
APS_GEOMETRY
 10
168.063499
 11
163.516244
 20
261.207601
 21
265.754856
  0
ARC
  8
APS_GEOMETRY
 10
162.548065
 20
270.965675
 40
5.3
 50
259.474394
 51
280.525624
  0
LINE
  8
APS_GEOMETRY
 10
161.579888
 11
157.032633
 20
265.754856
 21
261.207601
  0
LINE
  8
APS_GEOMETRY
 10
157.032633
 11
152.789993
 20
261.207601
 21
265.450242
  0
LINE
  8
APS_GEOMETRY
 10
152.789993
 11
157.337247
 20
265.450242
 21
269.997497
  0
ARC
  8
APS_GEOMETRY
 10
162.548066
 20
270.965675
 40
5.3
 50
151.440458
 51
190.52561
  0
LINE
  8
APS_GEOMETRY
 10
157.892966
 11
156.431247
 20
273.499455
 21
274.961173
  0
LINE
  8
APS_GEOMETRY
 10
156.431247
 11
155.582719
 20
274.961173
 21
274.112645
  0
LINE
  8
APS_GEOMETRY
 10
155.582719
 11
153.956374
 20
274.112645
 21
275.738991
  0
LINE
  8
APS_GEOMETRY
 10
153.956374
 11
154.804902
 20
275.738991
 21
276.587519
  0
LINE
  8
APS_GEOMETRY
 10
154.804902
 11
149.513476
 20
276.587519
 21
281.878945
  0
ARC
  8
APS_GEOMETRY
 10
162.548066
 20
270.965675
 40
17.0
 50
140.062093
 51
320.062093
  0
ARC
  8
APS_GEOMETRY
 10
162.548066
 20
270.965675
 40
17.0
 50
320.062093
 51
37.421352
  0
ARC
  8
APS_GEOMETRY
 10
162.548066
 20
270.965675
 40
5.3
 50
61.440463
 51
118.559537
  0
LINE
  8
APS_GEOMETRY
 10
160.014286
 11
158.552568
 20
275.620775
 21
277.082493
  0
LINE
  8
APS_GEOMETRY
 10
158.552568
 11
159.401096
 20
277.082493
 21
277.931022
  0
LINE
  8
APS_GEOMETRY
 10
159.401096
 11
157.77475
 20
277.931022
 21
279.557367
  0
LINE
  8
APS_GEOMETRY
 10
157.77475
 11
156.926222
 20
279.557367
 21
278.708839
  0
LINE
  8
APS_GEOMETRY
 10
156.926222
 11
151.634796
 20
278.708839
 21
284.000265
  0
ARC
  8
APS_GEOMETRY
 10
162.548066
 20
270.965675
 40
17.0
 50
50.062093
 51
129.937908
  0
LINE
  8
APS_GEOMETRY
 10
173.461336
 11
168.16991
 20
284.000265
 21
278.708839
  0
LINE
  8
APS_GEOMETRY
 10
168.16991
 11
167.321382
 20
278.708839
 21
279.557367
  0
LINE
  8
APS_GEOMETRY
 10
167.321382
 11
165.695036
 20
279.557367
 21
277.931022
  0
LINE
  8
APS_GEOMETRY
 10
165.695036
 11
166.543564
 20
277.931022
 21
277.082493
  0
LINE
  8
APS_GEOMETRY
 10
166.543564
 11
165.081846
 20
277.082493
 21
275.620775
  0
ARC
  8
APS_GEOMETRY
 10
160.894576
 20
143.710616
 40
1.865667
 50
202.7274
 51
247.2726
  0
ARC
  8
APS_GEOMETRY
 10
160.923772
 20
143.744772
 40
1.9085
 50
246.860301
 51
293.140747
  0
ARC
  8
APS_GEOMETRY
 10
160.964187
 20
143.667901
 40
1.821945
 50
292.922074
 51
357.893276
  0
ARC
  8
APS_GEOMETRY
 10
161.144629
 20
143.658395
 40
1.641278
 50
357.993346
 51
71.191208
  0
ARC
  8
APS_GEOMETRY
 10
160.923688
 20
143.00619
 40
2.329889
 50
71.219133
 51
108.775449
  0
ARC
  8
APS_GEOMETRY
 10
160.776187
 20
143.405847
 40
1.904056
 50
108.443885
 51
138.941046
  0
LINE
  8
APS_GEOMETRY
 10
159.340464
 11
159.729354
 20
144.656498
 21
146.878728
  0
LINE
  8
APS_GEOMETRY
 10
159.729354
 11
162.229354
 20
146.878728
 21
146.878728
  0
LINE
  8
APS_GEOMETRY
 10
165.918657
 11
165.918694
 20
141.876837
 21
144.176854
  0
ARC
  8
APS_GEOMETRY
 10
165.073156
 20
144.181299
 40
0.84555
 50
359.698802
 51
90.305782
  0
ARC
  8
APS_GEOMETRY
 10
165.067507
 20
143.572437
 40
1.4544
 50
89.95524
 51
153.259818
  0
LINE
  8
APS_GEOMETRY
 10
168.068657
 11
168.068694
 20
141.876837
 21
144.176854
  0
ARC
  8
APS_GEOMETRY
 10
167.223156
 20
144.181299
 40
0.84555
 50
359.698802
 51
90.305782
  0
ARC
  8
APS_GEOMETRY
 10
167.217507
 20
143.572437
 40
1.4544
 50
89.95524
 51
153.259818
  0
LINE
  8
APS_GEOMETRY
 10
171.218717
 11
171.218755
 20
141.876837
 21
144.176854
  0
ARC
  8
APS_GEOMETRY
 10
170.373217
 20
144.181299
 40
0.84555
 50
359.698802
 51
90.305782
  0
ARC
  8
APS_GEOMETRY
 10
170.367567
 20
143.572437
 40
1.4544
 50
89.9552
 51
153.259818
  0
LINE
  8
APS_GEOMETRY
 10
173.368717
 11
173.368755
 20
141.876837
 21
144.176854
  0
ARC
  8
APS_GEOMETRY
 10
172.523217
 20
144.181299
 40
0.84555
 50
359.698802
 51
90.305782
  0
ARC
  8
APS_GEOMETRY
 10
172.517567
 20
143.572437
 40
1.4544
 50
89.9552
 51
153.259818
  0
ARC
  8
APS_GEOMETRY
 10
184.059844
 20
144.380449
 40
3.039389
 50
31.026839
 51
40.045456
  0
ARC
  8
APS_GEOMETRY
 10
185.108805
 20
145.312743
 40
1.637
 50
38.687081
 51
141.311844
  0
ARC
  8
APS_GEOMETRY
 10
186.19614
 20
144.419354
 40
3.044222
 50
140.97926
 51
219.021885
  0
ARC
  8
APS_GEOMETRY
 10
185.108852
 20
143.525906
 40
1.637
 50
218.687654
 51
321.312655
  0
ARC
  8
APS_GEOMETRY
 10
184.041111
 20
144.287762
 40
2.947556
 50
322.726609
 51
335.345901
  0
LINE
  8
APS_GEOMETRY
 10
187.759057
 11
190.147946
 20
144.321282
 21
144.321282
  0
ARC
  8
APS_GEOMETRY
 10
190.147946
 20
145.59906
 40
1.277778
 50
270.0
 51
90.0
  0
LINE
  8
APS_GEOMETRY
 10
190.147946
 11
187.759057
 20
146.876838
 21
146.876838
  0
LINE
  8
APS_GEOMETRY
 10
187.759057
 11
187.759057
 20
146.876838
 21
141.876837
  0
ARC
  8
APS_GEOMETRY
 10
203.873384
 20
144.380449
 40
3.039389
 50
31.026839
 51
40.045456
  0
ARC
  8
APS_GEOMETRY
 10
204.922345
 20
145.312743
 40
1.637
 50
38.687081
 51
141.311844
  0
ARC
  8
APS_GEOMETRY
 10
206.00968
 20
144.419354
 40
3.044222
 50
140.97926
 51
219.021885
  0
ARC
  8
APS_GEOMETRY
 10
204.922392
 20
143.525906
 40
1.637
 50
218.687654
 51
321.312655
  0
ARC
  8
APS_GEOMETRY
 10
203.854651
 20
144.287762
 40
2.947556
 50
322.726609
 51
335.345901
  0
ARC
  8
APS_GEOMETRY
 10
237.1977
 20
246.966296
 40
1.190389
 50
118.020652
 51
169.471675
  0
ARC
  8
APS_GEOMETRY
 10
237.582878
 20
246.261988
 40
1.993111
 50
61.713838
 51
118.283697
  0
ARC
  8
APS_GEOMETRY
 10
237.912518
 20
246.961566
 40
1.221556
 50
300.22001
 51
59.779398
  0
LINE
  8
APS_GEOMETRY
 10
238.527354
 11
236.638478
 20
245.906021
 21
244.739353
  0
ARC
  8
APS_GEOMETRY
 10
237.567534
 20
243.241731
 40
1.762389
 50
121.813563
 51
180.07656
  0
LINE
  8
APS_GEOMETRY
 10
235.805147
 11
239.138478
 20
243.239376
 21
243.239353
  0
LINE
  8
APS_GEOMETRY
 10
242.28848
 11
242.288518
 20
243.239376
 21
245.539393
  0
ARC
  8
APS_GEOMETRY
 10
241.44298
 20
245.543838
 40
0.84555
 50
359.698802
 51
90.305782
  0
ARC
  8
APS_GEOMETRY
 10
241.43733
 20
244.934976
 40
1.4544
 50
89.9552
 51
153.259818
  0
LINE
  8
APS_GEOMETRY
 10
244.43848
 11
244.438518
 20
243.239376
 21
245.539393
  0
ARC
  8
APS_GEOMETRY
 10
243.59298
 20
245.543838
 40
0.84555
 50
359.698802
 51
90.305782
  0
ARC
  8
APS_GEOMETRY
 10
243.58733
 20
244.934976
 40
1.4544
 50
89.9552
 51
153.259818
  0
LINE
  8
APS_GEOMETRY
 10
247.58854
 11
247.588578
 20
243.239376
 21
245.539393
  0
ARC
  8
APS_GEOMETRY
 10
246.74304
 20
245.543838
 40
0.84555
 50
359.698802
 51
90.305782
  0
ARC
  8
APS_GEOMETRY
 10
246.73739
 20
244.934976
 40
1.4544
 50
89.9552
 51
153.259818
  0
LINE
  8
APS_GEOMETRY
 10
249.73854
 11
249.738578
 20
243.239376
 21
245.539393
  0
ARC
  8
APS_GEOMETRY
 10
248.89304
 20
245.543838
 40
0.84555
 50
359.698802
 51
90.305782
  0
ARC
  8
APS_GEOMETRY
 10
248.88739
 20
244.934976
 40
1.4544
 50
89.9552
 51
153.259818
  0
ARC
  8
APS_GEOMETRY
 10
260.429667
 20
245.742988
 40
3.039389
 50
31.026839
 51
40.045456
  0
ARC
  8
APS_GEOMETRY
 10
261.478628
 20
246.675282
 40
1.637
 50
38.687103
 51
141.311867
  0
ARC
  8
APS_GEOMETRY
 10
262.565963
 20
245.781892
 40
3.044222
 50
140.97926
 51
219.021885
  0
ARC
  8
APS_GEOMETRY
 10
261.478675
 20
244.888445
 40
1.637
 50
218.687676
 51
321.312677
  0
ARC
  8
APS_GEOMETRY
 10
260.410934
 20
245.650301
 40
2.947556
 50
322.726609
 51
335.345901
  0
LINE
  8
APS_GEOMETRY
 10
264.128881
 11
266.51777
 20
245.683821
 21
245.68382
  0
ARC
  8
APS_GEOMETRY
 10
266.51777
 20
246.961598
 40
1.277778
 50
270.0
 51
90.0
  0
LINE
  8
APS_GEOMETRY
 10
266.51777
 11
264.128881
 20
248.239376
 21
248.239376
  0
LINE
  8
APS_GEOMETRY
 10
264.128881
 11
264.128881
 20
248.239376
 21
243.239376
  0
ARC
  8
APS_GEOMETRY
 10
280.243207
 20
245.742988
 40
3.039389
 50
31.026839
 51
40.045456
  0
ARC
  8
APS_GEOMETRY
 10
281.292168
 20
246.675282
 40
1.637
 50
38.687103
 51
141.311867
  0
ARC
  8
APS_GEOMETRY
 10
282.379504
 20
245.781893
 40
3.044222
 50
140.979275
 51
219.021899
  0
ARC
  8
APS_GEOMETRY
 10
281.292215
 20
244.888445
 40
1.637
 50
218.687704
 51
321.312649
  0
ARC
  8
APS_GEOMETRY
 10
280.224477
 20
245.650304
 40
2.947556
 50
322.726528
 51
335.34583
  0
LINE
  8
APS_GEOMETRY
 10
367.381797
 11
369.770686
 20
295.39045
 21
295.39045
  0
ARC
  8
APS_GEOMETRY
 10
369.770686
 20
296.668228
 40
1.277778
 50
270.0
 51
90.0
  0
LINE
  8
APS_GEOMETRY
 10
369.770686
 11
367.381797
 20
297.946006
 21
297.946006
  0
LINE
  8
APS_GEOMETRY
 10
367.381797
 11
367.381797
 20
297.946006
 21
292.946006
  0
ARC
  8
APS_GEOMETRY
 10
377.830964
 20
296.31445
 40
1.631556
 50
38.7145
 51
90.1655
  0
LINE
  8
APS_GEOMETRY
 10
377.826251
 11
376.381797
 20
297.945999
 21
297.946006
  0
LINE
  8
APS_GEOMETRY
 10
376.381797
 11
376.381797
 20
297.946006
 21
292.946006
  0
LINE
  8
APS_GEOMETRY
 10
376.381797
 11
377.826241
 20
292.946006
 21
292.946006
  0
ARC
  8
APS_GEOMETRY
 10
377.830959
 20
294.577555
 40
1.631556
 50
269.834318
 51
321.285754
  0
ARC
  8
APS_GEOMETRY
 10
376.77326
 20
295.446006
 40
3.000056
 50
320.978147
 51
39.021837
  0
ARC
  8
APS_GEOMETRY
 10
394.639149
 20
296.31445
 40
1.631556
 50
38.7145
 51
90.1655
  0
LINE
  8
APS_GEOMETRY
 10
394.634436
 11
393.189983
 20
297.945999
 21
297.946006
  0
LINE
  8
APS_GEOMETRY
 10
393.189983
 11
393.189983
 20
297.946006
 21
292.946006
  0
LINE
  8
APS_GEOMETRY
 10
393.189983
 11
394.634427
 20
292.946006
 21
292.946006
  0
ARC
  8
APS_GEOMETRY
 10
394.639145
 20
294.577555
 40
1.631556
 50
269.834318
 51
321.285754
  0
ARC
  8
APS_GEOMETRY
 10
393.581446
 20
295.446005
 40
3.000056
 50
320.978162
 51
39.021852
  0
ARC
  8
APS_GEOMETRY
 10
412.025647
 20
295.979265
 40
2.055222
 50
42.9037
 51
122.5462
  0
ARC
  8
APS_GEOMETRY
 10
411.498082
 20
296.831879
 40
1.052778
 50
123.306708
 51
253.425514
  0
LINE
  8
APS_GEOMETRY
 10
411.197765
 11
412.864425
 20
295.822844
 21
295.267265
  0
ARC
  8
APS_GEOMETRY
 10
412.525084
 20
294.190761
 40
1.128722
 50
299.837948
 51
72.503841
  0
ARC
  8
APS_GEOMETRY
 10
412.003391
 20
295.089942
 40
2.168278
 50
240.022531
 51
299.973996
  0
ARC
  8
APS_GEOMETRY
 10
411.512844
 20
294.249238
 40
1.194945
 50
209.759337
 51
240.255408
  0
LINE
  8
APS_GEOMETRY
 10
418.928893
 11
421.317782
 20
295.39045
 21
295.39045
  0
ARC
  8
APS_GEOMETRY
 10
421.317782
 20
296.668228
 40
1.277778
 50
270.0
 51
90.0
  0
LINE
  8
APS_GEOMETRY
 10
421.317782
 11
418.928893
 20
297.946006
 21
297.946006
  0
LINE
  8
APS_GEOMETRY
 10
418.928893
 11
418.928893
 20
297.946006
 21
292.946006
  0
LINE
  8
APS_GEOMETRY
 10
428.337692
 11
428.337692
 20
297.898545
 21
294.565211
  0
ARC
  8
APS_GEOMETRY
 10
430.004359
 20
294.565211
 40
1.666667
 50
180.0
 51
0.0
  0
LINE
  8
APS_GEOMETRY
 10
431.671026
 11
431.671026
 20
294.565211
 21
297.898545
  0
ARC
  8
APS_GEOMETRY
 10
399.825608
 20
288.479265
 40
2.055222
 50
42.9037
 51
122.5462
  0
ARC
  8
APS_GEOMETRY
 10
399.298043
 20
289.331879
 40
1.052778
 50
123.306708
 51
253.425514
  0
LINE
  8
APS_GEOMETRY
 10
398.997726
 11
400.664386
 20
288.322844
 21
287.767265
  0
ARC
  8
APS_GEOMETRY
 10
400.325045
 20
286.690761
 40
1.128722
 50
299.837948
 51
72.503841
  0
ARC
  8
APS_GEOMETRY
 10
399.803352
 20
287.589942
 40
2.168278
 50
240.022531
 51
299.973996
  0
ARC
  8
APS_GEOMETRY
 10
399.312805
 20
286.749238
 40
1.194945
 50
209.759337
 51
240.255408
  0
LINE
  8
APS_GEOMETRY
 10
406.728854
 11
409.117743
 20
287.89045
 21
287.89045
  0
ARC
  8
APS_GEOMETRY
 10
409.117743
 20
289.168228
 40
1.277778
 50
270.0
 51
90.0
  0
LINE
  8
APS_GEOMETRY
 10
409.117743
 11
406.728854
 20
290.446006
 21
290.446006
  0
LINE
  8
APS_GEOMETRY
 10
406.728854
 11
406.728854
 20
290.446006
 21
285.446006
  0
LINE
  8
APS_GEOMETRY
 10
415.220986
 11
415.220986
 20
290.398545
 21
287.065211
  0
ARC
  8
APS_GEOMETRY
 10
416.887653
 20
287.065211
 40
1.666667
 50
180.0
 51
0.0
  0
LINE
  8
APS_GEOMETRY
 10
418.55432
 11
418.55432
 20
287.065211
 21
290.398545
  0
ARC
  8
APS_GEOMETRY
 10
419.931031
 20
287.949617
 40
3.039389
 50
31.026839
 51
40.045456
  0
ARC
  8
APS_GEOMETRY
 10
420.979993
 20
288.88191
 40
1.637
 50
38.687109
 51
141.311816
  0
ARC
  8
APS_GEOMETRY
 10
422.067328
 20
287.988522
 40
3.044222
 50
140.97926
 51
219.021885
  0
ARC
  8
APS_GEOMETRY
 10
420.98004
 20
287.095075
 40
1.637
 50
218.687676
 51
321.312677
  0
ARC
  8
APS_GEOMETRY
 10
419.912299
 20
287.856931
 40
2.947556
 50
322.726609
 51
335.345901
  0
ARC
  8
APS_GEOMETRY
 10
429.879947
 20
288.479265
 40
2.055222
 50
42.9037
 51
122.5462
  0
ARC
  8
APS_GEOMETRY
 10
429.352382
 20
289.331879
 40
1.052778
 50
123.306708
 51
253.425514
  0
LINE
  8
APS_GEOMETRY
 10
429.052065
 11
430.718724
 20
288.322844
 21
287.767265
  0
ARC
  8
APS_GEOMETRY
 10
430.379383
 20
286.690761
 40
1.128722
 50
299.837948
 51
72.503841
  0
ARC
  8
APS_GEOMETRY
 10
429.857691
 20
287.589943
 40
2.168278
 50
240.022547
 51
299.973981
  0
ARC
  8
APS_GEOMETRY
 10
429.367144
 20
286.749238
 40
1.194945
 50
209.759337
 51
240.255408
  0
ARC
  8
APS_GEOMETRY
 10
435.899026
 20
288.81445
 40
1.631556
 50
38.7145
 51
90.1655
  0
LINE
  8
APS_GEOMETRY
 10
435.894313
 11
434.449859
 20
290.445999
 21
290.446006
  0
LINE
  8
APS_GEOMETRY
 10
434.449859
 11
434.449859
 20
290.446006
 21
285.446006
  0
LINE
  8
APS_GEOMETRY
 10
434.449859
 11
435.894304
 20
285.446006
 21
285.446006
  0
ARC
  8
APS_GEOMETRY
 10
435.899021
 20
287.077555
 40
1.631556
 50
269.834354
 51
321.285754
  0
ARC
  8
APS_GEOMETRY
 10
434.841322
 20
287.946006
 40
3.000056
 50
320.978147
 51
39.021837
  0
ARC
  8
APS_GEOMETRY
 10
381.867895
 20
279.600575
 40
1.637
 50
218.6887
 51
321.3113
  0
ARC
  8
APS_GEOMETRY
 10
380.780589
 20
280.493999
 40
3.044222
 50
320.978111
 51
39.020728
  0
ARC
  8
APS_GEOMETRY
 10
381.867924
 20
281.387388
 40
1.637
 50
38.688153
 51
141.312913
  0
ARC
  8
APS_GEOMETRY
 10
382.955231
 20
280.493963
 40
3.044222
 50
140.978975
 51
219.021016
  0
ARC
  8
APS_GEOMETRY
 10
385.761801
 20
281.31445
 40
1.631556
 50
38.7145
 51
90.1655
  0
LINE
  8
APS_GEOMETRY
 10
385.757088
 11
384.312634
 20
282.945999
 21
282.946006
  0
LINE
  8
APS_GEOMETRY
 10
384.312634
 11
384.312634
 20
282.946006
 21
277.946006
  0
LINE
  8
APS_GEOMETRY
 10
384.312634
 11
385.757078
 20
277.946006
 21
277.946006
  0
ARC
  8
APS_GEOMETRY
 10
385.761796
 20
279.577555
 40
1.631556
 50
269.834318
 51
321.285754
  0
ARC
  8
APS_GEOMETRY
 10
384.704097
 20
280.446006
 40
3.000056
 50
320.978147
 51
39.021837
  0
LINE
  8
APS_GEOMETRY
 10
401.258499
 11
404.869611
 20
282.948632
 21
282.948632
  0
LINE
  8
APS_GEOMETRY
 10
404.869611
 11
404.869578
 20
282.948632
 21
282.670868
  0
ARC
  8
APS_GEOMETRY
 10
408.279
 20
278.115854
 40
5.689667
 50
126.8148
 51
181.6842
  0
ARC
  8
APS_GEOMETRY
 10
407.706806
 20
279.522021
 40
1.637
 50
218.6887
 51
321.3113
  0
ARC
  8
APS_GEOMETRY
 10
406.6195
 20
280.415445
 40
3.044222
 50
320.978111
 51
39.020728
  0
ARC
  8
APS_GEOMETRY
 10
407.706835
 20
281.308834
 40
1.637
 50
38.688153
 51
141.312913
  0
ARC
  8
APS_GEOMETRY
 10
408.794142
 20
280.415409
 40
3.044222
 50
140.978975
 51
219.021016
  0
ARC
  8
APS_GEOMETRY
 10
415.336235
 20
279.522021
 40
1.637
 50
218.6887
 51
321.3113
  0
ARC
  8
APS_GEOMETRY
 10
414.248929
 20
280.415445
 40
3.044222
 50
320.978111
 51
39.020728
  0
ARC
  8
APS_GEOMETRY
 10
415.336264
 20
281.308834
 40
1.637
 50
38.688153
 51
141.312913
  0
ARC
  8
APS_GEOMETRY
 10
416.423571
 20
280.415409
 40
3.044222
 50
140.978975
 51
219.021016
  0
ARC
  8
APS_GEOMETRY
 10
419.775974
 20
279.544963
 40
1.559056
 50
208.751948
 51
258.48402
  0
ARC
  8
APS_GEOMETRY
 10
420.106318
 20
280.974379
 40
3.025889
 50
257.758344
 51
286.48041
  0
ARC
  8
APS_GEOMETRY
 10
420.575828
 20
279.439377
 40
1.420833
 50
285.885151
 51
325.197017
  0
ARC
  8
APS_GEOMETRY
 10
420.586956
 20
279.448456
 40
1.416945
 50
324.638774
 51
31.268689
  0
ARC
  8
APS_GEOMETRY
 10
420.539759
 20
279.432168
 40
1.465778
 50
30.855306
 51
75.402322
  0
ARC
  8
APS_GEOMETRY
 10
420.242512
 20
278.246786
 40
2.687833
 50
75.638926
 51
104.361134
  0
ARC
  8
APS_GEOMETRY
 10
418.586456
 20
283.712958
 40
3.0285
 50
289.06808
 51
345.637891
  0
LINE
  8
APS_GEOMETRY
 10
421.520307
 11
418.464732
 20
282.961741
 21
282.961731
  0
ARC
  8
APS_GEOMETRY
 10
424.458797
 20
279.520996
 40
1.637
 50
218.687092
 51
321.311843
  0
ARC
  8
APS_GEOMETRY
 10
423.371462
 20
280.414385
 40
3.044222
 50
320.97926
 51
39.021885
  0
ARC
  8
APS_GEOMETRY
 10
424.45876
 20
281.30782
 40
1.637
 50
38.688203
 51
141.31165
  0
ARC
  8
APS_GEOMETRY
 10
424.209261
 20
281.497745
 40
1.323556
 50
140.977864
 51
219.022269
  0
ARC
  8
APS_GEOMETRY
 10
424.542116
 20
281.754401
 40
1.743778
 50
218.687901
 51
321.311996
  0
ARC
  8
APS_GEOMETRY
 10
424.659491
 20
281.676477
 40
1.6035
 50
320.863778
 51
349.585865
  0
ARC
  8
APS_GEOMETRY
 10
428.959673
 20
282.509081
 40
2.166445
 50
295.9876
 51
313.9964
  0
ARC
  8
APS_GEOMETRY
 10
429.71526
 20
281.728328
 40
1.079944
 50
313.930853
 51
46.072408
  0
ARC
  8
APS_GEOMETRY
 10
429.242239
 20
281.040264
 40
1.908556
 50
50.178684
 51
129.81953
  0
ARC
  8
APS_GEOMETRY
 10
428.653018
 20
281.756173
 40
0.981389
 50
130.163234
 51
229.839321
  0
ARC
  8
APS_GEOMETRY
 10
429.114008
 20
282.306642
 40
1.699389
 50
229.930676
 51
276.210444
  0
ARC
  8
APS_GEOMETRY
 10
429.481774
 20
278.92782
 40
1.699389
 50
49.934507
 51
96.213301
  0
ARC
  8
APS_GEOMETRY
 10
429.876505
 20
279.283914
 40
1.175056
 50
306.509545
 51
53.490764
  0
ARC
  8
APS_GEOMETRY
 10
429.242295
 20
280.13485
 40
2.236333
 50
233.40065
 51
306.598736
  0
ARC
  8
APS_GEOMETRY
 10
428.608073
 20
279.283922
 40
1.175056
 50
126.510176
 51
233.489988
  0
ARC
  8
APS_GEOMETRY
 10
430.054676
 20
277.376003
 40
3.569334
 50
112.535095
 51
126.952622
  0
ARC
  8
APS_GEOMETRY
 10
366.983998
 20
258.479265
 40
2.055222
 50
42.9037
 51
122.5462
  0
ARC
  8
APS_GEOMETRY
 10
366.456433
 20
259.331879
 40
1.052778
 50
123.306708
 51
253.425514
  0
LINE
  8
APS_GEOMETRY
 10
366.156116
 11
367.822775
 20
258.322844
 21
257.767265
  0
ARC
  8
APS_GEOMETRY
 10
367.483434
 20
256.690761
 40
1.128722
 50
299.837948
 51
72.503841
  0
ARC
  8
APS_GEOMETRY
 10
366.961742
 20
257.589943
 40
2.168278
 50
240.022547
 51
299.973981
  0
ARC
  8
APS_GEOMETRY
 10
366.471195
 20
256.749238
 40
1.194945
 50
209.759337
 51
240.255408
  0
LINE
  8
APS_GEOMETRY
 10
369.55391
 11
371.942799
 20
257.89045
 21
257.89045
  0
ARC
  8
APS_GEOMETRY
 10
371.942799
 20
259.168228
 40
1.277778
 50
270.0
 51
90.0
  0
LINE
  8
APS_GEOMETRY
 10
371.942799
 11
369.55391
 20
260.446006
 21
260.446006
  0
LINE
  8
APS_GEOMETRY
 10
369.55391
 11
369.55391
 20
260.446006
 21
255.446006
  0
LINE
  8
APS_GEOMETRY
 10
373.720577
 11
376.109466
 20
257.89045
 21
257.89045
  0
ARC
  8
APS_GEOMETRY
 10
376.109466
 20
259.168228
 40
1.277778
 50
270.0
 51
90.0
  0
LINE
  8
APS_GEOMETRY
 10
376.109466
 11
373.720577
 20
260.446006
 21
260.446006
  0
LINE
  8
APS_GEOMETRY
 10
373.720577
 11
373.720577
 20
260.446006
 21
255.446006
  0
ARC
  8
APS_GEOMETRY
 10
386.425046
 20
257.982885
 40
3.039389
 50
31.026839
 51
40.045456
  0
ARC
  8
APS_GEOMETRY
 10
387.474007
 20
258.915179
 40
1.637
 50
38.687103
 51
141.311867
  0
ARC
  8
APS_GEOMETRY
 10
388.561335
 20
258.02178
 40
3.044222
 50
140.979034
 51
219.021745
  0
ARC
  8
APS_GEOMETRY
 10
387.469317
 20
257.125528
 40
1.631556
 50
218.714344
 51
270.166347
  0
ARC
  8
APS_GEOMETRY
 10
387.470314
 20
257.19492
 40
1.700945
 50
270.125995
 51
341.693508
  0
LINE
  8
APS_GEOMETRY
 10
389.085174
 11
389.085147
 20
256.660653
 21
257.93842
  0
LINE
  8
APS_GEOMETRY
 10
389.085147
 11
387.807369
 20
257.93842
 21
257.93842
  0
ARC
  8
APS_GEOMETRY
 10
401.450488
 20
258.479265
 40
2.055222
 50
42.9037
 51
122.5462
  0
ARC
  8
APS_GEOMETRY
 10
400.922923
 20
259.331879
 40
1.052778
 50
123.306728
 51
253.425553
  0
LINE
  8
APS_GEOMETRY
 10
400.622607
 11
402.289266
 20
258.322844
 21
257.767265
  0
ARC
  8
APS_GEOMETRY
 10
401.949925
 20
256.690761
 40
1.128722
 50
299.837948
 51
72.503841
  0
ARC
  8
APS_GEOMETRY
 10
401.428232
 20
257.589942
 40
2.168278
 50
240.022531
 51
299.973996
  0
ARC
  8
APS_GEOMETRY
 10
400.937687
 20
256.749237
 40
1.194945
 50
209.75929
 51
240.255326
  0
LINE
  8
APS_GEOMETRY
 10
412.242624
 11
414.631513
 20
257.89045
 21
257.89045
  0
ARC
  8
APS_GEOMETRY
 10
414.631513
 20
259.168228
 40
1.277778
 50
270.0
 51
90.0
  0
LINE
  8
APS_GEOMETRY
 10
414.631513
 11
412.242624
 20
260.446006
 21
260.446006
  0
LINE
  8
APS_GEOMETRY
 10
412.242624
 11
412.242624
 20
260.446006
 21
255.446006
  0
ARC
  8
APS_GEOMETRY
 10
418.54788
 20
258.479265
 40
2.055222
 50
42.9037
 51
122.5462
  0
ARC
  8
APS_GEOMETRY
 10
418.020315
 20
259.331879
 40
1.052778
 50
123.306728
 51
253.425553
  0
LINE
  8
APS_GEOMETRY
 10
417.719999
 11
419.386658
 20
258.322844
 21
257.767265
  0
ARC
  8
APS_GEOMETRY
 10
419.047317
 20
256.690761
 40
1.128722
 50
299.837948
 51
72.503841
  0
ARC
  8
APS_GEOMETRY
 10
418.525624
 20
257.589942
 40
2.168278
 50
240.022531
 51
299.973996
  0
ARC
  8
APS_GEOMETRY
 10
418.035079
 20
256.749237
 40
1.194945
 50
209.75929
 51
240.255326
  0
ARC
  8
APS_GEOMETRY
 10
424.111978
 20
257.949617
 40
3.039389
 50
31.026839
 51
40.045456
  0
ARC
  8
APS_GEOMETRY
 10
425.160939
 20
258.881911
 40
1.637
 50
38.687081
 51
141.311844
  0
ARC
  8
APS_GEOMETRY
 10
426.248274
 20
257.988522
 40
3.044222
 50
140.97926
 51
219.021885
  0
ARC
  8
APS_GEOMETRY
 10
425.160986
 20
257.095075
 40
1.637
 50
218.687676
 51
321.312677
  0
ARC
  8
APS_GEOMETRY
 10
424.093245
 20
257.856931
 40
2.947556
 50
322.726609
 51
335.345901
  0
ARC
  8
APS_GEOMETRY
 10
429.280256
 20
257.100575
 40
1.637
 50
218.6887
 51
321.3113
  0
ARC
  8
APS_GEOMETRY
 10
428.192949
 20
257.993999
 40
3.044222
 50
320.978126
 51
39.020743
  0
ARC
  8
APS_GEOMETRY
 10
429.280284
 20
258.887388
 40
1.637
 50
38.688153
 51
141.312913
  0
ARC
  8
APS_GEOMETRY
 10
430.367591
 20
257.993964
 40
3.044222
 50
140.97899
 51
219.021031
  0
LINE
  8
APS_GEOMETRY
 10
433.717126
 11
433.717126
 20
260.398545
 21
257.065211
  0
ARC
  8
APS_GEOMETRY
 10
435.383793
 20
257.065211
 40
1.666667
 50
180.0
 51
0.0
  0
LINE
  8
APS_GEOMETRY
 10
437.05046
 11
437.05046
 20
257.065211
 21
260.398545
  0
LINE
  8
APS_GEOMETRY
 10
322.32434
 11
324.713229
 20
250.39045
 21
250.39045
  0
ARC
  8
APS_GEOMETRY
 10
324.713229
 20
251.668228
 40
1.277778
 50
270.0
 51
90.0
  0
LINE
  8
APS_GEOMETRY
 10
324.713229
 11
322.32434
 20
252.946006
 21
252.946006
  0
LINE
  8
APS_GEOMETRY
 10
322.32434
 11
322.32434
 20
252.946006
 21
247.946006
  0
LINE
  8
APS_GEOMETRY
 10
331.063229
 11
333.452118
 20
250.39045
 21
250.39045
  0
ARC
  8
APS_GEOMETRY
 10
333.452118
 20
251.668228
 40
1.277778
 50
270.0
 51
90.0
  0
LINE
  8
APS_GEOMETRY
 10
333.452118
 11
331.063229
 20
252.946006
 21
252.946006
  0
LINE
  8
APS_GEOMETRY
 10
331.063229
 11
331.063229
 20
252.946006
 21
247.946006
  0
ARC
  8
APS_GEOMETRY
 10
350.171183
 20
249.600575
 40
1.637
 50
218.6887
 51
321.3113
  0
ARC
  8
APS_GEOMETRY
 10
349.083876
 20
250.493999
 40
3.044222
 50
320.978126
 51
39.020743
  0
ARC
  8
APS_GEOMETRY
 10
350.171211
 20
251.387388
 40
1.637
 50
38.688153
 51
141.312913
  0
ARC
  8
APS_GEOMETRY
 10
351.258518
 20
250.493964
 40
3.044222
 50
140.97899
 51
219.021031
  0
ARC
  8
APS_GEOMETRY
 10
357.734765
 20
250.449617
 40
3.039389
 50
31.026839
 51
40.045456
  0
ARC
  8
APS_GEOMETRY
 10
358.783726
 20
251.381911
 40
1.637
 50
38.687081
 51
141.311844
  0
ARC
  8
APS_GEOMETRY
 10
359.871062
 20
250.488523
 40
3.044222
 50
140.979275
 51
219.021899
  0
ARC
  8
APS_GEOMETRY
 10
358.783773
 20
249.595075
 40
1.637
 50
218.687704
 51
321.312649
  0
ARC
  8
APS_GEOMETRY
 10
357.716035
 20
250.356934
 40
2.947556
 50
322.726528
 51
335.34583
  0
ARC
  8
APS_GEOMETRY
 10
363.442844
 20
251.316614
 40
1.637
 50
38.687092
 51
141.311843
  0
ARC
  8
APS_GEOMETRY
 10
364.530179
 20
250.423225
 40
3.044222
 50
140.97926
 51
219.021885
  0
ARC
  8
APS_GEOMETRY
 10
363.442881
 20
249.52979
 40
1.637
 50
218.688203
 51
321.31165
  0
ARC
  8
APS_GEOMETRY
 10
363.692379
 20
249.339865
 40
1.323556
 50
320.977892
 51
39.022242
  0
ARC
  8
APS_GEOMETRY
 10
363.359524
 20
249.083208
 40
1.743778
 50
38.68788
 51
141.311975
  0
ARC
  8
APS_GEOMETRY
 10
363.24215
 20
249.161133
 40
1.6035
 50
140.863791
 51
169.585912
  0
ARC
  8
APS_GEOMETRY
 10
367.972822
 20
251.316614
 40
1.637
 50
38.687092
 51
141.311843
  0
ARC
  8
APS_GEOMETRY
 10
369.060158
 20
250.423226
 40
3.044222
 50
140.979275
 51
219.021899
  0
ARC
  8
APS_GEOMETRY
 10
367.97286
 20
249.52979
 40
1.637
 50
218.688203
 51
321.31165
  0
ARC
  8
APS_GEOMETRY
 10
368.222358
 20
249.339864
 40
1.323556
 50
320.977927
 51
39.022276
  0
ARC
  8
APS_GEOMETRY
 10
367.889502
 20
249.083208
 40
1.743778
 50
38.68788
 51
141.311975
  0
ARC
  8
APS_GEOMETRY
 10
367.772129
 20
249.161135
 40
1.6035
 50
140.863864
 51
169.58597
  0
ARC
  8
APS_GEOMETRY
 10
372.468811
 20
249.522021
 40
1.637
 50
218.6887
 51
321.3113
  0
ARC
  8
APS_GEOMETRY
 10
371.381505
 20
250.415445
 40
3.044222
 50
320.978111
 51
39.020728
  0
ARC
  8
APS_GEOMETRY
 10
372.46884
 20
251.308834
 40
1.637
 50
38.688153
 51
141.312913
  0
ARC
  8
APS_GEOMETRY
 10
373.556147
 20
250.415409
 40
3.044222
 50
140.978975
 51
219.021016
  0
ARC
  8
APS_GEOMETRY
 10
377.416603
 20
251.316614
 40
1.637
 50
38.687092
 51
141.311843
  0
ARC
  8
APS_GEOMETRY
 10
378.503939
 20
250.423226
 40
3.044222
 50
140.979275
 51
219.021899
  0
ARC
  8
APS_GEOMETRY
 10
377.416641
 20
249.52979
 40
1.637
 50
218.688203
 51
321.31165
  0
ARC
  8
APS_GEOMETRY
 10
377.666139
 20
249.339864
 40
1.323556
 50
320.977927
 51
39.022276
  0
ARC
  8
APS_GEOMETRY
 10
377.333283
 20
249.083208
 40
1.743778
 50
38.68788
 51
141.311975
  0
ARC
  8
APS_GEOMETRY
 10
377.21591
 20
249.161135
 40
1.6035
 50
140.863864
 51
169.58597
  0
ARC
  8
APS_GEOMETRY
 10
384.391398
 20
249.779784
 40
1.865667
 50
202.7274
 51
247.2726
  0
ARC
  8
APS_GEOMETRY
 10
384.420594
 20
249.81394
 40
1.9085
 50
246.860301
 51
293.140747
  0
ARC
  8
APS_GEOMETRY
 10
384.461009
 20
249.737069
 40
1.821945
 50
292.922074
 51
357.893276
  0
ARC
  8
APS_GEOMETRY
 10
384.641451
 20
249.727563
 40
1.641278
 50
357.993346
 51
71.191208
  0
ARC
  8
APS_GEOMETRY
 10
384.42051
 20
249.075358
 40
2.329889
 50
71.219133
 51
108.775449
  0
ARC
  8
APS_GEOMETRY
 10
384.273008
 20
249.475015
 40
1.904056
 50
108.44384
 51
138.941028
  0
LINE
  8
APS_GEOMETRY
 10
382.837285
 11
383.226175
 20
250.725666
 21
252.947896
  0
LINE
  8
APS_GEOMETRY
 10
383.226175
 11
385.726175
 20
252.947896
 21
252.947896
  0
ARC
  8
APS_GEOMETRY
 10
389.240354
 20
249.522021
 40
1.637
 50
218.6887
 51
321.3113
  0
ARC
  8
APS_GEOMETRY
 10
388.153047
 20
250.415445
 40
3.044222
 50
320.978126
 51
39.020743
  0
ARC
  8
APS_GEOMETRY
 10
389.240382
 20
251.308834
 40
1.637
 50
38.688153
 51
141.312913
  0
ARC
  8
APS_GEOMETRY
 10
390.327689
 20
250.41541
 40
3.044222
 50
140.97899
 51
219.021031
  0
ARC
  8
APS_GEOMETRY
 10
409.544129
 20
250.336893
 40
7.7701
 50
159.4697
 51
200.5303
  0
LINE
  8
APS_GEOMETRY
 10
406.99825
 11
406.99825
 20
252.898545
 21
249.565211
  0
ARC
  8
APS_GEOMETRY
 10
408.664917
 20
249.565211
 40
1.666667
 50
180.0
 51
0.0
  0
LINE
  8
APS_GEOMETRY
 10
410.331584
 11
410.331583
 20
249.565211
 21
252.898545
  0
ARC
  8
APS_GEOMETRY
 10
425.394708
 20
250.979265
 40
2.055222
 50
42.9037
 51
122.5462
  0
ARC
  8
APS_GEOMETRY
 10
424.867143
 20
251.831879
 40
1.052778
 50
123.306728
 51
253.425553
  0
LINE
  8
APS_GEOMETRY
 10
424.566827
 11
426.233486
 20
250.822844
 21
250.267265
  0
ARC
  8
APS_GEOMETRY
 10
425.894145
 20
249.190761
 40
1.128722
 50
299.837948
 51
72.503841
  0
ARC
  8
APS_GEOMETRY
 10
425.372452
 20
250.089942
 40
2.168278
 50
240.022531
 51
299.973996
  0
ARC
  8
APS_GEOMETRY
 10
424.881907
 20
249.249237
 40
1.194945
 50
209.75929
 51
240.255326
  0
LINE
  8
APS_GEOMETRY
 10
427.964621
 11
430.35351
 20
250.39045
 21
250.39045
  0
ARC
  8
APS_GEOMETRY
 10
430.35351
 20
251.668228
 40
1.277778
 50
270.0
 51
90.0
  0
LINE
  8
APS_GEOMETRY
 10
430.35351
 11
427.964621
 20
252.946006
 21
252.946006
  0
LINE
  8
APS_GEOMETRY
 10
427.964621
 11
427.964621
 20
252.946006
 21
247.946006
  0
ARC
  8
APS_GEOMETRY
 10
436.833465
 20
250.449617
 40
3.039389
 50
31.026839
 51
40.045456
  0
ARC
  8
APS_GEOMETRY
 10
437.882426
 20
251.381911
 40
1.637
 50
38.687081
 51
141.311844
  0
ARC
  8
APS_GEOMETRY
 10
438.969762
 20
250.488523
 40
3.044222
 50
140.979275
 51
219.021899
  0
ARC
  8
APS_GEOMETRY
 10
437.882473
 20
249.595075
 40
1.637
 50
218.687704
 51
321.312649
  0
ARC
  8
APS_GEOMETRY
 10
436.814735
 20
250.356934
 40
2.947556
 50
322.726528
 51
335.34583
  0
ARC
  8
APS_GEOMETRY
 10
446.751743
 20
249.600575
 40
1.637
 50
218.6887
 51
321.3113
  0
ARC
  8
APS_GEOMETRY
 10
445.664436
 20
250.493999
 40
3.044222
 50
320.978126
 51
39.020743
  0
ARC
  8
APS_GEOMETRY
 10
446.751772
 20
251.387387
 40
1.637
 50
38.688181
 51
141.312885
  0
ARC
  8
APS_GEOMETRY
 10
447.839079
 20
250.493963
 40
3.044222
 50
140.978975
 51
219.021016
  0
LINE
  8
APS_GEOMETRY
 10
468.168704
 11
470.168704
 20
250.557117
 21
250.557116
  0
ARC
  8
APS_GEOMETRY
 10
470.168704
 20
251.751561
 40
1.194445
 50
270.0
 51
90.0
  0
LINE
  8
APS_GEOMETRY
 10
470.168704
 11
468.168704
 20
252.946006
 21
252.946006
  0
LINE
  8
APS_GEOMETRY
 10
468.168704
 11
468.168704
 20
252.946006
 21
247.946006
  0
LINE
  8
APS_GEOMETRY
 10
468.168704
 11
470.22426
 20
247.946006
 21
247.946006
  0
ARC
  8
APS_GEOMETRY
 10
470.223117
 20
249.251562
 40
1.305556
 50
270.050145
 51
89.949855
  0
ARC
  8
APS_GEOMETRY
 10
474.168405
 20
250.979265
 40
2.055222
 50
42.9037
 51
122.5462
  0
ARC
  8
APS_GEOMETRY
 10
473.64084
 20
251.831879
 40
1.052778
 50
123.306728
 51
253.425553
  0
LINE
  8
APS_GEOMETRY
 10
473.340524
 11
475.007183
 20
250.822844
 21
250.267265
  0
ARC
  8
APS_GEOMETRY
 10
474.667842
 20
249.190761
 40
1.128722
 50
299.837948
 51
72.503841
  0
ARC
  8
APS_GEOMETRY
 10
474.146149
 20
250.089942
 40
2.168278
 50
240.022531
 51
299.973996
  0
ARC
  8
APS_GEOMETRY
 10
473.655604
 20
249.249237
 40
1.194945
 50
209.75929
 51
240.255326
  0
ARC
  8
APS_GEOMETRY
 10
481.143372
 20
250.418197
 40
7.8414
 50
339.4697
 51
20.5303
  0
ARC
  8
APS_GEOMETRY
 10
412.541693
 20
218.820177
 40
1.559056
 50
208.751948
 51
258.48402
  0
ARC
  8
APS_GEOMETRY
 10
412.872037
 20
220.249593
 40
3.025889
 50
257.758344
 51
286.48041
  0
ARC
  8
APS_GEOMETRY
 10
413.341546
 20
218.714591
 40
1.420833
 50
285.885188
 51
325.197078
  0
ARC
  8
APS_GEOMETRY
 10
413.352674
 20
218.72367
 40
1.416945
 50
324.638797
 51
31.268663
  0
ARC
  8
APS_GEOMETRY
 10
413.305479
 20
218.707382
 40
1.465778
 50
30.85532
 51
75.40237
  0
ARC
  8
APS_GEOMETRY
 10
413.008228
 20
217.522001
 40
2.687833
 50
75.638894
 51
104.36108
  0
ARC
  8
APS_GEOMETRY
 10
411.352174
 20
222.988173
 40
3.0285
 50
289.068102
 51
345.637899
  0
LINE
  8
APS_GEOMETRY
 10
414.286025
 11
411.230451
 20
222.236956
 21
222.236945
  0
LINE
  8
APS_GEOMETRY
 10
424.711114
 11
424.711113
 20
222.173759
 21
218.840426
  0
ARC
  8
APS_GEOMETRY
 10
426.37778
 20
218.840426
 40
1.666667
 50
180.0
 51
0.0
  0
LINE
  8
APS_GEOMETRY
 10
428.044447
 11
428.044447
 20
218.840426
 21
222.173759
  0
ARC
  8
APS_GEOMETRY
 10
445.387702
 20
218.79621
 40
1.637
 50
218.687092
 51
321.311843
  0
ARC
  8
APS_GEOMETRY
 10
444.300367
 20
219.689599
 40
3.044222
 50
320.979263
 51
39.021912
  0
ARC
  8
APS_GEOMETRY
 10
445.387664
 20
220.583035
 40
1.637
 50
38.688225
 51
141.311672
  0
ARC
  8
APS_GEOMETRY
 10
445.138166
 20
220.77296
 40
1.323556
 50
140.977927
 51
219.022276
  0
ARC
  8
APS_GEOMETRY
 10
445.471022
 20
221.029616
 40
1.743778
 50
218.68788
 51
321.311975
  0
ARC
  8
APS_GEOMETRY
 10
445.588395
 20
220.951689
 40
1.6035
 50
320.863864
 51
349.58597
  0
LINE
  8
APS_GEOMETRY
 10
453.078812
 11
455.467701
 20
219.665665
 21
219.665664
  0
ARC
  8
APS_GEOMETRY
 10
455.467701
 20
220.943442
 40
1.277778
 50
270.0
 51
90.0
  0
LINE
  8
APS_GEOMETRY
 10
455.467701
 11
453.078812
 20
222.22122
 21
222.22122
  0
LINE
  8
APS_GEOMETRY
 10
453.078812
 11
453.078812
 20
222.22122
 21
217.22122
  0
ARC
  8
APS_GEOMETRY
 10
464.924442
 20
217.255599
 40
0.503056
 50
193.103358
 51
271.146512
  0
LINE
  8
APS_GEOMETRY
 10
464.434484
 11
464.378942
 20
217.141552
 21
217.474877
  0
ARC
  8
APS_GEOMETRY
 10
463.665616
 20
217.321317
 40
0.729667
 50
12.148823
 51
63.601209
  0
ARC
  8
APS_GEOMETRY
 10
462.45833
 20
219.724877
 40
3.044222
 50
320.9784
 51
39.0216
  0
ARC
  8
APS_GEOMETRY
 10
463.545636
 20
220.618302
 40
1.637
 50
38.688139
 51
141.312908
  0
ARC
  8
APS_GEOMETRY
 10
464.632914
 20
219.724842
 40
3.044222
 50
140.978108
 51
219.020752
  0
ARC
  8
APS_GEOMETRY
 10
463.545607
 20
218.831416
 40
1.637
 50
218.686557
 51
321.313461
  0
LINE
  8
APS_GEOMETRY
 10
465.984805
 11
465.984805
 20
222.173759
 21
218.840426
  0
ARC
  8
APS_GEOMETRY
 10
467.651472
 20
218.840426
 40
1.666667
 50
180.0
 51
0.0
  0
LINE
  8
APS_GEOMETRY
 10
469.318139
 11
469.318138
 20
218.840426
 21
222.173759
  0
LINE
  8
APS_GEOMETRY
 10
473.682599
 11
476.071488
 20
219.665665
 21
219.665664
  0
ARC
  8
APS_GEOMETRY
 10
476.071488
 20
220.943442
 40
1.277778
 50
270.0
 51
90.0
  0
LINE
  8
APS_GEOMETRY
 10
476.071488
 11
473.682599
 20
222.22122
 21
222.22122
  0
LINE
  8
APS_GEOMETRY
 10
473.682599
 11
473.682599
 20
222.22122
 21
217.22122
  0
ARC
  8
APS_GEOMETRY
 10
484.131766
 20
220.589665
 40
1.631556
 50
38.7145
 51
90.1655
  0
LINE
  8
APS_GEOMETRY
 10
484.127053
 11
482.6826
 20
222.221214
 21
222.22122
  0
LINE
  8
APS_GEOMETRY
 10
482.6826
 11
482.6826
 20
222.22122
 21
217.22122
  0
LINE
  8
APS_GEOMETRY
 10
482.6826
 11
484.127044
 20
217.22122
 21
217.22122
  0
ARC
  8
APS_GEOMETRY
 10
484.131761
 20
218.852769
 40
1.631556
 50
269.834347
 51
321.285799
  0
ARC
  8
APS_GEOMETRY
 10
483.074063
 20
219.72122
 40
3.000056
 50
320.978162
 51
39.021852
  0
ARC
  8
APS_GEOMETRY
 10
324.609099
 20
211.320177
 40
1.559056
 50
208.751948
 51
258.48402
  0
ARC
  8
APS_GEOMETRY
 10
324.939443
 20
212.749593
 40
3.025889
 50
257.758344
 51
286.48041
  0
ARC
  8
APS_GEOMETRY
 10
325.408952
 20
211.214591
 40
1.420833
 50
285.885188
 51
325.197078
  0
ARC
  8
APS_GEOMETRY
 10
325.42008
 20
211.22367
 40
1.416945
 50
324.638797
 51
31.268663
  0
ARC
  8
APS_GEOMETRY
 10
325.372884
 20
211.207382
 40
1.465778
 50
30.855306
 51
75.402322
  0
ARC
  8
APS_GEOMETRY
 10
325.075635
 20
210.022001
 40
2.687833
 50
75.638883
 51
104.361091
  0
ARC
  8
APS_GEOMETRY
 10
323.419581
 20
215.488173
 40
3.0285
 50
289.06808
 51
345.637891
  0
LINE
  8
APS_GEOMETRY
 10
326.353432
 11
323.297857
 20
214.736956
 21
214.736945
  0
ARC
  8
APS_GEOMETRY
 10
343.592755
 20
211.320177
 40
1.559056
 50
208.751948
 51
258.48402
  0
ARC
  8
APS_GEOMETRY
 10
343.923099
 20
212.749593
 40
3.025889
 50
257.758344
 51
286.48041
  0
ARC
  8
APS_GEOMETRY
 10
344.392608
 20
211.214591
 40
1.420833
 50
285.885188
 51
325.197078
  0
ARC
  8
APS_GEOMETRY
 10
344.403736
 20
211.22367
 40
1.416945
 50
324.638797
 51
31.268663
  0
ARC
  8
APS_GEOMETRY
 10
344.356541
 20
211.207382
 40
1.465778
 50
30.85532
 51
75.40237
  0
ARC
  8
APS_GEOMETRY
 10
344.05929
 20
210.022001
 40
2.687833
 50
75.638894
 51
104.36108
  0
ARC
  8
APS_GEOMETRY
 10
342.403237
 20
215.488173
 40
3.0285
 50
289.06808
 51
345.637891
  0
LINE
  8
APS_GEOMETRY
 10
345.337088
 11
342.281513
 20
214.736956
 21
214.736945
  0
ARC
  8
APS_GEOMETRY
 10
348.424764
 20
211.554999
 40
1.865667
 50
202.7274
 51
247.2726
  0
ARC
  8
APS_GEOMETRY
 10
348.45396
 20
211.589155
 40
1.9085
 50
246.860301
 51
293.140747
  0
ARC
  8
APS_GEOMETRY
 10
348.494376
 20
211.512285
 40
1.821945
 50
292.922038
 51
357.89323
  0
ARC
  8
APS_GEOMETRY
 10
348.674818
 20
211.502777
 40
1.641278
 50
357.993358
 51
71.191244
  0
ARC
  8
APS_GEOMETRY
 10
348.453876
 20
210.850572
 40
2.329889
 50
71.219133
 51
108.775449
  0
ARC
  8
APS_GEOMETRY
 10
348.306375
 20
211.250229
 40
1.904056
 50
108.443885
 51
138.941046
  0
LINE
  8
APS_GEOMETRY
 10
346.870652
 11
347.259542
 20
212.50088
 21
214.72311
  0
LINE
  8
APS_GEOMETRY
 10
347.259542
 11
349.759542
 20
214.72311
 21
214.72311
  0
ARC
  8
APS_GEOMETRY
 10
372.590132
 20
211.375789
 40
1.637
 50
218.6887
 51
321.3113
  0
ARC
  8
APS_GEOMETRY
 10
371.502825
 20
212.269213
 40
3.044222
 50
320.978126
 51
39.020743
  0
ARC
  8
APS_GEOMETRY
 10
372.59016
 20
213.162602
 40
1.637
 50
38.688159
 51
141.312862
  0
ARC
  8
APS_GEOMETRY
 10
373.677467
 20
212.269178
 40
3.044222
 50
140.978963
 51
219.021028
  0
ARC
  8
APS_GEOMETRY
 10
379.716079
 20
212.258099
 40
3.039389
 50
31.026839
 51
40.045456
  0
ARC
  8
APS_GEOMETRY
 10
380.765041
 20
213.190392
 40
1.637
 50
38.687109
 51
141.311816
  0
ARC
  8
APS_GEOMETRY
 10
381.852368
 20
212.296994
 40
3.044222
 50
140.979019
 51
219.02173
  0
ARC
  8
APS_GEOMETRY
 10
380.76035
 20
211.400743
 40
1.631556
 50
218.714344
 51
270.166347
  0
ARC
  8
APS_GEOMETRY
 10
380.761347
 20
211.470135
 40
1.700945
 50
270.125984
 51
341.693473
  0
LINE
  8
APS_GEOMETRY
 10
382.376207
 11
382.376181
 20
210.935867
 21
212.213634
  0
LINE
  8
APS_GEOMETRY
 10
382.376181
 11
381.098403
 20
212.213634
 21
212.213634
  0
ARC
  8
APS_GEOMETRY
 10
388.555109
 20
212.224832
 40
3.039389
 50
31.026839
 51
40.045456
  0
ARC
  8
APS_GEOMETRY
 10
389.60407
 20
213.157126
 40
1.637
 50
38.687103
 51
141.311867
  0
ARC
  8
APS_GEOMETRY
 10
390.691405
 20
212.263736
 40
3.044222
 50
140.97926
 51
219.021885
  0
ARC
  8
APS_GEOMETRY
 10
389.604117
 20
211.370289
 40
1.637
 50
218.687676
 51
321.312677
  0
ARC
  8
APS_GEOMETRY
 10
388.536376
 20
212.132145
 40
2.947556
 50
322.726609
 51
335.345901
  0
ARC
  8
APS_GEOMETRY
 10
397.892912
 20
212.75448
 40
2.055222
 50
42.9037
 51
122.5462
  0
ARC
  8
APS_GEOMETRY
 10
397.365347
 20
213.607094
 40
1.052778
 50
123.306728
 51
253.425553
  0
LINE
  8
APS_GEOMETRY
 10
397.065031
 11
398.73169
 20
212.598059
 21
212.042479
  0
ARC
  8
APS_GEOMETRY
 10
398.392349
 20
210.965975
 40
1.128722
 50
299.837948
 51
72.503841
  0
ARC
  8
APS_GEOMETRY
 10
397.870656
 20
211.865156
 40
2.168278
 50
240.022531
 51
299.973996
  0
ARC
  8
APS_GEOMETRY
 10
397.380112
 20
211.024451
 40
1.194945
 50
209.759208
 51
240.255279
  0
ARC
  8
APS_GEOMETRY
 10
411.462526
 20
212.75448
 40
2.055222
 50
42.9037
 51
122.5462
  0
ARC
  8
APS_GEOMETRY
 10
410.934961
 20
213.607094
 40
1.052778
 50
123.306728
 51
253.425553
  0
LINE
  8
APS_GEOMETRY
 10
410.634645
 11
412.301304
 20
212.598059
 21
212.042479
  0
ARC
  8
APS_GEOMETRY
 10
411.961963
 20
210.965975
 40
1.128722
 50
299.837948
 51
72.503841
  0
ARC
  8
APS_GEOMETRY
 10
411.44027
 20
211.865156
 40
2.168278
 50
240.022531
 51
299.973996
  0
ARC
  8
APS_GEOMETRY
 10
410.949726
 20
211.024451
 40
1.194945
 50
209.759208
 51
240.255279
  0
ARC
  8
APS_GEOMETRY
 10
414.401283
 20
212.224832
 40
3.039389
 50
31.026839
 51
40.045456
  0
ARC
  8
APS_GEOMETRY
 10
415.450244
 20
213.157126
 40
1.637
 50
38.687103
 51
141.311867
  0
ARC
  8
APS_GEOMETRY
 10
416.537579
 20
212.263736
 40
3.044222
 50
140.97926
 51
219.021885
  0
ARC
  8
APS_GEOMETRY
 10
415.450291
 20
211.370289
 40
1.637
 50
218.687676
 51
321.312677
  0
ARC
  8
APS_GEOMETRY
 10
414.38255
 20
212.132145
 40
2.947556
 50
322.726609
 51
335.345901
  0
LINE
  8
APS_GEOMETRY
 10
418.100497
 11
420.489386
 20
212.165665
 21
212.165664
  0
ARC
  8
APS_GEOMETRY
 10
420.489386
 20
213.443442
 40
1.277778
 50
270.0
 51
90.0
  0
LINE
  8
APS_GEOMETRY
 10
420.489386
 11
418.100497
 20
214.72122
 21
214.72122
  0
LINE
  8
APS_GEOMETRY
 10
418.100497
 11
418.100497
 20
214.72122
 21
209.72122
  0
LINE
  8
APS_GEOMETRY
 10
452.920471
 11
455.30936
 20
212.165665
 21
212.165664
  0
ARC
  8
APS_GEOMETRY
 10
455.30936
 20
213.443442
 40
1.277778
 50
270.0
 51
90.0
  0
LINE
  8
APS_GEOMETRY
 10
455.30936
 11
452.920471
 20
214.72122
 21
214.72122
  0
LINE
  8
APS_GEOMETRY
 10
452.920471
 11
452.920471
 20
214.72122
 21
209.72122
  0
ARC
  8
APS_GEOMETRY
 10
464.766101
 20
209.755599
 40
0.503056
 50
193.103358
 51
271.146512
  0
LINE
  8
APS_GEOMETRY
 10
464.276143
 11
464.220601
 20
209.641552
 21
209.974877
  0
ARC
  8
APS_GEOMETRY
 10
463.507275
 20
209.821317
 40
0.729667
 50
12.148823
 51
63.601209
  0
ARC
  8
APS_GEOMETRY
 10
462.299989
 20
212.224877
 40
3.044222
 50
320.9784
 51
39.0216
  0
ARC
  8
APS_GEOMETRY
 10
463.387295
 20
213.118302
 40
1.637
 50
38.688139
 51
141.312908
  0
ARC
  8
APS_GEOMETRY
 10
464.474573
 20
212.224842
 40
3.044222
 50
140.978108
 51
219.020752
  0
ARC
  8
APS_GEOMETRY
 10
463.387266
 20
211.331416
 40
1.637
 50
218.686557
 51
321.313461
  0
LINE
  8
APS_GEOMETRY
 10
465.826464
 11
465.826464
 20
214.673759
 21
211.340426
  0
ARC
  8
APS_GEOMETRY
 10
467.493131
 20
211.340426
 40
1.666667
 50
180.0
 51
0.0
  0
LINE
  8
APS_GEOMETRY
 10
469.159798
 11
469.159798
 20
211.340426
 21
214.673759
  0
LINE
  8
APS_GEOMETRY
 10
473.524259
 11
475.913148
 20
212.165665
 21
212.165664
  0
ARC
  8
APS_GEOMETRY
 10
475.913148
 20
213.443442
 40
1.277778
 50
270.0
 51
90.0
  0
LINE
  8
APS_GEOMETRY
 10
475.913148
 11
473.524259
 20
214.72122
 21
214.72122
  0
LINE
  8
APS_GEOMETRY
 10
473.524259
 11
473.524259
 20
214.72122
 21
209.72122
  0
ARC
  8
APS_GEOMETRY
 10
483.973426
 20
213.089665
 40
1.631556
 50
38.7145
 51
90.1655
  0
LINE
  8
APS_GEOMETRY
 10
483.968713
 11
482.524259
 20
214.721214
 21
214.72122
  0
LINE
  8
APS_GEOMETRY
 10
482.524259
 11
482.524259
 20
214.72122
 21
209.72122
  0
LINE
  8
APS_GEOMETRY
 10
482.524259
 11
483.968703
 20
209.72122
 21
209.72122
  0
ARC
  8
APS_GEOMETRY
 10
483.97342
 20
211.352769
 40
1.631556
 50
269.834347
 51
321.285799
  0
ARC
  8
APS_GEOMETRY
 10
482.915722
 20
212.221221
 40
3.000056
 50
320.978147
 51
39.021837
  0
ARC
  8
APS_GEOMETRY
 10
330.568126
 20
203.820177
 40
1.559056
 50
208.751948
 51
258.48402
  0
ARC
  8
APS_GEOMETRY
 10
330.89847
 20
205.249593
 40
3.025889
 50
257.758344
 51
286.48041
  0
ARC
  8
APS_GEOMETRY
 10
331.367979
 20
203.714591
 40
1.420833
 50
285.885188
 51
325.197078
  0
ARC
  8
APS_GEOMETRY
 10
331.379107
 20
203.72367
 40
1.416945
 50
324.638797
 51
31.268663
  0
ARC
  8
APS_GEOMETRY
 10
331.331911
 20
203.707382
 40
1.465778
 50
30.855306
 51
75.402322
  0
ARC
  8
APS_GEOMETRY
 10
331.034662
 20
202.522001
 40
2.687833
 50
75.638883
 51
104.361091
  0
ARC
  8
APS_GEOMETRY
 10
329.378608
 20
207.988173
 40
3.0285
 50
289.06808
 51
345.637891
  0
LINE
  8
APS_GEOMETRY
 10
332.312459
 11
329.256884
 20
207.236956
 21
207.236945
  0
ARC
  8
APS_GEOMETRY
 10
347.754651
 20
204.054999
 40
1.865667
 50
202.7274
 51
247.2726
  0
ARC
  8
APS_GEOMETRY
 10
347.783847
 20
204.089155
 40
1.9085
 50
246.860301
 51
293.140747
  0
ARC
  8
APS_GEOMETRY
 10
347.824263
 20
204.012285
 40
1.821945
 50
292.922038
 51
357.89323
  0
ARC
  8
APS_GEOMETRY
 10
348.004705
 20
204.002777
 40
1.641278
 50
357.993358
 51
71.191244
  0
ARC
  8
APS_GEOMETRY
 10
347.783763
 20
203.350572
 40
2.329889
 50
71.219133
 51
108.775449
  0
ARC
  8
APS_GEOMETRY
 10
347.636262
 20
203.750229
 40
1.904056
 50
108.443885
 51
138.941046
  0
LINE
  8
APS_GEOMETRY
 10
346.200539
 11
346.589429
 20
205.00088
 21
207.22311
  0
LINE
  8
APS_GEOMETRY
 10
346.589429
 11
349.089429
 20
207.22311
 21
207.22311
  0
ARC
  8
APS_GEOMETRY
 10
373.134597
 20
203.875789
 40
1.637
 50
218.6887
 51
321.3113
  0
ARC
  8
APS_GEOMETRY
 10
372.04729
 20
204.769213
 40
3.044222
 50
320.978126
 51
39.020743
  0
ARC
  8
APS_GEOMETRY
 10
373.134625
 20
205.662603
 40
1.637
 50
38.688131
 51
141.31289
  0
ARC
  8
APS_GEOMETRY
 10
374.221932
 20
204.769179
 40
3.044222
 50
140.978978
 51
219.021043
  0
ARC
  8
APS_GEOMETRY
 10
380.260544
 20
204.758099
 40
3.039389
 50
31.026839
 51
40.045456
  0
ARC
  8
APS_GEOMETRY
 10
381.309505
 20
205.690393
 40
1.637
 50
38.687081
 51
141.311844
  0
ARC
  8
APS_GEOMETRY
 10
382.396833
 20
204.796995
 40
3.044222
 50
140.979034
 51
219.021745
  0
ARC
  8
APS_GEOMETRY
 10
381.304815
 20
203.900743
 40
1.631556
 50
218.714344
 51
270.166347
  0
ARC
  8
APS_GEOMETRY
 10
381.305812
 20
203.970135
 40
1.700945
 50
270.125984
 51
341.693473
  0
LINE
  8
APS_GEOMETRY
 10
382.920672
 11
382.920645
 20
203.435867
 21
204.713634
  0
LINE
  8
APS_GEOMETRY
 10
382.920645
 11
381.642867
 20
204.713634
 21
204.713634
  0
ARC
  8
APS_GEOMETRY
 10
389.099573
 20
204.724832
 40
3.039389
 50
31.026839
 51
40.045456
  0
ARC
  8
APS_GEOMETRY
 10
390.148535
 20
205.657125
 40
1.637
 50
38.687131
 51
141.311839
  0
ARC
  8
APS_GEOMETRY
 10
391.23587
 20
204.763736
 40
3.044222
 50
140.97926
 51
219.021885
  0
ARC
  8
APS_GEOMETRY
 10
390.148581
 20
203.870289
 40
1.637
 50
218.687704
 51
321.312649
  0
ARC
  8
APS_GEOMETRY
 10
389.080843
 20
204.632148
 40
2.947556
 50
322.726528
 51
335.34583
  0
ARC
  8
APS_GEOMETRY
 10
398.437377
 20
205.25448
 40
2.055222
 50
42.9037
 51
122.5462
  0
ARC
  8
APS_GEOMETRY
 10
397.909812
 20
206.107094
 40
1.052778
 50
123.306728
 51
253.425553
  0
LINE
  8
APS_GEOMETRY
 10
397.609496
 11
399.276155
 20
205.098059
 21
204.542479
  0
ARC
  8
APS_GEOMETRY
 10
398.936814
 20
203.465975
 40
1.128722
 50
299.837948
 51
72.503841
  0
ARC
  8
APS_GEOMETRY
 10
398.415121
 20
204.365156
 40
2.168278
 50
240.022531
 51
299.973996
  0
ARC
  8
APS_GEOMETRY
 10
397.924577
 20
203.524451
 40
1.194945
 50
209.759208
 51
240.255279
  0
ARC
  8
APS_GEOMETRY
 10
412.006991
 20
205.25448
 40
2.055222
 50
42.9037
 51
122.5462
  0
ARC
  8
APS_GEOMETRY
 10
411.479426
 20
206.107094
 40
1.052778
 50
123.306708
 51
253.425514
  0
LINE
  8
APS_GEOMETRY
 10
411.179109
 11
412.845769
 20
205.098059
 21
204.542479
  0
ARC
  8
APS_GEOMETRY
 10
412.506428
 20
203.465975
 40
1.128722
 50
299.837948
 51
72.503841
  0
ARC
  8
APS_GEOMETRY
 10
411.984735
 20
204.365156
 40
2.168278
 50
240.022531
 51
299.973996
  0
ARC
  8
APS_GEOMETRY
 10
411.494189
 20
203.524452
 40
1.194945
 50
209.759255
 51
240.255361
  0
ARC
  8
APS_GEOMETRY
 10
414.945747
 20
204.724832
 40
3.039389
 50
31.026839
 51
40.045456
  0
ARC
  8
APS_GEOMETRY
 10
415.994709
 20
205.657125
 40
1.637
 50
38.687131
 51
141.311839
  0
ARC
  8
APS_GEOMETRY
 10
417.082044
 20
204.763736
 40
3.044222
 50
140.97926
 51
219.021885
  0
ARC
  8
APS_GEOMETRY
 10
415.994755
 20
203.870289
 40
1.637
 50
218.687704
 51
321.312649
  0
ARC
  8
APS_GEOMETRY
 10
414.927017
 20
204.632148
 40
2.947556
 50
322.726528
 51
335.34583
  0
LINE
  8
APS_GEOMETRY
 10
418.644961
 11
421.03385
 20
204.665665
 21
204.665664
  0
ARC
  8
APS_GEOMETRY
 10
421.03385
 20
205.943442
 40
1.277778
 50
270.0
 51
90.0
  0
LINE
  8
APS_GEOMETRY
 10
421.03385
 11
418.644961
 20
207.22122
 21
207.22122
  0
LINE
  8
APS_GEOMETRY
 10
418.644961
 11
418.644961
 20
207.22122
 21
202.22122
  0
LINE
  8
APS_GEOMETRY
 10
453.443051
 11
455.83194
 20
204.665665
 21
204.665664
  0
ARC
  8
APS_GEOMETRY
 10
455.83194
 20
205.943442
 40
1.277778
 50
270.0
 51
90.0
  0
LINE
  8
APS_GEOMETRY
 10
455.83194
 11
453.443051
 20
207.22122
 21
207.22122
  0
LINE
  8
APS_GEOMETRY
 10
453.443051
 11
453.443051
 20
207.22122
 21
202.22122
  0
ARC
  8
APS_GEOMETRY
 10
465.288681
 20
202.255599
 40
0.503056
 50
193.103358
 51
271.146512
  0
LINE
  8
APS_GEOMETRY
 10
464.798723
 11
464.743181
 20
202.141552
 21
202.474877
  0
ARC
  8
APS_GEOMETRY
 10
464.029855
 20
202.321317
 40
0.729667
 50
12.148823
 51
63.601209
  0
ARC
  8
APS_GEOMETRY
 10
462.822569
 20
204.724877
 40
3.044222
 50
320.9784
 51
39.0216
  0
ARC
  8
APS_GEOMETRY
 10
463.909875
 20
205.618302
 40
1.637
 50
38.688139
 51
141.312908
  0
ARC
  8
APS_GEOMETRY
 10
464.997153
 20
204.724842
 40
3.044222
 50
140.978108
 51
219.020752
  0
ARC
  8
APS_GEOMETRY
 10
463.909846
 20
203.831416
 40
1.637
 50
218.686557
 51
321.313461
  0
LINE
  8
APS_GEOMETRY
 10
466.349044
 11
466.349044
 20
207.173759
 21
203.840426
  0
ARC
  8
APS_GEOMETRY
 10
468.015711
 20
203.840426
 40
1.666667
 50
180.0
 51
0.0
  0
LINE
  8
APS_GEOMETRY
 10
469.682378
 11
469.682378
 20
203.840426
 21
207.173759
  0
LINE
  8
APS_GEOMETRY
 10
474.046839
 11
476.435728
 20
204.665665
 21
204.665664
  0
ARC
  8
APS_GEOMETRY
 10
476.435728
 20
205.943442
 40
1.277778
 50
270.0
 51
90.0
  0
LINE
  8
APS_GEOMETRY
 10
476.435728
 11
474.046839
 20
207.22122
 21
207.22122
  0
LINE
  8
APS_GEOMETRY
 10
474.046839
 11
474.046839
 20
207.22122
 21
202.22122
  0
ARC
  8
APS_GEOMETRY
 10
484.496006
 20
205.589665
 40
1.631556
 50
38.7145
 51
90.1655
  0
LINE
  8
APS_GEOMETRY
 10
484.491293
 11
483.046839
 20
207.221214
 21
207.22122
  0
LINE
  8
APS_GEOMETRY
 10
483.046839
 11
483.046839
 20
207.22122
 21
202.22122
  0
LINE
  8
APS_GEOMETRY
 10
483.046839
 11
484.491283
 20
202.22122
 21
202.22122
  0
ARC
  8
APS_GEOMETRY
 10
484.496
 20
203.852769
 40
1.631556
 50
269.834347
 51
321.285799
  0
ARC
  8
APS_GEOMETRY
 10
483.438302
 20
204.721221
 40
3.000056
 50
320.978147
 51
39.021837
  0
ARC
  8
APS_GEOMETRY
 10
308.081912
 20
196.320177
 40
1.559056
 50
208.751948
 51
258.48402
  0
ARC
  8
APS_GEOMETRY
 10
308.412256
 20
197.749593
 40
3.025889
 50
257.758344
 51
286.48041
  0
ARC
  8
APS_GEOMETRY
 10
308.881765
 20
196.214591
 40
1.420833
 50
285.885188
 51
325.197078
  0
ARC
  8
APS_GEOMETRY
 10
308.892893
 20
196.22367
 40
1.416945
 50
324.638797
 51
31.268663
  0
ARC
  8
APS_GEOMETRY
 10
308.845697
 20
196.207382
 40
1.465778
 50
30.855306
 51
75.402322
  0
ARC
  8
APS_GEOMETRY
 10
308.548448
 20
195.022001
 40
2.687833
 50
75.638883
 51
104.361091
  0
ARC
  8
APS_GEOMETRY
 10
306.892394
 20
200.488173
 40
3.0285
 50
289.06808
 51
345.637891
  0
LINE
  8
APS_GEOMETRY
 10
309.826245
 11
306.77067
 20
199.736956
 21
199.736945
  0
ARC
  8
APS_GEOMETRY
 10
326.95731
 20
198.44814
 40
1.190389
 50
118.020652
 51
169.471675
  0
ARC
  8
APS_GEOMETRY
 10
327.342488
 20
197.743832
 40
1.993111
 50
61.713838
 51
118.283697
  0
ARC
  8
APS_GEOMETRY
 10
327.672128
 20
198.44341
 40
1.221556
 50
300.22001
 51
59.779398
  0
LINE
  8
APS_GEOMETRY
 10
328.286964
 11
326.398088
 20
197.387865
 21
196.221197
  0
ARC
  8
APS_GEOMETRY
 10
327.327144
 20
194.723575
 40
1.762389
 50
121.813563
 51
180.07656
  0
LINE
  8
APS_GEOMETRY
 10
325.564757
 11
328.898088
 20
194.72122
 21
194.721196
  0
ARC
  8
APS_GEOMETRY
 10
331.872965
 20
196.297235
 40
1.637
 50
218.6887
 51
321.3113
  0
ARC
  8
APS_GEOMETRY
 10
330.785659
 20
197.190659
 40
3.044222
 50
320.978111
 51
39.020728
  0
ARC
  8
APS_GEOMETRY
 10
331.872994
 20
198.084049
 40
1.637
 50
38.688131
 51
141.31289
  0
ARC
  8
APS_GEOMETRY
 10
332.9603
 20
197.190624
 40
3.044222
 50
140.978963
 51
219.021028
  0
ARC
  8
APS_GEOMETRY
 10
356.139283
 20
196.375789
 40
1.637
 50
218.6887
 51
321.3113
  0
ARC
  8
APS_GEOMETRY
 10
355.051976
 20
197.269213
 40
3.044222
 50
320.978126
 51
39.020743
  0
ARC
  8
APS_GEOMETRY
 10
356.139311
 20
198.162602
 40
1.637
 50
38.688159
 51
141.312862
  0
ARC
  8
APS_GEOMETRY
 10
357.226618
 20
197.269178
 40
3.044222
 50
140.978963
 51
219.021028
  0
ARC
  8
APS_GEOMETRY
 10
363.265231
 20
197.258099
 40
3.039389
 50
31.026839
 51
40.045456
  0
ARC
  8
APS_GEOMETRY
 10
364.314192
 20
198.190393
 40
1.637
 50
38.687081
 51
141.311844
  0
ARC
  8
APS_GEOMETRY
 10
365.401519
 20
197.296994
 40
3.044222
 50
140.979019
 51
219.02173
  0
ARC
  8
APS_GEOMETRY
 10
364.309501
 20
196.400743
 40
1.631556
 50
218.714344
 51
270.166347
  0
ARC
  8
APS_GEOMETRY
 10
364.310498
 20
196.470135
 40
1.700945
 50
270.125984
 51
341.693473
  0
LINE
  8
APS_GEOMETRY
 10
365.925358
 11
365.925332
 20
195.935867
 21
197.213634
  0
LINE
  8
APS_GEOMETRY
 10
365.925332
 11
364.647554
 20
197.213634
 21
197.213634
  0
LINE
  8
APS_GEOMETRY
 10
371.735416
 11
374.124305
 20
197.165665
 21
197.165664
  0
ARC
  8
APS_GEOMETRY
 10
374.124305
 20
198.443442
 40
1.277778
 50
270.0
 51
90.0
  0
LINE
  8
APS_GEOMETRY
 10
374.124305
 11
371.735416
 20
199.72122
 21
199.72122
  0
LINE
  8
APS_GEOMETRY
 10
371.735416
 11
371.735416
 20
199.72122
 21
194.72122
  0
ARC
  8
APS_GEOMETRY
 10
377.871147
 20
196.375789
 40
1.637
 50
218.6887
 51
321.3113
  0
ARC
  8
APS_GEOMETRY
 10
376.78384
 20
197.269213
 40
3.044222
 50
320.978126
 51
39.020743
  0
ARC
  8
APS_GEOMETRY
 10
377.871175
 20
198.162602
 40
1.637
 50
38.688159
 51
141.312862
  0
ARC
  8
APS_GEOMETRY
 10
378.958482
 20
197.269178
 40
3.044222
 50
140.978963
 51
219.021028
  0
LINE
  8
APS_GEOMETRY
 10
392.719182
 11
395.108071
 20
197.165665
 21
197.165664
  0
ARC
  8
APS_GEOMETRY
 10
395.108071
 20
198.443442
 40
1.277778
 50
270.0
 51
90.0
  0
LINE
  8
APS_GEOMETRY
 10
395.108071
 11
392.719182
 20
199.72122
 21
199.72122
  0
LINE
  8
APS_GEOMETRY
 10
392.719182
 11
392.719182
 20
199.72122
 21
194.72122
  0
ARC
  8
APS_GEOMETRY
 10
412.179995
 20
197.75448
 40
2.055222
 50
42.9037
 51
122.5462
  0
ARC
  8
APS_GEOMETRY
 10
411.65243
 20
198.607094
 40
1.052778
 50
123.306708
 51
253.425514
  0
LINE
  8
APS_GEOMETRY
 10
411.352113
 11
413.018772
 20
197.598059
 21
197.042479
  0
ARC
  8
APS_GEOMETRY
 10
412.679432
 20
195.965975
 40
1.128722
 50
299.837969
 51
72.503875
  0
ARC
  8
APS_GEOMETRY
 10
412.157739
 20
196.865156
 40
2.168278
 50
240.022531
 51
299.973996
  0
ARC
  8
APS_GEOMETRY
 10
411.667193
 20
196.024452
 40
1.194945
 50
209.759255
 51
240.255361
  0
ARC
  8
APS_GEOMETRY
 10
415.118751
 20
197.224832
 40
3.039389
 50
31.026839
 51
40.045456
  0
ARC
  8
APS_GEOMETRY
 10
416.167712
 20
198.157126
 40
1.637
 50
38.687103
 51
141.311867
  0
ARC
  8
APS_GEOMETRY
 10
417.255048
 20
197.263737
 40
3.044222
 50
140.979275
 51
219.021899
  0
ARC
  8
APS_GEOMETRY
 10
416.167759
 20
196.370289
 40
1.637
 50
218.687704
 51
321.312649
  0
ARC
  8
APS_GEOMETRY
 10
415.100021
 20
197.132148
 40
2.947556
 50
322.726528
 51
335.34583
  0
LINE
  8
APS_GEOMETRY
 10
418.817965
 11
421.206854
 20
197.165665
 21
197.165664
  0
ARC
  8
APS_GEOMETRY
 10
421.206854
 20
198.443442
 40
1.277778
 50
270.0
 51
90.0
  0
LINE
  8
APS_GEOMETRY
 10
421.206854
 11
418.817965
 20
199.72122
 21
199.72122
  0
LINE
  8
APS_GEOMETRY
 10
418.817965
 11
418.817965
 20
199.72122
 21
194.72122
  0
ARC
  8
APS_GEOMETRY
 10
445.258242
 20
198.44814
 40
1.190389
 50
118.020652
 51
169.471675
  0
ARC
  8
APS_GEOMETRY
 10
445.64342
 20
197.743832
 40
1.993111
 50
61.713838
 51
118.283697
  0
ARC
  8
APS_GEOMETRY
 10
445.97306
 20
198.44341
 40
1.221556
 50
300.22001
 51
59.779398
  0
LINE
  8
APS_GEOMETRY
 10
446.587896
 11
444.69902
 20
197.387865
 21
196.221197
  0
ARC
  8
APS_GEOMETRY
 10
445.628076
 20
194.723575
 40
1.762389
 50
121.813563
 51
180.07656
  0
LINE
  8
APS_GEOMETRY
 10
443.865689
 11
447.19902
 20
194.72122
 21
194.721196
  0
LINE
  8
APS_GEOMETRY
 10
452.949022
 11
455.337911
 20
197.165665
 21
197.165664
  0
ARC
  8
APS_GEOMETRY
 10
455.337911
 20
198.443442
 40
1.277778
 50
270.0
 51
90.0
  0
LINE
  8
APS_GEOMETRY
 10
455.337911
 11
452.949022
 20
199.72122
 21
199.72122
  0
LINE
  8
APS_GEOMETRY
 10
452.949022
 11
452.949022
 20
199.72122
 21
194.72122
  0
ARC
  8
APS_GEOMETRY
 10
464.794651
 20
194.755599
 40
0.503056
 50
193.103358
 51
271.146512
  0
LINE
  8
APS_GEOMETRY
 10
464.304693
 11
464.249151
 20
194.641552
 21
194.974877
  0
ARC
  8
APS_GEOMETRY
 10
463.535825
 20
194.821317
 40
0.729667
 50
12.148823
 51
63.601209
  0
ARC
  8
APS_GEOMETRY
 10
462.328539
 20
197.224877
 40
3.044222
 50
320.9784
 51
39.0216
  0
ARC
  8
APS_GEOMETRY
 10
463.415845
 20
198.118301
 40
1.637
 50
38.688167
 51
141.31288
  0
ARC
  8
APS_GEOMETRY
 10
464.503124
 20
197.224842
 40
3.044222
 50
140.978108
 51
219.020752
  0
ARC
  8
APS_GEOMETRY
 10
463.415817
 20
196.331417
 40
1.637
 50
218.686585
 51
321.313433
  0
LINE
  8
APS_GEOMETRY
 10
465.855014
 11
465.855014
 20
199.673759
 21
196.340426
  0
ARC
  8
APS_GEOMETRY
 10
467.521681
 20
196.340426
 40
1.666667
 50
180.0
 51
0.0
  0
LINE
  8
APS_GEOMETRY
 10
469.188348
 11
469.188348
 20
196.340426
 21
199.673759
  0
LINE
  8
APS_GEOMETRY
 10
473.552809
 11
475.941698
 20
197.165665
 21
197.165664
  0
ARC
  8
APS_GEOMETRY
 10
475.941698
 20
198.443442
 40
1.277778
 50
270.0
 51
90.0
  0
LINE
  8
APS_GEOMETRY
 10
475.941698
 11
473.552809
 20
199.72122
 21
199.72122
  0
LINE
  8
APS_GEOMETRY
 10
473.552809
 11
473.552809
 20
199.72122
 21
194.72122
  0
ARC
  8
APS_GEOMETRY
 10
484.001976
 20
198.089665
 40
1.631556
 50
38.7145
 51
90.1655
  0
LINE
  8
APS_GEOMETRY
 10
483.997263
 11
482.552809
 20
199.721214
 21
199.72122
  0
LINE
  8
APS_GEOMETRY
 10
482.552809
 11
482.552809
 20
199.72122
 21
194.72122
  0
LINE
  8
APS_GEOMETRY
 10
482.552809
 11
483.997254
 20
194.72122
 21
194.72122
  0
ARC
  8
APS_GEOMETRY
 10
484.001971
 20
196.352769
 40
1.631556
 50
269.834347
 51
321.285799
  0
ARC
  8
APS_GEOMETRY
 10
482.944273
 20
197.22122
 40
3.000056
 50
320.978162
 51
39.021852
  0
ARC
  8
APS_GEOMETRY
 10
327.257307
 20
188.820177
 40
1.559056
 50
208.751948
 51
258.48402
  0
ARC
  8
APS_GEOMETRY
 10
327.587651
 20
190.249593
 40
3.025889
 50
257.758344
 51
286.48041
  0
ARC
  8
APS_GEOMETRY
 10
328.05716
 20
188.714591
 40
1.420833
 50
285.885188
 51
325.197078
  0
ARC
  8
APS_GEOMETRY
 10
328.068288
 20
188.72367
 40
1.416945
 50
324.638797
 51
31.268663
  0
ARC
  8
APS_GEOMETRY
 10
328.021092
 20
188.707382
 40
1.465778
 50
30.855306
 51
75.402322
  0
ARC
  8
APS_GEOMETRY
 10
327.723843
 20
187.522001
 40
2.687833
 50
75.638883
 51
104.361091
  0
ARC
  8
APS_GEOMETRY
 10
326.067789
 20
192.988173
 40
3.0285
 50
289.06808
 51
345.637891
  0
LINE
  8
APS_GEOMETRY
 10
329.00164
 11
325.946065
 20
192.236956
 21
192.236945
  0
ARC
  8
APS_GEOMETRY
 10
349.430653
 20
188.797235
 40
1.637
 50
218.6887
 51
321.3113
  0
ARC
  8
APS_GEOMETRY
 10
348.343346
 20
189.690659
 40
3.044222
 50
320.978126
 51
39.020743
  0
ARC
  8
APS_GEOMETRY
 10
349.430681
 20
190.584048
 40
1.637
 50
38.688159
 51
141.312862
  0
ARC
  8
APS_GEOMETRY
 10
350.517988
 20
189.690624
 40
3.044222
 50
140.978963
 51
219.021028
  0
ARC
  8
APS_GEOMETRY
 10
373.660867
 20
188.875789
 40
1.637
 50
218.6887
 51
321.3113
  0
ARC
  8
APS_GEOMETRY
 10
372.57356
 20
189.769213
 40
3.044222
 50
320.978126
 51
39.020743
  0
ARC
  8
APS_GEOMETRY
 10
373.660895
 20
190.662602
 40
1.637
 50
38.688159
 51
141.312862
  0
ARC
  8
APS_GEOMETRY
 10
374.748202
 20
189.769178
 40
3.044222
 50
140.978963
 51
219.021028
  0
ARC
  8
APS_GEOMETRY
 10
380.786814
 20
189.758099
 40
3.039389
 50
31.026839
 51
40.045456
  0
ARC
  8
APS_GEOMETRY
 10
381.835776
 20
190.690392
 40
1.637
 50
38.687109
 51
141.311816
  0
ARC
  8
APS_GEOMETRY
 10
382.923103
 20
189.796994
 40
3.044222
 50
140.979019
 51
219.02173
  0
ARC
  8
APS_GEOMETRY
 10
381.831085
 20
188.900743
 40
1.631556
 50
218.714344
 51
270.166347
  0
ARC
  8
APS_GEOMETRY
 10
381.832082
 20
188.970135
 40
1.700945
 50
270.125984
 51
341.693473
  0
LINE
  8
APS_GEOMETRY
 10
383.446942
 11
383.446916
 20
188.435867
 21
189.713634
  0
LINE
  8
APS_GEOMETRY
 10
383.446916
 11
382.169138
 20
189.713634
 21
189.713634
  0
ARC
  8
APS_GEOMETRY
 10
389.604875
 20
189.758099
 40
3.039389
 50
31.026839
 51
40.045456
  0
ARC
  8
APS_GEOMETRY
 10
390.653837
 20
190.690392
 40
1.637
 50
38.687109
 51
141.311816
  0
ARC
  8
APS_GEOMETRY
 10
391.741164
 20
189.796994
 40
3.044222
 50
140.979019
 51
219.02173
  0
ARC
  8
APS_GEOMETRY
 10
390.649146
 20
188.900743
 40
1.631556
 50
218.714344
 51
270.166347
  0
ARC
  8
APS_GEOMETRY
 10
390.650143
 20
188.970135
 40
1.700945
 50
270.125984
 51
341.693473
  0
LINE
  8
APS_GEOMETRY
 10
392.265003
 11
392.264977
 20
188.435867
 21
189.713634
  0
LINE
  8
APS_GEOMETRY
 10
392.264977
 11
390.987199
 20
189.713634
 21
189.713634
  0
LINE
  8
APS_GEOMETRY
 10
393.325061
 11
395.71395
 20
189.665665
 21
189.665664
  0
ARC
  8
APS_GEOMETRY
 10
395.71395
 20
190.943442
 40
1.277778
 50
270.0
 51
90.0
  0
LINE
  8
APS_GEOMETRY
 10
395.71395
 11
393.325061
 20
192.22122
 21
192.22122
  0
LINE
  8
APS_GEOMETRY
 10
393.325061
 11
393.325061
 20
192.22122
 21
187.22122
  0
LINE
  8
APS_GEOMETRY
 10
397.98386
 11
397.98386
 20
192.173759
 21
188.840426
  0
ARC
  8
APS_GEOMETRY
 10
399.650527
 20
188.840426
 40
1.666667
 50
180.0
 51
0.0
  0
LINE
  8
APS_GEOMETRY
 10
401.317194
 11
401.317193
 20
188.840426
 21
192.173759
  0
LINE
  8
APS_GEOMETRY
 10
402.325061
 11
404.325061
 20
189.832331
 21
189.832331
  0
ARC
  8
APS_GEOMETRY
 10
404.325061
 20
191.026776
 40
1.194445
 50
270.0
 51
90.0
  0
LINE
  8
APS_GEOMETRY
 10
404.325061
 11
402.325061
 20
192.221221
 21
192.22122
  0
LINE
  8
APS_GEOMETRY
 10
402.325061
 11
402.325061
 20
192.22122
 21
187.22122
  0
LINE
  8
APS_GEOMETRY
 10
402.325061
 11
404.380617
 20
187.22122
 21
187.22122
  0
ARC
  8
APS_GEOMETRY
 10
404.380617
 20
188.526776
 40
1.305556
 50
270.0
 51
90.0
  0
ARC
  8
APS_GEOMETRY
 10
413.074762
 20
190.25448
 40
2.055222
 50
42.9037
 51
122.5462
  0
ARC
  8
APS_GEOMETRY
 10
412.547197
 20
191.107094
 40
1.052778
 50
123.306728
 51
253.425553
  0
LINE
  8
APS_GEOMETRY
 10
412.246881
 11
413.91354
 20
190.098059
 21
189.542479
  0
ARC
  8
APS_GEOMETRY
 10
413.574199
 20
188.465975
 40
1.128722
 50
299.837948
 51
72.503841
  0
ARC
  8
APS_GEOMETRY
 10
413.052506
 20
189.365156
 40
2.168278
 50
240.022531
 51
299.973996
  0
ARC
  8
APS_GEOMETRY
 10
412.561962
 20
188.524451
 40
1.194945
 50
209.759208
 51
240.255279
  0
ARC
  8
APS_GEOMETRY
 10
416.013519
 20
189.724832
 40
3.039389
 50
31.026839
 51
40.045456
  0
ARC
  8
APS_GEOMETRY
 10
417.06248
 20
190.657126
 40
1.637
 50
38.687103
 51
141.311867
  0
ARC
  8
APS_GEOMETRY
 10
418.149815
 20
189.763736
 40
3.044222
 50
140.97926
 51
219.021885
  0
ARC
  8
APS_GEOMETRY
 10
417.062527
 20
188.870289
 40
1.637
 50
218.687676
 51
321.312677
  0
ARC
  8
APS_GEOMETRY
 10
415.994786
 20
189.632145
 40
2.947556
 50
322.726609
 51
335.345901
  0
LINE
  8
APS_GEOMETRY
 10
419.712733
 11
422.101622
 20
189.665665
 21
189.665664
  0
ARC
  8
APS_GEOMETRY
 10
422.101622
 20
190.943442
 40
1.277778
 50
270.0
 51
90.0
  0
LINE
  8
APS_GEOMETRY
 10
422.101622
 11
419.712733
 20
192.22122
 21
192.22122
  0
LINE
  8
APS_GEOMETRY
 10
419.712733
 11
419.712733
 20
192.22122
 21
187.22122
  0
ARC
  8
APS_GEOMETRY
 10
445.822288
 20
190.948141
 40
1.190389
 50
118.020712
 51
169.471704
  0
ARC
  8
APS_GEOMETRY
 10
446.207465
 20
190.243832
 40
1.993111
 50
61.713838
 51
118.283697
  0
ARC
  8
APS_GEOMETRY
 10
446.537106
 20
190.94341
 40
1.221556
 50
300.220037
 51
59.779425
  0
LINE
  8
APS_GEOMETRY
 10
447.151942
 11
445.263065
 20
189.887865
 21
188.721197
  0
ARC
  8
APS_GEOMETRY
 10
446.192121
 20
187.223575
 40
1.762389
 50
121.813563
 51
180.07656
  0
LINE
  8
APS_GEOMETRY
 10
444.429734
 11
447.763065
 20
187.22122
 21
187.221196
  0
LINE
  8
APS_GEOMETRY
 10
453.513067
 11
455.901956
 20
189.665665
 21
189.665664
  0
ARC
  8
APS_GEOMETRY
 10
455.901956
 20
190.943442
 40
1.277778
 50
270.0
 51
90.0
  0
LINE
  8
APS_GEOMETRY
 10
455.901956
 11
453.513067
 20
192.22122
 21
192.22122
  0
LINE
  8
APS_GEOMETRY
 10
453.513067
 11
453.513067
 20
192.22122
 21
187.22122
  0
ARC
  8
APS_GEOMETRY
 10
465.358696
 20
187.255599
 40
0.503056
 50
193.103356
 51
271.146626
  0
LINE
  8
APS_GEOMETRY
 10
464.868738
 11
464.813196
 20
187.141552
 21
187.474877
  0
ARC
  8
APS_GEOMETRY
 10
464.09987
 20
187.321317
 40
0.729667
 50
12.148823
 51
63.601209
  0
ARC
  8
APS_GEOMETRY
 10
462.892585
 20
189.724877
 40
3.044222
 50
320.9784
 51
39.0216
  0
ARC
  8
APS_GEOMETRY
 10
463.979891
 20
190.618302
 40
1.637
 50
38.688139
 51
141.312908
  0
ARC
  8
APS_GEOMETRY
 10
465.067169
 20
189.724842
 40
3.044222
 50
140.978108
 51
219.020752
  0
ARC
  8
APS_GEOMETRY
 10
463.979862
 20
188.831416
 40
1.637
 50
218.686557
 51
321.313461
  0
LINE
  8
APS_GEOMETRY
 10
466.41906
 11
466.41906
 20
192.173759
 21
188.840426
  0
ARC
  8
APS_GEOMETRY
 10
468.085727
 20
188.840426
 40
1.666667
 50
180.0
 51
0.0
  0
LINE
  8
APS_GEOMETRY
 10
469.752394
 11
469.752393
 20
188.840426
 21
192.173759
  0
LINE
  8
APS_GEOMETRY
 10
474.116854
 11
476.505743
 20
189.665665
 21
189.665664
  0
ARC
  8
APS_GEOMETRY
 10
476.505743
 20
190.943442
 40
1.277778
 50
270.0
 51
90.0
  0
LINE
  8
APS_GEOMETRY
 10
476.505743
 11
474.116854
 20
192.22122
 21
192.22122
  0
LINE
  8
APS_GEOMETRY
 10
474.116854
 11
474.116854
 20
192.22122
 21
187.22122
  0
ARC
  8
APS_GEOMETRY
 10
484.566021
 20
190.589665
 40
1.631556
 50
38.7145
 51
90.1655
  0
LINE
  8
APS_GEOMETRY
 10
484.561308
 11
483.116855
 20
192.221214
 21
192.22122
  0
LINE
  8
APS_GEOMETRY
 10
483.116855
 11
483.116855
 20
192.22122
 21
187.22122
  0
LINE
  8
APS_GEOMETRY
 10
483.116855
 11
484.561299
 20
187.22122
 21
187.22122
  0
ARC
  8
APS_GEOMETRY
 10
484.566016
 20
188.852769
 40
1.631556
 50
269.834347
 51
321.285799
  0
ARC
  8
APS_GEOMETRY
 10
483.508318
 20
189.72122
 40
3.000056
 50
320.978162
 51
39.021852
  0
LINE
  8
APS_GEOMETRY
 10
389.888214
 11
392.277103
 20
241.541602
 21
241.541601
  0
ARC
  8
APS_GEOMETRY
 10
392.277103
 20
242.819379
 40
1.277778
 50
270.0
 51
90.0
  0
LINE
  8
APS_GEOMETRY
 10
392.277103
 11
389.888214
 20
244.097157
 21
244.097157
  0
LINE
  8
APS_GEOMETRY
 10
389.888214
 11
389.888214
 20
244.097157
 21
239.097157
  0
ARC
  8
APS_GEOMETRY
 10
401.733844
 20
239.131536
 40
0.503056
 50
193.103358
 51
271.146512
  0
LINE
  8
APS_GEOMETRY
 10
401.243886
 11
401.188344
 20
239.017489
 21
239.350814
  0
ARC
  8
APS_GEOMETRY
 10
400.475018
 20
239.197254
 40
0.729667
 50
12.148823
 51
63.601209
  0
ARC
  8
APS_GEOMETRY
 10
399.267732
 20
241.600814
 40
3.044222
 50
320.9784
 51
39.0216
  0
ARC
  8
APS_GEOMETRY
 10
400.355038
 20
242.494239
 40
1.637
 50
38.688139
 51
141.312908
  0
ARC
  8
APS_GEOMETRY
 10
401.442316
 20
241.600779
 40
3.044222
 50
140.978108
 51
219.020752
  0
ARC
  8
APS_GEOMETRY
 10
400.355009
 20
240.707353
 40
1.637
 50
218.686557
 51
321.313461
  0
LINE
  8
APS_GEOMETRY
 10
406.1508
 11
406.1508
 20
244.049696
 21
240.716363
  0
ARC
  8
APS_GEOMETRY
 10
407.817467
 20
240.716363
 40
1.666667
 50
180.0
 51
0.0
  0
LINE
  8
APS_GEOMETRY
 10
409.484134
 11
409.484133
 20
240.716363
 21
244.049696
  0
LINE
  8
APS_GEOMETRY
 10
410.492001
 11
412.88089
 20
241.541602
 21
241.541601
  0
ARC
  8
APS_GEOMETRY
 10
412.88089
 20
242.819379
 40
1.277778
 50
270.0
 51
90.0
  0
LINE
  8
APS_GEOMETRY
 10
412.88089
 11
410.492001
 20
244.097157
 21
244.097157
  0
LINE
  8
APS_GEOMETRY
 10
410.492001
 11
410.492001
 20
244.097157
 21
239.097157
  0
ARC
  8
APS_GEOMETRY
 10
420.941168
 20
242.465602
 40
1.631556
 50
38.7145
 51
90.1655
  0
LINE
  8
APS_GEOMETRY
 10
420.936455
 11
419.492002
 20
244.097151
 21
244.097157
  0
LINE
  8
APS_GEOMETRY
 10
419.492002
 11
419.492002
 20
244.097157
 21
239.097157
  0
LINE
  8
APS_GEOMETRY
 10
419.492002
 11
420.936446
 20
239.097157
 21
239.097157
  0
ARC
  8
APS_GEOMETRY
 10
420.941163
 20
240.728706
 40
1.631556
 50
269.834347
 51
321.285799
  0
ARC
  8
APS_GEOMETRY
 10
419.883465
 20
241.597157
 40
3.000056
 50
320.978162
 51
39.021852
  0
ARC
  8
APS_GEOMETRY
 10
49.684789
 20
207.857633
 40
1.637
 50
218.6887
 51
321.3113
  0
ARC
  8
APS_GEOMETRY
 10
48.597482
 20
208.751057
 40
3.044222
 50
320.978126
 51
39.020743
  0
ARC
  8
APS_GEOMETRY
 10
49.684817
 20
209.644447
 40
1.637
 50
38.688131
 51
141.31289
  0
ARC
  8
APS_GEOMETRY
 10
50.772124
 20
208.751023
 40
3.044222
 50
140.978978
 51
219.021043
  0
ARC
  8
APS_GEOMETRY
 10
61.934784
 20
209.236323
 40
2.055222
 50
42.9037
 51
122.5462
  0
ARC
  8
APS_GEOMETRY
 10
61.407219
 20
210.088937
 40
1.052778
 50
123.306708
 51
253.425514
  0
LINE
  8
APS_GEOMETRY
 10
61.106902
 11
62.773562
 20
209.079902
 21
208.524323
  0
ARC
  8
APS_GEOMETRY
 10
62.434221
 20
207.447819
 40
1.128722
 50
299.837948
 51
72.503841
  0
ARC
  8
APS_GEOMETRY
 10
61.912528
 20
208.347
 40
2.168278
 50
240.022531
 51
299.973996
  0
ARC
  8
APS_GEOMETRY
 10
61.421982
 20
207.506296
 40
1.194945
 50
209.759255
 51
240.255361
  0
ARC
  8
APS_GEOMETRY
 10
69.62354
 20
208.706675
 40
3.039389
 50
31.026839
 51
40.045456
  0
ARC
  8
APS_GEOMETRY
 10
70.672502
 20
209.638968
 40
1.637
 50
38.687109
 51
141.311816
  0
ARC
  8
APS_GEOMETRY
 10
71.759837
 20
208.74558
 40
3.044222
 50
140.97926
 51
219.021885
  0
ARC
  8
APS_GEOMETRY
 10
70.672548
 20
207.852133
 40
1.637
 50
218.687704
 51
321.312649
  0
ARC
  8
APS_GEOMETRY
 10
69.60481
 20
208.613992
 40
2.947556
 50
322.726528
 51
335.34583
  0
ARC
  8
APS_GEOMETRY
 10
78.961344
 20
209.236323
 40
2.055222
 50
42.9037
 51
122.5462
  0
ARC
  8
APS_GEOMETRY
 10
78.433779
 20
210.088937
 40
1.052778
 50
123.306728
 51
253.425553
  0
LINE
  8
APS_GEOMETRY
 10
78.133463
 11
79.800122
 20
209.079902
 21
208.524323
  0
ARC
  8
APS_GEOMETRY
 10
79.460781
 20
207.447819
 40
1.128722
 50
299.837948
 51
72.503841
  0
ARC
  8
APS_GEOMETRY
 10
78.939088
 20
208.347
 40
2.168278
 50
240.022531
 51
299.973996
  0
ARC
  8
APS_GEOMETRY
 10
78.448542
 20
207.506296
 40
1.194945
 50
209.759255
 51
240.255361
  0
ARC
  8
APS_GEOMETRY
 10
96.600321
 20
207.857633
 40
1.637
 50
218.6887
 51
321.3113
  0
ARC
  8
APS_GEOMETRY
 10
95.513015
 20
208.751057
 40
3.044222
 50
320.978111
 51
39.020728
  0
ARC
  8
APS_GEOMETRY
 10
96.60035
 20
209.644447
 40
1.637
 50
38.688131
 51
141.31289
  0
ARC
  8
APS_GEOMETRY
 10
97.687656
 20
208.751022
 40
3.044222
 50
140.978963
 51
219.021028
  0
ARC
  8
APS_GEOMETRY
 10
105.43365
 20
209.236323
 40
2.055222
 50
42.9037
 51
122.5462
  0
ARC
  8
APS_GEOMETRY
 10
104.906085
 20
210.088937
 40
1.052778
 50
123.306708
 51
253.425514
  0
LINE
  8
APS_GEOMETRY
 10
104.605768
 11
106.272427
 20
209.079902
 21
208.524323
  0
ARC
  8
APS_GEOMETRY
 10
105.933086
 20
207.447819
 40
1.128722
 50
299.837948
 51
72.503841
  0
ARC
  8
APS_GEOMETRY
 10
105.411394
 20
208.347001
 40
2.168278
 50
240.022547
 51
299.973981
  0
ARC
  8
APS_GEOMETRY
 10
104.920848
 20
207.506296
 40
1.194945
 50
209.759255
 51
240.255361
  0
LINE
  8
APS_GEOMETRY
 10
107.995694
 11
107.995694
 20
211.155603
 21
207.822269
  0
ARC
  8
APS_GEOMETRY
 10
109.662361
 20
207.822269
 40
1.666667
 50
180.0
 51
0.0
  0
LINE
  8
APS_GEOMETRY
 10
111.329028
 11
111.329028
 20
207.822269
 21
211.155603
  0
ARC
  8
APS_GEOMETRY
 10
57.874791
 20
200.302021
 40
1.559056
 50
208.751948
 51
258.48402
  0
ARC
  8
APS_GEOMETRY
 10
58.205135
 20
201.731437
 40
3.025889
 50
257.758344
 51
286.48041
  0
ARC
  8
APS_GEOMETRY
 10
58.674645
 20
200.196435
 40
1.420833
 50
285.885151
 51
325.197017
  0
ARC
  8
APS_GEOMETRY
 10
58.685773
 20
200.205514
 40
1.416945
 50
324.638774
 51
31.268689
  0
ARC
  8
APS_GEOMETRY
 10
58.638576
 20
200.189226
 40
1.465778
 50
30.855306
 51
75.402322
  0
ARC
  8
APS_GEOMETRY
 10
58.341329
 20
199.003844
 40
2.687833
 50
75.638926
 51
104.361134
  0
ARC
  8
APS_GEOMETRY
 10
56.685273
 20
204.470016
 40
3.0285
 50
289.068086
 51
345.637913
  0
LINE
  8
APS_GEOMETRY
 10
59.619124
 11
56.563549
 20
203.7188
 21
203.718789
  0
ARC
  8
APS_GEOMETRY
 10
79.21393
 20
201.736323
 40
2.055222
 50
42.9037
 51
122.5462
  0
ARC
  8
APS_GEOMETRY
 10
78.686365
 20
202.588937
 40
1.052778
 50
123.306708
 51
253.425514
  0
LINE
  8
APS_GEOMETRY
 10
78.386048
 11
80.052707
 20
201.579902
 21
201.024323
  0
ARC
  8
APS_GEOMETRY
 10
79.713366
 20
199.947819
 40
1.128722
 50
299.837948
 51
72.503841
  0
ARC
  8
APS_GEOMETRY
 10
79.191674
 20
200.847001
 40
2.168278
 50
240.022547
 51
299.973981
  0
ARC
  8
APS_GEOMETRY
 10
78.701128
 20
200.006296
 40
1.194945
 50
209.759255
 51
240.255361
  0
ARC
  8
APS_GEOMETRY
 10
94.808242
 20
201.206675
 40
3.039389
 50
31.026839
 51
40.045456
  0
ARC
  8
APS_GEOMETRY
 10
95.857203
 20
202.138969
 40
1.637
 50
38.687081
 51
141.311844
  0
ARC
  8
APS_GEOMETRY
 10
96.944538
 20
201.24558
 40
3.044222
 50
140.97926
 51
219.021885
  0
ARC
  8
APS_GEOMETRY
 10
95.85725
 20
200.352133
 40
1.637
 50
218.687676
 51
321.312677
  0
ARC
  8
APS_GEOMETRY
 10
94.789512
 20
201.113992
 40
2.947556
 50
322.726528
 51
335.34583
  0
ARC
  8
APS_GEOMETRY
 10
62.868347
 20
158.638323
 40
1.637
 50
218.6887
 51
321.3113
  0
ARC
  8
APS_GEOMETRY
 10
61.781041
 20
159.531747
 40
3.044222
 50
320.978114
 51
39.020755
  0
ARC
  8
APS_GEOMETRY
 10
62.868376
 20
160.425136
 40
1.637
 50
38.688181
 51
141.312885
  0
ARC
  8
APS_GEOMETRY
 10
63.955682
 20
159.531712
 40
3.044222
 50
140.978963
 51
219.021028
  0
ARC
  8
APS_GEOMETRY
 10
78.598596
 20
159.487366
 40
3.039389
 50
31.026839
 51
40.045456
  0
ARC
  8
APS_GEOMETRY
 10
79.647557
 20
160.41966
 40
1.637
 50
38.687081
 51
141.311844
  0
ARC
  8
APS_GEOMETRY
 10
80.734892
 20
159.526271
 40
3.044222
 50
140.979263
 51
219.021912
  0
ARC
  8
APS_GEOMETRY
 10
79.647604
 20
158.632823
 40
1.637
 50
218.687704
 51
321.312649
  0
ARC
  8
APS_GEOMETRY
 10
78.579866
 20
159.394682
 40
2.947556
 50
322.726528
 51
335.34583
  0
ARC
  8
APS_GEOMETRY
 10
87.9364
 20
160.017014
 40
2.055222
 50
42.9037
 51
122.5462
  0
ARC
  8
APS_GEOMETRY
 10
87.408835
 20
160.869628
 40
1.052778
 50
123.306728
 51
253.425553
  0
LINE
  8
APS_GEOMETRY
 10
87.108519
 11
88.775178
 20
159.860593
 21
159.305014
  0
ARC
  8
APS_GEOMETRY
 10
88.435838
 20
158.22851
 40
1.128722
 50
299.837883
 51
72.503901
  0
ARC
  8
APS_GEOMETRY
 10
87.914145
 20
159.127691
 40
2.168278
 50
240.022505
 51
299.97397
  0
ARC
  8
APS_GEOMETRY
 10
87.423597
 20
158.286987
 40
1.194945
 50
209.759337
 51
240.255408
  0
ARC
  8
APS_GEOMETRY
 10
105.575377
 20
158.638323
 40
1.637
 50
218.6887
 51
321.3113
  0
ARC
  8
APS_GEOMETRY
 10
104.488071
 20
159.531747
 40
3.044222
 50
320.978114
 51
39.020755
  0
ARC
  8
APS_GEOMETRY
 10
105.575406
 20
160.425136
 40
1.637
 50
38.688181
 51
141.312885
  0
ARC
  8
APS_GEOMETRY
 10
106.662712
 20
159.531712
 40
3.044222
 50
140.978963
 51
219.021028
  0
ARC
  8
APS_GEOMETRY
 10
114.408705
 20
160.017014
 40
2.055222
 50
42.9037
 51
122.5462
  0
ARC
  8
APS_GEOMETRY
 10
113.88114
 20
160.869628
 40
1.052778
 50
123.306728
 51
253.425553
  0
LINE
  8
APS_GEOMETRY
 10
113.580824
 11
115.247483
 20
159.860593
 21
159.305014
  0
ARC
  8
APS_GEOMETRY
 10
114.908143
 20
158.22851
 40
1.128722
 50
299.837883
 51
72.503901
  0
ARC
  8
APS_GEOMETRY
 10
114.386451
 20
159.127691
 40
2.168278
 50
240.02252
 51
299.973955
  0
ARC
  8
APS_GEOMETRY
 10
113.895903
 20
158.286987
 40
1.194945
 50
209.759337
 51
240.255408
  0
LINE
  8
APS_GEOMETRY
 10
116.97075
 11
116.97075
 20
161.936293
 21
158.60296
  0
ARC
  8
APS_GEOMETRY
 10
118.637417
 20
158.60296
 40
1.666667
 50
180.0
 51
0.0
  0
LINE
  8
APS_GEOMETRY
 10
120.304084
 11
120.304084
 20
158.60296
 21
161.936293
  0
ARC
  8
APS_GEOMETRY
 10
60.532347
 20
151.082712
 40
1.559056
 50
208.751948
 51
258.48402
  0
ARC
  8
APS_GEOMETRY
 10
60.862693
 20
152.512127
 40
3.025889
 50
257.758306
 51
286.480371
  0
ARC
  8
APS_GEOMETRY
 10
61.3322
 20
150.977125
 40
1.420833
 50
285.885188
 51
325.197078
  0
ARC
  8
APS_GEOMETRY
 10
61.343329
 20
150.986205
 40
1.416945
 50
324.638774
 51
31.268689
  0
ARC
  8
APS_GEOMETRY
 10
61.296132
 20
150.969917
 40
1.465778
 50
30.855306
 51
75.402322
  0
ARC
  8
APS_GEOMETRY
 10
60.998885
 20
149.784535
 40
2.687833
 50
75.638926
 51
104.361134
  0
ARC
  8
APS_GEOMETRY
 10
59.342829
 20
155.250707
 40
3.0285
 50
289.06808
 51
345.637891
  0
LINE
  8
APS_GEOMETRY
 10
62.27668
 11
59.221105
 20
154.49949
 21
154.499479
  0
ARC
  8
APS_GEOMETRY
 10
74.595366
 20
151.138323
 40
1.637
 50
218.6887
 51
321.3113
  0
ARC
  8
APS_GEOMETRY
 10
73.50806
 20
152.031748
 40
3.044222
 50
320.978099
 51
39.02074
  0
ARC
  8
APS_GEOMETRY
 10
74.595395
 20
152.925137
 40
1.637
 50
38.688153
 51
141.312913
  0
ARC
  8
APS_GEOMETRY
 10
75.682701
 20
152.031712
 40
3.044222
 50
140.978963
 51
219.021028
  0
LINE
  8
APS_GEOMETRY
 10
86.123438
 11
88.123438
 20
152.094865
 21
152.094865
  0
ARC
  8
APS_GEOMETRY
 10
88.123438
 20
153.28931
 40
1.194445
 50
270.0
 51
90.0
  0
LINE
  8
APS_GEOMETRY
 10
88.123438
 11
86.123438
 20
154.483755
 21
154.483754
  0
LINE
  8
APS_GEOMETRY
 10
86.123438
 11
86.123438
 20
154.483754
 21
149.483754
  0
LINE
  8
APS_GEOMETRY
 10
86.123438
 11
88.178994
 20
149.483754
 21
149.483754
  0
ARC
  8
APS_GEOMETRY
 10
88.178994
 20
150.78931
 40
1.305556
 50
270.000005
 51
89.999995
  0
ARC
  8
APS_GEOMETRY
 10
95.425616
 20
151.987366
 40
3.039389
 50
31.026839
 51
40.045456
  0
ARC
  8
APS_GEOMETRY
 10
96.474577
 20
152.91966
 40
1.637
 50
38.687081
 51
141.311844
  0
ARC
  8
APS_GEOMETRY
 10
97.561912
 20
152.02627
 40
3.044222
 50
140.979248
 51
219.021897
  0
ARC
  8
APS_GEOMETRY
 10
96.474624
 20
151.132823
 40
1.637
 50
218.687676
 51
321.312677
  0
ARC
  8
APS_GEOMETRY
 10
95.406883
 20
151.894679
 40
2.947556
 50
322.726609
 51
335.345901
  0
ARC
  8
APS_GEOMETRY
 10
116.760341
 20
151.987366
 40
3.039389
 50
31.026839
 51
40.045456
  0
ARC
  8
APS_GEOMETRY
 10
117.809302
 20
152.91966
 40
1.637
 50
38.687081
 51
141.311844
  0
ARC
  8
APS_GEOMETRY
 10
118.896637
 20
152.02627
 40
3.044222
 50
140.979248
 51
219.021897
  0
ARC
  8
APS_GEOMETRY
 10
117.809349
 20
151.132823
 40
1.637
 50
218.687676
 51
321.312677
  0
ARC
  8
APS_GEOMETRY
 10
116.741608
 20
151.894679
 40
2.947556
 50
322.726609
 51
335.345901
  0
ARC
  8
APS_GEOMETRY
 10
277.674676
 20
293.189736
 40
1.99993
 50
67.499601
 51
112.500399
  0
ARC
  8
APS_GEOMETRY
 10
277.674689
 20
293.18971
 40
1.999959
 50
112.500458
 51
135.00062
  0
ARC
  8
APS_GEOMETRY
 10
277.674717
 20
293.189678
 40
2.000002
 50
135.00054
 51
157.500377
  0
ARC
  8
APS_GEOMETRY
 10
277.674746
 20
293.189668
 40
2.000032
 50
157.500441
 51
202.499688
  0
ARC
  8
APS_GEOMETRY
 10
277.674719
 20
293.189652
 40
2.000002
 50
202.49956
 51
224.999398
  0
ARC
  8
APS_GEOMETRY
 10
277.674688
 20
293.189622
 40
1.999959
 50
224.999402
 51
247.499581
  0
ARC
  8
APS_GEOMETRY
 10
277.674675
 20
293.189596
 40
1.99993
 50
247.49965
 51
292.500426
  0
ARC
  8
APS_GEOMETRY
 10
277.674665
 20
293.189623
 40
1.999959
 50
292.500405
 51
315.000551
  0
ARC
  8
APS_GEOMETRY
 10
277.674636
 20
293.189654
 40
2.000002
 50
315.0005
 51
337.500377
  0
ARC
  8
APS_GEOMETRY
 10
277.674606
 20
293.189661
 40
2.000032
 50
337.500516
 51
22.499725
  0
ARC
  8
APS_GEOMETRY
 10
277.674632
 20
293.189682
 40
2.000002
 50
22.499455
 51
44.9993
  0
ARC
  8
APS_GEOMETRY
 10
277.674666
 20
293.189709
 40
1.999959
 50
44.99946
 51
67.499638
  0
ARC
  8
APS_GEOMETRY
 10
282.56709
 20
294.416587
 40
1.190389
 50
118.020712
 51
169.471704
  0
ARC
  8
APS_GEOMETRY
 10
282.952267
 20
293.712278
 40
1.993111
 50
61.713838
 51
118.283697
  0
ARC
  8
APS_GEOMETRY
 10
283.281908
 20
294.411856
 40
1.221556
 50
300.220037
 51
59.779425
  0
LINE
  8
APS_GEOMETRY
 10
283.896744
 11
282.007867
 20
293.356311
 21
292.189643
  0
ARC
  8
APS_GEOMETRY
 10
282.936923
 20
290.692021
 40
1.762389
 50
121.813563
 51
180.07656
  0
LINE
  8
APS_GEOMETRY
 10
281.174536
 11
284.507868
 20
290.689666
 21
290.689642
  0
ARC
  8
APS_GEOMETRY
 10
287.245924
 20
292.523444
 40
1.865667
 50
202.7274
 51
247.2726
  0
ARC
  8
APS_GEOMETRY
 10
287.27512
 20
292.5576
 40
1.9085
 50
246.860301
 51
293.140747
  0
ARC
  8
APS_GEOMETRY
 10
287.315535
 20
292.480729
 40
1.821945
 50
292.922074
 51
357.893276
  0
ARC
  8
APS_GEOMETRY
 10
287.495977
 20
292.471223
 40
1.641278
 50
357.993346
 51
71.191208
  0
ARC
  8
APS_GEOMETRY
 10
287.275036
 20
291.819018
 40
2.329889
 50
71.219133
 51
108.775449
  0
ARC
  8
APS_GEOMETRY
 10
287.127535
 20
292.218675
 40
1.904056
 50
108.443885
 51
138.941046
  0
LINE
  8
APS_GEOMETRY
 10
285.691812
 11
286.080702
 20
293.469326
 21
295.691556
  0
LINE
  8
APS_GEOMETRY
 10
286.080702
 11
288.580702
 20
295.691556
 21
295.691556
  0
LINE
  8
APS_GEOMETRY
 10
156.636043
 11
155.009698
 20
238.91172
 21
240.538066
  0
LINE
  8
APS_GEOMETRY
 10
155.009698
 11
153.383352
 20
240.538066
 21
238.91172
  0
LINE
  8
APS_GEOMETRY
 10
153.383352
 11
155.009698
 20
238.91172
 21
237.285375
  0
LINE
  8
APS_GEOMETRY
 10
155.009698
 11
156.636043
 20
237.285375
 21
238.91172
  0
LINE
  8
APS_GEOMETRY
 10
165.122015
 11
166.74836
 20
238.91172
 21
240.538066
  0
LINE
  8
APS_GEOMETRY
 10
166.74836
 11
168.374706
 20
240.538066
 21
238.91172
  0
LINE
  8
APS_GEOMETRY
 10
168.374706
 11
166.74836
 20
238.91172
 21
237.285375
  0
LINE
  8
APS_GEOMETRY
 10
166.74836
 11
165.122015
 20
237.285375
 21
238.91172
  0
LINE
  8
APS_GEOMETRY
 10
196.827108
 11
195.200763
 20
218.11798
 21
219.744326
  0
LINE
  8
APS_GEOMETRY
 10
195.200763
 11
193.574417
 20
219.744326
 21
218.11798
  0
LINE
  8
APS_GEOMETRY
 10
193.574417
 11
195.200763
 20
218.11798
 21
216.491634
  0
LINE
  8
APS_GEOMETRY
 10
195.200763
 11
196.827108
 20
216.491634
 21
218.11798
  0
LINE
  8
APS_GEOMETRY
 10
205.31308
 11
206.939425
 20
218.11798
 21
219.744326
  0
LINE
  8
APS_GEOMETRY
 10
206.939425
 11
208.565771
 20
219.744326
 21
218.11798
  0
LINE
  8
APS_GEOMETRY
 10
208.565771
 11
206.939425
 20
218.11798
 21
216.491634
  0
LINE
  8
APS_GEOMETRY
 10
206.939425
 11
205.31308
 20
216.491634
 21
218.11798
  0
LINE
  8
APS_GEOMETRY
 10
197.344797
 11
195.718452
 20
180.076578
 21
181.702924
  0
LINE
  8
APS_GEOMETRY
 10
195.718452
 11
194.092106
 20
181.702924
 21
180.076578
  0
LINE
  8
APS_GEOMETRY
 10
194.092106
 11
195.718452
 20
180.076578
 21
178.450233
  0
LINE
  8
APS_GEOMETRY
 10
195.718452
 11
197.344797
 20
178.450233
 21
180.076578
  0
LINE
  8
APS_GEOMETRY
 10
205.830769
 11
207.457114
 20
180.076578
 21
181.702924
  0
LINE
  8
APS_GEOMETRY
 10
207.457114
 11
209.08346
 20
181.702924
 21
180.076578
  0
LINE
  8
APS_GEOMETRY
 10
209.08346
 11
207.457114
 20
180.076578
 21
178.450233
  0
LINE
  8
APS_GEOMETRY
 10
207.457114
 11
205.830769
 20
178.450233
 21
180.076578
  0
LINE
  8
APS_GEOMETRY
 10
163.768657
 11
163.768657
 20
141.876837
 21
145.026837
  0
LINE
  8
APS_GEOMETRY
 10
169.068717
 11
169.068717
 20
141.876837
 21
145.026837
  0
LINE
  8
APS_GEOMETRY
 10
179.229888
 11
182.285444
 20
143.386929
 21
143.386929
  0
LINE
  8
APS_GEOMETRY
 10
178.618777
 11
180.563222
 20
141.876837
 21
146.876838
  0
LINE
  8
APS_GEOMETRY
 10
180.563222
 11
181.007666
 20
146.876838
 21
146.876838
  0
LINE
  8
APS_GEOMETRY
 10
181.007666
 11
182.841
 20
146.876838
 21
141.876837
  0
LINE
  8
APS_GEOMETRY
 10
189.98128
 11
191.092391
 20
144.321282
 21
141.876837
  0
LINE
  8
APS_GEOMETRY
 10
191.999013
 11
193.943458
 20
146.858802
 21
144.081024
  0
LINE
  8
APS_GEOMETRY
 10
193.943458
 11
193.943458
 20
144.081024
 21
141.858801
  0
LINE
  8
APS_GEOMETRY
 10
193.943458
 11
195.887902
 20
144.081024
 21
146.858802
  0
LINE
  8
APS_GEOMETRY
 10
196.314613
 11
196.314613
 20
146.876838
 21
141.876837
  0
LINE
  8
APS_GEOMETRY
 10
196.314613
 11
199.647947
 20
141.876837
 21
141.876837
  0
LINE
  8
APS_GEOMETRY
 10
200.148115
 11
201.326412
 20
146.87564
 21
146.876838
  0
LINE
  8
APS_GEOMETRY
 10
201.326412
 11
201.326412
 20
146.876838
 21
141.876837
  0
LINE
  8
APS_GEOMETRY
 10
201.326412
 11
200.148115
 20
141.876837
 21
141.87564
  0
LINE
  8
APS_GEOMETRY
 10
201.326412
 11
202.504708
 20
141.876837
 21
141.87564
  0
LINE
  8
APS_GEOMETRY
 10
201.326412
 11
202.504708
 20
146.876838
 21
146.87564
  0
LINE
  8
APS_GEOMETRY
 10
240.13848
 11
240.13848
 20
243.239376
 21
246.389376
  0
LINE
  8
APS_GEOMETRY
 10
245.43854
 11
245.43854
 20
243.239376
 21
246.389376
  0
LINE
  8
APS_GEOMETRY
 10
255.599712
 11
258.655267
 20
244.749467
 21
244.749467
  0
LINE
  8
APS_GEOMETRY
 10
254.9886
 11
256.933045
 20
243.239376
 21
248.239376
  0
LINE
  8
APS_GEOMETRY
 10
256.933045
 11
257.377489
 20
248.239376
 21
248.239376
  0
LINE
  8
APS_GEOMETRY
 10
257.377489
 11
259.210823
 20
248.239376
 21
243.239376
  0
LINE
  8
APS_GEOMETRY
 10
266.351103
 11
267.462214
 20
245.683821
 21
243.239376
  0
LINE
  8
APS_GEOMETRY
 10
268.368836
 11
270.313281
 20
248.22134
 21
245.443562
  0
LINE
  8
APS_GEOMETRY
 10
270.313281
 11
270.313281
 20
245.443562
 21
243.22134
  0
LINE
  8
APS_GEOMETRY
 10
270.313281
 11
272.257725
 20
245.443562
 21
248.22134
  0
LINE
  8
APS_GEOMETRY
 10
272.684437
 11
272.684437
 20
248.239376
 21
243.239376
  0
LINE
  8
APS_GEOMETRY
 10
272.684437
 11
276.01777
 20
243.239376
 21
243.239376
  0
LINE
  8
APS_GEOMETRY
 10
276.517938
 11
277.696235
 20
248.238179
 21
248.239376
  0
LINE
  8
APS_GEOMETRY
 10
277.696235
 11
277.696235
 20
248.239376
 21
243.239376
  0
LINE
  8
APS_GEOMETRY
 10
277.696235
 11
276.517938
 20
243.239376
 21
243.238179
  0
LINE
  8
APS_GEOMETRY
 10
277.696235
 11
278.874531
 20
243.239376
 21
243.238179
  0
LINE
  8
APS_GEOMETRY
 10
277.696235
 11
278.874531
 20
248.239376
 21
248.238179
  0
LINE
  8
APS_GEOMETRY
 10
369.604019
 11
370.71513
 20
295.39045
 21
292.946006
  0
LINE
  8
APS_GEOMETRY
 10
375.381797
 11
372.048463
 20
297.946006
 21
297.946006
  0
LINE
  8
APS_GEOMETRY
 10
372.048463
 11
372.048463
 20
297.946006
 21
292.946006
  0
LINE
  8
APS_GEOMETRY
 10
372.048463
 11
375.381797
 20
292.946006
 21
292.946006
  0
LINE
  8
APS_GEOMETRY
 10
372.104019
 11
374.270686
 20
295.612672
 21
295.612672
  0
LINE
  8
APS_GEOMETRY
 10
385.023316
 11
385.023316
 20
297.946006
 21
292.946006
  0
LINE
  8
APS_GEOMETRY
 10
385.023316
 11
388.356649
 20
292.946006
 21
292.946006
  0
LINE
  8
APS_GEOMETRY
 10
392.189983
 11
388.856649
 20
297.946006
 21
297.946006
  0
LINE
  8
APS_GEOMETRY
 10
388.856649
 11
388.856649
 20
297.946006
 21
292.946006
  0
LINE
  8
APS_GEOMETRY
 10
388.856649
 11
392.189983
 20
292.946006
 21
292.946006
  0
LINE
  8
APS_GEOMETRY
 10
388.912205
 11
391.078871
 20
295.612672
 21
295.612672
  0
LINE
  8
APS_GEOMETRY
 10
401.831501
 11
401.831501
 20
297.946006
 21
292.946006
  0
LINE
  8
APS_GEOMETRY
 10
401.831501
 11
405.164835
 20
292.946006
 21
292.946006
  0
LINE
  8
APS_GEOMETRY
 10
406.275946
 11
409.331501
 20
294.456097
 21
294.456097
  0
LINE
  8
APS_GEOMETRY
 10
405.664835
 11
407.609279
 20
292.946006
 21
297.946006
  0
LINE
  8
APS_GEOMETRY
 10
407.609279
 11
408.053724
 20
297.946006
 21
297.946006
  0
LINE
  8
APS_GEOMETRY
 10
408.053724
 11
409.887057
 20
297.946006
 21
292.946006
  0
LINE
  8
APS_GEOMETRY
 10
417.928893
 11
414.59556
 20
297.946006
 21
297.946006
  0
LINE
  8
APS_GEOMETRY
 10
414.59556
 11
414.59556
 20
297.946006
 21
292.946006
  0
LINE
  8
APS_GEOMETRY
 10
414.59556
 11
417.928893
 20
292.946006
 21
292.946006
  0
LINE
  8
APS_GEOMETRY
 10
414.651115
 11
416.817782
 20
295.612672
 21
295.612672
  0
LINE
  8
APS_GEOMETRY
 10
421.151115
 11
422.262227
 20
295.39045
 21
292.946006
  0
LINE
  8
APS_GEOMETRY
 10
432.678893
 11
432.678893
 20
292.946006
 21
297.946006
  0
LINE
  8
APS_GEOMETRY
 10
432.678893
 11
432.956671
 20
297.946006
 21
297.946006
  0
LINE
  8
APS_GEOMETRY
 10
432.956671
 11
435.734449
 20
297.946006
 21
292.946006
  0
LINE
  8
APS_GEOMETRY
 10
435.734449
 11
436.012227
 20
292.946006
 21
292.946006
  0
LINE
  8
APS_GEOMETRY
 10
436.012227
 11
436.012227
 20
292.946006
 21
297.946006
  0
LINE
  8
APS_GEOMETRY
 10
437.012395
 11
438.190692
 20
297.944809
 21
297.946006
  0
LINE
  8
APS_GEOMETRY
 10
438.190692
 11
438.190692
 20
297.946006
 21
292.946006
  0
LINE
  8
APS_GEOMETRY
 10
438.190692
 11
437.012395
 20
292.946006
 21
292.944808
  0
LINE
  8
APS_GEOMETRY
 10
438.190692
 11
439.368988
 20
292.946006
 21
292.944808
  0
LINE
  8
APS_GEOMETRY
 10
438.190692
 11
439.368988
 20
297.946006
 21
297.944809
  0
LINE
  8
APS_GEOMETRY
 10
441.833791
 11
441.833791
 20
297.924642
 21
292.980197
  0
LINE
  8
APS_GEOMETRY
 10
439.889347
 11
443.778236
 20
297.980197
 21
297.980197
  0
LINE
  8
APS_GEOMETRY
 10
369.582494
 11
370.915827
 20
290.573207
 21
285.573206
  0
LINE
  8
APS_GEOMETRY
 10
370.915827
 11
371.026938
 20
285.573206
 21
285.573206
  0
LINE
  8
APS_GEOMETRY
 10
371.026938
 11
372.304716
 20
285.573206
 21
290.573207
  0
LINE
  8
APS_GEOMETRY
 10
372.304716
 11
372.415827
 20
290.573207
 21
290.573207
  0
LINE
  8
APS_GEOMETRY
 10
372.415827
 11
373.693605
 20
290.573207
 21
285.573206
  0
LINE
  8
APS_GEOMETRY
 10
373.693605
 11
373.804716
 20
285.573206
 21
285.573206
  0
LINE
  8
APS_GEOMETRY
 10
373.804716
 11
375.13805
 20
285.573206
 21
290.573207
  0
LINE
  8
APS_GEOMETRY
 10
375.63805
 11
376.971383
 20
290.573207
 21
285.573206
  0
LINE
  8
APS_GEOMETRY
 10
376.971383
 11
377.082494
 20
285.573206
 21
285.573206
  0
LINE
  8
APS_GEOMETRY
 10
377.082494
 11
378.360272
 20
285.573206
 21
290.573207
  0
LINE
  8
APS_GEOMETRY
 10
378.360272
 11
378.471383
 20
290.573207
 21
290.573207
  0
LINE
  8
APS_GEOMETRY
 10
378.471383
 11
379.749161
 20
290.573207
 21
285.573206
  0
LINE
  8
APS_GEOMETRY
 10
379.749161
 11
379.860272
 20
285.573206
 21
285.573206
  0
LINE
  8
APS_GEOMETRY
 10
379.860272
 11
381.193606
 20
285.573206
 21
290.573207
  0
LINE
  8
APS_GEOMETRY
 10
381.693606
 11
383.026939
 20
290.573207
 21
285.573206
  0
LINE
  8
APS_GEOMETRY
 10
383.026939
 11
383.13805
 20
285.573206
 21
285.573206
  0
LINE
  8
APS_GEOMETRY
 10
383.13805
 11
384.415828
 20
285.573206
 21
290.573207
  0
LINE
  8
APS_GEOMETRY
 10
384.415828
 11
384.526939
 20
290.573207
 21
290.573207
  0
LINE
  8
APS_GEOMETRY
 10
384.526939
 11
385.804717
 20
290.573207
 21
285.573206
  0
LINE
  8
APS_GEOMETRY
 10
385.804717
 11
385.915828
 20
285.573206
 21
285.573206
  0
LINE
  8
APS_GEOMETRY
 10
385.915828
 11
387.249161
 20
285.573206
 21
290.573207
  0
LINE
  8
APS_GEOMETRY
 10
389.631462
 11
389.631462
 20
290.446006
 21
285.446006
  0
LINE
  8
APS_GEOMETRY
 10
389.631462
 11
392.964795
 20
285.446006
 21
285.446006
  0
LINE
  8
APS_GEOMETRY
 10
394.075907
 11
397.131462
 20
286.956097
 21
286.956097
  0
LINE
  8
APS_GEOMETRY
 10
393.464795
 11
395.40924
 20
285.446006
 21
290.446006
  0
LINE
  8
APS_GEOMETRY
 10
395.40924
 11
395.853684
 20
290.446006
 21
290.446006
  0
LINE
  8
APS_GEOMETRY
 10
395.853684
 11
397.687018
 20
290.446006
 21
285.446006
  0
LINE
  8
APS_GEOMETRY
 10
405.728854
 11
402.39552
 20
290.446006
 21
290.446006
  0
LINE
  8
APS_GEOMETRY
 10
402.39552
 11
402.39552
 20
290.446006
 21
285.446006
  0
LINE
  8
APS_GEOMETRY
 10
402.39552
 11
405.728854
 20
285.446006
 21
285.446006
  0
LINE
  8
APS_GEOMETRY
 10
402.451076
 11
404.617743
 20
288.112672
 21
288.112672
  0
LINE
  8
APS_GEOMETRY
 10
408.951076
 11
410.062187
 20
287.89045
 21
285.446006
  0
LINE
  8
APS_GEOMETRY
 10
411.451076
 11
413.617743
 20
287.946006
 21
287.946006
  0
LINE
  8
APS_GEOMETRY
 10
414.728854
 11
411.395521
 20
290.446006
 21
290.446006
  0
LINE
  8
APS_GEOMETRY
 10
411.395521
 11
411.395521
 20
290.446006
 21
285.446006
  0
LINE
  8
APS_GEOMETRY
 10
423.685801
 11
427.185801
 20
288.112672
 21
288.112672
  0
LINE
  8
APS_GEOMETRY
 10
427.241357
 11
427.241357
 20
290.446006
 21
285.446006
  0
LINE
  8
APS_GEOMETRY
 10
423.630245
 11
423.630245
 20
290.446006
 21
285.446006
  0
LINE
  8
APS_GEOMETRY
 10
441.674711
 11
438.341378
 20
290.446006
 21
290.446006
  0
LINE
  8
APS_GEOMETRY
 10
438.341378
 11
438.341378
 20
290.446006
 21
285.446006
  0
LINE
  8
APS_GEOMETRY
 10
438.341378
 11
441.674711
 20
285.446006
 21
285.446006
  0
LINE
  8
APS_GEOMETRY
 10
438.396933
 11
440.5636
 20
288.112672
 21
288.112672
  0
LINE
  8
APS_GEOMETRY
 10
374.954387
 11
374.954387
 20
277.946006
 21
282.946006
  0
LINE
  8
APS_GEOMETRY
 10
374.954387
 11
375.232164
 20
282.946006
 21
282.946006
  0
LINE
  8
APS_GEOMETRY
 10
375.232164
 11
377.176609
 20
282.946006
 21
277.946006
  0
LINE
  8
APS_GEOMETRY
 10
377.176609
 11
379.121054
 20
277.946006
 21
282.946006
  0
LINE
  8
APS_GEOMETRY
 10
379.121054
 11
379.398831
 20
282.946006
 21
282.946006
  0
LINE
  8
APS_GEOMETRY
 10
379.398831
 11
379.398831
 20
282.946006
 21
277.946006
  0
LINE
  8
APS_GEOMETRY
 10
391.537486
 11
388.204152
 20
282.946006
 21
282.946006
  0
LINE
  8
APS_GEOMETRY
 10
388.204152
 11
388.204152
 20
282.946006
 21
277.946006
  0
LINE
  8
APS_GEOMETRY
 10
388.204152
 11
391.537486
 20
277.946006
 21
277.946006
  0
LINE
  8
APS_GEOMETRY
 10
388.259708
 11
390.426375
 20
280.612672
 21
280.612672
  0
LINE
  8
APS_GEOMETRY
 10
392.537486
 11
392.537486
 20
282.946006
 21
277.946006
  0
LINE
  8
APS_GEOMETRY
 10
392.537486
 11
395.870819
 20
277.946006
 21
277.946006
  0
LINE
  8
APS_GEOMETRY
 10
410.645733
 11
412.36136
 20
277.946006
 21
277.946006
  0
LINE
  8
APS_GEOMETRY
 10
411.503547
 11
411.503547
 20
277.946006
 21
282.946006
  0
LINE
  8
APS_GEOMETRY
 10
411.503547
 11
410.645733
 20
282.946006
 21
282.088193
  0
LINE
  8
APS_GEOMETRY
 10
436.334666
 11
432.167999
 20
279.614387
 21
279.614387
  0
LINE
  8
APS_GEOMETRY
 10
432.167999
 11
432.167999
 20
279.614387
 21
279.892165
  0
LINE
  8
APS_GEOMETRY
 10
432.167999
 11
434.945777
 20
279.892165
 21
282.94772
  0
LINE
  8
APS_GEOMETRY
 10
434.945777
 11
435.223555
 20
282.94772
 21
282.94772
  0
LINE
  8
APS_GEOMETRY
 10
435.223555
 11
435.223555
 20
282.94772
 21
277.94772
  0
LINE
  8
APS_GEOMETRY
 10
375.942799
 11
377.053911
 20
257.89045
 21
255.446006
  0
LINE
  8
APS_GEOMETRY
 10
378.387412
 11
379.565709
 20
260.444809
 21
260.446006
  0
LINE
  8
APS_GEOMETRY
 10
379.565709
 11
379.565709
 20
260.446006
 21
255.446006
  0
LINE
  8
APS_GEOMETRY
 10
379.565709
 11
378.387412
 20
255.446006
 21
255.444808
  0
LINE
  8
APS_GEOMETRY
 10
379.565709
 11
380.744005
 20
255.446006
 21
255.444808
  0
LINE
  8
APS_GEOMETRY
 10
379.565709
 11
380.744005
 20
260.446006
 21
260.444809
  0
LINE
  8
APS_GEOMETRY
 10
381.743837
 11
381.743837
 20
255.446006
 21
260.446006
  0
LINE
  8
APS_GEOMETRY
 10
381.743837
 11
382.021615
 20
260.446006
 21
260.446006
  0
LINE
  8
APS_GEOMETRY
 10
382.021615
 11
384.799393
 20
260.446006
 21
255.446006
  0
LINE
  8
APS_GEOMETRY
 10
384.799393
 11
385.07717
 20
255.446006
 21
255.446006
  0
LINE
  8
APS_GEOMETRY
 10
385.07717
 11
385.07717
 20
255.446006
 21
260.446006
  0
LINE
  8
APS_GEOMETRY
 10
390.145231
 11
390.145231
 20
255.446006
 21
260.446006
  0
LINE
  8
APS_GEOMETRY
 10
390.145231
 11
390.423009
 20
260.446006
 21
260.446006
  0
LINE
  8
APS_GEOMETRY
 10
390.423009
 11
392.367454
 20
260.446006
 21
255.446006
  0
LINE
  8
APS_GEOMETRY
 10
392.367454
 11
394.311898
 20
255.446006
 21
260.446006
  0
LINE
  8
APS_GEOMETRY
 10
394.311898
 11
394.589676
 20
260.446006
 21
260.446006
  0
LINE
  8
APS_GEOMETRY
 10
394.589676
 11
394.589676
 20
260.446006
 21
255.446006
  0
LINE
  8
APS_GEOMETRY
 10
395.700787
 11
398.756343
 20
256.956097
 21
256.956097
  0
LINE
  8
APS_GEOMETRY
 10
395.089676
 11
397.034121
 20
255.446006
 21
260.446006
  0
LINE
  8
APS_GEOMETRY
 10
397.034121
 11
397.478565
 20
260.446006
 21
260.446006
  0
LINE
  8
APS_GEOMETRY
 10
397.478565
 11
399.311898
 20
260.446006
 21
255.446006
  0
LINE
  8
APS_GEOMETRY
 10
405.485372
 11
405.485372
 20
260.424642
 21
255.480197
  0
LINE
  8
APS_GEOMETRY
 10
403.540928
 11
407.429817
 20
260.480197
 21
260.480197
  0
LINE
  8
APS_GEOMETRY
 10
411.242624
 11
407.90929
 20
260.446006
 21
260.446006
  0
LINE
  8
APS_GEOMETRY
 10
407.90929
 11
407.90929
 20
260.446006
 21
255.446006
  0
LINE
  8
APS_GEOMETRY
 10
407.90929
 11
411.242624
 20
255.446006
 21
255.446006
  0
LINE
  8
APS_GEOMETRY
 10
407.964846
 11
410.131512
 20
258.112672
 21
258.112672
  0
LINE
  8
APS_GEOMETRY
 10
414.464846
 11
415.575957
 20
257.89045
 21
255.446006
  0
LINE
  8
APS_GEOMETRY
 10
441.669439
 11
439.447217
 20
255.446006
 21
258.501561
  0
LINE
  8
APS_GEOMETRY
 10
438.113883
 11
441.669439
 20
257.446006
 21
260.446006
  0
LINE
  8
APS_GEOMETRY
 10
438.058328
 11
438.058328
 20
260.446006
 21
255.446006
  0
LINE
  8
APS_GEOMETRY
 10
326.952118
 11
330.007674
 20
249.456097
 21
249.456097
  0
LINE
  8
APS_GEOMETRY
 10
326.341007
 11
328.285451
 20
247.946006
 21
252.946006
  0
LINE
  8
APS_GEOMETRY
 10
328.285451
 11
328.729896
 20
252.946006
 21
252.946006
  0
LINE
  8
APS_GEOMETRY
 10
328.729896
 11
330.563229
 20
252.946006
 21
247.946006
  0
LINE
  8
APS_GEOMETRY
 10
333.285452
 11
334.396563
 20
250.39045
 21
247.946006
  0
LINE
  8
APS_GEOMETRY
 10
337.194867
 11
337.194867
 20
252.924642
 21
247.980197
  0
LINE
  8
APS_GEOMETRY
 10
335.250423
 11
339.139312
 20
252.980197
 21
252.980197
  0
LINE
  8
APS_GEOMETRY
 10
344.368785
 11
344.368785
 20
247.946006
 21
252.946006
  0
LINE
  8
APS_GEOMETRY
 10
344.368785
 11
344.646563
 20
252.946006
 21
252.946006
  0
LINE
  8
APS_GEOMETRY
 10
344.646563
 11
347.424341
 20
252.946006
 21
247.946006
  0
LINE
  8
APS_GEOMETRY
 10
347.424341
 11
347.702119
 20
247.946006
 21
247.946006
  0
LINE
  8
APS_GEOMETRY
 10
347.702119
 11
347.702119
 20
247.946006
 21
252.946006
  0
LINE
  8
APS_GEOMETRY
 10
379.937717
 11
381.653343
 20
247.946006
 21
247.946006
  0
LINE
  8
APS_GEOMETRY
 10
380.79553
 11
380.79553
 20
247.946006
 21
252.946006
  0
LINE
  8
APS_GEOMETRY
 10
380.79553
 11
379.937717
 20
252.946006
 21
252.088193
  0
LINE
  8
APS_GEOMETRY
 10
403.22834
 11
405.395007
 20
250.446006
 21
250.446006
  0
LINE
  8
APS_GEOMETRY
 10
406.506118
 11
403.172784
 20
252.946006
 21
252.946006
  0
LINE
  8
APS_GEOMETRY
 10
403.172784
 11
403.172784
 20
252.946006
 21
247.946006
  0
LINE
  8
APS_GEOMETRY
 10
411.339451
 11
411.339451
 20
252.946006
 21
247.946006
  0
LINE
  8
APS_GEOMETRY
 10
411.339451
 11
414.672785
 20
247.946006
 21
247.946006
  0
LINE
  8
APS_GEOMETRY
 10
415.172785
 11
415.172785
 20
252.946006
 21
247.946006
  0
LINE
  8
APS_GEOMETRY
 10
415.172785
 11
418.506118
 20
247.946006
 21
247.946006
  0
LINE
  8
APS_GEOMETRY
 10
435.464621
 11
432.131288
 20
252.946006
 21
252.946006
  0
LINE
  8
APS_GEOMETRY
 10
432.131288
 11
432.131288
 20
252.946006
 21
247.946006
  0
LINE
  8
APS_GEOMETRY
 10
432.131288
 11
435.464621
 20
247.946006
 21
247.946006
  0
LINE
  8
APS_GEOMETRY
 10
432.186843
 11
434.35351
 20
250.612672
 21
250.612672
  0
LINE
  8
APS_GEOMETRY
 10
449.196481
 11
449.196481
 20
247.946006
 21
252.946006
  0
LINE
  8
APS_GEOMETRY
 10
449.196481
 11
449.474259
 20
252.946006
 21
252.946006
  0
LINE
  8
APS_GEOMETRY
 10
449.474259
 11
452.252037
 20
252.946006
 21
247.946006
  0
LINE
  8
APS_GEOMETRY
 10
452.252037
 11
452.529815
 20
247.946006
 21
247.946006
  0
LINE
  8
APS_GEOMETRY
 10
452.529815
 11
452.529815
 20
247.946006
 21
252.946006
  0
LINE
  8
APS_GEOMETRY
 10
457.897514
 11
459.230848
 20
253.073207
 21
248.073206
  0
LINE
  8
APS_GEOMETRY
 10
459.230848
 11
459.341959
 20
248.073206
 21
248.073206
  0
LINE
  8
APS_GEOMETRY
 10
459.341959
 11
460.619737
 20
248.073206
 21
253.073207
  0
LINE
  8
APS_GEOMETRY
 10
460.619737
 11
460.730848
 20
253.073207
 21
253.073207
  0
LINE
  8
APS_GEOMETRY
 10
460.730848
 11
462.008626
 20
253.073207
 21
248.073206
  0
LINE
  8
APS_GEOMETRY
 10
462.008626
 11
462.119737
 20
248.073206
 21
248.073206
  0
LINE
  8
APS_GEOMETRY
 10
462.119737
 11
463.45307
 20
248.073206
 21
253.073207
  0
LINE
  8
APS_GEOMETRY
 10
467.168704
 11
463.835371
 20
252.946006
 21
252.946006
  0
LINE
  8
APS_GEOMETRY
 10
463.835371
 11
463.835371
 20
252.946006
 21
247.946006
  0
LINE
  8
APS_GEOMETRY
 10
463.835371
 11
467.168704
 20
247.946006
 21
247.946006
  0
LINE
  8
APS_GEOMETRY
 10
463.890926
 11
466.057593
 20
250.612672
 21
250.612672
  0
LINE
  8
APS_GEOMETRY
 10
476.738486
 11
477.916783
 20
252.944809
 21
252.946006
  0
LINE
  8
APS_GEOMETRY
 10
477.916783
 11
477.916783
 20
252.946006
 21
247.946006
  0
LINE
  8
APS_GEOMETRY
 10
477.916783
 11
476.738486
 20
247.946006
 21
247.944808
  0
LINE
  8
APS_GEOMETRY
 10
477.916783
 11
479.095079
 20
247.946006
 21
247.944808
  0
LINE
  8
APS_GEOMETRY
 10
477.916783
 11
479.095079
 20
252.946006
 21
252.944809
  0
LINE
  8
APS_GEOMETRY
 10
481.559882
 11
481.559882
 20
252.924642
 21
247.980197
  0
LINE
  8
APS_GEOMETRY
 10
479.615438
 11
483.504327
 20
252.980197
 21
252.980197
  0
LINE
  8
APS_GEOMETRY
 10
487.317134
 11
483.9838
 20
252.946006
 21
252.946006
  0
LINE
  8
APS_GEOMETRY
 10
483.9838
 11
483.9838
 20
252.946006
 21
247.946006
  0
LINE
  8
APS_GEOMETRY
 10
483.9838
 11
487.317134
 20
247.946006
 21
247.946006
  0
LINE
  8
APS_GEOMETRY
 10
484.039356
 11
486.206023
 20
250.612672
 21
250.612672
  0
LINE
  8
APS_GEOMETRY
 10
405.596436
 11
405.596436
 20
217.22122
 21
222.22122
  0
LINE
  8
APS_GEOMETRY
 10
405.596436
 11
405.874214
 20
222.22122
 21
222.22122
  0
LINE
  8
APS_GEOMETRY
 10
405.874214
 11
407.818659
 20
222.22122
 21
217.22122
  0
LINE
  8
APS_GEOMETRY
 10
407.818659
 11
409.763103
 20
217.22122
 21
222.22122
  0
LINE
  8
APS_GEOMETRY
 10
409.763103
 11
410.040881
 20
222.22122
 21
222.22122
  0
LINE
  8
APS_GEOMETRY
 10
410.040881
 11
410.040881
 20
222.22122
 21
217.22122
  0
LINE
  8
APS_GEOMETRY
 10
420.385648
 11
420.385648
 20
217.22122
 21
222.22122
  0
LINE
  8
APS_GEOMETRY
 10
420.385648
 11
420.663426
 20
222.22122
 21
222.22122
  0
LINE
  8
APS_GEOMETRY
 10
420.663426
 11
423.441204
 20
222.22122
 21
217.22122
  0
LINE
  8
APS_GEOMETRY
 10
423.441204
 11
423.718981
 20
217.22122
 21
217.22122
  0
LINE
  8
APS_GEOMETRY
 10
423.718981
 11
423.718981
 20
217.22122
 21
222.22122
  0
LINE
  8
APS_GEOMETRY
 10
430.517286
 11
430.517286
 20
222.199856
 21
217.255411
  0
LINE
  8
APS_GEOMETRY
 10
428.572841
 11
432.46173
 20
222.255412
 21
222.255412
  0
LINE
  8
APS_GEOMETRY
 10
455.301034
 11
456.412146
 20
219.665665
 21
217.22122
  0
LINE
  8
APS_GEOMETRY
 10
461.078812
 11
457.745479
 20
222.22122
 21
222.22122
  0
LINE
  8
APS_GEOMETRY
 10
457.745479
 11
457.745479
 20
222.22122
 21
217.22122
  0
LINE
  8
APS_GEOMETRY
 10
457.745479
 11
461.078812
 20
217.22122
 21
217.22122
  0
LINE
  8
APS_GEOMETRY
 10
457.801034
 11
459.967701
 20
219.887887
 21
219.887887
  0
LINE
  8
APS_GEOMETRY
 10
470.326174
 11
471.504471
 20
222.220023
 21
222.22122
  0
LINE
  8
APS_GEOMETRY
 10
471.504471
 11
471.504471
 20
222.22122
 21
217.22122
  0
LINE
  8
APS_GEOMETRY
 10
471.504471
 11
470.326174
 20
217.22122
 21
217.220023
  0
LINE
  8
APS_GEOMETRY
 10
471.504471
 11
472.682767
 20
217.22122
 21
217.220023
  0
LINE
  8
APS_GEOMETRY
 10
471.504471
 11
472.682767
 20
222.22122
 21
222.220023
  0
LINE
  8
APS_GEOMETRY
 10
475.904822
 11
477.015933
 20
219.665665
 21
217.22122
  0
LINE
  8
APS_GEOMETRY
 10
481.6826
 11
478.349266
 20
222.22122
 21
222.22122
  0
LINE
  8
APS_GEOMETRY
 10
478.349266
 11
478.349266
 20
222.22122
 21
217.22122
  0
LINE
  8
APS_GEOMETRY
 10
478.349266
 11
481.6826
 20
217.22122
 21
217.22122
  0
LINE
  8
APS_GEOMETRY
 10
478.404822
 11
480.571488
 20
219.887887
 21
219.887887
  0
LINE
  8
APS_GEOMETRY
 10
317.663843
 11
317.663843
 20
209.72122
 21
214.72122
  0
LINE
  8
APS_GEOMETRY
 10
317.663843
 11
317.941621
 20
214.72122
 21
214.72122
  0
LINE
  8
APS_GEOMETRY
 10
317.941621
 11
319.886065
 20
214.72122
 21
209.72122
  0
LINE
  8
APS_GEOMETRY
 10
319.886065
 11
321.83051
 20
209.72122
 21
214.72122
  0
LINE
  8
APS_GEOMETRY
 10
321.83051
 11
322.108287
 20
214.72122
 21
214.72122
  0
LINE
  8
APS_GEOMETRY
 10
322.108287
 11
322.108287
 20
214.72122
 21
209.72122
  0
LINE
  8
APS_GEOMETRY
 10
332.564165
 11
336.341943
 20
214.72122
 21
209.72122
  0
LINE
  8
APS_GEOMETRY
 10
332.453054
 11
336.230832
 20
209.72122
 21
214.72122
  0
LINE
  8
APS_GEOMETRY
 10
351.298845
 11
351.298845
 20
209.72122
 21
214.72122
  0
LINE
  8
APS_GEOMETRY
 10
351.298845
 11
351.576623
 20
214.72122
 21
214.72122
  0
LINE
  8
APS_GEOMETRY
 10
351.576623
 11
353.521067
 20
214.72122
 21
209.72122
  0
LINE
  8
APS_GEOMETRY
 10
353.521067
 11
355.465512
 20
209.72122
 21
214.72122
  0
LINE
  8
APS_GEOMETRY
 10
355.465512
 11
355.74329
 20
214.72122
 21
214.72122
  0
LINE
  8
APS_GEOMETRY
 10
355.74329
 11
355.74329
 20
214.72122
 21
209.72122
  0
LINE
  8
APS_GEOMETRY
 10
356.74329
 11
356.74329
 20
209.72122
 21
214.72122
  0
LINE
  8
APS_GEOMETRY
 10
356.74329
 11
357.021067
 20
214.72122
 21
214.72122
  0
LINE
  8
APS_GEOMETRY
 10
357.021067
 11
358.965512
 20
214.72122
 21
209.72122
  0
LINE
  8
APS_GEOMETRY
 10
358.965512
 11
360.909957
 20
209.72122
 21
214.72122
  0
LINE
  8
APS_GEOMETRY
 10
360.909957
 11
361.187734
 20
214.72122
 21
214.72122
  0
LINE
  8
APS_GEOMETRY
 10
361.187734
 11
361.187734
 20
214.72122
 21
209.72122
  0
LINE
  8
APS_GEOMETRY
 10
366.937734
 11
366.937734
 20
214.72122
 21
209.72122
  0
LINE
  8
APS_GEOMETRY
 10
366.937734
 11
370.271068
 20
209.72122
 21
209.72122
  0
LINE
  8
APS_GEOMETRY
 10
375.03487
 11
375.03487
 20
209.72122
 21
214.72122
  0
LINE
  8
APS_GEOMETRY
 10
375.03487
 11
375.312648
 20
214.72122
 21
214.72122
  0
LINE
  8
APS_GEOMETRY
 10
375.312648
 11
378.090426
 20
214.72122
 21
209.72122
  0
LINE
  8
APS_GEOMETRY
 10
378.090426
 11
378.368204
 20
209.72122
 21
209.72122
  0
LINE
  8
APS_GEOMETRY
 10
378.368204
 11
378.368204
 20
209.72122
 21
214.72122
  0
LINE
  8
APS_GEOMETRY
 10
392.335939
 11
395.335939
 20
209.679156
 21
214.179156
  0
LINE
  8
APS_GEOMETRY
 10
404.073936
 11
401.851714
 20
209.72122
 21
212.776776
  0
LINE
  8
APS_GEOMETRY
 10
400.518381
 11
404.073936
 20
211.72122
 21
214.72122
  0
LINE
  8
APS_GEOMETRY
 10
400.462825
 11
400.462825
 20
214.72122
 21
209.72122
  0
LINE
  8
APS_GEOMETRY
 10
420.322719
 11
421.43383
 20
212.165665
 21
209.72122
  0
LINE
  8
APS_GEOMETRY
 10
426.100497
 11
422.767163
 20
214.72122
 21
214.72122
  0
LINE
  8
APS_GEOMETRY
 10
422.767163
 11
422.767163
 20
214.72122
 21
209.72122
  0
LINE
  8
APS_GEOMETRY
 10
422.767163
 11
426.100497
 20
209.72122
 21
209.72122
  0
LINE
  8
APS_GEOMETRY
 10
422.822719
 11
424.989386
 20
212.387887
 21
212.387887
  0
LINE
  8
APS_GEOMETRY
 10
426.718196
 11
428.05153
 20
214.848421
 21
209.848421
  0
LINE
  8
APS_GEOMETRY
 10
428.05153
 11
428.162641
 20
209.848421
 21
209.848421
  0
LINE
  8
APS_GEOMETRY
 10
428.162641
 11
429.440419
 20
209.848421
 21
214.848421
  0
LINE
  8
APS_GEOMETRY
 10
429.440419
 11
429.55153
 20
214.848421
 21
214.848421
  0
LINE
  8
APS_GEOMETRY
 10
429.55153
 11
430.829308
 20
214.848421
 21
209.848421
  0
LINE
  8
APS_GEOMETRY
 10
430.829308
 11
430.940419
 20
209.848421
 21
209.848421
  0
LINE
  8
APS_GEOMETRY
 10
430.940419
 11
432.273752
 20
209.848421
 21
214.848421
  0
LINE
  8
APS_GEOMETRY
 10
447.320018
 11
443.153351
 20
211.389601
 21
211.389601
  0
LINE
  8
APS_GEOMETRY
 10
443.153351
 11
443.153351
 20
211.389601
 21
211.667379
  0
LINE
  8
APS_GEOMETRY
 10
443.153351
 11
445.931129
 20
211.667379
 21
214.722935
  0
LINE
  8
APS_GEOMETRY
 10
445.931129
 11
446.208907
 20
214.722935
 21
214.722935
  0
LINE
  8
APS_GEOMETRY
 10
446.208907
 11
446.208907
 20
214.722935
 21
209.722934
  0
LINE
  8
APS_GEOMETRY
 10
455.142694
 11
456.253805
 20
212.165665
 21
209.72122
  0
LINE
  8
APS_GEOMETRY
 10
460.920472
 11
457.587138
 20
214.72122
 21
214.72122
  0
LINE
  8
APS_GEOMETRY
 10
457.587138
 11
457.587138
 20
214.72122
 21
209.72122
  0
LINE
  8
APS_GEOMETRY
 10
457.587138
 11
460.920472
 20
209.72122
 21
209.72122
  0
LINE
  8
APS_GEOMETRY
 10
457.642694
 11
459.80936
 20
212.387887
 21
212.387887
  0
LINE
  8
APS_GEOMETRY
 10
470.167834
 11
471.34613
 20
214.720023
 21
214.72122
  0
LINE
  8
APS_GEOMETRY
 10
471.34613
 11
471.34613
 20
214.72122
 21
209.72122
  0
LINE
  8
APS_GEOMETRY
 10
471.34613
 11
470.167834
 20
209.72122
 21
209.720023
  0
LINE
  8
APS_GEOMETRY
 10
471.34613
 11
472.524427
 20
209.72122
 21
209.720023
  0
LINE
  8
APS_GEOMETRY
 10
471.34613
 11
472.524427
 20
214.72122
 21
214.720023
  0
LINE
  8
APS_GEOMETRY
 10
475.746481
 11
476.857592
 20
212.165665
 21
209.72122
  0
LINE
  8
APS_GEOMETRY
 10
481.524259
 11
478.190925
 20
214.72122
 21
214.72122
  0
LINE
  8
APS_GEOMETRY
 10
478.190925
 11
478.190925
 20
214.72122
 21
209.72122
  0
LINE
  8
APS_GEOMETRY
 10
478.190925
 11
481.524259
 20
209.72122
 21
209.72122
  0
LINE
  8
APS_GEOMETRY
 10
478.246481
 11
480.413148
 20
212.387887
 21
212.387887
  0
LINE
  8
APS_GEOMETRY
 10
323.62287
 11
323.62287
 20
202.22122
 21
207.22122
  0
LINE
  8
APS_GEOMETRY
 10
323.62287
 11
323.900648
 20
207.22122
 21
207.22122
  0
LINE
  8
APS_GEOMETRY
 10
323.900648
 11
325.845092
 20
207.22122
 21
202.22122
  0
LINE
  8
APS_GEOMETRY
 10
325.845092
 11
327.789537
 20
202.22122
 21
207.22122
  0
LINE
  8
APS_GEOMETRY
 10
327.789537
 11
328.067315
 20
207.22122
 21
207.22122
  0
LINE
  8
APS_GEOMETRY
 10
328.067315
 11
328.067315
 20
207.22122
 21
202.22122
  0
LINE
  8
APS_GEOMETRY
 10
338.523192
 11
342.30097
 20
207.22122
 21
202.22122
  0
LINE
  8
APS_GEOMETRY
 10
338.412081
 11
342.189859
 20
202.22122
 21
207.22122
  0
LINE
  8
APS_GEOMETRY
 10
343.30097
 11
345.016597
 20
202.22122
 21
202.22122
  0
LINE
  8
APS_GEOMETRY
 10
344.158784
 11
344.158784
 20
202.22122
 21
207.22122
  0
LINE
  8
APS_GEOMETRY
 10
344.158784
 11
343.30097
 20
207.22122
 21
206.363407
  0
LINE
  8
APS_GEOMETRY
 10
351.84331
 11
351.84331
 20
202.22122
 21
207.22122
  0
LINE
  8
APS_GEOMETRY
 10
351.84331
 11
352.121088
 20
207.22122
 21
207.22122
  0
LINE
  8
APS_GEOMETRY
 10
352.121088
 11
354.065532
 20
207.22122
 21
202.22122
  0
LINE
  8
APS_GEOMETRY
 10
354.065532
 11
356.009977
 20
202.22122
 21
207.22122
  0
LINE
  8
APS_GEOMETRY
 10
356.009977
 11
356.287754
 20
207.22122
 21
207.22122
  0
LINE
  8
APS_GEOMETRY
 10
356.287754
 11
356.287754
 20
207.22122
 21
202.22122
  0
LINE
  8
APS_GEOMETRY
 10
357.287754
 11
357.287754
 20
202.22122
 21
207.22122
  0
LINE
  8
APS_GEOMETRY
 10
357.287754
 11
357.565532
 20
207.22122
 21
207.22122
  0
LINE
  8
APS_GEOMETRY
 10
357.565532
 11
359.509977
 20
207.22122
 21
202.22122
  0
LINE
  8
APS_GEOMETRY
 10
359.509977
 11
361.454421
 20
202.22122
 21
207.22122
  0
LINE
  8
APS_GEOMETRY
 10
361.454421
 11
361.732199
 20
207.22122
 21
207.22122
  0
LINE
  8
APS_GEOMETRY
 10
361.732199
 11
361.732199
 20
207.22122
 21
202.22122
  0
LINE
  8
APS_GEOMETRY
 10
367.482199
 11
367.482199
 20
207.22122
 21
202.22122
  0
LINE
  8
APS_GEOMETRY
 10
367.482199
 11
370.815533
 20
202.22122
 21
202.22122
  0
LINE
  8
APS_GEOMETRY
 10
375.579335
 11
375.579335
 20
202.22122
 21
207.22122
  0
LINE
  8
APS_GEOMETRY
 10
375.579335
 11
375.857113
 20
207.22122
 21
207.22122
  0
LINE
  8
APS_GEOMETRY
 10
375.857113
 11
378.634891
 20
207.22122
 21
202.22122
  0
LINE
  8
APS_GEOMETRY
 10
378.634891
 11
378.912669
 20
202.22122
 21
202.22122
  0
LINE
  8
APS_GEOMETRY
 10
378.912669
 11
378.912669
 20
202.22122
 21
207.22122
  0
LINE
  8
APS_GEOMETRY
 10
392.880404
 11
395.880404
 20
202.179156
 21
206.679156
  0
LINE
  8
APS_GEOMETRY
 10
404.618401
 11
402.396179
 20
202.22122
 21
205.276776
  0
LINE
  8
APS_GEOMETRY
 10
401.062845
 11
404.618401
 20
204.22122
 21
207.22122
  0
LINE
  8
APS_GEOMETRY
 10
401.00729
 11
401.00729
 20
207.22122
 21
202.22122
  0
LINE
  8
APS_GEOMETRY
 10
420.867184
 11
421.978295
 20
204.665665
 21
202.22122
  0
LINE
  8
APS_GEOMETRY
 10
426.644962
 11
423.311628
 20
207.22122
 21
207.22122
  0
LINE
  8
APS_GEOMETRY
 10
423.311628
 11
423.311628
 20
207.22122
 21
202.22122
  0
LINE
  8
APS_GEOMETRY
 10
423.311628
 11
426.644962
 20
202.22122
 21
202.22122
  0
LINE
  8
APS_GEOMETRY
 10
423.367184
 11
425.53385
 20
204.887887
 21
204.887887
  0
LINE
  8
APS_GEOMETRY
 10
427.262661
 11
428.595995
 20
207.348421
 21
202.348421
  0
LINE
  8
APS_GEOMETRY
 10
428.595995
 11
428.707106
 20
202.348421
 21
202.348421
  0
LINE
  8
APS_GEOMETRY
 10
428.707106
 11
429.984883
 20
202.348421
 21
207.348421
  0
LINE
  8
APS_GEOMETRY
 10
429.984883
 11
430.095995
 20
207.348421
 21
207.348421
  0
LINE
  8
APS_GEOMETRY
 10
430.095995
 11
431.373772
 20
207.348421
 21
202.348421
  0
LINE
  8
APS_GEOMETRY
 10
431.373772
 11
431.484884
 20
202.348421
 21
202.348421
  0
LINE
  8
APS_GEOMETRY
 10
431.484884
 11
432.818217
 20
202.348421
 21
207.348421
  0
LINE
  8
APS_GEOMETRY
 10
445.977425
 11
447.693051
 20
202.22122
 21
202.22122
  0
LINE
  8
APS_GEOMETRY
 10
446.835238
 11
446.835238
 20
202.22122
 21
207.22122
  0
LINE
  8
APS_GEOMETRY
 10
446.835238
 11
445.977425
 20
207.22122
 21
206.363407
  0
LINE
  8
APS_GEOMETRY
 10
455.665274
 11
456.776385
 20
204.665665
 21
202.22122
  0
LINE
  8
APS_GEOMETRY
 10
461.443052
 11
458.109718
 20
207.22122
 21
207.22122
  0
LINE
  8
APS_GEOMETRY
 10
458.109718
 11
458.109718
 20
207.22122
 21
202.22122
  0
LINE
  8
APS_GEOMETRY
 10
458.109718
 11
461.443052
 20
202.22122
 21
202.22122
  0
LINE
  8
APS_GEOMETRY
 10
458.165274
 11
460.331941
 20
204.887887
 21
204.887887
  0
LINE
  8
APS_GEOMETRY
 10
470.690414
 11
471.86871
 20
207.220023
 21
207.22122
  0
LINE
  8
APS_GEOMETRY
 10
471.86871
 11
471.86871
 20
207.22122
 21
202.22122
  0
LINE
  8
APS_GEOMETRY
 10
471.86871
 11
470.690414
 20
202.22122
 21
202.220023
  0
LINE
  8
APS_GEOMETRY
 10
471.86871
 11
473.047007
 20
202.22122
 21
202.220023
  0
LINE
  8
APS_GEOMETRY
 10
471.86871
 11
473.047007
 20
207.22122
 21
207.220023
  0
LINE
  8
APS_GEOMETRY
 10
476.269061
 11
477.380172
 20
204.665665
 21
202.22122
  0
LINE
  8
APS_GEOMETRY
 10
482.046839
 11
478.713505
 20
207.22122
 21
207.22122
  0
LINE
  8
APS_GEOMETRY
 10
478.713505
 11
478.713505
 20
207.22122
 21
202.22122
  0
LINE
  8
APS_GEOMETRY
 10
478.713505
 11
482.046839
 20
202.22122
 21
202.22122
  0
LINE
  8
APS_GEOMETRY
 10
478.769061
 11
480.935728
 20
204.887887
 21
204.887887
  0
LINE
  8
APS_GEOMETRY
 10
301.136656
 11
301.136656
 20
194.72122
 21
199.72122
  0
LINE
  8
APS_GEOMETRY
 10
301.136656
 11
301.414434
 20
199.72122
 21
199.72122
  0
LINE
  8
APS_GEOMETRY
 10
301.414434
 11
303.358878
 20
199.72122
 21
194.72122
  0
LINE
  8
APS_GEOMETRY
 10
303.358878
 11
305.303323
 20
194.72122
 21
199.72122
  0
LINE
  8
APS_GEOMETRY
 10
305.303323
 11
305.5811
 20
199.72122
 21
199.72122
  0
LINE
  8
APS_GEOMETRY
 10
305.5811
 11
305.5811
 20
199.72122
 21
194.72122
  0
LINE
  8
APS_GEOMETRY
 10
316.036978
 11
319.814756
 20
199.72122
 21
194.72122
  0
LINE
  8
APS_GEOMETRY
 10
315.925867
 11
319.703645
 20
194.72122
 21
199.72122
  0
LINE
  8
APS_GEOMETRY
 10
334.811892
 11
334.811892
 20
194.72122
 21
199.72122
  0
LINE
  8
APS_GEOMETRY
 10
334.811892
 11
335.08967
 20
199.72122
 21
199.72122
  0
LINE
  8
APS_GEOMETRY
 10
335.08967
 11
337.034115
 20
199.72122
 21
194.72122
  0
LINE
  8
APS_GEOMETRY
 10
337.034115
 11
338.978559
 20
194.72122
 21
199.72122
  0
LINE
  8
APS_GEOMETRY
 10
338.978559
 11
339.256337
 20
199.72122
 21
199.72122
  0
LINE
  8
APS_GEOMETRY
 10
339.256337
 11
339.256337
 20
199.72122
 21
194.72122
  0
LINE
  8
APS_GEOMETRY
 10
340.256337
 11
340.256337
 20
194.72122
 21
199.72122
  0
LINE
  8
APS_GEOMETRY
 10
340.256337
 11
340.534115
 20
199.72122
 21
199.72122
  0
LINE
  8
APS_GEOMETRY
 10
340.534115
 11
342.478559
 20
199.72122
 21
194.72122
  0
LINE
  8
APS_GEOMETRY
 10
342.478559
 11
344.423004
 20
194.72122
 21
199.72122
  0
LINE
  8
APS_GEOMETRY
 10
344.423004
 11
344.700782
 20
199.72122
 21
199.72122
  0
LINE
  8
APS_GEOMETRY
 10
344.700782
 11
344.700782
 20
199.72122
 21
194.72122
  0
LINE
  8
APS_GEOMETRY
 10
350.486885
 11
350.486885
 20
199.72122
 21
194.72122
  0
LINE
  8
APS_GEOMETRY
 10
350.486885
 11
353.820219
 20
194.72122
 21
194.72122
  0
LINE
  8
APS_GEOMETRY
 10
358.584022
 11
358.584022
 20
194.72122
 21
199.72122
  0
LINE
  8
APS_GEOMETRY
 10
358.584022
 11
358.861799
 20
199.72122
 21
199.72122
  0
LINE
  8
APS_GEOMETRY
 10
358.861799
 11
361.639577
 20
199.72122
 21
194.72122
  0
LINE
  8
APS_GEOMETRY
 10
361.639577
 11
361.917355
 20
194.72122
 21
194.72122
  0
LINE
  8
APS_GEOMETRY
 10
361.917355
 11
361.917355
 20
194.72122
 21
199.72122
  0
LINE
  8
APS_GEOMETRY
 10
380.315885
 11
383.612589
 20
199.72122
 21
199.72122
  0
LINE
  8
APS_GEOMETRY
 10
383.612589
 11
383.612589
 20
199.72122
 21
199.556385
  0
LINE
  8
APS_GEOMETRY
 10
383.612589
 11
380.315885
 20
199.556385
 21
194.886055
  0
LINE
  8
APS_GEOMETRY
 10
380.315885
 11
380.315885
 20
194.886055
 21
194.72122
  0
LINE
  8
APS_GEOMETRY
 10
380.315885
 11
383.612589
 20
194.72122
 21
194.72122
  0
LINE
  8
APS_GEOMETRY
 10
384.612757
 11
385.791054
 20
199.720023
 21
199.72122
  0
LINE
  8
APS_GEOMETRY
 10
385.791054
 11
385.791054
 20
199.72122
 21
194.72122
  0
LINE
  8
APS_GEOMETRY
 10
385.791054
 11
384.612757
 20
194.72122
 21
194.720023
  0
LINE
  8
APS_GEOMETRY
 10
385.791054
 11
386.96935
 20
194.72122
 21
194.720023
  0
LINE
  8
APS_GEOMETRY
 10
385.791054
 11
386.96935
 20
199.72122
 21
199.720023
  0
LINE
  8
APS_GEOMETRY
 10
397.34696
 11
400.402516
 20
196.231311
 21
196.231311
  0
LINE
  8
APS_GEOMETRY
 10
396.735849
 11
398.680293
 20
194.72122
 21
199.72122
  0
LINE
  8
APS_GEOMETRY
 10
398.680293
 11
399.124738
 20
199.72122
 21
199.72122
  0
LINE
  8
APS_GEOMETRY
 10
399.124738
 11
400.958071
 20
199.72122
 21
194.72122
  0
LINE
  8
APS_GEOMETRY
 10
401.458071
 11
401.458071
 20
194.72122
 21
199.72122
  0
LINE
  8
APS_GEOMETRY
 10
401.458071
 11
401.735849
 20
199.72122
 21
199.72122
  0
LINE
  8
APS_GEOMETRY
 10
401.735849
 11
404.513627
 20
199.72122
 21
194.72122
  0
LINE
  8
APS_GEOMETRY
 10
404.513627
 11
404.791405
 20
194.72122
 21
194.72122
  0
LINE
  8
APS_GEOMETRY
 10
404.791405
 11
404.791405
 20
194.72122
 21
199.72122
  0
LINE
  8
APS_GEOMETRY
 10
421.040187
 11
422.151299
 20
197.165665
 21
194.72122
  0
LINE
  8
APS_GEOMETRY
 10
426.817965
 11
423.484632
 20
199.72122
 21
199.72122
  0
LINE
  8
APS_GEOMETRY
 10
423.484632
 11
423.484632
 20
199.72122
 21
194.72122
  0
LINE
  8
APS_GEOMETRY
 10
423.484632
 11
426.817965
 20
194.72122
 21
194.72122
  0
LINE
  8
APS_GEOMETRY
 10
423.540187
 11
425.706854
 20
197.387887
 21
197.387887
  0
LINE
  8
APS_GEOMETRY
 10
427.435665
 11
428.768998
 20
199.848421
 21
194.848421
  0
LINE
  8
APS_GEOMETRY
 10
428.768998
 11
428.880109
 20
194.848421
 21
194.848421
  0
LINE
  8
APS_GEOMETRY
 10
428.880109
 11
430.157887
 20
194.848421
 21
199.848421
  0
LINE
  8
APS_GEOMETRY
 10
430.157887
 11
430.268998
 20
199.848421
 21
199.848421
  0
LINE
  8
APS_GEOMETRY
 10
430.268998
 11
431.546776
 20
199.848421
 21
194.848421
  0
LINE
  8
APS_GEOMETRY
 10
431.546776
 11
431.657887
 20
194.848421
 21
194.848421
  0
LINE
  8
APS_GEOMETRY
 10
431.657887
 11
432.991221
 20
194.848421
 21
199.848421
  0
LINE
  8
APS_GEOMETRY
 10
455.171244
 11
456.282355
 20
197.165665
 21
194.72122
  0
LINE
  8
APS_GEOMETRY
 10
460.949022
 11
457.615689
 20
199.72122
 21
199.72122
  0
LINE
  8
APS_GEOMETRY
 10
457.615689
 11
457.615689
 20
199.72122
 21
194.72122
  0
LINE
  8
APS_GEOMETRY
 10
457.615689
 11
460.949022
 20
194.72122
 21
194.72122
  0
LINE
  8
APS_GEOMETRY
 10
457.671244
 11
459.837911
 20
197.387887
 21
197.387887
  0
LINE
  8
APS_GEOMETRY
 10
470.196384
 11
471.374681
 20
199.720023
 21
199.72122
  0
LINE
  8
APS_GEOMETRY
 10
471.374681
 11
471.374681
 20
199.72122
 21
194.72122
  0
LINE
  8
APS_GEOMETRY
 10
471.374681
 11
470.196384
 20
194.72122
 21
194.720023
  0
LINE
  8
APS_GEOMETRY
 10
471.374681
 11
472.552977
 20
194.72122
 21
194.720023
  0
LINE
  8
APS_GEOMETRY
 10
471.374681
 11
472.552977
 20
199.72122
 21
199.720023
  0
LINE
  8
APS_GEOMETRY
 10
475.775031
 11
476.886142
 20
197.165665
 21
194.72122
  0
LINE
  8
APS_GEOMETRY
 10
481.552809
 11
478.219476
 20
199.72122
 21
199.72122
  0
LINE
  8
APS_GEOMETRY
 10
478.219476
 11
478.219476
 20
199.72122
 21
194.72122
  0
LINE
  8
APS_GEOMETRY
 10
478.219476
 11
481.552809
 20
194.72122
 21
194.72122
  0
LINE
  8
APS_GEOMETRY
 10
478.275031
 11
480.441698
 20
197.387887
 21
197.387887
  0
LINE
  8
APS_GEOMETRY
 10
320.312051
 11
320.312051
 20
187.22122
 21
192.22122
  0
LINE
  8
APS_GEOMETRY
 10
320.312051
 11
320.589828
 20
192.22122
 21
192.22122
  0
LINE
  8
APS_GEOMETRY
 10
320.589828
 11
322.534273
 20
192.22122
 21
187.22122
  0
LINE
  8
APS_GEOMETRY
 10
322.534273
 11
324.478717
 20
187.22122
 21
192.22122
  0
LINE
  8
APS_GEOMETRY
 10
324.478717
 11
324.756495
 20
192.22122
 21
192.22122
  0
LINE
  8
APS_GEOMETRY
 10
324.756495
 11
324.756495
 20
192.22122
 21
187.22122
  0
LINE
  8
APS_GEOMETRY
 10
335.212373
 11
338.990151
 20
192.22122
 21
187.22122
  0
LINE
  8
APS_GEOMETRY
 10
335.101262
 11
338.87904
 20
187.22122
 21
192.22122
  0
LINE
  8
APS_GEOMETRY
 10
344.740151
 11
346.455777
 20
187.22122
 21
187.22122
  0
LINE
  8
APS_GEOMETRY
 10
345.597964
 11
345.597964
 20
187.22122
 21
192.22122
  0
LINE
  8
APS_GEOMETRY
 10
345.597964
 11
344.740151
 20
192.22122
 21
191.363407
  0
LINE
  8
APS_GEOMETRY
 10
352.36958
 11
352.36958
 20
187.22122
 21
192.22122
  0
LINE
  8
APS_GEOMETRY
 10
352.36958
 11
352.647358
 20
192.22122
 21
192.22122
  0
LINE
  8
APS_GEOMETRY
 10
352.647358
 11
354.591802
 20
192.22122
 21
187.22122
  0
LINE
  8
APS_GEOMETRY
 10
354.591802
 11
356.536247
 20
187.22122
 21
192.22122
  0
LINE
  8
APS_GEOMETRY
 10
356.536247
 11
356.814025
 20
192.22122
 21
192.22122
  0
LINE
  8
APS_GEOMETRY
 10
356.814025
 11
356.814025
 20
192.22122
 21
187.22122
  0
LINE
  8
APS_GEOMETRY
 10
357.814025
 11
357.814025
 20
187.22122
 21
192.22122
  0
LINE
  8
APS_GEOMETRY
 10
357.814025
 11
358.091803
 20
192.22122
 21
192.22122
  0
LINE
  8
APS_GEOMETRY
 10
358.091803
 11
360.036247
 20
192.22122
 21
187.22122
  0
LINE
  8
APS_GEOMETRY
 10
360.036247
 11
361.980692
 20
187.22122
 21
192.22122
  0
LINE
  8
APS_GEOMETRY
 10
361.980692
 11
362.258469
 20
192.22122
 21
192.22122
  0
LINE
  8
APS_GEOMETRY
 10
362.258469
 11
362.258469
 20
192.22122
 21
187.22122
  0
LINE
  8
APS_GEOMETRY
 10
368.008469
 11
368.008469
 20
192.22122
 21
187.22122
  0
LINE
  8
APS_GEOMETRY
 10
368.008469
 11
371.341803
 20
187.22122
 21
187.22122
  0
LINE
  8
APS_GEOMETRY
 10
376.105606
 11
376.105606
 20
187.22122
 21
192.22122
  0
LINE
  8
APS_GEOMETRY
 10
376.105606
 11
376.383383
 20
192.22122
 21
192.22122
  0
LINE
  8
APS_GEOMETRY
 10
376.383383
 11
379.161161
 20
192.22122
 21
187.22122
  0
LINE
  8
APS_GEOMETRY
 10
379.161161
 11
379.438939
 20
187.22122
 21
187.22122
  0
LINE
  8
APS_GEOMETRY
 10
379.438939
 11
379.438939
 20
187.22122
 21
192.22122
  0
LINE
  8
APS_GEOMETRY
 10
395.547283
 11
396.658394
 20
189.665665
 21
187.22122
  0
LINE
  8
APS_GEOMETRY
 10
421.934955
 11
423.046066
 20
189.665665
 21
187.22122
  0
LINE
  8
APS_GEOMETRY
 10
427.712733
 11
424.3794
 20
192.22122
 21
192.22122
  0
LINE
  8
APS_GEOMETRY
 10
424.3794
 11
424.3794
 20
192.22122
 21
187.22122
  0
LINE
  8
APS_GEOMETRY
 10
424.3794
 11
427.712733
 20
187.22122
 21
187.22122
  0
LINE
  8
APS_GEOMETRY
 10
424.434955
 11
426.601622
 20
189.887887
 21
189.887887
  0
LINE
  8
APS_GEOMETRY
 10
428.330433
 11
429.663766
 20
192.348421
 21
187.348421
  0
LINE
  8
APS_GEOMETRY
 10
429.663766
 11
429.774877
 20
187.348421
 21
187.348421
  0
LINE
  8
APS_GEOMETRY
 10
429.774877
 11
431.052655
 20
187.348421
 21
192.348421
  0
LINE
  8
APS_GEOMETRY
 10
431.052655
 11
431.163766
 20
192.348421
 21
192.348421
  0
LINE
  8
APS_GEOMETRY
 10
431.163766
 11
432.441544
 20
192.348421
 21
187.348421
  0
LINE
  8
APS_GEOMETRY
 10
432.441544
 11
432.552655
 20
187.348421
 21
187.348421
  0
LINE
  8
APS_GEOMETRY
 10
432.552655
 11
433.885988
 20
187.348421
 21
192.348421
  0
LINE
  8
APS_GEOMETRY
 10
455.735289
 11
456.846401
 20
189.665665
 21
187.22122
  0
LINE
  8
APS_GEOMETRY
 10
461.513067
 11
458.179734
 20
192.22122
 21
192.22122
  0
LINE
  8
APS_GEOMETRY
 10
458.179734
 11
458.179734
 20
192.22122
 21
187.22122
  0
LINE
  8
APS_GEOMETRY
 10
458.179734
 11
461.513067
 20
187.22122
 21
187.22122
  0
LINE
  8
APS_GEOMETRY
 10
458.235289
 11
460.401956
 20
189.887887
 21
189.887887
  0
LINE
  8
APS_GEOMETRY
 10
470.760429
 11
471.938726
 20
192.220023
 21
192.22122
  0
LINE
  8
APS_GEOMETRY
 10
471.938726
 11
471.938726
 20
192.22122
 21
187.22122
  0
LINE
  8
APS_GEOMETRY
 10
471.938726
 11
470.760429
 20
187.22122
 21
187.220023
  0
LINE
  8
APS_GEOMETRY
 10
471.938726
 11
473.117022
 20
187.22122
 21
187.220023
  0
LINE
  8
APS_GEOMETRY
 10
471.938726
 11
473.117022
 20
192.22122
 21
192.220023
  0
LINE
  8
APS_GEOMETRY
 10
476.339077
 11
477.450188
 20
189.665665
 21
187.22122
  0
LINE
  8
APS_GEOMETRY
 10
482.116855
 11
478.783521
 20
192.22122
 21
192.22122
  0
LINE
  8
APS_GEOMETRY
 10
478.783521
 11
478.783521
 20
192.22122
 21
187.22122
  0
LINE
  8
APS_GEOMETRY
 10
478.783521
 11
482.116855
 20
187.22122
 21
187.22122
  0
LINE
  8
APS_GEOMETRY
 10
478.839077
 11
481.005743
 20
189.887887
 21
189.887887
  0
LINE
  8
APS_GEOMETRY
 10
384.287761
 11
380.121094
 20
240.765538
 21
240.765538
  0
LINE
  8
APS_GEOMETRY
 10
380.121094
 11
380.121094
 20
240.765538
 21
241.043316
  0
LINE
  8
APS_GEOMETRY
 10
380.121094
 11
382.898872
 20
241.043316
 21
244.098872
  0
LINE
  8
APS_GEOMETRY
 10
382.898872
 11
383.17665
 20
244.098872
 21
244.098872
  0
LINE
  8
APS_GEOMETRY
 10
383.17665
 11
383.17665
 20
244.098872
 21
239.098871
  0
LINE
  8
APS_GEOMETRY
 10
392.110436
 11
393.221548
 20
241.541602
 21
239.097157
  0
LINE
  8
APS_GEOMETRY
 10
397.888214
 11
394.554881
 20
244.097157
 21
244.097157
  0
LINE
  8
APS_GEOMETRY
 10
394.554881
 11
394.554881
 20
244.097157
 21
239.097157
  0
LINE
  8
APS_GEOMETRY
 10
394.554881
 11
397.888214
 20
239.097157
 21
239.097157
  0
LINE
  8
APS_GEOMETRY
 10
394.610436
 11
396.777103
 20
241.763824
 21
241.763824
  0
LINE
  8
APS_GEOMETRY
 10
402.802243
 11
403.980539
 20
244.09596
 21
244.097157
  0
LINE
  8
APS_GEOMETRY
 10
403.980539
 11
403.980539
 20
244.097157
 21
239.097157
  0
LINE
  8
APS_GEOMETRY
 10
403.980539
 11
402.802243
 20
239.097157
 21
239.09596
  0
LINE
  8
APS_GEOMETRY
 10
403.980539
 11
405.158836
 20
239.097157
 21
239.09596
  0
LINE
  8
APS_GEOMETRY
 10
403.980539
 11
405.158836
 20
244.097157
 21
244.09596
  0
LINE
  8
APS_GEOMETRY
 10
412.714224
 11
413.825335
 20
241.541602
 21
239.097157
  0
LINE
  8
APS_GEOMETRY
 10
418.492002
 11
415.158668
 20
244.097157
 21
244.097157
  0
LINE
  8
APS_GEOMETRY
 10
415.158668
 11
415.158668
 20
244.097157
 21
239.097157
  0
LINE
  8
APS_GEOMETRY
 10
415.158668
 11
418.492002
 20
239.097157
 21
239.097157
  0
LINE
  8
APS_GEOMETRY
 10
415.214224
 11
417.38089
 20
241.763824
 21
241.763824
  0
LINE
  8
APS_GEOMETRY
 10
38.00416
 11
33.837493
 20
207.871445
 21
207.871445
  0
LINE
  8
APS_GEOMETRY
 10
33.837493
 11
33.837493
 20
207.871445
 21
208.149223
  0
LINE
  8
APS_GEOMETRY
 10
33.837493
 11
36.615271
 20
208.149223
 21
211.204779
  0
LINE
  8
APS_GEOMETRY
 10
36.615271
 11
36.893049
 20
211.204779
 21
211.204779
  0
LINE
  8
APS_GEOMETRY
 10
36.893049
 11
36.893049
 20
211.204779
 21
206.204778
  0
LINE
  8
APS_GEOMETRY
 10
43.660169
 11
47.160169
 20
208.869731
 21
208.869731
  0
LINE
  8
APS_GEOMETRY
 10
47.215724
 11
47.215724
 20
211.203064
 21
206.203064
  0
LINE
  8
APS_GEOMETRY
 10
43.604613
 11
43.604613
 20
211.203064
 21
206.203064
  0
LINE
  8
APS_GEOMETRY
 10
52.129527
 11
52.129527
 20
211.203064
 21
206.203064
  0
LINE
  8
APS_GEOMETRY
 10
52.129527
 11
55.462861
 20
206.203064
 21
206.203064
  0
LINE
  8
APS_GEOMETRY
 10
59.296194
 11
55.962861
 20
211.203064
 21
211.203064
  0
LINE
  8
APS_GEOMETRY
 10
55.962861
 11
55.962861
 20
211.203064
 21
206.203064
  0
LINE
  8
APS_GEOMETRY
 10
55.962861
 11
59.296194
 20
206.203064
 21
206.203064
  0
LINE
  8
APS_GEOMETRY
 10
56.018416
 11
58.185083
 20
208.869731
 21
208.869731
  0
LINE
  8
APS_GEOMETRY
 10
73.404371
 11
76.404371
 20
206.161
 21
210.661
  0
LINE
  8
APS_GEOMETRY
 10
85.142368
 11
82.920146
 20
206.203064
 21
209.25862
  0
LINE
  8
APS_GEOMETRY
 10
81.586812
 11
85.142368
 20
208.203064
 21
211.203064
  0
LINE
  8
APS_GEOMETRY
 10
81.531257
 11
81.531257
 20
211.203064
 21
206.203064
  0
LINE
  8
APS_GEOMETRY
 10
92.357339
 11
92.357339
 20
211.1817
 21
206.237255
  0
LINE
  8
APS_GEOMETRY
 10
90.412895
 11
94.301784
 20
211.237255
 21
211.237255
  0
LINE
  8
APS_GEOMETRY
 10
112.337064
 11
113.51536
 20
211.201867
 21
211.203064
  0
LINE
  8
APS_GEOMETRY
 10
113.51536
 11
113.51536
 20
211.203064
 21
206.203064
  0
LINE
  8
APS_GEOMETRY
 10
113.51536
 11
112.337064
 20
206.203064
 21
206.201867
  0
LINE
  8
APS_GEOMETRY
 10
113.51536
 11
114.693657
 20
206.203064
 21
206.201867
  0
LINE
  8
APS_GEOMETRY
 10
113.51536
 11
114.693657
 20
211.203064
 21
211.201867
  0
LINE
  8
APS_GEOMETRY
 10
117.15846
 11
117.15846
 20
211.1817
 21
206.237255
  0
LINE
  8
APS_GEOMETRY
 10
115.214015
 11
119.102904
 20
211.237255
 21
211.237255
  0
LINE
  8
APS_GEOMETRY
 10
50.929535
 11
50.929535
 20
198.703064
 21
203.703064
  0
LINE
  8
APS_GEOMETRY
 10
50.929535
 11
51.207313
 20
203.703064
 21
203.703064
  0
LINE
  8
APS_GEOMETRY
 10
51.207313
 11
53.151757
 20
203.703064
 21
198.703064
  0
LINE
  8
APS_GEOMETRY
 10
53.151757
 11
55.096202
 20
198.703064
 21
203.703064
  0
LINE
  8
APS_GEOMETRY
 10
55.096202
 11
55.373979
 20
203.703064
 21
203.703064
  0
LINE
  8
APS_GEOMETRY
 10
55.373979
 11
55.373979
 20
203.703064
 21
198.703064
  0
LINE
  8
APS_GEOMETRY
 10
67.183717
 11
67.183717
 20
203.6817
 21
198.737255
  0
LINE
  8
APS_GEOMETRY
 10
65.239273
 11
69.128162
 20
203.737255
 21
203.737255
  0
LINE
  8
APS_GEOMETRY
 10
69.663191
 11
73.163191
 20
201.369731
 21
201.369731
  0
LINE
  8
APS_GEOMETRY
 10
73.218747
 11
73.218747
 20
203.703064
 21
198.703064
  0
LINE
  8
APS_GEOMETRY
 10
69.607635
 11
69.607635
 20
203.703064
 21
198.703064
  0
LINE
  8
APS_GEOMETRY
 10
74.218915
 11
75.397211
 20
203.701867
 21
203.703064
  0
LINE
  8
APS_GEOMETRY
 10
75.397211
 11
75.397211
 20
203.703064
 21
198.703064
  0
LINE
  8
APS_GEOMETRY
 10
75.397211
 11
74.218915
 20
198.703064
 21
198.701867
  0
LINE
  8
APS_GEOMETRY
 10
75.397211
 11
76.575508
 20
198.703064
 21
198.701867
  0
LINE
  8
APS_GEOMETRY
 10
75.397211
 11
76.575508
 20
203.703064
 21
203.701867
  0
LINE
  8
APS_GEOMETRY
 10
86.589398
 11
88.756065
 20
201.203064
 21
201.203064
  0
LINE
  8
APS_GEOMETRY
 10
89.867176
 11
86.533842
 20
203.703064
 21
203.703064
  0
LINE
  8
APS_GEOMETRY
 10
86.533842
 11
86.533842
 20
203.703064
 21
198.703064
  0
LINE
  8
APS_GEOMETRY
 10
89.978287
 11
93.033843
 20
200.213155
 21
200.213155
  0
LINE
  8
APS_GEOMETRY
 10
89.367176
 11
91.31162
 20
198.703064
 21
203.703064
  0
LINE
  8
APS_GEOMETRY
 10
91.31162
 11
91.756065
 20
203.703064
 21
203.703064
  0
LINE
  8
APS_GEOMETRY
 10
91.756065
 11
93.589398
 20
203.703064
 21
198.703064
  0
LINE
  8
APS_GEOMETRY
 10
101.840789
 11
98.507456
 20
203.703064
 21
203.703064
  0
LINE
  8
APS_GEOMETRY
 10
98.507456
 11
98.507456
 20
203.703064
 21
198.703064
  0
LINE
  8
APS_GEOMETRY
 10
98.507456
 11
101.840789
 20
198.703064
 21
198.703064
  0
LINE
  8
APS_GEOMETRY
 10
98.563011
 11
100.729678
 20
201.369731
 21
201.369731
  0
LINE
  8
APS_GEOMETRY
 10
49.322545
 11
51.038172
 20
156.983754
 21
156.983754
  0
LINE
  8
APS_GEOMETRY
 10
50.180358
 11
50.180358
 20
156.983754
 21
161.983754
  0
LINE
  8
APS_GEOMETRY
 10
50.180358
 11
49.322545
 20
161.983754
 21
161.125941
  0
LINE
  8
APS_GEOMETRY
 10
56.843727
 11
60.343727
 20
159.650421
 21
159.650421
  0
LINE
  8
APS_GEOMETRY
 10
60.399283
 11
60.399283
 20
161.983754
 21
156.983754
  0
LINE
  8
APS_GEOMETRY
 10
56.788172
 11
56.788172
 20
161.983754
 21
156.983754
  0
LINE
  8
APS_GEOMETRY
 10
65.313085
 11
65.313085
 20
161.983754
 21
156.983754
  0
LINE
  8
APS_GEOMETRY
 10
65.313085
 11
68.646419
 20
156.983754
 21
156.983754
  0
LINE
  8
APS_GEOMETRY
 10
72.479752
 11
69.146419
 20
161.983754
 21
161.983754
  0
LINE
  8
APS_GEOMETRY
 10
69.146419
 11
69.146419
 20
161.983754
 21
156.983754
  0
LINE
  8
APS_GEOMETRY
 10
69.146419
 11
72.479752
 20
156.983754
 21
156.983754
  0
LINE
  8
APS_GEOMETRY
 10
69.201974
 11
71.368641
 20
159.650421
 21
159.650421
  0
LINE
  8
APS_GEOMETRY
 10
82.379427
 11
85.379427
 20
156.94169
 21
161.44169
  0
LINE
  8
APS_GEOMETRY
 10
94.117424
 11
91.895202
 20
156.983754
 21
160.03931
  0
LINE
  8
APS_GEOMETRY
 10
90.561868
 11
94.117424
 20
158.983754
 21
161.983754
  0
LINE
  8
APS_GEOMETRY
 10
90.506313
 11
90.506313
 20
161.983754
 21
156.983754
  0
LINE
  8
APS_GEOMETRY
 10
101.332395
 11
101.332395
 20
161.96239
 21
157.017946
  0
LINE
  8
APS_GEOMETRY
 10
99.38795
 11
103.27684
 20
162.017946
 21
162.017946
  0
LINE
  8
APS_GEOMETRY
 10
121.31212
 11
122.490416
 20
161.982557
 21
161.983754
  0
LINE
  8
APS_GEOMETRY
 10
122.490416
 11
122.490416
 20
161.983754
 21
156.983754
  0
LINE
  8
APS_GEOMETRY
 10
122.490416
 11
121.31212
 20
156.983754
 21
156.982557
  0
LINE
  8
APS_GEOMETRY
 10
122.490416
 11
123.668713
 20
156.983754
 21
156.982557
  0
LINE
  8
APS_GEOMETRY
 10
122.490416
 11
123.668713
 20
161.983754
 21
161.982557
  0
LINE
  8
APS_GEOMETRY
 10
126.133516
 11
126.133516
 20
161.96239
 21
157.017946
  0
LINE
  8
APS_GEOMETRY
 10
124.189071
 11
128.07796
 20
162.017946
 21
162.017946
  0
LINE
  8
APS_GEOMETRY
 10
53.587091
 11
53.587091
 20
149.483754
 21
154.483754
  0
LINE
  8
APS_GEOMETRY
 10
53.587091
 11
53.864869
 20
154.483754
 21
154.483754
  0
LINE
  8
APS_GEOMETRY
 10
53.864869
 11
55.809313
 20
154.483754
 21
149.483754
  0
LINE
  8
APS_GEOMETRY
 10
55.809313
 11
57.753758
 20
149.483754
 21
154.483754
  0
LINE
  8
APS_GEOMETRY
 10
57.753758
 11
58.031535
 20
154.483754
 21
154.483754
  0
LINE
  8
APS_GEOMETRY
 10
58.031535
 11
58.031535
 20
154.483754
 21
149.483754
  0
LINE
  8
APS_GEOMETRY
 10
77.040105
 11
77.040105
 20
149.483754
 21
154.483754
  0
LINE
  8
APS_GEOMETRY
 10
77.040105
 11
77.317883
 20
154.483754
 21
154.483754
  0
LINE
  8
APS_GEOMETRY
 10
77.317883
 11
80.095661
 20
154.483754
 21
149.483754
  0
LINE
  8
APS_GEOMETRY
 10
80.095661
 11
80.373438
 20
149.483754
 21
149.483754
  0
LINE
  8
APS_GEOMETRY
 10
80.373438
 11
80.373438
 20
149.483754
 21
154.483754
  0
LINE
  8
APS_GEOMETRY
 10
90.595661
 11
93.651216
 20
150.993845
 21
150.993845
  0
LINE
  8
APS_GEOMETRY
 10
89.98455
 11
91.928994
 20
149.483754
 21
154.483754
  0
LINE
  8
APS_GEOMETRY
 10
91.928994
 11
92.373439
 20
154.483754
 21
154.483754
  0
LINE
  8
APS_GEOMETRY
 10
92.373439
 11
94.206772
 20
154.483754
 21
149.483754
  0
LINE
  8
APS_GEOMETRY
 10
102.735941
 11
100.513719
 20
149.483754
 21
152.53931
  0
LINE
  8
APS_GEOMETRY
 10
99.180385
 11
102.735941
 20
151.483754
 21
154.483754
  0
LINE
  8
APS_GEOMETRY
 10
99.12483
 11
99.12483
 20
154.483754
 21
149.483754
  0
LINE
  8
APS_GEOMETRY
 10
108.541497
 11
110.708163
 20
151.983754
 21
151.983754
  0
LINE
  8
APS_GEOMETRY
 10
111.819275
 11
108.485941
 20
154.483754
 21
154.483754
  0
LINE
  8
APS_GEOMETRY
 10
108.485941
 11
108.485941
 20
154.483754
 21
149.483754
  0
LINE
  8
APS_GEOMETRY
 10
111.930386
 11
114.985941
 20
150.993845
 21
150.993845
  0
LINE
  8
APS_GEOMETRY
 10
111.319275
 11
113.263719
 20
149.483754
 21
154.483754
  0
LINE
  8
APS_GEOMETRY
 10
113.263719
 11
113.708164
 20
154.483754
 21
154.483754
  0
LINE
  8
APS_GEOMETRY
 10
113.708164
 11
115.541497
 20
154.483754
 21
149.483754
  0
LINE
  8
APS_GEOMETRY
 10
123.792888
 11
120.459555
 20
154.483754
 21
154.483754
  0
LINE
  8
APS_GEOMETRY
 10
120.459555
 11
120.459555
 20
154.483754
 21
149.483754
  0
LINE
  8
APS_GEOMETRY
 10
120.459555
 11
123.792888
 20
149.483754
 21
149.483754
  0
LINE
  8
APS_GEOMETRY
 10
120.51511
 11
122.681777
 20
152.150421
 21
152.150421
  0
LINE
  8
APS_GEOMETRY
 10
164.292282
 11
172.996332
 20
189.227932
 21
184.030009
  0
LINE
  8
APS_GEOMETRY
 10
172.996332
 11
163.076822
 20
184.030009
 21
186.123384
  0
LINE
  8
APS_GEOMETRY
 10
163.076822
 11
164.292282
 20
186.123384
 21
189.227932
  0
LINE
  8
APS_GEOMETRY
 10
172.996332
 11
121.340423
 20
184.030009
 21
204.253784
  0
LINE
  8
APS_GEOMETRY
 10
162.476813
 11
166.904833
 20
207.038468
 21
197.918626
  0
LINE
  8
APS_GEOMETRY
 10
166.904833
 11
159.757913
 20
197.918626
 21
205.108926
  0
LINE
  8
APS_GEOMETRY
 10
159.757913
 11
162.476813
 20
205.108926
 21
207.038468
  0
LINE
  8
APS_GEOMETRY
 10
166.904833
 11
161.544314
 20
197.918626
 21
205.472084
  0
LINE
  8
APS_GEOMETRY
 10
161.544314
 11
125.969962
 20
205.472084
 21
205.472084
  0
LINE
  8
APS_GEOMETRY
 10
144.422163
 11
153.503536
 20
201.937697
 21
197.431306
  0
LINE
  8
APS_GEOMETRY
 10
153.503536
 11
143.451431
 20
197.431306
 21
198.748147
  0
LINE
  8
APS_GEOMETRY
 10
143.451431
 11
144.422163
 20
198.748147
 21
201.937697
  0
LINE
  8
APS_GEOMETRY
 10
153.503536
 11
131.086821
 20
197.431306
 21
204.253784
  0
LINE
  8
APS_GEOMETRY
 10
136.999107
 11
144.244458
 20
190.633794
 21
183.542689
  0
LINE
  8
APS_GEOMETRY
 10
144.244458
 11
135.090647
 20
183.542689
 21
187.900054
  0
LINE
  8
APS_GEOMETRY
 10
135.090647
 11
136.999107
 20
187.900054
 21
190.633794
  0
LINE
  8
APS_GEOMETRY
 10
144.244458
 11
118.416503
 20
183.542689
 21
201.573525
  0
LINE
  8
APS_GEOMETRY
 10
153.030306
 11
160.569674
 20
174.084759
 21
180.862429
  0
LINE
  8
APS_GEOMETRY
 10
160.569674
 11
155.636577
 20
180.862429
 21
172.005599
  0
LINE
  8
APS_GEOMETRY
 10
155.636577
 11
153.030306
 20
172.005599
 21
174.084759
  0
LINE
  8
APS_GEOMETRY
 10
160.569674
 11
143.269818
 20
180.862429
 21
159.176694
  0
LINE
  8
APS_GEOMETRY
 10
143.269818
 11
130.112181
 20
159.176694
 21
158.202054
  0
LINE
  8
APS_GEOMETRY
 10
253.612173
 11
254.918053
 20
260.016488
 21
264.914386
  0
LINE
  8
APS_GEOMETRY
 10
254.918053
 11
256.436245
 20
264.914386
 21
264.225923
  0
LINE
  8
APS_GEOMETRY
 10
256.436245
 11
253.612173
 20
264.225923
 21
260.016488
  0
LINE
  8
APS_GEOMETRY
 10
253.612173
 11
268.6554
 20
260.016488
 21
293.189666
  0
LINE
  8
APS_GEOMETRY
 10
268.6554
 11
273.924723
 20
293.189666
 21
293.189666
  0
LINE
  8
APS_GEOMETRY
 10
261.112983
 11
263.937055
 20
278.575383
 21
282.784817
  0
LINE
  8
APS_GEOMETRY
 10
263.937055
 11
262.631175
 20
282.784817
 21
277.88692
  0
LINE
  8
APS_GEOMETRY
 10
262.631175
 11
261.112983
 20
277.88692
 21
278.575383
  0
LINE
  8
APS_GEOMETRY
 10
275.174723
 11
280.174629
 20
290.689666
 21
295.689666
  0
LINE
  8
APS_GEOMETRY
 10
443.578896
 11
446.578896
 20
285.740553
 21
290.240553
  0
LINE
  8
APS_GEOMETRY
 10
450.830613
 11
447.497279
 20
290.782617
 21
290.782617
  0
LINE
  8
APS_GEOMETRY
 10
447.497279
 11
447.497279
 20
290.782617
 21
285.782617
  0
LINE
  8
APS_GEOMETRY
 10
447.497279
 11
450.830613
 20
285.782617
 21
285.782617
  0
LINE
  8
APS_GEOMETRY
 10
447.552835
 11
449.719501
 20
288.449284
 21
288.449284
  0
LINE
  8
APS_GEOMETRY
 10
451.830613
 11
451.830613
 20
285.782617
 21
290.782617
  0
LINE
  8
APS_GEOMETRY
 10
451.830613
 11
452.10839
 20
290.782617
 21
290.782617
  0
LINE
  8
APS_GEOMETRY
 10
452.10839
 11
454.886168
 20
290.782617
 21
285.782617
  0
LINE
  8
APS_GEOMETRY
 10
454.886168
 11
455.163946
 20
285.782617
 21
285.782617
  0
LINE
  8
APS_GEOMETRY
 10
455.163946
 11
455.163946
 20
285.782617
 21
290.782617
  0
LINE
  8
APS_GEOMETRY
 10
135.810538
 11
139.699427
 20
340.125686
 21
334.57013
  0
LINE
  8
APS_GEOMETRY
 10
139.699427
 11
139.699427
 20
334.57013
 21
330.125686
  0
LINE
  8
APS_GEOMETRY
 10
139.699427
 11
143.588316
 20
334.57013
 21
340.125686
  0
ARC
  8
APS_GEOMETRY
 10
148.079867
 20
333.470896
 40
3.274
 50
218.6887
 51
321.3113
  0
ARC
  8
APS_GEOMETRY
 10
145.905253
 20
335.257745
 40
6.088445
 50
320.978113
 51
39.020738
  0
ARC
  8
APS_GEOMETRY
 10
148.079924
 20
337.044523
 40
3.274
 50
38.688157
 51
141.312908
  0
ARC
  8
APS_GEOMETRY
 10
150.254538
 20
335.257674
 40
6.088445
 50
140.978975
 51
219.021025
  0
LINE
  8
APS_GEOMETRY
 10
152.953608
 11
152.953608
 20
340.066836
 21
333.400169
  0
ARC
  8
APS_GEOMETRY
 10
156.286941
 20
333.400169
 40
3.333333
 50
180.0
 51
0.0
  0
LINE
  8
APS_GEOMETRY
 10
159.620275
 11
159.620275
 20
333.400169
 21
340.066836
  0
LINE
  8
APS_GEOMETRY
 10
174.065953
 11
174.065953
 20
340.11903
 21
330.230141
  0
LINE
  8
APS_GEOMETRY
 10
170.177064
 11
177.954842
 20
340.230141
 21
340.230141
  0
LINE
  8
APS_GEOMETRY
 10
178.898053
 11
178.898053
 20
340.066836
 21
333.400169
  0
ARC
  8
APS_GEOMETRY
 10
182.231387
 20
333.400169
 40
3.333333
 50
180.0
 51
0.0
  0
LINE
  8
APS_GEOMETRY
 10
185.56472
 11
185.56472
 20
333.400169
 21
340.066836
  0
LINE
  8
APS_GEOMETRY
 10
187.580456
 11
191.580456
 20
335.38398
 21
335.38398
  0
ARC
  8
APS_GEOMETRY
 10
191.580456
 20
337.772869
 40
2.388889
 50
270.0
 51
90.0
  0
LINE
  8
APS_GEOMETRY
 10
191.580456
 11
187.580456
 20
340.161758
 21
340.161758
  0
LINE
  8
APS_GEOMETRY
 10
187.580456
 11
187.580456
 20
340.161758
 21
330.161758
  0
LINE
  8
APS_GEOMETRY
 10
187.580456
 11
191.691567
 20
330.161758
 21
330.161758
  0
ARC
  8
APS_GEOMETRY
 10
191.691567
 20
332.772869
 40
2.611111
 50
270.0
 51
90.0
  0
LINE
  8
APS_GEOMETRY
 10
202.969345
 11
196.302678
 20
340.161758
 21
340.161758
  0
LINE
  8
APS_GEOMETRY
 10
196.302678
 11
196.302678
 20
340.161758
 21
330.161758
  0
LINE
  8
APS_GEOMETRY
 10
196.302678
 11
202.969345
 20
330.161758
 21
330.161758
  0
LINE
  8
APS_GEOMETRY
 10
196.413789
 11
200.747123
 20
335.495091
 21
335.495091
  0
LINE
  8
APS_GEOMETRY
 10
214.469345
 11
214.469345
 20
340.161758
 21
330.161758
  0
LINE
  8
APS_GEOMETRY
 10
214.469345
 11
221.136012
 20
330.161758
 21
330.161758
  0
LINE
  8
APS_GEOMETRY
 10
224.492942
 11
224.492942
 20
340.161758
 21
330.161758
  0
LINE
  8
APS_GEOMETRY
 10
222.136349
 11
224.492942
 20
330.159363
 21
330.161758
  0
LINE
  8
APS_GEOMETRY
 10
224.492942
 11
226.849535
 20
330.161758
 21
330.159363
  0
LINE
  8
APS_GEOMETRY
 10
222.136349
 11
224.492942
 20
340.159364
 21
340.161758
  0
LINE
  8
APS_GEOMETRY
 10
224.492942
 11
226.849535
 20
340.161758
 21
340.159364
  0
LINE
  8
APS_GEOMETRY
 10
228.849199
 11
228.849199
 20
330.161758
 21
340.161758
  0
LINE
  8
APS_GEOMETRY
 10
228.849199
 11
229.404754
 20
340.161758
 21
340.161758
  0
LINE
  8
APS_GEOMETRY
 10
229.404754
 11
234.96031
 20
340.161758
 21
330.161758
  0
LINE
  8
APS_GEOMETRY
 10
234.96031
 11
235.515866
 20
330.161758
 21
330.161758
  0
LINE
  8
APS_GEOMETRY
 10
235.515866
 11
235.515866
 20
330.161758
 21
340.161758
  0
LINE
  8
APS_GEOMETRY
 10
244.738088
 11
240.293643
 20
330.161758
 21
336.272869
  0
LINE
  8
APS_GEOMETRY
 10
237.626977
 11
244.738088
 20
334.161758
 21
340.161758
  0
LINE
  8
APS_GEOMETRY
 10
237.515866
 11
237.515866
 20
340.161758
 21
330.161758
  0
LINE
  8
APS_GEOMETRY
 10
136.828477
 11
136.828477
 20
324.161758
 21
315.161758
  0
LINE
  8
APS_GEOMETRY
 10
135.628477
 11
138.128477
 20
321.361758
 21
321.361758
  0
LINE
  8
APS_GEOMETRY
 10
141.328477
 11
141.328477
 20
324.161758
 21
315.161758
  0
LINE
  8
APS_GEOMETRY
 10
140.128477
 11
142.628477
 20
321.361758
 21
321.361758
  0
ARC
  8
APS_GEOMETRY
 10
146.824285
 20
317.66472
 40
2.5727
 50
214.9193
 51
269.7887
  0
ARC
  8
APS_GEOMETRY
 10
146.810392
 20
317.445333
 40
2.3533
 50
270.107261
 51
333.411436
  0
ARC
  8
APS_GEOMETRY
 10
145.317393
 20
318.192004
 40
4.0226
 50
333.419009
 51
26.581852
  0
ARC
  8
APS_GEOMETRY
 10
146.810369
 20
318.93872
 40
2.3533
 50
26.58881
 51
89.892414
  0
ARC
  8
APS_GEOMETRY
 10
146.824294
 20
318.719334
 40
2.5727
 50
90.211714
 51
145.081065
  0
LINE
  8
APS_GEOMETRY
 10
144.714785
 11
144.714785
 20
321.39202
 21
312.69202
  0
ARC
  8
APS_GEOMETRY
 10
152.18318
 20
318.890722
 40
2.4404
 50
42.8264
 51
122.4689
  0
ARC
  8
APS_GEOMETRY
 10
151.557982
 20
319.86949
 40
1.279
 50
122.378183
 51
252.485679
  0
LINE
  8
APS_GEOMETRY
 10
151.173075
 11
153.17308
 20
318.649782
 21
318.049722
  0
ARC
  8
APS_GEOMETRY
 10
152.775122
 20
316.733989
 40
1.3746
 50
300.512868
 51
73.171518
  0
ARC
  8
APS_GEOMETRY
 10
152.172976
 20
317.803682
 40
2.602
 50
240.027532
 51
299.976472
  0
ARC
  8
APS_GEOMETRY
 10
151.540244
 20
316.716709
 40
1.3443
 50
209.746055
 51
240.244046
  0
LINE
  8
APS_GEOMETRY
 10
156.659917
 11
156.159917
 20
319.955389
 21
319.955389
  0
LINE
  8
APS_GEOMETRY
 10
156.159917
 11
156.159917
 20
319.955389
 21
320.455389
  0
LINE
  8
APS_GEOMETRY
 10
156.159917
 11
156.659917
 20
320.455389
 21
320.455389
  0
LINE
  8
APS_GEOMETRY
 10
156.659917
 11
156.659917
 20
320.455389
 21
319.955389
  0
LINE
  8
APS_GEOMETRY
 10
156.659917
 11
156.159917
 20
317.474415
 21
317.474415
  0
LINE
  8
APS_GEOMETRY
 10
156.159917
 11
156.159917
 20
317.474415
 21
317.974415
  0
LINE
  8
APS_GEOMETRY
 10
156.159917
 11
156.659917
 20
317.974415
 21
317.974415
  0
LINE
  8
APS_GEOMETRY
 10
156.659917
 11
156.659917
 20
317.974415
 21
317.474415
  0
LINE
  8
APS_GEOMETRY
 10
158.823151
 11
164.823151
 20
315.077629
 21
324.077629
  0
LINE
  8
APS_GEOMETRY
 10
166.823151
 11
172.823151
 20
315.077629
 21
324.077629
  0
LINE
  8
APS_GEOMETRY
 10
174.89243
 11
177.19243
 20
321.599427
 21
315.099427
  0
LINE
  8
APS_GEOMETRY
 10
174.89243
 11
175.69243
 20
312.599427
 21
312.599427
  0
LINE
  8
APS_GEOMETRY
 10
175.69243
 11
176.09243
 20
312.599427
 21
312.699427
  0
LINE
  8
APS_GEOMETRY
 10
176.09243
 11
176.39243
 20
312.699427
 21
312.899427
  0
LINE
  8
APS_GEOMETRY
 10
176.39243
 11
176.59243
 20
312.899427
 21
313.199427
  0
LINE
  8
APS_GEOMETRY
 10
176.59243
 11
179.19243
 20
313.199427
 21
321.599427
  0
ARC
  8
APS_GEOMETRY
 10
182.701213
 20
317.551649
 40
2.3411
 50
206.2329
 51
333.7671
  0
ARC
  8
APS_GEOMETRY
 10
181.203804
 20
318.316867
 40
4.0226
 50
333.417878
 51
26.581314
  0
ARC
  8
APS_GEOMETRY
 10
182.701222
 20
319.082067
 40
2.3411
 50
26.231996
 51
153.7676
  0
ARC
  8
APS_GEOMETRY
 10
184.198631
 20
318.316849
 40
4.0226
 50
153.418164
 51
206.581836
  0
LINE
  8
APS_GEOMETRY
 10
186.078719
 11
186.078642
 20
321.514002
 21
316.913969
  0
ARC
  8
APS_GEOMETRY
 10
187.769719
 20
316.905079
 40
1.6911
 50
179.698802
 51
270.305782
  0
ARC
  8
APS_GEOMETRY
 10
187.781019
 20
318.122802
 40
2.9088
 50
269.9552
 51
333.2598
  0
LINE
  8
APS_GEOMETRY
 10
190.378719
 11
190.378719
 20
321.514002
 21
315.214002
  0
LINE
  8
APS_GEOMETRY
 10
193.474928
 11
193.474928
 20
324.161758
 21
315.161758
  0
LINE
  8
APS_GEOMETRY
 10
192.274928
 11
194.774928
 20
321.361758
 21
321.361758
  0
LINE
  8
APS_GEOMETRY
 10
196.878839
 11
196.878763
 20
321.514002
 21
316.913969
  0
ARC
  8
APS_GEOMETRY
 10
198.56984
 20
316.905079
 40
1.6911
 50
179.698802
 51
270.305782
  0
ARC
  8
APS_GEOMETRY
 10
198.581139
 20
318.122802
 40
2.9088
 50
269.9552
 51
333.2598
  0
LINE
  8
APS_GEOMETRY
 10
201.178839
 11
201.178839
 20
321.514002
 21
315.214002
  0
CIRCLE
  8
APS_GEOMETRY
 10
204.093465
 20
316.165548
 40
1.0
  0
LINE
  8
APS_GEOMETRY
 10
207.110532
 11
207.110532
 20
315.161758
 21
324.161758
  0
ARC
  8
APS_GEOMETRY
 10
209.220032
 20
317.634458
 40
2.5727
 50
214.9193
 51
269.7887
  0
ARC
  8
APS_GEOMETRY
 10
209.206138
 20
317.415071
 40
2.3533
 50
270.107261
 51
333.411436
  0
ARC
  8
APS_GEOMETRY
 10
207.713139
 20
318.161742
 40
4.0226
 50
333.419009
 51
26.581852
  0
ARC
  8
APS_GEOMETRY
 10
209.206116
 20
318.908458
 40
2.3533
 50
26.58881
 51
89.892414
  0
ARC
  8
APS_GEOMETRY
 10
209.220041
 20
318.689071
 40
2.5727
 50
90.211714
 51
145.081065
  0
LINE
  8
APS_GEOMETRY
 10
212.762817
 11
217.562828
 20
318.816881
 21
318.816865
  0
ARC
  8
APS_GEOMETRY
 10
214.597316
 20
318.925452
 40
2.9675
 50
357.902951
 51
30.171303
  0
ARC
  8
APS_GEOMETRY
 10
215.259217
 20
319.31978
 40
2.1971
 50
29.956335
 51
89.906216
  0
ARC
  8
APS_GEOMETRY
 10
215.267233
 20
319.163581
 40
2.3533
 50
90.107586
 51
153.41119
  0
ARC
  8
APS_GEOMETRY
 10
216.760209
 20
318.416865
 40
4.0226
 50
153.418148
 51
206.580991
  0
ARC
  8
APS_GEOMETRY
 10
215.26721
 20
317.670194
 40
2.3533
 50
206.588564
 51
269.892739
  0
ARC
  8
APS_GEOMETRY
 10
215.253317
 20
317.889581
 40
2.5727
 50
270.2113
 51
325.0807
  0
LINE
  8
APS_GEOMETRY
 10
218.726188
 11
224.726188
 20
315.077629
 21
324.077629
  0
LINE
  8
APS_GEOMETRY
 10
226.623642
 11
229.623642
 20
319.563259
 21
319.563259
  0
LINE
  8
APS_GEOMETRY
 10
230.826977
 11
232.626977
 20
321.560554
 21
315.260554
  0
LINE
  8
APS_GEOMETRY
 10
232.626977
 11
232.926977
 20
315.260554
 21
315.260554
  0
LINE
  8
APS_GEOMETRY
 10
232.926977
 11
234.726977
 20
315.260554
 21
321.560554
  0
LINE
  8
APS_GEOMETRY
 10
234.726977
 11
236.526977
 20
321.560554
 21
315.260554
  0
LINE
  8
APS_GEOMETRY
 10
236.526977
 11
236.826977
 20
315.260554
 21
315.260554
  0
LINE
  8
APS_GEOMETRY
 10
236.826977
 11
238.626977
 20
315.260554
 21
321.560554
  0
ARC
  8
APS_GEOMETRY
 10
242.540691
 20
318.311739
 40
3.274
 50
218.687092
 51
321.311843
  0
ARC
  8
APS_GEOMETRY
 10
240.36602
 20
320.098517
 40
6.088445
 50
320.979262
 51
39.021887
  0
ARC
  8
APS_GEOMETRY
 10
242.540616
 20
321.885388
 40
3.274
 50
38.688216
 51
141.311676
  0
ARC
  8
APS_GEOMETRY
 10
242.04162
 20
322.265237
 40
2.647111
 50
140.977916
 51
219.022283
  0
ARC
  8
APS_GEOMETRY
 10
242.707331
 20
322.77855
 40
3.487556
 50
218.687897
 51
321.311964
  0
ARC
  8
APS_GEOMETRY
 10
242.942078
 20
322.622699
 40
3.207
 50
320.8638
 51
349.5859
  0
ARC
  8
APS_GEOMETRY
 10
250.726048
 20
321.55257
 40
2.4818
 50
81.8929
 51
98.1071
  0
ARC
  8
APS_GEOMETRY
 10
250.371848
 20
323.213779
 40
0.7958
 50
89.697112
 51
180.304411
  0
LINE
  8
APS_GEOMETRY
 10
249.576059
 11
249.576048
 20
323.20955
 21
315.10957
  0
LINE
  8
APS_GEOMETRY
 10
248.376048
 11
250.876048
 20
321.10957
 21
321.10957
  0
ARC
  8
APS_GEOMETRY
 10
255.242436
 20
324.287908
 40
4.332889
 50
295.9876
 51
313.9964
  0
ARC
  8
APS_GEOMETRY
 10
256.75361
 20
322.726403
 40
2.159889
 50
313.930836
 51
46.072395
  0
ARC
  8
APS_GEOMETRY
 10
255.807569
 20
321.350277
 40
3.817111
 50
50.178678
 51
129.819556
  0
ARC
  8
APS_GEOMETRY
 10
254.629126
 20
322.782093
 40
1.962778
 50
130.163237
 51
229.839346
  0
ARC
  8
APS_GEOMETRY
 10
255.551106
 20
323.883031
 40
3.398778
 50
229.930688
 51
276.210455
  0
ARC
  8
APS_GEOMETRY
 10
256.286638
 20
317.125387
 40
3.398778
 50
49.934494
 51
96.213281
  0
ARC
  8
APS_GEOMETRY
 10
257.076102
 20
317.837574
 40
2.350111
 50
306.509514
 51
53.490801
  0
ARC
  8
APS_GEOMETRY
 10
255.80768
 20
319.539447
 40
4.472667
 50
233.400655
 51
306.598732
  0
ARC
  8
APS_GEOMETRY
 10
254.539236
 20
317.83759
 40
2.350111
 50
126.510158
 51
233.489989
  0
ARC
  8
APS_GEOMETRY
 10
257.432444
 20
314.021753
 40
7.138667
 50
112.535105
 51
126.952643
  0
ARC
  8
APS_GEOMETRY
 10
263.663131
 20
321.55257
 40
2.4818
 50
81.8929
 51
98.1071
  0
ARC
  8
APS_GEOMETRY
 10
263.308931
 20
323.213779
 40
0.7958
 50
89.697112
 51
180.304411
  0
LINE
  8
APS_GEOMETRY
 10
262.513142
 11
262.513131
 20
323.20955
 21
315.10957
  0
LINE
  8
APS_GEOMETRY
 10
261.313131
 11
263.813131
 20
321.10957
 21
321.10957
  0
LINE
  8
APS_GEOMETRY
 10
265.059987
 11
271.653394
 20
325.161758
 21
325.161758
  0
LINE
  8
APS_GEOMETRY
 10
271.653394
 11
271.653394
 20
325.161758
 21
324.832088
  0
LINE
  8
APS_GEOMETRY
 10
271.653394
 11
265.059987
 20
324.832088
 21
315.491428
  0
LINE
  8
APS_GEOMETRY
 10
265.059987
 11
265.059987
 20
315.491428
 21
315.161758
  0
LINE
  8
APS_GEOMETRY
 10
265.059987
 11
271.653394
 20
315.161758
 21
315.161758
  0
LINE
  8
APS_GEOMETRY
 10
273.721823
 11
273.721747
 20
321.514002
 21
316.913969
  0
ARC
  8
APS_GEOMETRY
 10
275.412823
 20
316.905079
 40
1.6911
 50
179.698802
 51
270.305782
  0
ARC
  8
APS_GEOMETRY
 10
275.424123
 20
318.122802
 40
2.9088
 50
269.9552
 51
333.2598
  0
LINE
  8
APS_GEOMETRY
 10
278.021823
 11
278.021823
 20
321.514002
 21
315.214002
  0
LINE
  8
APS_GEOMETRY
 10
280.528368
 11
280.528368
 20
322.264805
 21
322.864805
  0
LINE
  8
APS_GEOMETRY
 10
279.028368
 11
279.52832
 20
312.064805
 21
312.064812
  0
ARC
  8
APS_GEOMETRY
 10
279.531968
 20
313.066305
 40
1.0015
 50
269.7913
 51
354.1831
  0
LINE
  8
APS_GEOMETRY
 10
280.528311
 11
280.528368
 20
312.964803
 21
320.264805
  0
LINE
  8
APS_GEOMETRY
 10
284.030837
 11
284.030837
 20
315.161758
 21
324.161758
  0
LINE
  8
APS_GEOMETRY
 10
284.030837
 11
283.296142
 20
324.161758
 21
324.161758
  0
LINE
  8
APS_GEOMETRY
 10
282.453515
 11
284.030837
 20
315.161758
 21
315.161758
  0
LINE
  8
APS_GEOMETRY
 10
284.030837
 11
285.608159
 20
315.161758
 21
315.161758
  0
LINE
  8
APS_GEOMETRY
 10
286.872181
 11
288.672181
 20
321.560554
 21
315.260554
  0
LINE
  8
APS_GEOMETRY
 10
288.672181
 11
288.972181
 20
315.260554
 21
315.260554
  0
LINE
  8
APS_GEOMETRY
 10
288.972181
 11
290.772181
 20
315.260554
 21
321.560554
  0
LINE
  8
APS_GEOMETRY
 10
290.772181
 11
292.572181
 20
321.560554
 21
315.260554
  0
LINE
  8
APS_GEOMETRY
 10
292.572181
 11
292.872181
 20
315.260554
 21
315.260554
  0
LINE
  8
APS_GEOMETRY
 10
292.872181
 11
294.672181
 20
315.260554
 21
321.560554
  0
ENDSEC
  0
EOF
