  0
SECTION
  2
ENTITIES
  0
LINE
  8
APS_GEOMETRY
 10
181.183778
 11
143.829048
 20
1866.004402
 21
1866.004402
  0
ARC
  8
APS_GEOMETRY
 10
143.829048
 20
1863.004402
 40
3.0
 50
90.0
 51
180.0
  0
LINE
  8
APS_GEOMETRY
 10
140.829048
 11
140.829048
 20
1863.004402
 21
1855.004402
  0
ARC
  8
APS_GEOMETRY
 10
143.829048
 20
1855.004402
 40
3.0
 50
180.0
 51
270.0
  0
LINE
  8
APS_GEOMETRY
 10
143.829048
 11
181.183778
 20
1852.004402
 21
1852.004402
  0
ARC
  8
APS_GEOMETRY
 10
181.183778
 20
1859.004402
 40
7.0
 50
270.0
 51
90.0
  0
CIRCLE
  8
APS_GEOMETRY
 10
181.183778
 20
1859.004402
 40
1.5
  0
LINE
  8
APS_GEOMETRY
 10
609.741293
 11
609.741293
 20
1887.880571
 21
1873.880571
  0
LINE
  8
APS_GEOMETRY
 10
609.741293
 11
609.741293
 20
1946.880571
 21
1934.880571
  0
LINE
  8
APS_GEOMETRY
 10
609.741293
 11
609.741293
 20
1887.880571
 21
1873.880571
  0
LINE
  8
APS_GEOMETRY
 10
609.741293
 11
609.741293
 20
1826.880571
 21
1814.880571
  0
LINE
  8
APS_GEOMETRY
 10
609.741293
 11
598.053717
 20
1934.880571
 21
1934.880571
  0
ARC
  8
APS_GEOMETRY
 10
598.053717
 20
1929.880571
 40
5.0
 50
90.0
 51
180.0
  0
LINE
  8
APS_GEOMETRY
 10
593.053717
 11
593.053717
 20
1929.880571
 21
1892.880571
  0
ARC
  8
APS_GEOMETRY
 10
598.053717
 20
1892.880571
 40
5.0
 50
180.0
 51
270.0
  0
LINE
  8
APS_GEOMETRY
 10
609.741293
 11
598.053717
 20
1873.880571
 21
1873.880571
  0
ARC
  8
APS_GEOMETRY
 10
598.053717
 20
1868.880571
 40
5.0
 50
90.0
 51
180.0
  0
LINE
  8
APS_GEOMETRY
 10
593.053717
 11
593.053717
 20
1868.880571
 21
1831.880571
  0
ARC
  8
APS_GEOMETRY
 10
598.053717
 20
1831.880571
 40
5.0
 50
180.0
 51
270.0
  0
LINE
  8
APS_GEOMETRY
 10
609.741293
 11
545.270039
 20
1946.880571
 21
1946.880571
  0
ARC
  8
APS_GEOMETRY
 10
545.270039
 20
1943.880571
 40
3.0
 50
90.0
 51
180.0
  0
LINE
  8
APS_GEOMETRY
 10
542.270039
 11
542.270039
 20
1943.880571
 21
1817.880571
  0
ARC
  8
APS_GEOMETRY
 10
545.270039
 20
1817.880571
 40
3.0
 50
180.0
 51
270.0
  0
LINE
  8
APS_GEOMETRY
 10
545.270039
 11
609.741293
 20
1814.880571
 21
1814.880571
  0
CIRCLE
  8
APS_GEOMETRY
 10
586.675389
 20
1927.965915
 40
2.5
  0
CIRCLE
  8
APS_GEOMETRY
 10
586.675389
 20
1833.795226
 40
2.5
  0
CIRCLE
  8
APS_GEOMETRY
 10
605.650282
 20
1941.880571
 40
1.6
  0
CIRCLE
  8
APS_GEOMETRY
 10
549.098298
 20
1941.880571
 40
1.6
  0
CIRCLE
  8
APS_GEOMETRY
 10
605.650282
 20
1819.880571
 40
1.6
  0
CIRCLE
  8
APS_GEOMETRY
 10
549.098298
 20
1819.880571
 40
1.6
  0
ARC
  8
APS_GEOMETRY
 10
602.347872
 20
1880.880571
 40
2.5
 50
270.0
 51
90.0
  0
ARC
  8
APS_GEOMETRY
 10
554.698727
 20
1880.880571
 40
2.5
 50
90.0
 51
270.0
  0
CIRCLE
  8
APS_GEOMETRY
 10
585.119915
 20
1898.298563
 40
1.6
  0
CIRCLE
  8
APS_GEOMETRY
 10
549.098298
 20
1898.298563
 40
1.6
  0
CIRCLE
  8
APS_GEOMETRY
 10
585.119915
 20
1863.462579
 40
1.6
  0
CIRCLE
  8
APS_GEOMETRY
 10
549.098298
 20
1863.462579
 40
1.6
  0
LINE
  8
APS_GEOMETRY
 10
554.698727
 11
602.347872
 20
1883.380571
 21
1883.380571
  0
LINE
  8
APS_GEOMETRY
 10
554.698727
 11
602.347872
 20
1878.380571
 21
1878.380571
  0
LINE
  8
APS_GEOMETRY
 10
363.346298
 11
324.658722
 20
1934.712667
 21
1934.712667
  0
ARC
  8
APS_GEOMETRY
 10
324.658722
 20
1929.712667
 40
5.0
 50
90.0
 51
180.0
  0
LINE
  8
APS_GEOMETRY
 10
319.658722
 11
319.658722
 20
1929.712667
 21
1892.712667
  0
LINE
  8
APS_GEOMETRY
 10
319.658722
 11
319.658722
 20
1868.712667
 21
1831.712667
  0
ARC
  8
APS_GEOMETRY
 10
324.658722
 20
1831.712667
 40
5.0
 50
180.0
 51
270.0
  0
LINE
  8
APS_GEOMETRY
 10
324.658722
 11
363.346298
 20
1826.712667
 21
1826.712667
  0
LINE
  8
APS_GEOMETRY
 10
363.346298
 11
271.875045
 20
1946.712667
 21
1946.712667
  0
ARC
  8
APS_GEOMETRY
 10
271.875045
 20
1943.712667
 40
3.0
 50
90.0
 51
180.0
  0
LINE
  8
APS_GEOMETRY
 10
268.875045
 11
268.875045
 20
1943.712667
 21
1887.712667
  0
LINE
  8
APS_GEOMETRY
 10
268.875045
 11
268.875045
 20
1873.712667
 21
1817.712667
  0
ARC
  8
APS_GEOMETRY
 10
271.875045
 20
1817.712667
 40
3.0
 50
180.0
 51
270.0
  0
LINE
  8
APS_GEOMETRY
 10
271.875045
 11
363.346298
 20
1814.712667
 21
1814.712667
  0
CIRCLE
  8
APS_GEOMETRY
 10
313.280394
 20
1927.798012
 40
2.5
  0
CIRCLE
  8
APS_GEOMETRY
 10
313.280394
 20
1833.627323
 40
2.5
  0
CIRCLE
  8
APS_GEOMETRY
 10
332.255288
 20
1941.712667
 40
1.6
  0
CIRCLE
  8
APS_GEOMETRY
 10
275.703303
 20
1941.712667
 40
1.6
  0
CIRCLE
  8
APS_GEOMETRY
 10
332.255288
 20
1819.712667
 40
1.6
  0
CIRCLE
  8
APS_GEOMETRY
 10
275.703303
 20
1819.712667
 40
1.6
  0
CIRCLE
  8
APS_GEOMETRY
 10
311.72492
 20
1898.130659
 40
1.6
  0
CIRCLE
  8
APS_GEOMETRY
 10
275.703303
 20
1898.130659
 40
1.6
  0
CIRCLE
  8
APS_GEOMETRY
 10
311.72492
 20
1863.294675
 40
1.6
  0
CIRCLE
  8
APS_GEOMETRY
 10
275.703303
 20
1863.294675
 40
1.6
  0
LINE
  8
APS_GEOMETRY
 10
501.558372
 11
501.558372
 20
1890.938712
 21
1876.938712
  0
LINE
  8
APS_GEOMETRY
 10
501.558372
 11
501.558372
 20
1949.938712
 21
1937.938712
  0
LINE
  8
APS_GEOMETRY
 10
501.558372
 11
501.558372
 20
1890.938712
 21
1876.938712
  0
LINE
  8
APS_GEOMETRY
 10
501.558372
 11
501.558372
 20
1829.938712
 21
1817.938712
  0
LINE
  8
APS_GEOMETRY
 10
501.558372
 11
513.245948
 20
1890.938712
 21
1890.938712
  0
ARC
  8
APS_GEOMETRY
 10
513.245948
 20
1895.938712
 40
5.0
 50
270.0
 51
0.0
  0
LINE
  8
APS_GEOMETRY
 10
518.245948
 11
518.245948
 20
1895.938712
 21
1932.938712
  0
ARC
  8
APS_GEOMETRY
 10
513.245948
 20
1932.938712
 40
5.0
 50
0.0
 51
90.0
  0
LINE
  8
APS_GEOMETRY
 10
513.245948
 11
501.558372
 20
1937.938712
 21
1937.938712
  0
ARC
  8
APS_GEOMETRY
 10
513.245948
 20
1834.938712
 40
5.0
 50
270.0
 51
0.0
  0
LINE
  8
APS_GEOMETRY
 10
518.245948
 11
518.245948
 20
1834.938712
 21
1871.938712
  0
ARC
  8
APS_GEOMETRY
 10
513.245948
 20
1871.938712
 40
5.0
 50
0.0
 51
90.0
  0
LINE
  8
APS_GEOMETRY
 10
513.245948
 11
501.558372
 20
1876.938712
 21
1876.938712
  0
LINE
  8
APS_GEOMETRY
 10
528.558372
 11
501.558372
 20
1949.938712
 21
1949.938712
  0
LINE
  8
APS_GEOMETRY
 10
501.558372
 11
528.558372
 20
1817.938712
 21
1817.938712
  0
LINE
  8
APS_GEOMETRY
 10
598.053717
 11
609.741293
 20
1826.880571
 21
1826.880571
  0
LINE
  8
APS_GEOMETRY
 10
598.053717
 11
609.741293
 20
1887.880571
 21
1887.880571
  0
LINE
  8
APS_GEOMETRY
 10
319.658722
 11
319.658722
 20
1892.712667
 21
1887.712667
  0
LINE
  8
APS_GEOMETRY
 10
319.658722
 11
319.658722
 20
1873.712667
 21
1868.712667
  0
LINE
  8
APS_GEOMETRY
 10
319.658722
 11
268.875045
 20
1887.712667
 21
1887.712667
  0
LINE
  8
APS_GEOMETRY
 10
319.658722
 11
268.875045
 20
1873.712667
 21
1873.712667
  0
CIRCLE
  8
APS_GEOMETRY
 10
146.265084
 20
1883.443423
 40
6.5
  0
CIRCLE
  8
APS_GEOMETRY
 10
146.265084
 20
1883.443423
 40
1.6
  0
CIRCLE
  8
APS_GEOMETRY
 10
153.655017
 20
1930.528768
 40
2.5
  0
CIRCLE
  8
APS_GEOMETRY
 10
145.670692
 20
1927.785436
 40
17.897174
  0
CIRCLE
  8
APS_GEOMETRY
 10
198.34597
 20
1923.542069
 40
2.5
  0
CIRCLE
  8
APS_GEOMETRY
 10
190.361645
 20
1926.285401
 40
17.897174
  0
CIRCLE
  8
APS_GEOMETRY
 10
153.330407
 20
1859.004402
 40
2.0
  0
CIRCLE
  8
APS_GEOMETRY
 10
127.25327
 20
1883.443423
 40
6.5
  0
CIRCLE
  8
APS_GEOMETRY
 10
127.25327
 20
1883.443423
 40
1.6
  0
LINE
  8
APS_GEOMETRY
 10
533.558372
 11
533.558372
 20
1825.938712
 21
1833.938712
  0
LINE
  8
APS_GEOMETRY
 10
533.558372
 11
533.558372
 20
1879.938712
 21
1887.938712
  0
LINE
  8
APS_GEOMETRY
 10
533.558372
 11
533.558372
 20
1933.938712
 21
1941.938712
  0
LINE
  8
APS_GEOMETRY
 10
528.558372
 11
528.558372
 20
1817.938712
 21
1825.938712
  0
LINE
  8
APS_GEOMETRY
 10
528.558372
 11
528.558372
 20
1833.938712
 21
1879.938712
  0
LINE
  8
APS_GEOMETRY
 10
528.558372
 11
528.558372
 20
1887.938712
 21
1933.938712
  0
LINE
  8
APS_GEOMETRY
 10
528.558372
 11
528.558372
 20
1941.938712
 21
1949.938712
  0
LINE
  8
APS_GEOMETRY
 10
513.245948
 11
501.558372
 20
1829.938712
 21
1829.938712
  0
LINE
  8
APS_GEOMETRY
 10
533.558372
 11
528.558372
 20
1941.938712
 21
1941.938712
  0
LINE
  8
APS_GEOMETRY
 10
533.558372
 11
528.558372
 20
1933.938712
 21
1933.938712
  0
LINE
  8
APS_GEOMETRY
 10
528.558372
 11
533.558372
 20
1825.938712
 21
1825.938712
  0
LINE
  8
APS_GEOMETRY
 10
528.558372
 11
533.558372
 20
1833.938712
 21
1833.938712
  0
LINE
  8
APS_GEOMETRY
 10
528.558372
 11
533.558372
 20
1887.938712
 21
1887.938712
  0
LINE
  8
APS_GEOMETRY
 10
528.558372
 11
533.558372
 20
1879.938712
 21
1879.938712
  0
LINE
  8
APS_GEOMETRY
 10
619.898275
 11
771.428513
 20
1947.606744
 21
1947.606744
  0
LINE
  8
APS_GEOMETRY
 10
619.898275
 11
771.428513
 20
1815.606744
 21
1815.606744
  0
LINE
  8
APS_GEOMETRY
 10
771.428513
 11
771.428513
 20
1947.606744
 21
1815.606744
  0
LINE
  8
APS_GEOMETRY
 10
619.898275
 11
619.898275
 20
1947.606744
 21
1815.606744
  0
LINE
  8
APS_GEOMETRY
 10
707.524532
 11
712.524532
 20
1939.606744
 21
1939.606744
  0
LINE
  8
APS_GEOMETRY
 10
712.524532
 11
712.524532
 20
1939.606744
 21
1931.606744
  0
LINE
  8
APS_GEOMETRY
 10
712.524532
 11
707.524532
 20
1931.606744
 21
1931.606744
  0
LINE
  8
APS_GEOMETRY
 10
707.524532
 11
707.524532
 20
1931.606744
 21
1939.606744
  0
LINE
  8
APS_GEOMETRY
 10
707.524532
 11
712.524532
 20
1885.606744
 21
1885.606744
  0
LINE
  8
APS_GEOMETRY
 10
712.524532
 11
712.524532
 20
1885.606744
 21
1877.606744
  0
LINE
  8
APS_GEOMETRY
 10
712.524532
 11
707.524532
 20
1877.606744
 21
1877.606744
  0
LINE
  8
APS_GEOMETRY
 10
707.524532
 11
707.524532
 20
1877.606744
 21
1885.606744
  0
LINE
  8
APS_GEOMETRY
 10
707.524532
 11
712.524532
 20
1831.606744
 21
1831.606744
  0
LINE
  8
APS_GEOMETRY
 10
712.524532
 11
712.524532
 20
1831.606744
 21
1823.606744
  0
LINE
  8
APS_GEOMETRY
 10
712.524532
 11
707.524532
 20
1823.606744
 21
1823.606744
  0
LINE
  8
APS_GEOMETRY
 10
707.524532
 11
707.524532
 20
1823.606744
 21
1831.606744
  0
CIRCLE
  8
APS_GEOMETRY
 10
189.124441
 20
1883.443423
 40
6.5
  0
CIRCLE
  8
APS_GEOMETRY
 10
170.112627
 20
1883.443423
 40
6.5
  0
CIRCLE
  8
APS_GEOMETRY
 10
170.112627
 20
1883.443423
 40
2.5
  0
CIRCLE
  8
APS_GEOMETRY
 10
189.124441
 20
1883.443423
 40
2.5
  0
LINE
  8
APS_GEOMETRY
 10
363.346298
 11
363.346298
 20
1814.712667
 21
1826.712667
  0
LINE
  8
APS_GEOMETRY
 10
363.346298
 11
363.346298
 20
1934.712667
 21
1946.712667
  0
LINE
  8
APS_GEOMETRY
 10
149.928152
 11
153.605477
 20
1851.762086
 21
1855.250925
  0
LINE
  8
APS_GEOMETRY
 10
153.605477
 11
151.258733
 20
1855.250925
 21
1850.757874
  0
LINE
  8
APS_GEOMETRY
 10
151.258733
 11
149.928152
 20
1850.757874
 21
1851.762086
  0
LINE
  8
APS_GEOMETRY
 10
153.605477
 11
143.162334
 20
1855.250925
 21
1841.413761
  0
CIRCLE
  8
APS_GEOMETRY
 10
564.488796
 20
1926.856586
 40
2.5
  0
CIRCLE
  8
APS_GEOMETRY
 10
291.093802
 20
1926.688682
 40
2.5
  0
CIRCLE
  8
APS_GEOMETRY
 10
575.582093
 20
1917.981949
 40
2.5
  0
CIRCLE
  8
APS_GEOMETRY
 10
302.187098
 20
1917.814045
 40
2.5
  0
CIRCLE
  8
APS_GEOMETRY
 10
564.488796
 20
1834.904556
 40
2.5
  0
CIRCLE
  8
APS_GEOMETRY
 10
575.582093
 20
1843.779193
 40
2.5
  0
CIRCLE
  8
APS_GEOMETRY
 10
291.093802
 20
1834.736652
 40
2.5
  0
CIRCLE
  8
APS_GEOMETRY
 10
302.187098
 20
1843.611289
 40
2.5
  0
LINE
  8
APS_GEOMETRY
 10
326.301704
 11
364.98928
 20
1848.501728
 21
1848.501728
  0
ARC
  8
APS_GEOMETRY
 10
364.98928
 20
1853.501728
 40
5.0
 50
270.0
 51
0.0
  0
LINE
  8
APS_GEOMETRY
 10
369.98928
 11
369.98928
 20
1853.501728
 21
1890.501728
  0
LINE
  8
APS_GEOMETRY
 10
369.98928
 11
369.98928
 20
1914.501728
 21
1951.501728
  0
ARC
  8
APS_GEOMETRY
 10
364.98928
 20
1951.501728
 40
5.0
 50
0.0
 51
90.0
  0
LINE
  8
APS_GEOMETRY
 10
364.98928
 11
326.301704
 20
1956.501728
 21
1956.501728
  0
LINE
  8
APS_GEOMETRY
 10
326.301704
 11
417.772957
 20
1836.501728
 21
1836.501728
  0
ARC
  8
APS_GEOMETRY
 10
417.772957
 20
1839.501728
 40
3.0
 50
270.0
 51
0.0
  0
LINE
  8
APS_GEOMETRY
 10
420.772957
 11
420.772957
 20
1839.501728
 21
1895.501728
  0
LINE
  8
APS_GEOMETRY
 10
420.772957
 11
420.772957
 20
1909.501728
 21
1965.501728
  0
ARC
  8
APS_GEOMETRY
 10
417.772957
 20
1965.501728
 40
3.0
 50
0.0
 51
90.0
  0
LINE
  8
APS_GEOMETRY
 10
417.772957
 11
326.301704
 20
1968.501728
 21
1968.501728
  0
CIRCLE
  8
APS_GEOMETRY
 10
376.367608
 20
1855.416383
 40
2.5
  0
CIRCLE
  8
APS_GEOMETRY
 10
376.367608
 20
1949.587073
 40
2.5
  0
CIRCLE
  8
APS_GEOMETRY
 10
357.392714
 20
1841.501728
 40
1.6
  0
CIRCLE
  8
APS_GEOMETRY
 10
413.944699
 20
1841.501728
 40
1.6
  0
CIRCLE
  8
APS_GEOMETRY
 10
357.392714
 20
1963.501728
 40
1.6
  0
CIRCLE
  8
APS_GEOMETRY
 10
413.944699
 20
1963.501728
 40
1.6
  0
CIRCLE
  8
APS_GEOMETRY
 10
377.923082
 20
1885.083736
 40
1.6
  0
CIRCLE
  8
APS_GEOMETRY
 10
413.944699
 20
1885.083736
 40
1.6
  0
CIRCLE
  8
APS_GEOMETRY
 10
377.923082
 20
1919.91972
 40
1.6
  0
CIRCLE
  8
APS_GEOMETRY
 10
413.944699
 20
1919.91972
 40
1.6
  0
LINE
  8
APS_GEOMETRY
 10
369.98928
 11
369.98928
 20
1890.501728
 21
1895.501728
  0
LINE
  8
APS_GEOMETRY
 10
369.98928
 11
369.98928
 20
1909.501728
 21
1914.501728
  0
LINE
  8
APS_GEOMETRY
 10
369.98928
 11
420.772957
 20
1895.501728
 21
1895.501728
  0
LINE
  8
APS_GEOMETRY
 10
369.98928
 11
420.772957
 20
1909.501728
 21
1909.501728
  0
LINE
  8
APS_GEOMETRY
 10
326.301704
 11
326.301704
 20
1968.501728
 21
1956.501728
  0
LINE
  8
APS_GEOMETRY
 10
326.301704
 11
326.301704
 20
1848.501728
 21
1836.501728
  0
CIRCLE
  8
APS_GEOMETRY
 10
398.5542
 20
1856.525713
 40
2.5
  0
CIRCLE
  8
APS_GEOMETRY
 10
387.460904
 20
1865.40035
 40
2.5
  0
CIRCLE
  8
APS_GEOMETRY
 10
398.5542
 20
1948.477743
 40
2.5
  0
CIRCLE
  8
APS_GEOMETRY
 10
387.460904
 20
1939.603106
 40
2.5
  0
LINE
  8
APS_GEOMETRY
 10
80.996137
 11
805.836309
 20
2005.066825
 21
2005.066825
  0
LINE
  8
APS_GEOMETRY
 10
805.836309
 11
805.836309
 20
2005.066825
 21
1663.781388
  0
LINE
  8
APS_GEOMETRY
 10
805.836309
 11
80.996137
 20
1663.781388
 21
1663.781388
  0
LINE
  8
APS_GEOMETRY
 10
80.996137
 11
80.996137
 20
1663.781388
 21
2005.066825
  0
LINE
  8
APS_GEOMETRY
 10
242.245678
 11
242.245678
 20
2005.84959
 21
1663.781388
  0
LINE
  8
APS_GEOMETRY
 10
468.464695
 11
468.464695
 20
2005.066825
 21
1663.781388
  0
LINE
  8
APS_GEOMETRY
 10
129.984749
 11
129.984749
 20
1837.776805
 21
1832.83236
  0
LINE
  8
APS_GEOMETRY
 10
128.040304
 11
131.929193
 20
1837.83236
 21
1837.83236
  0
ARC
  8
APS_GEOMETRY
 10
133.685613
 20
1834.623603
 40
1.28635
 50
34.918935
 51
89.788286
  0
ARC
  8
APS_GEOMETRY
 10
133.692575
 20
1834.733296
 40
1.17665
 50
90.107586
 51
153.41119
  0
ARC
  8
APS_GEOMETRY
 10
134.439063
 20
1834.359938
 40
2.0113
 50
153.418148
 51
206.580991
  0
ARC
  8
APS_GEOMETRY
 10
133.692564
 20
1833.986603
 40
1.17665
 50
206.588564
 51
269.892739
  0
ARC
  8
APS_GEOMETRY
 10
133.685617
 20
1834.096296
 40
1.28635
 50
270.2113
 51
325.0807
  0
LINE
  8
APS_GEOMETRY
 10
134.756317
 11
134.756317
 20
1836.035846
 21
1832.885846
  0
ARC
  8
APS_GEOMETRY
 10
136.817383
 20
1834.04965
 40
1.28635
 50
214.9193
 51
269.7887
  0
ARC
  8
APS_GEOMETRY
 10
136.810436
 20
1833.939957
 40
1.17665
 50
270.107261
 51
333.411436
  0
ARC
  8
APS_GEOMETRY
 10
136.063937
 20
1834.313292
 40
2.0113
 50
333.419009
 51
26.581852
  0
ARC
  8
APS_GEOMETRY
 10
136.810425
 20
1834.68665
 40
1.17665
 50
26.58881
 51
89.892414
  0
ARC
  8
APS_GEOMETRY
 10
136.817388
 20
1834.576957
 40
1.28635
 50
90.211714
 51
145.081065
  0
LINE
  8
APS_GEOMETRY
 10
135.762633
 11
135.762633
 20
1835.9133
 21
1831.5633
  0
LINE
  8
APS_GEOMETRY
 10
143.882087
 11
143.882087
 20
1837.298169
 21
1832.798169
  0
LINE
  8
APS_GEOMETRY
 10
143.282087
 11
144.532087
 20
1835.898169
 21
1835.898169
  0
LINE
  8
APS_GEOMETRY
 10
145.549829
 11
145.549829
 20
1832.798169
 21
1837.298169
  0
LINE
  8
APS_GEOMETRY
 10
147.699829
 11
147.699867
 20
1832.798169
 21
1835.098185
  0
ARC
  8
APS_GEOMETRY
 10
146.854329
 20
1835.10263
 40
0.84555
 50
359.698802
 51
90.305782
  0
ARC
  8
APS_GEOMETRY
 10
146.848679
 20
1834.493769
 40
1.4544
 50
89.9552
 51
153.2598
  0
ARC
  8
APS_GEOMETRY
 10
150.634343
 20
1834.640269
 40
1.30795
 50
89.6195
 51
170.8532
  0
LINE
  8
APS_GEOMETRY
 10
149.343043
 11
149.343043
 20
1835.948169
 21
1832.798169
  0
LINE
  8
APS_GEOMETRY
 10
148.699889
 11
149.986196
 20
1832.798169
 21
1832.798169
  0
ARC
  8
APS_GEOMETRY
 10
152.363677
 20
1833.993114
 40
1.17055
 50
206.2329
 51
333.7671
  0
ARC
  8
APS_GEOMETRY
 10
151.614972
 20
1834.375723
 40
2.0113
 50
333.417878
 51
26.581314
  0
ARC
  8
APS_GEOMETRY
 10
152.363681
 20
1834.758324
 40
1.17055
 50
26.231996
 51
153.7676
  0
ARC
  8
APS_GEOMETRY
 10
153.112386
 20
1834.375714
 40
2.0113
 50
153.418164
 51
206.581836
  0
LINE
  8
APS_GEOMETRY
 10
154.052429
 11
154.052391
 20
1835.974291
 21
1833.674274
  0
ARC
  8
APS_GEOMETRY
 10
154.89793
 20
1833.669829
 40
0.84555
 50
179.698802
 51
270.305782
  0
ARC
  8
APS_GEOMETRY
 10
154.903579
 20
1834.278691
 40
1.4544
 50
269.9552
 51
333.2598
  0
LINE
  8
APS_GEOMETRY
 10
156.202429
 11
156.202429
 20
1835.974291
 21
1832.824291
  0
ARC
  8
APS_GEOMETRY
 10
158.156528
 20
1832.681167
 40
1.1235
 50
236.695
 51
298.3259
  0
ARC
  8
APS_GEOMETRY
 10
158.420528
 20
1832.193657
 40
0.5691
 50
298.217876
 51
359.847629
  0
LINE
  8
APS_GEOMETRY
 10
158.989626
 11
158.989628
 20
1832.192144
 21
1835.942167
  0
ARC
  8
APS_GEOMETRY
 10
157.934873
 20
1834.655824
 40
1.28635
 50
34.918935
 51
89.788286
  0
ARC
  8
APS_GEOMETRY
 10
157.941836
 20
1834.765517
 40
1.17665
 50
90.107586
 51
153.41119
  0
ARC
  8
APS_GEOMETRY
 10
158.688324
 20
1834.392159
 40
2.0113
 50
153.418148
 51
206.580991
  0
ARC
  8
APS_GEOMETRY
 10
157.941825
 20
1834.018824
 40
1.17665
 50
206.588564
 51
269.892739
  0
ARC
  8
APS_GEOMETRY
 10
157.934878
 20
1834.128517
 40
1.28635
 50
270.2113
 51
325.0807
  0
LINE
  8
APS_GEOMETRY
 10
159.980884
 11
159.980884
 20
1832.798169
 21
1837.298169
  0
LINE
  8
APS_GEOMETRY
 10
162.130884
 11
162.130922
 20
1832.798169
 21
1835.098185
  0
ARC
  8
APS_GEOMETRY
 10
161.285384
 20
1835.10263
 40
0.84555
 50
359.698802
 51
90.305782
  0
ARC
  8
APS_GEOMETRY
 10
161.279734
 20
1834.493769
 40
1.4544
 50
89.9552
 51
153.2598
  0
LINE
  8
APS_GEOMETRY
 10
167.880944
 11
167.880944
 20
1832.798169
 21
1837.798169
  0
LINE
  8
APS_GEOMETRY
 10
167.880944
 11
168.158722
 20
1837.798169
 21
1837.798169
  0
LINE
  8
APS_GEOMETRY
 10
168.158722
 11
170.103167
 20
1837.798169
 21
1832.798169
  0
LINE
  8
APS_GEOMETRY
 10
170.103167
 11
172.047611
 20
1832.798169
 21
1837.798169
  0
LINE
  8
APS_GEOMETRY
 10
172.047611
 11
172.325389
 20
1837.798169
 21
1837.798169
  0
LINE
  8
APS_GEOMETRY
 10
172.325389
 11
172.325389
 20
1837.798169
 21
1832.798169
  0
ARC
  8
APS_GEOMETRY
 10
175.063443
 20
1834.631948
 40
1.865667
 50
202.7274
 51
247.2726
  0
ARC
  8
APS_GEOMETRY
 10
175.09264
 20
1834.666104
 40
1.9085
 50
246.860287
 51
293.140726
  0
ARC
  8
APS_GEOMETRY
 10
175.133055
 20
1834.589232
 40
1.821945
 50
292.922067
 51
357.893283
  0
ARC
  8
APS_GEOMETRY
 10
175.313496
 20
1834.579726
 40
1.641278
 50
357.993348
 51
71.191207
  0
ARC
  8
APS_GEOMETRY
 10
175.092555
 20
1833.927521
 40
2.329889
 50
71.219129
 51
108.775441
  0
ARC
  8
APS_GEOMETRY
 10
174.945055
 20
1834.327179
 40
1.904056
 50
108.443904
 51
138.941081
  0
LINE
  8
APS_GEOMETRY
 10
173.509331
 11
173.898221
 20
1835.577829
 21
1837.800059
  0
LINE
  8
APS_GEOMETRY
 10
173.898221
 11
176.398221
 20
1837.800059
 21
1837.800059
  0
LINE
  8
APS_GEOMETRY
 10
127.962022
 11
129.677649
 20
1740.492335
 21
1740.492335
  0
LINE
  8
APS_GEOMETRY
 10
129.677649
 11
131.393275
 20
1740.492335
 21
1740.492335
  0
LINE
  8
APS_GEOMETRY
 10
129.677649
 11
129.677649
 20
1740.492335
 21
1750.492335
  0
LINE
  8
APS_GEOMETRY
 10
129.677649
 11
127.962022
 20
1750.492335
 21
1748.776709
  0
ARC
  8
APS_GEOMETRY
 10
137.343026
 20
1743.644364
 40
3.274
 50
218.6887
 51
321.3113
  0
ARC
  8
APS_GEOMETRY
 10
135.168413
 20
1745.431213
 40
6.088445
 50
320.978113
 51
39.020738
  0
ARC
  8
APS_GEOMETRY
 10
137.343084
 20
1747.217992
 40
3.274
 50
38.688157
 51
141.312908
  0
ARC
  8
APS_GEOMETRY
 10
139.517697
 20
1745.431142
 40
6.088445
 50
140.978975
 51
219.021025
  0
LINE
  8
APS_GEOMETRY
 10
147.52088
 11
147.520957
 20
1740.492335
 21
1745.092368
  0
ARC
  8
APS_GEOMETRY
 10
145.82988
 20
1745.101258
 40
1.6911
 50
359.698802
 51
90.305782
  0
ARC
  8
APS_GEOMETRY
 10
145.81858
 20
1743.883535
 40
2.9088
 50
89.9552
 51
153.2598
  0
LINE
  8
APS_GEOMETRY
 10
143.22088
 11
143.22088
 20
1740.492335
 21
1746.792335
  0
LINE
  8
APS_GEOMETRY
 10
151.82088
 11
151.820957
 20
1740.492335
 21
1745.092368
  0
ARC
  8
APS_GEOMETRY
 10
150.12988
 20
1745.101258
 40
1.6911
 50
359.698802
 51
90.305782
  0
ARC
  8
APS_GEOMETRY
 10
150.11858
 20
1743.883535
 40
2.9088
 50
89.9552
 51
153.2598
  0
LINE
  8
APS_GEOMETRY
 10
158.121001
 11
158.121077
 20
1740.492335
 21
1745.092368
  0
ARC
  8
APS_GEOMETRY
 10
156.430001
 20
1745.101258
 40
1.6911
 50
359.698802
 51
90.305782
  0
ARC
  8
APS_GEOMETRY
 10
156.418701
 20
1743.883535
 40
2.9088
 50
89.9552
 51
153.2598
  0
LINE
  8
APS_GEOMETRY
 10
153.821001
 11
153.821001
 20
1740.492335
 21
1746.792335
  0
LINE
  8
APS_GEOMETRY
 10
162.421001
 11
162.421077
 20
1740.492335
 21
1745.092368
  0
ARC
  8
APS_GEOMETRY
 10
160.730001
 20
1745.101258
 40
1.6911
 50
359.698802
 51
90.305782
  0
ARC
  8
APS_GEOMETRY
 10
160.718701
 20
1743.883535
 40
2.9088
 50
89.9552
 51
153.2598
  0
LINE
  8
APS_GEOMETRY
 10
174.143344
 11
180.254455
 20
1743.512517
 21
1743.512517
  0
LINE
  8
APS_GEOMETRY
 10
172.921122
 11
176.810011
 20
1740.492335
 21
1750.492335
  0
LINE
  8
APS_GEOMETRY
 10
176.810011
 11
177.6989
 20
1750.492335
 21
1750.492335
  0
LINE
  8
APS_GEOMETRY
 10
177.6989
 11
181.365567
 20
1750.492335
 21
1740.492335
  0
ARC
  8
APS_GEOMETRY
 10
184.638709
 20
1744.020426
 40
2.5727
 50
34.918935
 51
89.788286
  0
ARC
  8
APS_GEOMETRY
 10
184.652634
 20
1744.239812
 40
2.3533
 50
90.107586
 51
153.41119
  0
ARC
  8
APS_GEOMETRY
 10
186.145611
 20
1743.493096
 40
4.0226
 50
153.418148
 51
206.580991
  0
ARC
  8
APS_GEOMETRY
 10
184.652612
 20
1742.746426
 40
2.3533
 50
206.588564
 51
269.892739
  0
ARC
  8
APS_GEOMETRY
 10
184.638719
 20
1742.965812
 40
2.5727
 50
270.2113
 51
325.0807
  0
ARC
  8
APS_GEOMETRY
 10
191.55969
 20
1744.176535
 40
2.6159
 50
89.6195
 51
170.8532
  0
LINE
  8
APS_GEOMETRY
 10
188.97709
 11
188.97709
 20
1746.792335
 21
1740.492335
  0
LINE
  8
APS_GEOMETRY
 10
187.690783
 11
190.263397
 20
1740.492335
 21
1740.492335
  0
LINE
  8
APS_GEOMETRY
 10
192.809575
 11
195.109575
 20
1746.930004
 21
1740.430004
  0
LINE
  8
APS_GEOMETRY
 10
192.809575
 11
193.609575
 20
1737.930004
 21
1737.930004
  0
LINE
  8
APS_GEOMETRY
 10
193.609575
 11
194.009575
 20
1737.930004
 21
1738.030004
  0
LINE
  8
APS_GEOMETRY
 10
194.009575
 11
194.309575
 20
1738.030004
 21
1738.230004
  0
LINE
  8
APS_GEOMETRY
 10
194.309575
 11
194.509575
 20
1738.230004
 21
1738.530004
  0
LINE
  8
APS_GEOMETRY
 10
194.509575
 11
197.109575
 20
1738.530004
 21
1746.930004
  0
LINE
  8
APS_GEOMETRY
 10
200.454384
 11
200.454384
 20
1740.492335
 21
1749.492335
  0
LINE
  8
APS_GEOMETRY
 10
200.454384
 11
199.719689
 20
1749.492335
 21
1749.492335
  0
LINE
  8
APS_GEOMETRY
 10
198.877062
 11
200.454384
 20
1740.492335
 21
1740.492335
  0
LINE
  8
APS_GEOMETRY
 10
200.454384
 11
202.031706
 20
1740.492335
 21
1740.492335
  0
LINE
  8
APS_GEOMETRY
 10
205.318013
 11
205.318013
 20
1749.592335
 21
1748.792335
  0
LINE
  8
APS_GEOMETRY
 10
205.318013
 11
205.318013
 20
1740.492335
 21
1746.792335
  0
LINE
  8
APS_GEOMETRY
 10
204.031706
 11
206.60432
 20
1740.492335
 21
1740.492335
  0
ARC
  8
APS_GEOMETRY
 10
210.177462
 20
1744.020426
 40
2.5727
 50
34.918935
 51
89.788286
  0
ARC
  8
APS_GEOMETRY
 10
210.191388
 20
1744.239812
 40
2.3533
 50
90.107586
 51
153.41119
  0
ARC
  8
APS_GEOMETRY
 10
211.684364
 20
1743.493096
 40
4.0226
 50
153.418148
 51
206.580991
  0
ARC
  8
APS_GEOMETRY
 10
210.191365
 20
1742.746426
 40
2.3533
 50
206.588564
 51
269.892739
  0
ARC
  8
APS_GEOMETRY
 10
210.177472
 20
1742.965812
 40
2.5727
 50
270.2113
 51
325.0807
  0
LINE
  8
APS_GEOMETRY
 10
327.188818
 11
320.522155
 20
1737.361229
 21
1737.361276
  0
ARC
  8
APS_GEOMETRY
 10
324.046929
 20
1737.365986
 40
3.524778
 50
121.813563
 51
180.07656
  0
LINE
  8
APS_GEOMETRY
 10
322.188818
 11
325.966571
 20
1740.361229
 21
1742.694566
  0
ARC
  8
APS_GEOMETRY
 10
324.736899
 20
1744.805656
 40
2.443111
 50
300.220013
 51
59.779436
  0
ARC
  8
APS_GEOMETRY
 10
324.077617
 20
1743.406499
 40
3.986222
 50
61.713834
 51
118.283685
  0
ARC
  8
APS_GEOMETRY
 10
323.307263
 20
1744.815118
 40
2.380778
 50
118.0207
 51
169.4717
  0
LINE
  8
APS_GEOMETRY
 10
333.488821
 11
333.488898
 20
1737.361276
 21
1741.961309
  0
ARC
  8
APS_GEOMETRY
 10
331.797821
 20
1741.970199
 40
1.6911
 50
359.698802
 51
90.305782
  0
ARC
  8
APS_GEOMETRY
 10
331.786521
 20
1740.752476
 40
2.9088
 50
89.9552
 51
153.2598
  0
LINE
  8
APS_GEOMETRY
 10
329.188821
 11
329.188821
 20
1737.361276
 21
1743.661276
  0
LINE
  8
APS_GEOMETRY
 10
337.788821
 11
337.788898
 20
1737.361276
 21
1741.961309
  0
ARC
  8
APS_GEOMETRY
 10
336.097821
 20
1741.970199
 40
1.6911
 50
359.698802
 51
90.305782
  0
ARC
  8
APS_GEOMETRY
 10
336.086521
 20
1740.752476
 40
2.9088
 50
89.9552
 51
153.2598
  0
LINE
  8
APS_GEOMETRY
 10
344.088942
 11
344.089018
 20
1737.361276
 21
1741.961309
  0
ARC
  8
APS_GEOMETRY
 10
342.397942
 20
1741.970199
 40
1.6911
 50
359.698802
 51
90.305782
  0
ARC
  8
APS_GEOMETRY
 10
342.386642
 20
1740.752476
 40
2.9088
 50
89.9552
 51
153.2598
  0
LINE
  8
APS_GEOMETRY
 10
339.788942
 11
339.788942
 20
1737.361276
 21
1743.661276
  0
LINE
  8
APS_GEOMETRY
 10
348.388942
 11
348.389018
 20
1737.361276
 21
1741.961309
  0
ARC
  8
APS_GEOMETRY
 10
346.697942
 20
1741.970199
 40
1.6911
 50
359.698802
 51
90.305782
  0
ARC
  8
APS_GEOMETRY
 10
346.686642
 20
1740.752476
 40
2.9088
 50
89.9552
 51
153.2598
  0
LINE
  8
APS_GEOMETRY
 10
360.111285
 11
366.222396
 20
1740.381458
 21
1740.381458
  0
LINE
  8
APS_GEOMETRY
 10
358.889063
 11
362.777952
 20
1737.361276
 21
1747.361276
  0
LINE
  8
APS_GEOMETRY
 10
362.777952
 11
363.666841
 20
1747.361276
 21
1747.361276
  0
LINE
  8
APS_GEOMETRY
 10
363.666841
 11
367.333508
 20
1747.361276
 21
1737.361276
  0
ARC
  8
APS_GEOMETRY
 10
370.60665
 20
1740.889367
 40
2.5727
 50
34.918935
 51
89.788286
  0
ARC
  8
APS_GEOMETRY
 10
370.620575
 20
1741.108753
 40
2.3533
 50
90.107586
 51
153.41119
  0
ARC
  8
APS_GEOMETRY
 10
372.113552
 20
1740.362037
 40
4.0226
 50
153.418148
 51
206.580991
  0
ARC
  8
APS_GEOMETRY
 10
370.620553
 20
1739.615367
 40
2.3533
 50
206.588564
 51
269.892739
  0
ARC
  8
APS_GEOMETRY
 10
370.60666
 20
1739.834753
 40
2.5727
 50
270.2113
 51
325.0807
  0
ARC
  8
APS_GEOMETRY
 10
377.527631
 20
1741.045476
 40
2.6159
 50
89.6195
 51
170.8532
  0
LINE
  8
APS_GEOMETRY
 10
374.945031
 11
374.945031
 20
1743.661276
 21
1737.361276
  0
LINE
  8
APS_GEOMETRY
 10
373.658724
 11
376.231338
 20
1737.361276
 21
1737.361276
  0
LINE
  8
APS_GEOMETRY
 10
378.777516
 11
381.077516
 20
1743.798945
 21
1737.298945
  0
LINE
  8
APS_GEOMETRY
 10
378.777516
 11
379.577516
 20
1734.798945
 21
1734.798945
  0
LINE
  8
APS_GEOMETRY
 10
379.577516
 11
379.977516
 20
1734.798945
 21
1734.898945
  0
LINE
  8
APS_GEOMETRY
 10
379.977516
 11
380.277516
 20
1734.898945
 21
1735.098945
  0
LINE
  8
APS_GEOMETRY
 10
380.277516
 11
380.477516
 20
1735.098945
 21
1735.398945
  0
LINE
  8
APS_GEOMETRY
 10
380.477516
 11
383.077516
 20
1735.398945
 21
1743.798945
  0
LINE
  8
APS_GEOMETRY
 10
386.422325
 11
386.422325
 20
1737.361276
 21
1746.361276
  0
LINE
  8
APS_GEOMETRY
 10
386.422325
 11
385.68763
 20
1746.361276
 21
1746.361276
  0
LINE
  8
APS_GEOMETRY
 10
384.845003
 11
386.422325
 20
1737.361276
 21
1737.361276
  0
LINE
  8
APS_GEOMETRY
 10
386.422325
 11
387.999647
 20
1737.361276
 21
1737.361276
  0
LINE
  8
APS_GEOMETRY
 10
391.285954
 11
391.285954
 20
1746.461276
 21
1745.661276
  0
LINE
  8
APS_GEOMETRY
 10
391.285954
 11
391.285954
 20
1737.361276
 21
1743.661276
  0
LINE
  8
APS_GEOMETRY
 10
389.999647
 11
392.572261
 20
1737.361276
 21
1737.361276
  0
ARC
  8
APS_GEOMETRY
 10
396.145404
 20
1740.889367
 40
2.5727
 50
34.918935
 51
89.788286
  0
ARC
  8
APS_GEOMETRY
 10
396.159329
 20
1741.108753
 40
2.3533
 50
90.107586
 51
153.41119
  0
ARC
  8
APS_GEOMETRY
 10
397.652305
 20
1740.362037
 40
4.0226
 50
153.418148
 51
206.580991
  0
ARC
  8
APS_GEOMETRY
 10
396.159306
 20
1739.615367
 40
2.3533
 50
206.588564
 51
269.892739
  0
ARC
  8
APS_GEOMETRY
 10
396.145413
 20
1739.834753
 40
2.5727
 50
270.2113
 51
325.0807
  0
ARC
  8
APS_GEOMETRY
 10
591.703813
 20
1738.680539
 40
3.731334
 50
202.7274
 51
247.2726
  0
ARC
  8
APS_GEOMETRY
 10
591.762207
 20
1738.748851
 40
3.817
 50
246.860287
 51
293.140726
  0
ARC
  8
APS_GEOMETRY
 10
591.843036
 20
1738.595108
 40
3.643889
 50
292.922067
 51
357.893283
  0
ARC
  8
APS_GEOMETRY
 10
592.203919
 20
1738.576096
 40
3.282556
 50
357.993348
 51
71.191207
  0
ARC
  8
APS_GEOMETRY
 10
591.762037
 20
1737.271686
 40
4.659778
 50
71.219129
 51
108.775441
  0
ARC
  8
APS_GEOMETRY
 10
591.467037
 20
1738.071002
 40
3.808111
 50
108.443904
 51
138.941081
  0
LINE
  8
APS_GEOMETRY
 10
588.595589
 11
589.373368
 20
1740.572302
 21
1745.016762
  0
LINE
  8
APS_GEOMETRY
 10
589.373368
 11
594.373369
 20
1745.016762
 21
1745.016762
  0
LINE
  8
APS_GEOMETRY
 10
601.751974
 11
601.75205
 20
1735.012981
 21
1739.613015
  0
ARC
  8
APS_GEOMETRY
 10
600.060974
 20
1739.621904
 40
1.6911
 50
359.698802
 51
90.305782
  0
ARC
  8
APS_GEOMETRY
 10
600.049674
 20
1738.404181
 40
2.9088
 50
89.9552
 51
153.2598
  0
LINE
  8
APS_GEOMETRY
 10
597.451974
 11
597.451974
 20
1735.012981
 21
1741.312981
  0
LINE
  8
APS_GEOMETRY
 10
606.051974
 11
606.05205
 20
1735.012981
 21
1739.613015
  0
ARC
  8
APS_GEOMETRY
 10
604.360974
 20
1739.621904
 40
1.6911
 50
359.698802
 51
90.305782
  0
ARC
  8
APS_GEOMETRY
 10
604.349674
 20
1738.404181
 40
2.9088
 50
89.9552
 51
153.2598
  0
LINE
  8
APS_GEOMETRY
 10
612.352095
 11
612.352171
 20
1735.012981
 21
1739.613015
  0
ARC
  8
APS_GEOMETRY
 10
610.661094
 20
1739.621904
 40
1.6911
 50
359.698802
 51
90.305782
  0
ARC
  8
APS_GEOMETRY
 10
610.649795
 20
1738.404181
 40
2.9088
 50
89.9552
 51
153.2598
  0
LINE
  8
APS_GEOMETRY
 10
608.052095
 11
608.052095
 20
1735.012981
 21
1741.312981
  0
LINE
  8
APS_GEOMETRY
 10
616.652095
 11
616.652171
 20
1735.012981
 21
1739.613015
  0
ARC
  8
APS_GEOMETRY
 10
614.961094
 20
1739.621904
 40
1.6911
 50
359.698802
 51
90.305782
  0
ARC
  8
APS_GEOMETRY
 10
614.949795
 20
1738.404181
 40
2.9088
 50
89.9552
 51
153.2598
  0
LINE
  8
APS_GEOMETRY
 10
628.374438
 11
634.485549
 20
1738.033164
 21
1738.033164
  0
LINE
  8
APS_GEOMETRY
 10
627.152215
 11
631.041104
 20
1735.012981
 21
1745.012982
  0
LINE
  8
APS_GEOMETRY
 10
631.041104
 11
631.929993
 20
1745.012982
 21
1745.012982
  0
LINE
  8
APS_GEOMETRY
 10
631.929993
 11
635.59666
 20
1745.012982
 21
1735.012981
  0
ARC
  8
APS_GEOMETRY
 10
638.869803
 20
1738.541072
 40
2.5727
 50
34.918935
 51
89.788286
  0
ARC
  8
APS_GEOMETRY
 10
638.883728
 20
1738.760459
 40
2.3533
 50
90.107586
 51
153.41119
  0
ARC
  8
APS_GEOMETRY
 10
640.376704
 20
1738.013743
 40
4.0226
 50
153.418148
 51
206.580991
  0
ARC
  8
APS_GEOMETRY
 10
638.883705
 20
1737.267072
 40
2.3533
 50
206.588564
 51
269.892739
  0
ARC
  8
APS_GEOMETRY
 10
638.869812
 20
1737.486459
 40
2.5727
 50
270.2113
 51
325.0807
  0
ARC
  8
APS_GEOMETRY
 10
645.790784
 20
1738.697181
 40
2.6159
 50
89.6195
 51
170.8532
  0
LINE
  8
APS_GEOMETRY
 10
643.208184
 11
643.208184
 20
1741.312981
 21
1735.012981
  0
LINE
  8
APS_GEOMETRY
 10
641.921877
 11
644.494491
 20
1735.012981
 21
1735.012981
  0
LINE
  8
APS_GEOMETRY
 10
647.040669
 11
649.340669
 20
1741.450651
 21
1734.950651
  0
LINE
  8
APS_GEOMETRY
 10
647.040669
 11
647.840669
 20
1732.450651
 21
1732.450651
  0
LINE
  8
APS_GEOMETRY
 10
647.840669
 11
648.240669
 20
1732.450651
 21
1732.550651
  0
LINE
  8
APS_GEOMETRY
 10
648.240669
 11
648.540669
 20
1732.550651
 21
1732.750651
  0
LINE
  8
APS_GEOMETRY
 10
648.540669
 11
648.740669
 20
1732.750651
 21
1733.050651
  0
LINE
  8
APS_GEOMETRY
 10
648.740669
 11
651.340669
 20
1733.050651
 21
1741.450651
  0
LINE
  8
APS_GEOMETRY
 10
654.685478
 11
654.685478
 20
1735.012981
 21
1744.012981
  0
LINE
  8
APS_GEOMETRY
 10
654.685478
 11
653.950783
 20
1744.012981
 21
1744.012981
  0
LINE
  8
APS_GEOMETRY
 10
653.108156
 11
654.685478
 20
1735.012981
 21
1735.012981
  0
LINE
  8
APS_GEOMETRY
 10
654.685478
 11
656.2628
 20
1735.012981
 21
1735.012981
  0
LINE
  8
APS_GEOMETRY
 10
659.549107
 11
659.549107
 20
1744.112981
 21
1743.312981
  0
LINE
  8
APS_GEOMETRY
 10
659.549107
 11
659.549107
 20
1735.012981
 21
1741.312981
  0
LINE
  8
APS_GEOMETRY
 10
658.2628
 11
660.835414
 20
1735.012981
 21
1735.012981
  0
ARC
  8
APS_GEOMETRY
 10
664.408556
 20
1738.541072
 40
2.5727
 50
34.918935
 51
89.788286
  0
ARC
  8
APS_GEOMETRY
 10
664.422481
 20
1738.760459
 40
2.3533
 50
90.107586
 51
153.41119
  0
ARC
  8
APS_GEOMETRY
 10
665.915458
 20
1738.013743
 40
4.0226
 50
153.418148
 51
206.580991
  0
ARC
  8
APS_GEOMETRY
 10
664.422459
 20
1737.267072
 40
2.3533
 50
206.588564
 51
269.892739
  0
ARC
  8
APS_GEOMETRY
 10
664.408566
 20
1737.486459
 40
2.5727
 50
270.2113
 51
325.0807
  0
LINE
  8
APS_GEOMETRY
 10
324.397212
 11
328.286101
 20
2058.455482
 21
2052.899926
  0
LINE
  8
APS_GEOMETRY
 10
328.286101
 11
328.286101
 20
2052.899926
 21
2048.455481
  0
LINE
  8
APS_GEOMETRY
 10
328.286101
 11
332.17499
 20
2052.899926
 21
2058.455482
  0
ARC
  8
APS_GEOMETRY
 10
335.469708
 20
2050.881445
 40
2.3411
 50
206.2329
 51
333.7671
  0
ARC
  8
APS_GEOMETRY
 10
333.972299
 20
2051.646663
 40
4.0226
 50
333.417878
 51
26.581314
  0
ARC
  8
APS_GEOMETRY
 10
335.469717
 20
2052.411863
 40
2.3411
 50
26.231996
 51
153.7676
  0
ARC
  8
APS_GEOMETRY
 10
336.967126
 20
2051.646645
 40
4.0226
 50
153.418164
 51
206.581836
  0
LINE
  8
APS_GEOMETRY
 10
338.847214
 11
338.847138
 20
2054.843798
 21
2050.243764
  0
ARC
  8
APS_GEOMETRY
 10
340.538214
 20
2050.234875
 40
1.6911
 50
179.698802
 51
270.305782
  0
ARC
  8
APS_GEOMETRY
 10
340.549514
 20
2051.452598
 40
2.9088
 50
269.9552
 51
333.2598
  0
LINE
  8
APS_GEOMETRY
 10
343.147214
 11
343.147214
 20
2054.843798
 21
2048.543798
  0
LINE
  8
APS_GEOMETRY
 10
357.508848
 11
357.508848
 20
2058.448825
 21
2048.559936
  0
LINE
  8
APS_GEOMETRY
 10
353.619959
 11
361.397737
 20
2058.559937
 21
2058.559937
  0
LINE
  8
APS_GEOMETRY
 10
362.425113
 11
362.425036
 20
2054.843798
 21
2050.243764
  0
ARC
  8
APS_GEOMETRY
 10
364.116113
 20
2050.234875
 40
1.6911
 50
179.698802
 51
270.305782
  0
ARC
  8
APS_GEOMETRY
 10
364.127413
 20
2051.452598
 40
2.9088
 50
269.9552
 51
333.2598
  0
LINE
  8
APS_GEOMETRY
 10
366.725113
 11
366.725113
 20
2054.843798
 21
2048.543798
  0
LINE
  8
APS_GEOMETRY
 10
368.656805
 11
368.656805
 20
2048.491553
 21
2057.491553
  0
ARC
  8
APS_GEOMETRY
 10
370.766305
 20
2050.964253
 40
2.5727
 50
214.9193
 51
269.7887
  0
ARC
  8
APS_GEOMETRY
 10
370.752412
 20
2050.744867
 40
2.3533
 50
270.107261
 51
333.411436
  0
ARC
  8
APS_GEOMETRY
 10
369.259413
 20
2051.491538
 40
4.0226
 50
333.419009
 51
26.581852
  0
ARC
  8
APS_GEOMETRY
 10
370.752389
 20
2052.238253
 40
2.3533
 50
26.58881
 51
89.892414
  0
ARC
  8
APS_GEOMETRY
 10
370.766314
 20
2052.018867
 40
2.5727
 50
90.211714
 51
145.081065
  0
LINE
  8
APS_GEOMETRY
 10
374.30909
 11
379.109102
 20
2052.146676
 21
2052.14666
  0
ARC
  8
APS_GEOMETRY
 10
376.143589
 20
2052.255248
 40
2.9675
 50
357.902951
 51
30.171303
  0
ARC
  8
APS_GEOMETRY
 10
376.805491
 20
2052.649575
 40
2.1971
 50
29.956335
 51
89.906216
  0
ARC
  8
APS_GEOMETRY
 10
376.813506
 20
2052.493376
 40
2.3533
 50
90.107586
 51
153.41119
  0
ARC
  8
APS_GEOMETRY
 10
378.306482
 20
2051.746661
 40
4.0226
 50
153.418148
 51
206.580991
  0
ARC
  8
APS_GEOMETRY
 10
376.813483
 20
2050.99999
 40
2.3533
 50
206.588564
 51
269.892739
  0
ARC
  8
APS_GEOMETRY
 10
376.79959
 20
2051.219376
 40
2.5727
 50
270.2113
 51
325.0807
  0
LINE
  8
APS_GEOMETRY
 10
391.18655
 11
391.18655
 20
2048.491553
 21
2057.491553
  0
LINE
  8
APS_GEOMETRY
 10
391.18655
 11
390.451856
 20
2057.491553
 21
2057.491553
  0
LINE
  8
APS_GEOMETRY
 10
389.609228
 11
391.18655
 20
2048.491553
 21
2048.491553
  0
LINE
  8
APS_GEOMETRY
 10
391.18655
 11
392.763872
 20
2048.491553
 21
2048.491553
  0
LINE
  8
APS_GEOMETRY
 10
396.050179
 11
396.050179
 20
2057.591553
 21
2056.791553
  0
LINE
  8
APS_GEOMETRY
 10
396.050179
 11
396.050179
 20
2048.491553
 21
2054.791553
  0
LINE
  8
APS_GEOMETRY
 10
394.763872
 11
397.336486
 20
2048.491553
 21
2048.491553
  0
LINE
  8
APS_GEOMETRY
 10
403.636486
 11
403.636562
 20
2048.491553
 21
2053.091587
  0
ARC
  8
APS_GEOMETRY
 10
401.945486
 20
2053.100477
 40
1.6911
 50
359.698802
 51
90.305782
  0
ARC
  8
APS_GEOMETRY
 10
401.934186
 20
2051.882753
 40
2.9088
 50
89.9552
 51
153.2598
  0
LINE
  8
APS_GEOMETRY
 10
399.336486
 11
399.336486
 20
2048.491553
 21
2054.791553
  0
LINE
  8
APS_GEOMETRY
 10
409.936607
 11
407.736607
 20
2048.491553
 21
2052.891553
  0
LINE
  8
APS_GEOMETRY
 10
405.636607
 11
409.636607
 20
2050.991553
 21
2054.791553
  0
LINE
  8
APS_GEOMETRY
 10
405.636607
 11
405.636607
 20
2057.491553
 21
2048.491553
  0
LINE
  8
APS_GEOMETRY
 10
324.250634
 11
324.250634
 20
2033.491553
 21
2042.491553
  0
LINE
  8
APS_GEOMETRY
 10
328.550634
 11
328.55071
 20
2033.491553
 21
2038.091587
  0
ARC
  8
APS_GEOMETRY
 10
326.859634
 20
2038.100477
 40
1.6911
 50
359.698802
 51
90.305782
  0
ARC
  8
APS_GEOMETRY
 10
326.848334
 20
2036.882753
 40
2.9088
 50
89.9552
 51
153.2598
  0
LINE
  8
APS_GEOMETRY
 10
331.715272
 11
331.715272
 20
2042.491553
 21
2033.491553
  0
LINE
  8
APS_GEOMETRY
 10
330.515272
 11
333.015272
 20
2039.691553
 21
2039.691553
  0
LINE
  8
APS_GEOMETRY
 10
336.215272
 11
336.215272
 20
2042.491553
 21
2033.491553
  0
LINE
  8
APS_GEOMETRY
 10
335.015272
 11
337.515272
 20
2039.691553
 21
2039.691553
  0
ARC
  8
APS_GEOMETRY
 10
341.711079
 20
2035.994516
 40
2.5727
 50
214.9193
 51
269.7887
  0
ARC
  8
APS_GEOMETRY
 10
341.697186
 20
2035.775129
 40
2.3533
 50
270.107261
 51
333.411436
  0
ARC
  8
APS_GEOMETRY
 10
340.204187
 20
2036.5218
 40
4.0226
 50
333.419009
 51
26.581852
  0
ARC
  8
APS_GEOMETRY
 10
341.697164
 20
2037.268516
 40
2.3533
 50
26.58881
 51
89.892414
  0
ARC
  8
APS_GEOMETRY
 10
341.711089
 20
2037.049129
 40
2.5727
 50
90.211714
 51
145.081065
  0
LINE
  8
APS_GEOMETRY
 10
339.601579
 11
339.601579
 20
2039.721816
 21
2031.021816
  0
ARC
  8
APS_GEOMETRY
 10
347.069974
 20
2037.220518
 40
2.4404
 50
42.8264
 51
122.4689
  0
ARC
  8
APS_GEOMETRY
 10
346.444777
 20
2038.199286
 40
1.279
 50
122.378183
 51
252.485679
  0
LINE
  8
APS_GEOMETRY
 10
346.059869
 11
348.059874
 20
2036.979578
 21
2036.379518
  0
ARC
  8
APS_GEOMETRY
 10
347.661917
 20
2035.063784
 40
1.3746
 50
300.512868
 51
73.171518
  0
ARC
  8
APS_GEOMETRY
 10
347.059771
 20
2036.133478
 40
2.602
 50
240.027532
 51
299.976472
  0
ARC
  8
APS_GEOMETRY
 10
346.427039
 20
2035.046505
 40
1.3443
 50
209.746055
 51
240.244046
  0
LINE
  8
APS_GEOMETRY
 10
351.546712
 11
351.046712
 20
2038.285185
 21
2038.285185
  0
LINE
  8
APS_GEOMETRY
 10
351.046712
 11
351.046712
 20
2038.285185
 21
2038.785185
  0
LINE
  8
APS_GEOMETRY
 10
351.046712
 11
351.546712
 20
2038.785185
 21
2038.785185
  0
LINE
  8
APS_GEOMETRY
 10
351.546712
 11
351.546712
 20
2038.785185
 21
2038.285185
  0
LINE
  8
APS_GEOMETRY
 10
351.546712
 11
351.046712
 20
2035.80421
 21
2035.80421
  0
LINE
  8
APS_GEOMETRY
 10
351.046712
 11
351.046712
 20
2035.80421
 21
2036.30421
  0
LINE
  8
APS_GEOMETRY
 10
351.046712
 11
351.546712
 20
2036.30421
 21
2036.30421
  0
LINE
  8
APS_GEOMETRY
 10
351.546712
 11
351.546712
 20
2036.30421
 21
2035.80421
  0
LINE
  8
APS_GEOMETRY
 10
353.709945
 11
359.709945
 20
2033.407425
 21
2042.407425
  0
LINE
  8
APS_GEOMETRY
 10
361.709945
 11
367.709945
 20
2033.407425
 21
2042.407425
  0
LINE
  8
APS_GEOMETRY
 10
369.779224
 11
372.079224
 20
2039.929223
 21
2033.429223
  0
LINE
  8
APS_GEOMETRY
 10
369.779224
 11
370.579224
 20
2030.929223
 21
2030.929223
  0
LINE
  8
APS_GEOMETRY
 10
370.579224
 11
370.979224
 20
2030.929223
 21
2031.029223
  0
LINE
  8
APS_GEOMETRY
 10
370.979224
 11
371.279224
 20
2031.029223
 21
2031.229223
  0
LINE
  8
APS_GEOMETRY
 10
371.279224
 11
371.479224
 20
2031.229223
 21
2031.529223
  0
LINE
  8
APS_GEOMETRY
 10
371.479224
 11
374.079224
 20
2031.529223
 21
2039.929223
  0
ARC
  8
APS_GEOMETRY
 10
377.588007
 20
2035.881445
 40
2.3411
 50
206.2329
 51
333.7671
  0
ARC
  8
APS_GEOMETRY
 10
376.090598
 20
2036.646663
 40
4.0226
 50
333.417878
 51
26.581314
  0
ARC
  8
APS_GEOMETRY
 10
377.588016
 20
2037.411863
 40
2.3411
 50
26.231996
 51
153.7676
  0
ARC
  8
APS_GEOMETRY
 10
379.085425
 20
2036.646645
 40
4.0226
 50
153.418164
 51
206.581836
  0
LINE
  8
APS_GEOMETRY
 10
380.965513
 11
380.965437
 20
2039.843798
 21
2035.243764
  0
ARC
  8
APS_GEOMETRY
 10
382.656514
 20
2035.234875
 40
1.6911
 50
179.698802
 51
270.305782
  0
ARC
  8
APS_GEOMETRY
 10
382.667813
 20
2036.452598
 40
2.9088
 50
269.9552
 51
333.2598
  0
LINE
  8
APS_GEOMETRY
 10
385.265513
 11
385.265513
 20
2039.843798
 21
2033.543798
  0
LINE
  8
APS_GEOMETRY
 10
388.361722
 11
388.361722
 20
2042.491553
 21
2033.491553
  0
LINE
  8
APS_GEOMETRY
 10
387.161722
 11
389.661722
 20
2039.691553
 21
2039.691553
  0
LINE
  8
APS_GEOMETRY
 10
391.765634
 11
391.765558
 20
2039.843798
 21
2035.243764
  0
ARC
  8
APS_GEOMETRY
 10
393.456634
 20
2035.234875
 40
1.6911
 50
179.698802
 51
270.305782
  0
ARC
  8
APS_GEOMETRY
 10
393.467934
 20
2036.452598
 40
2.9088
 50
269.9552
 51
333.2598
  0
LINE
  8
APS_GEOMETRY
 10
396.065634
 11
396.065634
 20
2039.843798
 21
2033.543798
  0
CIRCLE
  8
APS_GEOMETRY
 10
398.980259
 20
2034.495344
 40
1.0
  0
LINE
  8
APS_GEOMETRY
 10
401.997326
 11
401.997326
 20
2033.491553
 21
2042.491553
  0
ARC
  8
APS_GEOMETRY
 10
404.106826
 20
2035.964253
 40
2.5727
 50
214.9193
 51
269.7887
  0
ARC
  8
APS_GEOMETRY
 10
404.092933
 20
2035.744867
 40
2.3533
 50
270.107261
 51
333.411436
  0
ARC
  8
APS_GEOMETRY
 10
402.599934
 20
2036.491538
 40
4.0226
 50
333.419009
 51
26.581852
  0
ARC
  8
APS_GEOMETRY
 10
404.09291
 20
2037.238253
 40
2.3533
 50
26.58881
 51
89.892414
  0
ARC
  8
APS_GEOMETRY
 10
404.106835
 20
2037.018867
 40
2.5727
 50
90.211714
 51
145.081065
  0
LINE
  8
APS_GEOMETRY
 10
407.649611
 11
412.449623
 20
2037.146676
 21
2037.14666
  0
ARC
  8
APS_GEOMETRY
 10
409.48411
 20
2037.255248
 40
2.9675
 50
357.902951
 51
30.171303
  0
ARC
  8
APS_GEOMETRY
 10
410.146012
 20
2037.649575
 40
2.1971
 50
29.956335
 51
89.906216
  0
ARC
  8
APS_GEOMETRY
 10
410.154027
 20
2037.493376
 40
2.3533
 50
90.107586
 51
153.41119
  0
ARC
  8
APS_GEOMETRY
 10
411.647003
 20
2036.746661
 40
4.0226
 50
153.418148
 51
206.580991
  0
ARC
  8
APS_GEOMETRY
 10
410.154005
 20
2035.99999
 40
2.3533
 50
206.588564
 51
269.892739
  0
ARC
  8
APS_GEOMETRY
 10
410.140111
 20
2036.219376
 40
2.5727
 50
270.2113
 51
325.0807
  0
LINE
  8
APS_GEOMETRY
 10
413.612983
 11
419.612983
 20
2033.407425
 21
2042.407425
  0
LINE
  8
APS_GEOMETRY
 10
421.44975
 11
421.44975
 20
2033.491553
 21
2042.491553
  0
ARC
  8
APS_GEOMETRY
 10
423.55925
 20
2035.964253
 40
2.5727
 50
214.9193
 51
269.7887
  0
ARC
  8
APS_GEOMETRY
 10
423.545356
 20
2035.744867
 40
2.3533
 50
270.107261
 51
333.411436
  0
ARC
  8
APS_GEOMETRY
 10
422.052358
 20
2036.491538
 40
4.0226
 50
333.419009
 51
26.581852
  0
ARC
  8
APS_GEOMETRY
 10
423.545334
 20
2037.238253
 40
2.3533
 50
26.58881
 51
89.892414
  0
ARC
  8
APS_GEOMETRY
 10
423.559259
 20
2037.018867
 40
2.5727
 50
90.211714
 51
145.081065
  0
LINE
  8
APS_GEOMETRY
 10
428.143395
 11
428.143319
 20
2039.843798
 21
2035.243764
  0
ARC
  8
APS_GEOMETRY
 10
429.834395
 20
2035.234875
 40
1.6911
 50
179.698802
 51
270.305782
  0
ARC
  8
APS_GEOMETRY
 10
429.845695
 20
2036.452598
 40
2.9088
 50
269.9552
 51
333.2598
  0
LINE
  8
APS_GEOMETRY
 10
432.443395
 11
432.443395
 20
2039.843798
 21
2033.543798
  0
LINE
  8
APS_GEOMETRY
 10
434.650447
 11
441.872669
 20
2043.496806
 21
2043.496806
  0
LINE
  8
APS_GEOMETRY
 10
441.872669
 11
441.872605
 20
2043.496806
 21
2042.941279
  0
ARC
  8
APS_GEOMETRY
 10
448.691448
 20
2033.83125
 40
11.379334
 50
126.8148
 51
181.6842
  0
LINE
  8
APS_GEOMETRY
 10
444.09731
 11
448.09731
 20
2039.791553
 21
2033.491553
  0
LINE
  8
APS_GEOMETRY
 10
443.59731
 11
447.59731
 20
2033.491553
 21
2039.791553
  0
LINE
  8
APS_GEOMETRY
 10
451.261826
 11
451.261826
 20
2042.491553
 21
2033.491553
  0
LINE
  8
APS_GEOMETRY
 10
450.061826
 11
452.561826
 20
2039.691553
 21
2039.691553
  0
LINE
  8
APS_GEOMETRY
 10
461.819532
 11
457.375087
 20
2033.491553
 21
2039.602665
  0
LINE
  8
APS_GEOMETRY
 10
454.708421
 11
461.819532
 20
2037.491554
 21
2043.491554
  0
LINE
  8
APS_GEOMETRY
 10
454.59731
 11
454.59731
 20
2043.491554
 21
2033.491553
  0
LINE
  8
APS_GEOMETRY
 10
467.447501
 11
467.447501
 20
2033.492331
 21
2042.492331
  0
ARC
  8
APS_GEOMETRY
 10
465.337991
 20
2037.019644
 40
2.5727
 50
34.918935
 51
89.788286
  0
ARC
  8
APS_GEOMETRY
 10
465.351916
 20
2037.239031
 40
2.3533
 50
90.107586
 51
153.41119
  0
ARC
  8
APS_GEOMETRY
 10
466.844893
 20
2036.492315
 40
4.0226
 50
153.418148
 51
206.580991
  0
ARC
  8
APS_GEOMETRY
 10
465.351894
 20
2035.745644
 40
2.3533
 50
206.588564
 51
269.892739
  0
ARC
  8
APS_GEOMETRY
 10
465.338001
 20
2035.965031
 40
2.5727
 50
270.2113
 51
325.0807
  0
LINE
  8
APS_GEOMETRY
 10
469.666971
 11
477.222527
 20
2043.491554
 21
2033.491553
  0
LINE
  8
APS_GEOMETRY
 10
469.444749
 11
477.000305
 20
2033.491553
 21
2043.491554
  0
LINE
  8
APS_GEOMETRY
 10
479.206791
 11
479.206791
 20
2043.396631
 21
2036.729965
  0
ARC
  8
APS_GEOMETRY
 10
482.540125
 20
2036.729965
 40
3.333333
 50
180.0
 51
0.0
  0
LINE
  8
APS_GEOMETRY
 10
485.873458
 11
485.873458
 20
2036.729965
 21
2043.396631
  0
ARC
  8
APS_GEOMETRY
 10
491.06693
 20
2036.641534
 40
3.274
 50
218.687092
 51
321.311843
  0
ARC
  8
APS_GEOMETRY
 10
488.892259
 20
2038.428313
 40
6.088445
 50
320.979262
 51
39.021887
  0
ARC
  8
APS_GEOMETRY
 10
491.066855
 20
2040.215183
 40
3.274
 50
38.688216
 51
141.311676
  0
ARC
  8
APS_GEOMETRY
 10
490.567858
 20
2040.595033
 40
2.647111
 50
140.977916
 51
219.022283
  0
ARC
  8
APS_GEOMETRY
 10
491.23357
 20
2041.108346
 40
3.487556
 50
218.687897
 51
321.311964
  0
ARC
  8
APS_GEOMETRY
 10
491.468317
 20
2040.952495
 40
3.207
 50
320.8638
 51
349.5859
  0
ARC
  8
APS_GEOMETRY
 10
500.898902
 20
2036.643583
 40
3.274
 50
218.6887
 51
321.3113
  0
ARC
  8
APS_GEOMETRY
 10
498.724288
 20
2038.430432
 40
6.088445
 50
320.978113
 51
39.020738
  0
ARC
  8
APS_GEOMETRY
 10
500.898959
 20
2040.217211
 40
3.274
 50
38.688157
 51
141.312908
  0
ARC
  8
APS_GEOMETRY
 10
503.073573
 20
2038.430361
 40
6.088445
 50
140.978975
 51
219.021025
  0
ENDSEC
  0
EOF
