  0
SECTION
  2
ENTITIES
  0
LINE
  8
APS_GEOMETRY
 10
-188.081432
 11
-188.081432
 20
50.773787
 21
30.273787
  0
LINE
  8
APS_GEOMETRY
 10
-188.081432
 11
-68.081432
 20
30.273787
 21
30.273787
  0
LINE
  8
APS_GEOMETRY
 10
-68.081432
 11
-68.081432
 20
30.273787
 21
31.773787
  0
LINE
  8
APS_GEOMETRY
 10
-68.081432
 11
-74.081432
 20
31.773787
 21
31.773787
  0
LINE
  8
APS_GEOMETRY
 10
-74.081432
 11
-74.081432
 20
31.773787
 21
32.773787
  0
LINE
  8
APS_GEOMETRY
 10
-74.081432
 11
-80.081432
 20
32.773787
 21
32.773787
  0
LINE
  8
APS_GEOMETRY
 10
-80.081432
 11
-80.081432
 20
32.773787
 21
33.773787
  0
LINE
  8
APS_GEOMETRY
 10
-80.081432
 11
-86.081432
 20
33.773787
 21
33.773787
  0
LINE
  8
APS_GEOMETRY
 10
-86.081432
 11
-86.081432
 20
33.773787
 21
34.773787
  0
LINE
  8
APS_GEOMETRY
 10
-86.081432
 11
-92.081432
 20
34.773787
 21
34.773787
  0
LINE
  8
APS_GEOMETRY
 10
-92.081432
 11
-92.081432
 20
34.773787
 21
35.773787
  0
LINE
  8
APS_GEOMETRY
 10
-92.081432
 11
-98.081432
 20
35.773787
 21
35.773787
  0
LINE
  8
APS_GEOMETRY
 10
-98.081432
 11
-98.081432
 20
35.773787
 21
36.773787
  0
LINE
  8
APS_GEOMETRY
 10
-98.081432
 11
-104.081432
 20
36.773787
 21
36.773787
  0
LINE
  8
APS_GEOMETRY
 10
-104.081432
 11
-104.081432
 20
36.773787
 21
37.773787
  0
LINE
  8
APS_GEOMETRY
 10
-104.081432
 11
-110.081432
 20
37.773787
 21
37.773787
  0
LINE
  8
APS_GEOMETRY
 10
-110.081432
 11
-110.081432
 20
37.773787
 21
38.773787
  0
LINE
  8
APS_GEOMETRY
 10
-110.081432
 11
-116.081432
 20
38.773787
 21
38.773787
  0
LINE
  8
APS_GEOMETRY
 10
-116.081432
 11
-116.081432
 20
38.773787
 21
39.773787
  0
LINE
  8
APS_GEOMETRY
 10
-116.081432
 11
-122.081432
 20
39.773787
 21
39.773787
  0
LINE
  8
APS_GEOMETRY
 10
-122.081432
 11
-122.081432
 20
39.773787
 21
40.773787
  0
LINE
  8
APS_GEOMETRY
 10
-122.081432
 11
-128.081432
 20
40.773787
 21
40.773787
  0
LINE
  8
APS_GEOMETRY
 10
-128.081432
 11
-128.081432
 20
40.773787
 21
41.773787
  0
LINE
  8
APS_GEOMETRY
 10
-128.081432
 11
-134.081432
 20
41.773787
 21
41.773787
  0
LINE
  8
APS_GEOMETRY
 10
-134.081432
 11
-134.081432
 20
41.773787
 21
42.773787
  0
LINE
  8
APS_GEOMETRY
 10
-134.081432
 11
-140.081432
 20
42.773787
 21
42.773787
  0
LINE
  8
APS_GEOMETRY
 10
-140.081432
 11
-140.081432
 20
42.773787
 21
43.773787
  0
LINE
  8
APS_GEOMETRY
 10
-140.081432
 11
-146.081432
 20
43.773787
 21
43.773787
  0
LINE
  8
APS_GEOMETRY
 10
-146.081432
 11
-146.081432
 20
43.773787
 21
44.773787
  0
LINE
  8
APS_GEOMETRY
 10
-146.081432
 11
-152.081432
 20
44.773787
 21
44.773787
  0
LINE
  8
APS_GEOMETRY
 10
-152.081432
 11
-152.081432
 20
44.773787
 21
45.773787
  0
LINE
  8
APS_GEOMETRY
 10
-152.081432
 11
-158.081432
 20
45.773787
 21
45.773787
  0
LINE
  8
APS_GEOMETRY
 10
-158.081432
 11
-158.081432
 20
45.773787
 21
46.773787
  0
LINE
  8
APS_GEOMETRY
 10
-158.081432
 11
-164.081432
 20
46.773787
 21
46.773787
  0
LINE
  8
APS_GEOMETRY
 10
-164.081432
 11
-164.081432
 20
46.773787
 21
47.773787
  0
LINE
  8
APS_GEOMETRY
 10
-164.081432
 11
-170.081432
 20
47.773787
 21
47.773787
  0
LINE
  8
APS_GEOMETRY
 10
-170.081432
 11
-170.081432
 20
47.773787
 21
48.773787
  0
LINE
  8
APS_GEOMETRY
 10
-170.081432
 11
-176.081432
 20
48.773787
 21
48.773787
  0
LINE
  8
APS_GEOMETRY
 10
-176.081432
 11
-176.081432
 20
48.773787
 21
49.773787
  0
LINE
  8
APS_GEOMETRY
 10
-176.081432
 11
-182.081432
 20
49.773787
 21
49.773787
  0
LINE
  8
APS_GEOMETRY
 10
-182.081432
 11
-182.081432
 20
49.773787
 21
50.773787
  0
LINE
  8
APS_GEOMETRY
 10
-182.081432
 11
-188.081432
 20
50.773787
 21
50.773787
  0
LINE
  8
APS_GEOMETRY
 10
-184.909205
 11
-183.175871
 20
34.324417
 21
34.324417
  0
LINE
  8
APS_GEOMETRY
 10
-182.286982
 11
-184.953649
 20
36.324417
 21
36.324417
  0
LINE
  8
APS_GEOMETRY
 10
-184.953649
 11
-184.953649
 20
36.324417
 21
32.324417
  0
ARC
  8
APS_GEOMETRY
 10
-180.431731
 20
33.648072
 40
1.3096
 50
218.6887
 51
321.3113
  0
ARC
  8
APS_GEOMETRY
 10
-181.301576
 20
34.362812
 40
2.435378
 50
320.978113
 51
39.020738
  0
ARC
  8
APS_GEOMETRY
 10
-180.431708
 20
35.077523
 40
1.3096
 50
38.688157
 51
141.312908
  0
ARC
  8
APS_GEOMETRY
 10
-179.561863
 20
34.362783
 40
2.435378
 50
140.978975
 51
219.021025
  0
ARC
  8
APS_GEOMETRY
 10
-177.780865
 20
34.327306
 40
2.431511
 50
31.026839
 51
40.045456
  0
ARC
  8
APS_GEOMETRY
 10
-176.941696
 20
35.073141
 40
1.3096
 50
38.687092
 51
141.311843
  0
ARC
  8
APS_GEOMETRY
 10
-176.071828
 20
34.35843
 40
2.435378
 50
140.979262
 51
219.021887
  0
ARC
  8
APS_GEOMETRY
 10
-176.941659
 20
33.643672
 40
1.3096
 50
218.687682
 51
321.31267
  0
ARC
  8
APS_GEOMETRY
 10
-177.795851
 20
34.253157
 40
2.358045
 50
322.7266
 51
335.3459
  0
LINE
  8
APS_GEOMETRY
 10
-174.827788
 11
-174.827788
 20
36.286448
 21
33.619782
  0
ARC
  8
APS_GEOMETRY
 10
-173.494455
 20
33.619782
 40
1.333333
 50
180.0
 51
0.0
  0
LINE
  8
APS_GEOMETRY
 10
-172.161121
 11
-172.161121
 20
33.619782
 21
36.286448
  0
ARC
  8
APS_GEOMETRY
 10
-170.043955
 20
34.751025
 40
1.644178
 50
42.9037
 51
122.5462
  0
ARC
  8
APS_GEOMETRY
 10
-170.466008
 20
35.433116
 40
0.842222
 50
123.306702
 51
253.425563
  0
LINE
  8
APS_GEOMETRY
 10
-170.706261
 11
-169.372933
 20
34.625888
 21
34.181425
  0
ARC
  8
APS_GEOMETRY
 10
-169.644406
 20
33.320221
 40
0.902978
 50
299.837943
 51
72.503854
  0
ARC
  8
APS_GEOMETRY
 10
-170.061759
 20
34.039566
 40
1.734622
 50
240.02251
 51
299.973977
  0
ARC
  8
APS_GEOMETRY
 10
-170.454197
 20
33.367003
 40
0.955956
 50
209.759272
 51
240.255342
  0
ARC
  8
APS_GEOMETRY
 10
-163.909725
 20
34.35392
 40
2.431511
 50
31.026839
 51
40.045456
  0
ARC
  8
APS_GEOMETRY
 10
-163.070556
 20
35.099755
 40
1.3096
 50
38.687092
 51
141.311843
  0
ARC
  8
APS_GEOMETRY
 10
-162.200694
 20
34.385036
 40
2.435378
 50
140.979023
 51
219.021731
  0
ARC
  8
APS_GEOMETRY
 10
-163.074309
 20
33.668035
 40
1.305245
 50
218.714375
 51
270.166398
  0
ARC
  8
APS_GEOMETRY
 10
-163.073511
 20
33.723549
 40
1.360756
 50
270.126
 51
341.6935
  0
LINE
  8
APS_GEOMETRY
 10
-161.781623
 11
-161.781644
 20
33.296135
 21
34.318349
  0
LINE
  8
APS_GEOMETRY
 10
-161.781644
 11
-162.803866
 20
34.318349
 21
34.318349
  0
LINE
  8
APS_GEOMETRY
 10
-160.844688
 11
-158.400243
 20
33.53249
 21
33.53249
  0
LINE
  8
APS_GEOMETRY
 10
-161.333576
 11
-159.778021
 20
32.324417
 21
36.324417
  0
LINE
  8
APS_GEOMETRY
 10
-159.778021
 11
-159.422465
 20
36.324417
 21
36.324417
  0
LINE
  8
APS_GEOMETRY
 10
-159.422465
 11
-157.955799
 20
36.324417
 21
32.324417
  0
LINE
  8
APS_GEOMETRY
 10
-157.562093
 11
-157.562093
 20
36.286448
 21
33.619782
  0
ARC
  8
APS_GEOMETRY
 10
-156.228759
 20
33.619782
 40
1.333333
 50
180.0
 51
0.0
  0
LINE
  8
APS_GEOMETRY
 10
-154.895426
 11
-154.895426
 20
33.619782
 21
36.286448
  0
ARC
  8
APS_GEOMETRY
 10
-153.810831
 20
34.35392
 40
2.431511
 50
31.026839
 51
40.045456
  0
ARC
  8
APS_GEOMETRY
 10
-152.971662
 20
35.099755
 40
1.3096
 50
38.687092
 51
141.311843
  0
ARC
  8
APS_GEOMETRY
 10
-152.1018
 20
34.385036
 40
2.435378
 50
140.979023
 51
219.021731
  0
ARC
  8
APS_GEOMETRY
 10
-152.975415
 20
33.668035
 40
1.305245
 50
218.714375
 51
270.166398
  0
ARC
  8
APS_GEOMETRY
 10
-152.974617
 20
33.723549
 40
1.360756
 50
270.126
 51
341.6935
  0
LINE
  8
APS_GEOMETRY
 10
-151.68273
 11
-151.68275
 20
33.296135
 21
34.318349
  0
LINE
  8
APS_GEOMETRY
 10
-151.68275
 11
-152.704973
 20
34.318349
 21
34.318349
  0
LINE
  8
APS_GEOMETRY
 10
-148.168016
 11
-150.834683
 20
36.324417
 21
36.324417
  0
LINE
  8
APS_GEOMETRY
 10
-150.834683
 11
-150.834683
 20
36.324417
 21
32.324417
  0
LINE
  8
APS_GEOMETRY
 10
-150.834683
 11
-148.168016
 20
32.324417
 21
32.324417
  0
LINE
  8
APS_GEOMETRY
 10
-150.790239
 11
-149.056905
 20
34.457751
 21
34.457751
  0
ARC
  8
APS_GEOMETRY
 10
-97.753615
 20
32.8183
 40
1.1194
 50
202.7274
 51
247.2726
  0
ARC
  8
APS_GEOMETRY
 10
-97.736096
 20
32.838794
 40
1.1451
 50
246.860287
 51
293.140726
  0
ARC
  8
APS_GEOMETRY
 10
-97.711848
 20
32.792671
 40
1.093167
 50
292.922067
 51
357.893283
  0
ARC
  8
APS_GEOMETRY
 10
-97.603583
 20
32.786967
 40
0.984767
 50
357.993348
 51
71.191207
  0
ARC
  8
APS_GEOMETRY
 10
-97.736147
 20
32.395644
 40
1.397933
 50
71.219129
 51
108.775441
  0
ARC
  8
APS_GEOMETRY
 10
-97.824647
 20
32.635439
 40
1.142433
 50
108.443904
 51
138.941081
  0
LINE
  8
APS_GEOMETRY
 10
-98.686082
 11
-98.452748
 20
33.385829
 21
34.719167
  0
LINE
  8
APS_GEOMETRY
 10
-98.452748
 11
-96.952748
 20
34.719167
 21
34.719167
  0
LINE
  8
APS_GEOMETRY
 10
-144.866503
 11
-144.866503
 20
32.248638
 21
35.248638
  0
LINE
  8
APS_GEOMETRY
 10
-144.866503
 11
-144.699836
 20
35.248638
 21
35.248638
  0
LINE
  8
APS_GEOMETRY
 10
-144.699836
 11
-143.53317
 20
35.248638
 21
32.248638
  0
LINE
  8
APS_GEOMETRY
 10
-143.53317
 11
-142.366503
 20
32.248638
 21
35.248638
  0
LINE
  8
APS_GEOMETRY
 10
-142.366503
 11
-142.199836
 20
35.248638
 21
35.248638
  0
LINE
  8
APS_GEOMETRY
 10
-142.199836
 11
-142.199836
 20
35.248638
 21
32.248638
  0
LINE
  8
APS_GEOMETRY
 10
-141.599836
 11
-141.599836
 20
32.248638
 21
35.248638
  0
LINE
  8
APS_GEOMETRY
 10
-141.599836
 11
-141.43317
 20
35.248638
 21
35.248638
  0
LINE
  8
APS_GEOMETRY
 10
-141.43317
 11
-140.266503
 20
35.248638
 21
32.248638
  0
LINE
  8
APS_GEOMETRY
 10
-140.266503
 11
-139.099836
 20
32.248638
 21
35.248638
  0
LINE
  8
APS_GEOMETRY
 10
-139.099836
 11
-138.93317
 20
35.248638
 21
35.248638
  0
LINE
  8
APS_GEOMETRY
 10
-138.93317
 11
-138.93317
 20
35.248638
 21
32.248638
  0
LINE
  8
APS_GEOMETRY
 10
-130.39876
 11
-129.369384
 20
37.17519
 21
37.17519
  0
LINE
  8
APS_GEOMETRY
 10
-129.884072
 11
-129.884072
 20
37.17519
 21
40.17519
  0
LINE
  8
APS_GEOMETRY
 10
-129.884072
 11
-130.39876
 20
40.17519
 21
39.660502
  0
ARC
  8
APS_GEOMETRY
 10
-127.584458
 20
38.120799
 40
0.9822
 50
218.6887
 51
321.3113
  0
ARC
  8
APS_GEOMETRY
 10
-128.236842
 20
38.656853
 40
1.826533
 50
320.978113
 51
39.020738
  0
ARC
  8
APS_GEOMETRY
 10
-127.584441
 20
39.192887
 40
0.9822
 50
38.688157
 51
141.312908
  0
ARC
  8
APS_GEOMETRY
 10
-126.932057
 20
38.656832
 40
1.826533
 50
140.978975
 51
219.021025
  0
LINE
  8
APS_GEOMETRY
 10
-160.256333
 11
-159.226957
 20
42.101741
 21
42.101741
  0
LINE
  8
APS_GEOMETRY
 10
-159.741645
 11
-159.741645
 20
42.101741
 21
45.101741
  0
LINE
  8
APS_GEOMETRY
 10
-159.741645
 11
-160.256333
 20
45.101741
 21
44.587053
  0
ARC
  8
APS_GEOMETRY
 10
-157.584125
 20
43.202008
 40
1.1194
 50
202.7274
 51
247.2726
  0
ARC
  8
APS_GEOMETRY
 10
-157.566606
 20
43.222502
 40
1.1451
 50
246.860287
 51
293.140726
  0
ARC
  8
APS_GEOMETRY
 10
-157.542358
 20
43.176379
 40
1.093167
 50
292.922067
 51
357.893283
  0
ARC
  8
APS_GEOMETRY
 10
-157.434093
 20
43.170676
 40
0.984767
 50
357.993348
 51
71.191207
  0
ARC
  8
APS_GEOMETRY
 10
-157.566657
 20
42.779353
 40
1.397933
 50
71.219129
 51
108.775441
  0
ARC
  8
APS_GEOMETRY
 10
-157.655157
 20
43.019147
 40
1.142433
 50
108.443904
 51
138.941081
  0
LINE
  8
APS_GEOMETRY
 10
-158.516592
 11
-158.283258
 20
43.769537
 21
45.102875
  0
LINE
  8
APS_GEOMETRY
 10
-158.283258
 11
-156.783258
 20
45.102875
 21
45.102875
  0
LINE
  8
APS_GEOMETRY
 10
-185.757477
 11
-187.757476
 20
46.343537
 21
46.343551
  0
ARC
  8
APS_GEOMETRY
 10
-186.700043
 20
46.344964
 40
1.057433
 50
121.813563
 51
180.07656
  0
LINE
  8
APS_GEOMETRY
 10
-187.257477
 11
-186.124151
 20
47.243537
 21
47.943538
  0
ARC
  8
APS_GEOMETRY
 10
-186.493052
 20
48.576866
 40
0.732933
 50
300.220013
 51
59.779436
  0
ARC
  8
APS_GEOMETRY
 10
-186.690837
 20
48.157119
 40
1.195867
 50
61.713834
 51
118.283685
  0
ARC
  8
APS_GEOMETRY
 10
-186.921944
 20
48.579704
 40
0.714233
 50
118.0207
 51
169.4717
  0
ARC
  8
APS_GEOMETRY
 10
-183.972551
 20
47.28916
 40
0.9822
 50
218.6887
 51
321.3113
  0
ARC
  8
APS_GEOMETRY
 10
-184.624935
 20
47.825215
 40
1.826533
 50
320.978113
 51
39.020738
  0
ARC
  8
APS_GEOMETRY
 10
-183.972533
 20
48.361249
 40
0.9822
 50
38.688157
 51
141.312908
  0
ARC
  8
APS_GEOMETRY
 10
-183.320149
 20
47.825194
 40
1.826533
 50
140.978975
 51
219.021025
  0
LINE
  8
APS_GEOMETRY
 10
-187.702536
 11
-67.702536
 20
56.159787
 21
56.159787
  0
LINE
  8
APS_GEOMETRY
 10
-67.702536
 11
-67.702536
 20
56.159787
 21
57.159787
  0
LINE
  8
APS_GEOMETRY
 10
-67.702536
 11
-73.702536
 20
57.159787
 21
57.159787
  0
LINE
  8
APS_GEOMETRY
 10
-73.702536
 11
-73.702536
 20
57.159787
 21
58.159787
  0
LINE
  8
APS_GEOMETRY
 10
-73.702536
 11
-79.702536
 20
58.159787
 21
58.159787
  0
LINE
  8
APS_GEOMETRY
 10
-79.702536
 11
-79.702536
 20
58.159787
 21
59.159787
  0
LINE
  8
APS_GEOMETRY
 10
-79.702536
 11
-85.702536
 20
59.159787
 21
59.159787
  0
LINE
  8
APS_GEOMETRY
 10
-85.702536
 11
-85.702536
 20
59.159787
 21
60.159787
  0
LINE
  8
APS_GEOMETRY
 10
-85.702536
 11
-91.702536
 20
60.159787
 21
60.159787
  0
LINE
  8
APS_GEOMETRY
 10
-91.702536
 11
-91.702536
 20
60.159787
 21
61.159787
  0
LINE
  8
APS_GEOMETRY
 10
-91.702536
 11
-97.702536
 20
61.159787
 21
61.159787
  0
LINE
  8
APS_GEOMETRY
 10
-97.702536
 11
-97.702536
 20
61.159787
 21
62.159787
  0
LINE
  8
APS_GEOMETRY
 10
-97.702536
 11
-103.702536
 20
62.159787
 21
62.159787
  0
LINE
  8
APS_GEOMETRY
 10
-103.702536
 11
-103.702536
 20
62.159787
 21
63.159787
  0
LINE
  8
APS_GEOMETRY
 10
-103.702536
 11
-109.702536
 20
63.159787
 21
63.159787
  0
LINE
  8
APS_GEOMETRY
 10
-109.702536
 11
-109.702536
 20
63.159787
 21
64.159787
  0
LINE
  8
APS_GEOMETRY
 10
-109.702536
 11
-115.702536
 20
64.159787
 21
64.159787
  0
LINE
  8
APS_GEOMETRY
 10
-115.702536
 11
-115.702536
 20
64.159787
 21
65.159787
  0
LINE
  8
APS_GEOMETRY
 10
-115.702536
 11
-121.702536
 20
65.159787
 21
65.159787
  0
LINE
  8
APS_GEOMETRY
 10
-121.702536
 11
-121.702536
 20
65.159787
 21
66.159787
  0
LINE
  8
APS_GEOMETRY
 10
-121.702536
 11
-127.702536
 20
66.159787
 21
66.159787
  0
LINE
  8
APS_GEOMETRY
 10
-127.702536
 11
-127.702536
 20
66.159787
 21
67.159787
  0
LINE
  8
APS_GEOMETRY
 10
-127.702536
 11
-133.702536
 20
67.159787
 21
67.159787
  0
LINE
  8
APS_GEOMETRY
 10
-133.702536
 11
-133.702536
 20
67.159787
 21
68.159787
  0
LINE
  8
APS_GEOMETRY
 10
-133.702536
 11
-139.702536
 20
68.159787
 21
68.159787
  0
LINE
  8
APS_GEOMETRY
 10
-139.702536
 11
-139.702536
 20
68.159787
 21
69.159787
  0
LINE
  8
APS_GEOMETRY
 10
-139.702536
 11
-145.702536
 20
69.159787
 21
69.159787
  0
LINE
  8
APS_GEOMETRY
 10
-145.702536
 11
-145.702536
 20
69.159787
 21
70.159787
  0
LINE
  8
APS_GEOMETRY
 10
-145.702536
 11
-151.702536
 20
70.159787
 21
70.159787
  0
LINE
  8
APS_GEOMETRY
 10
-151.702536
 11
-151.702536
 20
70.159787
 21
71.159787
  0
LINE
  8
APS_GEOMETRY
 10
-151.702536
 11
-157.702536
 20
71.159787
 21
71.159787
  0
LINE
  8
APS_GEOMETRY
 10
-157.702536
 11
-157.702536
 20
71.159787
 21
72.159787
  0
LINE
  8
APS_GEOMETRY
 10
-157.702536
 11
-163.702536
 20
72.159787
 21
72.159787
  0
LINE
  8
APS_GEOMETRY
 10
-163.702536
 11
-163.702536
 20
72.159787
 21
73.159787
  0
LINE
  8
APS_GEOMETRY
 10
-163.702536
 11
-169.702536
 20
73.159787
 21
73.159787
  0
LINE
  8
APS_GEOMETRY
 10
-169.702536
 11
-169.702536
 20
73.159787
 21
74.159787
  0
LINE
  8
APS_GEOMETRY
 10
-169.702536
 11
-175.702536
 20
74.159787
 21
74.159787
  0
LINE
  8
APS_GEOMETRY
 10
-175.702536
 11
-175.702536
 20
74.159787
 21
75.159787
  0
LINE
  8
APS_GEOMETRY
 10
-175.702536
 11
-181.702536
 20
75.159787
 21
75.159787
  0
LINE
  8
APS_GEOMETRY
 10
-181.702536
 11
-181.702536
 20
75.159787
 21
76.159787
  0
LINE
  8
APS_GEOMETRY
 10
-181.702536
 11
-187.702536
 20
76.159787
 21
76.159787
  0
LINE
  8
APS_GEOMETRY
 10
-187.702536
 11
-187.702536
 20
76.159787
 21
56.159787
  0
LINE
  8
APS_GEOMETRY
 10
-184.530309
 11
-182.796976
 20
59.710417
 21
59.710417
  0
LINE
  8
APS_GEOMETRY
 10
-181.908087
 11
-184.574754
 20
61.710417
 21
61.710417
  0
LINE
  8
APS_GEOMETRY
 10
-184.574754
 11
-184.574754
 20
61.710417
 21
57.710417
  0
ARC
  8
APS_GEOMETRY
 10
-180.052835
 20
59.034072
 40
1.3096
 50
218.6887
 51
321.3113
  0
ARC
  8
APS_GEOMETRY
 10
-180.922681
 20
59.748812
 40
2.435378
 50
320.978113
 51
39.020738
  0
ARC
  8
APS_GEOMETRY
 10
-180.052813
 20
60.463523
 40
1.3096
 50
38.688157
 51
141.312908
  0
ARC
  8
APS_GEOMETRY
 10
-179.182967
 20
59.748783
 40
2.435378
 50
140.978975
 51
219.021025
  0
ARC
  8
APS_GEOMETRY
 10
-177.40197
 20
59.713306
 40
2.431511
 50
31.026839
 51
40.045456
  0
ARC
  8
APS_GEOMETRY
 10
-176.562801
 20
60.459141
 40
1.3096
 50
38.687092
 51
141.311843
  0
ARC
  8
APS_GEOMETRY
 10
-175.692932
 20
59.74443
 40
2.435378
 50
140.979262
 51
219.021887
  0
ARC
  8
APS_GEOMETRY
 10
-176.562763
 20
59.029672
 40
1.3096
 50
218.687682
 51
321.31267
  0
ARC
  8
APS_GEOMETRY
 10
-177.416956
 20
59.639157
 40
2.358045
 50
322.7266
 51
335.3459
  0
LINE
  8
APS_GEOMETRY
 10
-174.448893
 11
-174.448893
 20
61.672448
 21
59.005781
  0
ARC
  8
APS_GEOMETRY
 10
-173.115559
 20
59.005781
 40
1.333333
 50
180.0
 51
0.0
  0
LINE
  8
APS_GEOMETRY
 10
-171.782226
 11
-171.782226
 20
59.005781
 21
61.672448
  0
ARC
  8
APS_GEOMETRY
 10
-169.66506
 20
60.137025
 40
1.644178
 50
42.9037
 51
122.5462
  0
ARC
  8
APS_GEOMETRY
 10
-170.087112
 20
60.819116
 40
0.842222
 50
123.306702
 51
253.425563
  0
LINE
  8
APS_GEOMETRY
 10
-170.327365
 11
-168.994038
 20
60.011888
 21
59.567425
  0
ARC
  8
APS_GEOMETRY
 10
-169.26551
 20
58.706221
 40
0.902978
 50
299.837943
 51
72.503854
  0
ARC
  8
APS_GEOMETRY
 10
-169.682864
 20
59.425566
 40
1.734622
 50
240.02251
 51
299.973977
  0
ARC
  8
APS_GEOMETRY
 10
-170.075301
 20
58.753002
 40
0.955956
 50
209.759272
 51
240.255342
  0
ARC
  8
APS_GEOMETRY
 10
-163.530829
 20
59.73992
 40
2.431511
 50
31.026839
 51
40.045456
  0
ARC
  8
APS_GEOMETRY
 10
-162.69166
 20
60.485755
 40
1.3096
 50
38.687092
 51
141.311843
  0
ARC
  8
APS_GEOMETRY
 10
-161.821798
 20
59.771036
 40
2.435378
 50
140.979023
 51
219.021731
  0
ARC
  8
APS_GEOMETRY
 10
-162.695413
 20
59.054035
 40
1.305245
 50
218.714375
 51
270.166398
  0
ARC
  8
APS_GEOMETRY
 10
-162.694615
 20
59.109549
 40
1.360756
 50
270.126
 51
341.6935
  0
LINE
  8
APS_GEOMETRY
 10
-161.402728
 11
-161.402748
 20
58.682135
 21
59.704349
  0
LINE
  8
APS_GEOMETRY
 10
-161.402748
 11
-162.424971
 20
59.704349
 21
59.704349
  0
LINE
  8
APS_GEOMETRY
 10
-160.465792
 11
-158.021347
 20
58.91849
 21
58.91849
  0
LINE
  8
APS_GEOMETRY
 10
-160.954681
 11
-159.399125
 20
57.710417
 21
61.710417
  0
LINE
  8
APS_GEOMETRY
 10
-159.399125
 11
-159.04357
 20
61.710417
 21
61.710417
  0
LINE
  8
APS_GEOMETRY
 10
-159.04357
 11
-157.576903
 20
61.710417
 21
57.710417
  0
LINE
  8
APS_GEOMETRY
 10
-157.183197
 11
-157.183197
 20
61.672448
 21
59.005781
  0
ARC
  8
APS_GEOMETRY
 10
-155.849864
 20
59.005781
 40
1.333333
 50
180.0
 51
0.0
  0
LINE
  8
APS_GEOMETRY
 10
-154.51653
 11
-154.51653
 20
59.005781
 21
61.672448
  0
ARC
  8
APS_GEOMETRY
 10
-153.431936
 20
59.73992
 40
2.431511
 50
31.026839
 51
40.045456
  0
ARC
  8
APS_GEOMETRY
 10
-152.592767
 20
60.485755
 40
1.3096
 50
38.687092
 51
141.311843
  0
ARC
  8
APS_GEOMETRY
 10
-151.722905
 20
59.771036
 40
2.435378
 50
140.979023
 51
219.021731
  0
ARC
  8
APS_GEOMETRY
 10
-152.59652
 20
59.054035
 40
1.305245
 50
218.714375
 51
270.166398
  0
ARC
  8
APS_GEOMETRY
 10
-152.595722
 20
59.109549
 40
1.360756
 50
270.126
 51
341.6935
  0
LINE
  8
APS_GEOMETRY
 10
-151.303834
 11
-151.303855
 20
58.682135
 21
59.704349
  0
LINE
  8
APS_GEOMETRY
 10
-151.303855
 11
-152.326077
 20
59.704349
 21
59.704349
  0
LINE
  8
APS_GEOMETRY
 10
-147.789121
 11
-150.455787
 20
61.710417
 21
61.710417
  0
LINE
  8
APS_GEOMETRY
 10
-150.455787
 11
-150.455787
 20
61.710417
 21
57.710417
  0
LINE
  8
APS_GEOMETRY
 10
-150.455787
 11
-147.789121
 20
57.710417
 21
57.710417
  0
LINE
  8
APS_GEOMETRY
 10
-150.411343
 11
-148.67801
 20
59.84375
 21
59.84375
  0
ARC
  8
APS_GEOMETRY
 10
-95.552381
 20
58.280231
 40
1.1194
 50
202.7274
 51
247.2726
  0
ARC
  8
APS_GEOMETRY
 10
-95.534863
 20
58.300724
 40
1.1451
 50
246.860287
 51
293.140726
  0
ARC
  8
APS_GEOMETRY
 10
-95.510614
 20
58.254601
 40
1.093167
 50
292.922067
 51
357.893283
  0
ARC
  8
APS_GEOMETRY
 10
-95.402349
 20
58.248898
 40
0.984767
 50
357.993348
 51
71.191207
  0
ARC
  8
APS_GEOMETRY
 10
-95.534914
 20
57.857575
 40
1.397933
 50
71.219129
 51
108.775441
  0
ARC
  8
APS_GEOMETRY
 10
-95.623414
 20
58.097369
 40
1.142433
 50
108.443904
 51
138.941081
  0
LINE
  8
APS_GEOMETRY
 10
-96.484848
 11
-96.251515
 20
58.847759
 21
60.181097
  0
LINE
  8
APS_GEOMETRY
 10
-96.251515
 11
-94.751515
 20
60.181097
 21
60.181097
  0
LINE
  8
APS_GEOMETRY
 10
-144.487608
 11
-144.487608
 20
57.634638
 21
60.634638
  0
LINE
  8
APS_GEOMETRY
 10
-144.487608
 11
-144.320941
 20
60.634638
 21
60.634638
  0
LINE
  8
APS_GEOMETRY
 10
-144.320941
 11
-143.154274
 20
60.634638
 21
57.634638
  0
LINE
  8
APS_GEOMETRY
 10
-143.154274
 11
-141.987607
 20
57.634638
 21
60.634638
  0
LINE
  8
APS_GEOMETRY
 10
-141.987607
 11
-141.820941
 20
60.634638
 21
60.634638
  0
LINE
  8
APS_GEOMETRY
 10
-141.820941
 11
-141.820941
 20
60.634638
 21
57.634638
  0
LINE
  8
APS_GEOMETRY
 10
-141.220941
 11
-141.220941
 20
57.634638
 21
60.634638
  0
LINE
  8
APS_GEOMETRY
 10
-141.220941
 11
-141.054274
 20
60.634638
 21
60.634638
  0
LINE
  8
APS_GEOMETRY
 10
-141.054274
 11
-139.887607
 20
60.634638
 21
57.634638
  0
LINE
  8
APS_GEOMETRY
 10
-139.887607
 11
-138.720941
 20
57.634638
 21
60.634638
  0
LINE
  8
APS_GEOMETRY
 10
-138.720941
 11
-138.554274
 20
60.634638
 21
60.634638
  0
LINE
  8
APS_GEOMETRY
 10
-138.554274
 11
-138.554274
 20
60.634638
 21
57.634638
  0
LINE
  8
APS_GEOMETRY
 10
-126.982635
 11
-125.953259
 20
62.105605
 21
62.105605
  0
LINE
  8
APS_GEOMETRY
 10
-126.467947
 11
-126.467947
 20
62.105605
 21
65.105605
  0
LINE
  8
APS_GEOMETRY
 10
-126.467947
 11
-126.982635
 20
65.105605
 21
64.590917
  0
ARC
  8
APS_GEOMETRY
 10
-124.168333
 20
63.051214
 40
0.9822
 50
218.6887
 51
321.3113
  0
ARC
  8
APS_GEOMETRY
 10
-124.820717
 20
63.587269
 40
1.826533
 50
320.978113
 51
39.020738
  0
ARC
  8
APS_GEOMETRY
 10
-124.168316
 20
64.123302
 40
0.9822
 50
38.688157
 51
141.312908
  0
ARC
  8
APS_GEOMETRY
 10
-123.515932
 20
63.587247
 40
1.826533
 50
140.978975
 51
219.021025
  0
LINE
  8
APS_GEOMETRY
 10
-156.536485
 11
-155.507109
 20
66.576572
 21
66.576572
  0
LINE
  8
APS_GEOMETRY
 10
-156.021797
 11
-156.021797
 20
66.576572
 21
69.576572
  0
LINE
  8
APS_GEOMETRY
 10
-156.021797
 11
-156.536485
 20
69.576572
 21
69.061884
  0
ARC
  8
APS_GEOMETRY
 10
-153.864277
 20
67.676839
 40
1.1194
 50
202.7274
 51
247.2726
  0
ARC
  8
APS_GEOMETRY
 10
-153.846758
 20
67.697333
 40
1.1451
 50
246.860287
 51
293.140726
  0
ARC
  8
APS_GEOMETRY
 10
-153.82251
 20
67.65121
 40
1.093167
 50
292.922067
 51
357.893283
  0
ARC
  8
APS_GEOMETRY
 10
-153.714245
 20
67.645507
 40
0.984767
 50
357.993348
 51
71.191207
  0
ARC
  8
APS_GEOMETRY
 10
-153.846809
 20
67.254184
 40
1.397933
 50
71.219129
 51
108.775441
  0
ARC
  8
APS_GEOMETRY
 10
-153.935309
 20
67.493978
 40
1.142433
 50
108.443904
 51
138.941081
  0
LINE
  8
APS_GEOMETRY
 10
-154.796744
 11
-154.56341
 20
68.244368
 21
69.577706
  0
LINE
  8
APS_GEOMETRY
 10
-154.56341
 11
-153.06341
 20
69.577706
 21
69.577706
  0
LINE
  8
APS_GEOMETRY
 10
-185.378581
 11
-187.37858
 20
71.729537
 21
71.729551
  0
ARC
  8
APS_GEOMETRY
 10
-186.321148
 20
71.730964
 40
1.057433
 50
121.813563
 51
180.07656
  0
LINE
  8
APS_GEOMETRY
 10
-186.878581
 11
-185.745256
 20
72.629537
 21
73.329538
  0
ARC
  8
APS_GEOMETRY
 10
-186.114157
 20
73.962865
 40
0.732933
 50
300.220013
 51
59.779436
  0
ARC
  8
APS_GEOMETRY
 10
-186.311942
 20
73.543118
 40
1.195867
 50
61.713834
 51
118.283685
  0
ARC
  8
APS_GEOMETRY
 10
-186.543048
 20
73.965704
 40
0.714233
 50
118.0207
 51
169.4717
  0
ARC
  8
APS_GEOMETRY
 10
-183.593655
 20
72.67516
 40
0.9822
 50
218.6887
 51
321.3113
  0
ARC
  8
APS_GEOMETRY
 10
-184.246039
 20
73.211215
 40
1.826533
 50
320.978113
 51
39.020738
  0
ARC
  8
APS_GEOMETRY
 10
-183.593638
 20
73.747248
 40
0.9822
 50
38.688157
 51
141.312908
  0
ARC
  8
APS_GEOMETRY
 10
-182.941254
 20
73.211193
 40
1.826533
 50
140.978975
 51
219.021025
  0
CIRCLE
  8
APS_GEOMETRY
 10
-182.135617
 20
46.564474
 40
0.3
  0
ARC
  8
APS_GEOMETRY
 10
-180.187664
 20
47.363604
 40
1.1194
 50
202.7274
 51
247.2726
  0
ARC
  8
APS_GEOMETRY
 10
-180.170146
 20
47.384098
 40
1.1451
 50
246.860287
 51
293.140726
  0
ARC
  8
APS_GEOMETRY
 10
-180.145897
 20
47.337975
 40
1.093167
 50
292.922067
 51
357.893283
  0
ARC
  8
APS_GEOMETRY
 10
-180.037632
 20
47.332271
 40
0.984767
 50
357.993348
 51
71.191207
  0
ARC
  8
APS_GEOMETRY
 10
-180.170197
 20
46.940949
 40
1.397933
 50
71.219129
 51
108.775441
  0
ARC
  8
APS_GEOMETRY
 10
-180.258697
 20
47.180743
 40
1.142433
 50
108.443904
 51
138.941081
  0
LINE
  8
APS_GEOMETRY
 10
-181.120131
 11
-180.886798
 20
47.931133
 21
49.264471
  0
LINE
  8
APS_GEOMETRY
 10
-180.886798
 11
-179.386797
 20
49.264471
 21
49.264471
  0
CIRCLE
  8
APS_GEOMETRY
 10
-155.559859
 20
42.464214
 40
0.3
  0
ARC
  8
APS_GEOMETRY
 10
-153.611906
 20
43.263344
 40
1.1194
 50
202.7274
 51
247.2726
  0
ARC
  8
APS_GEOMETRY
 10
-153.594388
 20
43.283838
 40
1.1451
 50
246.860287
 51
293.140726
  0
ARC
  8
APS_GEOMETRY
 10
-153.570139
 20
43.237715
 40
1.093167
 50
292.922067
 51
357.893283
  0
ARC
  8
APS_GEOMETRY
 10
-153.461874
 20
43.232012
 40
0.984767
 50
357.993348
 51
71.191207
  0
ARC
  8
APS_GEOMETRY
 10
-153.594439
 20
42.840689
 40
1.397933
 50
71.219129
 51
108.775441
  0
ARC
  8
APS_GEOMETRY
 10
-153.682939
 20
43.080483
 40
1.142433
 50
108.443904
 51
138.941081
  0
LINE
  8
APS_GEOMETRY
 10
-154.544373
 11
-154.311039
 20
43.830873
 21
45.164211
  0
LINE
  8
APS_GEOMETRY
 10
-154.311039
 11
-152.811039
 20
45.164211
 21
45.164211
  0
CIRCLE
  8
APS_GEOMETRY
 10
-125.491286
 20
37.452786
 40
0.3
  0
ARC
  8
APS_GEOMETRY
 10
-123.543334
 20
38.251916
 40
1.1194
 50
202.7274
 51
247.2726
  0
ARC
  8
APS_GEOMETRY
 10
-123.525816
 20
38.272409
 40
1.1451
 50
246.860287
 51
293.140726
  0
ARC
  8
APS_GEOMETRY
 10
-123.501567
 20
38.226287
 40
1.093167
 50
292.922067
 51
357.893283
  0
ARC
  8
APS_GEOMETRY
 10
-123.393302
 20
38.220583
 40
0.984767
 50
357.993348
 51
71.191207
  0
ARC
  8
APS_GEOMETRY
 10
-123.525866
 20
37.82926
 40
1.397933
 50
71.219129
 51
108.775441
  0
ARC
  8
APS_GEOMETRY
 10
-123.614367
 20
38.069055
 40
1.142433
 50
108.443904
 51
138.941081
  0
LINE
  8
APS_GEOMETRY
 10
-124.475801
 11
-124.242467
 20
38.819445
 21
40.152783
  0
LINE
  8
APS_GEOMETRY
 10
-124.242467
 11
-122.742467
 20
40.152783
 21
40.152783
  0
CIRCLE
  8
APS_GEOMETRY
 10
-95.954229
 20
31.985772
 40
0.3
  0
ARC
  8
APS_GEOMETRY
 10
-94.006277
 20
32.784903
 40
1.1194
 50
202.7274
 51
247.2726
  0
ARC
  8
APS_GEOMETRY
 10
-93.988759
 20
32.805396
 40
1.1451
 50
246.860287
 51
293.140726
  0
ARC
  8
APS_GEOMETRY
 10
-93.96451
 20
32.759273
 40
1.093167
 50
292.922067
 51
357.893283
  0
ARC
  8
APS_GEOMETRY
 10
-93.856245
 20
32.75357
 40
0.984767
 50
357.993348
 51
71.191207
  0
ARC
  8
APS_GEOMETRY
 10
-93.988809
 20
32.362247
 40
1.397933
 50
71.219129
 51
108.775441
  0
ARC
  8
APS_GEOMETRY
 10
-94.07731
 20
32.602041
 40
1.142433
 50
108.443904
 51
138.941081
  0
LINE
  8
APS_GEOMETRY
 10
-94.938744
 11
-94.70541
 20
33.352431
 21
34.685769
  0
LINE
  8
APS_GEOMETRY
 10
-94.70541
 11
-93.20541
 20
34.685769
 21
34.685769
  0
ENDSEC
  0
EOF
