  0
SECTION
  2
ENTITIES
  0
CIRCLE
  8
APS_GEOMETRY
 10
279.08638
 20
252.736011
 40
2.5
  0
CIRCLE
  8
APS_GEOMETRY
 10
294.798686
 20
261.972807
 40
2.5
  0
CIRCLE
  8
APS_GEOMETRY
 10
278.943233
 20
270.961666
 40
2.5
  0
CIRCLE
  8
APS_GEOMETRY
 10
311.13935
 20
271.008039
 40
1.8
  0
CIRCLE
  8
APS_GEOMETRY
 10
326.994803
 20
262.019181
 40
1.8
  0
CIRCLE
  8
APS_GEOMETRY
 10
311.282496
 20
252.782385
 40
1.8
  0
CIRCLE
  8
APS_GEOMETRY
 10
244.986178
 20
270.961666
 40
2.5
  0
CIRCLE
  8
APS_GEOMETRY
 10
260.841631
 20
261.972807
 40
2.5
  0
CIRCLE
  8
APS_GEOMETRY
 10
245.129325
 20
252.736011
 40
2.5
  0
CIRCLE
  8
APS_GEOMETRY
 10
250.319045
 20
261.890162
 40
3.25
  0
CIRCLE
  8
APS_GEOMETRY
 10
316.472216
 20
261.936535
 40
3.25
  0
CIRCLE
  8
APS_GEOMETRY
 10
267.097031
 20
311.610427
 40
2.0
  0
CIRCLE
  8
APS_GEOMETRY
 10
231.631987
 20
309.61047
 40
2.0
  0
CIRCLE
  8
APS_GEOMETRY
 10
231.631987
 20
339.835099
 40
2.0
  0
CIRCLE
  8
APS_GEOMETRY
 10
246.631987
 20
309.61047
 40
2.0
  0
CIRCLE
  8
APS_GEOMETRY
 10
246.631987
 20
339.835099
 40
2.0
  0
CIRCLE
  8
APS_GEOMETRY
 10
240.599889
 20
354.963082
 40
2.0
  0
CIRCLE
  8
APS_GEOMETRY
 10
240.599889
 20
385.187711
 40
2.0
  0
CIRCLE
  8
APS_GEOMETRY
 10
225.599889
 20
354.963082
 40
2.0
  0
CIRCLE
  8
APS_GEOMETRY
 10
225.599889
 20
385.187711
 40
2.0
  0
CIRCLE
  8
APS_GEOMETRY
 10
310.379633
 20
355.969669
 40
2.0
  0
CIRCLE
  8
APS_GEOMETRY
 10
310.379633
 20
386.194299
 40
2.0
  0
CIRCLE
  8
APS_GEOMETRY
 10
295.379633
 20
355.969669
 40
2.0
  0
CIRCLE
  8
APS_GEOMETRY
 10
295.379633
 20
386.194299
 40
2.0
  0
CIRCLE
  8
APS_GEOMETRY
 10
302.111986
 20
381.581984
 40
2.0
  0
CIRCLE
  8
APS_GEOMETRY
 10
275.771101
 20
355.257568
 40
2.0
  0
CIRCLE
  8
APS_GEOMETRY
 10
275.771101
 20
385.482198
 40
2.0
  0
CIRCLE
  8
APS_GEOMETRY
 10
260.771101
 20
355.257568
 40
2.0
  0
CIRCLE
  8
APS_GEOMETRY
 10
260.771101
 20
385.482198
 40
2.0
  0
CIRCLE
  8
APS_GEOMETRY
 10
282.119575
 20
332.347248
 40
1.4
  0
CIRCLE
  8
APS_GEOMETRY
 10
297.975028
 20
323.35839
 40
1.4
  0
CIRCLE
  8
APS_GEOMETRY
 10
297.831881
 20
341.584044
 40
1.4
  0
CIRCLE
  8
APS_GEOMETRY
 10
262.578565
 20
332.403535
 40
2.0
  0
CIRCLE
  8
APS_GEOMETRY
 10
437.019983
 20
379.410814
 40
0.5
  0
CIRCLE
  8
APS_GEOMETRY
 10
466.885664
 20
379.410814
 40
0.5
  0
CIRCLE
  8
APS_GEOMETRY
 10
189.682519
 20
322.724659
 40
0.5
  0
ARC
  8
APS_GEOMETRY
 10
284.276099
 20
261.890162
 40
13.522911
 50
22.731226
 51
98.168774
  0
ARC
  8
APS_GEOMETRY
 10
278.943233
 20
270.961666
 40
5.5
 50
51.665242
 51
189.234765
  0
ARC
  8
APS_GEOMETRY
 10
284.276099
 20
261.890161
 40
13.522911
 50
142.731221
 51
174.057628
  0
LINE
  8
APS_GEOMETRY
 10
270.825853
 11
276.626099
 20
263.290162
 21
263.290162
  0
LINE
  8
APS_GEOMETRY
 10
276.626099
 11
276.626099
 20
263.290162
 21
264.590162
  0
LINE
  8
APS_GEOMETRY
 10
276.626099
 11
278.826099
 20
264.590162
 21
264.590162
  0
LINE
  8
APS_GEOMETRY
 10
278.826099
 11
278.826099
 20
264.590162
 21
263.290162
  0
LINE
  8
APS_GEOMETRY
 10
278.826099
 11
281.343097
 20
263.290162
 21
263.290162
  0
ARC
  8
APS_GEOMETRY
 10
284.276099
 20
261.890162
 40
3.25
 50
205.516391
 51
25.516391
  0
ARC
  8
APS_GEOMETRY
 10
284.276099
 20
261.890162
 40
3.25
 50
25.516391
 51
154.483615
  0
LINE
  8
APS_GEOMETRY
 10
281.343097
 11
278.826099
 20
260.490162
 21
260.490162
  0
LINE
  8
APS_GEOMETRY
 10
278.826099
 11
278.826099
 20
260.490162
 21
259.190162
  0
LINE
  8
APS_GEOMETRY
 10
278.826099
 11
276.626099
 20
259.190162
 21
259.190162
  0
LINE
  8
APS_GEOMETRY
 10
276.626099
 11
276.626099
 20
259.190162
 21
260.490162
  0
LINE
  8
APS_GEOMETRY
 10
276.626099
 11
270.825853
 20
260.490162
 21
260.490162
  0
ARC
  8
APS_GEOMETRY
 10
284.276099
 20
261.890162
 40
13.522911
 50
185.942364
 51
218.168772
  0
ARC
  8
APS_GEOMETRY
 10
279.086379
 20
252.73601
 40
5.5
 50
171.665209
 51
309.234785
  0
ARC
  8
APS_GEOMETRY
 10
284.276099
 20
261.890161
 40
13.522911
 50
262.731229
 51
338.168777
  0
ARC
  8
APS_GEOMETRY
 10
294.798686
 20
261.972808
 40
5.5
 50
291.665229
 51
69.234774
  0
ARC
  8
APS_GEOMETRY
 10
260.841631
 20
261.972807
 40
5.5
 50
291.665233
 51
69.234767
  0
ARC
  8
APS_GEOMETRY
 10
250.319044
 20
261.890162
 40
13.522911
 50
22.731222
 51
98.168772
  0
ARC
  8
APS_GEOMETRY
 10
244.986178
 20
270.961666
 40
5.5
 50
51.665234
 51
189.234766
  0
ARC
  8
APS_GEOMETRY
 10
250.319045
 20
261.890162
 40
13.522911
 50
142.731226
 51
218.168775
  0
ARC
  8
APS_GEOMETRY
 10
245.129325
 20
252.736011
 40
5.5
 50
171.665224
 51
309.234765
  0
ARC
  8
APS_GEOMETRY
 10
250.319045
 20
261.890161
 40
13.522911
 50
262.731227
 51
338.168774
  0
ARC
  8
APS_GEOMETRY
 10
326.994803
 20
262.019181
 40
5.5
 50
291.665233
 51
69.234767
  0
ARC
  8
APS_GEOMETRY
 10
316.472217
 20
261.936535
 40
13.522911
 50
22.731227
 51
98.168774
  0
ARC
  8
APS_GEOMETRY
 10
311.13935
 20
271.008039
 40
5.5
 50
51.665234
 51
189.234765
  0
ARC
  8
APS_GEOMETRY
 10
316.472216
 20
261.936534
 40
13.522911
 50
142.731221
 51
218.168771
  0
ARC
  8
APS_GEOMETRY
 10
311.282496
 20
252.782385
 40
5.5
 50
171.665237
 51
309.234767
  0
ARC
  8
APS_GEOMETRY
 10
316.472216
 20
261.936535
 40
13.522911
 50
262.731222
 51
338.168775
  0
ARC
  8
APS_GEOMETRY
 10
228.782004
 20
272.765718
 40
1.0
 50
330.0
 51
30.0
  0
LINE
  8
APS_GEOMETRY
 10
229.648029
 11
228.435594
 20
273.265718
 21
275.365717
  0
LINE
  8
APS_GEOMETRY
 10
228.435594
 11
226.010723
 20
275.365717
 21
275.365717
  0
ARC
  8
APS_GEOMETRY
 10
226.010723
 20
274.365717
 40
1.0
 50
90.0
 51
150.0
  0
LINE
  8
APS_GEOMETRY
 10
225.144698
 11
223.932262
 20
274.865717
 21
272.765718
  0
LINE
  8
APS_GEOMETRY
 10
223.932262
 11
225.144698
 20
272.765718
 21
270.665718
  0
ARC
  8
APS_GEOMETRY
 10
226.010723
 20
271.165718
 40
1.0
 50
210.0
 51
269.999954
  0
LINE
  8
APS_GEOMETRY
 10
226.010723
 11
228.435594
 20
270.165718
 21
270.165718
  0
LINE
  8
APS_GEOMETRY
 10
228.435594
 11
229.648029
 20
270.165718
 21
272.265718
  0
ARC
  8
APS_GEOMETRY
 10
226.934484
 20
272.765718
 40
6.0
 50
79.776031
 51
85.223969
  0
ARC
  8
APS_GEOMETRY
 10
226.934484
 20
278.765718
 40
0.5
 50
182.387993
 51
357.611995
  0
ARC
  8
APS_GEOMETRY
 10
226.934485
 20
272.765718
 40
6.0
 50
94.776041
 51
100.223979
  0
ARC
  8
APS_GEOMETRY
 10
225.38157
 20
278.56127
 40
0.5
 50
197.387685
 51
12.612286
  0
ARC
  8
APS_GEOMETRY
 10
226.93449
 20
272.765721
 40
6.0
 50
109.776098
 51
115.224033
  0
ARC
  8
APS_GEOMETRY
 10
223.934487
 20
277.961865
 40
0.5
 50
212.387278
 51
27.612696
  0
ARC
  8
APS_GEOMETRY
 10
226.93448
 20
272.765715
 40
6.0
 50
124.775983
 51
130.223916
  0
ARC
  8
APS_GEOMETRY
 10
222.691853
 20
277.008348
 40
0.5
 50
227.386428
 51
42.613653
  0
ARC
  8
APS_GEOMETRY
 10
226.934485
 20
272.765719
 40
6.0
 50
139.776052
 51
145.22398
  0
ARC
  8
APS_GEOMETRY
 10
221.738337
 20
275.765715
 40
0.5
 50
242.387212
 51
57.612672
  0
ARC
  8
APS_GEOMETRY
 10
226.934488
 20
272.765727
 40
6.0
 50
154.776132
 51
160.224066
  0
ARC
  8
APS_GEOMETRY
 10
221.138934
 20
274.318631
 40
0.5
 50
257.387411
 51
72.61255
  0
ARC
  8
APS_GEOMETRY
 10
226.934484
 20
272.76572
 40
6.0
 50
169.776057
 51
175.22399
  0
ARC
  8
APS_GEOMETRY
 10
220.934484
 20
272.765718
 40
0.5
 50
272.387993
 51
87.611995
  0
ARC
  8
APS_GEOMETRY
 10
226.934484
 20
272.765719
 40
6.0
 50
184.776041
 51
190.223979
  0
ARC
  8
APS_GEOMETRY
 10
221.138932
 20
271.212804
 40
0.5
 50
287.387685
 51
102.612286
  0
ARC
  8
APS_GEOMETRY
 10
226.934481
 20
272.765724
 40
6.0
 50
199.776098
 51
205.224033
  0
ARC
  8
APS_GEOMETRY
 10
221.73833
 20
269.765717
 40
0.5
 50
302.388085
 51
117.611759
  0
ARC
  8
APS_GEOMETRY
 10
226.934476
 20
272.765728
 40
6.0
 50
214.776154
 51
220.224095
  0
ARC
  8
APS_GEOMETRY
 10
222.691843
 20
268.523077
 40
0.5
 50
317.388008
 51
132.611872
  0
ARC
  8
APS_GEOMETRY
 10
226.934476
 20
272.765724
 40
6.0
 50
229.776125
 51
235.224061
  0
ARC
  8
APS_GEOMETRY
 10
223.93449
 20
267.569575
 40
0.5
 50
332.386649
 51
147.613246
  0
ARC
  8
APS_GEOMETRY
 10
226.934475
 20
272.765722
 40
6.0
 50
244.776132
 51
250.224066
  0
ARC
  8
APS_GEOMETRY
 10
225.381566
 20
266.970151
 40
0.5
 50
347.389454
 51
162.610484
  0
ARC
  8
APS_GEOMETRY
 10
226.934483
 20
272.765718
 40
6.0
 50
259.776035
 51
265.223981
  0
ARC
  8
APS_GEOMETRY
 10
226.934484
 20
266.765719
 40
0.5
 50
2.387835
 51
177.612171
  0
ARC
  8
APS_GEOMETRY
 10
226.934483
 20
272.765718
 40
6.0
 50
274.776041
 51
280.223979
  0
ARC
  8
APS_GEOMETRY
 10
228.487399
 20
266.970161
 40
0.5
 50
17.388305
 51
192.611702
  0
ARC
  8
APS_GEOMETRY
 10
226.934485
 20
272.765718
 40
6.0
 50
289.776021
 51
295.223956
  0
ARC
  8
APS_GEOMETRY
 10
229.934482
 20
267.569569
 40
0.5
 50
32.387485
 51
207.612397
  0
ARC
  8
APS_GEOMETRY
 10
226.934474
 20
272.76571
 40
6.0
 50
304.776154
 51
310.224095
  0
ARC
  8
APS_GEOMETRY
 10
231.177134
 20
268.523068
 40
0.5
 50
47.389547
 51
222.610454
  0
ARC
  8
APS_GEOMETRY
 10
226.934486
 20
272.765721
 40
6.0
 50
319.77599
 51
325.22394
  0
ARC
  8
APS_GEOMETRY
 10
232.130641
 20
269.765716
 40
0.5
 50
62.388658
 51
237.611423
  0
ARC
  8
APS_GEOMETRY
 10
226.934485
 20
272.765722
 40
6.0
 50
334.775994
 51
340.223934
  0
ARC
  8
APS_GEOMETRY
 10
232.730051
 20
271.2128
 40
0.5
 50
77.389404
 51
252.610508
  0
ARC
  8
APS_GEOMETRY
 10
226.934484
 20
272.765717
 40
6.0
 50
349.776035
 51
355.223981
  0
ARC
  8
APS_GEOMETRY
 10
232.934483
 20
272.765718
 40
0.5
 50
92.387835
 51
267.612171
  0
ARC
  8
APS_GEOMETRY
 10
226.934484
 20
272.765717
 40
6.0
 50
4.776041
 51
10.223979
  0
ARC
  8
APS_GEOMETRY
 10
232.730041
 20
274.318633
 40
0.5
 50
107.388305
 51
282.611702
  0
ARC
  8
APS_GEOMETRY
 10
226.934484
 20
272.765719
 40
6.0
 50
19.776021
 51
25.223956
  0
ARC
  8
APS_GEOMETRY
 10
232.130626
 20
275.765712
 40
0.5
 50
122.386678
 51
297.613334
  0
ARC
  8
APS_GEOMETRY
 10
226.934481
 20
272.765722
 40
6.0
 50
34.775983
 51
40.223916
  0
ARC
  8
APS_GEOMETRY
 10
231.177123
 20
277.008357
 40
0.5
 50
137.387967
 51
312.612235
  0
ARC
  8
APS_GEOMETRY
 10
226.934469
 20
272.765729
 40
6.0
 50
49.775859
 51
55.223794
  0
ARC
  8
APS_GEOMETRY
 10
229.934484
 20
277.96187
 40
0.5
 50
152.388058
 51
327.612069
  0
ARC
  8
APS_GEOMETRY
 10
226.93448
 20
272.765719
 40
6.0
 50
64.775994
 51
70.223934
  0
ARC
  8
APS_GEOMETRY
 10
228.487399
 20
278.561274
 40
0.5
 50
167.388187
 51
342.611767
  0
ARC
  8
APS_GEOMETRY
 10
229.362721
 20
253.602065
 40
1.0
 50
330.0
 51
30.0
  0
LINE
  8
APS_GEOMETRY
 10
230.228746
 11
229.016311
 20
254.102065
 21
256.202065
  0
LINE
  8
APS_GEOMETRY
 10
229.016311
 11
226.59144
 20
256.202065
 21
256.202065
  0
ARC
  8
APS_GEOMETRY
 10
226.59144
 20
255.202065
 40
1.0
 50
90.0
 51
150.0
  0
LINE
  8
APS_GEOMETRY
 10
225.725415
 11
224.512979
 20
255.702065
 21
253.602065
  0
LINE
  8
APS_GEOMETRY
 10
224.512979
 11
225.725415
 20
253.602065
 21
251.502065
  0
ARC
  8
APS_GEOMETRY
 10
226.59144
 20
252.002065
 40
1.0
 50
210.0
 51
269.999954
  0
LINE
  8
APS_GEOMETRY
 10
226.59144
 11
229.016311
 20
251.002065
 21
251.002065
  0
LINE
  8
APS_GEOMETRY
 10
229.016311
 11
230.228746
 20
251.002065
 21
253.102065
  0
ARC
  8
APS_GEOMETRY
 10
227.5152
 20
253.602065
 40
6.0
 50
79.776031
 51
85.223969
  0
ARC
  8
APS_GEOMETRY
 10
227.5152
 20
259.602065
 40
0.5
 50
182.387993
 51
357.611995
  0
ARC
  8
APS_GEOMETRY
 10
227.515201
 20
253.602065
 40
6.0
 50
94.776041
 51
100.223979
  0
ARC
  8
APS_GEOMETRY
 10
225.962285
 20
259.397622
 40
0.5
 50
197.388305
 51
12.611702
  0
ARC
  8
APS_GEOMETRY
 10
227.515199
 20
253.602065
 40
6.0
 50
109.776021
 51
115.223956
  0
ARC
  8
APS_GEOMETRY
 10
224.515206
 20
258.798207
 40
0.5
 50
212.386678
 51
27.613334
  0
ARC
  8
APS_GEOMETRY
 10
227.515196
 20
253.602062
 40
6.0
 50
124.775983
 51
130.223916
  0
ARC
  8
APS_GEOMETRY
 10
223.272561
 20
257.844704
 40
0.5
 50
227.387967
 51
42.612235
  0
ARC
  8
APS_GEOMETRY
 10
227.515189
 20
253.60205
 40
6.0
 50
139.775859
 51
145.223794
  0
ARC
  8
APS_GEOMETRY
 10
222.319048
 20
256.602065
 40
0.5
 50
242.388058
 51
57.612069
  0
ARC
  8
APS_GEOMETRY
 10
227.515199
 20
253.602061
 40
6.0
 50
154.775994
 51
160.223934
  0
ARC
  8
APS_GEOMETRY
 10
221.71965
 20
255.154977
 40
0.5
 50
257.387362
 51
72.612574
  0
ARC
  8
APS_GEOMETRY
 10
227.5152
 20
253.602067
 40
6.0
 50
169.776057
 51
175.22399
  0
ARC
  8
APS_GEOMETRY
 10
221.5152
 20
253.602065
 40
0.5
 50
272.387993
 51
87.611995
  0
ARC
  8
APS_GEOMETRY
 10
227.5152
 20
253.602066
 40
6.0
 50
184.776041
 51
190.223979
  0
ARC
  8
APS_GEOMETRY
 10
221.719648
 20
252.049151
 40
0.5
 50
287.387685
 51
102.612286
  0
ARC
  8
APS_GEOMETRY
 10
227.515197
 20
253.602071
 40
6.0
 50
199.776098
 51
205.224033
  0
ARC
  8
APS_GEOMETRY
 10
222.319053
 20
250.602068
 40
0.5
 50
302.387278
 51
117.612696
  0
ARC
  8
APS_GEOMETRY
 10
227.515203
 20
253.602061
 40
6.0
 50
214.775983
 51
220.223916
  0
ARC
  8
APS_GEOMETRY
 10
223.27257
 20
249.359434
 40
0.5
 50
317.386428
 51
132.613653
  0
ARC
  8
APS_GEOMETRY
 10
227.515199
 20
253.602066
 40
6.0
 50
229.776052
 51
235.22398
  0
ARC
  8
APS_GEOMETRY
 10
224.515203
 20
248.405918
 40
0.5
 50
332.387212
 51
147.612672
  0
ARC
  8
APS_GEOMETRY
 10
227.515191
 20
253.602069
 40
6.0
 50
244.776132
 51
250.224066
  0
ARC
  8
APS_GEOMETRY
 10
225.962287
 20
247.806515
 40
0.5
 50
347.387411
 51
162.61255
  0
ARC
  8
APS_GEOMETRY
 10
227.515198
 20
253.602065
 40
6.0
 50
259.776057
 51
265.22399
  0
ARC
  8
APS_GEOMETRY
 10
227.5152
 20
247.602065
 40
0.5
 50
2.387993
 51
177.611995
  0
ARC
  8
APS_GEOMETRY
 10
227.515199
 20
253.602065
 40
6.0
 50
274.776041
 51
280.223979
  0
ARC
  8
APS_GEOMETRY
 10
229.068114
 20
247.806513
 40
0.5
 50
17.387685
 51
192.612286
  0
ARC
  8
APS_GEOMETRY
 10
227.515194
 20
253.602062
 40
6.0
 50
289.776098
 51
295.224033
  0
ARC
  8
APS_GEOMETRY
 10
230.515201
 20
248.405911
 40
0.5
 50
32.388085
 51
207.611759
  0
ARC
  8
APS_GEOMETRY
 10
227.51519
 20
253.602057
 40
6.0
 50
304.776154
 51
310.224095
  0
ARC
  8
APS_GEOMETRY
 10
231.757841
 20
249.359424
 40
0.5
 50
47.388008
 51
222.611872
  0
ARC
  8
APS_GEOMETRY
 10
227.515194
 20
253.602057
 40
6.0
 50
319.776125
 51
325.224061
  0
ARC
  8
APS_GEOMETRY
 10
232.711343
 20
250.602071
 40
0.5
 50
62.386649
 51
237.613246
  0
ARC
  8
APS_GEOMETRY
 10
227.515196
 20
253.602056
 40
6.0
 50
334.776132
 51
340.224066
  0
ARC
  8
APS_GEOMETRY
 10
233.310767
 20
252.049147
 40
0.5
 50
77.389454
 51
252.610484
  0
ARC
  8
APS_GEOMETRY
 10
227.5152
 20
253.602064
 40
6.0
 50
349.776035
 51
355.223981
  0
ARC
  8
APS_GEOMETRY
 10
233.515199
 20
253.602065
 40
0.5
 50
92.387835
 51
267.612171
  0
ARC
  8
APS_GEOMETRY
 10
227.5152
 20
253.602064
 40
6.0
 50
4.776041
 51
10.223979
  0
ARC
  8
APS_GEOMETRY
 10
233.310757
 20
255.15498
 40
0.5
 50
107.388305
 51
282.611702
  0
ARC
  8
APS_GEOMETRY
 10
227.5152
 20
253.602066
 40
6.0
 50
19.776021
 51
25.223956
  0
ARC
  8
APS_GEOMETRY
 10
232.711349
 20
256.602063
 40
0.5
 50
122.387485
 51
297.612397
  0
ARC
  8
APS_GEOMETRY
 10
227.515208
 20
253.602055
 40
6.0
 50
34.776154
 51
40.224095
  0
ARC
  8
APS_GEOMETRY
 10
231.75785
 20
257.844715
 40
0.5
 50
137.389547
 51
312.610454
  0
ARC
  8
APS_GEOMETRY
 10
227.515197
 20
253.602067
 40
6.0
 50
49.77599
 51
55.22394
  0
ARC
  8
APS_GEOMETRY
 10
230.515202
 20
258.798222
 40
0.5
 50
152.388658
 51
327.611423
  0
ARC
  8
APS_GEOMETRY
 10
227.515196
 20
253.602066
 40
6.0
 50
64.775994
 51
70.223934
  0
ARC
  8
APS_GEOMETRY
 10
229.068115
 20
259.397621
 40
0.5
 50
167.388187
 51
342.611767
  0
ARC
  8
APS_GEOMETRY
 10
234.832241
 20
358.575397
 40
1.0
 50
90.0
 51
180.0
  0
LINE
  8
APS_GEOMETRY
 10
233.832241
 11
233.832241
 20
358.575397
 21
348.963082
  0
LINE
  8
APS_GEOMETRY
 10
233.832241
 11
251.59992
 20
348.963082
 21
348.96304
  0
LINE
  8
APS_GEOMETRY
 10
251.59992
 11
251.59992
 20
348.96304
 21
351.963082
  0
LINE
  8
APS_GEOMETRY
 10
251.59992
 11
246.599875
 20
351.963082
 21
351.963082
  0
LINE
  8
APS_GEOMETRY
 10
246.599875
 11
246.599875
 20
351.963082
 21
362.063082
  0
LINE
  8
APS_GEOMETRY
 10
246.599875
 11
251.59992
 20
362.063082
 21
362.063082
  0
LINE
  8
APS_GEOMETRY
 10
251.59992
 11
251.59992
 20
362.063082
 21
378.087711
  0
LINE
  8
APS_GEOMETRY
 10
251.59992
 11
246.599875
 20
378.087711
 21
378.087711
  0
LINE
  8
APS_GEOMETRY
 10
246.599875
 11
246.599875
 20
378.087711
 21
388.187711
  0
LINE
  8
APS_GEOMETRY
 10
246.599875
 11
251.59992
 20
388.187711
 21
388.187711
  0
LINE
  8
APS_GEOMETRY
 10
251.59992
 11
251.59992
 20
388.187711
 21
391.187669
  0
LINE
  8
APS_GEOMETRY
 10
251.59992
 11
223.332241
 20
391.187669
 21
391.187711
  0
ARC
  8
APS_GEOMETRY
 10
223.332241
 20
388.187711
 40
3.0
 50
90.0
 51
180.0
  0
LINE
  8
APS_GEOMETRY
 10
220.332241
 11
220.332241
 20
388.187711
 21
351.963082
  0
ARC
  8
APS_GEOMETRY
 10
223.332241
 20
351.963082
 40
3.0
 50
180.0
 51
270.0
  0
LINE
  8
APS_GEOMETRY
 10
223.332241
 11
230.832241
 20
348.963082
 21
348.963082
  0
LINE
  8
APS_GEOMETRY
 10
230.832241
 11
230.832241
 20
348.963082
 21
358.575397
  0
ARC
  8
APS_GEOMETRY
 10
229.832241
 20
358.575397
 40
1.0
 50
0.0
 51
90.0
  0
LINE
  8
APS_GEOMETRY
 10
229.832241
 11
228.082241
 20
359.575397
 21
359.575397
  0
LINE
  8
APS_GEOMETRY
 10
228.082241
 11
228.082241
 20
359.575397
 21
380.575397
  0
LINE
  8
APS_GEOMETRY
 10
228.082241
 11
236.582241
 20
380.575397
 21
380.575397
  0
LINE
  8
APS_GEOMETRY
 10
236.582241
 11
236.582241
 20
380.575397
 21
359.575397
  0
LINE
  8
APS_GEOMETRY
 10
236.582241
 11
234.832241
 20
359.575397
 21
359.575397
  0
ARC
  8
APS_GEOMETRY
 10
293.111986
 20
352.969669
 40
3.0
 50
180.0
 51
270.0
  0
LINE
  8
APS_GEOMETRY
 10
293.111986
 11
321.379665
 20
349.969669
 21
349.969669
  0
LINE
  8
APS_GEOMETRY
 10
321.379665
 11
321.379665
 20
349.969669
 21
392.194299
  0
LINE
  8
APS_GEOMETRY
 10
321.379665
 11
293.111986
 20
392.194299
 21
392.194299
  0
ARC
  8
APS_GEOMETRY
 10
293.111986
 20
389.194299
 40
3.0
 50
90.0
 51
180.0
  0
LINE
  8
APS_GEOMETRY
 10
290.111986
 11
290.111986
 20
389.194299
 21
352.969669
  0
ARC
  8
APS_GEOMETRY
 10
258.503453
 20
352.257568
 40
3.0
 50
180.0
 51
270.0
  0
LINE
  8
APS_GEOMETRY
 10
258.503453
 11
286.771132
 20
349.257568
 21
349.257526
  0
LINE
  8
APS_GEOMETRY
 10
286.771132
 11
286.771132
 20
349.257526
 21
352.257568
  0
LINE
  8
APS_GEOMETRY
 10
286.771132
 11
281.771087
 20
352.257568
 21
352.257568
  0
LINE
  8
APS_GEOMETRY
 10
281.771087
 11
281.771087
 20
352.257568
 21
362.357568
  0
LINE
  8
APS_GEOMETRY
 10
281.771087
 11
286.771132
 20
362.357568
 21
362.357568
  0
LINE
  8
APS_GEOMETRY
 10
286.771132
 11
286.771132
 20
362.357568
 21
378.382198
  0
LINE
  8
APS_GEOMETRY
 10
286.771132
 11
281.771087
 20
378.382198
 21
378.382198
  0
LINE
  8
APS_GEOMETRY
 10
281.771087
 11
281.771087
 20
378.382198
 21
388.482198
  0
LINE
  8
APS_GEOMETRY
 10
281.771087
 11
286.771132
 20
388.482198
 21
388.482198
  0
LINE
  8
APS_GEOMETRY
 10
286.771132
 11
286.771132
 20
388.482198
 21
391.482156
  0
LINE
  8
APS_GEOMETRY
 10
286.771132
 11
258.503453
 20
391.482156
 21
391.482198
  0
ARC
  8
APS_GEOMETRY
 10
258.503453
 20
388.482198
 40
3.0
 50
90.0
 51
180.0
  0
LINE
  8
APS_GEOMETRY
 10
255.503453
 11
255.503453
 20
388.482198
 21
352.257568
  0
ARC
  8
APS_GEOMETRY
 10
275.021062
 20
342.950671
 40
3.0
 50
90.00694
 51
149.160448
  0
ARC
  8
APS_GEOMETRY
 10
292.642163
 20
332.429897
 40
23.522911
 50
149.160456
 51
155.497329
  0
ARC
  8
APS_GEOMETRY
 10
268.507854
 20
343.429894
 40
3.0
 50
270.000001
 51
335.497333
  0
LINE
  8
APS_GEOMETRY
 10
268.507854
 11
262.57546
 20
340.429894
 21
340.429894
  0
ARC
  8
APS_GEOMETRY
 10
262.57546
 20
332.429894
 40
8.0
 50
90.0
 51
270.0
  0
LINE
  8
APS_GEOMETRY
 10
262.57546
 11
268.507854
 20
324.429894
 21
324.429894
  0
ARC
  8
APS_GEOMETRY
 10
268.507854
 20
321.429894
 40
3.0
 50
24.502678
 51
90.0
  0
ARC
  8
APS_GEOMETRY
 10
292.64216
 20
332.429898
 40
23.522911
 50
204.502687
 51
210.845229
  0
ARC
  8
APS_GEOMETRY
 10
275.022104
 20
321.907374
 40
3.0
 50
210.845211
 51
269.99871
  0
LINE
  8
APS_GEOMETRY
 10
275.022037
 11
292.641861
 20
318.907374
 21
318.906983
  0
ARC
  8
APS_GEOMETRY
 10
292.642162
 20
332.429894
 40
13.522911
 50
269.998725
 51
89.998725
  0
LINE
  8
APS_GEOMETRY
 10
292.642463
 11
275.020699
 20
345.952805
 21
345.950671
  0
ARC
  8
APS_GEOMETRY
 10
292.642162
 20
332.429894
 40
13.522911
 50
143.730179
 51
216.269821
  0
LINE
  8
APS_GEOMETRY
 10
281.73945
 11
275.935928
 20
324.429894
 21
324.429894
  0
ARC
  8
APS_GEOMETRY
 10
292.642162
 20
332.429893
 40
18.522911
 50
154.411953
 51
205.58804
  0
LINE
  8
APS_GEOMETRY
 10
275.935929
 11
281.73945
 20
340.429894
 21
340.429894
  0
ARC
  8
APS_GEOMETRY
 10
254.899603
 20
322.610427
 40
3.0
 50
180.0
 51
270.0
  0
LINE
  8
APS_GEOMETRY
 10
254.899603
 11
267.097031
 20
319.610427
 21
319.610427
  0
ARC
  8
APS_GEOMETRY
 10
267.097031
 20
311.610427
 40
8.0
 50
270.0
 51
90.0
  0
LINE
  8
APS_GEOMETRY
 10
267.097031
 11
220.631956
 20
303.610427
 21
303.610427
  0
LINE
  8
APS_GEOMETRY
 10
220.631956
 11
220.631956
 20
303.610427
 21
345.835099
  0
LINE
  8
APS_GEOMETRY
 10
220.631956
 11
248.899635
 20
345.835099
 21
345.835099
  0
ARC
  8
APS_GEOMETRY
 10
248.899603
 20
342.835099
 40
3.0
 50
359.999191
 51
89.999389
  0
LINE
  8
APS_GEOMETRY
 10
251.899603
 11
251.899603
 20
342.835057
 21
322.610427
  0
ARC
  8
APS_GEOMETRY
 10
349.024875
 20
380.742698
 40
1.865667
 50
202.7274
 51
247.2726
  0
ARC
  8
APS_GEOMETRY
 10
349.054071
 20
380.776854
 40
1.9085
 50
246.860317
 51
293.140751
  0
ARC
  8
APS_GEOMETRY
 10
349.094486
 20
380.699984
 40
1.821945
 50
292.922061
 51
357.893223
  0
ARC
  8
APS_GEOMETRY
 10
349.274928
 20
380.690476
 40
1.641278
 50
357.993337
 51
71.191207
  0
ARC
  8
APS_GEOMETRY
 10
349.053987
 20
380.038271
 40
2.329889
 50
71.219134
 51
108.775457
  0
ARC
  8
APS_GEOMETRY
 10
348.906486
 20
380.437928
 40
1.904056
 50
108.443889
 51
138.941049
  0
LINE
  8
APS_GEOMETRY
 10
347.470763
 11
347.859652
 20
381.688579
 21
383.910809
  0
LINE
  8
APS_GEOMETRY
 10
347.859652
 11
350.359653
 20
383.910809
 21
383.910809
  0
LINE
  8
APS_GEOMETRY
 10
354.048955
 11
354.048993
 20
378.908919
 21
381.208935
  0
ARC
  8
APS_GEOMETRY
 10
353.203455
 20
381.21338
 40
0.84555
 50
359.698802
 51
90.305782
  0
ARC
  8
APS_GEOMETRY
 10
353.197805
 20
380.604518
 40
1.4544
 50
89.9552
 51
153.259792
  0
LINE
  8
APS_GEOMETRY
 10
356.198955
 11
356.198993
 20
378.908919
 21
381.208935
  0
ARC
  8
APS_GEOMETRY
 10
355.353455
 20
381.21338
 40
0.84555
 50
359.698802
 51
90.305782
  0
ARC
  8
APS_GEOMETRY
 10
355.347805
 20
380.604518
 40
1.4544
 50
89.9552
 51
153.259792
  0
LINE
  8
APS_GEOMETRY
 10
359.349016
 11
359.349053
 20
378.908919
 21
381.208935
  0
ARC
  8
APS_GEOMETRY
 10
358.503515
 20
381.21338
 40
0.84555
 50
359.698802
 51
90.305782
  0
ARC
  8
APS_GEOMETRY
 10
358.497866
 20
380.604518
 40
1.4544
 50
89.95524
 51
153.259792
  0
LINE
  8
APS_GEOMETRY
 10
361.499016
 11
361.499053
 20
378.908919
 21
381.208935
  0
ARC
  8
APS_GEOMETRY
 10
360.653515
 20
381.21338
 40
0.84555
 50
359.698802
 51
90.305782
  0
ARC
  8
APS_GEOMETRY
 10
360.647866
 20
380.604518
 40
1.4544
 50
89.95524
 51
153.259792
  0
ARC
  8
APS_GEOMETRY
 10
372.190142
 20
381.41253
 40
3.039389
 50
31.026839
 51
40.045456
  0
ARC
  8
APS_GEOMETRY
 10
373.239103
 20
382.344824
 40
1.637
 50
38.687081
 51
141.311845
  0
ARC
  8
APS_GEOMETRY
 10
374.326439
 20
381.451436
 40
3.044222
 50
140.979287
 51
219.021899
  0
ARC
  8
APS_GEOMETRY
 10
373.239151
 20
380.557989
 40
1.637
 50
218.687704
 51
321.312606
  0
ARC
  8
APS_GEOMETRY
 10
372.171413
 20
381.319849
 40
2.947556
 50
322.726464
 51
335.345779
  0
LINE
  8
APS_GEOMETRY
 10
375.889356
 11
378.278245
 20
381.353363
 21
381.353363
  0
ARC
  8
APS_GEOMETRY
 10
378.278245
 20
382.631141
 40
1.277778
 50
270.0
 51
90.0
  0
LINE
  8
APS_GEOMETRY
 10
378.278245
 11
375.889356
 20
383.908919
 21
383.908919
  0
LINE
  8
APS_GEOMETRY
 10
375.889356
 11
375.889356
 20
383.908919
 21
378.908919
  0
ARC
  8
APS_GEOMETRY
 10
392.003682
 20
381.41253
 40
3.039389
 50
31.026839
 51
40.045456
  0
ARC
  8
APS_GEOMETRY
 10
393.052644
 20
382.344823
 40
1.637
 50
38.687131
 51
141.311812
  0
ARC
  8
APS_GEOMETRY
 10
394.139979
 20
381.451434
 40
3.044222
 50
140.979257
 51
219.021871
  0
ARC
  8
APS_GEOMETRY
 10
393.052691
 20
380.557988
 40
1.637
 50
218.687673
 51
321.312684
  0
ARC
  8
APS_GEOMETRY
 10
391.98495
 20
381.319844
 40
2.947556
 50
322.726613
 51
335.345902
  0
ARC
  8
APS_GEOMETRY
 10
408.317745
 20
381.299806
 40
7.7701
 50
159.4697
 51
200.5303
  0
ARC
  8
APS_GEOMETRY
 10
403.58499
 20
381.942178
 40
2.055222
 50
42.9037
 51
122.5462
  0
ARC
  8
APS_GEOMETRY
 10
403.057425
 20
382.794792
 40
1.052778
 50
123.306748
 51
253.425484
  0
LINE
  8
APS_GEOMETRY
 10
402.757108
 11
404.423768
 20
381.785758
 21
381.230178
  0
ARC
  8
APS_GEOMETRY
 10
404.084427
 20
380.153674
 40
1.128722
 50
299.837953
 51
72.503841
  0
ARC
  8
APS_GEOMETRY
 10
403.562734
 20
381.052855
 40
2.168278
 50
240.022537
 51
299.974014
  0
ARC
  8
APS_GEOMETRY
 10
403.072189
 20
380.21215
 40
1.194945
 50
209.759191
 51
240.255317
  0
ARC
  8
APS_GEOMETRY
 10
419.023747
 20
381.41253
 40
3.039389
 50
31.026839
 51
40.045456
  0
ARC
  8
APS_GEOMETRY
 10
420.072708
 20
382.344824
 40
1.637
 50
38.687081
 51
141.311845
  0
ARC
  8
APS_GEOMETRY
 10
421.160043
 20
381.451435
 40
3.044222
 50
140.97926
 51
219.021883
  0
ARC
  8
APS_GEOMETRY
 10
420.072755
 20
380.557988
 40
1.637
 50
218.687673
 51
321.312684
  0
ARC
  8
APS_GEOMETRY
 10
419.005014
 20
381.319844
 40
2.947556
 50
322.726613
 51
335.345902
  0
ARC
  8
APS_GEOMETRY
 10
440.088282
 20
383.471994
 40
2.166445
 50
295.9876
 51
313.9964
  0
ARC
  8
APS_GEOMETRY
 10
440.84387
 20
382.691241
 40
1.079944
 50
313.930816
 51
46.072422
  0
ARC
  8
APS_GEOMETRY
 10
440.370848
 20
382.003178
 40
1.908556
 50
50.178674
 51
129.819545
  0
ARC
  8
APS_GEOMETRY
 10
439.781627
 20
382.719086
 40
0.981389
 50
130.163222
 51
229.839379
  0
ARC
  8
APS_GEOMETRY
 10
440.242616
 20
383.269556
 40
1.699389
 50
229.930739
 51
276.210475
  0
ARC
  8
APS_GEOMETRY
 10
440.610382
 20
379.890734
 40
1.699389
 50
49.934474
 51
96.213276
  0
ARC
  8
APS_GEOMETRY
 10
441.005114
 20
380.246827
 40
1.175056
 50
306.509538
 51
53.490757
  0
ARC
  8
APS_GEOMETRY
 10
440.370904
 20
381.097763
 40
2.236333
 50
233.400661
 51
306.598736
  0
ARC
  8
APS_GEOMETRY
 10
439.736682
 20
380.246835
 40
1.175056
 50
126.510194
 51
233.489978
  0
ARC
  8
APS_GEOMETRY
 10
441.183289
 20
378.338918
 40
3.569334
 50
112.535161
 51
126.952698
  0
ARC
  8
APS_GEOMETRY
 10
449.366125
 20
380.563488
 40
1.637
 50
218.6887
 51
321.3113
  0
ARC
  8
APS_GEOMETRY
 10
448.278819
 20
381.456912
 40
3.044222
 50
320.978111
 51
39.020718
  0
ARC
  8
APS_GEOMETRY
 10
449.366154
 20
382.350302
 40
1.637
 50
38.688112
 51
141.312872
  0
ARC
  8
APS_GEOMETRY
 10
450.45346
 20
381.456877
 40
3.044222
 50
140.978953
 51
219.021029
  0
LINE
  8
APS_GEOMETRY
 10
451.810864
 11
454.199753
 20
381.353363
 21
381.353363
  0
ARC
  8
APS_GEOMETRY
 10
454.199753
 20
382.631141
 40
1.277778
 50
270.0
 51
90.0
  0
LINE
  8
APS_GEOMETRY
 10
454.199753
 11
451.810864
 20
383.908919
 21
383.908919
  0
LINE
  8
APS_GEOMETRY
 10
451.810864
 11
451.810864
 20
383.908919
 21
378.908919
  0
ARC
  8
APS_GEOMETRY
 10
469.983066
 20
380.483909
 40
1.637
 50
218.687092
 51
321.311843
  0
ARC
  8
APS_GEOMETRY
 10
468.89573
 20
381.377297
 40
3.044222
 50
320.979287
 51
39.021899
  0
ARC
  8
APS_GEOMETRY
 10
469.983028
 20
382.270732
 40
1.637
 50
38.688225
 51
141.311624
  0
ARC
  8
APS_GEOMETRY
 10
469.733531
 20
382.460658
 40
1.323556
 50
140.977922
 51
219.022241
  0
ARC
  8
APS_GEOMETRY
 10
470.066385
 20
382.717315
 40
1.743778
 50
218.687901
 51
321.311934
  0
ARC
  8
APS_GEOMETRY
 10
470.183759
 20
382.63939
 40
1.6035
 50
320.863775
 51
349.585924
  0
LINE
  8
APS_GEOMETRY
 10
489.614103
 11
492.002992
 20
381.353363
 21
381.353363
  0
ARC
  8
APS_GEOMETRY
 10
492.002992
 20
382.631141
 40
1.277778
 50
270.0
 51
90.0
  0
LINE
  8
APS_GEOMETRY
 10
492.002992
 11
489.614103
 20
383.908919
 21
383.908919
  0
LINE
  8
APS_GEOMETRY
 10
489.614103
 11
489.614103
 20
383.908919
 21
378.908919
  0
ARC
  8
APS_GEOMETRY
 10
495.749833
 20
380.563488
 40
1.637
 50
218.6887
 51
321.3113
  0
ARC
  8
APS_GEOMETRY
 10
494.662527
 20
381.456912
 40
3.044222
 50
320.978111
 51
39.020718
  0
ARC
  8
APS_GEOMETRY
 10
495.749862
 20
382.350302
 40
1.637
 50
38.688112
 51
141.312872
  0
ARC
  8
APS_GEOMETRY
 10
496.837168
 20
381.456877
 40
3.044222
 50
140.978953
 51
219.021029
  0
ARC
  8
APS_GEOMETRY
 10
499.833162
 20
381.942178
 40
2.055222
 50
42.9037
 51
122.5462
  0
ARC
  8
APS_GEOMETRY
 10
499.305597
 20
382.794792
 40
1.052778
 50
123.306748
 51
253.425484
  0
LINE
  8
APS_GEOMETRY
 10
499.00528
 11
500.67194
 20
381.785758
 21
381.230178
  0
ARC
  8
APS_GEOMETRY
 10
500.332599
 20
380.153674
 40
1.128722
 50
299.837953
 51
72.503841
  0
ARC
  8
APS_GEOMETRY
 10
499.810906
 20
381.052855
 40
2.168278
 50
240.022537
 51
299.974014
  0
ARC
  8
APS_GEOMETRY
 10
499.320361
 20
380.21215
 40
1.194945
 50
209.759191
 51
240.255317
  0
ARC
  8
APS_GEOMETRY
 10
504.041664
 20
381.942178
 40
2.055222
 50
42.9037
 51
122.5462
  0
ARC
  8
APS_GEOMETRY
 10
503.514101
 20
382.794793
 40
1.052778
 50
123.306817
 51
253.425464
  0
LINE
  8
APS_GEOMETRY
 10
503.213783
 11
504.880442
 20
381.785758
 21
381.230178
  0
ARC
  8
APS_GEOMETRY
 10
504.541101
 20
380.153674
 40
1.128722
 50
299.837953
 51
72.503841
  0
ARC
  8
APS_GEOMETRY
 10
504.019408
 20
381.052855
 40
2.168278
 50
240.022537
 51
299.974014
  0
ARC
  8
APS_GEOMETRY
 10
503.528865
 20
380.212149
 40
1.194945
 50
209.759132
 51
240.255199
  0
LINE
  8
APS_GEOMETRY
 10
509.96817
 11
511.96817
 20
381.52003
 21
381.52003
  0
ARC
  8
APS_GEOMETRY
 10
511.96817
 20
382.714475
 40
1.194445
 50
270.0
 51
90.0
  0
LINE
  8
APS_GEOMETRY
 10
511.96817
 11
509.96817
 20
383.90892
 21
383.908919
  0
LINE
  8
APS_GEOMETRY
 10
509.96817
 11
509.96817
 20
383.908919
 21
378.908919
  0
LINE
  8
APS_GEOMETRY
 10
509.96817
 11
512.023726
 20
378.908919
 21
378.908919
  0
ARC
  8
APS_GEOMETRY
 10
512.023726
 20
380.214475
 40
1.305556
 50
270.00001
 51
89.999985
  0
ARC
  8
APS_GEOMETRY
 10
515.322187
 20
381.38111
 40
7.8414
 50
339.4697
 51
20.5303
  0
ARC
  8
APS_GEOMETRY
 10
353.300198
 20
281.231427
 40
1.559056
 50
208.751948
 51
258.48402
  0
ARC
  8
APS_GEOMETRY
 10
353.630544
 20
282.660842
 40
3.025889
 50
257.758295
 51
286.480369
  0
ARC
  8
APS_GEOMETRY
 10
354.100051
 20
281.12584
 40
1.420833
 50
285.885233
 51
325.197091
  0
ARC
  8
APS_GEOMETRY
 10
354.11118
 20
281.13492
 40
1.416945
 50
324.63873
 51
31.268667
  0
ARC
  8
APS_GEOMETRY
 10
354.063984
 20
281.118632
 40
1.465778
 50
30.85531
 51
75.402364
  0
ARC
  8
APS_GEOMETRY
 10
353.766737
 20
279.93325
 40
2.687833
 50
75.638959
 51
104.361157
  0
ARC
  8
APS_GEOMETRY
 10
352.11068
 20
285.399422
 40
3.0285
 50
289.068075
 51
345.637886
  0
LINE
  8
APS_GEOMETRY
 10
355.044532
 11
351.988956
 20
284.648205
 21
284.648195
  0
LINE
  8
APS_GEOMETRY
 10
358.544153
 11
358.544191
 20
279.63247
 21
281.932486
  0
ARC
  8
APS_GEOMETRY
 10
357.698653
 20
281.936931
 40
0.84555
 50
359.698802
 51
90.305782
  0
ARC
  8
APS_GEOMETRY
 10
357.693003
 20
281.328069
 40
1.4544
 50
89.9552
 51
153.259792
  0
LINE
  8
APS_GEOMETRY
 10
360.694153
 11
360.694191
 20
279.63247
 21
281.932486
  0
ARC
  8
APS_GEOMETRY
 10
359.848653
 20
281.936931
 40
0.84555
 50
359.698802
 51
90.305782
  0
ARC
  8
APS_GEOMETRY
 10
359.843003
 20
281.328069
 40
1.4544
 50
89.9552
 51
153.259792
  0
LINE
  8
APS_GEOMETRY
 10
363.844213
 11
363.844251
 20
279.63247
 21
281.932486
  0
ARC
  8
APS_GEOMETRY
 10
362.998713
 20
281.936931
 40
0.84555
 50
359.698802
 51
90.305782
  0
ARC
  8
APS_GEOMETRY
 10
362.993063
 20
281.328069
 40
1.4544
 50
89.9552
 51
153.259792
  0
LINE
  8
APS_GEOMETRY
 10
365.994213
 11
365.994251
 20
279.63247
 21
281.932486
  0
ARC
  8
APS_GEOMETRY
 10
365.148713
 20
281.936931
 40
0.84555
 50
359.698802
 51
90.305782
  0
ARC
  8
APS_GEOMETRY
 10
365.143063
 20
281.328069
 40
1.4544
 50
89.9552
 51
153.259792
  0
ARC
  8
APS_GEOMETRY
 10
376.68534
 20
282.136081
 40
3.039389
 50
31.026839
 51
40.045456
  0
ARC
  8
APS_GEOMETRY
 10
377.734301
 20
283.068375
 40
1.637
 50
38.687081
 51
141.311845
  0
ARC
  8
APS_GEOMETRY
 10
378.821636
 20
282.174986
 40
3.044222
 50
140.97926
 51
219.021883
  0
ARC
  8
APS_GEOMETRY
 10
377.734348
 20
281.281538
 40
1.637
 50
218.68765
 51
321.31264
  0
ARC
  8
APS_GEOMETRY
 10
376.666607
 20
282.043394
 40
2.947556
 50
322.726606
 51
335.345918
  0
LINE
  8
APS_GEOMETRY
 10
380.384554
 11
382.773443
 20
282.076914
 21
282.076914
  0
ARC
  8
APS_GEOMETRY
 10
382.773443
 20
283.354692
 40
1.277778
 50
270.0
 51
90.0
  0
LINE
  8
APS_GEOMETRY
 10
382.773443
 11
380.384554
 20
284.63247
 21
284.63247
  0
LINE
  8
APS_GEOMETRY
 10
380.384554
 11
380.384554
 20
284.63247
 21
279.63247
  0
ARC
  8
APS_GEOMETRY
 10
396.49888
 20
282.136081
 40
3.039389
 50
31.026839
 51
40.045456
  0
ARC
  8
APS_GEOMETRY
 10
397.547841
 20
283.068375
 40
1.637
 50
38.687081
 51
141.311845
  0
ARC
  8
APS_GEOMETRY
 10
398.635177
 20
282.174987
 40
3.044222
 50
140.979287
 51
219.021899
  0
ARC
  8
APS_GEOMETRY
 10
397.547889
 20
281.281539
 40
1.637
 50
218.687676
 51
321.312612
  0
ARC
  8
APS_GEOMETRY
 10
396.480147
 20
282.043394
 40
2.947556
 50
322.726619
 51
335.345936
  0
LINE
  8
APS_GEOMETRY
 10
435.397017
 11
437.785906
 20
349.808101
 21
349.808101
  0
ARC
  8
APS_GEOMETRY
 10
437.785906
 20
351.085879
 40
1.277778
 50
270.0
 51
90.0
  0
LINE
  8
APS_GEOMETRY
 10
437.785906
 11
435.397017
 20
352.363657
 21
352.363657
  0
LINE
  8
APS_GEOMETRY
 10
435.397017
 11
435.397017
 20
352.363657
 21
347.363656
  0
LINE
  8
APS_GEOMETRY
 10
444.135907
 11
446.524796
 20
349.808101
 21
349.808101
  0
ARC
  8
APS_GEOMETRY
 10
446.524796
 20
351.085879
 40
1.277778
 50
270.0
 51
90.0
  0
LINE
  8
APS_GEOMETRY
 10
446.524796
 11
444.135907
 20
352.363657
 21
352.363657
  0
LINE
  8
APS_GEOMETRY
 10
444.135907
 11
444.135907
 20
352.363657
 21
347.363656
  0
ARC
  8
APS_GEOMETRY
 10
454.330053
 20
350.396916
 40
2.055222
 50
42.9037
 51
122.5462
  0
ARC
  8
APS_GEOMETRY
 10
453.802488
 20
351.24953
 40
1.052778
 50
123.306728
 51
253.425504
  0
LINE
  8
APS_GEOMETRY
 10
453.502171
 11
455.16883
 20
350.240495
 21
349.684916
  0
ARC
  8
APS_GEOMETRY
 10
454.82949
 20
348.608412
 40
1.128722
 50
299.837909
 51
72.503875
  0
ARC
  8
APS_GEOMETRY
 10
454.307797
 20
349.507593
 40
2.168278
 50
240.022542
 51
299.973965
  0
ARC
  8
APS_GEOMETRY
 10
453.81725
 20
348.66689
 40
1.194945
 50
209.759367
 51
240.255461
  0
LINE
  8
APS_GEOMETRY
 10
461.649965
 11
464.038854
 20
349.808101
 21
349.808101
  0
ARC
  8
APS_GEOMETRY
 10
464.038854
 20
351.085879
 40
1.277778
 50
270.0
 51
90.0
  0
LINE
  8
APS_GEOMETRY
 10
464.038854
 11
461.649965
 20
352.363657
 21
352.363657
  0
LINE
  8
APS_GEOMETRY
 10
461.649965
 11
461.649965
 20
352.363657
 21
347.363656
  0
ARC
  8
APS_GEOMETRY
 10
472.23677
 20
347.463754
 40
0.729667
 50
12.148874
 51
63.601259
  0
LINE
  8
APS_GEOMETRY
 10
472.950095
 11
473.005637
 20
347.617314
 21
347.283988
  0
ARC
  8
APS_GEOMETRY
 10
473.495595
 20
347.398035
 40
0.503056
 50
193.103358
 51
271.146512
  0
ARC
  8
APS_GEOMETRY
 10
471.029483
 20
349.867313
 40
3.044222
 50
320.9784
 51
39.0216
  0
ARC
  8
APS_GEOMETRY
 10
472.116789
 20
350.760738
 40
1.637
 50
38.688139
 51
141.312908
  0
ARC
  8
APS_GEOMETRY
 10
473.204067
 20
349.867278
 40
3.044222
 50
140.97812
 51
219.020742
  0
ARC
  8
APS_GEOMETRY
 10
472.116761
 20
348.973853
 40
1.637
 50
218.686539
 51
321.313439
  0
LINE
  8
APS_GEOMETRY
 10
474.555958
 11
474.555958
 20
352.316195
 21
348.982862
  0
ARC
  8
APS_GEOMETRY
 10
476.222625
 20
348.982862
 40
1.666667
 50
180.0
 51
0.0
  0
LINE
  8
APS_GEOMETRY
 10
477.889292
 11
477.889291
 20
348.982862
 21
352.316195
  0
LINE
  8
APS_GEOMETRY
 10
482.253752
 11
484.642641
 20
349.808101
 21
349.808101
  0
ARC
  8
APS_GEOMETRY
 10
484.642641
 20
351.085879
 40
1.277778
 50
270.0
 51
90.0
  0
LINE
  8
APS_GEOMETRY
 10
484.642641
 11
482.253752
 20
352.363657
 21
352.363657
  0
LINE
  8
APS_GEOMETRY
 10
482.253752
 11
482.253752
 20
352.363657
 21
347.363656
  0
ARC
  8
APS_GEOMETRY
 10
492.702919
 20
350.732101
 40
1.631556
 50
38.7145
 51
90.1655
  0
LINE
  8
APS_GEOMETRY
 10
492.698206
 11
491.253753
 20
352.36365
 21
352.363657
  0
LINE
  8
APS_GEOMETRY
 10
491.253753
 11
491.253753
 20
352.363657
 21
347.363656
  0
LINE
  8
APS_GEOMETRY
 10
491.253753
 11
492.698197
 20
347.363656
 21
347.363656
  0
ARC
  8
APS_GEOMETRY
 10
492.702914
 20
348.995205
 40
1.631556
 50
269.834347
 51
321.285791
  0
ARC
  8
APS_GEOMETRY
 10
491.645216
 20
349.863656
 40
3.000056
 50
320.978157
 51
39.021852
  0
LINE
  8
APS_GEOMETRY
 10
452.529311
 11
454.9182
 20
342.308101
 21
342.308101
  0
ARC
  8
APS_GEOMETRY
 10
454.9182
 20
343.585879
 40
1.277778
 50
270.0
 51
90.0
  0
LINE
  8
APS_GEOMETRY
 10
454.9182
 11
452.529311
 20
344.863657
 21
344.863657
  0
LINE
  8
APS_GEOMETRY
 10
452.529311
 11
452.529311
 20
344.863657
 21
339.863656
  0
ARC
  8
APS_GEOMETRY
 10
486.521416
 20
342.367268
 40
3.039389
 50
31.026839
 51
40.045456
  0
ARC
  8
APS_GEOMETRY
 10
487.570377
 20
343.299562
 40
1.637
 50
38.687081
 51
141.311845
  0
ARC
  8
APS_GEOMETRY
 10
488.657712
 20
342.406172
 40
3.044222
 50
140.979248
 51
219.021907
  0
ARC
  8
APS_GEOMETRY
 10
487.570424
 20
341.512725
 40
1.637
 50
218.687695
 51
321.312684
  0
ARC
  8
APS_GEOMETRY
 10
486.502683
 20
342.274581
 40
2.947556
 50
322.726613
 51
335.345902
  0
ARC
  8
APS_GEOMETRY
 10
521.688036
 20
342.896916
 40
2.055222
 50
42.9037
 51
122.5462
  0
ARC
  8
APS_GEOMETRY
 10
521.160471
 20
343.74953
 40
1.052778
 50
123.306728
 51
253.425504
  0
LINE
  8
APS_GEOMETRY
 10
520.860154
 11
522.526813
 20
342.740495
 21
342.184916
  0
ARC
  8
APS_GEOMETRY
 10
522.187474
 20
341.108411
 40
1.128722
 50
299.837884
 51
72.503969
  0
ARC
  8
APS_GEOMETRY
 10
521.665782
 20
342.007593
 40
2.168278
 50
240.022485
 51
299.973964
  0
ARC
  8
APS_GEOMETRY
 10
521.175233
 20
341.16689
 40
1.194945
 50
209.759367
 51
240.255434
  0
LINE
  8
APS_GEOMETRY
 10
528.591282
 11
530.980171
 20
342.308101
 21
342.308101
  0
ARC
  8
APS_GEOMETRY
 10
530.980171
 20
343.585879
 40
1.277778
 50
270.0
 51
90.0
  0
LINE
  8
APS_GEOMETRY
 10
530.980171
 11
528.591282
 20
344.863657
 21
344.863657
  0
LINE
  8
APS_GEOMETRY
 10
528.591282
 11
528.591282
 20
344.863657
 21
339.863656
  0
LINE
  8
APS_GEOMETRY
 10
538.007949
 11
540.396838
 20
342.308101
 21
342.308101
  0
ARC
  8
APS_GEOMETRY
 10
540.396838
 20
343.585879
 40
1.277778
 50
270.0
 51
90.0
  0
LINE
  8
APS_GEOMETRY
 10
540.396838
 11
538.007949
 20
344.863657
 21
344.863657
  0
LINE
  8
APS_GEOMETRY
 10
538.007949
 11
538.007949
 20
344.863657
 21
339.863656
  0
ARC
  8
APS_GEOMETRY
 10
544.14368
 20
341.518225
 40
1.637
 50
218.6887
 51
321.3113
  0
ARC
  8
APS_GEOMETRY
 10
543.056374
 20
342.411649
 40
3.044222
 50
320.978111
 51
39.020745
  0
ARC
  8
APS_GEOMETRY
 10
544.143708
 20
343.305039
 40
1.637
 50
38.688134
 51
141.312923
  0
ARC
  8
APS_GEOMETRY
 10
545.231015
 20
342.411615
 40
3.044222
 50
140.978981
 51
219.021043
  0
LINE
  8
APS_GEOMETRY
 10
562.500567
 11
564.889456
 20
342.308101
 21
342.308101
  0
ARC
  8
APS_GEOMETRY
 10
564.889456
 20
343.585879
 40
1.277778
 50
270.0
 51
90.0
  0
LINE
  8
APS_GEOMETRY
 10
564.889456
 11
562.500567
 20
344.863657
 21
344.863657
  0
LINE
  8
APS_GEOMETRY
 10
562.500567
 11
562.500567
 20
344.863657
 21
339.863656
  0
ARC
  8
APS_GEOMETRY
 10
577.339436
 20
341.438647
 40
1.637
 50
218.687092
 51
321.311843
  0
ARC
  8
APS_GEOMETRY
 10
576.2521
 20
342.332035
 40
3.044222
 50
320.979287
 51
39.021899
  0
ARC
  8
APS_GEOMETRY
 10
577.339398
 20
343.22547
 40
1.637
 50
38.688225
 51
141.311646
  0
ARC
  8
APS_GEOMETRY
 10
577.0899
 20
343.415396
 40
1.323556
 50
140.977922
 51
219.022269
  0
ARC
  8
APS_GEOMETRY
 10
577.422755
 20
343.672052
 40
1.743778
 50
218.687901
 51
321.311934
  0
ARC
  8
APS_GEOMETRY
 10
577.540129
 20
343.594127
 40
1.6035
 50
320.863775
 51
349.585924
  0
ARC
  8
APS_GEOMETRY
 10
581.869414
 20
341.438647
 40
1.637
 50
218.687092
 51
321.311843
  0
ARC
  8
APS_GEOMETRY
 10
580.782079
 20
342.332036
 40
3.044222
 50
320.97926
 51
39.021883
  0
ARC
  8
APS_GEOMETRY
 10
581.869377
 20
343.225471
 40
1.637
 50
38.688222
 51
141.311668
  0
ARC
  8
APS_GEOMETRY
 10
581.619879
 20
343.415395
 40
1.323556
 50
140.977894
 51
219.022263
  0
ARC
  8
APS_GEOMETRY
 10
581.952734
 20
343.672052
 40
1.743778
 50
218.687896
 51
321.311981
  0
ARC
  8
APS_GEOMETRY
 10
582.070107
 20
343.594126
 40
1.6035
 50
320.863849
 51
349.585946
  0
ARC
  8
APS_GEOMETRY
 10
589.751591
 20
342.367268
 40
3.039389
 50
31.026839
 51
40.045456
  0
ARC
  8
APS_GEOMETRY
 10
590.800552
 20
343.299562
 40
1.637
 50
38.687081
 51
141.311845
  0
ARC
  8
APS_GEOMETRY
 10
591.887887
 20
342.406172
 40
3.044222
 50
140.979248
 51
219.021907
  0
ARC
  8
APS_GEOMETRY
 10
590.800599
 20
341.512725
 40
1.637
 50
218.687695
 51
321.312684
  0
ARC
  8
APS_GEOMETRY
 10
589.732858
 20
342.274581
 40
2.947556
 50
322.726613
 51
335.345902
  0
ARC
  8
APS_GEOMETRY
 10
436.897829
 20
333.962614
 40
1.559056
 50
208.751948
 51
258.48402
  0
ARC
  8
APS_GEOMETRY
 10
437.228175
 20
335.392029
 40
3.025889
 50
257.758295
 51
286.480369
  0
ARC
  8
APS_GEOMETRY
 10
437.697682
 20
333.857027
 40
1.420833
 50
285.885233
 51
325.197091
  0
ARC
  8
APS_GEOMETRY
 10
437.708811
 20
333.866107
 40
1.416945
 50
324.63873
 51
31.268667
  0
ARC
  8
APS_GEOMETRY
 10
437.661615
 20
333.849819
 40
1.465778
 50
30.855324
 51
75.402364
  0
ARC
  8
APS_GEOMETRY
 10
437.364368
 20
332.664437
 40
2.687833
 50
75.638955
 51
104.361146
  0
ARC
  8
APS_GEOMETRY
 10
435.708311
 20
338.130609
 40
3.0285
 50
289.068087
 51
345.637893
  0
LINE
  8
APS_GEOMETRY
 10
438.642163
 11
435.586587
 20
337.379392
 21
337.379382
  0
ARC
  8
APS_GEOMETRY
 10
445.110628
 20
334.867268
 40
3.039389
 50
31.026839
 51
40.045456
  0
ARC
  8
APS_GEOMETRY
 10
446.159589
 20
335.799562
 40
1.637
 50
38.687081
 51
141.311845
  0
ARC
  8
APS_GEOMETRY
 10
447.246924
 20
334.906173
 40
3.044222
 50
140.97926
 51
219.02191
  0
ARC
  8
APS_GEOMETRY
 10
446.159636
 20
334.012725
 40
1.637
 50
218.6877
 51
321.312634
  0
ARC
  8
APS_GEOMETRY
 10
445.091899
 20
334.774586
 40
2.947556
 50
322.726464
 51
335.345779
  0
ARC
  8
APS_GEOMETRY
 10
450.278906
 20
334.018225
 40
1.637
 50
218.6887
 51
321.3113
  0
ARC
  8
APS_GEOMETRY
 10
449.1916
 20
334.911649
 40
3.044222
 50
320.978111
 51
39.020745
  0
ARC
  8
APS_GEOMETRY
 10
450.278935
 20
335.805038
 40
1.637
 50
38.688185
 51
141.312889
  0
ARC
  8
APS_GEOMETRY
 10
451.366242
 20
334.911613
 40
3.044222
 50
140.978963
 51
219.021016
  0
LINE
  8
APS_GEOMETRY
 10
452.715777
 11
452.715777
 20
337.316195
 21
333.982862
  0
ARC
  8
APS_GEOMETRY
 10
454.382444
 20
333.982862
 40
1.666667
 50
180.0
 51
0.0
  0
LINE
  8
APS_GEOMETRY
 10
456.049111
 11
456.04911
 20
333.982862
 21
337.316195
  0
LINE
  8
APS_GEOMETRY
 10
469.612534
 11
472.001423
 20
334.808101
 21
334.808101
  0
ARC
  8
APS_GEOMETRY
 10
472.001423
 20
336.085879
 40
1.277778
 50
270.0
 51
90.0
  0
LINE
  8
APS_GEOMETRY
 10
472.001423
 11
469.612534
 20
337.363657
 21
337.363657
  0
LINE
  8
APS_GEOMETRY
 10
469.612534
 11
469.612534
 20
337.363657
 21
332.363656
  0
ARC
  8
APS_GEOMETRY
 10
475.917791
 20
335.396916
 40
2.055222
 50
42.9037
 51
122.5462
  0
ARC
  8
APS_GEOMETRY
 10
475.390226
 20
336.24953
 40
1.052778
 50
123.306728
 51
253.425504
  0
LINE
  8
APS_GEOMETRY
 10
475.089909
 11
476.756569
 20
335.240495
 21
334.684916
  0
ARC
  8
APS_GEOMETRY
 10
476.417229
 20
333.608412
 40
1.128722
 50
299.837909
 51
72.503875
  0
ARC
  8
APS_GEOMETRY
 10
475.895536
 20
334.507593
 40
2.168278
 50
240.022511
 51
299.97398
  0
ARC
  8
APS_GEOMETRY
 10
475.404988
 20
333.66689
 40
1.194945
 50
209.759367
 51
240.255434
  0
LINE
  8
APS_GEOMETRY
 10
478.479836
 11
478.479835
 20
337.316195
 21
333.982862
  0
ARC
  8
APS_GEOMETRY
 10
480.146502
 20
333.982862
 40
1.666667
 50
180.0
 51
0.0
  0
LINE
  8
APS_GEOMETRY
 10
481.813169
 11
481.813169
 20
333.982862
 21
337.316195
  0
ARC
  8
APS_GEOMETRY
 10
498.154072
 20
335.396916
 40
2.055222
 50
42.9037
 51
122.5462
  0
ARC
  8
APS_GEOMETRY
 10
497.626507
 20
336.24953
 40
1.052778
 50
123.306728
 51
253.425504
  0
LINE
  8
APS_GEOMETRY
 10
497.32619
 11
498.992849
 20
335.240495
 21
334.684916
  0
ARC
  8
APS_GEOMETRY
 10
498.653509
 20
333.608412
 40
1.128722
 50
299.837909
 51
72.503875
  0
ARC
  8
APS_GEOMETRY
 10
498.131816
 20
334.507593
 40
2.168278
 50
240.022542
 51
299.973965
  0
ARC
  8
APS_GEOMETRY
 10
497.641269
 20
333.66689
 40
1.194945
 50
209.759367
 51
240.255461
  0
ARC
  8
APS_GEOMETRY
 10
501.092828
 20
334.867268
 40
3.039389
 50
31.026839
 51
40.045456
  0
ARC
  8
APS_GEOMETRY
 10
502.141789
 20
335.799562
 40
1.637
 50
38.687081
 51
141.311845
  0
ARC
  8
APS_GEOMETRY
 10
503.229124
 20
334.906173
 40
3.044222
 50
140.97926
 51
219.02191
  0
ARC
  8
APS_GEOMETRY
 10
502.141836
 20
334.012725
 40
1.637
 50
218.6877
 51
321.312634
  0
ARC
  8
APS_GEOMETRY
 10
501.074099
 20
334.774586
 40
2.947556
 50
322.726464
 51
335.345779
  0
LINE
  8
APS_GEOMETRY
 10
504.792042
 11
507.180931
 20
334.808101
 21
334.808101
  0
ARC
  8
APS_GEOMETRY
 10
507.180931
 20
336.085879
 40
1.277778
 50
270.0
 51
90.0
  0
LINE
  8
APS_GEOMETRY
 10
507.180931
 11
504.792042
 20
337.363657
 21
337.363657
  0
LINE
  8
APS_GEOMETRY
 10
504.792042
 11
504.792042
 20
337.363657
 21
332.363656
  0
ARC
  8
APS_GEOMETRY
 10
520.986188
 20
335.396916
 40
2.055222
 50
42.9037
 51
122.5462
  0
ARC
  8
APS_GEOMETRY
 10
520.458623
 20
336.24953
 40
1.052778
 50
123.306728
 51
253.425504
  0
LINE
  8
APS_GEOMETRY
 10
520.158306
 11
521.824966
 20
335.240495
 21
334.684916
  0
ARC
  8
APS_GEOMETRY
 10
521.485626
 20
333.608412
 40
1.128722
 50
299.837909
 51
72.503875
  0
ARC
  8
APS_GEOMETRY
 10
520.963933
 20
334.507593
 40
2.168278
 50
240.022511
 51
299.97398
  0
ARC
  8
APS_GEOMETRY
 10
520.473385
 20
333.66689
 40
1.194945
 50
209.759367
 51
240.255434
  0
ARC
  8
APS_GEOMETRY
 10
535.251357
 20
333.962614
 40
1.559056
 50
208.751948
 51
258.48402
  0
ARC
  8
APS_GEOMETRY
 10
535.581703
 20
335.392029
 40
3.025889
 50
257.758295
 51
286.480369
  0
ARC
  8
APS_GEOMETRY
 10
536.05121
 20
333.857027
 40
1.420833
 50
285.885233
 51
325.197091
  0
ARC
  8
APS_GEOMETRY
 10
536.062339
 20
333.866107
 40
1.416945
 50
324.63873
 51
31.268667
  0
ARC
  8
APS_GEOMETRY
 10
536.015143
 20
333.849819
 40
1.465778
 50
30.855324
 51
75.402364
  0
ARC
  8
APS_GEOMETRY
 10
535.717896
 20
332.664437
 40
2.687833
 50
75.638955
 51
104.361146
  0
ARC
  8
APS_GEOMETRY
 10
534.061839
 20
338.130609
 40
3.0285
 50
289.068087
 51
345.637893
  0
LINE
  8
APS_GEOMETRY
 10
536.995691
 11
533.940115
 20
337.379392
 21
337.379382
  0
LINE
  8
APS_GEOMETRY
 10
544.928644
 11
541.595312
 20
332.363633
 21
332.363656
  0
ARC
  8
APS_GEOMETRY
 10
543.357699
 20
332.366012
 40
1.762389
 50
121.813577
 51
180.076579
  0
LINE
  8
APS_GEOMETRY
 10
542.428643
 11
544.31752
 20
333.863633
 21
335.030301
  0
ARC
  8
APS_GEOMETRY
 10
543.702685
 20
336.085847
 40
1.221556
 50
300.220011
 51
59.779486
  0
ARC
  8
APS_GEOMETRY
 10
543.373044
 20
335.386269
 40
1.993111
 50
61.713885
 51
118.283734
  0
ARC
  8
APS_GEOMETRY
 10
542.987866
 20
336.090577
 40
1.190389
 50
118.020712
 51
169.471704
  0
ARC
  8
APS_GEOMETRY
 10
547.903521
 20
333.939671
 40
1.637
 50
218.6887
 51
321.3113
  0
ARC
  8
APS_GEOMETRY
 10
546.816215
 20
334.833095
 40
3.044222
 50
320.978111
 51
39.020745
  0
ARC
  8
APS_GEOMETRY
 10
547.90355
 20
335.726484
 40
1.637
 50
38.688185
 51
141.312889
  0
ARC
  8
APS_GEOMETRY
 10
548.990857
 20
334.833059
 40
3.044222
 50
140.978963
 51
219.021016
  0
ARC
  8
APS_GEOMETRY
 10
561.244846
 20
334.018225
 40
1.637
 50
218.6887
 51
321.3113
  0
ARC
  8
APS_GEOMETRY
 10
560.15754
 20
334.911649
 40
3.044222
 50
320.978111
 51
39.020745
  0
ARC
  8
APS_GEOMETRY
 10
561.244874
 20
335.805039
 40
1.637
 50
38.688134
 51
141.312923
  0
ARC
  8
APS_GEOMETRY
 10
562.332181
 20
334.911615
 40
3.044222
 50
140.978981
 51
219.021043
  0
ARC
  8
APS_GEOMETRY
 10
568.370793
 20
334.900535
 40
3.039389
 50
31.026839
 51
40.045456
  0
ARC
  8
APS_GEOMETRY
 10
569.419754
 20
335.832829
 40
1.637
 50
38.687081
 51
141.311845
  0
ARC
  8
APS_GEOMETRY
 10
570.507082
 20
334.939431
 40
3.044222
 50
140.979047
 51
219.021747
  0
ARC
  8
APS_GEOMETRY
 10
569.415065
 20
334.043179
 40
1.631556
 50
218.714325
 51
270.166303
  0
ARC
  8
APS_GEOMETRY
 10
569.416061
 20
334.112571
 40
1.700945
 50
270.12598
 51
341.693516
  0
LINE
  8
APS_GEOMETRY
 10
571.030921
 11
571.030894
 20
333.578304
 21
334.856071
  0
LINE
  8
APS_GEOMETRY
 10
571.030894
 11
569.753116
 20
334.856071
 21
334.856071
  0
ARC
  8
APS_GEOMETRY
 10
437.135072
 20
326.697435
 40
1.865667
 50
202.7274
 51
247.2726
  0
ARC
  8
APS_GEOMETRY
 10
437.164268
 20
326.731591
 40
1.9085
 50
246.860317
 51
293.140751
  0
ARC
  8
APS_GEOMETRY
 10
437.204683
 20
326.654721
 40
1.821945
 50
292.922061
 51
357.893255
  0
ARC
  8
APS_GEOMETRY
 10
437.385125
 20
326.645214
 40
1.641278
 50
357.993338
 51
71.191209
  0
ARC
  8
APS_GEOMETRY
 10
437.164184
 20
325.993009
 40
2.329889
 50
71.219134
 51
108.775457
  0
ARC
  8
APS_GEOMETRY
 10
437.016683
 20
326.392666
 40
1.904056
 50
108.443894
 51
138.941068
  0
LINE
  8
APS_GEOMETRY
 10
435.58096
 11
435.96985
 20
327.643317
 21
329.865546
  0
LINE
  8
APS_GEOMETRY
 10
435.96985
 11
438.46985
 20
329.865546
 21
329.865546
  0
ARC
  8
APS_GEOMETRY
 10
451.704409
 20
326.462614
 40
1.559056
 50
208.751948
 51
258.48402
  0
ARC
  8
APS_GEOMETRY
 10
452.034755
 20
327.892029
 40
3.025889
 50
257.758295
 51
286.480369
  0
ARC
  8
APS_GEOMETRY
 10
452.504262
 20
326.357027
 40
1.420833
 50
285.885233
 51
325.197091
  0
ARC
  8
APS_GEOMETRY
 10
452.515391
 20
326.366107
 40
1.416945
 50
324.63873
 51
31.268667
  0
ARC
  8
APS_GEOMETRY
 10
452.468195
 20
326.349819
 40
1.465778
 50
30.85531
 51
75.402364
  0
ARC
  8
APS_GEOMETRY
 10
452.170948
 20
325.164437
 40
2.687833
 50
75.638959
 51
104.361157
  0
ARC
  8
APS_GEOMETRY
 10
450.514891
 20
330.630609
 40
3.0285
 50
289.068075
 51
345.637886
  0
LINE
  8
APS_GEOMETRY
 10
453.448743
 11
450.393167
 20
329.879392
 21
329.879382
  0
LINE
  8
APS_GEOMETRY
 10
463.87383
 11
463.873829
 20
329.816195
 21
326.482862
  0
ARC
  8
APS_GEOMETRY
 10
465.540496
 20
326.482862
 40
1.666667
 50
180.0
 51
0.0
  0
LINE
  8
APS_GEOMETRY
 10
467.207163
 11
467.207163
 20
326.482862
 21
329.816195
  0
ARC
  8
APS_GEOMETRY
 10
473.74251
 20
327.896916
 40
2.055222
 50
42.9037
 51
122.5462
  0
ARC
  8
APS_GEOMETRY
 10
473.214945
 20
328.74953
 40
1.052778
 50
123.306728
 51
253.425504
  0
LINE
  8
APS_GEOMETRY
 10
472.914628
 11
474.581288
 20
327.740495
 21
327.184916
  0
ARC
  8
APS_GEOMETRY
 10
474.241948
 20
326.108412
 40
1.128722
 50
299.837909
 51
72.503875
  0
ARC
  8
APS_GEOMETRY
 10
473.720255
 20
327.007593
 40
2.168278
 50
240.022511
 51
299.97398
  0
ARC
  8
APS_GEOMETRY
 10
473.229707
 20
326.16689
 40
1.194945
 50
209.759367
 51
240.255434
  0
LINE
  8
APS_GEOMETRY
 10
445.313684
 11
447.702573
 20
319.808101
 21
319.808101
  0
ARC
  8
APS_GEOMETRY
 10
447.702573
 20
321.085879
 40
1.277778
 50
270.0
 51
90.0
  0
LINE
  8
APS_GEOMETRY
 10
447.702573
 11
445.313684
 20
322.363657
 21
322.363657
  0
LINE
  8
APS_GEOMETRY
 10
445.313684
 11
445.313684
 20
322.363657
 21
317.363656
  0
ARC
  8
APS_GEOMETRY
 10
451.449415
 20
319.018225
 40
1.637
 50
218.6887
 51
321.3113
  0
ARC
  8
APS_GEOMETRY
 10
450.362109
 20
319.91165
 40
3.044222
 50
320.978099
 51
39.020742
  0
ARC
  8
APS_GEOMETRY
 10
451.449444
 20
320.805039
 40
1.637
 50
38.688157
 51
141.312918
  0
ARC
  8
APS_GEOMETRY
 10
452.53675
 20
319.911614
 40
3.044222
 50
140.978966
 51
219.021028
  0
LINE
  8
APS_GEOMETRY
 10
466.29745
 11
468.686339
 20
319.808101
 21
319.808101
  0
ARC
  8
APS_GEOMETRY
 10
468.686339
 20
321.085879
 40
1.277778
 50
270.0
 51
90.0
  0
LINE
  8
APS_GEOMETRY
 10
468.686339
 11
466.29745
 20
322.363657
 21
322.363657
  0
LINE
  8
APS_GEOMETRY
 10
466.29745
 11
466.29745
 20
322.363657
 21
317.363656
  0
ARC
  8
APS_GEOMETRY
 10
498.735507
 20
320.732101
 40
1.631556
 50
38.7145
 51
90.1655
  0
LINE
  8
APS_GEOMETRY
 10
498.730794
 11
497.28634
 20
322.36365
 21
322.363657
  0
LINE
  8
APS_GEOMETRY
 10
497.28634
 11
497.28634
 20
322.363657
 21
317.363656
  0
LINE
  8
APS_GEOMETRY
 10
497.28634
 11
498.730785
 20
317.363656
 21
317.363656
  0
ARC
  8
APS_GEOMETRY
 10
498.735502
 20
318.995205
 40
1.631556
 50
269.834347
 51
321.285791
  0
ARC
  8
APS_GEOMETRY
 10
497.677804
 20
319.863656
 40
3.000056
 50
320.978157
 51
39.021852
  0
ARC
  8
APS_GEOMETRY
 10
507.566449
 20
320.396916
 40
2.055222
 50
42.9037
 51
122.5462
  0
ARC
  8
APS_GEOMETRY
 10
507.038884
 20
321.24953
 40
1.052778
 50
123.306728
 51
253.425504
  0
LINE
  8
APS_GEOMETRY
 10
506.738567
 11
508.405227
 20
320.240495
 21
319.684916
  0
ARC
  8
APS_GEOMETRY
 10
508.065887
 20
318.608412
 40
1.128722
 50
299.837909
 51
72.503875
  0
ARC
  8
APS_GEOMETRY
 10
507.544194
 20
319.507593
 40
2.168278
 50
240.022511
 51
299.97398
  0
ARC
  8
APS_GEOMETRY
 10
507.053646
 20
318.66689
 40
1.194945
 50
209.759367
 51
240.255434
  0
ARC
  8
APS_GEOMETRY
 10
510.505205
 20
319.867268
 40
3.039389
 50
31.026839
 51
40.045456
  0
ARC
  8
APS_GEOMETRY
 10
511.554166
 20
320.799562
 40
1.637
 50
38.687081
 51
141.311845
  0
ARC
  8
APS_GEOMETRY
 10
512.641501
 20
319.906173
 40
3.044222
 50
140.97926
 51
219.02191
  0
ARC
  8
APS_GEOMETRY
 10
511.554213
 20
319.012725
 40
1.637
 50
218.6877
 51
321.312634
  0
ARC
  8
APS_GEOMETRY
 10
510.486476
 20
319.774586
 40
2.947556
 50
322.726464
 51
335.345779
  0
LINE
  8
APS_GEOMETRY
 10
514.204419
 11
516.593308
 20
319.808101
 21
319.808101
  0
ARC
  8
APS_GEOMETRY
 10
516.593308
 20
321.085879
 40
1.277778
 50
270.0
 51
90.0
  0
LINE
  8
APS_GEOMETRY
 10
516.593308
 11
514.204419
 20
322.363657
 21
322.363657
  0
LINE
  8
APS_GEOMETRY
 10
514.204419
 11
514.204419
 20
322.363657
 21
317.363656
  0
ARC
  8
APS_GEOMETRY
 10
530.398565
 20
320.396916
 40
2.055222
 50
42.9037
 51
122.5462
  0
ARC
  8
APS_GEOMETRY
 10
529.871
 20
321.24953
 40
1.052778
 50
123.306728
 51
253.425543
  0
LINE
  8
APS_GEOMETRY
 10
529.570684
 11
531.237343
 20
320.240495
 21
319.684916
  0
ARC
  8
APS_GEOMETRY
 10
530.898003
 20
318.608412
 40
1.128722
 50
299.837909
 51
72.503875
  0
ARC
  8
APS_GEOMETRY
 10
530.37631
 20
319.507593
 40
2.168278
 50
240.022511
 51
299.97398
  0
ARC
  8
APS_GEOMETRY
 10
529.885764
 20
318.666888
 40
1.194945
 50
209.759308
 51
240.255317
  0
LINE
  8
APS_GEOMETRY
 10
554.912921
 11
551.57959
 20
317.363633
 21
317.363656
  0
ARC
  8
APS_GEOMETRY
 10
553.341977
 20
317.366012
 40
1.762389
 50
121.813577
 51
180.076579
  0
LINE
  8
APS_GEOMETRY
 10
552.412921
 11
554.301797
 20
318.863633
 21
320.030301
  0
ARC
  8
APS_GEOMETRY
 10
553.686962
 20
321.085847
 40
1.221556
 50
300.219957
 51
59.779459
  0
ARC
  8
APS_GEOMETRY
 10
553.357323
 20
320.386268
 40
1.993111
 50
61.713899
 51
118.283745
  0
ARC
  8
APS_GEOMETRY
 10
552.972143
 20
321.090576
 40
1.190389
 50
118.020652
 51
169.471675
  0
ARC
  8
APS_GEOMETRY
 10
557.650977
 20
319.197435
 40
1.865667
 50
202.7274
 51
247.2726
  0
ARC
  8
APS_GEOMETRY
 10
557.680173
 20
319.231591
 40
1.9085
 50
246.860317
 51
293.140751
  0
ARC
  8
APS_GEOMETRY
 10
557.720589
 20
319.154721
 40
1.821945
 50
292.922028
 51
357.89326
  0
ARC
  8
APS_GEOMETRY
 10
557.901031
 20
319.145214
 40
1.641278
 50
357.993357
 51
71.191243
  0
ARC
  8
APS_GEOMETRY
 10
557.68009
 20
318.493009
 40
2.329889
 50
71.219146
 51
108.77547
  0
ARC
  8
APS_GEOMETRY
 10
557.532588
 20
318.892666
 40
1.904056
 50
108.443894
 51
138.941068
  0
LINE
  8
APS_GEOMETRY
 10
556.096865
 11
556.485755
 20
320.143317
 21
322.365546
  0
LINE
  8
APS_GEOMETRY
 10
556.485755
 11
558.985755
 20
322.365546
 21
322.365546
  0
ARC
  8
APS_GEOMETRY
 10
570.927455
 20
319.018225
 40
1.637
 50
218.6887
 51
321.3113
  0
ARC
  8
APS_GEOMETRY
 10
569.840149
 20
319.91165
 40
3.044222
 50
320.978099
 51
39.020742
  0
ARC
  8
APS_GEOMETRY
 10
570.927484
 20
320.805039
 40
1.637
 50
38.688157
 51
141.312918
  0
ARC
  8
APS_GEOMETRY
 10
572.01479
 20
319.911614
 40
3.044222
 50
140.978966
 51
219.021028
  0
ARC
  8
APS_GEOMETRY
 10
578.053403
 20
319.900535
 40
3.039389
 50
31.026839
 51
40.045456
  0
ARC
  8
APS_GEOMETRY
 10
579.102364
 20
320.832829
 40
1.637
 50
38.687081
 51
141.311845
  0
ARC
  8
APS_GEOMETRY
 10
580.189692
 20
319.939431
 40
3.044222
 50
140.979047
 51
219.021747
  0
ARC
  8
APS_GEOMETRY
 10
579.097675
 20
319.043179
 40
1.631556
 50
218.714325
 51
270.166303
  0
ARC
  8
APS_GEOMETRY
 10
579.098671
 20
319.112571
 40
1.700945
 50
270.12598
 51
341.693516
  0
LINE
  8
APS_GEOMETRY
 10
580.713531
 11
580.713504
 20
318.578304
 21
319.856071
  0
LINE
  8
APS_GEOMETRY
 10
580.713504
 11
579.435726
 20
319.856071
 21
319.856071
  0
LINE
  8
APS_GEOMETRY
 10
465.000262
 11
465.000261
 20
314.816195
 21
311.482862
  0
ARC
  8
APS_GEOMETRY
 10
466.666928
 20
311.482862
 40
1.666667
 50
180.0
 51
0.0
  0
LINE
  8
APS_GEOMETRY
 10
468.333595
 11
468.333595
 20
311.482862
 21
314.816195
  0
ARC
  8
APS_GEOMETRY
 10
474.868942
 20
312.896916
 40
2.055222
 50
42.9037
 51
122.5462
  0
ARC
  8
APS_GEOMETRY
 10
474.341377
 20
313.74953
 40
1.052778
 50
123.306728
 51
253.425504
  0
LINE
  8
APS_GEOMETRY
 10
474.04106
 11
475.70772
 20
312.740495
 21
312.184916
  0
ARC
  8
APS_GEOMETRY
 10
475.36838
 20
311.108412
 40
1.128722
 50
299.837909
 51
72.503875
  0
ARC
  8
APS_GEOMETRY
 10
474.846687
 20
312.007593
 40
2.168278
 50
240.022511
 51
299.97398
  0
ARC
  8
APS_GEOMETRY
 10
474.356139
 20
311.16689
 40
1.194945
 50
209.759367
 51
240.255434
  0
ARC
  8
APS_GEOMETRY
 10
449.8079
 20
303.962614
 40
1.559056
 50
208.751948
 51
258.48402
  0
ARC
  8
APS_GEOMETRY
 10
450.138246
 20
305.392029
 40
3.025889
 50
257.758295
 51
286.480369
  0
ARC
  8
APS_GEOMETRY
 10
450.607753
 20
303.857027
 40
1.420833
 50
285.885233
 51
325.197091
  0
ARC
  8
APS_GEOMETRY
 10
450.618882
 20
303.866107
 40
1.416945
 50
324.63873
 51
31.268667
  0
ARC
  8
APS_GEOMETRY
 10
450.571686
 20
303.849819
 40
1.465778
 50
30.855324
 51
75.402364
  0
ARC
  8
APS_GEOMETRY
 10
450.274439
 20
302.664437
 40
2.687833
 50
75.638955
 51
104.361146
  0
ARC
  8
APS_GEOMETRY
 10
448.618382
 20
308.130609
 40
3.0285
 50
289.068087
 51
345.637893
  0
LINE
  8
APS_GEOMETRY
 10
451.552234
 11
448.496658
 20
307.379392
 21
307.379382
  0
ARC
  8
APS_GEOMETRY
 10
471.526475
 20
304.018225
 40
1.637
 50
218.6887
 51
321.3113
  0
ARC
  8
APS_GEOMETRY
 10
470.439169
 20
304.91165
 40
3.044222
 50
320.978099
 51
39.020742
  0
ARC
  8
APS_GEOMETRY
 10
471.526504
 20
305.805039
 40
1.637
 50
38.688157
 51
141.312918
  0
ARC
  8
APS_GEOMETRY
 10
472.61381
 20
304.911614
 40
3.044222
 50
140.978966
 51
219.021028
  0
ARC
  8
APS_GEOMETRY
 10
474.840058
 20
304.867268
 40
3.039389
 50
31.026839
 51
40.045456
  0
ARC
  8
APS_GEOMETRY
 10
475.889019
 20
305.799562
 40
1.637
 50
38.687081
 51
141.311845
  0
ARC
  8
APS_GEOMETRY
 10
476.976354
 20
304.906172
 40
3.044222
 50
140.979248
 51
219.021907
  0
ARC
  8
APS_GEOMETRY
 10
475.889066
 20
304.012725
 40
1.637
 50
218.687695
 51
321.312684
  0
ARC
  8
APS_GEOMETRY
 10
474.821325
 20
304.774581
 40
2.947556
 50
322.726613
 51
335.345902
  0
LINE
  8
APS_GEOMETRY
 10
492.225849
 11
492.225848
 20
307.316195
 21
303.982862
  0
ARC
  8
APS_GEOMETRY
 10
493.892515
 20
303.982862
 40
1.666667
 50
180.0
 51
0.0
  0
LINE
  8
APS_GEOMETRY
 10
495.559182
 11
495.559182
 20
303.982862
 21
307.316195
  0
ARC
  8
APS_GEOMETRY
 10
461.448247
 20
298.234265
 40
1.637
 50
38.687092
 51
141.311843
  0
ARC
  8
APS_GEOMETRY
 10
462.535582
 20
297.340875
 40
3.044222
 50
140.979248
 51
219.021907
  0
ARC
  8
APS_GEOMETRY
 10
461.448284
 20
296.44744
 40
1.637
 50
218.688244
 51
321.311668
  0
ARC
  8
APS_GEOMETRY
 10
461.697782
 20
296.257515
 40
1.323556
 50
320.977922
 51
39.022269
  0
ARC
  8
APS_GEOMETRY
 10
461.364927
 20
296.000859
 40
1.743778
 50
38.687901
 51
141.311934
  0
ARC
  8
APS_GEOMETRY
 10
461.247553
 20
296.078784
 40
1.6035
 50
140.863775
 51
169.585924
  0
ARC
  8
APS_GEOMETRY
 10
470.35795
 20
297.896916
 40
2.055222
 50
42.9037
 51
122.5462
  0
ARC
  8
APS_GEOMETRY
 10
469.830385
 20
298.74953
 40
1.052778
 50
123.306728
 51
253.425543
  0
LINE
  8
APS_GEOMETRY
 10
469.530069
 11
471.196728
 20
297.740495
 21
297.184916
  0
ARC
  8
APS_GEOMETRY
 10
470.857388
 20
296.108412
 40
1.128722
 50
299.837909
 51
72.503875
  0
ARC
  8
APS_GEOMETRY
 10
470.335695
 20
297.007593
 40
2.168278
 50
240.022511
 51
299.97398
  0
ARC
  8
APS_GEOMETRY
 10
469.845147
 20
296.16689
 40
1.194945
 50
209.759367
 51
240.255434
  0
ARC
  8
APS_GEOMETRY
 10
473.296707
 20
297.367268
 40
3.039389
 50
31.026839
 51
40.045456
  0
ARC
  8
APS_GEOMETRY
 10
474.345668
 20
298.299562
 40
1.637
 50
38.687081
 51
141.311845
  0
ARC
  8
APS_GEOMETRY
 10
475.433003
 20
297.406172
 40
3.044222
 50
140.979248
 51
219.021907
  0
ARC
  8
APS_GEOMETRY
 10
474.345715
 20
296.512725
 40
1.637
 50
218.687695
 51
321.312684
  0
ARC
  8
APS_GEOMETRY
 10
473.277974
 20
297.274581
 40
2.947556
 50
322.726613
 51
335.345902
  0
LINE
  8
APS_GEOMETRY
 10
476.99592
 11
479.384809
 20
297.308101
 21
297.308101
  0
ARC
  8
APS_GEOMETRY
 10
479.384809
 20
298.585879
 40
1.277778
 50
270.0
 51
90.0
  0
LINE
  8
APS_GEOMETRY
 10
479.384809
 11
476.99592
 20
299.863657
 21
299.863657
  0
LINE
  8
APS_GEOMETRY
 10
476.99592
 11
476.99592
 20
299.863657
 21
294.863656
  0
ARC
  8
APS_GEOMETRY
 10
471.817113
 20
289.900535
 40
3.039389
 50
31.026839
 51
40.045456
  0
ARC
  8
APS_GEOMETRY
 10
472.866075
 20
290.832828
 40
1.637
 50
38.687131
 51
141.311812
  0
ARC
  8
APS_GEOMETRY
 10
473.953402
 20
289.939429
 40
3.044222
 50
140.979017
 51
219.021717
  0
ARC
  8
APS_GEOMETRY
 10
472.861384
 20
289.043179
 40
1.631556
 50
218.714342
 51
270.166331
  0
ARC
  8
APS_GEOMETRY
 10
472.862381
 20
289.112571
 40
1.700945
 50
270.12598
 51
341.693516
  0
LINE
  8
APS_GEOMETRY
 10
474.477241
 11
474.477214
 20
288.578304
 21
289.856071
  0
LINE
  8
APS_GEOMETRY
 10
474.477214
 11
473.199437
 20
289.856071
 21
289.856071
  0
LINE
  8
APS_GEOMETRY
 10
484.612764
 11
484.612764
 20
292.316195
 21
288.982862
  0
ARC
  8
APS_GEOMETRY
 10
486.279431
 20
288.982862
 40
1.666667
 50
180.0
 51
0.0
  0
LINE
  8
APS_GEOMETRY
 10
487.946098
 11
487.946098
 20
288.982862
 21
292.316195
  0
ARC
  8
APS_GEOMETRY
 10
469.140124
 20
282.896916
 40
2.055222
 50
42.9037
 51
122.5462
  0
ARC
  8
APS_GEOMETRY
 10
468.612559
 20
283.74953
 40
1.052778
 50
123.306728
 51
253.425504
  0
LINE
  8
APS_GEOMETRY
 10
468.312242
 11
469.978901
 20
282.740495
 21
282.184916
  0
ARC
  8
APS_GEOMETRY
 10
469.639561
 20
281.108412
 40
1.128722
 50
299.837909
 51
72.503875
  0
ARC
  8
APS_GEOMETRY
 10
469.117868
 20
282.007593
 40
2.168278
 50
240.022542
 51
299.973965
  0
ARC
  8
APS_GEOMETRY
 10
468.627321
 20
281.16689
 40
1.194945
 50
209.759367
 51
240.255461
  0
LINE
  8
APS_GEOMETRY
 10
480.654481
 11
483.04337
 20
282.308101
 21
282.308101
  0
ARC
  8
APS_GEOMETRY
 10
483.04337
 20
283.585879
 40
1.277778
 50
270.0
 51
90.0
  0
LINE
  8
APS_GEOMETRY
 10
483.04337
 11
480.654481
 20
284.863657
 21
284.863657
  0
LINE
  8
APS_GEOMETRY
 10
480.654481
 11
480.654481
 20
284.863657
 21
279.863656
  0
LINE
  8
APS_GEOMETRY
 10
438.730349
 11
435.397018
 20
272.363633
 21
272.363656
  0
ARC
  8
APS_GEOMETRY
 10
437.159405
 20
272.366012
 40
1.762389
 50
121.813577
 51
180.076579
  0
LINE
  8
APS_GEOMETRY
 10
436.230349
 11
438.119225
 20
273.863633
 21
275.030301
  0
ARC
  8
APS_GEOMETRY
 10
437.50439
 20
276.085847
 40
1.221556
 50
300.219957
 51
59.779459
  0
ARC
  8
APS_GEOMETRY
 10
437.17475
 20
275.386269
 40
1.993111
 50
61.713885
 51
118.283734
  0
ARC
  8
APS_GEOMETRY
 10
436.789572
 20
276.090577
 40
1.190389
 50
118.020712
 51
169.471704
  0
ARC
  8
APS_GEOMETRY
 10
454.616082
 20
274.018225
 40
1.637
 50
218.6887
 51
321.3113
  0
ARC
  8
APS_GEOMETRY
 10
453.528776
 20
274.911649
 40
3.044222
 50
320.978111
 51
39.020745
  0
ARC
  8
APS_GEOMETRY
 10
454.616111
 20
275.805038
 40
1.637
 50
38.688185
 51
141.312889
  0
ARC
  8
APS_GEOMETRY
 10
455.703418
 20
274.911613
 40
3.044222
 50
140.978963
 51
219.021016
  0
ARC
  8
APS_GEOMETRY
 10
458.509987
 20
275.732101
 40
1.631556
 50
38.7145
 51
90.1655
  0
LINE
  8
APS_GEOMETRY
 10
458.505274
 11
457.060821
 20
277.36365
 21
277.363657
  0
LINE
  8
APS_GEOMETRY
 10
457.060821
 11
457.060821
 20
277.363657
 21
272.363656
  0
LINE
  8
APS_GEOMETRY
 10
457.060821
 11
458.505265
 20
272.363656
 21
272.363656
  0
ARC
  8
APS_GEOMETRY
 10
458.509982
 20
273.995205
 40
1.631556
 50
269.834347
 51
321.285791
  0
ARC
  8
APS_GEOMETRY
 10
457.452284
 20
274.863656
 40
3.000056
 50
320.978157
 51
39.021852
  0
LINE
  8
APS_GEOMETRY
 10
472.967731
 11
472.967731
 20
277.316195
 21
273.982862
  0
ARC
  8
APS_GEOMETRY
 10
474.634398
 20
273.982862
 40
1.666667
 50
180.0
 51
0.0
  0
LINE
  8
APS_GEOMETRY
 10
476.301065
 11
476.301065
 20
273.982862
 21
277.316195
  0
ARC
  8
APS_GEOMETRY
 10
497.86792
 20
274.900535
 40
3.039389
 50
31.026839
 51
40.045456
  0
ARC
  8
APS_GEOMETRY
 10
498.916881
 20
275.832829
 40
1.637
 50
38.687081
 51
141.311845
  0
ARC
  8
APS_GEOMETRY
 10
500.004209
 20
274.939431
 40
3.044222
 50
140.979047
 51
219.021747
  0
ARC
  8
APS_GEOMETRY
 10
498.912192
 20
274.043179
 40
1.631556
 50
218.714325
 51
270.166303
  0
ARC
  8
APS_GEOMETRY
 10
498.913188
 20
274.112571
 40
1.700945
 50
270.12598
 51
341.693516
  0
LINE
  8
APS_GEOMETRY
 10
500.528048
 11
500.528021
 20
273.578304
 21
274.856071
  0
LINE
  8
APS_GEOMETRY
 10
500.528021
 11
499.250243
 20
274.856071
 21
274.856071
  0
ARC
  8
APS_GEOMETRY
 10
515.782251
 20
275.396916
 40
2.055222
 50
42.9037
 51
122.5462
  0
ARC
  8
APS_GEOMETRY
 10
515.254686
 20
276.24953
 40
1.052778
 50
123.306728
 51
253.425543
  0
LINE
  8
APS_GEOMETRY
 10
514.95437
 11
516.621029
 20
275.240495
 21
274.684916
  0
ARC
  8
APS_GEOMETRY
 10
516.281689
 20
273.608412
 40
1.128722
 50
299.837909
 51
72.503875
  0
ARC
  8
APS_GEOMETRY
 10
515.759996
 20
274.507593
 40
2.168278
 50
240.022511
 51
299.97398
  0
ARC
  8
APS_GEOMETRY
 10
515.26945
 20
273.666888
 40
1.194945
 50
209.759308
 51
240.255317
  0
ARC
  8
APS_GEOMETRY
 10
527.792666
 20
273.939671
 40
1.637
 50
218.6887
 51
321.3113
  0
ARC
  8
APS_GEOMETRY
 10
526.70536
 20
274.833095
 40
3.044222
 50
320.978111
 51
39.020745
  0
ARC
  8
APS_GEOMETRY
 10
527.792695
 20
275.726484
 40
1.637
 50
38.688185
 51
141.312889
  0
ARC
  8
APS_GEOMETRY
 10
528.880002
 20
274.833059
 40
3.044222
 50
140.978963
 51
219.021016
  0
LINE
  8
APS_GEOMETRY
 10
532.881593
 11
532.881631
 20
272.363656
 21
274.663673
  0
ARC
  8
APS_GEOMETRY
 10
532.036093
 20
274.668118
 40
0.84555
 50
359.698802
 51
90.305782
  0
ARC
  8
APS_GEOMETRY
 10
532.030443
 20
274.059256
 40
1.4544
 50
89.9552
 51
153.259836
  0
LINE
  8
APS_GEOMETRY
 10
535.031593
 11
535.031631
 20
272.363656
 21
274.663673
  0
ARC
  8
APS_GEOMETRY
 10
534.186093
 20
274.668118
 40
0.84555
 50
359.698802
 51
90.305782
  0
ARC
  8
APS_GEOMETRY
 10
534.180443
 20
274.059256
 40
1.4544
 50
89.9552
 51
153.259836
  0
LINE
  8
APS_GEOMETRY
 10
538.181653
 11
538.181691
 20
272.363656
 21
274.663673
  0
ARC
  8
APS_GEOMETRY
 10
537.336153
 20
274.668118
 40
0.84555
 50
359.698802
 51
90.305782
  0
ARC
  8
APS_GEOMETRY
 10
537.330503
 20
274.059256
 40
1.4544
 50
89.9552
 51
153.259836
  0
LINE
  8
APS_GEOMETRY
 10
540.331653
 11
540.331691
 20
272.363656
 21
274.663673
  0
ARC
  8
APS_GEOMETRY
 10
539.486153
 20
274.668118
 40
0.84555
 50
359.698802
 51
90.305782
  0
ARC
  8
APS_GEOMETRY
 10
539.480503
 20
274.059256
 40
1.4544
 50
89.9552
 51
153.259836
  0
ARC
  8
APS_GEOMETRY
 10
547.53088
 20
275.732101
 40
1.631556
 50
38.7145
 51
90.1655
  0
LINE
  8
APS_GEOMETRY
 10
547.526167
 11
546.081714
 20
277.36365
 21
277.363657
  0
LINE
  8
APS_GEOMETRY
 10
546.081714
 11
546.081714
 20
277.363657
 21
272.363656
  0
LINE
  8
APS_GEOMETRY
 10
546.081714
 11
547.526158
 20
272.363656
 21
272.363656
  0
ARC
  8
APS_GEOMETRY
 10
547.530875
 20
273.995205
 40
1.631556
 50
269.834347
 51
321.285791
  0
ARC
  8
APS_GEOMETRY
 10
546.473177
 20
274.863656
 40
3.000056
 50
320.978157
 51
39.021852
  0
LINE
  8
APS_GEOMETRY
 10
575.552048
 11
577.940937
 20
274.808101
 21
274.808101
  0
ARC
  8
APS_GEOMETRY
 10
577.940937
 20
276.085879
 40
1.277778
 50
270.0
 51
90.0
  0
LINE
  8
APS_GEOMETRY
 10
577.940937
 11
575.552048
 20
277.363657
 21
277.363657
  0
LINE
  8
APS_GEOMETRY
 10
575.552048
 11
575.552048
 20
277.363657
 21
272.363656
  0
ARC
  8
APS_GEOMETRY
 10
594.70677
 20
274.197435
 40
1.865667
 50
202.7274
 51
247.2726
  0
ARC
  8
APS_GEOMETRY
 10
594.735966
 20
274.231591
 40
1.9085
 50
246.860317
 51
293.140751
  0
ARC
  8
APS_GEOMETRY
 10
594.776381
 20
274.154721
 40
1.821945
 50
292.922061
 51
357.893255
  0
ARC
  8
APS_GEOMETRY
 10
594.956823
 20
274.145214
 40
1.641278
 50
357.993338
 51
71.191209
  0
ARC
  8
APS_GEOMETRY
 10
594.735882
 20
273.493009
 40
2.329889
 50
71.219134
 51
108.775457
  0
ARC
  8
APS_GEOMETRY
 10
594.588381
 20
273.892666
 40
1.904056
 50
108.443894
 51
138.941068
  0
LINE
  8
APS_GEOMETRY
 10
593.152658
 11
593.541547
 20
275.143317
 21
277.365546
  0
LINE
  8
APS_GEOMETRY
 10
593.541547
 11
596.041548
 20
277.365546
 21
277.365546
  0
LINE
  8
APS_GEOMETRY
 10
599.73085
 11
599.730888
 20
272.363656
 21
274.663673
  0
ARC
  8
APS_GEOMETRY
 10
598.88535
 20
274.668118
 40
0.84555
 50
359.698802
 51
90.305782
  0
ARC
  8
APS_GEOMETRY
 10
598.8797
 20
274.059256
 40
1.4544
 50
89.9552
 51
153.259836
  0
LINE
  8
APS_GEOMETRY
 10
601.88085
 11
601.880888
 20
272.363656
 21
274.663673
  0
ARC
  8
APS_GEOMETRY
 10
601.03535
 20
274.668118
 40
0.84555
 50
359.698802
 51
90.305782
  0
ARC
  8
APS_GEOMETRY
 10
601.0297
 20
274.059256
 40
1.4544
 50
89.9552
 51
153.259836
  0
LINE
  8
APS_GEOMETRY
 10
605.030911
 11
605.030948
 20
272.363656
 21
274.663673
  0
ARC
  8
APS_GEOMETRY
 10
604.18541
 20
274.668118
 40
0.84555
 50
359.698802
 51
90.305782
  0
ARC
  8
APS_GEOMETRY
 10
604.179761
 20
274.059256
 40
1.4544
 50
89.95524
 51
153.259836
  0
LINE
  8
APS_GEOMETRY
 10
607.180911
 11
607.180948
 20
272.363656
 21
274.663673
  0
ARC
  8
APS_GEOMETRY
 10
606.33541
 20
274.668118
 40
0.84555
 50
359.698802
 51
90.305782
  0
ARC
  8
APS_GEOMETRY
 10
606.329761
 20
274.059256
 40
1.4544
 50
89.95524
 51
153.259836
  0
ARC
  8
APS_GEOMETRY
 10
625.156408
 20
274.867268
 40
3.039389
 50
31.026839
 51
40.045456
  0
ARC
  8
APS_GEOMETRY
 10
626.20537
 20
275.799561
 40
1.637
 50
38.687131
 51
141.311812
  0
ARC
  8
APS_GEOMETRY
 10
627.292705
 20
274.906172
 40
3.044222
 50
140.979245
 51
219.021895
  0
ARC
  8
APS_GEOMETRY
 10
626.205416
 20
274.012725
 40
1.637
 50
218.687723
 51
321.312628
  0
ARC
  8
APS_GEOMETRY
 10
625.137679
 20
274.774586
 40
2.947556
 50
322.726464
 51
335.345779
  0
ARC
  8
APS_GEOMETRY
 10
458.337756
 20
266.462614
 40
1.559056
 50
208.751948
 51
258.48402
  0
ARC
  8
APS_GEOMETRY
 10
458.668102
 20
267.892029
 40
3.025889
 50
257.758295
 51
286.480369
  0
ARC
  8
APS_GEOMETRY
 10
459.137609
 20
266.357027
 40
1.420833
 50
285.885233
 51
325.197091
  0
ARC
  8
APS_GEOMETRY
 10
459.148738
 20
266.366107
 40
1.416945
 50
324.63873
 51
31.268667
  0
ARC
  8
APS_GEOMETRY
 10
459.101542
 20
266.349819
 40
1.465778
 50
30.855324
 51
75.402364
  0
ARC
  8
APS_GEOMETRY
 10
458.804295
 20
265.164437
 40
2.687833
 50
75.638955
 51
104.361146
  0
ARC
  8
APS_GEOMETRY
 10
457.148238
 20
270.630609
 40
3.0285
 50
289.068087
 51
345.637893
  0
LINE
  8
APS_GEOMETRY
 10
460.08209
 11
457.026514
 20
269.879392
 21
269.879382
  0
ARC
  8
APS_GEOMETRY
 10
466.550555
 20
267.367268
 40
3.039389
 50
31.026839
 51
40.045456
  0
ARC
  8
APS_GEOMETRY
 10
467.599516
 20
268.299562
 40
1.637
 50
38.687081
 51
141.311845
  0
ARC
  8
APS_GEOMETRY
 10
468.686851
 20
267.406173
 40
3.044222
 50
140.97926
 51
219.02191
  0
ARC
  8
APS_GEOMETRY
 10
467.599563
 20
266.512725
 40
1.637
 50
218.6877
 51
321.312634
  0
ARC
  8
APS_GEOMETRY
 10
466.531826
 20
267.274586
 40
2.947556
 50
322.726464
 51
335.345779
  0
ARC
  8
APS_GEOMETRY
 10
471.718833
 20
266.518225
 40
1.637
 50
218.6887
 51
321.3113
  0
ARC
  8
APS_GEOMETRY
 10
470.631527
 20
267.411649
 40
3.044222
 50
320.978111
 51
39.020745
  0
ARC
  8
APS_GEOMETRY
 10
471.718862
 20
268.305038
 40
1.637
 50
38.688185
 51
141.312889
  0
ARC
  8
APS_GEOMETRY
 10
472.806169
 20
267.411613
 40
3.044222
 50
140.978963
 51
219.021016
  0
LINE
  8
APS_GEOMETRY
 10
474.163572
 11
476.552461
 20
267.308101
 21
267.308101
  0
ARC
  8
APS_GEOMETRY
 10
476.552461
 20
268.585879
 40
1.277778
 50
270.0
 51
90.0
  0
LINE
  8
APS_GEOMETRY
 10
476.552461
 11
474.163572
 20
269.863657
 21
269.863657
  0
LINE
  8
APS_GEOMETRY
 10
474.163572
 11
474.163572
 20
269.863657
 21
264.863656
  0
ARC
  8
APS_GEOMETRY
 10
488.282416
 20
267.367268
 40
3.039389
 50
31.026839
 51
40.045456
  0
ARC
  8
APS_GEOMETRY
 10
489.331377
 20
268.299562
 40
1.637
 50
38.687081
 51
141.311845
  0
ARC
  8
APS_GEOMETRY
 10
490.418712
 20
267.406172
 40
3.044222
 50
140.979248
 51
219.021907
  0
ARC
  8
APS_GEOMETRY
 10
489.331424
 20
266.512725
 40
1.637
 50
218.687695
 51
321.312684
  0
ARC
  8
APS_GEOMETRY
 10
488.263683
 20
267.274581
 40
2.947556
 50
322.726613
 51
335.345902
  0
LINE
  8
APS_GEOMETRY
 10
496.203852
 11
498.203852
 20
267.474768
 21
267.474767
  0
ARC
  8
APS_GEOMETRY
 10
498.203852
 20
268.669212
 40
1.194445
 50
270.0
 51
90.0
  0
LINE
  8
APS_GEOMETRY
 10
498.203852
 11
496.203852
 20
269.863657
 21
269.863657
  0
LINE
  8
APS_GEOMETRY
 10
496.203852
 11
496.203852
 20
269.863657
 21
264.863656
  0
LINE
  8
APS_GEOMETRY
 10
496.203852
 11
498.259408
 20
264.863656
 21
264.863656
  0
ARC
  8
APS_GEOMETRY
 10
498.259408
 20
266.169212
 40
1.305556
 50
270.0
 51
90.0
  0
ARC
  8
APS_GEOMETRY
 10
521.346479
 20
267.254544
 40
7.7701
 50
159.4697
 51
200.5303
  0
ARC
  8
APS_GEOMETRY
 10
521.194198
 20
266.518225
 40
1.637
 50
218.6887
 51
321.3113
  0
ARC
  8
APS_GEOMETRY
 10
520.106892
 20
267.411649
 40
3.044222
 50
320.978111
 51
39.020745
  0
ARC
  8
APS_GEOMETRY
 10
521.194227
 20
268.305038
 40
1.637
 50
38.688185
 51
141.312889
  0
ARC
  8
APS_GEOMETRY
 10
522.281534
 20
267.411613
 40
3.044222
 50
140.978963
 51
219.021016
  0
LINE
  8
APS_GEOMETRY
 10
523.638936
 11
526.027825
 20
267.308101
 21
267.308101
  0
ARC
  8
APS_GEOMETRY
 10
526.027825
 20
268.585879
 40
1.277778
 50
270.0
 51
90.0
  0
LINE
  8
APS_GEOMETRY
 10
526.027825
 11
523.638936
 20
269.863657
 21
269.863657
  0
LINE
  8
APS_GEOMETRY
 10
523.638936
 11
523.638936
 20
269.863657
 21
264.863656
  0
LINE
  8
APS_GEOMETRY
 10
562.907679
 11
565.296568
 20
267.308101
 21
267.308101
  0
ARC
  8
APS_GEOMETRY
 10
565.296568
 20
268.585879
 40
1.277778
 50
270.0
 51
90.0
  0
LINE
  8
APS_GEOMETRY
 10
565.296568
 11
562.907679
 20
269.863657
 21
269.863657
  0
LINE
  8
APS_GEOMETRY
 10
562.907679
 11
562.907679
 20
269.863657
 21
264.863656
  0
ARC
  8
APS_GEOMETRY
 10
573.546269
 20
267.896916
 40
2.055222
 50
42.9037
 51
122.5462
  0
ARC
  8
APS_GEOMETRY
 10
573.018704
 20
268.74953
 40
1.052778
 50
123.306728
 51
253.425543
  0
LINE
  8
APS_GEOMETRY
 10
572.718388
 11
574.385047
 20
267.740495
 21
267.184916
  0
ARC
  8
APS_GEOMETRY
 10
574.045707
 20
266.108412
 40
1.128722
 50
299.837909
 51
72.503875
  0
ARC
  8
APS_GEOMETRY
 10
573.524014
 20
267.007593
 40
2.168278
 50
240.022511
 51
299.97398
  0
ARC
  8
APS_GEOMETRY
 10
573.033468
 20
266.166888
 40
1.194945
 50
209.759308
 51
240.255317
  0
ARC
  8
APS_GEOMETRY
 10
568.94242
 20
267.335848
 40
7.8414
 50
339.4697
 51
20.5303
  0
ARC
  8
APS_GEOMETRY
 10
436.897829
 20
258.962614
 40
1.559056
 50
208.751948
 51
258.48402
  0
ARC
  8
APS_GEOMETRY
 10
437.228175
 20
260.392029
 40
3.025889
 50
257.758295
 51
286.480369
  0
ARC
  8
APS_GEOMETRY
 10
437.697682
 20
258.857027
 40
1.420833
 50
285.885233
 51
325.197091
  0
ARC
  8
APS_GEOMETRY
 10
437.708811
 20
258.866107
 40
1.416945
 50
324.63873
 51
31.268667
  0
ARC
  8
APS_GEOMETRY
 10
437.661615
 20
258.849819
 40
1.465778
 50
30.855324
 51
75.402364
  0
ARC
  8
APS_GEOMETRY
 10
437.364368
 20
257.664437
 40
2.687833
 50
75.638955
 51
104.361146
  0
ARC
  8
APS_GEOMETRY
 10
435.708311
 20
263.130609
 40
3.0285
 50
289.068087
 51
345.637893
  0
LINE
  8
APS_GEOMETRY
 10
438.642163
 11
435.586587
 20
262.379392
 21
262.379382
  0
ARC
  8
APS_GEOMETRY
 10
446.380374
 20
260.396916
 40
2.055222
 50
42.9037
 51
122.5462
  0
ARC
  8
APS_GEOMETRY
 10
445.852809
 20
261.24953
 40
1.052778
 50
123.306728
 51
253.425543
  0
LINE
  8
APS_GEOMETRY
 10
445.552493
 11
447.219152
 20
260.240495
 21
259.684916
  0
ARC
  8
APS_GEOMETRY
 10
446.879812
 20
258.608412
 40
1.128722
 50
299.837909
 51
72.503875
  0
ARC
  8
APS_GEOMETRY
 10
446.358119
 20
259.507593
 40
2.168278
 50
240.022511
 51
299.97398
  0
ARC
  8
APS_GEOMETRY
 10
445.867571
 20
258.66689
 40
1.194945
 50
209.759367
 51
240.255434
  0
LINE
  8
APS_GEOMETRY
 10
448.950287
 11
451.339176
 20
259.808101
 21
259.808101
  0
ARC
  8
APS_GEOMETRY
 10
451.339176
 20
261.085879
 40
1.277778
 50
270.0
 51
90.0
  0
LINE
  8
APS_GEOMETRY
 10
451.339176
 11
448.950287
 20
262.363657
 21
262.363657
  0
LINE
  8
APS_GEOMETRY
 10
448.950287
 11
448.950287
 20
262.363657
 21
257.363656
  0
LINE
  8
APS_GEOMETRY
 10
453.116954
 11
455.505843
 20
259.808101
 21
259.808101
  0
ARC
  8
APS_GEOMETRY
 10
455.505843
 20
261.085879
 40
1.277778
 50
270.0
 51
90.0
  0
LINE
  8
APS_GEOMETRY
 10
455.505843
 11
453.116954
 20
262.363657
 21
262.363657
  0
LINE
  8
APS_GEOMETRY
 10
453.116954
 11
453.116954
 20
262.363657
 21
257.363656
  0
ARC
  8
APS_GEOMETRY
 10
465.821423
 20
259.900535
 40
3.039389
 50
31.026839
 51
40.045456
  0
ARC
  8
APS_GEOMETRY
 10
466.870384
 20
260.832829
 40
1.637
 50
38.687081
 51
141.311845
  0
ARC
  8
APS_GEOMETRY
 10
467.957711
 20
259.93943
 40
3.044222
 50
140.97902
 51
219.021729
  0
ARC
  8
APS_GEOMETRY
 10
466.865693
 20
259.043179
 40
1.631556
 50
218.714342
 51
270.166331
  0
ARC
  8
APS_GEOMETRY
 10
466.86669
 20
259.112571
 40
1.700945
 50
270.12598
 51
341.693516
  0
LINE
  8
APS_GEOMETRY
 10
468.48155
 11
468.481524
 20
258.578304
 21
259.856071
  0
LINE
  8
APS_GEOMETRY
 10
468.481524
 11
467.203746
 20
259.856071
 21
259.856071
  0
ARC
  8
APS_GEOMETRY
 10
471.180198
 20
260.396916
 40
2.055222
 50
42.9037
 51
122.5462
  0
ARC
  8
APS_GEOMETRY
 10
470.652633
 20
261.24953
 40
1.052778
 50
123.306728
 51
253.425504
  0
LINE
  8
APS_GEOMETRY
 10
470.352316
 11
472.018976
 20
260.240495
 21
259.684916
  0
ARC
  8
APS_GEOMETRY
 10
471.679636
 20
258.608412
 40
1.128722
 50
299.837909
 51
72.503875
  0
ARC
  8
APS_GEOMETRY
 10
471.157943
 20
259.507593
 40
2.168278
 50
240.022511
 51
299.97398
  0
ARC
  8
APS_GEOMETRY
 10
470.667395
 20
258.66689
 40
1.194945
 50
209.759367
 51
240.255434
  0
LINE
  8
APS_GEOMETRY
 10
482.333444
 11
484.722333
 20
259.808101
 21
259.808101
  0
ARC
  8
APS_GEOMETRY
 10
484.722333
 20
261.085879
 40
1.277778
 50
270.0
 51
90.0
  0
LINE
  8
APS_GEOMETRY
 10
484.722333
 11
482.333444
 20
262.363657
 21
262.363657
  0
LINE
  8
APS_GEOMETRY
 10
482.333444
 11
482.333444
 20
262.363657
 21
257.363656
  0
ARC
  8
APS_GEOMETRY
 10
488.469175
 20
259.018225
 40
1.637
 50
218.6887
 51
321.3113
  0
ARC
  8
APS_GEOMETRY
 10
487.381869
 20
259.911649
 40
3.044222
 50
320.978111
 51
39.020745
  0
ARC
  8
APS_GEOMETRY
 10
488.469204
 20
260.805038
 40
1.637
 50
38.688185
 51
141.312889
  0
ARC
  8
APS_GEOMETRY
 10
489.556511
 20
259.911613
 40
3.044222
 50
140.978963
 51
219.021016
  0
ARC
  8
APS_GEOMETRY
 10
501.477202
 20
259.867268
 40
3.039389
 50
31.026839
 51
40.045456
  0
ARC
  8
APS_GEOMETRY
 10
502.526163
 20
260.799562
 40
1.637
 50
38.687081
 51
141.311845
  0
ARC
  8
APS_GEOMETRY
 10
503.613498
 20
259.906172
 40
3.044222
 50
140.979248
 51
219.021907
  0
ARC
  8
APS_GEOMETRY
 10
502.52621
 20
259.012725
 40
1.637
 50
218.687695
 51
321.312684
  0
ARC
  8
APS_GEOMETRY
 10
501.458473
 20
259.774586
 40
2.947556
 50
322.726482
 51
335.345781
  0
ARC
  8
APS_GEOMETRY
 10
512.735186
 20
259.867268
 40
3.039389
 50
31.026839
 51
40.045456
  0
ARC
  8
APS_GEOMETRY
 10
513.784147
 20
260.799562
 40
1.637
 50
38.687081
 51
141.311845
  0
ARC
  8
APS_GEOMETRY
 10
514.871482
 20
259.906173
 40
3.044222
 50
140.97926
 51
219.02191
  0
ARC
  8
APS_GEOMETRY
 10
513.784194
 20
259.012725
 40
1.637
 50
218.6877
 51
321.312634
  0
ARC
  8
APS_GEOMETRY
 10
512.716457
 20
259.774586
 40
2.947556
 50
322.726464
 51
335.345779
  0
LINE
  8
APS_GEOMETRY
 10
525.795511
 11
528.1844
 20
259.808101
 21
259.808101
  0
ARC
  8
APS_GEOMETRY
 10
528.1844
 20
261.085879
 40
1.277778
 50
270.0
 51
90.0
  0
LINE
  8
APS_GEOMETRY
 10
528.1844
 11
525.795511
 20
262.363657
 21
262.363657
  0
LINE
  8
APS_GEOMETRY
 10
525.795511
 11
525.795511
 20
262.363657
 21
257.363656
  0
ARC
  8
APS_GEOMETRY
 10
540.267435
 20
260.396916
 40
2.055222
 50
42.9037
 51
122.5462
  0
ARC
  8
APS_GEOMETRY
 10
539.73987
 20
261.24953
 40
1.052778
 50
123.306728
 51
253.425543
  0
LINE
  8
APS_GEOMETRY
 10
539.439554
 11
541.106213
 20
260.240495
 21
259.684916
  0
ARC
  8
APS_GEOMETRY
 10
540.766873
 20
258.608412
 40
1.128722
 50
299.837909
 51
72.503875
  0
ARC
  8
APS_GEOMETRY
 10
540.24518
 20
259.507593
 40
2.168278
 50
240.022511
 51
299.97398
  0
ARC
  8
APS_GEOMETRY
 10
539.754632
 20
258.66689
 40
1.194945
 50
209.759367
 51
240.255434
  0
LINE
  8
APS_GEOMETRY
 10
188.191051
 11
184.857719
 20
322.22274
 21
322.222763
  0
ARC
  8
APS_GEOMETRY
 10
186.620106
 20
322.225119
 40
1.762389
 50
121.813577
 51
180.076579
  0
LINE
  8
APS_GEOMETRY
 10
185.69105
 11
187.579927
 20
323.72274
 21
324.889409
  0
ARC
  8
APS_GEOMETRY
 10
186.965091
 20
325.944954
 40
1.221556
 50
300.220031
 51
59.779459
  0
ARC
  8
APS_GEOMETRY
 10
186.635451
 20
325.245376
 40
1.993111
 50
61.713885
 51
118.283728
  0
ARC
  8
APS_GEOMETRY
 10
186.250273
 20
325.949684
 40
1.190389
 50
118.020701
 51
169.47165
  0
LINE
  8
APS_GEOMETRY
 10
194.524384
 11
191.191053
 20
322.22274
 21
322.222763
  0
ARC
  8
APS_GEOMETRY
 10
192.95344
 20
322.225119
 40
1.762389
 50
121.813577
 51
180.076579
  0
LINE
  8
APS_GEOMETRY
 10
192.024384
 11
193.91326
 20
323.72274
 21
324.889409
  0
ARC
  8
APS_GEOMETRY
 10
193.298425
 20
325.944954
 40
1.221556
 50
300.219977
 51
59.779432
  0
ARC
  8
APS_GEOMETRY
 10
192.968786
 20
325.245375
 40
1.993111
 50
61.713899
 51
118.283738
  0
ARC
  8
APS_GEOMETRY
 10
192.583606
 20
325.949683
 40
1.190389
 50
118.02064
 51
169.471621
  0
ARC
  8
APS_GEOMETRY
 10
452.598997
 20
251.784319
 40
1.559056
 50
208.751948
 51
258.48402
  0
ARC
  8
APS_GEOMETRY
 10
452.929341
 20
253.213735
 40
3.025889
 50
257.758344
 51
286.48041
  0
ARC
  8
APS_GEOMETRY
 10
453.398851
 20
251.678733
 40
1.420833
 50
285.885151
 51
325.197017
  0
ARC
  8
APS_GEOMETRY
 10
453.409979
 20
251.687812
 40
1.416945
 50
324.638774
 51
31.268689
  0
ARC
  8
APS_GEOMETRY
 10
453.362782
 20
251.671524
 40
1.465778
 50
30.855306
 51
75.402322
  0
ARC
  8
APS_GEOMETRY
 10
453.065535
 20
250.486142
 40
2.687833
 50
75.638926
 51
104.361134
  0
ARC
  8
APS_GEOMETRY
 10
451.409479
 20
255.952314
 40
3.0285
 50
289.06808
 51
345.637891
  0
LINE
  8
APS_GEOMETRY
 10
454.34333
 11
451.287755
 20
255.201097
 21
255.201087
  0
ARC
  8
APS_GEOMETRY
 10
471.35932
 20
253.218621
 40
2.055222
 50
42.9037
 51
122.5462
  0
ARC
  8
APS_GEOMETRY
 10
470.831755
 20
254.071235
 40
1.052778
 50
123.306728
 51
253.425553
  0
LINE
  8
APS_GEOMETRY
 10
470.531439
 11
472.198098
 20
253.0622
 21
252.506621
  0
ARC
  8
APS_GEOMETRY
 10
471.858757
 20
251.430117
 40
1.128722
 50
299.837948
 51
72.503841
  0
ARC
  8
APS_GEOMETRY
 10
471.337064
 20
252.329298
 40
2.168278
 50
240.022531
 51
299.973996
  0
ARC
  8
APS_GEOMETRY
 10
470.846519
 20
251.488593
 40
1.194945
 50
209.75929
 51
240.255326
  0
LINE
  8
APS_GEOMETRY
 10
482.873678
 11
485.262567
 20
252.629806
 21
252.629806
  0
ARC
  8
APS_GEOMETRY
 10
485.262567
 20
253.907584
 40
1.277778
 50
270.0
 51
90.0
  0
LINE
  8
APS_GEOMETRY
 10
485.262567
 11
482.873678
 20
255.185362
 21
255.185362
  0
LINE
  8
APS_GEOMETRY
 10
482.873678
 11
482.873678
 20
255.185362
 21
250.185362
  0
ARC
  8
APS_GEOMETRY
 10
489.178935
 20
253.218621
 40
2.055222
 50
42.9037
 51
122.5462
  0
ARC
  8
APS_GEOMETRY
 10
488.65137
 20
254.071235
 40
1.052778
 50
123.306708
 51
253.425514
  0
LINE
  8
APS_GEOMETRY
 10
488.351053
 11
490.017712
 20
253.0622
 21
252.506621
  0
ARC
  8
APS_GEOMETRY
 10
489.678371
 20
251.430117
 40
1.128722
 50
299.837948
 51
72.503841
  0
ARC
  8
APS_GEOMETRY
 10
489.156679
 20
252.329299
 40
2.168278
 50
240.022547
 51
299.973981
  0
ARC
  8
APS_GEOMETRY
 10
488.666132
 20
251.488594
 40
1.194945
 50
209.759337
 51
240.255408
  0
LINE
  8
APS_GEOMETRY
 10
460.202701
 11
462.59159
 20
245.129806
 21
245.129806
  0
ARC
  8
APS_GEOMETRY
 10
462.59159
 20
246.407584
 40
1.277778
 50
270.0
 51
90.0
  0
LINE
  8
APS_GEOMETRY
 10
462.59159
 11
460.202701
 20
247.685362
 21
247.685362
  0
LINE
  8
APS_GEOMETRY
 10
460.202701
 11
460.202701
 20
247.685362
 21
242.685362
  0
ARC
  8
APS_GEOMETRY
 10
495.500361
 20
245.188973
 40
3.039389
 50
31.026839
 51
40.045456
  0
ARC
  8
APS_GEOMETRY
 10
496.549323
 20
246.121266
 40
1.637
 50
38.687109
 51
141.311816
  0
ARC
  8
APS_GEOMETRY
 10
497.636658
 20
245.227878
 40
3.044222
 50
140.97926
 51
219.021885
  0
ARC
  8
APS_GEOMETRY
 10
496.549369
 20
244.334431
 40
1.637
 50
218.687704
 51
321.312649
  0
ARC
  8
APS_GEOMETRY
 10
495.481631
 20
245.09629
 40
2.947556
 50
322.726528
 51
335.34583
  0
LINE
  8
APS_GEOMETRY
 10
499.199575
 11
501.588464
 20
245.129806
 21
245.129806
  0
ARC
  8
APS_GEOMETRY
 10
501.588464
 20
246.407584
 40
1.277778
 50
270.0
 51
90.0
  0
LINE
  8
APS_GEOMETRY
 10
501.588464
 11
499.199575
 20
247.685362
 21
247.685362
  0
LINE
  8
APS_GEOMETRY
 10
499.199575
 11
499.199575
 20
247.685362
 21
242.685362
  0
ARC
  8
APS_GEOMETRY
 10
515.313902
 20
245.188973
 40
3.039389
 50
31.026839
 51
40.045456
  0
ARC
  8
APS_GEOMETRY
 10
516.362863
 20
246.121267
 40
1.637
 50
38.687081
 51
141.311844
  0
ARC
  8
APS_GEOMETRY
 10
517.450198
 20
245.227878
 40
3.044222
 50
140.97926
 51
219.021885
  0
ARC
  8
APS_GEOMETRY
 10
516.36291
 20
244.334431
 40
1.637
 50
218.687676
 51
321.312677
  0
ARC
  8
APS_GEOMETRY
 10
515.295169
 20
245.096287
 40
2.947556
 50
322.726609
 51
335.345901
  0
ARC
  8
APS_GEOMETRY
 10
524.131959
 20
245.188973
 40
3.039389
 50
31.026839
 51
40.045456
  0
ARC
  8
APS_GEOMETRY
 10
525.180921
 20
246.121266
 40
1.637
 50
38.687109
 51
141.311816
  0
ARC
  8
APS_GEOMETRY
 10
526.268256
 20
245.227878
 40
3.044222
 50
140.97926
 51
219.021885
  0
ARC
  8
APS_GEOMETRY
 10
525.180967
 20
244.334431
 40
1.637
 50
218.687704
 51
321.312649
  0
ARC
  8
APS_GEOMETRY
 10
524.113229
 20
245.09629
 40
2.947556
 50
322.726528
 51
335.34583
  0
ARC
  8
APS_GEOMETRY
 10
562.779356
 20
245.076249
 40
7.7701
 50
159.4697
 51
200.5303
  0
LINE
  8
APS_GEOMETRY
 10
560.741344
 11
562.741345
 20
245.296473
 21
245.296472
  0
ARC
  8
APS_GEOMETRY
 10
562.741345
 20
246.490917
 40
1.194445
 50
270.0
 51
90.0
  0
LINE
  8
APS_GEOMETRY
 10
562.741345
 11
560.741344
 20
247.685362
 21
247.685362
  0
LINE
  8
APS_GEOMETRY
 10
560.741344
 11
560.741344
 20
247.685362
 21
242.685362
  0
LINE
  8
APS_GEOMETRY
 10
560.741344
 11
562.7969
 20
242.685362
 21
242.685362
  0
ARC
  8
APS_GEOMETRY
 10
562.795757
 20
243.990917
 40
1.305556
 50
270.050145
 51
89.949855
  0
ARC
  8
APS_GEOMETRY
 10
565.539805
 20
245.157553
 40
7.8414
 50
339.4697
 51
20.5303
  0
LINE
  8
APS_GEOMETRY
 10
308.822216
 11
311.022216
 20
264.636535
 21
264.636535
  0
LINE
  8
APS_GEOMETRY
 10
311.022216
 11
311.022216
 20
264.636535
 21
259.236535
  0
LINE
  8
APS_GEOMETRY
 10
311.022216
 11
308.822216
 20
259.236535
 21
259.236535
  0
LINE
  8
APS_GEOMETRY
 10
308.822216
 11
308.822216
 20
259.236535
 21
264.636535
  0
LINE
  8
APS_GEOMETRY
 10
242.669045
 11
244.869045
 20
264.590162
 21
264.590162
  0
LINE
  8
APS_GEOMETRY
 10
244.869045
 11
244.869045
 20
264.590162
 21
259.190162
  0
LINE
  8
APS_GEOMETRY
 10
244.869045
 11
242.669045
 20
259.190162
 21
259.190162
  0
LINE
  8
APS_GEOMETRY
 10
242.669045
 11
242.669045
 20
259.190162
 21
264.590162
  0
LINE
  8
APS_GEOMETRY
 10
327.18539
 11
337.646339
 20
397.574532
 21
397.574532
  0
LINE
  8
APS_GEOMETRY
 10
337.646339
 11
337.646339
 20
397.574532
 21
299.323666
  0
LINE
  8
APS_GEOMETRY
 10
337.646339
 11
326.775157
 20
299.323666
 21
299.323666
  0
LINE
  8
APS_GEOMETRY
 10
326.570041
 11
337.441222
 20
290.913884
 21
290.913884
  0
LINE
  8
APS_GEOMETRY
 10
337.441222
 11
337.441222
 20
290.913884
 21
237.993793
  0
LINE
  8
APS_GEOMETRY
 10
337.441222
 11
325.954691
 20
237.993793
 21
237.993793
  0
LINE
  8
APS_GEOMETRY
 10
218.131956
 11
184.682492
 20
345.835099
 21
345.835099
  0
LINE
  8
APS_GEOMETRY
 10
218.131956
 11
184.682492
 20
303.610427
 21
303.610427
  0
LINE
  8
APS_GEOMETRY
 10
187.182492
 11
188.015992
 20
345.835099
 21
340.835099
  0
LINE
  8
APS_GEOMETRY
 10
188.015992
 11
186.348992
 20
340.835099
 21
340.835099
  0
LINE
  8
APS_GEOMETRY
 10
186.348992
 11
187.182492
 20
340.835099
 21
345.835099
  0
LINE
  8
APS_GEOMETRY
 10
187.182492
 11
187.182492
 20
345.835099
 21
328.488487
  0
LINE
  8
APS_GEOMETRY
 10
187.182492
 11
187.182492
 20
320.97274
 21
303.610427
  0
LINE
  8
APS_GEOMETRY
 10
187.182492
 11
188.015992
 20
303.610427
 21
308.610427
  0
LINE
  8
APS_GEOMETRY
 10
188.015992
 11
186.348992
 20
308.610427
 21
308.610427
  0
LINE
  8
APS_GEOMETRY
 10
186.348992
 11
187.182492
 20
308.610427
 21
303.610427
  0
LINE
  8
APS_GEOMETRY
 10
351.898955
 11
351.898955
 20
378.908919
 21
382.058919
  0
LINE
  8
APS_GEOMETRY
 10
357.199016
 11
357.199016
 20
378.908919
 21
382.058919
  0
LINE
  8
APS_GEOMETRY
 10
367.360187
 11
370.415743
 20
380.41901
 21
380.41901
  0
LINE
  8
APS_GEOMETRY
 10
366.749076
 11
368.69352
 20
378.908919
 21
383.908919
  0
LINE
  8
APS_GEOMETRY
 10
368.69352
 11
369.137965
 20
383.908919
 21
383.908919
  0
LINE
  8
APS_GEOMETRY
 10
369.137965
 11
370.971298
 20
383.908919
 21
378.908919
  0
LINE
  8
APS_GEOMETRY
 10
378.111578
 11
379.22269
 20
381.353363
 21
378.908919
  0
LINE
  8
APS_GEOMETRY
 10
380.129312
 11
382.073756
 20
383.890883
 21
381.113105
  0
LINE
  8
APS_GEOMETRY
 10
382.073756
 11
382.073756
 20
381.113105
 21
378.890883
  0
LINE
  8
APS_GEOMETRY
 10
382.073756
 11
384.018201
 20
381.113105
 21
383.890883
  0
LINE
  8
APS_GEOMETRY
 10
384.444912
 11
384.444912
 20
383.908919
 21
378.908919
  0
LINE
  8
APS_GEOMETRY
 10
384.444912
 11
387.778246
 20
378.908919
 21
378.908919
  0
LINE
  8
APS_GEOMETRY
 10
388.278414
 11
389.45671
 20
383.907722
 21
383.908919
  0
LINE
  8
APS_GEOMETRY
 10
389.45671
 11
389.45671
 20
383.908919
 21
378.908919
  0
LINE
  8
APS_GEOMETRY
 10
389.45671
 11
388.278414
 20
378.908919
 21
378.907722
  0
LINE
  8
APS_GEOMETRY
 10
389.45671
 11
390.635007
 20
378.908919
 21
378.907722
  0
LINE
  8
APS_GEOMETRY
 10
389.45671
 11
390.635007
 20
383.908919
 21
383.907722
  0
LINE
  8
APS_GEOMETRY
 10
409.488236
 11
406.154902
 20
383.908919
 21
383.908919
  0
LINE
  8
APS_GEOMETRY
 10
406.154902
 11
406.154902
 20
383.908919
 21
378.908919
  0
LINE
  8
APS_GEOMETRY
 10
406.154902
 11
409.488236
 20
378.908919
 21
378.908919
  0
LINE
  8
APS_GEOMETRY
 10
406.210458
 11
408.377125
 20
381.575586
 21
381.575586
  0
LINE
  8
APS_GEOMETRY
 10
410.488236
 11
410.488236
 20
383.908919
 21
378.908919
  0
LINE
  8
APS_GEOMETRY
 10
410.488236
 11
413.821569
 20
378.908919
 21
378.908919
  0
LINE
  8
APS_GEOMETRY
 10
417.654903
 11
414.321569
 20
383.908919
 21
383.908919
  0
LINE
  8
APS_GEOMETRY
 10
414.321569
 11
414.321569
 20
383.908919
 21
378.908919
  0
LINE
  8
APS_GEOMETRY
 10
414.321569
 11
417.654903
 20
378.908919
 21
378.908919
  0
LINE
  8
APS_GEOMETRY
 10
414.377125
 11
416.543792
 20
381.575586
 21
381.575586
  0
LINE
  8
APS_GEOMETRY
 10
424.187932
 11
424.187932
 20
383.887555
 21
378.94311
  0
LINE
  8
APS_GEOMETRY
 10
422.243487
 11
426.132376
 20
383.943111
 21
383.943111
  0
LINE
  8
APS_GEOMETRY
 10
435.678064
 11
431.511397
 20
380.5773
 21
380.5773
  0
LINE
  8
APS_GEOMETRY
 10
431.511397
 11
431.511397
 20
380.5773
 21
380.855078
  0
LINE
  8
APS_GEOMETRY
 10
431.511397
 11
434.289175
 20
380.855078
 21
383.910634
  0
LINE
  8
APS_GEOMETRY
 10
434.289175
 11
434.566952
 20
383.910634
 21
383.910634
  0
LINE
  8
APS_GEOMETRY
 10
434.566952
 11
434.566952
 20
383.910634
 21
378.910633
  0
LINE
  8
APS_GEOMETRY
 10
454.033086
 11
455.144197
 20
381.353363
 21
378.908919
  0
LINE
  8
APS_GEOMETRY
 10
465.543745
 11
461.377078
 20
380.5773
 21
380.5773
  0
LINE
  8
APS_GEOMETRY
 10
461.377078
 11
461.377078
 20
380.5773
 21
380.855078
  0
LINE
  8
APS_GEOMETRY
 10
461.377078
 11
464.154856
 20
380.855078
 21
383.910634
  0
LINE
  8
APS_GEOMETRY
 10
464.154856
 11
464.432633
 20
383.910634
 21
383.910634
  0
LINE
  8
APS_GEOMETRY
 10
464.432633
 11
464.432633
 20
383.910634
 21
378.910633
  0
LINE
  8
APS_GEOMETRY
 10
477.674344
 11
478.852641
 20
383.907722
 21
383.908919
  0
LINE
  8
APS_GEOMETRY
 10
478.852641
 11
478.852641
 20
383.908919
 21
378.908919
  0
LINE
  8
APS_GEOMETRY
 10
478.852641
 11
477.674344
 20
378.908919
 21
378.907722
  0
LINE
  8
APS_GEOMETRY
 10
478.852641
 11
480.030937
 20
378.908919
 21
378.907722
  0
LINE
  8
APS_GEOMETRY
 10
478.852641
 11
480.030937
 20
383.908919
 21
383.907722
  0
LINE
  8
APS_GEOMETRY
 10
481.086325
 11
483.252991
 20
381.408919
 21
381.408919
  0
LINE
  8
APS_GEOMETRY
 10
484.364103
 11
481.030769
 20
383.908919
 21
383.908919
  0
LINE
  8
APS_GEOMETRY
 10
481.030769
 11
481.030769
 20
383.908919
 21
378.908919
  0
LINE
  8
APS_GEOMETRY
 10
506.611745
 11
507.790042
 20
383.907722
 21
383.908919
  0
LINE
  8
APS_GEOMETRY
 10
507.790042
 11
507.790042
 20
383.908919
 21
378.908919
  0
LINE
  8
APS_GEOMETRY
 10
507.790042
 11
506.611745
 20
378.908919
 21
378.907722
  0
LINE
  8
APS_GEOMETRY
 10
507.790042
 11
508.968338
 20
378.908919
 21
378.907722
  0
LINE
  8
APS_GEOMETRY
 10
507.790042
 11
508.968338
 20
383.908919
 21
383.907722
  0
LINE
  8
APS_GEOMETRY
 10
514.329281
 11
514.329281
 20
383.908919
 21
378.908919
  0
LINE
  8
APS_GEOMETRY
 10
514.329281
 11
517.662615
 20
378.908919
 21
378.908919
  0
LINE
  8
APS_GEOMETRY
 10
521.495948
 11
518.162615
 20
383.908919
 21
383.908919
  0
LINE
  8
APS_GEOMETRY
 10
518.162615
 11
518.162615
 20
383.908919
 21
378.908919
  0
LINE
  8
APS_GEOMETRY
 10
518.162615
 11
521.495948
 20
378.908919
 21
378.908919
  0
LINE
  8
APS_GEOMETRY
 10
518.21817
 11
520.384837
 20
381.575586
 21
381.575586
  0
LINE
  8
APS_GEOMETRY
 10
356.394153
 11
356.394153
 20
279.63247
 21
282.78247
  0
LINE
  8
APS_GEOMETRY
 10
361.694213
 11
361.694213
 20
279.63247
 21
282.78247
  0
LINE
  8
APS_GEOMETRY
 10
371.855385
 11
374.91094
 20
281.142561
 21
281.142561
  0
LINE
  8
APS_GEOMETRY
 10
371.244274
 11
373.188718
 20
279.63247
 21
284.63247
  0
LINE
  8
APS_GEOMETRY
 10
373.188718
 11
373.633163
 20
284.63247
 21
284.63247
  0
LINE
  8
APS_GEOMETRY
 10
373.633163
 11
375.466496
 20
284.63247
 21
279.63247
  0
LINE
  8
APS_GEOMETRY
 10
382.606776
 11
383.717887
 20
282.076914
 21
279.63247
  0
LINE
  8
APS_GEOMETRY
 10
384.62451
 11
386.568954
 20
284.614434
 21
281.836656
  0
LINE
  8
APS_GEOMETRY
 10
386.568954
 11
386.568954
 20
281.836656
 21
279.614434
  0
LINE
  8
APS_GEOMETRY
 10
386.568954
 11
388.513399
 20
281.836656
 21
284.614434
  0
LINE
  8
APS_GEOMETRY
 10
388.94011
 11
388.94011
 20
284.63247
 21
279.63247
  0
LINE
  8
APS_GEOMETRY
 10
388.94011
 11
392.273443
 20
279.63247
 21
279.63247
  0
LINE
  8
APS_GEOMETRY
 10
392.773611
 11
393.951908
 20
284.631272
 21
284.63247
  0
LINE
  8
APS_GEOMETRY
 10
393.951908
 11
393.951908
 20
284.63247
 21
279.63247
  0
LINE
  8
APS_GEOMETRY
 10
393.951908
 11
392.773611
 20
279.63247
 21
279.631272
  0
LINE
  8
APS_GEOMETRY
 10
393.951908
 11
395.130204
 20
279.63247
 21
279.631272
  0
LINE
  8
APS_GEOMETRY
 10
393.951908
 11
395.130204
 20
284.63247
 21
284.631272
  0
LINE
  8
APS_GEOMETRY
 10
440.024795
 11
443.080351
 20
348.873748
 21
348.873748
  0
LINE
  8
APS_GEOMETRY
 10
439.413684
 11
441.358129
 20
347.363656
 21
352.363657
  0
LINE
  8
APS_GEOMETRY
 10
441.358129
 11
441.802573
 20
352.363657
 21
352.363657
  0
LINE
  8
APS_GEOMETRY
 10
441.802573
 11
443.635907
 20
352.363657
 21
347.363656
  0
LINE
  8
APS_GEOMETRY
 10
446.358129
 11
447.46924
 20
349.808101
 21
347.363656
  0
LINE
  8
APS_GEOMETRY
 10
450.267545
 11
450.267545
 20
352.342292
 21
347.397848
  0
LINE
  8
APS_GEOMETRY
 10
448.3231
 11
452.211989
 20
352.397848
 21
352.397848
  0
LINE
  8
APS_GEOMETRY
 10
463.872187
 11
464.983299
 20
349.808101
 21
347.363656
  0
LINE
  8
APS_GEOMETRY
 10
469.649965
 11
466.316632
 20
352.363657
 21
352.363657
  0
LINE
  8
APS_GEOMETRY
 10
466.316632
 11
466.316632
 20
352.363657
 21
347.363656
  0
LINE
  8
APS_GEOMETRY
 10
466.316632
 11
469.649965
 20
347.363656
 21
347.363656
  0
LINE
  8
APS_GEOMETRY
 10
466.372188
 11
468.538854
 20
350.030323
 21
350.030323
  0
LINE
  8
APS_GEOMETRY
 10
478.897327
 11
480.075624
 20
352.362459
 21
352.363657
  0
LINE
  8
APS_GEOMETRY
 10
480.075624
 11
480.075624
 20
352.363657
 21
347.363656
  0
LINE
  8
APS_GEOMETRY
 10
480.075624
 11
478.897327
 20
347.363656
 21
347.362459
  0
LINE
  8
APS_GEOMETRY
 10
480.075624
 11
481.253921
 20
347.363656
 21
347.362459
  0
LINE
  8
APS_GEOMETRY
 10
480.075624
 11
481.253921
 20
352.363657
 21
352.362459
  0
LINE
  8
APS_GEOMETRY
 10
484.475975
 11
485.587086
 20
349.808101
 21
347.363656
  0
LINE
  8
APS_GEOMETRY
 10
490.253753
 11
486.920419
 20
352.363657
 21
352.363657
  0
LINE
  8
APS_GEOMETRY
 10
486.920419
 11
486.920419
 20
352.363657
 21
347.363656
  0
LINE
  8
APS_GEOMETRY
 10
486.920419
 11
490.253753
 20
347.363656
 21
347.363656
  0
LINE
  8
APS_GEOMETRY
 10
486.975975
 11
489.142642
 20
350.030323
 21
350.030323
  0
LINE
  8
APS_GEOMETRY
 10
435.397017
 11
437.112644
 20
339.863656
 21
339.863656
  0
LINE
  8
APS_GEOMETRY
 10
436.254831
 11
436.254831
 20
339.863656
 21
344.863657
  0
LINE
  8
APS_GEOMETRY
 10
436.254831
 11
435.397017
 20
344.863657
 21
344.005843
  0
LINE
  8
APS_GEOMETRY
 10
442.862644
 11
442.862644
 20
339.863656
 21
344.863657
  0
LINE
  8
APS_GEOMETRY
 10
442.862644
 11
443.140422
 20
344.863657
 21
344.863657
  0
LINE
  8
APS_GEOMETRY
 10
443.140422
 11
445.084866
 20
344.863657
 21
339.863656
  0
LINE
  8
APS_GEOMETRY
 10
445.084866
 11
447.029311
 20
339.863656
 21
344.863657
  0
LINE
  8
APS_GEOMETRY
 10
447.029311
 11
447.307089
 20
344.863657
 21
344.863657
  0
LINE
  8
APS_GEOMETRY
 10
447.307089
 11
447.307089
 20
344.863657
 21
339.863656
  0
LINE
  8
APS_GEOMETRY
 10
448.4182
 11
451.473755
 20
341.373748
 21
341.373748
  0
LINE
  8
APS_GEOMETRY
 10
447.807089
 11
449.751533
 20
339.863656
 21
344.863657
  0
LINE
  8
APS_GEOMETRY
 10
449.751533
 11
450.195978
 20
344.863657
 21
344.863657
  0
LINE
  8
APS_GEOMETRY
 10
450.195978
 11
452.029311
 20
344.863657
 21
339.863656
  0
LINE
  8
APS_GEOMETRY
 10
456.695978
 11
456.695978
 20
344.863657
 21
339.863656
  0
LINE
  8
APS_GEOMETRY
 10
456.695978
 11
460.029311
 20
339.863656
 21
339.863656
  0
LINE
  8
APS_GEOMETRY
 10
460.529479
 11
461.707776
 20
344.862459
 21
344.863657
  0
LINE
  8
APS_GEOMETRY
 10
461.707776
 11
461.707776
 20
344.863657
 21
339.863656
  0
LINE
  8
APS_GEOMETRY
 10
461.707776
 11
460.529479
 20
339.863656
 21
339.862459
  0
LINE
  8
APS_GEOMETRY
 10
461.707776
 11
462.886073
 20
339.863656
 21
339.862459
  0
LINE
  8
APS_GEOMETRY
 10
461.707776
 11
462.886073
 20
344.863657
 21
344.862459
  0
LINE
  8
APS_GEOMETRY
 10
463.885904
 11
463.885904
 20
339.863656
 21
344.863657
  0
LINE
  8
APS_GEOMETRY
 10
463.885904
 11
464.163682
 20
344.863657
 21
344.863657
  0
LINE
  8
APS_GEOMETRY
 10
464.163682
 11
466.94146
 20
344.863657
 21
339.863656
  0
LINE
  8
APS_GEOMETRY
 10
466.94146
 11
467.219238
 20
339.863656
 21
339.863656
  0
LINE
  8
APS_GEOMETRY
 10
467.219238
 11
467.219238
 20
339.863656
 21
344.863657
  0
LINE
  8
APS_GEOMETRY
 10
476.580349
 11
474.358127
 20
339.863656
 21
342.919212
  0
LINE
  8
APS_GEOMETRY
 10
473.024793
 11
476.580349
 20
341.863656
 21
344.863657
  0
LINE
  8
APS_GEOMETRY
 10
472.969238
 11
472.969238
 20
344.863657
 21
339.863656
  0
LINE
  8
APS_GEOMETRY
 10
480.913683
 11
477.580349
 20
344.863657
 21
344.863657
  0
LINE
  8
APS_GEOMETRY
 10
477.580349
 11
477.580349
 20
344.863657
 21
339.863656
  0
LINE
  8
APS_GEOMETRY
 10
477.580349
 11
480.913683
 20
339.863656
 21
339.863656
  0
LINE
  8
APS_GEOMETRY
 10
477.635905
 11
479.802572
 20
342.530323
 21
342.530323
  0
LINE
  8
APS_GEOMETRY
 10
481.486972
 11
483.431416
 20
344.845621
 21
342.067843
  0
LINE
  8
APS_GEOMETRY
 10
483.431416
 11
483.431416
 20
342.067843
 21
339.84562
  0
LINE
  8
APS_GEOMETRY
 10
483.431416
 11
485.375861
 20
342.067843
 21
344.845621
  0
LINE
  8
APS_GEOMETRY
 10
490.276185
 11
493.776185
 20
342.530323
 21
342.530323
  0
LINE
  8
APS_GEOMETRY
 10
493.831741
 11
493.831741
 20
344.863657
 21
339.863656
  0
LINE
  8
APS_GEOMETRY
 10
490.22063
 11
490.22063
 20
344.863657
 21
339.863656
  0
LINE
  8
APS_GEOMETRY
 10
494.942852
 11
497.998408
 20
341.373748
 21
341.373748
  0
LINE
  8
APS_GEOMETRY
 10
494.331741
 11
496.276185
 20
339.863656
 21
344.863657
  0
LINE
  8
APS_GEOMETRY
 10
496.276185
 11
496.72063
 20
344.863657
 21
344.863657
  0
LINE
  8
APS_GEOMETRY
 10
496.72063
 11
498.553963
 20
344.863657
 21
339.863656
  0
LINE
  8
APS_GEOMETRY
 10
499.054131
 11
500.232428
 20
344.862459
 21
344.863657
  0
LINE
  8
APS_GEOMETRY
 10
500.232428
 11
500.232428
 20
344.863657
 21
339.863656
  0
LINE
  8
APS_GEOMETRY
 10
500.232428
 11
499.054131
 20
339.863656
 21
339.862459
  0
LINE
  8
APS_GEOMETRY
 10
500.232428
 11
501.410725
 20
339.863656
 21
339.862459
  0
LINE
  8
APS_GEOMETRY
 10
500.232428
 11
501.410725
 20
344.863657
 21
344.862459
  0
LINE
  8
APS_GEOMETRY
 10
502.410556
 11
502.410556
 20
339.863656
 21
344.863657
  0
LINE
  8
APS_GEOMETRY
 10
502.410556
 11
502.688334
 20
344.863657
 21
344.863657
  0
LINE
  8
APS_GEOMETRY
 10
502.688334
 11
505.466112
 20
344.863657
 21
339.863656
  0
LINE
  8
APS_GEOMETRY
 10
505.466112
 11
505.74389
 20
339.863656
 21
339.863656
  0
LINE
  8
APS_GEOMETRY
 10
505.74389
 11
505.74389
 20
339.863656
 21
344.863657
  0
LINE
  8
APS_GEOMETRY
 10
511.49389
 11
511.49389
 20
344.863657
 21
339.863656
  0
LINE
  8
APS_GEOMETRY
 10
511.49389
 11
514.827223
 20
339.863656
 21
339.863656
  0
LINE
  8
APS_GEOMETRY
 10
515.938334
 11
518.99389
 20
341.373748
 21
341.373748
  0
LINE
  8
APS_GEOMETRY
 10
515.327223
 11
517.271668
 20
339.863656
 21
344.863657
  0
LINE
  8
APS_GEOMETRY
 10
517.271668
 11
517.716112
 20
344.863657
 21
344.863657
  0
LINE
  8
APS_GEOMETRY
 10
517.716112
 11
519.549446
 20
344.863657
 21
339.863656
  0
LINE
  8
APS_GEOMETRY
 10
527.591282
 11
524.257948
 20
344.863657
 21
344.863657
  0
LINE
  8
APS_GEOMETRY
 10
524.257948
 11
524.257948
 20
344.863657
 21
339.863656
  0
LINE
  8
APS_GEOMETRY
 10
524.257948
 11
527.591282
 20
339.863656
 21
339.863656
  0
LINE
  8
APS_GEOMETRY
 10
524.313504
 11
526.480171
 20
342.530323
 21
342.530323
  0
LINE
  8
APS_GEOMETRY
 10
530.813504
 11
531.924615
 20
342.308101
 21
339.863656
  0
LINE
  8
APS_GEOMETRY
 10
546.588586
 11
547.766883
 20
344.862459
 21
344.863657
  0
LINE
  8
APS_GEOMETRY
 10
547.766883
 11
547.766883
 20
344.863657
 21
339.863656
  0
LINE
  8
APS_GEOMETRY
 10
547.766883
 11
546.588586
 20
339.863656
 21
339.862459
  0
LINE
  8
APS_GEOMETRY
 10
547.766883
 11
548.945179
 20
339.863656
 21
339.862459
  0
LINE
  8
APS_GEOMETRY
 10
547.766883
 11
548.945179
 20
344.863657
 21
344.862459
  0
LINE
  8
APS_GEOMETRY
 10
549.945011
 11
549.945011
 20
339.863656
 21
344.863657
  0
LINE
  8
APS_GEOMETRY
 10
549.945011
 11
550.222789
 20
344.863657
 21
344.863657
  0
LINE
  8
APS_GEOMETRY
 10
550.222789
 11
553.000567
 20
344.863657
 21
339.863656
  0
LINE
  8
APS_GEOMETRY
 10
553.000567
 11
553.278345
 20
339.863656
 21
339.863656
  0
LINE
  8
APS_GEOMETRY
 10
553.278345
 11
553.278345
 20
339.863656
 21
344.863657
  0
LINE
  8
APS_GEOMETRY
 10
555.743316
 11
555.743316
 20
344.842292
 21
339.897848
  0
LINE
  8
APS_GEOMETRY
 10
553.798871
 11
557.68776
 20
344.897848
 21
344.897848
  0
LINE
  8
APS_GEOMETRY
 10
561.500567
 11
558.167234
 20
344.863657
 21
344.863657
  0
LINE
  8
APS_GEOMETRY
 10
558.167234
 11
558.167234
 20
344.863657
 21
339.863656
  0
LINE
  8
APS_GEOMETRY
 10
558.167234
 11
561.500567
 20
339.863656
 21
339.863656
  0
LINE
  8
APS_GEOMETRY
 10
558.222789
 11
560.389456
 20
342.530323
 21
342.530323
  0
LINE
  8
APS_GEOMETRY
 10
564.72279
 11
565.833901
 20
342.308101
 21
339.863656
  0
LINE
  8
APS_GEOMETRY
 10
571.917234
 11
571.917234
 20
344.863657
 21
339.863656
  0
LINE
  8
APS_GEOMETRY
 10
571.917234
 11
575.250568
 20
339.863656
 21
339.863656
  0
LINE
  8
APS_GEOMETRY
 10
584.921635
 11
587.977191
 20
341.373748
 21
341.373748
  0
LINE
  8
APS_GEOMETRY
 10
584.310524
 11
586.254969
 20
339.863656
 21
344.863657
  0
LINE
  8
APS_GEOMETRY
 10
586.254969
 11
586.699413
 20
344.863657
 21
344.863657
  0
LINE
  8
APS_GEOMETRY
 10
586.699413
 11
588.532747
 20
344.863657
 21
339.863656
  0
LINE
  8
APS_GEOMETRY
 10
457.056978
 11
457.056978
 20
332.363656
 21
337.363657
  0
LINE
  8
APS_GEOMETRY
 10
457.056978
 11
457.334756
 20
337.363657
 21
337.363657
  0
LINE
  8
APS_GEOMETRY
 10
457.334756
 11
460.112534
 20
337.363657
 21
332.363656
  0
LINE
  8
APS_GEOMETRY
 10
460.112534
 11
460.390312
 20
332.363656
 21
332.363656
  0
LINE
  8
APS_GEOMETRY
 10
460.390312
 11
460.390312
 20
332.363656
 21
337.363657
  0
LINE
  8
APS_GEOMETRY
 10
462.855283
 11
462.855283
 20
337.342292
 21
332.397848
  0
LINE
  8
APS_GEOMETRY
 10
460.910838
 11
464.799727
 20
337.397848
 21
337.397848
  0
LINE
  8
APS_GEOMETRY
 10
468.612534
 11
465.279201
 20
337.363657
 21
337.363657
  0
LINE
  8
APS_GEOMETRY
 10
465.279201
 11
465.279201
 20
337.363657
 21
332.363656
  0
LINE
  8
APS_GEOMETRY
 10
465.279201
 11
468.612534
 20
332.363656
 21
332.363656
  0
LINE
  8
APS_GEOMETRY
 10
465.334756
 11
467.501423
 20
335.030323
 21
335.030323
  0
LINE
  8
APS_GEOMETRY
 10
471.834756
 11
472.945868
 20
334.808101
 21
332.363656
  0
LINE
  8
APS_GEOMETRY
 10
482.821037
 11
482.821037
 20
332.363656
 21
337.363657
  0
LINE
  8
APS_GEOMETRY
 10
482.821037
 11
483.098815
 20
337.363657
 21
337.363657
  0
LINE
  8
APS_GEOMETRY
 10
483.098815
 11
485.876593
 20
337.363657
 21
332.363656
  0
LINE
  8
APS_GEOMETRY
 10
485.876593
 11
486.15437
 20
332.363656
 21
332.363656
  0
LINE
  8
APS_GEOMETRY
 10
486.15437
 11
486.15437
 20
332.363656
 21
337.363657
  0
LINE
  8
APS_GEOMETRY
 10
490.765482
 11
488.543259
 20
332.363656
 21
335.419212
  0
LINE
  8
APS_GEOMETRY
 10
487.209926
 11
490.765482
 20
334.363656
 21
337.363657
  0
LINE
  8
APS_GEOMETRY
 10
487.15437
 11
487.15437
 20
337.363657
 21
332.363656
  0
LINE
  8
APS_GEOMETRY
 10
507.014264
 11
508.125375
 20
334.808101
 21
332.363656
  0
LINE
  8
APS_GEOMETRY
 10
512.792042
 11
509.458709
 20
337.363657
 21
337.363657
  0
LINE
  8
APS_GEOMETRY
 10
509.458709
 11
509.458709
 20
337.363657
 21
332.363656
  0
LINE
  8
APS_GEOMETRY
 10
509.458709
 11
512.792042
 20
332.363656
 21
332.363656
  0
LINE
  8
APS_GEOMETRY
 10
509.514264
 11
511.680931
 20
335.030323
 21
335.030323
  0
LINE
  8
APS_GEOMETRY
 10
513.409742
 11
514.743075
 20
337.490857
 21
332.490857
  0
LINE
  8
APS_GEOMETRY
 10
514.743075
 11
514.854186
 20
332.490857
 21
332.490857
  0
LINE
  8
APS_GEOMETRY
 10
514.854186
 11
516.131964
 20
332.490857
 21
337.490857
  0
LINE
  8
APS_GEOMETRY
 10
516.131964
 11
516.243075
 20
337.490857
 21
337.490857
  0
LINE
  8
APS_GEOMETRY
 10
516.243075
 11
517.520853
 20
337.490857
 21
332.490857
  0
LINE
  8
APS_GEOMETRY
 10
517.520853
 11
517.631964
 20
332.490857
 21
332.490857
  0
LINE
  8
APS_GEOMETRY
 10
517.631964
 11
518.965298
 20
332.490857
 21
337.490857
  0
LINE
  8
APS_GEOMETRY
 10
528.306101
 11
528.306101
 20
332.363656
 21
337.363657
  0
LINE
  8
APS_GEOMETRY
 10
528.306101
 11
528.583878
 20
337.363657
 21
337.363657
  0
LINE
  8
APS_GEOMETRY
 10
528.583878
 11
530.528323
 20
337.363657
 21
332.363656
  0
LINE
  8
APS_GEOMETRY
 10
530.528323
 11
532.472767
 20
332.363656
 21
337.363657
  0
LINE
  8
APS_GEOMETRY
 10
532.472767
 11
532.750545
 20
337.363657
 21
337.363657
  0
LINE
  8
APS_GEOMETRY
 10
532.750545
 11
532.750545
 20
337.363657
 21
332.363656
  0
LINE
  8
APS_GEOMETRY
 10
538.595312
 11
540.595312
 20
335.513656
 21
332.363656
  0
LINE
  8
APS_GEOMETRY
 10
538.345312
 11
540.345312
 20
332.363656
 21
335.513656
  0
LINE
  8
APS_GEOMETRY
 10
555.592448
 11
555.592448
 20
337.363657
 21
332.363656
  0
LINE
  8
APS_GEOMETRY
 10
555.592448
 11
558.925782
 20
332.363656
 21
332.363656
  0
LINE
  8
APS_GEOMETRY
 10
563.689584
 11
563.689584
 20
332.363656
 21
337.363657
  0
LINE
  8
APS_GEOMETRY
 10
563.689584
 11
563.967362
 20
337.363657
 21
337.363657
  0
LINE
  8
APS_GEOMETRY
 10
563.967362
 11
566.74514
 20
337.363657
 21
332.363656
  0
LINE
  8
APS_GEOMETRY
 10
566.74514
 11
567.022918
 20
332.363656
 21
332.363656
  0
LINE
  8
APS_GEOMETRY
 10
567.022918
 11
567.022918
 20
332.363656
 21
337.363657
  0
LINE
  8
APS_GEOMETRY
 10
444.759153
 11
444.759153
 20
324.863656
 21
329.863657
  0
LINE
  8
APS_GEOMETRY
 10
444.759153
 11
445.03693
 20
329.863657
 21
329.863657
  0
LINE
  8
APS_GEOMETRY
 10
445.03693
 11
446.981375
 20
329.863657
 21
324.863656
  0
LINE
  8
APS_GEOMETRY
 10
446.981375
 11
448.925819
 20
324.863656
 21
329.863657
  0
LINE
  8
APS_GEOMETRY
 10
448.925819
 11
449.203597
 20
329.863657
 21
329.863657
  0
LINE
  8
APS_GEOMETRY
 10
449.203597
 11
449.203597
 20
329.863657
 21
324.863656
  0
LINE
  8
APS_GEOMETRY
 10
459.548364
 11
459.548364
 20
324.863656
 21
329.863657
  0
LINE
  8
APS_GEOMETRY
 10
459.548364
 11
459.826142
 20
329.863657
 21
329.863657
  0
LINE
  8
APS_GEOMETRY
 10
459.826142
 11
462.60392
 20
329.863657
 21
324.863656
  0
LINE
  8
APS_GEOMETRY
 10
462.60392
 11
462.881697
 20
324.863656
 21
324.863656
  0
LINE
  8
APS_GEOMETRY
 10
462.881697
 11
462.881697
 20
324.863656
 21
329.863657
  0
LINE
  8
APS_GEOMETRY
 10
469.680002
 11
469.680002
 20
329.842292
 21
324.897848
  0
LINE
  8
APS_GEOMETRY
 10
467.735557
 11
471.624447
 20
329.897848
 21
329.897848
  0
LINE
  8
APS_GEOMETRY
 10
439.713231
 11
435.546565
 20
319.032038
 21
319.032038
  0
LINE
  8
APS_GEOMETRY
 10
435.546565
 11
435.546565
 20
319.032038
 21
319.309815
  0
LINE
  8
APS_GEOMETRY
 10
435.546565
 11
438.324342
 20
319.309815
 21
322.365371
  0
LINE
  8
APS_GEOMETRY
 10
438.324342
 11
438.60212
 20
322.365371
 21
322.365371
  0
LINE
  8
APS_GEOMETRY
 10
438.60212
 11
438.60212
 20
322.365371
 21
317.365371
  0
LINE
  8
APS_GEOMETRY
 10
453.894154
 11
457.190857
 20
322.363657
 21
322.363657
  0
LINE
  8
APS_GEOMETRY
 10
457.190857
 11
457.190857
 20
322.363657
 21
322.198821
  0
LINE
  8
APS_GEOMETRY
 10
457.190857
 11
453.894154
 20
322.198821
 21
317.528491
  0
LINE
  8
APS_GEOMETRY
 10
453.894154
 11
453.894154
 20
317.528491
 21
317.363656
  0
LINE
  8
APS_GEOMETRY
 10
453.894154
 11
457.190857
 20
317.363656
 21
317.363656
  0
LINE
  8
APS_GEOMETRY
 10
458.191025
 11
459.369322
 20
322.362459
 21
322.363657
  0
LINE
  8
APS_GEOMETRY
 10
459.369322
 11
459.369322
 20
322.363657
 21
317.363656
  0
LINE
  8
APS_GEOMETRY
 10
459.369322
 11
458.191025
 20
317.363656
 21
317.362459
  0
LINE
  8
APS_GEOMETRY
 10
459.369322
 11
460.547619
 20
317.363656
 21
317.362459
  0
LINE
  8
APS_GEOMETRY
 10
459.369322
 11
460.547619
 20
322.363657
 21
322.362459
  0
LINE
  8
APS_GEOMETRY
 10
470.925228
 11
473.980784
 20
318.873748
 21
318.873748
  0
LINE
  8
APS_GEOMETRY
 10
470.314117
 11
472.258562
 20
317.363656
 21
322.363657
  0
LINE
  8
APS_GEOMETRY
 10
472.258562
 11
472.703006
 20
322.363657
 21
322.363657
  0
LINE
  8
APS_GEOMETRY
 10
472.703006
 11
474.53634
 20
322.363657
 21
317.363656
  0
LINE
  8
APS_GEOMETRY
 10
475.03634
 11
475.03634
 20
317.363656
 21
322.363657
  0
LINE
  8
APS_GEOMETRY
 10
475.03634
 11
475.314117
 20
322.363657
 21
322.363657
  0
LINE
  8
APS_GEOMETRY
 10
475.314117
 11
478.091895
 20
322.363657
 21
317.363656
  0
LINE
  8
APS_GEOMETRY
 10
478.091895
 11
478.369673
 20
317.363656
 21
317.363656
  0
LINE
  8
APS_GEOMETRY
 10
478.369673
 11
478.369673
 20
317.363656
 21
322.363657
  0
LINE
  8
APS_GEOMETRY
 10
484.175229
 11
487.675229
 20
320.030323
 21
320.030323
  0
LINE
  8
APS_GEOMETRY
 10
487.730784
 11
487.730784
 20
322.363657
 21
317.363656
  0
LINE
  8
APS_GEOMETRY
 10
484.119673
 11
484.119673
 20
322.363657
 21
317.363656
  0
LINE
  8
APS_GEOMETRY
 10
492.064118
 11
488.730784
 20
322.363657
 21
322.363657
  0
LINE
  8
APS_GEOMETRY
 10
488.730784
 11
488.730784
 20
322.363657
 21
317.363656
  0
LINE
  8
APS_GEOMETRY
 10
488.730784
 11
492.064118
 20
317.363656
 21
317.363656
  0
LINE
  8
APS_GEOMETRY
 10
488.78634
 11
490.953007
 20
320.030323
 21
320.030323
  0
LINE
  8
APS_GEOMETRY
 10
493.175229
 11
496.230785
 20
318.873748
 21
318.873748
  0
LINE
  8
APS_GEOMETRY
 10
492.564118
 11
494.508562
 20
317.363656
 21
322.363657
  0
LINE
  8
APS_GEOMETRY
 10
494.508562
 11
494.953007
 20
322.363657
 21
322.363657
  0
LINE
  8
APS_GEOMETRY
 10
494.953007
 11
496.78634
 20
322.363657
 21
317.363656
  0
LINE
  8
APS_GEOMETRY
 10
516.426641
 11
517.537753
 20
319.808101
 21
317.363656
  0
LINE
  8
APS_GEOMETRY
 10
522.204419
 11
518.871086
 20
322.363657
 21
322.363657
  0
LINE
  8
APS_GEOMETRY
 10
518.871086
 11
518.871086
 20
322.363657
 21
317.363656
  0
LINE
  8
APS_GEOMETRY
 10
518.871086
 11
522.204419
 20
317.363656
 21
317.363656
  0
LINE
  8
APS_GEOMETRY
 10
518.926642
 11
521.093308
 20
320.030323
 21
320.030323
  0
LINE
  8
APS_GEOMETRY
 10
522.822119
 11
524.155452
 20
322.490857
 21
317.490857
  0
LINE
  8
APS_GEOMETRY
 10
524.155452
 11
524.266563
 20
317.490857
 21
317.490857
  0
LINE
  8
APS_GEOMETRY
 10
524.266563
 11
525.544341
 20
317.490857
 21
322.490857
  0
LINE
  8
APS_GEOMETRY
 10
525.544341
 11
525.655452
 20
322.490857
 21
322.490857
  0
LINE
  8
APS_GEOMETRY
 10
525.655452
 11
526.93323
 20
322.490857
 21
317.490857
  0
LINE
  8
APS_GEOMETRY
 10
526.93323
 11
527.044341
 20
317.490857
 21
317.490857
  0
LINE
  8
APS_GEOMETRY
 10
527.044341
 11
528.377675
 20
317.490857
 21
322.490857
  0
LINE
  8
APS_GEOMETRY
 10
537.718478
 11
537.718478
 20
317.363656
 21
322.363657
  0
LINE
  8
APS_GEOMETRY
 10
537.718478
 11
537.996256
 20
322.363657
 21
322.363657
  0
LINE
  8
APS_GEOMETRY
 10
537.996256
 11
539.9407
 20
322.363657
 21
317.363656
  0
LINE
  8
APS_GEOMETRY
 10
539.9407
 11
541.885145
 20
317.363656
 21
322.363657
  0
LINE
  8
APS_GEOMETRY
 10
541.885145
 11
542.162922
 20
322.363657
 21
322.363657
  0
LINE
  8
APS_GEOMETRY
 10
542.162922
 11
542.162922
 20
322.363657
 21
317.363656
  0
LINE
  8
APS_GEOMETRY
 10
547.479136
 11
543.312469
 20
319.032038
 21
319.032038
  0
LINE
  8
APS_GEOMETRY
 10
543.312469
 11
543.312469
 20
319.032038
 21
319.309815
  0
LINE
  8
APS_GEOMETRY
 10
543.312469
 11
546.090247
 20
319.309815
 21
322.365371
  0
LINE
  8
APS_GEOMETRY
 10
546.090247
 11
546.368025
 20
322.365371
 21
322.365371
  0
LINE
  8
APS_GEOMETRY
 10
546.368025
 11
546.368025
 20
322.365371
 21
317.365371
  0
LINE
  8
APS_GEOMETRY
 10
548.579589
 11
550.579589
 20
320.513656
 21
317.363656
  0
LINE
  8
APS_GEOMETRY
 10
548.329589
 11
550.329589
 20
317.363656
 21
320.513656
  0
LINE
  8
APS_GEOMETRY
 10
565.275058
 11
565.275058
 20
322.363657
 21
317.363656
  0
LINE
  8
APS_GEOMETRY
 10
565.275058
 11
568.608391
 20
317.363656
 21
317.363656
  0
LINE
  8
APS_GEOMETRY
 10
573.372194
 11
573.372194
 20
317.363656
 21
322.363657
  0
LINE
  8
APS_GEOMETRY
 10
573.372194
 11
573.649972
 20
322.363657
 21
322.363657
  0
LINE
  8
APS_GEOMETRY
 10
573.649972
 11
576.42775
 20
322.363657
 21
317.363656
  0
LINE
  8
APS_GEOMETRY
 10
576.42775
 11
576.705527
 20
317.363656
 21
317.363656
  0
LINE
  8
APS_GEOMETRY
 10
576.705527
 11
576.705527
 20
317.363656
 21
322.363657
  0
LINE
  8
APS_GEOMETRY
 10
439.713231
 11
435.546565
 20
311.532038
 21
311.532038
  0
LINE
  8
APS_GEOMETRY
 10
435.546565
 11
435.546565
 20
311.532038
 21
311.809815
  0
LINE
  8
APS_GEOMETRY
 10
435.546565
 11
438.324342
 20
311.809815
 21
314.865371
  0
LINE
  8
APS_GEOMETRY
 10
438.324342
 11
438.60212
 20
314.865371
 21
314.865371
  0
LINE
  8
APS_GEOMETRY
 10
438.60212
 11
438.60212
 20
314.865371
 21
309.865371
  0
LINE
  8
APS_GEOMETRY
 10
445.313684
 11
445.313684
 20
309.863656
 21
314.863657
  0
LINE
  8
APS_GEOMETRY
 10
445.313684
 11
445.591462
 20
314.863657
 21
314.863657
  0
LINE
  8
APS_GEOMETRY
 10
445.591462
 11
447.535907
 20
314.863657
 21
309.863656
  0
LINE
  8
APS_GEOMETRY
 10
447.535907
 11
449.480351
 20
309.863656
 21
314.863657
  0
LINE
  8
APS_GEOMETRY
 10
449.480351
 11
449.758129
 20
314.863657
 21
314.863657
  0
LINE
  8
APS_GEOMETRY
 10
449.758129
 11
449.758129
 20
314.863657
 21
309.863656
  0
LINE
  8
APS_GEOMETRY
 10
455.074343
 11
450.907676
 20
311.532038
 21
311.532038
  0
LINE
  8
APS_GEOMETRY
 10
450.907676
 11
450.907676
 20
311.532038
 21
311.809815
  0
LINE
  8
APS_GEOMETRY
 10
450.907676
 11
453.685454
 20
311.809815
 21
314.865371
  0
LINE
  8
APS_GEOMETRY
 10
453.685454
 11
453.963232
 20
314.865371
 21
314.865371
  0
LINE
  8
APS_GEOMETRY
 10
453.963232
 11
453.963232
 20
314.865371
 21
309.865371
  0
LINE
  8
APS_GEOMETRY
 10
460.674796
 11
460.674796
 20
309.863656
 21
314.863657
  0
LINE
  8
APS_GEOMETRY
 10
460.674796
 11
460.952574
 20
314.863657
 21
314.863657
  0
LINE
  8
APS_GEOMETRY
 10
460.952574
 11
463.730352
 20
314.863657
 21
309.863656
  0
LINE
  8
APS_GEOMETRY
 10
463.730352
 11
464.008129
 20
309.863656
 21
309.863656
  0
LINE
  8
APS_GEOMETRY
 10
464.008129
 11
464.008129
 20
309.863656
 21
314.863657
  0
LINE
  8
APS_GEOMETRY
 10
470.806434
 11
470.806434
 20
314.842292
 21
309.897848
  0
LINE
  8
APS_GEOMETRY
 10
468.861989
 11
472.750878
 20
314.897848
 21
314.897848
  0
LINE
  8
APS_GEOMETRY
 10
435.397017
 11
437.112644
 20
302.363656
 21
302.363656
  0
LINE
  8
APS_GEOMETRY
 10
436.254831
 11
436.254831
 20
302.363656
 21
307.363657
  0
LINE
  8
APS_GEOMETRY
 10
436.254831
 11
435.397017
 20
307.363657
 21
306.505843
  0
LINE
  8
APS_GEOMETRY
 10
442.862644
 11
442.862644
 20
302.363656
 21
307.363657
  0
LINE
  8
APS_GEOMETRY
 10
442.862644
 11
443.140422
 20
307.363657
 21
307.363657
  0
LINE
  8
APS_GEOMETRY
 10
443.140422
 11
445.084866
 20
307.363657
 21
302.363656
  0
LINE
  8
APS_GEOMETRY
 10
445.084866
 11
447.029311
 20
302.363656
 21
307.363657
  0
LINE
  8
APS_GEOMETRY
 10
447.029311
 11
447.307089
 20
307.363657
 21
307.363657
  0
LINE
  8
APS_GEOMETRY
 10
447.307089
 11
447.307089
 20
307.363657
 21
302.363656
  0
LINE
  8
APS_GEOMETRY
 10
457.651855
 11
457.651855
 20
302.363656
 21
307.363657
  0
LINE
  8
APS_GEOMETRY
 10
457.651855
 11
457.929633
 20
307.363657
 21
307.363657
  0
LINE
  8
APS_GEOMETRY
 10
457.929633
 11
460.707411
 20
307.363657
 21
302.363656
  0
LINE
  8
APS_GEOMETRY
 10
460.707411
 11
460.985189
 20
302.363656
 21
302.363656
  0
LINE
  8
APS_GEOMETRY
 10
460.985189
 11
460.985189
 20
302.363656
 21
307.363657
  0
LINE
  8
APS_GEOMETRY
 10
461.558478
 11
463.502922
 20
307.345621
 21
304.567843
  0
LINE
  8
APS_GEOMETRY
 10
463.502922
 11
463.502922
 20
304.567843
 21
302.34562
  0
LINE
  8
APS_GEOMETRY
 10
463.502922
 11
465.447367
 20
304.567843
 21
307.345621
  0
LINE
  8
APS_GEOMETRY
 10
465.874078
 11
465.874078
 20
307.363657
 21
302.363656
  0
LINE
  8
APS_GEOMETRY
 10
465.874078
 11
469.207411
 20
302.363656
 21
302.363656
  0
LINE
  8
APS_GEOMETRY
 10
482.150383
 11
479.928161
 20
302.363656
 21
305.419212
  0
LINE
  8
APS_GEOMETRY
 10
478.594827
 11
482.150383
 20
304.363656
 21
307.363657
  0
LINE
  8
APS_GEOMETRY
 10
478.539272
 11
478.539272
 20
307.363657
 21
302.363656
  0
LINE
  8
APS_GEOMETRY
 10
487.900383
 11
487.900383
 20
302.363656
 21
307.363657
  0
LINE
  8
APS_GEOMETRY
 10
487.900383
 11
488.178161
 20
307.363657
 21
307.363657
  0
LINE
  8
APS_GEOMETRY
 10
488.178161
 11
490.955939
 20
307.363657
 21
302.363656
  0
LINE
  8
APS_GEOMETRY
 10
490.955939
 11
491.233716
 20
302.363656
 21
302.363656
  0
LINE
  8
APS_GEOMETRY
 10
491.233716
 11
491.233716
 20
302.363656
 21
307.363657
  0
LINE
  8
APS_GEOMETRY
 10
498.032021
 11
498.032021
 20
307.342292
 21
302.397848
  0
LINE
  8
APS_GEOMETRY
 10
496.087576
 11
499.976466
 20
307.397848
 21
307.397848
  0
LINE
  8
APS_GEOMETRY
 10
435.397017
 11
437.112644
 20
294.863656
 21
294.863656
  0
LINE
  8
APS_GEOMETRY
 10
436.254831
 11
436.254831
 20
294.863656
 21
299.863657
  0
LINE
  8
APS_GEOMETRY
 10
436.254831
 11
435.397017
 20
299.863657
 21
299.005843
  0
LINE
  8
APS_GEOMETRY
 10
442.862644
 11
442.862644
 20
294.863656
 21
299.863657
  0
LINE
  8
APS_GEOMETRY
 10
442.862644
 11
443.140422
 20
299.863657
 21
299.863657
  0
LINE
  8
APS_GEOMETRY
 10
443.140422
 11
445.084866
 20
299.863657
 21
294.863656
  0
LINE
  8
APS_GEOMETRY
 10
445.084866
 11
447.029311
 20
294.863656
 21
299.863657
  0
LINE
  8
APS_GEOMETRY
 10
447.029311
 11
447.307089
 20
299.863657
 21
299.863657
  0
LINE
  8
APS_GEOMETRY
 10
447.307089
 11
447.307089
 20
299.863657
 21
294.863656
  0
LINE
  8
APS_GEOMETRY
 10
452.623302
 11
448.456636
 20
296.532038
 21
296.532038
  0
LINE
  8
APS_GEOMETRY
 10
448.456636
 11
448.456636
 20
296.532038
 21
296.809815
  0
LINE
  8
APS_GEOMETRY
 10
448.456636
 11
451.234413
 20
296.809815
 21
299.865371
  0
LINE
  8
APS_GEOMETRY
 10
451.234413
 11
451.512191
 20
299.865371
 21
299.865371
  0
LINE
  8
APS_GEOMETRY
 10
451.512191
 11
451.512191
 20
299.865371
 21
294.865371
  0
LINE
  8
APS_GEOMETRY
 10
453.723755
 11
455.723755
 20
298.013656
 21
294.863656
  0
LINE
  8
APS_GEOMETRY
 10
453.473755
 11
455.473755
 20
294.863656
 21
298.013656
  0
LINE
  8
APS_GEOMETRY
 10
456.723755
 11
458.439382
 20
294.863656
 21
294.863656
  0
LINE
  8
APS_GEOMETRY
 10
457.581569
 11
457.581569
 20
294.863656
 21
299.863657
  0
LINE
  8
APS_GEOMETRY
 10
457.581569
 11
456.723755
 20
299.863657
 21
299.005843
  0
LINE
  8
APS_GEOMETRY
 10
479.218143
 11
480.329254
 20
297.308101
 21
294.863656
  0
LINE
  8
APS_GEOMETRY
 10
484.995921
 11
481.662587
 20
299.863657
 21
299.863657
  0
LINE
  8
APS_GEOMETRY
 10
481.662587
 11
481.662587
 20
299.863657
 21
294.863656
  0
LINE
  8
APS_GEOMETRY
 10
481.662587
 11
484.995921
 20
294.863656
 21
294.863656
  0
LINE
  8
APS_GEOMETRY
 10
481.718143
 11
483.88481
 20
297.530323
 21
297.530323
  0
LINE
  8
APS_GEOMETRY
 10
485.61362
 11
486.946954
 20
299.990857
 21
294.990857
  0
LINE
  8
APS_GEOMETRY
 10
486.946954
 11
487.058065
 20
294.990857
 21
294.990857
  0
LINE
  8
APS_GEOMETRY
 10
487.058065
 11
488.335843
 20
294.990857
 21
299.990857
  0
LINE
  8
APS_GEOMETRY
 10
488.335843
 11
488.446954
 20
299.990857
 21
299.990857
  0
LINE
  8
APS_GEOMETRY
 10
488.446954
 11
489.724732
 20
299.990857
 21
294.990857
  0
LINE
  8
APS_GEOMETRY
 10
489.724732
 11
489.835843
 20
294.990857
 21
294.990857
  0
LINE
  8
APS_GEOMETRY
 10
489.835843
 11
491.169176
 20
294.990857
 21
299.990857
  0
LINE
  8
APS_GEOMETRY
 10
435.397017
 11
437.112644
 20
287.363656
 21
287.363656
  0
LINE
  8
APS_GEOMETRY
 10
436.254831
 11
436.254831
 20
287.363656
 21
292.363657
  0
LINE
  8
APS_GEOMETRY
 10
436.254831
 11
435.397017
 20
292.363657
 21
291.505843
  0
LINE
  8
APS_GEOMETRY
 10
442.862644
 11
442.862644
 20
287.363656
 21
292.363657
  0
LINE
  8
APS_GEOMETRY
 10
442.862644
 11
443.140422
 20
292.363657
 21
292.363657
  0
LINE
  8
APS_GEOMETRY
 10
443.140422
 11
445.084866
 20
292.363657
 21
287.363656
  0
LINE
  8
APS_GEOMETRY
 10
445.084866
 11
447.029311
 20
287.363656
 21
292.363657
  0
LINE
  8
APS_GEOMETRY
 10
447.029311
 11
447.307089
 20
292.363657
 21
292.363657
  0
LINE
  8
APS_GEOMETRY
 10
447.307089
 11
447.307089
 20
292.363657
 21
287.363656
  0
LINE
  8
APS_GEOMETRY
 10
452.623302
 11
448.456636
 20
289.032038
 21
289.032038
  0
LINE
  8
APS_GEOMETRY
 10
448.456636
 11
448.456636
 20
289.032038
 21
289.309815
  0
LINE
  8
APS_GEOMETRY
 10
448.456636
 11
451.234413
 20
289.309815
 21
292.365371
  0
LINE
  8
APS_GEOMETRY
 10
451.234413
 11
451.512191
 20
292.365371
 21
292.365371
  0
LINE
  8
APS_GEOMETRY
 10
451.512191
 11
451.512191
 20
292.365371
 21
287.365371
  0
LINE
  8
APS_GEOMETRY
 10
457.841455
 11
459.174788
 20
292.490857
 21
287.490857
  0
LINE
  8
APS_GEOMETRY
 10
459.174788
 11
459.285899
 20
287.490857
 21
287.490857
  0
LINE
  8
APS_GEOMETRY
 10
459.285899
 11
460.563677
 20
287.490857
 21
292.490857
  0
LINE
  8
APS_GEOMETRY
 10
460.563677
 11
460.674788
 20
292.490857
 21
292.490857
  0
LINE
  8
APS_GEOMETRY
 10
460.674788
 11
461.952566
 20
292.490857
 21
287.490857
  0
LINE
  8
APS_GEOMETRY
 10
461.952566
 11
462.063677
 20
287.490857
 21
287.490857
  0
LINE
  8
APS_GEOMETRY
 10
462.063677
 11
463.397011
 20
287.490857
 21
292.490857
  0
LINE
  8
APS_GEOMETRY
 10
463.779479
 11
464.957776
 20
292.362459
 21
292.363657
  0
LINE
  8
APS_GEOMETRY
 10
464.957776
 11
464.957776
 20
292.363657
 21
287.363656
  0
LINE
  8
APS_GEOMETRY
 10
464.957776
 11
463.779479
 20
287.363656
 21
287.362459
  0
LINE
  8
APS_GEOMETRY
 10
464.957776
 11
466.136073
 20
287.363656
 21
287.362459
  0
LINE
  8
APS_GEOMETRY
 10
464.957776
 11
466.136073
 20
292.363657
 21
292.362459
  0
LINE
  8
APS_GEOMETRY
 10
467.135904
 11
467.135904
 20
287.363656
 21
292.363657
  0
LINE
  8
APS_GEOMETRY
 10
467.135904
 11
467.413682
 20
292.363657
 21
292.363657
  0
LINE
  8
APS_GEOMETRY
 10
467.413682
 11
470.19146
 20
292.363657
 21
287.363656
  0
LINE
  8
APS_GEOMETRY
 10
470.19146
 11
470.469238
 20
287.363656
 21
287.363656
  0
LINE
  8
APS_GEOMETRY
 10
470.469238
 11
470.469238
 20
287.363656
 21
292.363657
  0
LINE
  8
APS_GEOMETRY
 10
480.287299
 11
480.287299
 20
287.363656
 21
292.363657
  0
LINE
  8
APS_GEOMETRY
 10
480.287299
 11
480.565077
 20
292.363657
 21
292.363657
  0
LINE
  8
APS_GEOMETRY
 10
480.565077
 11
483.342854
 20
292.363657
 21
287.363656
  0
LINE
  8
APS_GEOMETRY
 10
483.342854
 11
483.620632
 20
287.363656
 21
287.363656
  0
LINE
  8
APS_GEOMETRY
 10
483.620632
 11
483.620632
 20
287.363656
 21
292.363657
  0
LINE
  8
APS_GEOMETRY
 10
490.418937
 11
490.418937
 20
292.342292
 21
287.397848
  0
LINE
  8
APS_GEOMETRY
 10
488.474492
 11
492.363381
 20
292.397848
 21
292.397848
  0
LINE
  8
APS_GEOMETRY
 10
435.397017
 11
437.112644
 20
279.863656
 21
279.863656
  0
LINE
  8
APS_GEOMETRY
 10
436.254831
 11
436.254831
 20
279.863656
 21
284.863657
  0
LINE
  8
APS_GEOMETRY
 10
436.254831
 11
435.397017
 20
284.863657
 21
284.005843
  0
LINE
  8
APS_GEOMETRY
 10
442.862644
 11
442.862644
 20
279.863656
 21
284.863657
  0
LINE
  8
APS_GEOMETRY
 10
442.862644
 11
443.140422
 20
284.863657
 21
284.863657
  0
LINE
  8
APS_GEOMETRY
 10
443.140422
 11
445.084866
 20
284.863657
 21
279.863656
  0
LINE
  8
APS_GEOMETRY
 10
445.084866
 11
447.029311
 20
279.863656
 21
284.863657
  0
LINE
  8
APS_GEOMETRY
 10
447.029311
 11
447.307089
 20
284.863657
 21
284.863657
  0
LINE
  8
APS_GEOMETRY
 10
447.307089
 11
447.307089
 20
284.863657
 21
279.863656
  0
LINE
  8
APS_GEOMETRY
 10
452.623302
 11
448.456636
 20
281.532038
 21
281.532038
  0
LINE
  8
APS_GEOMETRY
 10
448.456636
 11
448.456636
 20
281.532038
 21
281.809815
  0
LINE
  8
APS_GEOMETRY
 10
448.456636
 11
451.234413
 20
281.809815
 21
284.865371
  0
LINE
  8
APS_GEOMETRY
 10
451.234413
 11
451.512191
 20
284.865371
 21
284.865371
  0
LINE
  8
APS_GEOMETRY
 10
451.512191
 11
451.512191
 20
284.865371
 21
279.865371
  0
LINE
  8
APS_GEOMETRY
 10
457.841455
 11
459.174788
 20
284.990857
 21
279.990857
  0
LINE
  8
APS_GEOMETRY
 10
459.174788
 11
459.285899
 20
279.990857
 21
279.990857
  0
LINE
  8
APS_GEOMETRY
 10
459.285899
 11
460.563677
 20
279.990857
 21
284.990857
  0
LINE
  8
APS_GEOMETRY
 10
460.563677
 11
460.674788
 20
284.990857
 21
284.990857
  0
LINE
  8
APS_GEOMETRY
 10
460.674788
 11
461.952566
 20
284.990857
 21
279.990857
  0
LINE
  8
APS_GEOMETRY
 10
461.952566
 11
462.063677
 20
279.990857
 21
279.990857
  0
LINE
  8
APS_GEOMETRY
 10
462.063677
 11
463.397011
 20
279.990857
 21
284.990857
  0
LINE
  8
APS_GEOMETRY
 10
463.390422
 11
466.445978
 20
281.373748
 21
281.373748
  0
LINE
  8
APS_GEOMETRY
 10
462.779311
 11
464.723756
 20
279.863656
 21
284.863657
  0
LINE
  8
APS_GEOMETRY
 10
464.723756
 11
465.1682
 20
284.863657
 21
284.863657
  0
LINE
  8
APS_GEOMETRY
 10
465.1682
 11
467.001534
 20
284.863657
 21
279.863656
  0
LINE
  8
APS_GEOMETRY
 10
471.765592
 11
475.265592
 20
282.530323
 21
282.530323
  0
LINE
  8
APS_GEOMETRY
 10
475.321147
 11
475.321147
 20
284.863657
 21
279.863656
  0
LINE
  8
APS_GEOMETRY
 10
471.710036
 11
471.710036
 20
284.863657
 21
279.863656
  0
LINE
  8
APS_GEOMETRY
 10
479.654481
 11
476.321147
 20
284.863657
 21
284.863657
  0
LINE
  8
APS_GEOMETRY
 10
476.321147
 11
476.321147
 20
284.863657
 21
279.863656
  0
LINE
  8
APS_GEOMETRY
 10
476.321147
 11
479.654481
 20
279.863656
 21
279.863656
  0
LINE
  8
APS_GEOMETRY
 10
476.376703
 11
478.54337
 20
282.530323
 21
282.530323
  0
LINE
  8
APS_GEOMETRY
 10
482.876703
 11
483.987814
 20
282.308101
 21
279.863656
  0
LINE
  8
APS_GEOMETRY
 10
444.480351
 11
444.480351
 20
272.363656
 21
277.363657
  0
LINE
  8
APS_GEOMETRY
 10
444.480351
 11
444.758129
 20
277.363657
 21
277.363657
  0
LINE
  8
APS_GEOMETRY
 10
444.758129
 11
447.535907
 20
277.363657
 21
272.363656
  0
LINE
  8
APS_GEOMETRY
 10
447.535907
 11
447.813684
 20
272.363656
 21
272.363656
  0
LINE
  8
APS_GEOMETRY
 10
447.813684
 11
447.813684
 20
272.363656
 21
277.363657
  0
LINE
  8
APS_GEOMETRY
 10
452.147018
 11
448.813684
 20
277.363657
 21
277.363657
  0
LINE
  8
APS_GEOMETRY
 10
448.813684
 11
448.813684
 20
277.363657
 21
272.363656
  0
LINE
  8
APS_GEOMETRY
 10
448.813684
 11
452.147018
 20
272.363656
 21
272.363656
  0
LINE
  8
APS_GEOMETRY
 10
448.86924
 11
451.035907
 20
275.030323
 21
275.030323
  0
LINE
  8
APS_GEOMETRY
 10
460.952507
 11
462.130804
 20
277.362459
 21
277.363657
  0
LINE
  8
APS_GEOMETRY
 10
462.130804
 11
462.130804
 20
277.363657
 21
272.363656
  0
LINE
  8
APS_GEOMETRY
 10
462.130804
 11
460.952507
 20
272.363656
 21
272.362459
  0
LINE
  8
APS_GEOMETRY
 10
462.130804
 11
463.3091
 20
272.363656
 21
272.362459
  0
LINE
  8
APS_GEOMETRY
 10
462.130804
 11
463.3091
 20
277.363657
 21
277.362459
  0
LINE
  8
APS_GEOMETRY
 10
464.308932
 11
464.308932
 20
272.363656
 21
277.363657
  0
LINE
  8
APS_GEOMETRY
 10
464.308932
 11
464.58671
 20
277.363657
 21
277.363657
  0
LINE
  8
APS_GEOMETRY
 10
464.58671
 11
467.364488
 20
277.363657
 21
272.363656
  0
LINE
  8
APS_GEOMETRY
 10
467.364488
 11
467.642266
 20
272.363656
 21
272.363656
  0
LINE
  8
APS_GEOMETRY
 10
467.642266
 11
467.642266
 20
272.363656
 21
277.363657
  0
LINE
  8
APS_GEOMETRY
 10
471.975599
 11
468.642266
 20
277.363657
 21
277.363657
  0
LINE
  8
APS_GEOMETRY
 10
468.642266
 11
468.642266
 20
277.363657
 21
272.363656
  0
LINE
  8
APS_GEOMETRY
 10
468.642266
 11
471.975599
 20
272.363656
 21
272.363656
  0
LINE
  8
APS_GEOMETRY
 10
468.697821
 11
470.864488
 20
275.030323
 21
275.030323
  0
LINE
  8
APS_GEOMETRY
 10
477.308933
 11
477.308933
 20
272.363656
 21
277.363657
  0
LINE
  8
APS_GEOMETRY
 10
477.308933
 11
477.586711
 20
277.363657
 21
277.363657
  0
LINE
  8
APS_GEOMETRY
 10
477.586711
 11
479.531155
 20
277.363657
 21
272.363656
  0
LINE
  8
APS_GEOMETRY
 10
479.531155
 11
481.4756
 20
272.363656
 21
277.363657
  0
LINE
  8
APS_GEOMETRY
 10
481.4756
 11
481.753377
 20
277.363657
 21
277.363657
  0
LINE
  8
APS_GEOMETRY
 10
481.753377
 11
481.753377
 20
277.363657
 21
272.363656
  0
LINE
  8
APS_GEOMETRY
 10
487.503377
 11
487.503377
 20
272.363656
 21
277.363657
  0
LINE
  8
APS_GEOMETRY
 10
487.503377
 11
487.781155
 20
277.363657
 21
277.363657
  0
LINE
  8
APS_GEOMETRY
 10
487.781155
 11
489.7256
 20
277.363657
 21
272.363656
  0
LINE
  8
APS_GEOMETRY
 10
489.7256
 11
491.670044
 20
272.363656
 21
277.363657
  0
LINE
  8
APS_GEOMETRY
 10
491.670044
 11
491.947822
 20
277.363657
 21
277.363657
  0
LINE
  8
APS_GEOMETRY
 10
491.947822
 11
491.947822
 20
277.363657
 21
272.363656
  0
LINE
  8
APS_GEOMETRY
 10
493.058933
 11
496.114489
 20
273.873748
 21
273.873748
  0
LINE
  8
APS_GEOMETRY
 10
492.447822
 11
494.392267
 20
272.363656
 21
277.363657
  0
LINE
  8
APS_GEOMETRY
 10
494.392267
 11
494.836711
 20
277.363657
 21
277.363657
  0
LINE
  8
APS_GEOMETRY
 10
494.836711
 11
496.670044
 20
277.363657
 21
272.363656
  0
LINE
  8
APS_GEOMETRY
 10
501.588105
 11
501.588105
 20
272.363656
 21
277.363657
  0
LINE
  8
APS_GEOMETRY
 10
501.588105
 11
501.865883
 20
277.363657
 21
277.363657
  0
LINE
  8
APS_GEOMETRY
 10
501.865883
 11
504.643661
 20
277.363657
 21
272.363656
  0
LINE
  8
APS_GEOMETRY
 10
504.643661
 11
504.921439
 20
272.363656
 21
272.363656
  0
LINE
  8
APS_GEOMETRY
 10
504.921439
 11
504.921439
 20
272.363656
 21
277.363657
  0
LINE
  8
APS_GEOMETRY
 10
509.254772
 11
505.921439
 20
277.363657
 21
277.363657
  0
LINE
  8
APS_GEOMETRY
 10
505.921439
 11
505.921439
 20
277.363657
 21
272.363656
  0
LINE
  8
APS_GEOMETRY
 10
505.921439
 11
509.254772
 20
272.363656
 21
272.363656
  0
LINE
  8
APS_GEOMETRY
 10
505.976994
 11
508.143661
 20
275.030323
 21
275.030323
  0
LINE
  8
APS_GEOMETRY
 10
511.719743
 11
511.719743
 20
277.342292
 21
272.397848
  0
LINE
  8
APS_GEOMETRY
 10
509.775299
 11
513.664188
 20
277.397848
 21
277.397848
  0
LINE
  8
APS_GEOMETRY
 10
523.102164
 11
524.81779
 20
272.363656
 21
272.363656
  0
LINE
  8
APS_GEOMETRY
 10
523.959977
 11
523.959977
 20
272.363656
 21
277.363657
  0
LINE
  8
APS_GEOMETRY
 10
523.959977
 11
523.102164
 20
277.363657
 21
276.505843
  0
LINE
  8
APS_GEOMETRY
 10
530.731593
 11
530.731593
 20
272.363656
 21
275.513656
  0
LINE
  8
APS_GEOMETRY
 10
536.031653
 11
536.031653
 20
272.363656
 21
275.513656
  0
LINE
  8
APS_GEOMETRY
 10
549.9734
 11
551.151697
 20
277.362459
 21
277.363657
  0
LINE
  8
APS_GEOMETRY
 10
551.151697
 11
551.151697
 20
277.363657
 21
272.363656
  0
LINE
  8
APS_GEOMETRY
 10
551.151697
 11
549.9734
 20
272.363656
 21
272.362459
  0
LINE
  8
APS_GEOMETRY
 10
551.151697
 11
552.329993
 20
272.363656
 21
272.362459
  0
LINE
  8
APS_GEOMETRY
 10
551.151697
 11
552.329993
 20
277.363657
 21
277.362459
  0
LINE
  8
APS_GEOMETRY
 10
553.440936
 11
556.496492
 20
273.873748
 21
273.873748
  0
LINE
  8
APS_GEOMETRY
 10
552.829825
 11
554.77427
 20
272.363656
 21
277.363657
  0
LINE
  8
APS_GEOMETRY
 10
554.77427
 11
555.218714
 20
277.363657
 21
277.363657
  0
LINE
  8
APS_GEOMETRY
 10
555.218714
 11
557.052048
 20
277.363657
 21
272.363656
  0
LINE
  8
APS_GEOMETRY
 10
557.552048
 11
557.552048
 20
272.363656
 21
277.363657
  0
LINE
  8
APS_GEOMETRY
 10
557.552048
 11
557.829826
 20
277.363657
 21
277.363657
  0
LINE
  8
APS_GEOMETRY
 10
557.829826
 11
559.77427
 20
277.363657
 21
272.363656
  0
LINE
  8
APS_GEOMETRY
 10
559.77427
 11
561.718715
 20
272.363656
 21
277.363657
  0
LINE
  8
APS_GEOMETRY
 10
561.718715
 11
561.996492
 20
277.363657
 21
277.363657
  0
LINE
  8
APS_GEOMETRY
 10
561.996492
 11
561.996492
 20
277.363657
 21
272.363656
  0
LINE
  8
APS_GEOMETRY
 10
566.329826
 11
562.996492
 20
277.363657
 21
277.363657
  0
LINE
  8
APS_GEOMETRY
 10
562.996492
 11
562.996492
 20
277.363657
 21
272.363656
  0
LINE
  8
APS_GEOMETRY
 10
562.996492
 11
566.329826
 20
272.363656
 21
272.363656
  0
LINE
  8
APS_GEOMETRY
 10
563.052048
 11
565.218715
 20
275.030323
 21
275.030323
  0
LINE
  8
APS_GEOMETRY
 10
568.794797
 11
568.794797
 20
277.342292
 21
272.397848
  0
LINE
  8
APS_GEOMETRY
 10
566.850352
 11
570.739241
 20
277.397848
 21
277.397848
  0
LINE
  8
APS_GEOMETRY
 10
574.552048
 11
571.218715
 20
277.363657
 21
277.363657
  0
LINE
  8
APS_GEOMETRY
 10
571.218715
 11
571.218715
 20
277.363657
 21
272.363656
  0
LINE
  8
APS_GEOMETRY
 10
571.218715
 11
574.552048
 20
272.363656
 21
272.363656
  0
LINE
  8
APS_GEOMETRY
 10
571.274271
 11
573.440937
 20
275.030323
 21
275.030323
  0
LINE
  8
APS_GEOMETRY
 10
577.774271
 11
578.885382
 20
274.808101
 21
272.363656
  0
LINE
  8
APS_GEOMETRY
 10
585.218715
 11
587.218715
 20
275.513656
 21
272.363656
  0
LINE
  8
APS_GEOMETRY
 10
584.968715
 11
586.968715
 20
272.363656
 21
275.513656
  0
LINE
  8
APS_GEOMETRY
 10
597.58085
 11
597.58085
 20
272.363656
 21
275.513656
  0
LINE
  8
APS_GEOMETRY
 10
602.880911
 11
602.880911
 20
272.363656
 21
275.513656
  0
LINE
  8
APS_GEOMETRY
 10
614.395942
 11
614.395942
 20
277.342292
 21
272.397848
  0
LINE
  8
APS_GEOMETRY
 10
612.451498
 11
616.340387
 20
277.397848
 21
277.397848
  0
LINE
  8
APS_GEOMETRY
 10
616.875416
 11
620.375416
 20
275.030323
 21
275.030323
  0
LINE
  8
APS_GEOMETRY
 10
620.430971
 11
620.430971
 20
277.363657
 21
272.363656
  0
LINE
  8
APS_GEOMETRY
 10
616.81986
 11
616.81986
 20
277.363657
 21
272.363656
  0
LINE
  8
APS_GEOMETRY
 10
621.43114
 11
622.609436
 20
277.362459
 21
277.363657
  0
LINE
  8
APS_GEOMETRY
 10
622.609436
 11
622.609436
 20
277.363657
 21
272.363656
  0
LINE
  8
APS_GEOMETRY
 10
622.609436
 11
621.43114
 20
272.363656
 21
272.362459
  0
LINE
  8
APS_GEOMETRY
 10
622.609436
 11
623.787733
 20
272.363656
 21
272.362459
  0
LINE
  8
APS_GEOMETRY
 10
622.609436
 11
623.787733
 20
277.363657
 21
277.362459
  0
LINE
  8
APS_GEOMETRY
 10
632.466734
 11
630.244511
 20
272.363656
 21
275.419212
  0
LINE
  8
APS_GEOMETRY
 10
628.911178
 11
632.466734
 20
274.363656
 21
277.363657
  0
LINE
  8
APS_GEOMETRY
 10
628.855622
 11
628.855622
 20
277.363657
 21
272.363656
  0
LINE
  8
APS_GEOMETRY
 10
437.361989
 11
437.361989
 20
269.842292
 21
264.897848
  0
LINE
  8
APS_GEOMETRY
 10
435.417544
 11
439.306433
 20
269.897848
 21
269.897848
  0
LINE
  8
APS_GEOMETRY
 10
439.841462
 11
443.341462
 20
267.530323
 21
267.530323
  0
LINE
  8
APS_GEOMETRY
 10
443.397018
 11
443.397018
 20
269.863657
 21
264.863656
  0
LINE
  8
APS_GEOMETRY
 10
439.785907
 11
439.785907
 20
269.863657
 21
264.863656
  0
LINE
  8
APS_GEOMETRY
 10
444.397186
 11
445.575483
 20
269.862459
 21
269.863657
  0
LINE
  8
APS_GEOMETRY
 10
445.575483
 11
445.575483
 20
269.863657
 21
264.863656
  0
LINE
  8
APS_GEOMETRY
 10
445.575483
 11
444.397186
 20
264.863656
 21
264.862459
  0
LINE
  8
APS_GEOMETRY
 10
445.575483
 11
446.753779
 20
264.863656
 21
264.862459
  0
LINE
  8
APS_GEOMETRY
 10
445.575483
 11
446.753779
 20
269.863657
 21
269.862459
  0
LINE
  8
APS_GEOMETRY
 10
447.753611
 11
447.753611
 20
264.863656
 21
269.863657
  0
LINE
  8
APS_GEOMETRY
 10
447.753611
 11
448.031389
 20
269.863657
 21
269.863657
  0
LINE
  8
APS_GEOMETRY
 10
448.031389
 11
450.809167
 20
269.863657
 21
264.863656
  0
LINE
  8
APS_GEOMETRY
 10
450.809167
 11
451.086944
 20
264.863656
 21
264.863656
  0
LINE
  8
APS_GEOMETRY
 10
451.086944
 11
451.086944
 20
264.863656
 21
269.863657
  0
LINE
  8
APS_GEOMETRY
 10
476.385794
 11
477.496905
 20
267.308101
 21
264.863656
  0
LINE
  8
APS_GEOMETRY
 10
482.163572
 11
478.830238
 20
269.863657
 21
269.863657
  0
LINE
  8
APS_GEOMETRY
 10
478.830238
 11
478.830238
 20
269.863657
 21
264.863656
  0
LINE
  8
APS_GEOMETRY
 10
478.830238
 11
482.163572
 20
264.863656
 21
264.863656
  0
LINE
  8
APS_GEOMETRY
 10
478.885794
 11
481.052461
 20
267.530323
 21
267.530323
  0
LINE
  8
APS_GEOMETRY
 10
492.092741
 11
495.148296
 20
266.373748
 21
266.373748
  0
LINE
  8
APS_GEOMETRY
 10
491.48163
 11
493.426074
 20
264.863656
 21
269.863657
  0
LINE
  8
APS_GEOMETRY
 10
493.426074
 11
493.870519
 20
269.863657
 21
269.863657
  0
LINE
  8
APS_GEOMETRY
 10
493.870519
 11
495.703852
 20
269.863657
 21
264.863656
  0
LINE
  8
APS_GEOMETRY
 10
500.564963
 11
500.564963
 20
269.863657
 21
264.863656
  0
LINE
  8
APS_GEOMETRY
 10
500.564963
 11
503.898297
 20
264.863656
 21
264.863656
  0
LINE
  8
APS_GEOMETRY
 10
507.73163
 11
504.398297
 20
269.863657
 21
269.863657
  0
LINE
  8
APS_GEOMETRY
 10
504.398297
 11
504.398297
 20
269.863657
 21
264.863656
  0
LINE
  8
APS_GEOMETRY
 10
504.398297
 11
507.73163
 20
264.863656
 21
264.863656
  0
LINE
  8
APS_GEOMETRY
 10
504.453852
 11
506.620519
 20
267.530323
 21
267.530323
  0
LINE
  8
APS_GEOMETRY
 10
525.861159
 11
526.97227
 20
267.308101
 21
264.863656
  0
LINE
  8
APS_GEOMETRY
 10
534.520574
 11
534.520574
 20
269.842292
 21
264.897848
  0
LINE
  8
APS_GEOMETRY
 10
532.57613
 11
536.465019
 20
269.897848
 21
269.897848
  0
LINE
  8
APS_GEOMETRY
 10
537.000048
 11
540.500048
 20
267.530323
 21
267.530323
  0
LINE
  8
APS_GEOMETRY
 10
540.555604
 11
540.555604
 20
269.863657
 21
264.863656
  0
LINE
  8
APS_GEOMETRY
 10
536.944492
 11
536.944492
 20
269.863657
 21
264.863656
  0
LINE
  8
APS_GEOMETRY
 10
541.555772
 11
542.734068
 20
269.862459
 21
269.863657
  0
LINE
  8
APS_GEOMETRY
 10
542.734068
 11
542.734068
 20
269.863657
 21
264.863656
  0
LINE
  8
APS_GEOMETRY
 10
542.734068
 11
541.555772
 20
264.863656
 21
264.862459
  0
LINE
  8
APS_GEOMETRY
 10
542.734068
 11
543.912365
 20
264.863656
 21
264.862459
  0
LINE
  8
APS_GEOMETRY
 10
542.734068
 11
543.912365
 20
269.863657
 21
269.862459
  0
LINE
  8
APS_GEOMETRY
 10
544.912197
 11
544.912197
 20
264.863656
 21
269.863657
  0
LINE
  8
APS_GEOMETRY
 10
544.912197
 11
545.189975
 20
269.863657
 21
269.863657
  0
LINE
  8
APS_GEOMETRY
 10
545.189975
 11
547.967752
 20
269.863657
 21
264.863656
  0
LINE
  8
APS_GEOMETRY
 10
547.967752
 11
548.24553
 20
264.863656
 21
264.863656
  0
LINE
  8
APS_GEOMETRY
 10
548.24553
 11
548.24553
 20
264.863656
 21
269.863657
  0
LINE
  8
APS_GEOMETRY
 10
553.61323
 11
554.946563
 20
269.990857
 21
264.990857
  0
LINE
  8
APS_GEOMETRY
 10
554.946563
 11
555.057674
 20
264.990857
 21
264.990857
  0
LINE
  8
APS_GEOMETRY
 10
555.057674
 11
556.335452
 20
264.990857
 21
269.990857
  0
LINE
  8
APS_GEOMETRY
 10
556.335452
 11
556.446563
 20
269.990857
 21
269.990857
  0
LINE
  8
APS_GEOMETRY
 10
556.446563
 11
557.724341
 20
269.990857
 21
264.990857
  0
LINE
  8
APS_GEOMETRY
 10
557.724341
 11
557.835452
 20
264.990857
 21
264.990857
  0
LINE
  8
APS_GEOMETRY
 10
557.835452
 11
559.168786
 20
264.990857
 21
269.990857
  0
LINE
  8
APS_GEOMETRY
 10
559.551254
 11
560.729551
 20
269.862459
 21
269.863657
  0
LINE
  8
APS_GEOMETRY
 10
560.729551
 11
560.729551
 20
269.863657
 21
264.863656
  0
LINE
  8
APS_GEOMETRY
 10
560.729551
 11
559.551254
 20
264.863656
 21
264.862459
  0
LINE
  8
APS_GEOMETRY
 10
560.729551
 11
561.907847
 20
264.863656
 21
264.862459
  0
LINE
  8
APS_GEOMETRY
 10
560.729551
 11
561.907847
 20
269.863657
 21
269.862459
  0
LINE
  8
APS_GEOMETRY
 10
565.129902
 11
566.241013
 20
267.308101
 21
264.863656
  0
LINE
  8
APS_GEOMETRY
 10
570.90768
 11
567.574346
 20
269.863657
 21
269.863657
  0
LINE
  8
APS_GEOMETRY
 10
567.574346
 11
567.574346
 20
269.863657
 21
264.863656
  0
LINE
  8
APS_GEOMETRY
 10
567.574346
 11
570.90768
 20
264.863656
 21
264.863656
  0
LINE
  8
APS_GEOMETRY
 10
567.629902
 11
569.796568
 20
267.530323
 21
267.530323
  0
LINE
  8
APS_GEOMETRY
 10
455.339176
 11
456.450287
 20
259.808101
 21
257.363656
  0
LINE
  8
APS_GEOMETRY
 10
457.783789
 11
458.962085
 20
262.362459
 21
262.363657
  0
LINE
  8
APS_GEOMETRY
 10
458.962085
 11
458.962085
 20
262.363657
 21
257.363656
  0
LINE
  8
APS_GEOMETRY
 10
458.962085
 11
457.783789
 20
257.363656
 21
257.362459
  0
LINE
  8
APS_GEOMETRY
 10
458.962085
 11
460.140382
 20
257.363656
 21
257.362459
  0
LINE
  8
APS_GEOMETRY
 10
458.962085
 11
460.140382
 20
262.363657
 21
262.362459
  0
LINE
  8
APS_GEOMETRY
 10
461.140214
 11
461.140214
 20
257.363656
 21
262.363657
  0
LINE
  8
APS_GEOMETRY
 10
461.140214
 11
461.417991
 20
262.363657
 21
262.363657
  0
LINE
  8
APS_GEOMETRY
 10
461.417991
 11
464.195769
 20
262.363657
 21
257.363656
  0
LINE
  8
APS_GEOMETRY
 10
464.195769
 11
464.473547
 20
257.363656
 21
257.363656
  0
LINE
  8
APS_GEOMETRY
 10
464.473547
 11
464.473547
 20
257.363656
 21
262.363657
  0
LINE
  8
APS_GEOMETRY
 10
478.555666
 11
480.722333
 20
259.863656
 21
259.863656
  0
LINE
  8
APS_GEOMETRY
 10
481.833444
 11
478.50011
 20
262.363657
 21
262.363657
  0
LINE
  8
APS_GEOMETRY
 10
478.50011
 11
478.50011
 20
262.363657
 21
257.363656
  0
LINE
  8
APS_GEOMETRY
 10
484.555666
 11
485.666777
 20
259.808101
 21
257.363656
  0
LINE
  8
APS_GEOMETRY
 10
490.913913
 11
490.913913
 20
257.363656
 21
262.363657
  0
LINE
  8
APS_GEOMETRY
 10
490.913913
 11
491.191691
 20
262.363657
 21
262.363657
  0
LINE
  8
APS_GEOMETRY
 10
491.191691
 11
493.136136
 20
262.363657
 21
257.363656
  0
LINE
  8
APS_GEOMETRY
 10
493.136136
 11
495.08058
 20
257.363656
 21
262.363657
  0
LINE
  8
APS_GEOMETRY
 10
495.08058
 11
495.358358
 20
262.363657
 21
262.363657
  0
LINE
  8
APS_GEOMETRY
 10
495.358358
 11
495.358358
 20
262.363657
 21
257.363656
  0
LINE
  8
APS_GEOMETRY
 10
505.176416
 11
505.176416
 20
262.363657
 21
257.363656
  0
LINE
  8
APS_GEOMETRY
 10
505.176416
 11
508.509749
 20
257.363656
 21
257.363656
  0
LINE
  8
APS_GEOMETRY
 10
509.009917
 11
510.188214
 20
262.362459
 21
262.363657
  0
LINE
  8
APS_GEOMETRY
 10
510.188214
 11
510.188214
 20
262.363657
 21
257.363656
  0
LINE
  8
APS_GEOMETRY
 10
510.188214
 11
509.009917
 20
257.363656
 21
257.362459
  0
LINE
  8
APS_GEOMETRY
 10
510.188214
 11
511.366511
 20
257.363656
 21
257.362459
  0
LINE
  8
APS_GEOMETRY
 10
510.188214
 11
511.366511
 20
262.363657
 21
262.362459
  0
LINE
  8
APS_GEOMETRY
 10
520.045511
 11
517.823289
 20
257.363656
 21
260.419212
  0
LINE
  8
APS_GEOMETRY
 10
516.489956
 11
520.045511
 20
259.363656
 21
262.363657
  0
LINE
  8
APS_GEOMETRY
 10
516.4344
 11
516.4344
 20
262.363657
 21
257.363656
  0
LINE
  8
APS_GEOMETRY
 10
533.295512
 11
529.962178
 20
262.363657
 21
262.363657
  0
LINE
  8
APS_GEOMETRY
 10
529.962178
 11
529.962178
 20
262.363657
 21
257.363656
  0
LINE
  8
APS_GEOMETRY
 10
529.962178
 11
533.295512
 20
257.363656
 21
257.363656
  0
LINE
  8
APS_GEOMETRY
 10
530.017734
 11
532.184401
 20
260.030323
 21
260.030323
  0
LINE
  8
APS_GEOMETRY
 10
534.295512
 11
534.295512
 20
257.363656
 21
262.363657
  0
LINE
  8
APS_GEOMETRY
 10
534.295512
 11
534.57329
 20
262.363657
 21
262.363657
  0
LINE
  8
APS_GEOMETRY
 10
534.57329
 11
537.351067
 20
262.363657
 21
257.363656
  0
LINE
  8
APS_GEOMETRY
 10
537.351067
 11
537.628845
 20
257.363656
 21
257.363656
  0
LINE
  8
APS_GEOMETRY
 10
537.628845
 11
537.628845
 20
257.363656
 21
262.363657
  0
LINE
  8
APS_GEOMETRY
 10
184.007266
 11
179.840599
 20
323.891145
 21
323.891145
  0
LINE
  8
APS_GEOMETRY
 10
179.840599
 11
179.840599
 20
323.891145
 21
324.168922
  0
LINE
  8
APS_GEOMETRY
 10
179.840599
 11
182.618377
 20
324.168922
 21
327.224478
  0
LINE
  8
APS_GEOMETRY
 10
182.618377
 11
182.896155
 20
327.224478
 21
327.224478
  0
LINE
  8
APS_GEOMETRY
 10
182.896155
 11
182.896155
 20
327.224478
 21
322.224478
  0
LINE
  8
APS_GEOMETRY
 10
440.053288
 11
435.886621
 20
251.853743
 21
251.853743
  0
LINE
  8
APS_GEOMETRY
 10
435.886621
 11
435.886621
 20
251.853743
 21
252.131521
  0
LINE
  8
APS_GEOMETRY
 10
435.886621
 11
438.664399
 20
252.131521
 21
255.187076
  0
LINE
  8
APS_GEOMETRY
 10
438.664399
 11
438.942177
 20
255.187076
 21
255.187076
  0
LINE
  8
APS_GEOMETRY
 10
438.942177
 11
438.942177
 20
255.187076
 21
250.187076
  0
LINE
  8
APS_GEOMETRY
 10
445.653741
 11
445.653741
 20
250.185362
 21
255.185362
  0
LINE
  8
APS_GEOMETRY
 10
445.653741
 11
445.931519
 20
255.185362
 21
255.185362
  0
LINE
  8
APS_GEOMETRY
 10
445.931519
 11
447.875963
 20
255.185362
 21
250.185362
  0
LINE
  8
APS_GEOMETRY
 10
447.875963
 11
449.820408
 20
250.185362
 21
255.185362
  0
LINE
  8
APS_GEOMETRY
 10
449.820408
 11
450.098186
 20
255.185362
 21
255.185362
  0
LINE
  8
APS_GEOMETRY
 10
450.098186
 11
450.098186
 20
255.185362
 21
250.185362
  0
LINE
  8
APS_GEOMETRY
 10
460.060652
 11
461.393985
 20
255.312563
 21
250.312563
  0
LINE
  8
APS_GEOMETRY
 10
461.393985
 11
461.505096
 20
250.312563
 21
250.312563
  0
LINE
  8
APS_GEOMETRY
 10
461.505096
 11
462.782874
 20
250.312563
 21
255.312563
  0
LINE
  8
APS_GEOMETRY
 10
462.782874
 11
462.893985
 20
255.312563
 21
255.312563
  0
LINE
  8
APS_GEOMETRY
 10
462.893985
 11
464.171763
 20
255.312563
 21
250.312563
  0
LINE
  8
APS_GEOMETRY
 10
464.171763
 11
464.282874
 20
250.312563
 21
250.312563
  0
LINE
  8
APS_GEOMETRY
 10
464.282874
 11
465.616208
 20
250.312563
 21
255.312563
  0
LINE
  8
APS_GEOMETRY
 10
465.609619
 11
468.665175
 20
251.695453
 21
251.695453
  0
LINE
  8
APS_GEOMETRY
 10
464.998508
 11
466.942953
 20
250.185362
 21
255.185362
  0
LINE
  8
APS_GEOMETRY
 10
466.942953
 11
467.387397
 20
255.185362
 21
255.185362
  0
LINE
  8
APS_GEOMETRY
 10
467.387397
 11
469.220731
 20
255.185362
 21
250.185362
  0
LINE
  8
APS_GEOMETRY
 10
473.984789
 11
477.484789
 20
252.852029
 21
252.852029
  0
LINE
  8
APS_GEOMETRY
 10
477.540344
 11
477.540344
 20
255.185362
 21
250.185362
  0
LINE
  8
APS_GEOMETRY
 10
473.929233
 11
473.929233
 20
255.185362
 21
250.185362
  0
LINE
  8
APS_GEOMETRY
 10
481.873678
 11
478.540344
 20
255.185362
 21
255.185362
  0
LINE
  8
APS_GEOMETRY
 10
478.540344
 11
478.540344
 20
255.185362
 21
250.185362
  0
LINE
  8
APS_GEOMETRY
 10
478.540344
 11
481.873678
 20
250.185362
 21
250.185362
  0
LINE
  8
APS_GEOMETRY
 10
478.5959
 11
480.762567
 20
252.852029
 21
252.852029
  0
LINE
  8
APS_GEOMETRY
 10
485.0959
 11
486.207011
 20
252.629806
 21
250.185362
  0
LINE
  8
APS_GEOMETRY
 10
435.737074
 11
437.4527
 20
242.685362
 21
242.685362
  0
LINE
  8
APS_GEOMETRY
 10
436.594887
 11
436.594887
 20
242.685362
 21
247.685362
  0
LINE
  8
APS_GEOMETRY
 10
436.594887
 11
435.737074
 20
247.685362
 21
246.827549
  0
LINE
  8
APS_GEOMETRY
 10
442.8204
 11
444.153733
 20
247.812563
 21
242.812563
  0
LINE
  8
APS_GEOMETRY
 10
444.153733
 11
444.264844
 20
242.812563
 21
242.812563
  0
LINE
  8
APS_GEOMETRY
 10
444.264844
 11
445.542622
 20
242.812563
 21
247.812563
  0
LINE
  8
APS_GEOMETRY
 10
445.542622
 11
445.653733
 20
247.812563
 21
247.812563
  0
LINE
  8
APS_GEOMETRY
 10
445.653733
 11
446.931511
 20
247.812563
 21
242.812563
  0
LINE
  8
APS_GEOMETRY
 10
446.931511
 11
447.042622
 20
242.812563
 21
242.812563
  0
LINE
  8
APS_GEOMETRY
 10
447.042622
 11
448.375956
 20
242.812563
 21
247.812563
  0
LINE
  8
APS_GEOMETRY
 10
448.369367
 11
451.424923
 20
244.195453
 21
244.195453
  0
LINE
  8
APS_GEOMETRY
 10
447.758256
 11
449.702701
 20
242.685362
 21
247.685362
  0
LINE
  8
APS_GEOMETRY
 10
449.702701
 11
450.147145
 20
247.685362
 21
247.685362
  0
LINE
  8
APS_GEOMETRY
 10
450.147145
 11
451.980479
 20
247.685362
 21
242.685362
  0
LINE
  8
APS_GEOMETRY
 10
453.44545
 11
453.44545
 20
247.663998
 21
242.719553
  0
LINE
  8
APS_GEOMETRY
 10
451.501005
 11
455.389894
 20
247.719553
 21
247.719553
  0
LINE
  8
APS_GEOMETRY
 10
459.202701
 11
455.869368
 20
247.685362
 21
247.685362
  0
LINE
  8
APS_GEOMETRY
 10
455.869368
 11
455.869368
 20
247.685362
 21
242.685362
  0
LINE
  8
APS_GEOMETRY
 10
455.869368
 11
459.202701
 20
242.685362
 21
242.685362
  0
LINE
  8
APS_GEOMETRY
 10
455.924923
 11
458.09159
 20
245.352029
 21
245.352029
  0
LINE
  8
APS_GEOMETRY
 10
462.424924
 11
463.536035
 20
245.129806
 21
242.685362
  0
LINE
  8
APS_GEOMETRY
 10
471.084339
 11
471.084339
 20
247.663998
 21
242.719553
  0
LINE
  8
APS_GEOMETRY
 10
469.139895
 11
473.028784
 20
247.719553
 21
247.719553
  0
LINE
  8
APS_GEOMETRY
 10
473.563813
 11
477.063813
 20
245.352029
 21
245.352029
  0
LINE
  8
APS_GEOMETRY
 10
477.119368
 11
477.119368
 20
247.685362
 21
242.685362
  0
LINE
  8
APS_GEOMETRY
 10
473.508257
 11
473.508257
 20
247.685362
 21
242.685362
  0
LINE
  8
APS_GEOMETRY
 10
478.119537
 11
479.297833
 20
247.684165
 21
247.685362
  0
LINE
  8
APS_GEOMETRY
 10
479.297833
 11
479.297833
 20
247.685362
 21
242.685362
  0
LINE
  8
APS_GEOMETRY
 10
479.297833
 11
478.119537
 20
242.685362
 21
242.684164
  0
LINE
  8
APS_GEOMETRY
 10
479.297833
 11
480.47613
 20
242.685362
 21
242.684164
  0
LINE
  8
APS_GEOMETRY
 10
479.297833
 11
480.47613
 20
247.685362
 21
247.684165
  0
LINE
  8
APS_GEOMETRY
 10
481.475962
 11
481.475962
 20
242.685362
 21
247.685362
  0
LINE
  8
APS_GEOMETRY
 10
481.475962
 11
481.753739
 20
247.685362
 21
247.685362
  0
LINE
  8
APS_GEOMETRY
 10
481.753739
 11
484.531517
 20
247.685362
 21
242.685362
  0
LINE
  8
APS_GEOMETRY
 10
484.531517
 11
484.809295
 20
242.685362
 21
242.685362
  0
LINE
  8
APS_GEOMETRY
 10
484.809295
 11
484.809295
 20
242.685362
 21
247.685362
  0
LINE
  8
APS_GEOMETRY
 10
490.670406
 11
493.725962
 20
244.195453
 21
244.195453
  0
LINE
  8
APS_GEOMETRY
 10
490.059295
 11
492.00374
 20
242.685362
 21
247.685362
  0
LINE
  8
APS_GEOMETRY
 10
492.00374
 11
492.448184
 20
247.685362
 21
247.685362
  0
LINE
  8
APS_GEOMETRY
 10
492.448184
 11
494.281517
 20
247.685362
 21
242.685362
  0
LINE
  8
APS_GEOMETRY
 10
501.421798
 11
502.532909
 20
245.129806
 21
242.685362
  0
LINE
  8
APS_GEOMETRY
 10
503.439531
 11
505.383976
 20
247.667326
 21
244.889548
  0
LINE
  8
APS_GEOMETRY
 10
505.383976
 11
505.383976
 20
244.889548
 21
242.667326
  0
LINE
  8
APS_GEOMETRY
 10
505.383976
 11
507.32842
 20
244.889548
 21
247.667326
  0
LINE
  8
APS_GEOMETRY
 10
507.755131
 11
507.755131
 20
247.685362
 21
242.685362
  0
LINE
  8
APS_GEOMETRY
 10
507.755131
 11
511.088465
 20
242.685362
 21
242.685362
  0
LINE
  8
APS_GEOMETRY
 10
511.588633
 11
512.766929
 20
247.684165
 21
247.685362
  0
LINE
  8
APS_GEOMETRY
 10
512.766929
 11
512.766929
 20
247.685362
 21
242.685362
  0
LINE
  8
APS_GEOMETRY
 10
512.766929
 11
511.588633
 20
242.685362
 21
242.684164
  0
LINE
  8
APS_GEOMETRY
 10
512.766929
 11
513.945226
 20
242.685362
 21
242.684164
  0
LINE
  8
APS_GEOMETRY
 10
512.766929
 11
513.945226
 20
247.685362
 21
247.684165
  0
LINE
  8
APS_GEOMETRY
 10
531.164507
 11
527.831173
 20
247.685362
 21
247.685362
  0
LINE
  8
APS_GEOMETRY
 10
527.831173
 11
527.831173
 20
247.685362
 21
242.685362
  0
LINE
  8
APS_GEOMETRY
 10
527.831173
 11
531.164507
 20
242.685362
 21
242.685362
  0
LINE
  8
APS_GEOMETRY
 10
527.886729
 11
530.053396
 20
245.352029
 21
245.352029
  0
LINE
  8
APS_GEOMETRY
 10
532.164507
 11
532.164507
 20
242.685362
 21
247.685362
  0
LINE
  8
APS_GEOMETRY
 10
532.164507
 11
532.442285
 20
247.685362
 21
247.685362
  0
LINE
  8
APS_GEOMETRY
 10
532.442285
 11
534.386729
 20
247.685362
 21
242.685362
  0
LINE
  8
APS_GEOMETRY
 10
534.386729
 11
536.331174
 20
242.685362
 21
247.685362
  0
LINE
  8
APS_GEOMETRY
 10
536.331174
 11
536.608951
 20
247.685362
 21
247.685362
  0
LINE
  8
APS_GEOMETRY
 10
536.608951
 11
536.608951
 20
247.685362
 21
242.685362
  0
LINE
  8
APS_GEOMETRY
 10
540.942285
 11
537.608951
 20
247.685362
 21
247.685362
  0
LINE
  8
APS_GEOMETRY
 10
537.608951
 11
537.608951
 20
247.685362
 21
242.685362
  0
LINE
  8
APS_GEOMETRY
 10
537.608951
 11
540.942285
 20
242.685362
 21
242.685362
  0
LINE
  8
APS_GEOMETRY
 10
537.664507
 11
539.831174
 20
245.352029
 21
245.352029
  0
LINE
  8
APS_GEOMETRY
 10
541.942285
 11
541.942285
 20
242.685362
 21
247.685362
  0
LINE
  8
APS_GEOMETRY
 10
541.942285
 11
542.220063
 20
247.685362
 21
247.685362
  0
LINE
  8
APS_GEOMETRY
 10
542.220063
 11
544.997841
 20
247.685362
 21
242.685362
  0
LINE
  8
APS_GEOMETRY
 10
544.997841
 11
545.275618
 20
242.685362
 21
242.685362
  0
LINE
  8
APS_GEOMETRY
 10
545.275618
 11
545.275618
 20
242.685362
 21
247.685362
  0
LINE
  8
APS_GEOMETRY
 10
547.740589
 11
547.740589
 20
247.663998
 21
242.719553
  0
LINE
  8
APS_GEOMETRY
 10
545.796145
 11
549.685034
 20
247.719553
 21
247.719553
  0
LINE
  8
APS_GEOMETRY
 10
559.741344
 11
556.408011
 20
247.685362
 21
247.685362
  0
LINE
  8
APS_GEOMETRY
 10
556.408011
 11
556.408011
 20
247.685362
 21
242.685362
  0
LINE
  8
APS_GEOMETRY
 10
556.408011
 11
559.741344
 20
242.685362
 21
242.685362
  0
LINE
  8
APS_GEOMETRY
 10
556.463567
 11
558.630233
 20
245.352029
 21
245.352029
  0
LINE
  8
APS_GEOMETRY
 10
565.213567
 11
568.269123
 20
244.195453
 21
244.195453
  0
LINE
  8
APS_GEOMETRY
 10
564.602456
 11
566.5469
 20
242.685362
 21
247.685362
  0
LINE
  8
APS_GEOMETRY
 10
566.5469
 11
566.991345
 20
247.685362
 21
247.685362
  0
LINE
  8
APS_GEOMETRY
 10
566.991345
 11
568.824678
 20
247.685362
 21
242.685362
  0
LINE
  8
APS_GEOMETRY
 10
568.397967
 11
570.342412
 20
247.667326
 21
244.889548
  0
LINE
  8
APS_GEOMETRY
 10
570.342412
 11
570.342412
 20
244.889548
 21
242.667326
  0
LINE
  8
APS_GEOMETRY
 10
570.342412
 11
572.286856
 20
244.889548
 21
247.667326
  0
LINE
  8
APS_GEOMETRY
 10
357.852055
 11
361.740944
 20
439.364715
 21
433.80916
  0
LINE
  8
APS_GEOMETRY
 10
361.740944
 11
361.740944
 20
433.80916
 21
429.364715
  0
LINE
  8
APS_GEOMETRY
 10
361.740944
 11
365.629833
 20
433.80916
 21
439.364715
  0
ARC
  8
APS_GEOMETRY
 10
370.121384
 20
432.709925
 40
3.274
 50
218.6887
 51
321.3113
  0
ARC
  8
APS_GEOMETRY
 10
367.94677
 20
434.496774
 40
6.088445
 50
320.978113
 51
39.020738
  0
ARC
  8
APS_GEOMETRY
 10
370.121441
 20
436.283552
 40
3.274
 50
38.688157
 51
141.312908
  0
ARC
  8
APS_GEOMETRY
 10
372.296055
 20
434.496703
 40
6.088445
 50
140.978975
 51
219.021025
  0
LINE
  8
APS_GEOMETRY
 10
374.995125
 11
374.995125
 20
439.305865
 21
432.639198
  0
ARC
  8
APS_GEOMETRY
 10
378.328459
 20
432.639198
 40
3.333333
 50
180.0
 51
0.0
  0
LINE
  8
APS_GEOMETRY
 10
381.661792
 11
381.661792
 20
432.639198
 21
439.305865
  0
LINE
  8
APS_GEOMETRY
 10
396.10747
 11
396.10747
 20
439.358059
 21
429.46917
  0
LINE
  8
APS_GEOMETRY
 10
392.218581
 11
399.996359
 20
439.46917
 21
439.46917
  0
LINE
  8
APS_GEOMETRY
 10
400.93957
 11
400.93957
 20
439.305865
 21
432.639198
  0
ARC
  8
APS_GEOMETRY
 10
404.272904
 20
432.639198
 40
3.333333
 50
180.0
 51
0.0
  0
LINE
  8
APS_GEOMETRY
 10
407.606237
 11
407.606237
 20
432.639198
 21
439.305865
  0
LINE
  8
APS_GEOMETRY
 10
409.621973
 11
413.621973
 20
434.623009
 21
434.623009
  0
ARC
  8
APS_GEOMETRY
 10
413.621973
 20
437.011898
 40
2.388889
 50
270.0
 51
90.0
  0
LINE
  8
APS_GEOMETRY
 10
413.621973
 11
409.621973
 20
439.400787
 21
439.400787
  0
LINE
  8
APS_GEOMETRY
 10
409.621973
 11
409.621973
 20
439.400787
 21
429.400787
  0
LINE
  8
APS_GEOMETRY
 10
409.621973
 11
413.733084
 20
429.400787
 21
429.400787
  0
ARC
  8
APS_GEOMETRY
 10
413.733084
 20
432.011898
 40
2.611111
 50
270.0
 51
90.0
  0
LINE
  8
APS_GEOMETRY
 10
425.010862
 11
418.344195
 20
439.400787
 21
439.400787
  0
LINE
  8
APS_GEOMETRY
 10
418.344195
 11
418.344195
 20
439.400787
 21
429.400787
  0
LINE
  8
APS_GEOMETRY
 10
418.344195
 11
425.010862
 20
429.400787
 21
429.400787
  0
LINE
  8
APS_GEOMETRY
 10
418.455307
 11
422.78864
 20
434.734121
 21
434.734121
  0
LINE
  8
APS_GEOMETRY
 10
436.510862
 11
436.510862
 20
439.400787
 21
429.400787
  0
LINE
  8
APS_GEOMETRY
 10
436.510862
 11
443.177529
 20
429.400787
 21
429.400787
  0
LINE
  8
APS_GEOMETRY
 10
446.534459
 11
446.534459
 20
439.400787
 21
429.400787
  0
LINE
  8
APS_GEOMETRY
 10
444.177866
 11
446.534459
 20
429.398392
 21
429.400787
  0
LINE
  8
APS_GEOMETRY
 10
446.534459
 11
448.891052
 20
429.400787
 21
429.398392
  0
LINE
  8
APS_GEOMETRY
 10
444.177866
 11
446.534459
 20
439.398393
 21
439.400787
  0
LINE
  8
APS_GEOMETRY
 10
446.534459
 11
448.891052
 20
439.400787
 21
439.398393
  0
LINE
  8
APS_GEOMETRY
 10
450.890716
 11
450.890716
 20
429.400787
 21
439.400787
  0
LINE
  8
APS_GEOMETRY
 10
450.890716
 11
451.446271
 20
439.400787
 21
439.400787
  0
LINE
  8
APS_GEOMETRY
 10
451.446271
 11
457.001827
 20
439.400787
 21
429.400787
  0
LINE
  8
APS_GEOMETRY
 10
457.001827
 11
457.557383
 20
429.400787
 21
429.400787
  0
LINE
  8
APS_GEOMETRY
 10
457.557383
 11
457.557383
 20
429.400787
 21
439.400787
  0
LINE
  8
APS_GEOMETRY
 10
466.779605
 11
462.335161
 20
429.400787
 21
435.511898
  0
LINE
  8
APS_GEOMETRY
 10
459.668494
 11
466.779605
 20
433.400787
 21
439.400787
  0
LINE
  8
APS_GEOMETRY
 10
459.557383
 11
459.557383
 20
439.400787
 21
429.400787
  0
LINE
  8
APS_GEOMETRY
 10
359.155824
 11
359.155824
 20
418.976498
 21
409.976498
  0
LINE
  8
APS_GEOMETRY
 10
357.955824
 11
360.455824
 20
416.176498
 21
416.176498
  0
LINE
  8
APS_GEOMETRY
 10
363.655824
 11
363.655824
 20
418.976498
 21
409.976498
  0
LINE
  8
APS_GEOMETRY
 10
362.455824
 11
364.955824
 20
416.176498
 21
416.176498
  0
ARC
  8
APS_GEOMETRY
 10
369.151632
 20
412.47946
 40
2.5727
 50
214.9193
 51
269.7887
  0
ARC
  8
APS_GEOMETRY
 10
369.137739
 20
412.260074
 40
2.3533
 50
270.107261
 51
333.411436
  0
ARC
  8
APS_GEOMETRY
 10
367.64474
 20
413.006744
 40
4.0226
 50
333.419009
 51
26.581852
  0
ARC
  8
APS_GEOMETRY
 10
369.137716
 20
413.75346
 40
2.3533
 50
26.58881
 51
89.892414
  0
ARC
  8
APS_GEOMETRY
 10
369.151641
 20
413.534074
 40
2.5727
 50
90.211714
 51
145.081065
  0
LINE
  8
APS_GEOMETRY
 10
367.042132
 11
367.042132
 20
416.20676
 21
407.50676
  0
ARC
  8
APS_GEOMETRY
 10
374.510527
 20
413.705463
 40
2.4404
 50
42.8264
 51
122.4689
  0
ARC
  8
APS_GEOMETRY
 10
373.885329
 20
414.68423
 40
1.279
 50
122.378183
 51
252.485679
  0
LINE
  8
APS_GEOMETRY
 10
373.500422
 11
375.500427
 20
413.464522
 21
412.864463
  0
ARC
  8
APS_GEOMETRY
 10
375.102469
 20
411.548729
 40
1.3746
 50
300.512868
 51
73.171518
  0
ARC
  8
APS_GEOMETRY
 10
374.500323
 20
412.618422
 40
2.602
 50
240.027532
 51
299.976472
  0
ARC
  8
APS_GEOMETRY
 10
373.867591
 20
411.53145
 40
1.3443
 50
209.746055
 51
240.244046
  0
LINE
  8
APS_GEOMETRY
 10
378.987264
 11
378.487264
 20
414.770129
 21
414.770129
  0
LINE
  8
APS_GEOMETRY
 10
378.487264
 11
378.487264
 20
414.770129
 21
415.270129
  0
LINE
  8
APS_GEOMETRY
 10
378.487264
 11
378.987264
 20
415.270129
 21
415.270129
  0
LINE
  8
APS_GEOMETRY
 10
378.987264
 11
378.987264
 20
415.270129
 21
414.770129
  0
LINE
  8
APS_GEOMETRY
 10
378.987264
 11
378.487264
 20
412.289155
 21
412.289155
  0
LINE
  8
APS_GEOMETRY
 10
378.487264
 11
378.487264
 20
412.289155
 21
412.789155
  0
LINE
  8
APS_GEOMETRY
 10
378.487264
 11
378.987264
 20
412.789155
 21
412.789155
  0
LINE
  8
APS_GEOMETRY
 10
378.987264
 11
378.987264
 20
412.789155
 21
412.289155
  0
LINE
  8
APS_GEOMETRY
 10
381.150498
 11
387.150498
 20
409.89237
 21
418.89237
  0
LINE
  8
APS_GEOMETRY
 10
389.150498
 11
395.150498
 20
409.89237
 21
418.89237
  0
LINE
  8
APS_GEOMETRY
 10
397.219777
 11
399.519777
 20
416.414168
 21
409.914168
  0
LINE
  8
APS_GEOMETRY
 10
397.219777
 11
398.019777
 20
407.414168
 21
407.414168
  0
LINE
  8
APS_GEOMETRY
 10
398.019777
 11
398.419777
 20
407.414168
 21
407.514168
  0
LINE
  8
APS_GEOMETRY
 10
398.419777
 11
398.719777
 20
407.514168
 21
407.714168
  0
LINE
  8
APS_GEOMETRY
 10
398.719777
 11
398.919777
 20
407.714168
 21
408.014168
  0
LINE
  8
APS_GEOMETRY
 10
398.919777
 11
401.519777
 20
408.014168
 21
416.414168
  0
ARC
  8
APS_GEOMETRY
 10
405.02856
 20
412.366389
 40
2.3411
 50
206.2329
 51
333.7671
  0
ARC
  8
APS_GEOMETRY
 10
403.531151
 20
413.131607
 40
4.0226
 50
333.417878
 51
26.581314
  0
ARC
  8
APS_GEOMETRY
 10
405.028569
 20
413.896808
 40
2.3411
 50
26.231996
 51
153.7676
  0
ARC
  8
APS_GEOMETRY
 10
406.525978
 20
413.131589
 40
4.0226
 50
153.418164
 51
206.581836
  0
LINE
  8
APS_GEOMETRY
 10
408.406066
 11
408.405989
 20
416.328742
 21
411.728709
  0
ARC
  8
APS_GEOMETRY
 10
410.097066
 20
411.719819
 40
1.6911
 50
179.698802
 51
270.305782
  0
ARC
  8
APS_GEOMETRY
 10
410.108366
 20
412.937542
 40
2.9088
 50
269.9552
 51
333.2598
  0
LINE
  8
APS_GEOMETRY
 10
412.706066
 11
412.706066
 20
416.328742
 21
410.028742
  0
LINE
  8
APS_GEOMETRY
 10
415.802275
 11
415.802275
 20
418.976498
 21
409.976498
  0
LINE
  8
APS_GEOMETRY
 10
414.602275
 11
417.102275
 20
416.176498
 21
416.176498
  0
LINE
  8
APS_GEOMETRY
 10
419.206186
 11
419.20611
 20
416.328742
 21
411.728709
  0
ARC
  8
APS_GEOMETRY
 10
420.897187
 20
411.719819
 40
1.6911
 50
179.698802
 51
270.305782
  0
ARC
  8
APS_GEOMETRY
 10
420.908486
 20
412.937542
 40
2.9088
 50
269.9552
 51
333.2598
  0
LINE
  8
APS_GEOMETRY
 10
423.506186
 11
423.506186
 20
416.328742
 21
410.028742
  0
CIRCLE
  8
APS_GEOMETRY
 10
426.420812
 20
410.980288
 40
1.0
  0
LINE
  8
APS_GEOMETRY
 10
429.437879
 11
429.437879
 20
409.976498
 21
418.976498
  0
ARC
  8
APS_GEOMETRY
 10
431.547379
 20
412.449198
 40
2.5727
 50
214.9193
 51
269.7887
  0
ARC
  8
APS_GEOMETRY
 10
431.533485
 20
412.229811
 40
2.3533
 50
270.107261
 51
333.411436
  0
ARC
  8
APS_GEOMETRY
 10
430.040487
 20
412.976482
 40
4.0226
 50
333.419009
 51
26.581852
  0
ARC
  8
APS_GEOMETRY
 10
431.533463
 20
413.723198
 40
2.3533
 50
26.58881
 51
89.892414
  0
ARC
  8
APS_GEOMETRY
 10
431.547388
 20
413.503811
 40
2.5727
 50
90.211714
 51
145.081065
  0
LINE
  8
APS_GEOMETRY
 10
435.090164
 11
439.890175
 20
413.631621
 21
413.631605
  0
ARC
  8
APS_GEOMETRY
 10
436.924663
 20
413.740192
 40
2.9675
 50
357.902951
 51
30.171303
  0
ARC
  8
APS_GEOMETRY
 10
437.586565
 20
414.13452
 40
2.1971
 50
29.956335
 51
89.906216
  0
ARC
  8
APS_GEOMETRY
 10
437.59458
 20
413.978321
 40
2.3533
 50
90.107586
 51
153.41119
  0
ARC
  8
APS_GEOMETRY
 10
439.087556
 20
413.231605
 40
4.0226
 50
153.418148
 51
206.580991
  0
ARC
  8
APS_GEOMETRY
 10
437.594557
 20
412.484934
 40
2.3533
 50
206.588564
 51
269.892739
  0
ARC
  8
APS_GEOMETRY
 10
437.580664
 20
412.704321
 40
2.5727
 50
270.2113
 51
325.0807
  0
LINE
  8
APS_GEOMETRY
 10
441.053536
 11
447.053536
 20
409.89237
 21
418.89237
  0
ARC
  8
APS_GEOMETRY
 10
449.586053
 20
415.050256
 40
6.078778
 50
31.026839
 51
40.045456
  0
ARC
  8
APS_GEOMETRY
 10
451.683976
 20
416.914843
 40
3.274
 50
38.687092
 51
141.311843
  0
ARC
  8
APS_GEOMETRY
 10
453.85863
 20
415.128045
 40
6.088445
 50
140.979023
 51
219.021731
  0
ARC
  8
APS_GEOMETRY
 10
451.674593
 20
413.335543
 40
3.263111
 50
218.714375
 51
270.166398
  0
ARC
  8
APS_GEOMETRY
 10
451.676589
 20
413.474327
 40
3.401889
 50
270.126
 51
341.6935
  0
LINE
  8
APS_GEOMETRY
 10
454.906307
 11
454.906255
 20
412.405793
 21
414.961327
  0
LINE
  8
APS_GEOMETRY
 10
454.906255
 11
452.3507
 20
414.961327
 21
414.961327
  0
LINE
  8
APS_GEOMETRY
 10
457.010688
 11
457.010688
 20
419.881576
 21
413.214909
  0
ARC
  8
APS_GEOMETRY
 10
460.344022
 20
413.214909
 40
3.333333
 50
180.0
 51
0.0
  0
LINE
  8
APS_GEOMETRY
 10
463.677355
 11
463.677355
 20
413.214909
 21
419.881576
  0
ARC
  8
APS_GEOMETRY
 10
468.694714
 20
413.174412
 40
3.118111
 50
208.751948
 51
258.48402
  0
ARC
  8
APS_GEOMETRY
 10
469.355405
 20
416.033244
 40
6.051778
 50
257.758312
 51
286.480382
  0
ARC
  8
APS_GEOMETRY
 10
470.294422
 20
412.963241
 40
2.841667
 50
285.885172
 51
325.197039
  0
ARC
  8
APS_GEOMETRY
 10
470.316678
 20
412.981397
 40
2.833889
 50
324.638795
 51
31.268726
  0
ARC
  8
APS_GEOMETRY
 10
470.222284
 20
412.948823
 40
2.931556
 50
30.855291
 51
75.402309
  0
ARC
  8
APS_GEOMETRY
 10
469.627786
 20
410.578059
 40
5.375667
 50
75.6389
 51
104.3611
  0
ARC
  8
APS_GEOMETRY
 10
466.315678
 20
421.510405
 40
6.057
 50
289.068075
 51
345.63788
  0
LINE
  8
APS_GEOMETRY
 10
472.183381
 11
466.07223
 20
420.007969
 21
420.007948
  0
LINE
  8
APS_GEOMETRY
 10
475.104847
 11
482.660403
 20
419.976498
 21
409.976498
  0
LINE
  8
APS_GEOMETRY
 10
474.882625
 11
482.43818
 20
409.976498
 21
419.976498
  0
LINE
  8
APS_GEOMETRY
 10
485.160403
 11
489.160403
 20
416.276498
 21
409.976498
  0
LINE
  8
APS_GEOMETRY
 10
484.660403
 11
488.660403
 20
409.976498
 21
416.276498
  0
LINE
  8
APS_GEOMETRY
 10
491.160403
 11
491.160403
 20
409.976498
 21
418.976498
  0
ARC
  8
APS_GEOMETRY
 10
493.269903
 20
412.449198
 40
2.5727
 50
214.9193
 51
269.7887
  0
ARC
  8
APS_GEOMETRY
 10
493.256009
 20
412.229811
 40
2.3533
 50
270.107261
 51
333.411436
  0
ARC
  8
APS_GEOMETRY
 10
491.763011
 20
412.976482
 40
4.0226
 50
333.419009
 51
26.581852
  0
ARC
  8
APS_GEOMETRY
 10
493.255987
 20
413.723198
 40
2.3533
 50
26.58881
 51
89.892414
  0
ARC
  8
APS_GEOMETRY
 10
493.269912
 20
413.503811
 40
2.5727
 50
90.211714
 51
145.081065
  0
LINE
  8
APS_GEOMETRY
 10
500.715562
 11
500.715562
 20
419.93377
 21
410.044881
  0
LINE
  8
APS_GEOMETRY
 10
496.826672
 11
504.604451
 20
420.044881
 21
420.044881
  0
ARC
  8
APS_GEOMETRY
 10
509.039506
 20
413.644056
 40
3.731334
 50
202.7274
 51
247.2726
  0
ARC
  8
APS_GEOMETRY
 10
509.0979
 20
413.712367
 40
3.817
 50
246.860287
 51
293.140726
  0
ARC
  8
APS_GEOMETRY
 10
509.178729
 20
413.558625
 40
3.643889
 50
292.922067
 51
357.893283
  0
ARC
  8
APS_GEOMETRY
 10
509.539612
 20
413.539613
 40
3.282556
 50
357.993348
 51
71.191207
  0
ARC
  8
APS_GEOMETRY
 10
509.097731
 20
412.235203
 40
4.659778
 50
71.219129
 51
108.775441
  0
ARC
  8
APS_GEOMETRY
 10
508.80273
 20
413.034518
 40
3.808111
 50
108.443904
 51
138.941081
  0
LINE
  8
APS_GEOMETRY
 10
505.931283
 11
506.709062
 20
415.535818
 21
419.980278
  0
LINE
  8
APS_GEOMETRY
 10
506.709062
 11
511.709062
 20
419.980278
 21
419.980278
  0
LINE
  8
APS_GEOMETRY
 10
514.787668
 11
514.787668
 20
409.976498
 21
418.976498
  0
LINE
  8
APS_GEOMETRY
 10
519.087668
 11
519.087744
 20
409.976498
 21
414.576531
  0
ARC
  8
APS_GEOMETRY
 10
517.396667
 20
414.585421
 40
1.6911
 50
359.698802
 51
90.305782
  0
ARC
  8
APS_GEOMETRY
 10
517.385368
 20
413.367698
 40
2.9088
 50
89.9552
 51
153.2598
  0
LINE
  8
APS_GEOMETRY
 10
520.35181
 11
522.15181
 20
416.375294
 21
410.075294
  0
LINE
  8
APS_GEOMETRY
 10
522.15181
 11
522.45181
 20
410.075294
 21
410.075294
  0
LINE
  8
APS_GEOMETRY
 10
522.45181
 11
524.25181
 20
410.075294
 21
416.375294
  0
LINE
  8
APS_GEOMETRY
 10
524.25181
 11
526.05181
 20
416.375294
 21
410.075294
  0
LINE
  8
APS_GEOMETRY
 10
526.05181
 11
526.35181
 20
410.075294
 21
410.075294
  0
LINE
  8
APS_GEOMETRY
 10
526.35181
 11
528.15181
 20
410.075294
 21
416.375294
  0
ARC
  8
APS_GEOMETRY
 10
531.160931
 20
413.504589
 40
2.5727
 50
34.918935
 51
89.788286
  0
ARC
  8
APS_GEOMETRY
 10
531.174856
 20
413.723976
 40
2.3533
 50
90.107586
 51
153.41119
  0
ARC
  8
APS_GEOMETRY
 10
532.667832
 20
412.97726
 40
4.0226
 50
153.418148
 51
206.580991
  0
ARC
  8
APS_GEOMETRY
 10
531.174834
 20
412.230589
 40
2.3533
 50
206.588564
 51
269.892739
  0
ARC
  8
APS_GEOMETRY
 10
531.16094
 20
412.449975
 40
2.5727
 50
270.2113
 51
325.0807
  0
ENDSEC
  0
EOF
