  0
SECTION
  2
ENTITIES
  0
ARC
  8
APS_GEOMETRY
 10
64.324367
 20
152.764724
 40
2.0
 50
0.0
 51
92.862405
  0
LINE
  8
APS_GEOMETRY
 10
64.224492
 11
56.374305
 20
154.762229
 21
154.36972
  0
LINE
  8
APS_GEOMETRY
 10
56.374305
 11
56.324367
 20
154.36972
 21
155.368472
  0
LINE
  8
APS_GEOMETRY
 10
56.324367
 11
83.29068
 20
155.368472
 21
156.716788
  0
LINE
  8
APS_GEOMETRY
 10
83.29068
 11
81.293175
 20
156.716788
 21
196.666881
  0
LINE
  8
APS_GEOMETRY
 10
81.293175
 11
54.326862
 20
196.666881
 21
195.318566
  0
LINE
  8
APS_GEOMETRY
 10
54.326862
 11
54.276925
 20
195.318566
 21
196.317318
  0
LINE
  8
APS_GEOMETRY
 10
54.276925
 11
62.127112
 20
196.317318
 21
196.709827
  0
ARC
  8
APS_GEOMETRY
 10
62.027237
 20
198.707332
 40
2.0
 50
272.862398
 51
5.724819
  0
LINE
  8
APS_GEOMETRY
 10
64.017262
 11
63.4542
 20
198.906833
 21
204.52337
  0
LINE
  8
APS_GEOMETRY
 10
63.4542
 11
68.391872
 20
204.52337
 21
204.894004
  0
ARC
  8
APS_GEOMETRY
 10
68.242168
 20
206.888393
 40
2.0
 50
274.292717
 51
5.72483
  0
LINE
  8
APS_GEOMETRY
 10
70.232193
 11
69.633502
 20
207.087895
 21
213.059835
  0
ARC
  8
APS_GEOMETRY
 10
67.643477
 20
212.860334
 40
2.0
 50
5.724803
 51
94.292715
  0
LINE
  8
APS_GEOMETRY
 10
67.493773
 11
62.456382
 20
214.854723
 21
214.476604
  0
LINE
  8
APS_GEOMETRY
 10
62.456382
 11
61.783221
 20
214.476604
 21
221.191384
  0
ARC
  8
APS_GEOMETRY
 10
59.793196
 20
220.991882
 40
2.0
 50
5.724832
 51
95.724814
  0
LINE
  8
APS_GEOMETRY
 10
59.593695
 11
-95.62825
 20
222.981907
 21
207.42081
  0
ARC
  8
APS_GEOMETRY
 10
-95.428749
 20
205.430785
 40
2.0
 50
95.724803
 51
185.724811
  0
LINE
  8
APS_GEOMETRY
 10
-97.418774
 11
-97.144615
 20
205.231284
 21
202.496554
  0
LINE
  8
APS_GEOMETRY
 10
-97.144615
 11
-102.082287
 20
202.496554
 21
202.12592
  0
ARC
  8
APS_GEOMETRY
 10
-101.932583
 20
200.131531
 40
2.0
 50
94.29272
 51
185.724801
  0
LINE
  8
APS_GEOMETRY
 10
-103.922608
 11
-103.323917
 20
199.93203
 21
193.960089
  0
ARC
  8
APS_GEOMETRY
 10
-101.333892
 20
194.159591
 40
2.0
 50
185.724832
 51
274.292718
  0
LINE
  8
APS_GEOMETRY
 10
-101.184188
 11
-96.146797
 20
192.165202
 21
192.54332
  0
LINE
  8
APS_GEOMETRY
 10
-96.146797
 11
-95.962788
 20
192.54332
 21
190.707831
  0
ARC
  8
APS_GEOMETRY
 10
-93.972763
 20
190.907332
 40
2.0
 50
185.724803
 51
272.862406
  0
LINE
  8
APS_GEOMETRY
 10
-93.872888
 11
-85.723075
 20
188.909827
 21
189.317318
  0
LINE
  8
APS_GEOMETRY
 10
-85.723075
 11
-85.673138
 20
189.317318
 21
188.318566
  0
LINE
  8
APS_GEOMETRY
 10
-85.673138
 11
-105.648185
 20
188.318566
 21
187.319813
  0
LINE
  8
APS_GEOMETRY
 10
-105.648185
 11
-103.65068
 20
187.319813
 21
147.36972
  0
LINE
  8
APS_GEOMETRY
 10
-103.65068
 11
-83.675633
 20
147.36972
 21
148.368472
  0
LINE
  8
APS_GEOMETRY
 10
-83.675633
 11
-83.625695
 20
148.368472
 21
147.36972
  0
LINE
  8
APS_GEOMETRY
 10
-83.625695
 11
-91.775508
 20
147.36972
 21
146.962229
  0
ARC
  8
APS_GEOMETRY
 10
-91.675633
 20
144.964724
 40
2.0
 50
92.862399
 51
180.000009
  0
LINE
  8
APS_GEOMETRY
 10
-93.675633
 11
-93.675633
 20
144.964724
 21
143.120034
  0
LINE
  8
APS_GEOMETRY
 10
-93.675633
 11
-98.725617
 20
143.120034
 21
142.993785
  0
ARC
  8
APS_GEOMETRY
 10
-98.675633
 20
140.99441
 40
2.0
 50
91.432085
 51
180.00002
  0
LINE
  8
APS_GEOMETRY
 10
-100.675633
 11
-100.675633
 20
140.994409
 21
134.992535
  0
ARC
  8
APS_GEOMETRY
 10
-98.675633
 20
134.992535
 40
2.0
 50
180.0
 51
271.432096
  0
LINE
  8
APS_GEOMETRY
 10
-98.625649
 11
-93.675633
 20
132.99316
 21
133.11691
  0
LINE
  8
APS_GEOMETRY
 10
-93.675633
 11
-93.675633
 20
133.11691
 21
130.368472
  0
ARC
  8
APS_GEOMETRY
 10
-91.675633
 20
130.368472
 40
2.0
 50
180.0
 51
270.0
  0
LINE
  8
APS_GEOMETRY
 10
-91.675633
 11
64.324367
 20
128.368472
 21
128.368472
  0
ARC
  8
APS_GEOMETRY
 10
64.324367
 20
130.368472
 40
2.0
 50
270.0
 51
0.0
  0
LINE
  8
APS_GEOMETRY
 10
66.324367
 11
66.324367
 20
130.368472
 21
137.11691
  0
LINE
  8
APS_GEOMETRY
 10
66.324367
 11
71.374351
 20
137.11691
 21
137.243159
  0
ARC
  8
APS_GEOMETRY
 10
71.324367
 20
139.242534
 40
2.0
 50
271.432085
 51
0.00002
  0
LINE
  8
APS_GEOMETRY
 10
73.324367
 11
73.324367
 20
139.242535
 21
145.244409
  0
ARC
  8
APS_GEOMETRY
 10
71.324367
 20
145.244409
 40
2.0
 50
0.0
 51
91.432096
  0
LINE
  8
APS_GEOMETRY
 10
71.274383
 11
66.324367
 20
147.243784
 21
147.120034
  0
LINE
  8
APS_GEOMETRY
 10
66.324367
 11
66.324367
 20
147.120034
 21
152.764724
  0
ARC
  8
APS_GEOMETRY
 10
-45.804046
 20
185.577679
 40
1.190389
 50
118.020652
 51
169.471675
  0
ARC
  8
APS_GEOMETRY
 10
-45.418868
 20
184.873371
 40
1.993111
 50
61.713838
 51
118.283697
  0
ARC
  8
APS_GEOMETRY
 10
-45.089228
 20
185.572949
 40
1.221556
 50
300.22001
 51
59.779398
  0
LINE
  8
APS_GEOMETRY
 10
-44.474392
 11
-46.363268
 20
184.517404
 21
183.350736
  0
ARC
  8
APS_GEOMETRY
 10
-45.434212
 20
181.853114
 40
1.762389
 50
121.813563
 51
180.07656
  0
LINE
  8
APS_GEOMETRY
 10
-47.196599
 11
-43.863268
 20
181.850759
 21
181.850736
  0
ARC
  8
APS_GEOMETRY
 10
-25.782211
 20
184.397982
 40
1.559056
 50
208.751948
 51
258.48402
  0
ARC
  8
APS_GEOMETRY
 10
-25.451867
 20
185.827397
 40
3.025889
 50
257.758333
 51
286.480418
  0
ARC
  8
APS_GEOMETRY
 10
-24.982357
 20
184.292396
 40
1.420833
 50
285.885204
 51
325.197035
  0
ARC
  8
APS_GEOMETRY
 10
-24.971229
 20
184.301475
 40
1.416945
 50
324.638774
 51
31.268689
  0
ARC
  8
APS_GEOMETRY
 10
-25.018426
 20
184.285187
 40
1.465778
 50
30.855306
 51
75.402322
  0
ARC
  8
APS_GEOMETRY
 10
-25.315673
 20
183.099805
 40
2.687833
 50
75.638926
 51
104.361134
  0
ARC
  8
APS_GEOMETRY
 10
-26.971729
 20
188.565977
 40
3.0285
 50
289.068086
 51
345.637913
  0
LINE
  8
APS_GEOMETRY
 10
-24.037878
 11
-27.093452
 20
187.814761
 21
187.81475
  0
ARC
  8
APS_GEOMETRY
 10
14.598277
 20
187.003468
 40
1.865667
 50
202.7274
 51
247.2726
  0
ARC
  8
APS_GEOMETRY
 10
14.627473
 20
187.037624
 40
1.9085
 50
246.860317
 51
293.14073
  0
ARC
  8
APS_GEOMETRY
 10
14.667888
 20
186.960754
 40
1.821945
 50
292.922038
 51
357.89323
  0
ARC
  8
APS_GEOMETRY
 10
14.84833
 20
186.951246
 40
1.641278
 50
357.993346
 51
71.191208
  0
ARC
  8
APS_GEOMETRY
 10
14.627389
 20
186.299041
 40
2.329889
 50
71.219133
 51
108.775449
  0
ARC
  8
APS_GEOMETRY
 10
14.479887
 20
186.698698
 40
1.904056
 50
108.44384
 51
138.941028
  0
LINE
  8
APS_GEOMETRY
 10
13.044164
 11
13.433054
 20
187.949349
 21
190.171579
  0
LINE
  8
APS_GEOMETRY
 10
13.433054
 11
15.933054
 20
190.171579
 21
190.171579
  0
ARC
  8
APS_GEOMETRY
 10
34.624621
 20
189.330518
 40
1.637
 50
38.687092
 51
141.311843
  0
ARC
  8
APS_GEOMETRY
 10
35.711956
 20
188.437129
 40
3.044222
 50
140.97926
 51
219.021885
  0
ARC
  8
APS_GEOMETRY
 10
34.624658
 20
187.543694
 40
1.637
 50
218.688225
 51
321.311672
  0
ARC
  8
APS_GEOMETRY
 10
34.874156
 20
187.353769
 40
1.323556
 50
320.977927
 51
39.022276
  0
ARC
  8
APS_GEOMETRY
 10
34.541301
 20
187.097113
 40
1.743778
 50
38.687906
 51
141.311949
  0
ARC
  8
APS_GEOMETRY
 10
34.423927
 20
187.175038
 40
1.6035
 50
140.863791
 51
169.585912
  0
LINE
  8
APS_GEOMETRY
 10
-83.675633
 11
-83.675633
 20
131.930189
 21
142.938138
  0
LINE
  8
APS_GEOMETRY
 10
56.324367
 11
56.324367
 20
132.716471
 21
149.228395
  0
LINE
  8
APS_GEOMETRY
 10
52.121751
 11
53.743477
 20
217.314546
 21
201.137829
  0
LINE
  8
APS_GEOMETRY
 10
-73.107163
 11
-62.702254
 20
188.946864
 21
189.46711
  0
LINE
  8
APS_GEOMETRY
 10
-53.046183
 11
-43.413759
 20
189.949913
 21
190.431535
  0
LINE
  8
APS_GEOMETRY
 10
-33.592155
 11
-22.714295
 20
190.922615
 21
191.466508
  0
LINE
  8
APS_GEOMETRY
 10
-13.215874
 11
-2.637549
 20
191.941429
 21
192.470345
  0
LINE
  8
APS_GEOMETRY
 10
10.486825
 11
23.295899
 20
193.126564
 21
193.767017
  0
LINE
  8
APS_GEOMETRY
 10
34.670357
 11
42.734162
 20
194.33574
 21
194.738931
  0
LINE
  8
APS_GEOMETRY
 10
46.044815
 11
49.04805
 20
194.904463
 21
195.054625
  0
LINE
  8
APS_GEOMETRY
 10
54.516721
 11
55.043393
 20
191.521383
 21
180.987948
  0
LINE
  8
APS_GEOMETRY
 10
55.515554
 11
56.135953
 20
171.54472
 21
159.136758
  0
LINE
  8
APS_GEOMETRY
 10
-85.448768
 11
-84.953077
 20
183.83118
 21
173.917359
  0
LINE
  8
APS_GEOMETRY
 10
-84.457779
 11
-83.899342
 20
164.011382
 21
152.842647
  0
LINE
  8
APS_GEOMETRY
 10
74.326878
 11
64.339354
 20
165.780465
 21
165.281089
  0
LINE
  8
APS_GEOMETRY
 10
64.339354
 11
64.289417
 20
165.281089
 21
166.279841
  0
LINE
  8
APS_GEOMETRY
 10
64.289417
 11
74.27694
 20
166.279841
 21
166.779218
  0
LINE
  8
APS_GEOMETRY
 10
74.27694
 11
74.326878
 20
166.779218
 21
165.780465
  0
LINE
  8
APS_GEOMETRY
 10
63.340602
 11
63.290664
 20
185.256136
 21
186.254888
  0
LINE
  8
APS_GEOMETRY
 10
63.290664
 11
73.278188
 20
186.254888
 21
186.754264
  0
LINE
  8
APS_GEOMETRY
 10
73.278188
 11
73.328125
 20
186.754264
 21
185.755512
  0
LINE
  8
APS_GEOMETRY
 10
73.328125
 11
63.340602
 20
185.755512
 21
185.256136
  0
LINE
  8
APS_GEOMETRY
 10
-89.143802
 11
-89.19374
 20
157.606931
 21
158.605684
  0
LINE
  8
APS_GEOMETRY
 10
-89.19374
 11
-99.181263
 20
158.605684
 21
158.106307
  0
LINE
  8
APS_GEOMETRY
 10
-99.181263
 11
-99.131326
 20
158.106307
 21
157.107555
  0
LINE
  8
APS_GEOMETRY
 10
-99.131326
 11
-89.143802
 20
157.107555
 21
157.606931
  0
LINE
  8
APS_GEOMETRY
 10
-90.142554
 11
-90.192492
 20
177.581978
 21
178.58073
  0
LINE
  8
APS_GEOMETRY
 10
-90.192492
 11
-100.180016
 20
178.58073
 21
178.081354
  0
LINE
  8
APS_GEOMETRY
 10
-100.180016
 11
-100.130078
 20
178.081354
 21
177.082602
  0
LINE
  8
APS_GEOMETRY
 10
-100.130078
 11
-90.142554
 20
177.082602
 21
177.581978
  0
LINE
  8
APS_GEOMETRY
 10
-65.173762
 11
-64.924074
 20
179.331042
 21
174.337281
  0
LINE
  8
APS_GEOMETRY
 10
-64.424697
 11
-64.175009
 20
164.349757
 21
159.355995
  0
LINE
  8
APS_GEOMETRY
 10
-45.173762
 11
-44.924074
 20
180.331042
 21
175.337281
  0
LINE
  8
APS_GEOMETRY
 10
-44.424697
 11
-44.175009
 20
165.349757
 21
160.355995
  0
LINE
  8
APS_GEOMETRY
 10
-25.173762
 11
-24.924074
 20
181.331042
 21
176.337281
  0
LINE
  8
APS_GEOMETRY
 10
-24.424697
 11
-24.175009
 20
166.349757
 21
161.355995
  0
LINE
  8
APS_GEOMETRY
 10
-5.173762
 11
-4.924074
 20
182.331042
 21
177.337281
  0
LINE
  8
APS_GEOMETRY
 10
-4.424697
 11
-4.175009
 20
167.349757
 21
162.355995
  0
LINE
  8
APS_GEOMETRY
 10
14.826238
 11
15.075926
 20
183.331042
 21
178.337281
  0
LINE
  8
APS_GEOMETRY
 10
15.575303
 11
15.824991
 20
168.349757
 21
163.355995
  0
LINE
  8
APS_GEOMETRY
 10
34.826238
 11
35.075926
 20
184.331042
 21
179.337281
  0
LINE
  8
APS_GEOMETRY
 10
35.575303
 11
35.824991
 20
169.349757
 21
164.355995
  0
LINE
  8
APS_GEOMETRY
 10
-55.036425
 11
-54.93655
 20
176.834161
 21
174.836657
  0
LINE
  8
APS_GEOMETRY
 10
-35.036425
 11
-34.93655
 20
177.834161
 21
175.836657
  0
LINE
  8
APS_GEOMETRY
 10
-15.036425
 11
-14.93655
 20
178.834161
 21
176.836657
  0
LINE
  8
APS_GEOMETRY
 10
4.963575
 11
5.06345
 20
179.834161
 21
177.836657
  0
LINE
  8
APS_GEOMETRY
 10
24.963575
 11
25.06345
 20
180.834161
 21
178.836657
  0
LINE
  8
APS_GEOMETRY
 10
25.587779
 11
25.687654
 20
168.850381
 21
166.852876
  0
LINE
  8
APS_GEOMETRY
 10
5.587779
 11
5.687654
 20
167.850381
 21
165.852876
  0
LINE
  8
APS_GEOMETRY
 10
-14.412221
 11
-14.312346
 20
166.850381
 21
164.852876
  0
LINE
  8
APS_GEOMETRY
 10
-34.412221
 11
-34.312346
 20
165.850381
 21
163.852876
  0
LINE
  8
APS_GEOMETRY
 10
-54.412221
 11
-54.312346
 20
164.850381
 21
162.852876
  0
LINE
  8
APS_GEOMETRY
 10
-74.412221
 11
-74.312346
 20
163.850381
 21
161.852876
  0
LINE
  8
APS_GEOMETRY
 10
-75.011472
 11
-74.911597
 20
175.835409
 21
173.837904
  0
LINE
  8
APS_GEOMETRY
 10
44.963575
 11
45.06345
 20
181.834161
 21
179.836657
  0
LINE
  8
APS_GEOMETRY
 10
45.562826
 11
45.662701
 20
169.849133
 21
167.851629
  0
LINE
  8
APS_GEOMETRY
 10
-87.236786
 11
-86.072391
 20
204.416577
 21
192.801744
  0
LINE
  8
APS_GEOMETRY
 10
-65.371691
 11
-63.656064
 20
180.902494
 21
180.902494
  0
LINE
  8
APS_GEOMETRY
 10
-64.513877
 11
-64.513877
 20
180.902494
 21
185.902494
  0
LINE
  8
APS_GEOMETRY
 10
-64.513877
 11
-65.371691
 20
185.902494
 21
185.044681
  0
LINE
  8
APS_GEOMETRY
 10
-3.211275
 11
-7.377941
 20
185.099583
 21
185.099583
  0
LINE
  8
APS_GEOMETRY
 10
-7.377941
 11
-7.377941
 20
185.099583
 21
185.377361
  0
LINE
  8
APS_GEOMETRY
 10
-7.377941
 11
-4.600164
 20
185.377361
 21
188.432917
  0
LINE
  8
APS_GEOMETRY
 10
-4.600164
 11
-4.322386
 20
188.432917
 21
188.432917
  0
LINE
  8
APS_GEOMETRY
 10
-4.322386
 11
-4.322386
 20
188.432917
 21
183.432916
  0
LINE
  8
APS_GEOMETRY
 10
-71.109659
 11
-60.704749
 20
148.996771
 21
149.517016
  0
LINE
  8
APS_GEOMETRY
 10
-51.048678
 11
-41.416254
 20
149.99982
 21
150.481441
  0
LINE
  8
APS_GEOMETRY
 10
-31.59465
 11
-20.71679
 20
150.972521
 21
151.516414
  0
LINE
  8
APS_GEOMETRY
 10
-11.218369
 11
-0.640045
 20
151.991335
 21
152.520251
  0
LINE
  8
APS_GEOMETRY
 10
12.48433
 11
25.293404
 20
153.17647
 21
153.816924
  0
LINE
  8
APS_GEOMETRY
 10
36.667862
 11
44.731666
 20
154.385647
 21
154.788837
  0
LINE
  8
APS_GEOMETRY
 10
48.042319
 11
51.045555
 20
154.95437
 21
155.104531
  0
LINE
  8
APS_GEOMETRY
 10
-108.145066
 11
-132.504156
 20
187.194969
 21
185.977014
  0
LINE
  8
APS_GEOMETRY
 10
-106.147561
 11
-130.506651
 20
147.244876
 21
146.026921
  0
LINE
  8
APS_GEOMETRY
 10
-130.007276
 11
-129.196109
 20
186.101858
 21
169.878526
  0
LINE
  8
APS_GEOMETRY
 10
-128.817974
 11
-128.009771
 20
162.315827
 21
146.151765
  0
LINE
  8
APS_GEOMETRY
 10
-130.590048
 11
-130.007276
 20
181.066474
 21
186.101858
  0
LINE
  8
APS_GEOMETRY
 10
-130.007276
 11
-128.925127
 20
186.101858
 21
181.14972
  0
LINE
  8
APS_GEOMETRY
 10
-128.925127
 11
-130.590048
 20
181.14972
 21
181.066474
  0
LINE
  8
APS_GEOMETRY
 10
-127.426999
 11
-128.009771
 20
151.18715
 21
146.151765
  0
LINE
  8
APS_GEOMETRY
 10
-128.009771
 11
-129.091919
 20
146.151765
 21
151.103904
  0
LINE
  8
APS_GEOMETRY
 10
-129.091919
 11
-127.426999
 20
151.103904
 21
151.18715
  0
LINE
  8
APS_GEOMETRY
 10
-129.316312
 11
-133.482979
 20
165.295193
 21
165.295193
  0
LINE
  8
APS_GEOMETRY
 10
-133.482979
 11
-133.482979
 20
165.295193
 21
165.572971
  0
LINE
  8
APS_GEOMETRY
 10
-133.482979
 11
-130.705201
 20
165.572971
 21
168.628526
  0
LINE
  8
APS_GEOMETRY
 10
-130.705201
 11
-130.427423
 20
168.628526
 21
168.628526
  0
LINE
  8
APS_GEOMETRY
 10
-130.427423
 11
-130.427423
 20
168.628526
 21
163.628526
  0
ARC
  8
APS_GEOMETRY
 10
-126.490983
 20
165.202827
 40
1.637
 50
218.6887
 51
321.3113
  0
ARC
  8
APS_GEOMETRY
 10
-127.57829
 20
166.096251
 40
3.044222
 50
320.978113
 51
39.020738
  0
ARC
  8
APS_GEOMETRY
 10
-126.490955
 20
166.98964
 40
1.637
 50
38.688157
 51
141.312908
  0
ARC
  8
APS_GEOMETRY
 10
-125.403648
 20
166.096216
 40
3.044222
 50
140.978975
 51
219.021025
  0
LINE
  8
APS_GEOMETRY
 10
-89.127786
 11
-88.269973
 20
229.806996
 21
229.806996
  0
LINE
  8
APS_GEOMETRY
 10
-88.269973
 11
-87.41216
 20
229.806996
 21
229.806996
  0
LINE
  8
APS_GEOMETRY
 10
-88.269973
 11
-88.269973
 20
229.806996
 21
234.806996
  0
LINE
  8
APS_GEOMETRY
 10
-88.269973
 11
-89.127786
 20
234.806996
 21
233.949183
  0
ARC
  8
APS_GEOMETRY
 10
-84.437284
 20
231.38301
 40
1.637
 50
218.6887
 51
321.3113
  0
ARC
  8
APS_GEOMETRY
 10
-85.524591
 20
232.276435
 40
3.044222
 50
320.978113
 51
39.020738
  0
ARC
  8
APS_GEOMETRY
 10
-84.437256
 20
233.169824
 40
1.637
 50
38.688157
 51
141.312908
  0
ARC
  8
APS_GEOMETRY
 10
-83.349949
 20
232.276399
 40
3.044222
 50
140.978975
 51
219.021025
  0
ARC
  8
APS_GEOMETRY
 10
-79.523482
 20
231.38301
 40
1.637
 50
218.6887
 51
321.3113
  0
ARC
  8
APS_GEOMETRY
 10
-80.610789
 20
232.276435
 40
3.044222
 50
320.978113
 51
39.020738
  0
ARC
  8
APS_GEOMETRY
 10
-79.523453
 20
233.169824
 40
1.637
 50
38.688157
 51
141.312908
  0
ARC
  8
APS_GEOMETRY
 10
-78.436146
 20
232.276399
 40
3.044222
 50
140.978975
 51
219.021025
  0
LINE
  8
APS_GEOMETRY
 10
-70.369584
 11
-70.369584
 20
234.785632
 21
229.841187
  0
LINE
  8
APS_GEOMETRY
 10
-72.314028
 11
-68.425139
 20
234.841187
 21
234.841187
  0
ARC
  8
APS_GEOMETRY
 10
-66.126602
 20
231.461565
 40
1.637
 50
218.6887
 51
321.3113
  0
ARC
  8
APS_GEOMETRY
 10
-67.213908
 20
232.354989
 40
3.044222
 50
320.978113
 51
39.020738
  0
ARC
  8
APS_GEOMETRY
 10
-66.126573
 20
233.248378
 40
1.637
 50
38.688157
 51
141.312908
  0
ARC
  8
APS_GEOMETRY
 10
-65.039266
 20
232.354953
 40
3.044222
 50
140.978975
 51
219.021025
  0
LINE
  8
APS_GEOMETRY
 10
-58.931863
 11
-58.07405
 20
229.806996
 21
229.806996
  0
LINE
  8
APS_GEOMETRY
 10
-58.07405
 11
-57.216237
 20
229.806996
 21
229.806996
  0
LINE
  8
APS_GEOMETRY
 10
-58.07405
 11
-58.07405
 20
229.806996
 21
234.806996
  0
LINE
  8
APS_GEOMETRY
 10
-58.07405
 11
-58.931863
 20
234.806996
 21
233.949183
  0
ARC
  8
APS_GEOMETRY
 10
-54.207372
 20
233.177604
 40
1.637
 50
38.687092
 51
141.311843
  0
ARC
  8
APS_GEOMETRY
 10
-53.120037
 20
232.284215
 40
3.044222
 50
140.979262
 51
219.021887
  0
ARC
  8
APS_GEOMETRY
 10
-54.207335
 20
231.390779
 40
1.637
 50
218.688216
 51
321.311676
  0
ARC
  8
APS_GEOMETRY
 10
-53.957836
 20
231.200854
 40
1.323556
 50
320.977916
 51
39.022283
  0
ARC
  8
APS_GEOMETRY
 10
-54.290692
 20
230.944198
 40
1.743778
 50
38.687897
 51
141.311964
  0
ARC
  8
APS_GEOMETRY
 10
-54.408065
 20
231.022123
 40
1.6035
 50
140.8638
 51
169.5859
  0
ARC
  8
APS_GEOMETRY
 10
-49.711383
 20
231.38301
 40
1.637
 50
218.6887
 51
321.3113
  0
ARC
  8
APS_GEOMETRY
 10
-50.798689
 20
232.276435
 40
3.044222
 50
320.978113
 51
39.020738
  0
ARC
  8
APS_GEOMETRY
 10
-49.711354
 20
233.169824
 40
1.637
 50
38.688157
 51
141.312908
  0
ARC
  8
APS_GEOMETRY
 10
-48.624047
 20
232.276399
 40
3.044222
 50
140.978975
 51
219.021025
  0
ARC
  8
APS_GEOMETRY
 10
-41.67458
 20
232.343874
 40
3.039389
 50
31.026839
 51
40.045456
  0
ARC
  8
APS_GEOMETRY
 10
-40.625619
 20
233.276168
 40
1.637
 50
38.687092
 51
141.311843
  0
ARC
  8
APS_GEOMETRY
 10
-39.538292
 20
232.382769
 40
3.044222
 50
140.979023
 51
219.021731
  0
ARC
  8
APS_GEOMETRY
 10
-40.63031
 20
231.486518
 40
1.631556
 50
218.714375
 51
270.166398
  0
ARC
  8
APS_GEOMETRY
 10
-40.629313
 20
231.55591
 40
1.700945
 50
270.126
 51
341.6935
  0
LINE
  8
APS_GEOMETRY
 10
-39.014453
 11
-39.014479
 20
231.021643
 21
232.29941
  0
LINE
  8
APS_GEOMETRY
 10
-39.014479
 11
-40.292257
 20
232.29941
 21
232.29941
  0
LINE
  8
APS_GEOMETRY
 10
-37.954395
 11
-37.954395
 20
229.806996
 21
234.806996
  0
LINE
  8
APS_GEOMETRY
 10
-37.954395
 11
-37.676617
 20
234.806996
 21
234.806996
  0
LINE
  8
APS_GEOMETRY
 10
-37.676617
 11
-35.732172
 20
234.806996
 21
229.806996
  0
LINE
  8
APS_GEOMETRY
 10
-35.732172
 11
-33.787728
 20
229.806996
 21
234.806996
  0
LINE
  8
APS_GEOMETRY
 10
-33.787728
 11
-33.50995
 20
234.806996
 21
234.806996
  0
LINE
  8
APS_GEOMETRY
 10
-33.50995
 11
-33.50995
 20
234.806996
 21
229.806996
  0
ARC
  8
APS_GEOMETRY
 10
-27.391106
 20
232.310607
 40
3.039389
 50
31.026839
 51
40.045456
  0
ARC
  8
APS_GEOMETRY
 10
-26.342145
 20
233.242901
 40
1.637
 50
38.687092
 51
141.311843
  0
ARC
  8
APS_GEOMETRY
 10
-25.25481
 20
232.349512
 40
3.044222
 50
140.979262
 51
219.021887
  0
ARC
  8
APS_GEOMETRY
 10
-26.342098
 20
231.456064
 40
1.637
 50
218.687682
 51
321.31267
  0
ARC
  8
APS_GEOMETRY
 10
-27.409839
 20
232.217921
 40
2.947556
 50
322.7266
 51
335.3459
  0
LINE
  8
APS_GEOMETRY
 10
-23.580781
 11
-20.525226
 20
231.317087
 21
231.317087
  0
LINE
  8
APS_GEOMETRY
 10
-24.191892
 11
-22.247448
 20
229.806996
 21
234.806996
  0
LINE
  8
APS_GEOMETRY
 10
-22.247448
 11
-21.803003
 20
234.806996
 21
234.806996
  0
LINE
  8
APS_GEOMETRY
 10
-21.803003
 11
-19.96967
 20
234.806996
 21
229.806996
  0
LINE
  8
APS_GEOMETRY
 10
-19.46967
 11
-17.080781
 20
232.25144
 21
232.25144
  0
ARC
  8
APS_GEOMETRY
 10
-17.080781
 20
233.529218
 40
1.277778
 50
270.0
 51
90.0
  0
LINE
  8
APS_GEOMETRY
 10
-17.080781
 11
-19.46967
 20
234.806996
 21
234.806996
  0
LINE
  8
APS_GEOMETRY
 10
-19.46967
 11
-19.46967
 20
234.806996
 21
229.806996
  0
LINE
  8
APS_GEOMETRY
 10
-17.247448
 11
-16.136336
 20
232.25144
 21
229.806996
  0
ARC
  8
APS_GEOMETRY
 10
-13.353836
 20
233.17544
 40
1.631556
 50
38.7145
 51
90.1655
  0
LINE
  8
APS_GEOMETRY
 10
-13.358549
 11
-14.803003
 20
234.806989
 21
234.806996
  0
LINE
  8
APS_GEOMETRY
 10
-14.803003
 11
-14.803003
 20
234.806996
 21
229.806996
  0
LINE
  8
APS_GEOMETRY
 10
-14.803003
 11
-13.358559
 20
229.806996
 21
229.806996
  0
ARC
  8
APS_GEOMETRY
 10
-13.353842
 20
231.438544
 40
1.631556
 50
269.83436
 51
321.285807
  0
ARC
  8
APS_GEOMETRY
 10
-14.41154
 20
232.306996
 40
3.000056
 50
320.978158
 51
39.021842
  0
LINE
  8
APS_GEOMETRY
 10
-116.165475
 11
-114.221031
 20
270.241777
 21
267.463999
  0
LINE
  8
APS_GEOMETRY
 10
-114.221031
 11
-114.221031
 20
267.463999
 21
265.241777
  0
LINE
  8
APS_GEOMETRY
 10
-114.221031
 11
-112.276586
 20
267.463999
 21
270.241777
  0
ARC
  8
APS_GEOMETRY
 10
-110.030811
 20
266.914382
 40
1.637
 50
218.6887
 51
321.3113
  0
ARC
  8
APS_GEOMETRY
 10
-111.118118
 20
267.807806
 40
3.044222
 50
320.978113
 51
39.020738
  0
ARC
  8
APS_GEOMETRY
 10
-110.030783
 20
268.701196
 40
1.637
 50
38.688157
 51
141.312908
  0
ARC
  8
APS_GEOMETRY
 10
-108.943476
 20
267.807771
 40
3.044222
 50
140.978975
 51
219.021025
  0
LINE
  8
APS_GEOMETRY
 10
-107.593941
 11
-107.593941
 20
270.212352
 21
266.879019
  0
ARC
  8
APS_GEOMETRY
 10
-105.927274
 20
266.879019
 40
1.666667
 50
180.0
 51
0.0
  0
LINE
  8
APS_GEOMETRY
 10
-104.260607
 11
-104.260607
 20
266.879019
 21
270.212352
  0
LINE
  8
APS_GEOMETRY
 10
-97.037768
 11
-97.037768
 20
270.238449
 21
265.294004
  0
LINE
  8
APS_GEOMETRY
 10
-98.982213
 11
-95.093324
 20
270.294005
 21
270.294005
  0
LINE
  8
APS_GEOMETRY
 10
-94.621718
 11
-94.621718
 20
270.212352
 21
266.879019
  0
ARC
  8
APS_GEOMETRY
 10
-92.955051
 20
266.879019
 40
1.666667
 50
180.0
 51
0.0
  0
LINE
  8
APS_GEOMETRY
 10
-91.288385
 11
-91.288385
 20
266.879019
 21
270.212352
  0
LINE
  8
APS_GEOMETRY
 10
-90.280517
 11
-88.280517
 20
267.870924
 21
267.870924
  0
ARC
  8
APS_GEOMETRY
 10
-88.280517
 20
269.065369
 40
1.194445
 50
270.0
 51
90.0
  0
LINE
  8
APS_GEOMETRY
 10
-88.280517
 11
-90.280517
 20
270.259813
 21
270.259813
  0
LINE
  8
APS_GEOMETRY
 10
-90.280517
 11
-90.280517
 20
270.259813
 21
265.259813
  0
LINE
  8
APS_GEOMETRY
 10
-90.280517
 11
-88.224961
 20
265.259813
 21
265.259813
  0
ARC
  8
APS_GEOMETRY
 10
-88.224961
 20
266.565369
 40
1.305556
 50
270.0
 51
90.0
  0
LINE
  8
APS_GEOMETRY
 10
-82.586072
 11
-85.919405
 20
270.259813
 21
270.259813
  0
LINE
  8
APS_GEOMETRY
 10
-85.919405
 11
-85.919405
 20
270.259813
 21
265.259813
  0
LINE
  8
APS_GEOMETRY
 10
-85.919405
 11
-82.586072
 20
265.259813
 21
265.259813
  0
LINE
  8
APS_GEOMETRY
 10
-85.86385
 11
-83.697183
 20
267.92648
 21
267.92648
  0
LINE
  8
APS_GEOMETRY
 10
-76.836072
 11
-76.836072
 20
270.259813
 21
265.259813
  0
LINE
  8
APS_GEOMETRY
 10
-76.836072
 11
-73.502738
 20
265.259813
 21
265.259813
  0
LINE
  8
APS_GEOMETRY
 10
-71.824274
 11
-71.824274
 20
270.259813
 21
265.259813
  0
LINE
  8
APS_GEOMETRY
 10
-73.00257
 11
-71.824274
 20
265.258616
 21
265.259813
  0
LINE
  8
APS_GEOMETRY
 10
-71.824274
 11
-70.645977
 20
265.259813
 21
265.258616
  0
LINE
  8
APS_GEOMETRY
 10
-73.00257
 11
-71.824274
 20
270.258616
 21
270.259813
  0
LINE
  8
APS_GEOMETRY
 10
-71.824274
 11
-70.645977
 20
270.259813
 21
270.258616
  0
LINE
  8
APS_GEOMETRY
 10
-69.646145
 11
-69.646145
 20
265.259813
 21
270.259813
  0
LINE
  8
APS_GEOMETRY
 10
-69.646145
 11
-69.368368
 20
270.259813
 21
270.259813
  0
LINE
  8
APS_GEOMETRY
 10
-69.368368
 11
-66.59059
 20
270.259813
 21
265.259813
  0
LINE
  8
APS_GEOMETRY
 10
-66.59059
 11
-66.312812
 20
265.259813
 21
265.259813
  0
LINE
  8
APS_GEOMETRY
 10
-66.312812
 11
-66.312812
 20
265.259813
 21
270.259813
  0
LINE
  8
APS_GEOMETRY
 10
-61.701701
 11
-63.923923
 20
265.259813
 21
268.315369
  0
LINE
  8
APS_GEOMETRY
 10
-65.257256
 11
-61.701701
 20
267.259813
 21
270.259813
  0
LINE
  8
APS_GEOMETRY
 10
-65.312812
 11
-65.312812
 20
270.259813
 21
265.259813
  0
LINE
  8
APS_GEOMETRY
 10
-115.656506
 11
-115.656506
 20
254.759813
 21
250.259813
  0
LINE
  8
APS_GEOMETRY
 10
-116.256506
 11
-115.006506
 20
253.359813
 21
253.359813
  0
LINE
  8
APS_GEOMETRY
 10
-113.406506
 11
-113.406506
 20
254.759813
 21
250.259813
  0
LINE
  8
APS_GEOMETRY
 10
-114.006506
 11
-112.756506
 20
253.359813
 21
253.359813
  0
ARC
  8
APS_GEOMETRY
 10
-110.658602
 20
251.511294
 40
1.28635
 50
214.9193
 51
269.7887
  0
ARC
  8
APS_GEOMETRY
 10
-110.665549
 20
251.401601
 40
1.17665
 50
270.107261
 51
333.411436
  0
ARC
  8
APS_GEOMETRY
 10
-111.412048
 20
251.774936
 40
2.0113
 50
333.419009
 51
26.581852
  0
ARC
  8
APS_GEOMETRY
 10
-110.66556
 20
252.148294
 40
1.17665
 50
26.58881
 51
89.892414
  0
ARC
  8
APS_GEOMETRY
 10
-110.658597
 20
252.038601
 40
1.28635
 50
90.211714
 51
145.081065
  0
LINE
  8
APS_GEOMETRY
 10
-111.713352
 11
-111.713352
 20
253.374944
 21
249.024944
  0
ARC
  8
APS_GEOMETRY
 10
-107.979155
 20
252.124295
 40
1.2202
 50
42.8264
 51
122.4689
  0
ARC
  8
APS_GEOMETRY
 10
-108.291754
 20
252.613679
 40
0.6395
 50
122.378183
 51
252.485679
  0
LINE
  8
APS_GEOMETRY
 10
-108.484207
 11
-107.484205
 20
252.003825
 21
251.703795
  0
ARC
  8
APS_GEOMETRY
 10
-107.683183
 20
251.045929
 40
0.6873
 50
300.512868
 51
73.171518
  0
ARC
  8
APS_GEOMETRY
 10
-107.984257
 20
251.580775
 40
1.301
 50
240.027532
 51
299.976472
  0
ARC
  8
APS_GEOMETRY
 10
-108.300623
 20
251.037289
 40
0.67215
 50
209.746055
 51
240.244046
  0
LINE
  8
APS_GEOMETRY
 10
-105.740786
 11
-105.990786
 20
252.656629
 21
252.656629
  0
LINE
  8
APS_GEOMETRY
 10
-105.990786
 11
-105.990786
 20
252.656629
 21
252.906629
  0
LINE
  8
APS_GEOMETRY
 10
-105.990786
 11
-105.740786
 20
252.906629
 21
252.906629
  0
LINE
  8
APS_GEOMETRY
 10
-105.740786
 11
-105.740786
 20
252.906629
 21
252.656629
  0
LINE
  8
APS_GEOMETRY
 10
-105.740786
 11
-105.990786
 20
251.416142
 21
251.416142
  0
LINE
  8
APS_GEOMETRY
 10
-105.990786
 11
-105.990786
 20
251.416142
 21
251.666142
  0
LINE
  8
APS_GEOMETRY
 10
-105.990786
 11
-105.740786
 20
251.666142
 21
251.666142
  0
LINE
  8
APS_GEOMETRY
 10
-105.740786
 11
-105.740786
 20
251.666142
 21
251.416142
  0
LINE
  8
APS_GEOMETRY
 10
-104.659169
 11
-101.659169
 20
250.217749
 21
254.717749
  0
LINE
  8
APS_GEOMETRY
 10
-100.659169
 11
-97.659169
 20
250.217749
 21
254.717749
  0
LINE
  8
APS_GEOMETRY
 10
-96.62453
 11
-95.47453
 20
253.478648
 21
250.228648
  0
LINE
  8
APS_GEOMETRY
 10
-96.62453
 11
-96.22453
 20
248.978648
 21
248.978648
  0
LINE
  8
APS_GEOMETRY
 10
-96.22453
 11
-96.02453
 20
248.978648
 21
249.028648
  0
LINE
  8
APS_GEOMETRY
 10
-96.02453
 11
-95.87453
 20
249.028648
 21
249.128648
  0
LINE
  8
APS_GEOMETRY
 10
-95.87453
 11
-95.77453
 20
249.128648
 21
249.278648
  0
LINE
  8
APS_GEOMETRY
 10
-95.77453
 11
-94.47453
 20
249.278648
 21
253.478648
  0
ARC
  8
APS_GEOMETRY
 10
-92.720138
 20
251.454759
 40
1.17055
 50
206.2329
 51
333.7671
  0
ARC
  8
APS_GEOMETRY
 10
-93.468843
 20
251.837368
 40
2.0113
 50
333.417878
 51
26.581314
  0
ARC
  8
APS_GEOMETRY
 10
-92.720134
 20
252.219968
 40
1.17055
 50
26.231996
 51
153.7676
  0
ARC
  8
APS_GEOMETRY
 10
-91.971429
 20
251.837359
 40
2.0113
 50
153.418164
 51
206.581836
  0
LINE
  8
APS_GEOMETRY
 10
-91.031385
 11
-91.031423
 20
253.435935
 21
251.135919
  0
ARC
  8
APS_GEOMETRY
 10
-90.185885
 20
251.131474
 40
0.84555
 50
179.698802
 51
270.305782
  0
ARC
  8
APS_GEOMETRY
 10
-90.180235
 20
251.740335
 40
1.4544
 50
269.9552
 51
333.2598
  0
LINE
  8
APS_GEOMETRY
 10
-88.881385
 11
-88.881385
 20
253.435935
 21
250.285935
  0
LINE
  8
APS_GEOMETRY
 10
-87.333281
 11
-87.333281
 20
254.759813
 21
250.259813
  0
LINE
  8
APS_GEOMETRY
 10
-87.933281
 11
-86.683281
 20
253.359813
 21
253.359813
  0
LINE
  8
APS_GEOMETRY
 10
-85.631325
 11
-85.631363
 20
253.435935
 21
251.135919
  0
ARC
  8
APS_GEOMETRY
 10
-84.785825
 20
251.131474
 40
0.84555
 50
179.698802
 51
270.305782
  0
ARC
  8
APS_GEOMETRY
 10
-84.780175
 20
251.740335
 40
1.4544
 50
269.9552
 51
333.2598
  0
LINE
  8
APS_GEOMETRY
 10
-83.481325
 11
-83.481325
 20
253.435935
 21
250.285935
  0
CIRCLE
  8
APS_GEOMETRY
 10
-82.024012
 20
250.761708
 40
0.5
  0
LINE
  8
APS_GEOMETRY
 10
-80.515479
 11
-80.515479
 20
250.259813
 21
254.759813
  0
ARC
  8
APS_GEOMETRY
 10
-79.460729
 20
251.496163
 40
1.28635
 50
214.9193
 51
269.7887
  0
ARC
  8
APS_GEOMETRY
 10
-79.467676
 20
251.38647
 40
1.17665
 50
270.107261
 51
333.411436
  0
ARC
  8
APS_GEOMETRY
 10
-80.214175
 20
251.759805
 40
2.0113
 50
333.419009
 51
26.581852
  0
ARC
  8
APS_GEOMETRY
 10
-79.467687
 20
252.133163
 40
1.17665
 50
26.58881
 51
89.892414
  0
ARC
  8
APS_GEOMETRY
 10
-79.460724
 20
252.02347
 40
1.28635
 50
90.211714
 51
145.081065
  0
LINE
  8
APS_GEOMETRY
 10
-77.689336
 11
-75.28933
 20
252.087375
 21
252.087367
  0
ARC
  8
APS_GEOMETRY
 10
-76.772087
 20
252.14166
 40
1.48375
 50
357.902951
 51
30.171303
  0
ARC
  8
APS_GEOMETRY
 10
-76.441136
 20
252.338824
 40
1.09855
 50
29.956335
 51
89.906216
  0
ARC
  8
APS_GEOMETRY
 10
-76.437128
 20
252.260725
 40
1.17665
 50
90.107586
 51
153.41119
  0
ARC
  8
APS_GEOMETRY
 10
-75.69064
 20
251.887367
 40
2.0113
 50
153.418148
 51
206.580991
  0
ARC
  8
APS_GEOMETRY
 10
-76.43714
 20
251.514031
 40
1.17665
 50
206.588564
 51
269.892739
  0
ARC
  8
APS_GEOMETRY
 10
-76.444086
 20
251.623725
 40
1.28635
 50
270.2113
 51
325.0807
  0
LINE
  8
APS_GEOMETRY
 10
-74.70765
 11
-71.70765
 20
250.217749
 21
254.717749
  0
LINE
  8
APS_GEOMETRY
 10
-70.789267
 11
-69.931454
 20
250.259813
 21
250.259813
  0
LINE
  8
APS_GEOMETRY
 10
-69.931454
 11
-69.073641
 20
250.259813
 21
250.259813
  0
LINE
  8
APS_GEOMETRY
 10
-69.931454
 11
-69.931454
 20
250.259813
 21
255.259813
  0
LINE
  8
APS_GEOMETRY
 10
-69.931454
 11
-70.789267
 20
255.259813
 21
254.402
  0
LINE
  8
APS_GEOMETRY
 10
-67.957384
 11
-66.807384
 20
253.478648
 21
250.228648
  0
LINE
  8
APS_GEOMETRY
 10
-67.957384
 11
-67.557384
 20
248.978648
 21
248.978648
  0
LINE
  8
APS_GEOMETRY
 10
-67.557384
 11
-67.357384
 20
248.978648
 21
249.028648
  0
LINE
  8
APS_GEOMETRY
 10
-67.357384
 11
-67.207384
 20
249.028648
 21
249.128648
  0
LINE
  8
APS_GEOMETRY
 10
-67.207384
 11
-67.107384
 20
249.128648
 21
249.278648
  0
LINE
  8
APS_GEOMETRY
 10
-67.107384
 11
-65.807384
 20
249.278648
 21
253.478648
  0
LINE
  8
APS_GEOMETRY
 10
-64.923641
 11
-64.923641
 20
250.259813
 21
255.259813
  0
LINE
  8
APS_GEOMETRY
 10
-64.923641
 11
-64.645863
 20
255.259813
 21
255.259813
  0
LINE
  8
APS_GEOMETRY
 10
-64.645863
 11
-62.701418
 20
255.259813
 21
250.259813
  0
LINE
  8
APS_GEOMETRY
 10
-62.701418
 11
-60.756974
 20
250.259813
 21
255.259813
  0
LINE
  8
APS_GEOMETRY
 10
-60.756974
 11
-60.479196
 20
255.259813
 21
255.259813
  0
LINE
  8
APS_GEOMETRY
 10
-60.479196
 11
-60.479196
 20
255.259813
 21
250.259813
  0
LINE
  8
APS_GEOMETRY
 10
-59.368085
 11
-56.312529
 20
251.769904
 21
251.769904
  0
LINE
  8
APS_GEOMETRY
 10
-59.979196
 11
-58.034751
 20
250.259813
 21
255.259813
  0
LINE
  8
APS_GEOMETRY
 10
-58.034751
 11
-57.590307
 20
255.259813
 21
255.259813
  0
LINE
  8
APS_GEOMETRY
 10
-57.590307
 11
-55.756974
 20
255.259813
 21
250.259813
  0
ARC
  8
APS_GEOMETRY
 10
-53.32252
 20
252.101913
 40
1.30795
 50
89.6195
 51
170.8532
  0
LINE
  8
APS_GEOMETRY
 10
-54.61382
 11
-54.61382
 20
253.409813
 21
250.259813
  0
LINE
  8
APS_GEOMETRY
 10
-55.256974
 11
-53.970667
 20
250.259813
 21
250.259813
  0
LINE
  8
APS_GEOMETRY
 10
-52.676154
 11
-49.065043
 20
255.262439
 21
255.262439
  0
LINE
  8
APS_GEOMETRY
 10
-49.065043
 11
-49.065075
 20
255.262439
 21
254.984676
  0
ARC
  8
APS_GEOMETRY
 10
-45.655654
 20
250.429661
 40
5.689667
 50
126.8148
 51
181.6842
  0
ARC
  8
APS_GEOMETRY
 10
-46.464668
 20
252.093592
 40
1.865667
 50
202.7274
 51
247.2726
  0
ARC
  8
APS_GEOMETRY
 10
-46.435471
 20
252.127748
 40
1.9085
 50
246.860287
 51
293.140726
  0
ARC
  8
APS_GEOMETRY
 10
-46.395057
 20
252.050877
 40
1.821945
 50
292.922067
 51
357.893283
  0
ARC
  8
APS_GEOMETRY
 10
-46.214615
 20
252.041371
 40
1.641278
 50
357.993348
 51
71.191207
  0
ARC
  8
APS_GEOMETRY
 10
-46.435556
 20
251.389166
 40
2.329889
 50
71.219129
 51
108.775441
  0
ARC
  8
APS_GEOMETRY
 10
-46.583056
 20
251.788823
 40
1.904056
 50
108.443904
 51
138.941081
  0
LINE
  8
APS_GEOMETRY
 10
-48.01878
 11
-47.629891
 20
253.039473
 21
255.261703
  0
LINE
  8
APS_GEOMETRY
 10
-47.629891
 11
-45.129891
 20
255.261703
 21
255.261703
  0
LINE
  8
APS_GEOMETRY
 10
-43.590588
 11
-43.590588
 20
250.259813
 21
254.759813
  0
LINE
  8
APS_GEOMETRY
 10
-41.440588
 11
-41.44055
 20
250.259813
 21
252.55983
  0
ARC
  8
APS_GEOMETRY
 10
-42.286088
 20
252.564275
 40
0.84555
 50
359.698802
 51
90.305782
  0
ARC
  8
APS_GEOMETRY
 10
-42.291738
 20
251.955413
 40
1.4544
 50
89.9552
 51
153.2598
  0
ARC
  8
APS_GEOMETRY
 10
-38.702473
 20
252.093592
 40
1.865667
 50
202.7274
 51
247.2726
  0
ARC
  8
APS_GEOMETRY
 10
-38.673276
 20
252.127748
 40
1.9085
 50
246.860287
 51
293.140726
  0
ARC
  8
APS_GEOMETRY
 10
-38.632862
 20
252.050877
 40
1.821945
 50
292.922067
 51
357.893283
  0
ARC
  8
APS_GEOMETRY
 10
-38.45242
 20
252.041371
 40
1.641278
 50
357.993348
 51
71.191207
  0
ARC
  8
APS_GEOMETRY
 10
-38.673361
 20
251.389166
 40
2.329889
 50
71.219129
 51
108.775441
  0
ARC
  8
APS_GEOMETRY
 10
-38.820861
 20
251.788823
 40
1.904056
 50
108.443904
 51
138.941081
  0
LINE
  8
APS_GEOMETRY
 10
-40.256585
 11
-39.867695
 20
253.039473
 21
255.261703
  0
LINE
  8
APS_GEOMETRY
 10
-39.867695
 11
-37.367695
 20
255.261703
 21
255.261703
  0
ARC
  8
APS_GEOMETRY
 10
-34.359328
 20
251.914382
 40
1.637
 50
218.6887
 51
321.3113
  0
ARC
  8
APS_GEOMETRY
 10
-35.446635
 20
252.807806
 40
3.044222
 50
320.978113
 51
39.020738
  0
ARC
  8
APS_GEOMETRY
 10
-34.3593
 20
253.701196
 40
1.637
 50
38.688157
 51
141.312908
  0
ARC
  8
APS_GEOMETRY
 10
-33.271993
 20
252.807771
 40
3.044222
 50
140.978975
 51
219.021025
  0
ARC
  8
APS_GEOMETRY
 10
-30.354824
 20
254.822888
 40
2.166445
 50
295.9876
 51
313.9964
  0
ARC
  8
APS_GEOMETRY
 10
-29.599237
 20
254.042136
 40
1.079944
 50
313.930836
 51
46.072395
  0
ARC
  8
APS_GEOMETRY
 10
-30.072258
 20
253.354073
 40
1.908556
 50
50.178678
 51
129.819556
  0
ARC
  8
APS_GEOMETRY
 10
-30.661479
 20
254.06998
 40
0.981389
 50
130.163237
 51
229.839346
  0
ARC
  8
APS_GEOMETRY
 10
-30.200489
 20
254.62045
 40
1.699389
 50
229.930688
 51
276.210455
  0
ARC
  8
APS_GEOMETRY
 10
-29.832723
 20
251.241627
 40
1.699389
 50
49.934494
 51
96.213281
  0
ARC
  8
APS_GEOMETRY
 10
-29.437991
 20
251.597721
 40
1.175056
 50
306.509514
 51
53.490801
  0
ARC
  8
APS_GEOMETRY
 10
-30.072202
 20
252.448658
 40
2.236333
 50
233.400655
 51
306.598732
  0
ARC
  8
APS_GEOMETRY
 10
-30.706424
 20
251.597729
 40
1.175056
 50
126.510158
 51
233.489989
  0
ARC
  8
APS_GEOMETRY
 10
-29.25982
 20
249.689811
 40
3.569334
 50
112.535105
 51
126.952643
  0
ENDSEC
  0
EOF
